<svg xmlns="http://www.w3.org/2000/svg" width="85" height="85" viewBox="0 0 85 85">
  <g id="Grupo_181333" data-name="Grupo 181333" transform="translate(426 9269.58)">
    <g id="Grupo_177974" data-name="Grupo 177974" transform="translate(-995 -11120.58)">
      <path id="Trazado_227961" data-name="Trazado 227961" d="M42.5,0A42.5,42.5,0,1,1,0,42.5,42.5,42.5,0,0,1,42.5,0Z" transform="translate(569 1851)" fill="#ecf3fb"/>
      <path id="Intersección_11" data-name="Intersección 11" d="M5.556,63.107A41.856,41.856,0,0,1,0,42.206,42.447,42.447,0,0,1,68.444,8.893,41.868,41.868,0,0,1,74,29.792,42.447,42.447,0,0,1,5.556,63.107Z" transform="translate(569 1851)" fill="#fff"/>
    </g>
    <g id="buena-retroalimentacion" transform="translate(-411 -9255.043)">
      <path id="Trazado_228176" data-name="Trazado 228176" d="M11.243,27.642H10.078A4.082,4.082,0,0,1,6,23.564V13.078A4.082,4.082,0,0,1,10.078,9h1.165a4.082,4.082,0,0,1,4.078,4.078V23.564A4.082,4.082,0,0,1,11.243,27.642ZM10.078,12.5a.583.583,0,0,0-.583.583V23.564a.583.583,0,0,0,.583.583h1.165a.589.589,0,0,0,.583-.583V13.078a.583.583,0,0,0-.583-.583Z" transform="translate(7.982 11.972)"/>
      <path id="Trazado_228177" data-name="Trazado 228177" d="M23.1,32.936H21.915c-6.429,0-10.223-1.617-11.912-2.582a1.747,1.747,0,1,1,1.734-3.034c1.116.638,4.346,2.123,10.179,2.123H23.1a2.838,2.838,0,0,0,2.8-2.263,1.917,1.917,0,0,1,.044-.2c.168-.722,1.186-5.851,1.24-6.55a2.7,2.7,0,0,0-2.705-2.64H18.653A1.748,1.748,0,0,1,17.2,15.068a5.3,5.3,0,0,0,.8-3.384c0-2.09-.823-3.069-1.121-3.188a9.367,9.367,0,0,0-.324,2.116c0,3.9-3.784,6.688-5.411,7.7A1.749,1.749,0,1,1,9.292,15.35c1.82-1.137,3.768-2.98,3.768-4.737,0-3.864,1.99-5.593,3.961-5.593,2.2,0,4.474,2.493,4.474,6.665a11.472,11.472,0,0,1-.3,2.61h3.279a6.2,6.2,0,0,1,6.2,6.2A27.241,27.241,0,0,1,30,24.545c-.289,1.487-.485,2.5-.678,3.19l.026,0a6.324,6.324,0,0,1-6.245,5.2Z" transform="translate(11.268 6.678)"/>
      <path id="Trazado_228178" data-name="Trazado 228178" d="M3.864,31.982a1.747,1.747,0,0,1-1.748-1.729L2,19.766A1.746,1.746,0,0,1,3.748,18H14.234a1.748,1.748,0,1,1,0,3.5H5.514l.1,8.72a1.746,1.746,0,0,1-1.727,1.766Z" transform="translate(2.66 23.945)"/>
      <path id="Trazado_228179" data-name="Trazado 228179" d="M28.234,13.982H17.748a1.748,1.748,0,0,1,0-3.5h8.738V1.748a1.748,1.748,0,0,1,3.5,0V12.234A1.748,1.748,0,0,1,28.234,13.982Z" transform="translate(21.284)"/>
      <path id="Trazado_228180" data-name="Trazado 228180" d="M2.864,37.284A1.749,1.749,0,0,1,1.191,36.04,27.966,27.966,0,0,1,27.963,0,27.642,27.642,0,0,1,49.819,10.57a1.747,1.747,0,1,1-2.745,2.162A24.171,24.171,0,0,0,27.963,3.5,24.467,24.467,0,0,0,4.539,35.033a1.751,1.751,0,0,1-1.17,2.179A1.8,1.8,0,0,1,2.864,37.284Z"/>
      <path id="Trazado_228181" data-name="Trazado 228181" d="M24.69,45.285A27.642,27.642,0,0,1,2.835,34.715,1.747,1.747,0,1,1,5.58,32.552a24.171,24.171,0,0,0,19.11,9.237A24.467,24.467,0,0,0,48.114,10.252a1.749,1.749,0,0,1,3.349-1.009A27.968,27.968,0,0,1,24.69,45.285Z" transform="translate(3.273 10.641)"/>
    </g>
  </g>
</svg>
