<svg xmlns="http://www.w3.org/2000/svg" width="85" height="85" viewBox="0 0 85 85">
  <g id="Grupo_181330" data-name="Grupo 181330" transform="translate(-1020 -1902)">
    <g id="Grupo_177951" data-name="Grupo 177951" transform="translate(451 51)">
      <path id="Trazado_227961" data-name="Trazado 227961" d="M42.5,0A42.5,42.5,0,1,1,0,42.5,42.5,42.5,0,0,1,42.5,0Z" transform="translate(569 1851)" fill="#ecf3fb"/>
      <path id="Intersección_11" data-name="Intersección 11" d="M5.556,63.107A41.856,41.856,0,0,1,0,42.206,42.447,42.447,0,0,1,68.444,8.893,41.868,41.868,0,0,1,74,29.792,42.447,42.447,0,0,1,5.556,63.107Z" transform="translate(569 1851)" fill="#fff"/>
    </g>
    <g id="necesidades" transform="translate(1029.149 1912)">
      <g id="Grupo_177972" data-name="Grupo 177972">
        <path id="Trazado_228148" data-name="Trazado 228148" d="M200.508,358.393a5.82,5.82,0,0,0,.6-2.589v-2.267a5.856,5.856,0,0,0-11.712,0V355.8a5.82,5.82,0,0,0,.6,2.589,9.326,9.326,0,0,0-4,7.612v2.082a1.322,1.322,0,0,0,1.322,1.322H203.19a1.322,1.322,0,0,0,1.322-1.322v-2.082A9.325,9.325,0,0,0,200.508,358.393Zm-8.463-4.855a3.211,3.211,0,0,1,6.422,0V355.8a3.211,3.211,0,0,1-6.423,0S192.045,353.538,192.045,353.538Zm9.823,13.227H188.645a6.837,6.837,0,0,1,3.045-6.319,5.893,5.893,0,0,0,7.132,0A6.837,6.837,0,0,1,201.868,366.765Z" transform="translate(-161.405 -301.708)"/>
        <path id="Trazado_228149" data-name="Trazado 228149" d="M65.057,20.628H50.379V2.645A2.648,2.648,0,0,0,47.735,0H39.8a1.322,1.322,0,1,0,0,2.645h7.934V20.628H43.3a10.577,10.577,0,1,0-18.891,0H19.967V2.645H27.9A1.322,1.322,0,1,0,27.9,0H19.967a2.648,2.648,0,0,0-2.645,2.645V20.628H2.645A2.648,2.648,0,0,0,0,23.272V44.429a2.648,2.648,0,0,0,2.645,2.645H15.432L17.3,48.945a2.648,2.648,0,0,0,3.74,0l1.872-1.872h2.208a2.648,2.648,0,0,0,2.645-2.645V31.735h2.341l1.872,1.872a2.648,2.648,0,0,0,3.74,0l1.872-1.872h2.341V44.429a2.648,2.648,0,0,0,2.644,2.645h2.209l1.872,1.872a2.648,2.648,0,0,0,3.74,0l1.872-1.872H65.057A2.648,2.648,0,0,0,67.7,44.429V23.272a2.647,2.647,0,0,0-2.644-2.645ZM26.027,17.19h3.294A20.112,20.112,0,0,0,30.382,23a7.958,7.958,0,0,1-4.355-5.812Zm7.823-9.2c.512.274,1.669,2.517,1.883,6.553H31.968C32.182,10.51,33.339,8.267,33.851,7.993Zm1.883,9.2c-.214,4.036-1.371,6.279-1.883,6.553-.512-.274-1.669-2.517-1.883-6.553Zm2.647,0h3.294A7.959,7.959,0,0,1,37.32,23,20.113,20.113,0,0,0,38.38,17.19Zm3.294-2.645H38.38A20.112,20.112,0,0,0,37.32,8.733,7.958,7.958,0,0,1,41.674,14.545ZM30.382,8.733a20.116,20.116,0,0,0-1.061,5.812H26.027A7.959,7.959,0,0,1,30.382,8.733Zm-8.014,35.7a1.322,1.322,0,0,0-.935.387l-2.259,2.259-2.259-2.259a1.322,1.322,0,0,0-.935-.387H2.645V23.272H25.123V44.429ZM37.045,29.091a1.323,1.323,0,0,0-.935.387l-2.259,2.259-2.259-2.259a1.322,1.322,0,0,0-.935-.387H27.768V24.518a10.653,10.653,0,0,0,12.165,0v4.573H37.045ZM51.722,44.429a1.323,1.323,0,0,0-.935.387l-2.259,2.259-2.259-2.259a1.323,1.323,0,0,0-.935-.387H42.578V23.272H65.057V44.429Z"/>
        <path id="Trazado_228150" data-name="Trazado 228150" d="M365.443,206.986a4.667,4.667,0,0,0-5.3-.289c-4.4-2.512-9.234,2.288-6.183,7.388,1.575,2.58,4.263,4.85,6.183,5.146,1.919-.294,4.608-2.568,6.183-5.146C368.1,211.012,367.162,208.305,365.443,206.986Zm-1.4,5.776a10.784,10.784,0,0,1-3.893,3.734c-1.8-.8-6.359-5.209-3.687-7.412a2.051,2.051,0,0,1,2.752.218,1.322,1.322,0,0,0,1.87,0,2.051,2.051,0,0,1,2.753-.218C364.613,209.683,365.076,210.963,364.038,212.762Z" transform="translate(-306.328 -178.768)"/>
        <path id="Trazado_228151" data-name="Trazado 228151" d="M82.3,198.724l-1.425-.59a1.311,1.311,0,0,1,1-2.423l.713.3a1.322,1.322,0,0,0,1.012-2.443,12.268,12.268,0,0,0-1.2-.461v-.724a1.322,1.322,0,0,0-2.645,0v.936a3.965,3.965,0,0,0,.1,7.263l1.425.59a1.311,1.311,0,0,1-1,2.423l-.713-.3a1.322,1.322,0,0,0-1.012,2.443,12.64,12.64,0,0,0,1.2.461v.724a1.322,1.322,0,0,0,2.645,0v-.938A3.965,3.965,0,0,0,82.3,198.724Z" transform="translate(-67.198 -165.8)"/>
        <path id="Trazado_228152" data-name="Trazado 228152" d="M247.321,2.7A1.322,1.322,0,1,0,246,1.377,1.322,1.322,0,0,0,247.321,2.7Z" transform="translate(-213.47 -0.054)"/>
      </g>
    </g>
  </g>
</svg>
