<svg xmlns="http://www.w3.org/2000/svg" width="85" height="85" viewBox="0 0 85 85">
  <g id="Grupo_181331" data-name="Grupo 181331" transform="translate(426 9639.58)">
    <g id="Grupo_177973" data-name="Grupo 177973" transform="translate(-995 -11490.58)">
      <path id="Trazado_227961" data-name="Trazado 227961" d="M42.5,0A42.5,42.5,0,1,1,0,42.5,42.5,42.5,0,0,1,42.5,0Z" transform="translate(569 1851)" fill="#ecf3fb"/>
      <path id="Intersecci贸n_11" data-name="Intersecci贸n 11" d="M5.556,63.107A41.856,41.856,0,0,1,0,42.206,42.447,42.447,0,0,1,68.444,8.893,41.868,41.868,0,0,1,74,29.792,42.447,42.447,0,0,1,5.556,63.107Z" transform="translate(569 1851)" fill="#fff"/>
    </g>
    <g id="portfolio" transform="translate(-412.444 -9626.041)">
      <path id="Trazado_228153" data-name="Trazado 228153" d="M30.418,44.836A14.418,14.418,0,1,1,44.836,30.418,14.418,14.418,0,0,1,30.418,44.836Zm0-25.232A10.814,10.814,0,1,0,41.232,30.418,10.814,10.814,0,0,0,30.418,19.6Z" transform="translate(12.836 12.034)"/>
      <path id="Trazado_228157" data-name="Trazado 228157" d="M30.639,36.232H5.407A5.413,5.413,0,0,1,0,30.825V12.8A1.8,1.8,0,0,1,1.8,11H45.057a1.8,1.8,0,0,1,1.8,1.8v9.156a1.8,1.8,0,1,1-3.6,0V14.6H3.6v16.22a1.8,1.8,0,0,0,1.8,1.8H30.639a1.8,1.8,0,0,1,0,3.6Z" transform="translate(0 8.023)"/>
      <path id="Trazado_228158" data-name="Trazado 228158" d="M45.057,19.418H1.8a1.8,1.8,0,0,1-1.8-1.8V10.407A5.413,5.413,0,0,1,5.407,5H41.452a5.413,5.413,0,0,1,5.407,5.407v7.209A1.8,1.8,0,0,1,45.057,19.418ZM3.6,15.814h39.65V10.407a1.8,1.8,0,0,0-1.8-1.8H5.407a1.8,1.8,0,0,0-1.8,1.8Z" transform="translate(0 3.209)"/>
      <path id="Trazado_228159" data-name="Trazado 228159" d="M8.8,17.209a1.8,1.8,0,0,1-1.8-1.8V11.8a1.8,1.8,0,0,1,3.6,0v3.6A1.8,1.8,0,0,1,8.8,17.209Z" transform="translate(5.616 7.22)"/>
      <path id="Trazado_228160" data-name="Trazado 228160" d="M18.8,17.209a1.8,1.8,0,0,1-1.8-1.8V11.8a1.8,1.8,0,0,1,3.6,0v3.6A1.8,1.8,0,0,1,18.8,17.209Z" transform="translate(13.639 7.22)"/>
      <path id="Trazado_228161" data-name="Trazado 228161" d="M26.825,11.814H8.8a1.8,1.8,0,0,1-1.8-1.8v-3.6A5.413,5.413,0,0,1,12.407,1H23.22a5.413,5.413,0,0,1,5.407,5.407v3.6A1.8,1.8,0,0,1,26.825,11.814ZM10.6,8.209H25.023v-1.8a1.8,1.8,0,0,0-1.8-1.8H12.407a1.8,1.8,0,0,0-1.8,1.8Z" transform="translate(5.616)"/>
      <path id="Sustracci贸n_7" data-name="Sustracci贸n 7" d="M414.661,9775.19h-1.037a1.193,1.193,0,0,1-1.18-1.2V9772.1a8.474,8.474,0,0,1,3.571-6.912,5.346,5.346,0,0,1-.539-2.352v-2.057a5.225,5.225,0,1,1,10.448,0v2.057a5.344,5.344,0,0,1-.539,2.352,8.475,8.475,0,0,1,3.571,6.912v1.889a1.193,1.193,0,0,1-1.18,1.2h-.633l-.562-2.4h.014a6.252,6.252,0,0,0-2.715-5.739,5.184,5.184,0,0,1-6.363,0,6.253,6.253,0,0,0-2.719,5.667l-.138,2.473Zm6.039-17.31a2.827,2.827,0,0,0-2.864,2.9v2.057a2.864,2.864,0,1,0,5.728,0v-2.057A2.827,2.827,0,0,0,420.7,9757.881Z" transform="translate(-377.2 -9722.027)"/>
    </g>
  </g>
</svg>
