<svg xmlns="http://www.w3.org/2000/svg" xmlns:xlink="http://www.w3.org/1999/xlink" width="58.014" height="42" viewBox="0 0 58.014 42">
  <defs>
    <linearGradient id="linear-gradient" x1="0.908" y1="0.083" x2="0.159" y2="0.88" gradientUnits="objectBoundingBox">
      <stop offset="0" stop-color="#fbe18a"/>
      <stop offset="0.001" stop-color="#fbe18a"/>
      <stop offset="0.209" stop-color="#fcbb45"/>
      <stop offset="0.376" stop-color="#f75274"/>
      <stop offset="0.572" stop-color="#d53692"/>
      <stop offset="0.736" stop-color="#8f39ce"/>
      <stop offset="1" stop-color="#5b4fe9"/>
    </linearGradient>
  </defs>
  <g id="Grupo_181331" data-name="Grupo 181331" transform="translate(3447.014 6611)">
    <rect id="Rectángulo_57906" data-name="Rectángulo 57906" width="4" height="42" transform="translate(-3393 -6611)" fill="#8c5be1"/>
    <g id="Grupo_177989" data-name="Grupo 177989" transform="translate(-3862.014 -11110.601)">
      <g id="Grupo_175121" data-name="Grupo 175121" transform="translate(451.272 4538.872) rotate(180)">
        <path id="Trazado_217296" data-name="Trazado 217296" d="M27.092,36.272H9.181A9.181,9.181,0,0,1,0,27.092V9.18A9.181,9.181,0,0,1,9.181,0h17.91a9.181,9.181,0,0,1,9.18,9.18V27.092a9.181,9.181,0,0,1-9.18,9.18" transform="translate(0 0)" fill="url(#linear-gradient)"/>
      </g>
      <g id="Grupo_175123" data-name="Grupo 175123" transform="translate(422.859 4510.509)">
        <path id="Trazado_217282" data-name="Trazado 217282" d="M23.559,66.253a1.221,1.221,0,1,0,1.222,1.221,1.221,1.221,0,0,0-1.222-1.221" transform="translate(-7.629 -62.534)" fill="#fff"/>
        <path id="Trazado_217283" data-name="Trazado 217283" d="M18.1,67.824a5.13,5.13,0,1,0,5.13,5.129,5.136,5.136,0,0,0-5.13-5.129m0,8.416a3.286,3.286,0,1,1,3.286-3.286A3.29,3.29,0,0,1,18.1,76.24" transform="translate(-7.604 -62.538)" fill="#fff"/>
        <path id="Trazado_217284" data-name="Trazado 217284" d="M22.162,83.355H13.846A6.264,6.264,0,0,1,7.59,77.1V68.781a6.264,6.264,0,0,1,6.256-6.257h8.316a6.264,6.264,0,0,1,6.257,6.257V77.1a6.264,6.264,0,0,1-6.257,6.257M13.846,64.484a4.3,4.3,0,0,0-4.3,4.3V77.1a4.3,4.3,0,0,0,4.3,4.3h8.316a4.3,4.3,0,0,0,4.3-4.3V68.781a4.3,4.3,0,0,0-4.3-4.3Z" transform="translate(-7.59 -62.524)" fill="#fff"/>
      </g>
    </g>
  </g>
</svg>
