<svg xmlns="http://www.w3.org/2000/svg" xmlns:xlink="http://www.w3.org/1999/xlink" width="58.014" height="86" viewBox="0 0 58.014 86">
  <defs>
    <clipPath id="clip-path">
      <path id="Trazado_217301" data-name="Trazado 217301" d="M9.487,0A9.517,9.517,0,0,0,0,9.487v17.3a9.517,9.517,0,0,0,9.487,9.487H15.3l2.622-.742,3.045.742h5.815a9.517,9.517,0,0,0,9.487-9.487V9.487A9.517,9.517,0,0,0,26.784,0Z" fill="none"/>
    </clipPath>
    <clipPath id="clip-path-2">
      <rect id="Rectángulo_55949" data-name="Rectángulo 55949" width="36.272" height="36.272" fill="none"/>
    </clipPath>
  </defs>
  <g id="Grupo_181329" data-name="Grupo 181329" transform="translate(3447.014 6797)">
    <g id="Grupo_175141" data-name="Grupo 175141" transform="translate(-3447.014 -6772)">
      <g id="Grupo_175133" data-name="Grupo 175133" transform="translate(0 0)">
        <g id="Grupo_175132" data-name="Grupo 175132" clip-path="url(#clip-path)">
          <rect id="Rectángulo_55948" data-name="Rectángulo 55948" width="41.454" height="41.454" transform="translate(-2.591 -2.591)" fill="#2b1e99"/>
        </g>
      </g>
      <g id="Grupo_175135" data-name="Grupo 175135" transform="translate(0 0)">
        <g id="Grupo_175134" data-name="Grupo 175134" clip-path="url(#clip-path-2)">
          <path id="Trazado_217302" data-name="Trazado 217302" d="M23.122,22.485l.8-5.243H18.9v-3.4a2.622,2.622,0,0,1,2.956-2.833h2.287V6.546a27.96,27.96,0,0,0-4.06-.354c-4.143,0-6.85,2.51-6.85,7.055v4h-4.6v5.243h4.6v12.3H18.9v-12.3Z" transform="translate(2.073 1.489)" fill="#fff"/>
        </g>
      </g>
    </g>
    <rect id="Rectángulo_57904" data-name="Rectángulo 57904" width="4" height="86" transform="translate(-3393 -6797)" fill="#8c5be1"/>
  </g>
</svg>
