<svg xmlns="http://www.w3.org/2000/svg" width="58.014" height="42" viewBox="0 0 58.014 42">
  <g id="Grupo_181330" data-name="Grupo 181330" transform="translate(3447.014 6681)">
    <rect id="Rectángulo_57905" data-name="Rectángulo 57905" width="4" height="42" transform="translate(-3393 -6681)" fill="#8c5be1"/>
    <g id="Grupo_177986" data-name="Grupo 177986" transform="translate(-4925.014 -11300.796)">
      <path id="Trazado_217280" data-name="Trazado 217280" d="M27.092,146.068H9.181A9.181,9.181,0,0,1,0,136.887v-17.91a9.181,9.181,0,0,1,9.181-9.18h17.91a9.181,9.181,0,0,1,9.18,9.18v17.91a9.181,9.181,0,0,1-9.18,9.181" transform="translate(1478 4513)" fill="#3cf"/>
      <path id="Trazado_217281" data-name="Trazado 217281" d="M27.986,121.858a8.032,8.032,0,0,1-1.976.563c.318-.053.784-.629.972-.861a3.633,3.633,0,0,0,.657-1.2c.017-.034.029-.077-.005-.1a.115.115,0,0,0-.1.009,10.117,10.117,0,0,1-2.343.9.157.157,0,0,1-.161-.043,1.843,1.843,0,0,0-.205-.209,4.147,4.147,0,0,0-1.134-.7,3.948,3.948,0,0,0-1.741-.28,4.165,4.165,0,0,0-1.651.466,4.25,4.25,0,0,0-1.332,1.088,4.091,4.091,0,0,0-.8,1.594,4.284,4.284,0,0,0-.042,1.682c.012.095,0,.108-.081.095a12.513,12.513,0,0,1-8.05-4.1c-.095-.108-.145-.108-.222.008a4.082,4.082,0,0,0,.7,4.824c.158.149.32.3.495.434a4.079,4.079,0,0,1-1.554-.434c-.094-.059-.141-.026-.149.08a2.426,2.426,0,0,0,.025.462,4.129,4.129,0,0,0,2.545,3.291,2.413,2.413,0,0,0,.516.158,4.608,4.608,0,0,1-1.524.047c-.111-.021-.153.034-.111.141a4.283,4.283,0,0,0,3.2,2.68c.145.025.29.025.435.059-.009.013-.018.013-.026.026a5.07,5.07,0,0,1-2.185,1.159,7.819,7.819,0,0,1-3.321.424c-.178-.026-.216-.024-.265,0s-.006.073.051.12c.226.15.457.282.692.409a10.923,10.923,0,0,0,2.219.888,11.818,11.818,0,0,0,11.476-2.683,12.04,12.04,0,0,0,3.177-8.786c0-.126.149-.2.237-.263a7.744,7.744,0,0,0,1.562-1.624.493.493,0,0,0,.1-.311v-.017c0-.051,0-.036-.08,0" transform="translate(1478.049 4513.058)" fill="#fff"/>
    </g>
  </g>
</svg>
