<svg xmlns="http://www.w3.org/2000/svg" xmlns:xlink="http://www.w3.org/1999/xlink" width="400" height="263" viewBox="0 0 400 263">
  <defs>
    <clipPath id="clip-path">
      <rect id="Rectángulo_57887" data-name="Rectángulo 57887" width="246" height="182.061" fill="none"/>
    </clipPath>
  </defs>
  <g id="Grupo_181329" data-name="Grupo 181329" transform="translate(-180 -2389)">
    <rect id="Rectángulo_57875" data-name="Rectángulo 57875" width="400" height="263" transform="translate(180 2389)" fill="#ecf3fb"/>
    <rect id="Rectángulo_57881" data-name="Rectángulo 57881" width="400" height="73" transform="translate(180 2579)" fill="#fdf3e1"/>
    <text id="Servicio_al_cliente" data-name="Servicio al cliente" transform="translate(223 2609)" fill="#12263f" font-size="16" font-family="Roboto-Bold, Roboto" font-weight="700"><tspan x="0" y="17">Servicio al cliente</tspan></text>
    <g id="Grupo_177950" data-name="Grupo 177950" transform="translate(257 2396.939)">
      <g id="Grupo_177949" data-name="Grupo 177949" clip-path="url(#clip-path)">
        <path id="Trazado_227865" data-name="Trazado 227865" d="M225.36,191.02c26.178-19.9,37.836-75.1-4.669-102.164-28.14-17.915-45.641-7.7-77.3-19.546C104.747,54.846,98.987,11.145,51.978,32.648,27.074,44.036,9.81,76.134,6.772,112.614c-2.977,35.725,9.685,60.238,35.559,77.011,60.761,2.585,121.644,2.117,183.028,1.395" transform="translate(-2.848 -12.029)" fill="#fff"/>
        <path id="Trazado_227866" data-name="Trazado 227866" d="M208.041,21.995c-3.954,15.875,10.729,31.591,26.2,38.106s33.208,5.744,49.779,2.635c7.15-1.339,14.5-3.225,20.056-7.783s8.776-12.474,5.731-18.868c-2.687-5.639-9.227-8.527-15.463-10.01s-12.858-2.089-18.413-5.209c-5.268-2.96-9-7.86-13.586-11.741-8.465-7.16-20.355-10.71-31.36-8.445S211.4,8.5,208.041,21.995" transform="translate(-93.071 0)" fill="#fff"/>
        <path id="Trazado_227867" data-name="Trazado 227867" d="M363.447,163.333a18.976,18.976,0,1,1-18.976-18.976,18.957,18.957,0,0,1,18.976,18.976" transform="translate(-146.074 -64.784)" fill="#43a99b"/>
        <path id="Trazado_227869" data-name="Trazado 227869" d="M354.863,156.184a6.211,6.211,0,1,1-6.212,6.212,6.211,6.211,0,0,1,6.212-6.212" transform="translate(-156.466 -70.092)" fill="#fff"/>
        <path id="Trazado_227870" data-name="Trazado 227870" d="M362.107,190.288a18.989,18.989,0,0,1-23.535,0c1.214-5.34,2.331-9.95,3.493-11.118,1.641-1.641,6-2.6,8.269-2.6s6.832,1.163,7.676,2.006c1.721,1.715,3.2,6.451,4.1,11.711" transform="translate(-151.943 -79.241)" fill="#fff"/>
        <path id="Trazado_227871" data-name="Trazado 227871" d="M235.75,134.7v-9.371a4.63,4.63,0,0,1,4.63-4.63H269.9a4.63,4.63,0,0,1,4.63,4.63V134.7a4.63,4.63,0,0,1-4.63,4.63H240.386a4.631,4.631,0,0,1-4.636-4.63" transform="translate(-105.799 -54.165)" fill="#afafaf"/>
        <path id="Trazado_227872" data-name="Trazado 227872" d="M246.738,145.205,232.45,159.123l23.157-11.7" transform="translate(-104.318 -65.165)" fill="#afafaf"/>
        <path id="Trazado_227873" data-name="Trazado 227873" d="M242.25,128.074v-.05a.689.689,0,0,1,.689-.689h14.6a.689.689,0,0,1,.689.689v.05a.689.689,0,0,1-.689.689h-14.6a.689.689,0,0,1-.689-.689" transform="translate(-108.716 -57.145)" fill="#fff"/>
        <path id="Trazado_227874" data-name="Trazado 227874" d="M272.42,128.074v-.05a.689.689,0,0,1,.689-.689h12.739a.689.689,0,0,1,.689.689v.05a.689.689,0,0,1-.689.689H273.109a.689.689,0,0,1-.689-.689" transform="translate(-122.256 -57.145)" fill="#fff"/>
        <path id="Trazado_227875" data-name="Trazado 227875" d="M262.33,133.764v-.05a.689.689,0,0,1,.689-.689h18.3a.689.689,0,0,1,.689.689v.05a.689.689,0,0,1-.689.689h-18.3a.689.689,0,0,1-.689-.689" transform="translate(-117.728 -59.698)" fill="#fff"/>
        <path id="Trazado_227876" data-name="Trazado 227876" d="M242.25,133.764v-.05a.689.689,0,0,1,.689-.689h8.175a.689.689,0,0,1,.689.689v.05a.689.689,0,0,1-.689.689h-8.175a.689.689,0,0,1-.689-.689" transform="translate(-108.716 -59.698)" fill="#fff"/>
        <path id="Trazado_227877" data-name="Trazado 227877" d="M266.94,139.454v-.05a.689.689,0,0,1,.689-.689h15.76a.689.689,0,0,1,.689.689v.05a.689.689,0,0,1-.689.689h-15.76a.689.689,0,0,1-.689-.689" transform="translate(-119.796 -62.252)" fill="#fff"/>
        <path id="Trazado_227878" data-name="Trazado 227878" d="M242.25,139.454v-.05a.689.689,0,0,1,.689-.689h10.887a.689.689,0,0,1,.689.689v.05a.689.689,0,0,1-.689.689H242.939a.689.689,0,0,1-.689-.689" transform="translate(-108.716 -62.252)" fill="#fff"/>
        <path id="Trazado_227879" data-name="Trazado 227879" d="M242.25,145.144v-.05a.689.689,0,0,1,.689-.689h4.04a.689.689,0,0,1,.689.689v.05a.689.689,0,0,1-.689.689h-4.04a.689.689,0,0,1-.689-.689" transform="translate(-108.716 -64.806)" fill="#fff"/>
        <path id="Trazado_227880" data-name="Trazado 227880" d="M254.67,145.144v-.05a.689.689,0,0,1,.689-.689h22.523a.689.689,0,0,1,.689.689v.05a.689.689,0,0,1-.689.689H255.359a.689.689,0,0,1-.689-.689" transform="translate(-114.29 -64.806)" fill="#fff"/>
        <path id="Trazado_227881" data-name="Trazado 227881" d="M52.163,76.122A18.256,18.256,0,0,1,75.3,100.663a18.038,18.038,0,0,1-10.179,9.6A18.257,18.257,0,0,1,52.163,76.122" transform="translate(-18.121 -33.626)" fill="#0b67d1"/>
        <path id="Trazado_227882" data-name="Trazado 227882" d="M66.088,122.626a4.424,4.424,0,1,1-2.073-5.9,4.424,4.424,0,0,1,2.073,5.9" transform="translate(-25.883 -52.186)" fill="#fff"/>
        <path id="Trazado_227883" data-name="Trazado 227883" d="M61.315,123.617l-.213-2.806,2.323-1.588,2.537,1.218.213,2.806-2.323,1.588Z" transform="translate(-27.421 -53.504)" fill="#0b67d1"/>
        <path id="Trazado_227884" data-name="Trazado 227884" d="M81.7,90.115a4.424,4.424,0,1,1-2.073-5.9,4.424,4.424,0,0,1,2.073,5.9" transform="translate(-32.889 -37.596)" fill="#fff"/>
        <path id="Trazado_227885" data-name="Trazado 227885" d="M77.332,89.379l.152-3.568,2.689-2.349,2.537,1.218-.152,3.568L79.868,90.6Z" transform="translate(-34.705 -37.456)" fill="#0b67d1"/>
        <path id="Trazado_227886" data-name="Trazado 227886" d="M68.507,109.179l-3.385-1.625,2.5-5.77q.238-.549.518-1.078l2.939-5.56,3.384,1.626-2.412,5.682q-.28.659-.62,1.29Z" transform="translate(-29.225 -42.699)" fill="#fff"/>
        <path id="Trazado_227887" data-name="Trazado 227887" d="M96.514,120.376c.653-.3,11.127.175,11.127.175l-7.551-6.932Z" transform="translate(-43.313 -50.99)" fill="#0b67d1"/>
        <path id="Trazado_227888" data-name="Trazado 227888" d="M221.034,39.132A17.944,17.944,0,1,1,203.2,57.183a17.944,17.944,0,0,1,17.836-18.051" transform="translate(-91.19 -17.561)" fill="#8c5be1"/>
        <rect id="Rectángulo_57884" data-name="Rectángulo 57884" width="1.198" height="15.069" transform="translate(129.352 24.222)" fill="#fff"/>
        <rect id="Rectángulo_57885" data-name="Rectángulo 57885" width="15.275" height="1.199" transform="translate(116.71 47.986) rotate(-34.698)" fill="#fff"/>
        <path id="Trazado_227889" data-name="Trazado 227889" d="M236.058,70.339a1.651,1.651,0,1,1-1.651-1.651,1.651,1.651,0,0,1,1.651,1.651" transform="translate(-104.455 -30.826)" fill="#fff"/>
        <path id="Trazado_227890" data-name="Trazado 227890" d="M238.8,224.47c-1.064-16.4,6.113-33.382,18.2-43.095.375,16.487-6.73,33.173-18.2,43.095" transform="translate(-107.119 -81.397)" fill="#a2c7eb"/>
        <path id="Trazado_227891" data-name="Trazado 227891" d="M244.934,189.385a217.581,217.581,0,0,0-13.158,29.672c-4.448,12.441-7.949,25.659-15.567,36.089" transform="translate(-97.03 -84.992)" fill="none" stroke="#6f8bbf" stroke-linecap="round" stroke-miterlimit="10" stroke-width="1"/>
        <path id="Trazado_227892" data-name="Trazado 227892" d="M231.96,256.33c6.119-13.687,18.262-24.028,31.651-26.955-5.7,14.668-18.521,25.858-31.651,26.955" transform="translate(-104.098 -102.938)" fill="#a2c7eb"/>
        <path id="Trazado_227893" data-name="Trazado 227893" d="M260.707,234.845q-13.717,12.072-27.9,23.46" transform="translate(-104.48 -105.393)" fill="none" stroke="#6f8bbf" stroke-linecap="round" stroke-miterlimit="10" stroke-width="1"/>
        <path id="Trazado_227894" data-name="Trazado 227894" d="M225.41,286.842c8.175-12.21,23.256-18.582,35.736-15.1-9.178,12.055-24.292,18.444-35.736,15.1" transform="translate(-101.159 -121.527)" fill="#a2c7eb"/>
        <path id="Trazado_227895" data-name="Trazado 227895" d="M256.972,274.115a118.985,118.985,0,0,1-34.192,14.63" transform="translate(-99.978 -123.016)" fill="none" stroke="#6f8bbf" stroke-linecap="round" stroke-miterlimit="10" stroke-width="1"/>
        <path id="Trazado_227896" data-name="Trazado 227896" d="M224.131,238.824c2.613-13.748-1.306-29.072-10.032-39.209-3.577,13.51-.165,29.342,10.032,39.209" transform="translate(-95.465 -89.583)" fill="#a2c7eb"/>
        <path id="Trazado_227897" data-name="Trazado 227897" d="M216.85,205.975a148.819,148.819,0,0,0,9.52,36.474" transform="translate(-97.317 -92.437)" fill="none" stroke="#6f8bbf" stroke-linecap="round" stroke-miterlimit="10" stroke-width="1"/>
        <path id="Trazado_227898" data-name="Trazado 227898" d="M209.851,263.708c-1.113-14.133-8.357-27.407-18.951-34.733a60.4,60.4,0,0,0,5.76,21.261c3.633,7.535,8.968,12.314,13.191,13.472" transform="translate(-85.671 -102.759)" fill="#a2c7eb"/>
        <path id="Trazado_227899" data-name="Trazado 227899" d="M193.75,234.165a112.278,112.278,0,0,0,17.645,32.169" transform="translate(-86.95 -105.088)" fill="none" stroke="#6f8bbf" stroke-linecap="round" stroke-miterlimit="10" stroke-width="1"/>
        <path id="Trazado_227900" data-name="Trazado 227900" d="M373.71,260.627c5.782-15.043,19.083-27.247,33.751-30.962-6.427,14.839-19.546,26.8-33.751,30.962" transform="translate(-167.712 -103.068)" fill="#a2c7eb"/>
        <path id="Trazado_227901" data-name="Trazado 227901" d="M385.874,235.335A213.723,213.723,0,0,0,362.083,256.4c-9.029,9.272-17.545,19.613-28.553,25.8" transform="translate(-149.68 -105.613)" fill="none" stroke="#6f8bbf" stroke-linecap="round" stroke-miterlimit="10" stroke-width="1"/>
        <path id="Trazado_227902" data-name="Trazado 227902" d="M359.92,289.94c11.019-9.7,25.99-13.951,39.021-11.1-11.047,10.743-26.966,15.478-39.021,11.1" transform="translate(-161.524 -124.746)" fill="#a2c7eb"/>
        <path id="Trazado_227903" data-name="Trazado 227903" d="M395.3,282.005q-17.074,5.159-34.275,9.514" transform="translate(-162.017 -126.557)" fill="none" stroke="#6f8bbf" stroke-linecap="round" stroke-miterlimit="10" stroke-width="1"/>
        <path id="Trazado_227904" data-name="Trazado 227904" d="M345.26,311.93c12.232-7.541,28.173-7.061,37.775,1.135-13.053,6.99-29.033,6.51-37.775-1.135" transform="translate(-154.945 -137.586)" fill="#a2c7eb"/>
        <path id="Trazado_227905" data-name="Trazado 227905" d="M378.855,316.8a115.241,115.241,0,0,1-36.215-.921" transform="translate(-153.769 -141.757)" fill="none" stroke="#6f8bbf" stroke-linecap="round" stroke-miterlimit="10" stroke-width="1"/>
        <path id="Trazado_227906" data-name="Trazado 227906" d="M362.439,261.806c7.943-11.179,10.76-26.431,7.2-39.021-8.7,10.572-12.177,26.067-7.2,39.021" transform="translate(-161.629 -99.981)" fill="#a2c7eb"/>
        <path id="Trazado_227907" data-name="Trazado 227907" d="M370.882,229.105a146.564,146.564,0,0,0-6.532,36.381" transform="translate(-163.512 -102.817)" fill="none" stroke="#6f8bbf" stroke-linecap="round" stroke-miterlimit="10" stroke-width="1"/>
        <path id="Trazado_227908" data-name="Trazado 227908" d="M343.4,277.689c4.807-13.042,3.848-27.826-2.514-38.674a59.631,59.631,0,0,0-3.622,21.288c.116,8.191,2.872,14.629,6.135,17.386" transform="translate(-151.354 -107.264)" fill="#a2c7eb"/>
        <path id="Trazado_227909" data-name="Trazado 227909" d="M343.811,244.8a110.541,110.541,0,0,0,2.409,35.857" transform="translate(-154.069 -109.858)" fill="none" stroke="#6f8bbf" stroke-linecap="round" stroke-miterlimit="10" stroke-width="1"/>
        <path id="Trazado_227910" data-name="Trazado 227910" d="M42.636,208.214c-5.895-18.03-22.345-32.6-41.482-36.732,8.045,15.6,22.638,28.013,41.482,36.732" transform="translate(-0.518 -76.957)" fill="#a2c7eb"/>
        <path id="Trazado_227911" data-name="Trazado 227911" d="M43.116,237.585A54.527,54.527,0,0,0,0,233.289a60.888,60.888,0,0,0,43.116,4.3" transform="translate(0 -103.53)" fill="#a2c7eb"/>
        <path id="Trazado_227912" data-name="Trazado 227912" d="M52.21,249.858a57.041,57.041,0,0,0-39.9,9.391c12.851,4.672,28.27,1.642,39.9-9.391" transform="translate(-5.523 -111.894)" fill="#a2c7eb"/>
        <path id="Trazado_227913" data-name="Trazado 227913" d="M63.664,265.782c-13.819-.057-27.407,6.51-35.53,17.175a30.383,30.383,0,0,0,18.324-2.06c5.642-2.555,10.37-6.916,17.206-15.115" transform="translate(-12.626 -119.276)" fill="#a2c7eb"/>
        <path id="Trazado_227914" data-name="Trazado 227914" d="M79.352,291.192A45.35,45.35,0,0,0,41.38,302.237a30.511,30.511,0,0,0,18.432,1c6-1.582,11.4-5.1,19.54-12.046" transform="translate(-18.57 -130.396)" fill="#a2c7eb"/>
        <path id="Trazado_227915" data-name="Trazado 227915" d="M76.28,205.169a45.7,45.7,0,0,1-6.328-42.376c3.9,6.611,7.272,13.6,8.844,21.03s1.267,15.351-2.516,21.347" transform="translate(-30.21 -73.058)" fill="#a2c7eb"/>
        <path id="Trazado_227916" data-name="Trazado 227916" d="M93.121,231.691A41.8,41.8,0,0,1,104.7,195.816c1.07,13.331-3.008,26.912-11.581,35.875" transform="translate(-41.553 -87.878)" fill="#a2c7eb"/>
        <path id="Trazado_227917" data-name="Trazado 227917" d="M8.753,177.344c27.387,17.523,48.805,43.641,60.111,73.316" transform="translate(-3.928 -79.588)" fill="none" stroke="#6f8bbf" stroke-linecap="round" stroke-miterlimit="10" stroke-width="1"/>
        <path id="Trazado_227918" data-name="Trazado 227918" d="M73.64,174.393a217.3,217.3,0,0,1,6.044,41.187" transform="translate(-33.048 -78.264)" fill="none" stroke="#6f8bbf" stroke-linecap="round" stroke-miterlimit="10" stroke-width="1"/>
        <path id="Trazado_227919" data-name="Trazado 227919" d="M102.828,205.307a80.261,80.261,0,0,1-9.851,31.187" transform="translate(-41.726 -92.137)" fill="none" stroke="#6f8bbf" stroke-linecap="round" stroke-miterlimit="10" stroke-width="1"/>
        <path id="Trazado_227920" data-name="Trazado 227920" d="M10.458,235.972a221.715,221.715,0,0,0,38.082,3.872" transform="translate(-4.693 -105.899)" fill="none" stroke="#6f8bbf" stroke-linecap="round" stroke-miterlimit="10" stroke-width="1"/>
        <path id="Trazado_227921" data-name="Trazado 227921" d="M24.184,258.661a102.251,102.251,0,0,0,33.5-8.253" transform="translate(-10.853 -112.377)" fill="none" stroke="#6f8bbf" stroke-linecap="round" stroke-miterlimit="10" stroke-width="1"/>
        <path id="Trazado_227922" data-name="Trazado 227922" d="M36.767,280.389Q52.791,272.4,68.816,264.4" transform="translate(-16.5 -118.655)" fill="none" stroke="#6f8bbf" stroke-linecap="round" stroke-miterlimit="10" stroke-width="1"/>
        <path id="Trazado_227923" data-name="Trazado 227923" d="M49.372,302.056c13.948-2.691,18.092-5.9,33.572-10.346" transform="translate(-22.157 -130.912)" fill="none" stroke="#6f8bbf" stroke-linecap="round" stroke-miterlimit="10" stroke-width="1"/>
        <path id="Trazado_227924" data-name="Trazado 227924" d="M196.792,264.135S198,275.2,199.35,276.086c2.414,1.593,30.361,5.275,30.361,5.275l-.915,7.271s-38.277,3.44-39.9,1.527c-2.822-3.318-7.783-19.326-7.783-19.326Z" transform="translate(-81.278 -118.538)" fill="#e06a58"/>
        <path id="Trazado_227925" data-name="Trazado 227925" d="M176.08,206.42l3.092-7.425s8.39,3.941,11.157,8.809c2.96,5.2,6.582,32.869,6.582,32.869s-14.811,3.412-17.534,1.962-3.3-36.215-3.3-36.215" transform="translate(-79.021 -89.304)" fill="#f2ae30"/>
        <path id="Trazado_227926" data-name="Trazado 227926" d="M108.161,148.854a16.375,16.375,0,0,0-6.78-1.312c-2.321.176-4.691,1.406-5.479,3.445-.562,1.444-.3,3.147-1.191,4.448A5.322,5.322,0,0,1,90.6,157.3c-1.582.11-3.175-.1-4.746.1-4.851.645-8.312,5.915-6.719,10.231.634,1.72,1.935,3.362,1.637,5.154-.314,1.918-2.326,3.181-3.153,4.961-1.1,2.37.215,5.242,2.381,6.857s4.983,2.221,7.717,2.629a32.045,32.045,0,0,0,11.372.033c3.721-.794,7.276-2.756,9.2-5.821a47.569,47.569,0,0,1,2.365-4.162c2.051-2.629,5.683-3.649,8.544-5.512,3.125-2.045,5.419-6.025,3.577-9.139-1.775-2.993-6.394-3.66-8.246-6.609a20.7,20.7,0,0,1-1.444-4c-.507-1.334-1.72-2.006-4.922-3.181" transform="translate(-34.656 -66.201)" fill="#0a2240"/>
        <path id="Trazado_227927" data-name="Trazado 227927" d="M142.6,189.817a3.252,3.252,0,0,0,2.084,1.378,3.123,3.123,0,0,0,2.337-1.246,23.725,23.725,0,0,0,6.036-11.576c-.777-.441-1.527-.865-2.2-1.262a3.348,3.348,0,0,1-1.373-1.51,2.9,2.9,0,0,1-.2-1.422,40.65,40.65,0,0,1,2.288-10.661c-6.912-1.56-13.433-3.412-17.182-6.543-.458,1.929-1,5.705-2.15,9.448-1.229,3.963-3.148,7.882-6.4,9.569A68.582,68.582,0,0,1,142.6,189.817" transform="translate(-56.47 -70.447)" fill="#f9a07b"/>
        <path id="Trazado_227928" data-name="Trazado 227928" d="M154.484,174.189a2.892,2.892,0,0,0,.2,1.422c-4.09,4.961-13.235-1.521-17.248-9.178,1.152-3.743,1.692-7.519,2.15-9.448,3.743,3.131,10.269,4.989,17.182,6.543a40.6,40.6,0,0,0-2.288,10.661" transform="translate(-61.68 -70.451)" fill="#e06a58"/>
        <path id="Trazado_227929" data-name="Trazado 227929" d="M147.154,247.948c-.9,5.986,5.556,12.43,5.716,15.627-13.72,0-42.461.838-57.1-1.152-.667-3.693,6.56-12,6.56-20.2,0-1.086-.044-2.277-.132-3.555-.232-3.66-.772-8.015-1.373-12.48-1.632-11.978-3.8-24.789-2.2-27.445,3.142-5.176,10.49-8.693,14.133-10.2,1.251-.518,2.067-.8,2.128-.832,4.57,7.794,13.869,14.442,17.38,14.144.976-.077,3.87-1.086,5.782-10.716.744.424,1.488.816,2.227,1.2,3.633,1.891,7.039,3.451,8.02,5.882,2.591,6.4,5.132,22.534,4.57,28.272-.568,5.788-2.894,10.209-4.526,16.019-.38,1.362-.728,2.806-1.009,4.36-.072.347-.127.711-.182,1.086" transform="translate(-42.962 -84.238)" fill="#ffc73c"/>
        <path id="Trazado_227930" data-name="Trazado 227930" d="M152.87,289.96c-13.72,0-42.461.838-57.1-1.152-.667-3.693,6.56-12,6.56-20.2,0-1.086-.044-2.277-.132-3.555-.232-3.66-.772-8.015-1.373-12.48,2.6,2.74,6.383-8.836,8.059-5.446,9.068,18.3,16.217,23.113,28.642,23.113a47.7,47.7,0,0,0,10.815-1.35c-.38,1.362-.728,2.806-1.009,4.36q-.1.529-.182,1.091c-.9,5.975,5.556,12.419,5.716,15.622" transform="translate(-42.962 -110.622)" fill="#fb3"/>
        <path id="Trazado_227931" data-name="Trazado 227931" d="M154.147,192.33c-.59,4.283-2.337,10.054-7.419,11.576-6.868,2.056-16.807-10.776-20.1-15.368,1.251-.518,2.067-.8,2.128-.832,4.57,7.794,13.869,14.442,17.38,14.144.976-.077,3.87-1.086,5.782-10.716.744.419,1.488.81,2.227,1.2" transform="translate(-56.829 -84.238)" fill="#fce172"/>
        <path id="Trazado_227932" data-name="Trazado 227932" d="M181.63,313.547l-.05,4.779,85.44.507.176-5.419Z" transform="translate(-81.489 -140.653)" fill="#325f73"/>
        <path id="Trazado_227933" data-name="Trazado 227933" d="M326.127,234.4l-1.9-1.929-62.233-.408L230.77,277.216l1.632,1.312Z" transform="translate(-103.564 -104.145)" fill="#325f73"/>
        <path id="Trazado_227934" data-name="Trazado 227934" d="M264.522,235.1,233.73,279.887l58.816.292,34.909-44.418Z" transform="translate(-104.893 -105.505)" fill="#afafaf"/>
        <path id="Trazado_227935" data-name="Trazado 227935" d="M310.976,274.545c3.781,0,6.846,1.532,6.846,3.423s-3.065,3.423-6.846,3.423-6.846-1.532-6.846-3.423,3.065-3.423,6.846-3.423" transform="translate(-136.486 -123.209)" fill="#3c738c"/>
        <path id="Trazado_227936" data-name="Trazado 227936" d="M183.763,148.089c.97-5.2,4.539-8.9,7.972-8.266s5.43,5.378,4.459,10.582-4.539,8.905-7.972,8.265-5.43-5.377-4.459-10.582" transform="translate(-82.359 -62.717)" fill="#56c4f9"/>
        <path id="Trazado_227937" data-name="Trazado 227937" d="M195.207,114.048c-.639,4.531-2.662,9.525-5.611,15.043-1.036-4.52-1.7-10.027-2.613-15.534-.932-5.518-2.117-11.035-4.173-15.545a26.989,26.989,0,0,0-1.51-2.833,10.058,10.058,0,0,1,3.627.325,12.152,12.152,0,0,1,4.961,2.707,17.394,17.394,0,0,1,4.834,7.9,17.727,17.727,0,0,1,.485,7.938" transform="translate(-81.363 -42.695)" fill="#0b2d50"/>
        <path id="Trazado_227938" data-name="Trazado 227938" d="M168.553,116.91c-.033.893-.094,1.8-.176,2.706-1.257,14.663-7.414,24.722-16.834,24.722-13.3,0-21.922-14.916-21.922-29.529,0-14.414,8.831-24.849,19.166-23.642,5.959.684,10.313,2.662,13.406,5.562a18.272,18.272,0,0,1,4.531,6.912,30.222,30.222,0,0,1,1.825,9.955c0,.011.011.022.011.033.044,1.069.033,2.161-.006,3.28" transform="translate(-58.17 -40.871)" fill="#f9a07b"/>
        <path id="Trazado_227939" data-name="Trazado 227939" d="M173.512,125.59a14.736,14.736,0,0,0-1.791-4.04,41.856,41.856,0,0,1-26.056,4.184c-1.687,1.406-3.335,2.789-4.994,4.173.033-6.67.127-11.184,2.729-14.414,2.442-3.032,6.515-4.173,10.374-4.669a47.985,47.985,0,0,1,13.092.083,13.248,13.248,0,0,1,4.823,1.428,30.221,30.221,0,0,1,1.825,9.955c0,.011.011.022.011.033.039,1.058.028,2.15-.011,3.269" transform="translate(-63.129 -49.552)" fill="#e06a58"/>
        <path id="Trazado_227940" data-name="Trazado 227940" d="M167.261,105.909a24.572,24.572,0,0,1-6.681,3.859c-7.309,2.949-16.807,3.925-24.21,3.566-3.638,7.993-5.11,10.859-6.041,17.832-3.555-3.335-6.449-9.442-7.309-14.244a32.578,32.578,0,0,1,.568-14.508A21.7,21.7,0,0,1,134.656,89.1a20.808,20.808,0,0,1,2.381-1.1,22.8,22.8,0,0,1,14.789-.176,17.614,17.614,0,0,1,6.692,3.892c3.754,3.39,6.074,7.982,7.574,11.421.474,1.053.854,2.006,1.169,2.773" transform="translate(-54.96 -38.9)" fill="#0b2d50"/>
        <path id="Trazado_227941" data-name="Trazado 227941" d="M178.737,110.249a22.444,22.444,0,0,0-1.395-4.658,16.051,16.051,0,0,0-1.312-2.464,13.511,13.511,0,0,0-7.039-5.738,25.906,25.906,0,0,0-2.646-3.17,20.418,20.418,0,0,0-11.394-6.008,21.646,21.646,0,0,0-10.352.882,20.8,20.8,0,0,1,2.381-1.1,22.8,22.8,0,0,1,14.789-.176,17.614,17.614,0,0,1,6.692,3.892,12.152,12.152,0,0,1,4.961,2.707,17.4,17.4,0,0,1,4.834,7.9,17.807,17.807,0,0,1,.48,7.938" transform="translate(-64.893 -38.895)" fill="#225570"/>
        <path id="Trazado_227942" data-name="Trazado 227942" d="M155.38,144.578a9.331,9.331,0,0,1,8.588-.733" transform="translate(-69.731 -64.234)" fill="none" stroke="#0b2d50" stroke-linecap="round" stroke-miterlimit="10" stroke-width="2"/>
        <path id="Trazado_227943" data-name="Trazado 227943" d="M185.92,144.566c2.106-1.571,5.226-1.731,6.852,0" transform="translate(-83.437 -64.322)" fill="none" stroke="#0b2d50" stroke-linecap="round" stroke-miterlimit="10" stroke-width="2"/>
        <path id="Trazado_227944" data-name="Trazado 227944" d="M180.96,160.115a10.089,10.089,0,0,1-.43,4.685" transform="translate(-81.018 -71.856)" fill="none" stroke="#cc454e" stroke-linecap="round" stroke-miterlimit="10" stroke-width="2"/>
        <path id="Trazado_227945" data-name="Trazado 227945" d="M165.414,155.675c.56,0,1.014.715,1.014,1.6s-.454,1.6-1.014,1.6-1.014-.715-1.014-1.6.454-1.6,1.014-1.6" transform="translate(-73.779 -69.863)" fill="#262d40"/>
        <path id="Trazado_227946" data-name="Trazado 227946" d="M189.464,154.325c.56,0,1.014.715,1.014,1.6s-.454,1.6-1.014,1.6-1.014-.716-1.014-1.6.454-1.6,1.014-1.6" transform="translate(-84.572 -69.257)" fill="#262d40"/>
        <path id="Trazado_227947" data-name="Trazado 227947" d="M172.323,170.8a7.793,7.793,0,0,1-.579.91,6.3,6.3,0,0,1-2.993,2.332h-.006a3.909,3.909,0,0,1-1.924.127c-2.073-.369-2.618-2.282-2.718-3.754a7.88,7.88,0,0,1-.017-.794,7.519,7.519,0,0,1,.077-.992,23.6,23.6,0,0,0,8.158,2.172" transform="translate(-73.637 -75.675)" fill="#cc454e"/>
        <path id="Trazado_227948" data-name="Trazado 227948" d="M172.325,170.8a7.788,7.788,0,0,1-.579.91,22.772,22.772,0,0,1-7.656-2.089,7.514,7.514,0,0,1,.077-.992,23.6,23.6,0,0,0,8.158,2.172" transform="translate(-73.64 -75.675)" fill="#fff"/>
        <path id="Trazado_227949" data-name="Trazado 227949" d="M168.761,175.482a3.909,3.909,0,0,1-1.924.127c-2.073-.369-2.618-2.282-2.718-3.754a5.644,5.644,0,0,1,4.641,3.627" transform="translate(-73.653 -77.125)" fill="#e8729b"/>
        <path id="Trazado_227950" data-name="Trazado 227950" d="M135.013,118.573a38.1,38.1,0,0,1,2.745-13.7,19.693,19.693,0,0,1,18-12.485,19.33,19.33,0,0,1,13.9,5.435,14.576,14.576,0,0,0-8.274-6.323,23.064,23.064,0,0,0-13.411.7c-4.5,1.825-10.1,6.89-12.132,12.243s-3.01,13.687-3.01,13.687Z" transform="translate(-59.611 -40.759)" fill="#3d86e0"/>
        <path id="Trazado_227951" data-name="Trazado 227951" d="M128.13,137.171c3.661-.38,7.1,3.808,7.672,9.355s-1.923,10.353-5.584,10.733-7.1-3.808-7.672-9.355,1.923-10.353,5.584-10.733" transform="translate(-54.959 -61.549)" fill="#56c4f9"/>
        <path id="Trazado_227952" data-name="Trazado 227952" d="M126.688,143.062c2.363-.355,4.786,2.727,5.41,6.885s-.784,7.816-3.148,8.171-4.785-2.727-5.41-6.885.785-7.816,3.148-8.171" transform="translate(-55.375 -64.191)" fill="#3d86e0"/>
        <path id="Trazado_227953" data-name="Trazado 227953" d="M171.63,180.055c1.961,0,3.55.989,3.55,2.21s-1.589,2.21-3.55,2.21-3.55-.989-3.55-2.21,1.589-2.21,3.55-2.21" transform="translate(-75.43 -80.804)" fill="#3a92c9"/>
        <path id="Trazado_227954" data-name="Trazado 227954" d="M142.17,170.655a21.447,21.447,0,0,0,14.282,7.392" transform="translate(-63.803 -76.586)" fill="none" stroke="#3a92c9" stroke-linecap="round" stroke-miterlimit="10" stroke-width="2"/>
        <path id="Trazado_227955" data-name="Trazado 227955" d="M143.057,272.352l-.342,8.814s-31.877,9.553-37.141,6.532c-2.569-1.477-4.967-9.6-6.758-17.534-1.874-8.334-3.076-16.449-3.076-16.449l18.686-3.66s.011,11.394.645,17.981c.226,2.453.551,4.239.987,4.531,1.648,1.086,27-.215,27-.215" transform="translate(-42.966 -112.219)" fill="#f9a07b"/>
        <path id="Trazado_227956" data-name="Trazado 227956" d="M115.071,268.02c-3.4,1.1-9.95,2.806-16.256,2.133-1.874-8.334-3.076-16.449-3.076-16.449l18.686-3.66c0-.006.011,11.388.645,17.975" transform="translate(-42.966 -112.214)" fill="#e06a58"/>
        <path id="Trazado_227957" data-name="Trazado 227957" d="M178.6,287.115c4.741-1.014,12.766-3.451,16.1-4.289,2.365-.6,8.522,2.591,10.148,5.595.711,1.312,1.384,8.742-1.08,7.976-1.235-.386-1.031-3.572-1.417-4.873a5.742,5.742,0,0,0-2.844-2.966c1.02,2.541.981,4.757.871,7.5a3.89,3.89,0,0,1-.353,1.764,1.266,1.266,0,0,1-1.488.667c-.562-.232-.755-.932-.882-1.543a50.184,50.184,0,0,1-1.053-6.626c.044,2.354-.006,4.713-.154,7.061-.11,1.8-1,2.784-2.1,2.469-.491-.138-.689-.59-.9-1.185-.331,1.152-1.158,2.425-2.227,1.94-.65-.292-1.053-2.64-.937-5.055a14.144,14.144,0,0,1-7.034,1.935c-2.392.11-4.84-.336-6.278-1.962a42.29,42.29,0,0,1,1.632-8.412" transform="translate(-79.42 -126.893)" fill="#f9a07b"/>
        <path id="Trazado_227958" data-name="Trazado 227958" d="M206.551,306.338a16.853,16.853,0,0,0-.491-5.683" transform="translate(-92.475 -134.927)" fill="none" stroke="#cc454e" stroke-linecap="round" stroke-miterlimit="10" stroke-width="1"/>
        <path id="Trazado_227959" data-name="Trazado 227959" d="M110.021,207.041c-1.356-3.82-6.323-11.636-6.323-11.636s-7.579,3.153-10.269,8.505c-4.553,9.062-2.238,35.08-2.238,35.08,6.135,2.569,18.449,2.607,23.692,1.869,0,0-2.144-26.183-4.862-33.818" transform="translate(-40.66 -87.693)" fill="#ffc73c"/>
        <path id="Trazado_227960" data-name="Trazado 227960" d="M127.58,219.415a168.534,168.534,0,0,1,3.528,28.162" transform="translate(-57.255 -98.468)" fill="none" stroke="#f2ae30" stroke-linecap="round" stroke-miterlimit="10" stroke-width="1"/>
        <rect id="Rectángulo_57886" data-name="Rectángulo 57886" width="217.336" height="5.452" transform="translate(15.214 176.609)" fill="#0b2d50"/>
      </g>
    </g>
  </g>
</svg>
