<svg xmlns="http://www.w3.org/2000/svg" width="326.391" height="203" viewBox="0 0 326.391 203">
  <g id="Grupo_181330" data-name="Grupo 181330" transform="translate(-637.32 -1493)">
    <rect id="Rectángulo_58403" data-name="Rectángulo 58403" width="326" height="203" transform="translate(637.32 1493)" fill="#ecf3fb"/>
    <g id="Grupo_178791" data-name="Grupo 178791" transform="translate(643 1545.201) rotate(-90)">
      <rect id="Rectángulo_45220" data-name="Rectángulo 45220" width="17.346" height="17.221" transform="translate(45.805 17.221) rotate(180)" fill="#fdf3e1"/>
      <g id="Grupo_152581" data-name="Grupo 152581" transform="translate(22.769 12.829)">
        <g id="Grupo_152556" data-name="Grupo 152556" transform="translate(0 9.204)">
          <rect id="Rectángulo_45221" data-name="Rectángulo 45221" width="1.485" height="1.485" transform="translate(15.779 6.312)" fill="#0b67d1"/>
          <rect id="Rectángulo_45222" data-name="Rectángulo 45222" width="1.485" height="1.485" transform="translate(12.623 6.312)" fill="#0b67d1"/>
          <rect id="Rectángulo_45223" data-name="Rectángulo 45223" width="1.485" height="1.485" transform="translate(9.468 6.312)" fill="#0b67d1"/>
          <rect id="Rectángulo_45224" data-name="Rectángulo 45224" width="1.485" height="1.485" transform="translate(6.312 6.312)" fill="#0b67d1"/>
          <rect id="Rectángulo_45225" data-name="Rectángulo 45225" width="1.485" height="1.485" transform="translate(3.156 6.312)" fill="#0b67d1"/>
          <rect id="Rectángulo_45226" data-name="Rectángulo 45226" width="1.485" height="1.485" transform="translate(0 6.312)" fill="#0b67d1"/>
          <rect id="Rectángulo_45232" data-name="Rectángulo 45232" width="1.485" height="1.485" transform="translate(15.779 3.156)" fill="#0b67d1"/>
          <rect id="Rectángulo_45233" data-name="Rectángulo 45233" width="1.485" height="1.485" transform="translate(12.623 3.156)" fill="#0b67d1"/>
          <rect id="Rectángulo_45234" data-name="Rectángulo 45234" width="1.485" height="1.485" transform="translate(9.468 3.156)" fill="#0b67d1"/>
          <rect id="Rectángulo_45235" data-name="Rectángulo 45235" width="1.485" height="1.485" transform="translate(6.312 3.156)" fill="#0b67d1"/>
          <rect id="Rectángulo_45236" data-name="Rectángulo 45236" width="1.485" height="1.485" transform="translate(3.156 3.156)" fill="#0b67d1"/>
          <rect id="Rectángulo_45237" data-name="Rectángulo 45237" width="1.485" height="1.485" transform="translate(0 3.156)" fill="#0b67d1"/>
          <rect id="Rectángulo_45243" data-name="Rectángulo 45243" width="1.485" height="1.485" transform="translate(15.779)" fill="#0b67d1"/>
          <rect id="Rectángulo_45244" data-name="Rectángulo 45244" width="1.485" height="1.485" transform="translate(12.623)" fill="#0b67d1"/>
          <rect id="Rectángulo_45245" data-name="Rectángulo 45245" width="1.485" height="1.485" transform="translate(9.468)" fill="#0b67d1"/>
          <rect id="Rectángulo_45246" data-name="Rectángulo 45246" width="1.485" height="1.485" transform="translate(6.312)" fill="#0b67d1"/>
          <rect id="Rectángulo_45247" data-name="Rectángulo 45247" width="1.485" height="1.485" transform="translate(3.156)" fill="#0b67d1"/>
          <rect id="Rectángulo_45248" data-name="Rectángulo 45248" width="1.485" height="1.485" fill="#0b67d1"/>
        </g>
        <g id="Grupo_152580" data-name="Grupo 152580" transform="translate(0)">
          <rect id="Rectángulo_45221-2" data-name="Rectángulo 45221" width="1.485" height="1.485" transform="translate(15.779 6.312)" fill="#0b67d1"/>
          <rect id="Rectángulo_45222-2" data-name="Rectángulo 45222" width="1.485" height="1.485" transform="translate(12.623 6.312)" fill="#0b67d1"/>
          <rect id="Rectángulo_45223-2" data-name="Rectángulo 45223" width="1.485" height="1.485" transform="translate(9.468 6.312)" fill="#0b67d1"/>
          <rect id="Rectángulo_45224-2" data-name="Rectángulo 45224" width="1.485" height="1.485" transform="translate(6.312 6.312)" fill="#0b67d1"/>
          <rect id="Rectángulo_45225-2" data-name="Rectángulo 45225" width="1.485" height="1.485" transform="translate(3.156 6.312)" fill="#0b67d1"/>
          <rect id="Rectángulo_45226-2" data-name="Rectángulo 45226" width="1.485" height="1.485" transform="translate(0 6.312)" fill="#0b67d1"/>
          <rect id="Rectángulo_45232-2" data-name="Rectángulo 45232" width="1.485" height="1.485" transform="translate(15.779 3.156)" fill="#0b67d1"/>
          <rect id="Rectángulo_45233-2" data-name="Rectángulo 45233" width="1.485" height="1.485" transform="translate(12.623 3.156)" fill="#0b67d1"/>
          <rect id="Rectángulo_45234-2" data-name="Rectángulo 45234" width="1.485" height="1.485" transform="translate(9.468 3.156)" fill="#0b67d1"/>
          <rect id="Rectángulo_45235-2" data-name="Rectángulo 45235" width="1.485" height="1.485" transform="translate(6.312 3.156)" fill="#0b67d1"/>
          <rect id="Rectángulo_45236-2" data-name="Rectángulo 45236" width="1.485" height="1.485" transform="translate(3.156 3.156)" fill="#0b67d1"/>
          <rect id="Rectángulo_45237-2" data-name="Rectángulo 45237" width="1.485" height="1.485" transform="translate(0 3.156)" fill="#0b67d1"/>
          <rect id="Rectángulo_45243-2" data-name="Rectángulo 45243" width="1.485" height="1.485" transform="translate(15.779)" fill="#0b67d1"/>
          <rect id="Rectángulo_45244-2" data-name="Rectángulo 45244" width="1.485" height="1.485" transform="translate(12.623)" fill="#0b67d1"/>
          <rect id="Rectángulo_45245-2" data-name="Rectángulo 45245" width="1.485" height="1.485" transform="translate(9.468)" fill="#0b67d1"/>
          <rect id="Rectángulo_45246-2" data-name="Rectángulo 45246" width="1.485" height="1.485" transform="translate(6.312)" fill="#0b67d1"/>
          <rect id="Rectángulo_45247-2" data-name="Rectángulo 45247" width="1.485" height="1.485" transform="translate(3.156)" fill="#0b67d1"/>
          <rect id="Rectángulo_45248-2" data-name="Rectángulo 45248" width="1.485" height="1.485" fill="#0b67d1"/>
        </g>
      </g>
    </g>
    <path id="Trazado_229358" data-name="Trazado 229358" d="M6464.68-9988l31.391-31.391V-9988Z" transform="translate(-5532.36 11684)" fill="#0b67d1"/>
  </g>
</svg>
