<svg xmlns="http://www.w3.org/2000/svg" width="59.965" height="54.355" viewBox="0 0 59.965 54.355">
  <g id="advertencia" transform="translate(0 -23.946)">
    <path id="Trazado_227590" data-name="Trazado 227590" d="M209.268,28.478,230.2,64.736a9.047,9.047,0,0,1-7.84,13.566H201.428l-7.239-27.178,7.239-27.178A9.043,9.043,0,0,1,209.268,28.478Z" transform="translate(-171.446 0)" fill="#3b4145"/>
    <path id="Trazado_227591" data-name="Trazado 227591" d="M22.143,28.478,1.209,64.736A9.048,9.048,0,0,0,9.049,78.3H29.983V23.946A9.043,9.043,0,0,0,22.143,28.478Z" transform="translate(0 0)" fill="#525a61"/>
    <path id="Trazado_227592" data-name="Trazado 227592" d="M282.812,93.855,261.879,57.6a5.448,5.448,0,0,0-4.55-2.72l17.9,47.114h2.874a5.428,5.428,0,0,0,4.705-8.137Z" transform="translate(-227.191 -27.309)" fill="#ffb751"/>
    <path id="Trazado_227593" data-name="Trazado 227593" d="M79.387,93.828a6.1,6.1,0,0,1,.625,2.707c0,2.993-2.1,5.429-4.684,5.429H36.335a5.428,5.428,0,0,1-4.705-8.137L52.563,57.57a5.452,5.452,0,0,1,4.705-2.723q.078,0,.156,0a4.655,4.655,0,0,1,3.9,2.72Z" transform="translate(-27.286 -27.282)" fill="#ffd764"/>
    <path id="Trazado_227594" data-name="Trazado 227594" d="M256,354.131v6.033a3.016,3.016,0,1,0,0-6.033Z" transform="translate(-226.017 -291.514)" fill="#3b4145"/>
    <path id="Trazado_227595" data-name="Trazado 227595" d="M233.261,354.131c.333,0,.6,1.35.6,3.016s-.27,3.016-.6,3.016a3.016,3.016,0,1,1,0-6.033Z" transform="translate(-203.279 -291.514)" fill="#525a61"/>
    <path id="Trazado_227596" data-name="Trazado 227596" d="M256,132.646v22.321a3.017,3.017,0,0,0,3.016-3.016V135.662A3.016,3.016,0,0,0,256,132.646Z" transform="translate(-226.017 -95.969)" fill="#3b4145"/>
    <path id="Trazado_227597" data-name="Trazado 227597" d="M233.261,132.646c.333,0,.6,1.35.6,3.016v16.288c0,1.665-.27,3.016-.6,3.016a3.017,3.017,0,0,1-3.016-3.016V135.662A3.016,3.016,0,0,1,233.261,132.646Z" transform="translate(-203.279 -95.969)" fill="#525a61"/>
  </g>
</svg>
