<svg xmlns="http://www.w3.org/2000/svg" width="102" height="102" viewBox="0 0 102 102">
  <g id="Grupo_181331" data-name="Grupo 181331" transform="translate(-641 -1159.679)">
    <g id="Grupo_177826" data-name="Grupo 177826" transform="translate(0 36)">
      <circle id="Elipse_6272" data-name="Elipse 6272" cx="51" cy="51" r="51" transform="translate(641 1123.679)" fill="#e1d3f6"/>
      <path id="Intersección_12" data-name="Intersección 12" d="M7200.683,3318.933A51,51,0,1,1,7232,3329.678,50.762,50.762,0,0,1,7200.683,3318.933Z" transform="translate(-6553 -2119)" fill="#ece5f7"/>
    </g>
    <g id="Grupo_177847" data-name="Grupo 177847" transform="translate(663.65 1169.783)">
      <g id="Grupo_177836" data-name="Grupo 177836" transform="translate(5.471 9.254)">
        <path id="Trazado_227465" data-name="Trazado 227465" d="M293.719,108.523h-.006a8.543,8.543,0,0,1-8.543-8.543V69.227a8.543,8.543,0,0,1,8.543-8.543h.006a8.543,8.543,0,0,1,8.543,8.543V99.98A8.543,8.543,0,0,1,293.719,108.523Z" transform="translate(-256.594 -60.684)" fill="#546e7a"/>
        <path id="Trazado_227487" data-name="Trazado 227487" d="M5.367,0A5.363,5.363,0,1,1,0,5.363,5.365,5.365,0,0,1,5.367,0Z" transform="translate(24.778 3.057)" fill="#43a99b"/>
        <g id="Grupo_177835" data-name="Grupo 177835" transform="translate(0 5.095)">
          <g id="Grupo_177833" data-name="Grupo 177833">
            <g id="Grupo_177832" data-name="Grupo 177832">
              <path id="Trazado_227466" data-name="Trazado 227466" d="M97.787,344.384v-11.2a16.141,16.141,0,0,1,16.141-16.141H124a16.141,16.141,0,0,1,16.141,16.141v11.2Z" transform="translate(-97.787 -283.046)" fill="#8ebfe8"/>
              <path id="Trazado_227467" data-name="Trazado 227467" d="M207.9,334.38h0a5.17,5.17,0,0,1-5.17-5.17v-7h10.344v7a5.171,5.171,0,0,1-5.17,5.17Z" transform="translate(-186.721 -287.419)" fill="#ffc094"/>
              <path id="Trazado_227468" data-name="Trazado 227468" d="M159.043,133.834H159a13.946,13.946,0,0,1-13.946-13.946V108.04A13.946,13.946,0,0,1,159,94.094h.04l13.946,18.825v6.969A13.947,13.947,0,0,1,159.043,133.834Z" transform="translate(-137.848 -94.094)" fill="#ffc094"/>
              <g id="Grupo_177831" data-name="Grupo 177831" transform="translate(18.125 10.591)">
                <path id="Trazado_227469" data-name="Trazado 227469" d="M227.556,163.545v15.2a13.951,13.951,0,0,1-10.916,13.615,13.988,13.988,0,0,0,3.03.331h.04a13.946,13.946,0,0,0,13.946-13.946v-6.969Z" transform="translate(-216.64 -163.545)" fill="#ffae88"/>
              </g>
            </g>
          </g>
          <path id="Trazado_227470" data-name="Trazado 227470" d="M145.057,113.965v-5.9a13.966,13.966,0,1,1,27.932,0v4.854c-8.178,0-10.812-8.181-10.812-8.181s-2.209,9.227-17.12,9.227" transform="translate(-137.848 -94.095)" fill="#546e7a"/>
          <g id="Grupo_177834" data-name="Grupo 177834" transform="translate(18.125 0)">
            <path id="Trazado_227471" data-name="Trazado 227471" d="M219.69,94.094a14.005,14.005,0,0,0-3.05.335,13.975,13.975,0,0,1,10.916,13.636v2.978a10.423,10.423,0,0,0,6.1,1.876v-4.854A13.969,13.969,0,0,0,219.69,94.094Z" transform="translate(-216.64 -94.094)" fill="#37474f"/>
          </g>
        </g>
      </g>
      <g id="Grupo_177841" data-name="Grupo 177841">
        <path id="Trazado_227472" data-name="Trazado 227472" d="M84.235,20.816A12.658,12.658,0,1,0,74.571,25.3a12.739,12.739,0,0,0,5.758-1.419l3.906.868Z" transform="translate(-61.912 0)" fill="#fff6e0"/>
        <path id="Trazado_227473" data-name="Trazado 227473" d="M127.742,0a12.684,12.684,0,0,0-3.05.372A12.656,12.656,0,0,1,134.3,12.651,13.04,13.04,0,0,1,124.65,24.92a12.5,12.5,0,0,0,8.849-1.037l3.906.868V20.816A12.645,12.645,0,0,0,127.742,0Z" transform="translate(-115.083)" fill="#fff0cc"/>
        <g id="Grupo_177840" data-name="Grupo 177840" transform="translate(6.867 11.696)">
          <g id="Grupo_177837" data-name="Grupo 177837" transform="translate(9.375)">
            <path id="Trazado_227474" data-name="Trazado 227474" d="M169.522,78.98a1.144,1.144,0,0,0,0-2.287A1.144,1.144,0,0,0,169.522,78.98Z" transform="translate(-168.417 -76.693)" fill="#828cb3"/>
          </g>
          <g id="Grupo_177838" data-name="Grupo 177838" transform="translate(4.687)">
            <path id="Trazado_227475" data-name="Trazado 227475" d="M138.784,78.98a1.144,1.144,0,0,0,0-2.287A1.144,1.144,0,0,0,138.784,78.98Z" transform="translate(-137.68 -76.693)" fill="#828cb3"/>
          </g>
          <g id="Grupo_177839" data-name="Grupo 177839">
            <path id="Trazado_227476" data-name="Trazado 227476" d="M108.047,78.98a1.144,1.144,0,0,0,0-2.287A1.144,1.144,0,0,0,108.047,78.98Z" transform="translate(-106.942 -76.693)" fill="#828cb3"/>
          </g>
        </g>
      </g>
      <g id="Grupo_177846" data-name="Grupo 177846" transform="translate(37.982 50.49)">
        <path id="Trazado_227477" data-name="Trazado 227477" d="M313.971,335.573a12.658,12.658,0,1,0,9.664-4.485,12.738,12.738,0,0,0-5.758,1.419l-3.906-.868v3.934Z" transform="translate(-310.976 -331.088)" fill="#fff6e0"/>
        <path id="Trazado_227478" data-name="Trazado 227478" d="M377.038,331.088a12.178,12.178,0,0,0-3.008.382,12.65,12.65,0,0,1-.042,24.547,12.652,12.652,0,1,0,3.05-24.929Z" transform="translate(-364.379 -331.088)" fill="#fff0cc"/>
        <g id="Grupo_177845" data-name="Grupo 177845" transform="translate(6.867 11.318)">
          <g id="Grupo_177842" data-name="Grupo 177842">
            <path id="Trazado_227479" data-name="Trazado 227479" d="M357.11,407.594a1.144,1.144,0,0,0,0-2.287A1.144,1.144,0,0,0,357.11,407.594Z" transform="translate(-356.005 -405.307)" fill="#828cb3"/>
          </g>
          <g id="Grupo_177843" data-name="Grupo 177843" transform="translate(4.687)">
            <path id="Trazado_227480" data-name="Trazado 227480" d="M387.848,407.594a1.144,1.144,0,0,0,0-2.287A1.144,1.144,0,0,0,387.848,407.594Z" transform="translate(-386.743 -405.307)" fill="#828cb3"/>
          </g>
          <g id="Grupo_177844" data-name="Grupo 177844" transform="translate(9.375)">
            <path id="Trazado_227481" data-name="Trazado 227481" d="M418.586,407.594a1.144,1.144,0,0,0,0-2.287A1.144,1.144,0,0,0,418.586,407.594Z" transform="translate(-417.481 -405.307)" fill="#828cb3"/>
          </g>
        </g>
      </g>
    </g>
  </g>
</svg>
