<svg xmlns="http://www.w3.org/2000/svg" width="102" height="102" viewBox="0 0 102 102">
  <g id="Grupo_181333" data-name="Grupo 181333" transform="translate(-641 -1485.679)">
    <g id="Grupo_177855" data-name="Grupo 177855" transform="translate(0 362)">
      <circle id="Elipse_6272" data-name="Elipse 6272" cx="51" cy="51" r="51" transform="translate(641 1123.679)" fill="#e1d3f6"/>
      <path id="Intersección_12" data-name="Intersección 12" d="M7200.683,3318.933A51,51,0,1,1,7232,3329.678,50.762,50.762,0,0,1,7200.683,3318.933Z" transform="translate(-6553 -2119)" fill="#ece5f7"/>
    </g>
    <g id="Layer_2" data-name="Layer 2" transform="translate(658.246 1499.19)">
      <g id="Layer_1" data-name="Layer 1" transform="translate(0)">
        <g id="antivirus_software" data-name="antivirus software">
          <path id="Trazado_227499" data-name="Trazado 227499" d="M55.154,4.053H5.2A3.417,3.417,0,0,0,1.778,7.476V43.835h56.8V7.476a3.42,3.42,0,0,0-3.423-3.423Z" transform="translate(3.57 8.137)" fill="#7a8e9b"/>
          <path id="Trazado_227500" data-name="Trazado 227500" d="M45.506,6.116H3.769V33.551H48.591V6.116Z" transform="translate(7.567 12.279)" fill="#fff"/>
          <path id="Trazado_227501" data-name="Trazado 227501" d="M11.22,0V42.47a27.814,27.814,0,0,0,17.4-26.491V5.008S20.556,8.28,11.22,0Z" transform="translate(22.525)" fill="#43a99b"/>
          <path id="Trazado_227502" data-name="Trazado 227502" d="M22.842,0C13.518,8.28,5.44,5.008,5.44,5.008V15.979a27.814,27.814,0,0,0,17.4,26.491Z" transform="translate(10.904)" fill="#c3e4e0"/>
          <path id="Trazado_227503" data-name="Trazado 227503" d="M23.275,13.348a7.229,7.229,0,1,1-7.229-7.229A7.229,7.229,0,0,1,23.275,13.348Z" transform="translate(17.701 12.286)" fill="#eeac3a"/>
          <path id="Trazado_227504" data-name="Trazado 227504" d="M0,20.49v3.119a3.191,3.191,0,0,0,3.176,3.209H64.315a3.206,3.206,0,0,0,3.194-3.209V20.49Z" transform="translate(0 41.136)" fill="#7a8e9b"/>
          <path id="Trazado_227505" data-name="Trazado 227505" d="M0,26.934H67.509L62.146,17.28H5.348Z" transform="translate(0 34.691)" fill="#c6c6c6"/>
          <path id="Trazado_227506" data-name="Trazado 227506" d="M15.848,19.473a1.338,1.338,0,0,1-1.023-.487L9.111,12.068a1.329,1.329,0,0,1,2.018-1.687l4.551,5.5L21.945,5.569a1.329,1.329,0,0,1,2.265,1.377L16.991,18.833a1.426,1.426,0,0,1-1.143.641Z" transform="translate(17.897 10.071)" fill="#525c6b"/>
        </g>
      </g>
    </g>
  </g>
</svg>
