<svg xmlns="http://www.w3.org/2000/svg" width="102" height="102" viewBox="0 0 102 102">
  <g id="Grupo_181334" data-name="Grupo 181334" transform="translate(-641 -1648.679)">
    <g id="Grupo_177875" data-name="Grupo 177875" transform="translate(0 525)">
      <circle id="Elipse_6272" data-name="Elipse 6272" cx="51" cy="51" r="51" transform="translate(641 1123.679)" fill="#e1d3f6"/>
      <path id="Intersecci贸n_12" data-name="Intersecci贸n 12" d="M7200.683,3318.933A51,51,0,1,1,7232,3329.678,50.762,50.762,0,0,1,7200.683,3318.933Z" transform="translate(-6553 -2119)" fill="#ece5f7"/>
    </g>
    <g id="Grupo_177874" data-name="Grupo 177874">
      <g id="escucha" transform="translate(656.467 1658.605)">
        <path id="Trazado_227439" data-name="Trazado 227439" d="M62.8,316.768c5.876-1.451,9.7-1.41,13,.487l-5.208-9.947c-2.961-5.662-5.291-9.1-11.45-9.432a12.758,12.758,0,0,1-3.624-.629l-28.1.459c-.1-.142-.227-.289-.309-.432a12.849,12.849,0,0,1-3.556.6c-6.158.33-8.483,3.77-11.449,9.432l-5.209,9.947c3.3-1.9,7.121-1.938,13-.487Zm0,0" transform="translate(-5.816 -250.717)" fill="#8ebfe8" fill-rule="evenodd"/>
        <g id="Grupo_177825" data-name="Grupo 177825" transform="translate(-0.001 5.325)">
          <path id="Trazado_227444" data-name="Trazado 227444" d="M136.34,259.5c5.314,8.142,23.6,7.416,28.1-.459a8.914,8.914,0,0,1-3.842-2.811c-.436-.51-1.653-1.713-1.717-1.8l-7.961-2.476-9.737,2.972c-.4.413-.972.992-1.244,1.309a8.9,8.9,0,0,1-3.91,2.838c.081.142.213.289.309.432Zm0,0" transform="translate(-114.737 -217.832)" fill="#ffc094" fill-rule="evenodd"/>
          <path id="Trazado_227445" data-name="Trazado 227445" d="M14.081,416.466c-5.881-1.451-9.705-1.41-13,.487-3.933,7.513,3.479,9.451,12.594,9.451h1.4l5.709-6.071Zm0,0" transform="translate(0.001 -355.739)" fill="#ffc094" fill-rule="evenodd"/>
          <path id="Trazado_227446" data-name="Trazado 227446" d="M336.98,416.466l-5.027,4.753,4.033,5.185h1.4c9.11,0,16.522-1.938,12.589-9.451C346.681,415.056,342.857,415.015,336.98,416.466Zm0,0" transform="translate(-279.991 -355.739)" fill="#ffc094" fill-rule="evenodd"/>
          <path id="Trazado_227447" data-name="Trazado 227447" d="M155.331,123.314l-8.133-6.359s-9.338,4.839-11.45,3.553c-2.9-1.778-3.565-3.118-6.068.528-1.113,1.621-2,2.278-3.515,2.278h-1.943v6.723a10.589,10.589,0,0,0,.227,2.136,19.062,19.062,0,0,0,6.776,10.379,17.524,17.524,0,0,0,4.16,2.507c.168.069.341.138.513.2a9.9,9.9,0,0,0,7.775,0,17.677,17.677,0,0,0,5.25-3.2,18.887,18.887,0,0,0,6.181-9.888,10.538,10.538,0,0,0,.227-2.131v-6.723Zm0,0" transform="translate(-104.777 -105.467)" fill="#ffc094" fill-rule="evenodd"/>
          <path id="Trazado_227448" data-name="Trazado 227448" d="M222.7,154.754a10.5,10.5,0,0,1-.227,2.131,18.371,18.371,0,0,1-5.068,8.85c-.358.358-.726.707-1.112,1.038a17.677,17.677,0,0,1-5.25,3.2,15.705,15.705,0,0,1-1.671.523,9.763,9.763,0,0,0,6.121-.523,17.661,17.661,0,0,0,5.25-3.2,18.885,18.885,0,0,0,6.181-9.888,10.538,10.538,0,0,0,.227-2.131v-6.723H222.7Zm0,0" transform="translate(-176.6 -130.184)" fill="#ff8d70" fill-rule="evenodd" opacity="0.35"/>
          <path id="Trazado_227449" data-name="Trazado 227449" d="M179.282,269.47c-.49-.552-1.567-1.622-1.631-1.708a17.661,17.661,0,0,1-5.25,3.2,9.9,9.9,0,0,1-7.775,0c-.172-.064-.345-.133-.513-.2a17.539,17.539,0,0,1-4.16-2.507c-.4.413-.972.992-1.244,1.309-.145.165-.286.326-.427.478a19.949,19.949,0,0,0,1.672,1.5,17.349,17.349,0,0,0,4.16,2.5c.168.073.341.142.513.207a9.877,9.877,0,0,0,7.775-.01c2.793-1.01,2.993-1.984,4.95-.2a18.659,18.659,0,0,0,2.335,1.828,10.1,10.1,0,0,0,3.524-3.5,8.913,8.913,0,0,1-3.842-2.81.293.293,0,0,0-.1-.078Zm0,0" transform="translate(-133.505 -231.173)" fill="#ff8d70" fill-rule="evenodd"/>
          <path id="Trazado_227451" data-name="Trazado 227451" d="M15.076,444.221l-.4-4H13.414c-6.068,0-11.381-.859-13.093-3.651-1.894,6.03,5.018,7.651,13.356,7.651Zm0,0" transform="translate(-0.004 -373.557)" fill="#ffae88" fill-rule="evenodd"/>
          <path id="Trazado_227452" data-name="Trazado 227452" d="M358.115,436.907l-.4,4h1.4c8.611,0,15.7-1.731,13.134-8.266-1.276,3.284-6.908,4.266-13.4,4.266Zm0,0" transform="translate(-301.72 -370.243)" fill="#ffae88" fill-rule="evenodd"/>
          <path id="Trazado_227453" data-name="Trazado 227453" d="M104.564,361.613H87.01a1.867,1.867,0,0,0-1.912,1.933l.754,7.513L86.843,381l.223,2.228a2,2,0,0,0,1.911,1.929h36.655a2,2,0,0,0,1.911-1.929l.223-2.228.995-9.938.749-7.513a1.866,1.866,0,0,0-1.911-1.933Zm0,0" transform="translate(-71.771 -310.333)" fill="#eceff1" fill-rule="evenodd"/>
          <path id="Trazado_227454" data-name="Trazado 227454" d="M299.205,301.867c6.159.335,8.574,2.953,11.449,9.432l2.325,4.445a11.55,11.55,0,0,1,5.722,1.507l-5.208-9.947c-2.961-5.662-5.291-9.1-11.45-9.433a12.715,12.715,0,0,1-3.624-.629,10.1,10.1,0,0,1-3.524,3.5C294.537,300.958,298.479,301.831,299.205,301.867Zm0,0" transform="translate(-248.715 -256.038)" fill="#519ad6" fill-rule="evenodd"/>
          <path id="Trazado_227457" data-name="Trazado 227457" d="M205.6,414.566a3.512,3.512,0,1,0,3.974,3.481A3.752,3.752,0,0,0,205.6,414.566Zm0,0" transform="translate(-170.067 -354.997)" fill="#43a99b" fill-rule="evenodd"/>
          <path id="Trazado_227510" data-name="Trazado 227510" d="M48.375,18.051H42.716l-.884-4.764L40.416,18.6H19.193S16.48-1.685,37.94.761c4.936.563,5.129,4.414,5.129,4.414S46.512,6.818,46.488,7.2c-.274,2.982-.265-.4.767,1.372,1.371,2.356.589.3.589.3l-1.356,2.446,1.887,1.968Z" transform="translate(0 -0.21)" fill="#636363"/>
          <path id="Trazado_227450" data-name="Trazado 227450" d="M195.1,34.708c7.753-.22,15.5,4.459,15.564,15.243v1.924h4.451v-2.6C215.04,36.408,204,32.233,195.1,34.708Zm0,0" transform="translate(-164.558 -34.028)" fill="#37474f" fill-rule="evenodd"/>
        </g>
        <path id="Trazado_227458" data-name="Trazado 227458" d="M183.545,185.9a1.2,1.2,0,0,1-1.2-1.2v-1.483a1.2,1.2,0,0,1,2.4,0V184.7A1.2,1.2,0,0,1,183.545,185.9Zm0,0" transform="translate(-153.801 -153.527)" fill="#37474f"/>
        <path id="Trazado_227459" data-name="Trazado 227459" d="M249.928,185.9a1.2,1.2,0,0,1-1.2-1.2v-1.483a1.2,1.2,0,0,1,2.4,0V184.7A1.2,1.2,0,0,1,249.928,185.9Zm0,0" transform="translate(-209.792 -153.527)" fill="#37474f"/>
        <path id="Trazado_227460" data-name="Trazado 227460" d="M137.709,492.551h-40.7l.109,1.116a2,2,0,0,0,1.912,1.929h36.654a2,2,0,0,0,1.912-1.929Zm0,0" transform="translate(-81.823 -415.45)" fill="#c2c7cc" fill-rule="evenodd"/>
      </g>
      <path id="Trazado_227507" data-name="Trazado 227507" d="M20.509,0H5.048A5.036,5.036,0,0,0,.012,5.036V15.565A5.036,5.036,0,0,0,5.045,20.6v2.41a1.107,1.107,0,0,0,1.778.881L11.142,20.6h9.367a5.036,5.036,0,0,0,5.036-5.036V5.036A5.036,5.036,0,0,0,20.509,0Z" transform="translate(708.988 1679.22)" fill="#f6f9f9"/>
      <path id="Trazado_227508" data-name="Trazado 227508" d="M5.049,20.6A5.036,5.036,0,0,1,.012,15.566V5.037A5.037,5.037,0,0,1,5.049,0H7.573A5.036,5.036,0,0,0,2.537,5.037V15.566a5.027,5.027,0,0,0,2,4.016,1.281,1.281,0,0,1,.513,1.02Z" transform="translate(708.988 1679.22)" fill="#fff"/>
      <g id="Grupo_177856" data-name="Grupo 177856" transform="translate(715.041 1688.644)">
        <circle id="Elipse_6275" data-name="Elipse 6275" cx="1.878" cy="1.878" r="1.878" fill="#0b67d1"/>
        <circle id="Elipse_6276" data-name="Elipse 6276" cx="1.878" cy="1.878" r="1.878" transform="translate(5.863)" fill="#0b67d1"/>
        <circle id="Elipse_6277" data-name="Elipse 6277" cx="1.878" cy="1.878" r="1.878" transform="translate(11.725)" fill="#0b67d1"/>
      </g>
      <path id="Sustracci贸n_6" data-name="Sustracci贸n 6" d="M7196,3231.678h-13v-1a3,3,0,0,1,3-3h7a3,3,0,0,1,3,3v1Z" transform="translate(-6498 -1535)" fill="#636363"/>
    </g>
  </g>
</svg>
