<svg xmlns="http://www.w3.org/2000/svg" width="102" height="102" viewBox="0 0 102 102">
  <g id="Grupo_181335" data-name="Grupo 181335" transform="translate(-641 -1810.679)">
    <g id="Grupo_177876" data-name="Grupo 177876" transform="translate(0 687)">
      <circle id="Elipse_6272" data-name="Elipse 6272" cx="51" cy="51" r="51" transform="translate(641 1123.679)" fill="#e1d3f6"/>
      <path id="Intersección_12" data-name="Intersección 12" d="M7200.683,3318.933A51,51,0,1,1,7232,3329.678,50.762,50.762,0,0,1,7200.683,3318.933Z" transform="translate(-6553 -2119)" fill="#ece5f7"/>
    </g>
    <g id="Grupo_177873" data-name="Grupo 177873">
      <g id="alivio" transform="translate(601.28 1833.871)">
        <path id="Trazado_227511" data-name="Trazado 227511" d="M139.185,17.656V6.539A6.539,6.539,0,0,1,145.724,0h17.029a6.539,6.539,0,0,1,6.539,6.539V17.656Z" transform="translate(-62.519 0)" fill="#dc8758"/>
        <path id="Trazado_227512" data-name="Trazado 227512" d="M295.549,0h-3.923a6.539,6.539,0,0,1,6.539,6.539V17.656h3.924V6.539A6.539,6.539,0,0,0,295.549,0Z" transform="translate(-195.315)" fill="#d77f4a"/>
        <path id="Trazado_227513" data-name="Trazado 227513" d="M115.368,300.923a.654.654,0,0,0,.654-.654V285.243a7.847,7.847,0,0,0-5.345-7.438l-10.784-3.629-.622.127a3.338,3.338,0,0,1-1.822-1.714l-.6-2.762L86.18,269.7,86,272.578a3.12,3.12,0,0,1-1.773,1.66l-.685-.061-10.784,3.629a7.847,7.847,0,0,0-5.345,7.438v15.026a.654.654,0,0,0,.654.654h47.3Z" transform="translate(0 -234.942)" fill="#8ebfe8"/>
        <g id="Grupo_177857" data-name="Grupo 177857" transform="translate(93.802 34.755)">
          <path id="Trazado_227514" data-name="Trazado 227514" d="M289.032,277.8l-10.784-3.629-.622.127a3.338,3.338,0,0,1-1.822-1.714l-.02-2.893h-3.627v4.735a2.606,2.606,0,0,0,1.6,1.513l11.356,3.821a7.847,7.847,0,0,1,5.345,7.438v13.718h3.27a.654.654,0,0,0,.654-.654V285.242A7.848,7.848,0,0,0,289.032,277.8Z" transform="translate(-272.157 -269.696)" fill="#519ad6"/>
        </g>
        <g id="Grupo_177858" data-name="Grupo 177858" transform="translate(74.283 53.557)">
          <path id="Trazado_227515" data-name="Trazado 227515" d="M121.68,422.822a.981.981,0,0,1-.981-.981v-5.269a.981.981,0,1,1,1.962,0v5.269A.981.981,0,0,1,121.68,422.822Z" transform="translate(-120.699 -415.592)" fill="#519ad6"/>
        </g>
        <g id="Grupo_177859" data-name="Grupo 177859" transform="translate(107.194 53.557)">
          <path id="Trazado_227516" data-name="Trazado 227516" d="M377.061,422.822a.981.981,0,0,1-.981-.981v-5.269a.981.981,0,0,1,1.962,0v5.269A.981.981,0,0,1,377.061,422.822Z" transform="translate(-376.08 -415.592)" fill="#519ad6"/>
        </g>
        <path id="Trazado_227517" data-name="Trazado 227517" d="M200.749,280.6a8.412,8.412,0,0,0,8.173-6.43l-.622.127a3.338,3.338,0,0,1-1.822-1.714l-.02-2.893H194.75v2.76a2.61,2.61,0,0,1-1.6,1.526l-.572.193A8.412,8.412,0,0,0,200.749,280.6Z" transform="translate(-109.03 -234.941)" fill="#ffcebf"/>
        <path id="Trazado_227518" data-name="Trazado 227518" d="M273.752,275.944l3.207,1.079a8.375,8.375,0,0,0,1.289-2.848l-.572-.193a2.606,2.606,0,0,1-1.6-1.513V269.7h-3.924v4.735A2.607,2.607,0,0,0,273.752,275.944Z" transform="translate(-178.355 -234.941)" fill="#ffb09e"/>
        <path id="Trazado_227519" data-name="Trazado 227519" d="M373.845,127.6h-1.031v-5.825h1.031a2.913,2.913,0,0,1,0,5.825Z" transform="translate(-266.041 -106.083)" fill="#ffcebf"/>
        <path id="Trazado_227520" data-name="Trazado 227520" d="M111.493,127.6h1.031v-5.825h-1.031a2.913,2.913,0,1,0,0,5.825Z" transform="translate(-35.858 -106.083)" fill="#ffb09e"/>
        <g id="Grupo_177860" data-name="Grupo 177860" transform="translate(76.666 10.098)">
          <path id="Trazado_227521" data-name="Trazado 227521" d="M154.239,106.453c-2.092-.007-4.068.114-5.881-.649-.034-.014-.085-.012-.118-.027a15.264,15.264,0,0,1-9.054-13.957V83.955a33.182,33.182,0,0,0,12.5-2.379,32.7,32.7,0,0,0,5.864-3.087.784.784,0,0,1,1.053.178,13.629,13.629,0,0,0,10.693,5.289v8.029a15.057,15.057,0,0,1-9.047,13.808c-.116.051-.267-.036-.384.007A15.736,15.736,0,0,1,154.239,106.453Z" transform="translate(-139.185 -78.359)" fill="#ffcebf"/>
        </g>
        <path id="Trazado_227522" data-name="Trazado 227522" d="M226.577,125.786a14.669,14.669,0,0,1-3.775,9.97c-4.563,4.917-12.175,3.985-13.355,3.823a15.047,15.047,0,0,0,4.985,1.227s.5.032.961.034A15.054,15.054,0,0,0,230.5,125.786v-8.029a13.772,13.772,0,0,1-3.893-.6C226.54,120.016,226.577,122.926,226.577,125.786Z" transform="translate(-123.728 -102.063)" fill="#ffb09e"/>
        <g id="Grupo_177865" data-name="Grupo 177865" transform="translate(82.562 19.082)">
          <g id="Grupo_177861" data-name="Grupo 177861" transform="translate(5.143 10.564)">
            <path id="Trazado_227523" data-name="Trazado 227523" d="M228.711,232.866a6.817,6.817,0,0,1-3.4-1,.981.981,0,1,1,1.022-1.674,4.853,4.853,0,0,0,2.419.71,4.925,4.925,0,0,0,2.628-.711.981.981,0,0,1,1.022,1.675A7.061,7.061,0,0,1,228.711,232.866Z" transform="translate(-224.842 -230.05)" fill="#ffb09e"/>
          </g>
          <g id="Grupo_177864" data-name="Grupo 177864" transform="translate(0)">
            <g id="Grupo_177862" data-name="Grupo 177862" transform="translate(12.109)">
              <path id="Trazado_227524" data-name="Trazado 227524" d="M283.356,150.693a1.715,1.715,0,0,0-2.7,0,.981.981,0,1,1-1.544-1.21,3.677,3.677,0,0,1,5.788,0,.981.981,0,1,1-1.544,1.21Z" transform="translate(-278.903 -148.074)" fill="#00516a"/>
            </g>
            <g id="Grupo_177863" data-name="Grupo 177863">
              <path id="Trazado_227525" data-name="Trazado 227525" d="M189.39,150.693a1.715,1.715,0,0,0-2.7,0,.981.981,0,1,1-1.544-1.21,3.677,3.677,0,0,1,5.789,0,.981.981,0,0,1-1.544,1.21Z" transform="translate(-184.937 -148.074)" fill="#00516a"/>
            </g>
          </g>
        </g>
        <g id="Grupo_177867" data-name="Grupo 177867" transform="translate(67.417 43.691)">
          <g id="Grupo_177866" data-name="Grupo 177866" transform="translate(0)">
            <path id="Trazado_227526" data-name="Trazado 227526" d="M67.419,360.345l15.806-10.461a4.176,4.176,0,0,0,1.791-2.67l1-5.032a3.906,3.906,0,0,1,3.832-3.146h.567a1.308,1.308,0,0,1,1.308,1.308v10.043a1.308,1.308,0,0,1-.439.978l-11.214,9.961h-12a.654.654,0,0,1-.654-.654v-.327Z" transform="translate(-67.419 -339.036)" fill="#ffcebf"/>
          </g>
        </g>
        <path id="Trazado_227527" data-name="Trazado 227527" d="M153.454,339.036h-.567a3.9,3.9,0,0,0-.988.127,3.941,3.941,0,0,0-1.4.687.737.737,0,0,1,.9.172.459.459,0,0,1,.04.323v10.043a1.308,1.308,0,0,1-.439.978l-11.214,9.961h3.323l11.214-9.961a1.308,1.308,0,0,0,.439-.978V340.344A1.308,1.308,0,0,0,153.454,339.036Z" transform="translate(-63.042 -295.345)" fill="#ffb09e"/>
        <g id="Grupo_177869" data-name="Grupo 177869" transform="translate(91.719 43.691)">
          <g id="Grupo_177868" data-name="Grupo 177868" transform="translate(0)">
            <path id="Trazado_227528" data-name="Trazado 227528" d="M280.3,360.345,264.5,349.883a4.177,4.177,0,0,1-1.791-2.67l-1-5.032a3.906,3.906,0,0,0-3.832-3.146h-.567A1.308,1.308,0,0,0,256,340.344v10.043a1.308,1.308,0,0,0,.439.978l11.214,9.961h12a.654.654,0,0,0,.654-.654v-.327Z" transform="translate(-255.999 -339.036)" fill="#ffc5b8"/>
          </g>
        </g>
        <path id="Trazado_227529" data-name="Trazado 227529" d="M265.567,349.883a4.177,4.177,0,0,1-1.791-2.67l-1-5.032a3.906,3.906,0,0,0-3.832-3.146h-.567a1.307,1.307,0,0,0-1.149.684,3.9,3.9,0,0,1,1.624,2.463l1,5.032a4.176,4.176,0,0,0,1.791,2.67l15.533,10.281a.609.609,0,0,1,.273.507.654.654,0,0,1-.654.654h3.924a.654.654,0,0,0,.654-.654v-.327Z" transform="translate(-165.351 -295.345)" fill="#ffb09e"/>
      </g>
      <path id="Trazado_227557" data-name="Trazado 227557" d="M400.582,13a.981.981,0,1,0,0-1.962h-2.151V8.884a.981.981,0,1,0-1.962,0v2.151h-2.151a.981.981,0,1,0,0,1.962h2.151v2.151a.981.981,0,1,0,1.962,0V13Z" transform="translate(319.853 1850.731)" fill="#f4dd45"/>
      <path id="Trazado_227558" data-name="Trazado 227558" d="M400.582,13a.981.981,0,1,0,0-1.962h-2.151V8.884a.981.981,0,1,0-1.962,0v2.151h-2.151a.981.981,0,1,0,0,1.962h2.151v2.151a.981.981,0,1,0,1.962,0V13Z" transform="translate(271.248 1845.73)" fill="#f4dd45"/>
      <path id="Trazado_227559" data-name="Trazado 227559" d="M406.122,16.893a1.731,1.731,0,1,0,0-3.463h-3.8v-3.8a1.731,1.731,0,1,0-3.463,0v3.8h-3.8a1.731,1.731,0,0,0,0,3.463h3.8v3.8a1.731,1.731,0,1,0,3.463,0v-3.8Z" transform="translate(316.707 1818.71)" fill="#f4dd45"/>
    </g>
  </g>
</svg>
