<svg xmlns="http://www.w3.org/2000/svg" width="102" height="102" viewBox="0 0 102 102">
  <g id="Grupo_181336" data-name="Grupo 181336" transform="translate(-641 -1973.679)">
    <g id="Grupo_177872" data-name="Grupo 177872" transform="translate(0 850)">
      <circle id="Elipse_6272" data-name="Elipse 6272" cx="51" cy="51" r="51" transform="translate(641 1123.679)" fill="#e1d3f6"/>
      <path id="Intersección_12" data-name="Intersección 12" d="M7200.683,3318.933A51,51,0,1,1,7232,3329.678,50.762,50.762,0,0,1,7200.683,3318.933Z" transform="translate(-6553 -2119)" fill="#ece5f7"/>
    </g>
    <g id="Woman_support" data-name="Woman support" transform="translate(656.601 1980.679)">
      <path id="Trazado_227560" data-name="Trazado 227560" d="M62.8,58.477H8L9.712,45.651A17.124,17.124,0,0,1,24.748,30.89L21.7,43.065l5.137-1.712L35.4,49.915l8.562-8.562L49.1,43.065,46.05,30.89A17.124,17.124,0,0,1,61.085,45.651Z" transform="translate(0 21.295)" fill="#6fabe6"/>
      <path id="Trazado_227561" data-name="Trazado 227561" d="M59.817,55.068H18.445a6.85,6.85,0,0,1-6.85-7.757c.719-5.343.8-10.275,5.771-15.121a17.125,17.125,0,0,1,4.812-1.284l-3,12.175,5.137-1.712,8.562,8.562,8.562-8.562,5.137,1.712c-3.425-13.8-3.271-12.21-2.569-12.107A17.124,17.124,0,0,1,58.567,45.667Z" transform="translate(2.518 21.279)" fill="#82bcf4"/>
      <path id="Trazado_227562" data-name="Trazado 227562" d="M37.7,43.393l-5.137-1.712L24,50.243,29.137,30.43l5.514.788Z" transform="translate(11.399 20.967)" fill="#9fdbf3"/>
      <path id="Trazado_227563" data-name="Trazado 227563" d="M29.7,50.243l-8.562-8.562L16,43.393l3.048-12.175,5.514-.788Z" transform="translate(5.699 20.967)" fill="#9fdbf3"/>
      <path id="Trazado_227564" data-name="Trazado 227564" d="M26.436,43.357l-1.49-.5a9.812,9.812,0,0,1-6.473-11.713L23.1,30.48Z" transform="translate(7.25 21.003)" fill="#b2e5fb"/>
      <path id="Trazado_227565" data-name="Trazado 227565" d="M25.05,43.393l1.49-.5a9.812,9.812,0,0,0,6.473-11.713l-4.624-.753Z" transform="translate(12.147 20.967)" fill="#b2e5fb"/>
      <path id="Trazado_227566" data-name="Trazado 227566" d="M31.3,26.42c0,8.99.942,3.2-5.137,26.68-6.079-23.443-5.137-17.518-5.137-26.68a13.836,13.836,0,0,0,10.275,0Z" transform="translate(9.24 18.11)" fill="#f6ccaf"/>
      <path id="Trazado_227567" data-name="Trazado 227567" d="M29.85,26.42c0,8.562.685,4.23-3.425,20.07C24.473,38.938,23,34.5,23,27.293a13.7,13.7,0,0,0,6.85-.873Z" transform="translate(10.686 18.11)" fill="#ffdec7"/>
      <path id="Trazado_227568" data-name="Trazado 227568" d="M43.4,14.425V24.7a13.7,13.7,0,0,1-27.4,0V14.425A11.713,11.713,0,0,0,24.562,11C31.412,16.137,37.662,15.23,43.4,14.425Z" transform="translate(5.699 7.124)" fill="#f6ccaf"/>
      <path id="Trazado_227569" data-name="Trazado 227569" d="M42.005,14.425V24.7a13.7,13.7,0,0,1-5.857,11.216A13.46,13.46,0,0,1,23.888,34.2c-7.038-4.9-5.857-11.645-5.857-20.224A11.747,11.747,0,0,0,23.168,11c7.175,5.223,13.117,4.23,18.837,3.425Z" transform="translate(7.093 7.124)" fill="#ffdec7"/>
      <path id="Trazado_227570" data-name="Trazado 227570" d="M23.994,30.573A16.576,16.576,0,0,1,13,34.768V18.5c1.353,1.027,2.432.856,5.137.856a13.7,13.7,0,0,0,5.857,11.216Z" transform="translate(3.562 12.468)" fill="#df8761"/>
      <path id="Trazado_227571" data-name="Trazado 227571" d="M22.569,30.216A16.594,16.594,0,0,1,15,34.052V19h1.712a13.7,13.7,0,0,0,5.857,11.216Z" transform="translate(4.987 12.824)" fill="#f29b75"/>
      <path id="Trazado_227572" data-name="Trazado 227572" d="M39.574,18.5V34.768a16.525,16.525,0,0,1-10.994-4.2,13.7,13.7,0,0,0,5.857-11.216C37.245,19.356,38.221,19.527,39.574,18.5Z" transform="translate(14.662 12.468)" fill="#f29b75"/>
      <path id="Trazado_227573" data-name="Trazado 227573" d="M50.674,19.837v4.281c-1.353-1.027-2.432-.856-5.137-.856V21.549c-4.024.565-11.216,2.278-18.837-3.425a11.713,11.713,0,0,1-8.271,3.425c-.394,0-.291-.325-.291,1.712-2.808,0-3.784-.171-5.137.856V19.837a18.837,18.837,0,1,1,37.674,0Z" transform="translate(3.562)" fill="#df8761"/>
      <path id="Trazado_227574" data-name="Trazado 227574" d="M49.249,19.8v4.281c-1.353-1.027-2.432-.856-5.137-.856V21.514c-6.268.89-11.987,1.712-18.837-3.425A11.713,11.713,0,0,1,17,21.514c-.394,0-.291-.325-.291,1.712H15V19.8A18.837,18.837,0,0,1,32.124,1.05,18.837,18.837,0,0,1,49.249,19.8Z" transform="translate(4.987 0.036)" fill="#f29b75"/>
      <path id="Trazado_227575" data-name="Trazado 227575" d="M18.85,14v8.562H16.281a4.281,4.281,0,0,1-2.569-7.706C15.065,13.833,16.144,14,18.85,14Z" transform="translate(2.85 9.257)" fill="#374f68"/>
      <path id="Trazado_227576" data-name="Trazado 227576" d="M18.137,14v5.137h-.856A4.264,4.264,0,0,1,13,14.861C14.353,13.833,15.432,14,18.137,14Z" transform="translate(3.562 9.257)" fill="#425b72"/>
      <path id="Trazado_227577" data-name="Trazado 227577" d="M39.412,28.631h-13.7a1.712,1.712,0,0,1,0-3.425h13.7a1.712,1.712,0,0,0,1.712-1.712V19.212a1.712,1.712,0,1,1,3.425,0v4.281A5.137,5.137,0,0,1,39.412,28.631Z" transform="translate(11.399 11.755)" fill="#374f68"/>
      <path id="Trazado_227578" data-name="Trazado 227578" d="M31.275,24.425A3.425,3.425,0,0,1,27.85,27.85H24.425a3.425,3.425,0,0,1,0-6.85H27.85A3.425,3.425,0,0,1,31.275,24.425Z" transform="translate(9.262 14.249)" fill="#374f68"/>
      <path id="Trazado_227579" data-name="Trazado 227579" d="M29.386,26.137H26.423A3.425,3.425,0,0,1,23.461,21h2.963a3.425,3.425,0,0,1,2.963,5.137Z" transform="translate(10.688 14.249)" fill="#425b72"/>
      <path id="Trazado_227580" data-name="Trazado 227580" d="M34.569,22.567H32V14c2.808,0,3.784-.171,5.137.856a4.281,4.281,0,0,1-2.569,7.706Z" transform="translate(17.098 9.257)" fill="#374f68"/>
      <path id="Trazado_227581" data-name="Trazado 227581" d="M32,14v5.137h.856a4.264,4.264,0,0,0,4.281-4.281C35.784,13.833,34.706,14,32,14Z" transform="translate(17.098 9.257)" fill="#425b72"/>
    </g>
  </g>
</svg>
