<svg xmlns="http://www.w3.org/2000/svg" xmlns:xlink="http://www.w3.org/1999/xlink" width="183.24" height="217.276" viewBox="0 0 183.24 217.276">
  <defs>
    <clipPath id="clip-path">
      <rect id="Rectángulo_58655" data-name="Rectángulo 58655" width="183.24" height="217.275" fill="none"/>
    </clipPath>
  </defs>
  <g id="Grupo_181077" data-name="Grupo 181077" transform="translate(0 0)">
    <path id="Trazado_229911" data-name="Trazado 229911" d="M68.886,51.522H18.821l50.064,84.755,50.062-84.755Z" transform="translate(29.59 80.999)" fill="#0053a0"/>
    <g id="Grupo_181069" data-name="Grupo 181069" transform="translate(0 0)">
      <g id="Grupo_181068" data-name="Grupo 181068" clip-path="url(#clip-path)">
        <path id="Trazado_229912" data-name="Trazado 229912" d="M105.844,105.844H0A105.84,105.84,0,0,1,105.839,0h.005Z" transform="translate(0 -0.001)" fill="#0053a0"/>
        <path id="Trazado_229913" data-name="Trazado 229913" d="M90.1,5.322A84.774,84.774,0,1,1,5.323,90.1,84.775,84.775,0,0,1,90.1,5.322" transform="translate(8.369 8.366)" fill="#88bae6"/>
        <path id="Trazado_229914" data-name="Trazado 229914" d="M157.6,83.545a74.051,74.051,0,1,1-74.05-74.05,74.049,74.049,0,0,1,74.05,74.05" transform="translate(14.926 14.927)" fill="#fff"/>
        <path id="Trazado_229915" data-name="Trazado 229915" d="M70.923,34.171A33.376,33.376,0,0,1,63.636,39.9q-1,.613-2.1,1.232a91.655,91.655,0,0,1-8.722,4.239c-.952.406-1.821.761-2.572,1.06-1.772.7-2.9,1.1-2.968,1.119a1.511,1.511,0,0,1-2-1.237,20.905,20.905,0,0,1,.075-5.677,1.512,1.512,0,1,1,2.991.448,18.07,18.07,0,0,0-.2,2.919c.306-.116.646-.25,1.016-.394.725-.291,1.559-.633,2.469-1.019a88.309,88.309,0,0,0,8.432-4.1c.63-.352,1.314-.751,2.022-1.186,4.607-2.84,10.181-7.259,8.578-11.3a4.776,4.776,0,0,0-4.108-3.292c-4.427-.471-10.705,3.578-14.623,9.419l-1.168,1.983a1.513,1.513,0,1,1-2.608-1.533L49.34,30.56l.046-.072c4.568-6.839,11.922-11.374,17.48-10.782a7.79,7.79,0,0,1,6.6,5.183C74.65,27.877,73.794,31,70.923,34.171Z" transform="translate(70.929 30.898)" fill="#cf465b"/>
        <path id="Trazado_229916" data-name="Trazado 229916" d="M46.775,47.63a1.509,1.509,0,0,1-1.5-1.322,20.7,20.7,0,0,1,.075-5.677,1.512,1.512,0,1,1,2.991.448A18.081,18.081,0,0,0,48.14,44c.916-.352,2.117-.831,3.485-1.415a88.576,88.576,0,0,0,8.429-4.095C64.808,35.829,72.5,30.667,70.654,26a4.776,4.776,0,0,0-4.105-3.292c-4.429-.468-10.708,3.578-14.623,9.419l-1.17,1.986a1.512,1.512,0,0,1-2.606-1.536l1.191-2.022.046-.072C53.956,23.65,61.31,19.115,66.868,19.7a7.789,7.789,0,0,1,6.6,5.185c1.186,2.986.329,6.109-2.541,9.28a37.448,37.448,0,0,1-9.391,6.958,90.434,90.434,0,0,1-8.722,4.239c-3.192,1.361-5.448,2.148-5.54,2.179a1.5,1.5,0,0,1-.5.085" transform="translate(70.927 30.897)" fill="#cf465b"/>
        <path id="Trazado_229917" data-name="Trazado 229917" d="M106.655,67.154a7.452,7.452,0,0,0,1.631-3.326c.9-4.36,2.125-15.6-3.83-31.779a7.448,7.448,0,0,0-4.424-4.424C83.851,21.671,72.613,22.9,68.256,23.8a7.373,7.373,0,0,0-3.326,1.631,406.788,406.788,0,0,0-46.3,45.836,7.453,7.453,0,0,0-.226,9.5,200.174,200.174,0,0,0,32.918,32.918,7.453,7.453,0,0,0,9.5-.226A407,407,0,0,0,106.655,67.154Zm-19.5-22.226a5.851,5.851,0,1,1,8.275,0,5.853,5.853,0,0,1-8.275,0" transform="translate(26.413 36.225)" fill="#ffc450"/>
        <path id="Trazado_229918" data-name="Trazado 229918" d="M68.256,23.8a7.4,7.4,0,0,0-3.326,1.631,407,407,0,0,0-46.3,45.836,7.456,7.456,0,0,0-.226,9.5c.17.214.34.424.507.635a7.894,7.894,0,0,1,2.032-6.549,494.3,494.3,0,0,1,47.3-46.9A8.522,8.522,0,0,1,71.5,26.15c3.328-.954,10.8-2.462,21.166-.857-12.228-3.238-20.747-2.251-24.41-1.5" transform="translate(26.413 36.224)" fill="#ffb23c"/>
        <path id="Trazado_229919" data-name="Trazado 229919" d="M26.743,57.564a2.94,2.94,0,0,1,.967-4.8l36.154-14.78a2.938,2.938,0,0,1,2.222,5.44L29.935,58.207a2.942,2.942,0,0,1-3.192-.643" transform="translate(40.692 59.378)" fill="#cf465b"/>
        <path id="Trazado_229920" data-name="Trazado 229920" d="M32.3,48.607c-3.748-3.75-3.406-10.193.767-14.365s10.615-4.517,14.365-.767,3.406,10.193-.767,14.366-10.615,4.517-14.365.766M43.274,37.631c-1.433-1.433-4.205-1.083-6.052.767s-2.2,4.62-.767,6.052,4.205,1.083,6.052-.764S44.707,39.064,43.274,37.631Z" transform="translate(46.689 48.535)" fill="#cf465b"/>
        <path id="Trazado_229921" data-name="Trazado 229921" d="M32.758,62.6c-3.75-3.75-3.406-10.2.767-14.366s10.615-4.517,14.366-.767,3.406,10.193-.767,14.365S36.508,66.35,32.758,62.6M43.733,51.627c-1.433-1.433-4.205-1.083-6.052.764s-2.2,4.622-.767,6.055,4.205,1.083,6.055-.767,2.2-4.62.764-6.052" transform="translate(47.409 70.539)" fill="#cf465b"/>
        <path id="Trazado_229922" data-name="Trazado 229922" d="M50.258,41.8a7.359,7.359,0,1,1,5.206-2.153A7.34,7.34,0,0,1,50.258,41.8m0-11.7a4.339,4.339,0,1,0,3.069,1.271A4.307,4.307,0,0,0,50.258,30.1Z" transform="translate(67.444 42.575)" fill="#ffb23c"/>
        <path id="Trazado_229923" data-name="Trazado 229923" d="M61.167,29.108q-1,.617-2.1,1.235a91.961,91.961,0,0,1-8.722,4.239c-.952.406-1.821.761-2.575,1.06a7.43,7.43,0,0,1-1.08-2.824c.725-.291,1.559-.63,2.469-1.019A88.319,88.319,0,0,0,57.587,27.7c.63-.355,1.314-.751,2.019-1.188a7.425,7.425,0,0,1,1.561,2.593" transform="translate(73.398 41.685)" fill="#cf465b"/>
      </g>
    </g>
  </g>
</svg>
