<svg xmlns="http://www.w3.org/2000/svg" xmlns:xlink="http://www.w3.org/1999/xlink" width="295" height="283.745" viewBox="0 0 295 283.745">
  <defs>
    <clipPath id="clip-path">
      <rect id="Rect치ngulo_52193" data-name="Rect치ngulo 52193" width="286.862" height="243.52" fill="#8c5be1"/>
    </clipPath>
    <clipPath id="clip-path-2">
      <rect id="Rect치ngulo_57646" data-name="Rect치ngulo 57646" width="146.944" height="251.016" fill="none"/>
    </clipPath>
  </defs>
  <g id="Grupo_177821" data-name="Grupo 177821" transform="translate(7799 4696)">
    <g id="Grupo_177629" data-name="Grupo 177629" transform="translate(-7799 -4696)">
      <g id="Grupo_169303" data-name="Grupo 169303" transform="translate(8.138 0)">
        <g id="Grupo_168636" data-name="Grupo 168636" transform="translate(0 0)" clip-path="url(#clip-path)">
          <path id="Trazado_211592" data-name="Trazado 211592" d="M205.743,205.85S356.916,92.471,254.651,62.459,46.789-42.028,19,31.335s47.8,104.487,12.227,144.5S75.69,288.105,205.743,205.85" transform="translate(-3.294 0)" fill="#8c5be1"/>
        </g>
      </g>
      <g id="Grupo_169306" data-name="Grupo 169306" transform="translate(63.931 283.745) rotate(-90)">
        <circle id="Elipse_5566" data-name="Elipse 5566" cx="49.221" cy="49.221" r="49.221" transform="translate(87.898 69.61) rotate(-45)" fill="#def2f4"/>
        <ellipse id="Elipse_5567" data-name="Elipse 5567" cx="79.045" cy="79.045" rx="79.045" ry="79.045" transform="translate(0 81.374) rotate(-22.5)" fill="#fff"/>
        <g id="Grupo_152550" data-name="Grupo 152550" transform="translate(6.478 9.987)">
          <ellipse id="Elipse_5568" data-name="Elipse 5568" cx="0.055" cy="0.055" rx="0.055" ry="0.055" transform="translate(50.567 160.054)" fill="#e8e8e8"/>
          <path id="Trazado_193815" data-name="Trazado 193815" d="M.469,0A.469.469,0,1,1,0,.469.469.469,0,0,1,.469,0Z" transform="translate(60.107 159.64)" fill="#e8e8e8"/>
          <path id="Trazado_193816" data-name="Trazado 193816" d="M.8,0A.8.8,0,1,1,0,.8.8.8,0,0,1,.8,0Z" transform="translate(69.729 159.308)" fill="#e8e8e8"/>
          <ellipse id="Elipse_5569" data-name="Elipse 5569" cx="0.856" cy="0.856" rx="0.856" ry="0.856" transform="translate(79.627 159.253)" fill="#e8e8e8"/>
          <path id="Trazado_193817" data-name="Trazado 193817" d="M.8,0A.8.8,0,1,1,0,.8.8.8,0,0,1,.8,0Z" transform="translate(89.635 159.308)" fill="#e8e8e8"/>
          <path id="Trazado_193818" data-name="Trazado 193818" d="M.441,0A.441.441,0,1,1,0,.441.44.44,0,0,1,.441,0Z" transform="translate(99.948 159.668)" fill="#e8e8e8"/>
          <ellipse id="Elipse_5570" data-name="Elipse 5570" cx="0.028" cy="0.028" rx="0.028" ry="0.028" transform="translate(110.315 160.081)" fill="#e8e8e8"/>
          <ellipse id="Elipse_5571" data-name="Elipse 5571" cx="0.028" cy="0.028" rx="0.028" ry="0.028" transform="translate(30.688 150.128)" fill="#e8e8e8"/>
          <path id="Trazado_193819" data-name="Trazado 193819" d="M.828,0A.828.828,0,1,1,0,.828.829.829,0,0,1,.828,0Z" transform="translate(39.841 149.327)" fill="#e8e8e8"/>
          <path id="Trazado_193820" data-name="Trazado 193820" d="M1.685,0A1.685,1.685,0,1,1,0,1.684,1.684,1.684,0,0,1,1.685,0Z" transform="translate(48.938 148.471)" fill="#e8e8e8"/>
          <ellipse id="Elipse_5572" data-name="Elipse 5572" cx="1.877" cy="1.877" rx="1.877" ry="1.877" transform="translate(58.699 148.279)" fill="#e8e8e8"/>
          <ellipse id="Elipse_5573" data-name="Elipse 5573" cx="1.877" cy="1.877" rx="1.877" ry="1.877" transform="translate(68.652 148.279)" fill="#e8e8e8"/>
          <path id="Trazado_193821" data-name="Trazado 193821" d="M1.877,0A1.877,1.877,0,1,1,0,1.877,1.878,1.878,0,0,1,1.877,0Z" transform="translate(78.605 148.278)" fill="#e8e8e8"/>
          <path id="Trazado_193822" data-name="Trazado 193822" d="M1.877,0A1.877,1.877,0,1,1,0,1.877,1.878,1.878,0,0,1,1.877,0Z" transform="translate(88.558 148.278)" fill="#e8e8e8"/>
          <path id="Trazado_193823" data-name="Trazado 193823" d="M1.877,0A1.877,1.877,0,1,1,0,1.877,1.878,1.878,0,0,1,1.877,0Z" transform="translate(98.512 148.278)" fill="#e8e8e8"/>
          <path id="Trazado_193824" data-name="Trazado 193824" d="M1.657,0A1.657,1.657,0,1,1,0,1.657,1.658,1.658,0,0,1,1.657,0Z" transform="translate(108.685 148.499)" fill="#e8e8e8"/>
          <path id="Trazado_193825" data-name="Trazado 193825" d="M.773,0A.773.773,0,1,1,0,.773.772.772,0,0,1,.773,0Z" transform="translate(119.522 149.383)" fill="#e8e8e8"/>
          <ellipse id="Elipse_5574" data-name="Elipse 5574" cx="0.028" cy="0.028" rx="0.028" ry="0.028" transform="translate(130.221 150.128)" fill="#e8e8e8"/>
          <path id="Trazado_193826" data-name="Trazado 193826" d="M.139,0A.137.137,0,0,1,.276.137.138.138,0,1,1,.139,0Z" transform="translate(20.624 140.065)" fill="#e8e8e8"/>
          <path id="Trazado_193827" data-name="Trazado 193827" d="M1.353,0A1.353,1.353,0,1,1,0,1.353,1.353,1.353,0,0,1,1.353,0Z" transform="translate(29.363 138.849)" fill="#e8e8e8"/>
          <ellipse id="Elipse_5575" data-name="Elipse 5575" cx="1.877" cy="1.877" rx="1.877" ry="1.877" transform="translate(38.792 138.325)" fill="#e8e8e8"/>
          <ellipse id="Elipse_5576" data-name="Elipse 5576" cx="1.877" cy="1.877" rx="1.877" ry="1.877" transform="translate(48.745 138.325)" fill="#e8e8e8"/>
          <ellipse id="Elipse_5577" data-name="Elipse 5577" cx="1.877" cy="1.877" rx="1.877" ry="1.877" transform="translate(58.699 138.325)" fill="#e8e8e8"/>
          <ellipse id="Elipse_5578" data-name="Elipse 5578" cx="1.877" cy="1.877" rx="1.877" ry="1.877" transform="translate(68.652 138.325)" fill="#e8e8e8"/>
          <path id="Trazado_193828" data-name="Trazado 193828" d="M1.877,0A1.877,1.877,0,1,1,0,1.877,1.878,1.878,0,0,1,1.877,0Z" transform="translate(78.605 138.325)" fill="#e8e8e8"/>
          <path id="Trazado_193829" data-name="Trazado 193829" d="M1.877,0A1.877,1.877,0,1,1,0,1.877,1.878,1.878,0,0,1,1.877,0Z" transform="translate(88.558 138.325)" fill="#e8e8e8"/>
          <path id="Trazado_193830" data-name="Trazado 193830" d="M1.877,0A1.877,1.877,0,1,1,0,1.877,1.878,1.878,0,0,1,1.877,0Z" transform="translate(98.512 138.325)" fill="#e8e8e8"/>
          <path id="Trazado_193831" data-name="Trazado 193831" d="M1.877,0A1.877,1.877,0,1,1,0,1.877,1.878,1.878,0,0,1,1.877,0Z" transform="translate(108.465 138.325)" fill="#e8e8e8"/>
          <path id="Trazado_193832" data-name="Trazado 193832" d="M1.877,0A1.877,1.877,0,1,1,0,1.877,1.878,1.878,0,0,1,1.877,0Z" transform="translate(118.418 138.325)" fill="#e8e8e8"/>
          <path id="Trazado_193833" data-name="Trazado 193833" d="M1.325,0A1.325,1.325,0,1,1,0,1.325,1.325,1.325,0,0,1,1.325,0Z" transform="translate(128.923 138.877)" fill="#e8e8e8"/>
          <path id="Trazado_193834" data-name="Trazado 193834" d="M.081,0a.083.083,0,1,1,0,.167A.084.084,0,0,1,.081,0Z" transform="translate(140.12 140.119)" fill="#e8e8e8"/>
          <ellipse id="Elipse_5579" data-name="Elipse 5579" cx="0.028" cy="0.028" rx="0.028" ry="0.028" transform="translate(10.781 130.221)" fill="#e8e8e8"/>
          <path id="Trazado_193835" data-name="Trazado 193835" d="M1.353,0A1.353,1.353,0,1,1,0,1.353,1.351,1.351,0,0,1,1.353,0Z" transform="translate(19.41 128.896)" fill="#e8e8e8"/>
          <ellipse id="Elipse_5580" data-name="Elipse 5580" cx="1.877" cy="1.877" rx="1.877" ry="1.877" transform="translate(28.839 128.372)" fill="#e8e8e8"/>
          <ellipse id="Elipse_5581" data-name="Elipse 5581" cx="1.877" cy="1.877" rx="1.877" ry="1.877" transform="translate(38.792 128.372)" fill="#e8e8e8"/>
          <ellipse id="Elipse_5582" data-name="Elipse 5582" cx="1.877" cy="1.877" rx="1.877" ry="1.877" transform="translate(48.745 128.372)" fill="#e8e8e8"/>
          <ellipse id="Elipse_5583" data-name="Elipse 5583" cx="1.877" cy="1.877" rx="1.877" ry="1.877" transform="translate(58.699 128.372)" fill="#e8e8e8"/>
          <ellipse id="Elipse_5584" data-name="Elipse 5584" cx="1.877" cy="1.877" rx="1.877" ry="1.877" transform="translate(68.652 128.372)" fill="#e8e8e8"/>
          <path id="Trazado_193836" data-name="Trazado 193836" d="M1.877,0A1.877,1.877,0,1,1,0,1.877,1.878,1.878,0,0,1,1.877,0Z" transform="translate(78.605 128.372)" fill="#e8e8e8"/>
          <path id="Trazado_193837" data-name="Trazado 193837" d="M1.877,0A1.877,1.877,0,1,1,0,1.877,1.878,1.878,0,0,1,1.877,0Z" transform="translate(88.558 128.372)" fill="#e8e8e8"/>
          <path id="Trazado_193838" data-name="Trazado 193838" d="M1.877,0A1.877,1.877,0,1,1,0,1.877,1.878,1.878,0,0,1,1.877,0Z" transform="translate(98.512 128.372)" fill="#e8e8e8"/>
          <path id="Trazado_193839" data-name="Trazado 193839" d="M1.877,0A1.877,1.877,0,1,1,0,1.877,1.878,1.878,0,0,1,1.877,0Z" transform="translate(108.465 128.372)" fill="#e8e8e8"/>
          <path id="Trazado_193840" data-name="Trazado 193840" d="M1.877,0A1.877,1.877,0,1,1,0,1.877,1.878,1.878,0,0,1,1.877,0Z" transform="translate(118.418 128.372)" fill="#e8e8e8"/>
          <path id="Trazado_193841" data-name="Trazado 193841" d="M1.877,0A1.877,1.877,0,1,1,0,1.877,1.878,1.878,0,0,1,1.877,0Z" transform="translate(128.371 128.372)" fill="#e8e8e8"/>
          <path id="Trazado_193842" data-name="Trazado 193842" d="M1.325,0A1.325,1.325,0,1,1,0,1.325,1.325,1.325,0,0,1,1.325,0Z" transform="translate(138.877 128.924)" fill="#e8e8e8"/>
          <ellipse id="Elipse_5585" data-name="Elipse 5585" cx="0.028" cy="0.028" rx="0.028" ry="0.028" transform="translate(150.128 130.221)" fill="#e8e8e8"/>
          <path id="Trazado_193843" data-name="Trazado 193843" d="M.828,0A.828.828,0,1,1,0,.828.827.827,0,0,1,.828,0Z" transform="translate(9.981 119.467)" fill="#e8e8e8"/>
          <ellipse id="Elipse_5586" data-name="Elipse 5586" cx="1.877" cy="1.877" rx="1.877" ry="1.877" transform="translate(18.885 118.419)" fill="#e8e8e8"/>
          <ellipse id="Elipse_5587" data-name="Elipse 5587" cx="1.877" cy="1.877" rx="1.877" ry="1.877" transform="translate(28.839 118.419)" fill="#e8e8e8"/>
          <ellipse id="Elipse_5588" data-name="Elipse 5588" cx="1.877" cy="1.877" rx="1.877" ry="1.877" transform="translate(38.792 118.419)" fill="#e8e8e8"/>
          <ellipse id="Elipse_5589" data-name="Elipse 5589" cx="1.877" cy="1.877" rx="1.877" ry="1.877" transform="translate(48.745 118.419)" fill="#e8e8e8"/>
          <ellipse id="Elipse_5590" data-name="Elipse 5590" cx="1.877" cy="1.877" rx="1.877" ry="1.877" transform="translate(58.699 118.419)" fill="#e8e8e8"/>
          <ellipse id="Elipse_5591" data-name="Elipse 5591" cx="1.877" cy="1.877" rx="1.877" ry="1.877" transform="translate(68.652 118.419)" fill="#e8e8e8"/>
          <path id="Trazado_193844" data-name="Trazado 193844" d="M1.877,0A1.877,1.877,0,1,1,0,1.877,1.878,1.878,0,0,1,1.877,0Z" transform="translate(78.605 118.419)" fill="#e8e8e8"/>
          <path id="Trazado_193845" data-name="Trazado 193845" d="M1.877,0A1.877,1.877,0,1,1,0,1.877,1.878,1.878,0,0,1,1.877,0Z" transform="translate(88.558 118.419)" fill="#e8e8e8"/>
          <path id="Trazado_193846" data-name="Trazado 193846" d="M1.877,0A1.877,1.877,0,1,1,0,1.877,1.878,1.878,0,0,1,1.877,0Z" transform="translate(98.512 118.419)" fill="#e8e8e8"/>
          <path id="Trazado_193847" data-name="Trazado 193847" d="M1.877,0A1.877,1.877,0,1,1,0,1.877,1.878,1.878,0,0,1,1.877,0Z" transform="translate(108.465 118.419)" fill="#e8e8e8"/>
          <path id="Trazado_193848" data-name="Trazado 193848" d="M1.877,0A1.877,1.877,0,1,1,0,1.877,1.878,1.878,0,0,1,1.877,0Z" transform="translate(118.418 118.419)" fill="#e8e8e8"/>
          <path id="Trazado_193849" data-name="Trazado 193849" d="M1.877,0A1.877,1.877,0,1,1,0,1.877,1.878,1.878,0,0,1,1.877,0Z" transform="translate(128.371 118.419)" fill="#e8e8e8"/>
          <path id="Trazado_193850" data-name="Trazado 193850" d="M1.877,0A1.877,1.877,0,1,1,0,1.877,1.878,1.878,0,0,1,1.877,0Z" transform="translate(138.324 118.419)" fill="#e8e8e8"/>
          <path id="Trazado_193851" data-name="Trazado 193851" d="M.773,0A.773.773,0,1,1,0,.773.772.772,0,0,1,.773,0Z" transform="translate(149.382 119.523)" fill="#e8e8e8"/>
          <ellipse id="Elipse_5592" data-name="Elipse 5592" cx="0.055" cy="0.055" rx="0.055" ry="0.055" transform="translate(0.8 110.287)" fill="#e8e8e8"/>
          <path id="Trazado_193852" data-name="Trazado 193852" d="M1.657,0A1.657,1.657,0,1,1,0,1.657,1.655,1.655,0,0,1,1.657,0Z" transform="translate(9.153 108.686)" fill="#e8e8e8"/>
          <ellipse id="Elipse_5593" data-name="Elipse 5593" cx="1.877" cy="1.877" rx="1.877" ry="1.877" transform="translate(18.885 108.466)" fill="#e8e8e8"/>
          <ellipse id="Elipse_5594" data-name="Elipse 5594" cx="1.877" cy="1.877" rx="1.877" ry="1.877" transform="translate(28.839 108.466)" fill="#e8e8e8"/>
          <ellipse id="Elipse_5595" data-name="Elipse 5595" cx="1.877" cy="1.877" rx="1.877" ry="1.877" transform="translate(38.792 108.466)" fill="#e8e8e8"/>
          <ellipse id="Elipse_5596" data-name="Elipse 5596" cx="1.877" cy="1.877" rx="1.877" ry="1.877" transform="translate(48.745 108.466)" fill="#e8e8e8"/>
          <ellipse id="Elipse_5597" data-name="Elipse 5597" cx="1.877" cy="1.877" rx="1.877" ry="1.877" transform="translate(58.699 108.466)" fill="#e8e8e8"/>
          <ellipse id="Elipse_5598" data-name="Elipse 5598" cx="1.877" cy="1.877" rx="1.877" ry="1.877" transform="translate(68.652 108.466)" fill="#e8e8e8"/>
          <path id="Trazado_193853" data-name="Trazado 193853" d="M1.877,0A1.877,1.877,0,1,1,0,1.877,1.878,1.878,0,0,1,1.877,0Z" transform="translate(78.605 108.465)" fill="#e8e8e8"/>
          <path id="Trazado_193854" data-name="Trazado 193854" d="M1.877,0A1.877,1.877,0,1,1,0,1.877,1.878,1.878,0,0,1,1.877,0Z" transform="translate(88.558 108.465)" fill="#e8e8e8"/>
          <path id="Trazado_193855" data-name="Trazado 193855" d="M1.877,0A1.877,1.877,0,1,1,0,1.877,1.878,1.878,0,0,1,1.877,0Z" transform="translate(98.512 108.465)" fill="#e8e8e8"/>
          <path id="Trazado_193856" data-name="Trazado 193856" d="M1.877,0A1.877,1.877,0,1,1,0,1.877,1.878,1.878,0,0,1,1.877,0Z" transform="translate(108.465 108.465)" fill="#e8e8e8"/>
          <path id="Trazado_193857" data-name="Trazado 193857" d="M1.877,0A1.877,1.877,0,1,1,0,1.877,1.878,1.878,0,0,1,1.877,0Z" transform="translate(118.418 108.465)" fill="#e8e8e8"/>
          <path id="Trazado_193858" data-name="Trazado 193858" d="M1.877,0A1.877,1.877,0,1,1,0,1.877,1.878,1.878,0,0,1,1.877,0Z" transform="translate(128.371 108.465)" fill="#e8e8e8"/>
          <path id="Trazado_193859" data-name="Trazado 193859" d="M1.877,0A1.877,1.877,0,1,1,0,1.877,1.878,1.878,0,0,1,1.877,0Z" transform="translate(138.324 108.465)" fill="#e8e8e8"/>
          <path id="Trazado_193860" data-name="Trazado 193860" d="M1.627,0A1.629,1.629,0,1,1,0,1.629,1.628,1.628,0,0,1,1.627,0Z" transform="translate(148.528 108.714)" fill="#e8e8e8"/>
          <ellipse id="Elipse_5599" data-name="Elipse 5599" cx="0.055" cy="0.055" rx="0.055" ry="0.055" transform="translate(160.054 110.287)" fill="#e8e8e8"/>
          <ellipse id="Elipse_5600" data-name="Elipse 5600" cx="0.469" cy="0.469" rx="0.469" ry="0.469" transform="translate(0.386 99.92)" fill="#e8e8e8"/>
          <ellipse id="Elipse_5601" data-name="Elipse 5601" cx="1.877" cy="1.877" rx="1.877" ry="1.877" transform="translate(8.932 98.512)" fill="#e8e8e8"/>
          <ellipse id="Elipse_5602" data-name="Elipse 5602" cx="1.877" cy="1.877" rx="1.877" ry="1.877" transform="translate(18.885 98.512)" fill="#e8e8e8"/>
          <ellipse id="Elipse_5603" data-name="Elipse 5603" cx="1.877" cy="1.877" rx="1.877" ry="1.877" transform="translate(28.839 98.512)" fill="#e8e8e8"/>
          <ellipse id="Elipse_5604" data-name="Elipse 5604" cx="1.877" cy="1.877" rx="1.877" ry="1.877" transform="translate(38.792 98.512)" fill="#e8e8e8"/>
          <ellipse id="Elipse_5605" data-name="Elipse 5605" cx="1.877" cy="1.877" rx="1.877" ry="1.877" transform="translate(48.745 98.512)" fill="#e8e8e8"/>
          <ellipse id="Elipse_5606" data-name="Elipse 5606" cx="1.877" cy="1.877" rx="1.877" ry="1.877" transform="translate(58.699 98.512)" fill="#e8e8e8"/>
          <ellipse id="Elipse_5607" data-name="Elipse 5607" cx="1.877" cy="1.877" rx="1.877" ry="1.877" transform="translate(68.652 98.512)" fill="#e8e8e8"/>
          <path id="Trazado_193861" data-name="Trazado 193861" d="M1.877,0A1.877,1.877,0,1,1,0,1.877,1.877,1.877,0,0,1,1.877,0Z" transform="translate(78.605 98.512)" fill="#e8e8e8"/>
          <path id="Trazado_193862" data-name="Trazado 193862" d="M1.877,0A1.877,1.877,0,1,1,0,1.877,1.877,1.877,0,0,1,1.877,0Z" transform="translate(88.558 98.512)" fill="#e8e8e8"/>
          <path id="Trazado_193863" data-name="Trazado 193863" d="M1.877,0A1.877,1.877,0,1,1,0,1.877,1.877,1.877,0,0,1,1.877,0Z" transform="translate(98.512 98.512)" fill="#e8e8e8"/>
          <path id="Trazado_193864" data-name="Trazado 193864" d="M1.877,0A1.877,1.877,0,1,1,0,1.877,1.877,1.877,0,0,1,1.877,0Z" transform="translate(108.465 98.512)" fill="#e8e8e8"/>
          <path id="Trazado_193865" data-name="Trazado 193865" d="M1.877,0A1.877,1.877,0,1,1,0,1.877,1.877,1.877,0,0,1,1.877,0Z" transform="translate(118.418 98.512)" fill="#e8e8e8"/>
          <path id="Trazado_193866" data-name="Trazado 193866" d="M1.877,0A1.877,1.877,0,1,1,0,1.877,1.877,1.877,0,0,1,1.877,0Z" transform="translate(128.371 98.512)" fill="#e8e8e8"/>
          <path id="Trazado_193867" data-name="Trazado 193867" d="M1.877,0A1.877,1.877,0,1,1,0,1.877,1.877,1.877,0,0,1,1.877,0Z" transform="translate(138.324 98.512)" fill="#e8e8e8"/>
          <path id="Trazado_193868" data-name="Trazado 193868" d="M1.875,0A1.877,1.877,0,1,1,0,1.877,1.875,1.875,0,0,1,1.875,0Z" transform="translate(148.28 98.512)" fill="#e8e8e8"/>
          <ellipse id="Elipse_5608" data-name="Elipse 5608" cx="0.414" cy="0.414" rx="0.414" ry="0.414" transform="translate(159.695 99.975)" fill="#e8e8e8"/>
          <path id="Trazado_193869" data-name="Trazado 193869" d="M.8,0A.8.8,0,1,1,0,.8.8.8,0,0,1,.8,0Z" transform="translate(0.056 89.636)" fill="#e8e8e8"/>
          <path id="Trazado_193870" data-name="Trazado 193870" d="M1.877,0A1.877,1.877,0,1,1,0,1.877,1.875,1.875,0,0,1,1.877,0Z" transform="translate(8.933 88.559)" fill="#e8e8e8"/>
          <path id="Trazado_193871" data-name="Trazado 193871" d="M1.877,0A1.877,1.877,0,1,1,0,1.877,1.875,1.875,0,0,1,1.877,0Z" transform="translate(18.886 88.559)" fill="#e8e8e8"/>
          <path id="Trazado_193872" data-name="Trazado 193872" d="M1.877,0A1.877,1.877,0,1,1,0,1.877,1.875,1.875,0,0,1,1.877,0Z" transform="translate(28.839 88.559)" fill="#e8e8e8"/>
          <path id="Trazado_193873" data-name="Trazado 193873" d="M1.877,0A1.877,1.877,0,1,1,0,1.877,1.875,1.875,0,0,1,1.877,0Z" transform="translate(38.792 88.559)" fill="#e8e8e8"/>
          <path id="Trazado_193874" data-name="Trazado 193874" d="M1.877,0A1.877,1.877,0,1,1,0,1.877,1.877,1.877,0,0,1,1.877,0Z" transform="translate(48.745 88.559)" fill="#e8e8e8"/>
          <path id="Trazado_193875" data-name="Trazado 193875" d="M1.877,0A1.877,1.877,0,1,1,0,1.877,1.877,1.877,0,0,1,1.877,0Z" transform="translate(58.699 88.559)" fill="#e8e8e8"/>
          <path id="Trazado_193876" data-name="Trazado 193876" d="M1.877,0A1.877,1.877,0,1,1,0,1.877,1.877,1.877,0,0,1,1.877,0Z" transform="translate(68.652 88.559)" fill="#e8e8e8"/>
          <path id="Trazado_193877" data-name="Trazado 193877" d="M1.877,0A1.877,1.877,0,1,1,0,1.877,1.877,1.877,0,0,1,1.877,0Z" transform="translate(78.605 88.559)" fill="#e8e8e8"/>
          <path id="Trazado_193878" data-name="Trazado 193878" d="M1.877,0A1.877,1.877,0,1,1,0,1.877,1.877,1.877,0,0,1,1.877,0Z" transform="translate(88.558 88.559)" fill="#e8e8e8"/>
          <path id="Trazado_193879" data-name="Trazado 193879" d="M1.877,0A1.877,1.877,0,1,1,0,1.877,1.877,1.877,0,0,1,1.877,0Z" transform="translate(98.512 88.559)" fill="#e8e8e8"/>
          <path id="Trazado_193880" data-name="Trazado 193880" d="M1.877,0A1.877,1.877,0,1,1,0,1.877,1.877,1.877,0,0,1,1.877,0Z" transform="translate(108.465 88.559)" fill="#e8e8e8"/>
          <path id="Trazado_193881" data-name="Trazado 193881" d="M1.877,0A1.877,1.877,0,1,1,0,1.877,1.877,1.877,0,0,1,1.877,0Z" transform="translate(118.418 88.559)" fill="#e8e8e8"/>
          <path id="Trazado_193882" data-name="Trazado 193882" d="M1.877,0A1.877,1.877,0,1,1,0,1.877,1.877,1.877,0,0,1,1.877,0Z" transform="translate(128.371 88.559)" fill="#e8e8e8"/>
          <path id="Trazado_193883" data-name="Trazado 193883" d="M1.877,0A1.877,1.877,0,1,1,0,1.877,1.877,1.877,0,0,1,1.877,0Z" transform="translate(138.324 88.559)" fill="#e8e8e8"/>
          <path id="Trazado_193884" data-name="Trazado 193884" d="M1.875,0A1.877,1.877,0,1,1,0,1.877,1.875,1.875,0,0,1,1.875,0Z" transform="translate(148.28 88.559)" fill="#e8e8e8"/>
          <path id="Trazado_193885" data-name="Trazado 193885" d="M.773,0A.773.773,0,1,1,0,.773.771.771,0,0,1,.773,0Z" transform="translate(159.335 89.663)" fill="#e8e8e8"/>
          <ellipse id="Elipse_5609" data-name="Elipse 5609" cx="0.856" cy="0.856" rx="0.856" ry="0.856" transform="translate(0 79.627)" fill="#e8e8e8"/>
          <path id="Trazado_193886" data-name="Trazado 193886" d="M1.877,0A1.877,1.877,0,1,1,0,1.877,1.875,1.875,0,0,1,1.877,0Z" transform="translate(8.933 78.606)" fill="#e8e8e8"/>
          <path id="Trazado_193887" data-name="Trazado 193887" d="M1.877,0A1.877,1.877,0,1,1,0,1.877,1.875,1.875,0,0,1,1.877,0Z" transform="translate(18.886 78.606)" fill="#e8e8e8"/>
          <path id="Trazado_193888" data-name="Trazado 193888" d="M1.877,0A1.877,1.877,0,1,1,0,1.877,1.875,1.875,0,0,1,1.877,0Z" transform="translate(28.839 78.606)" fill="#e8e8e8"/>
          <path id="Trazado_193889" data-name="Trazado 193889" d="M1.877,0A1.877,1.877,0,1,1,0,1.877,1.875,1.875,0,0,1,1.877,0Z" transform="translate(38.792 78.606)" fill="#e8e8e8"/>
          <path id="Trazado_193890" data-name="Trazado 193890" d="M1.877,0A1.877,1.877,0,1,1,0,1.877,1.877,1.877,0,0,1,1.877,0Z" transform="translate(48.745 78.606)" fill="#e8e8e8"/>
          <path id="Trazado_193891" data-name="Trazado 193891" d="M1.877,0A1.877,1.877,0,1,1,0,1.877,1.877,1.877,0,0,1,1.877,0Z" transform="translate(58.699 78.606)" fill="#e8e8e8"/>
          <path id="Trazado_193892" data-name="Trazado 193892" d="M1.877,0A1.877,1.877,0,1,1,0,1.877,1.877,1.877,0,0,1,1.877,0Z" transform="translate(68.652 78.606)" fill="#e8e8e8"/>
          <path id="Trazado_193893" data-name="Trazado 193893" d="M1.877,0A1.877,1.877,0,1,1,0,1.877,1.877,1.877,0,0,1,1.877,0Z" transform="translate(78.605 78.606)" fill="#e8e8e8"/>
          <path id="Trazado_193894" data-name="Trazado 193894" d="M1.877,0A1.877,1.877,0,1,1,0,1.877,1.877,1.877,0,0,1,1.877,0Z" transform="translate(88.558 78.606)" fill="#e8e8e8"/>
          <path id="Trazado_193895" data-name="Trazado 193895" d="M1.877,0A1.877,1.877,0,1,1,0,1.877,1.877,1.877,0,0,1,1.877,0Z" transform="translate(98.512 78.606)" fill="#e8e8e8"/>
          <path id="Trazado_193896" data-name="Trazado 193896" d="M1.877,0A1.877,1.877,0,1,1,0,1.877,1.877,1.877,0,0,1,1.877,0Z" transform="translate(108.465 78.606)" fill="#e8e8e8"/>
          <path id="Trazado_193897" data-name="Trazado 193897" d="M1.877,0A1.877,1.877,0,1,1,0,1.877,1.877,1.877,0,0,1,1.877,0Z" transform="translate(118.418 78.606)" fill="#e8e8e8"/>
          <path id="Trazado_193898" data-name="Trazado 193898" d="M1.877,0A1.877,1.877,0,1,1,0,1.877,1.877,1.877,0,0,1,1.877,0Z" transform="translate(128.371 78.606)" fill="#e8e8e8"/>
          <path id="Trazado_193899" data-name="Trazado 193899" d="M1.877,0A1.877,1.877,0,1,1,0,1.877,1.877,1.877,0,0,1,1.877,0Z" transform="translate(138.324 78.606)" fill="#e8e8e8"/>
          <path id="Trazado_193900" data-name="Trazado 193900" d="M1.875,0A1.877,1.877,0,1,1,0,1.877,1.875,1.875,0,0,1,1.875,0Z" transform="translate(148.28 78.606)" fill="#e8e8e8"/>
          <path id="Trazado_193901" data-name="Trazado 193901" d="M.854,0A.855.855,0,1,1,0,.856.856.856,0,0,1,.854,0Z" transform="translate(159.254 79.627)" fill="#e8e8e8"/>
          <path id="Trazado_193902" data-name="Trazado 193902" d="M.8,0A.8.8,0,1,1,0,.8.8.8,0,0,1,.8,0Z" transform="translate(0.056 69.729)" fill="#e8e8e8"/>
          <path id="Trazado_193903" data-name="Trazado 193903" d="M1.877,0A1.876,1.876,0,1,1,0,1.877,1.875,1.875,0,0,1,1.877,0Z" transform="translate(8.933 68.652)" fill="#e8e8e8"/>
          <path id="Trazado_193904" data-name="Trazado 193904" d="M1.877,0A1.876,1.876,0,1,1,0,1.877,1.875,1.875,0,0,1,1.877,0Z" transform="translate(18.886 68.652)" fill="#e8e8e8"/>
          <path id="Trazado_193905" data-name="Trazado 193905" d="M1.877,0A1.876,1.876,0,1,1,0,1.877,1.875,1.875,0,0,1,1.877,0Z" transform="translate(28.839 68.652)" fill="#e8e8e8"/>
          <path id="Trazado_193906" data-name="Trazado 193906" d="M1.877,0A1.876,1.876,0,1,1,0,1.877,1.875,1.875,0,0,1,1.877,0Z" transform="translate(38.792 68.652)" fill="#e8e8e8"/>
          <path id="Trazado_193907" data-name="Trazado 193907" d="M1.877,0A1.876,1.876,0,1,1,0,1.877,1.877,1.877,0,0,1,1.877,0Z" transform="translate(48.745 68.652)" fill="#e8e8e8"/>
          <path id="Trazado_193908" data-name="Trazado 193908" d="M1.877,0A1.876,1.876,0,1,1,0,1.877,1.877,1.877,0,0,1,1.877,0Z" transform="translate(58.699 68.652)" fill="#e8e8e8"/>
          <path id="Trazado_193909" data-name="Trazado 193909" d="M1.877,0A1.876,1.876,0,1,1,0,1.877,1.877,1.877,0,0,1,1.877,0Z" transform="translate(68.652 68.652)" fill="#e8e8e8"/>
          <path id="Trazado_193910" data-name="Trazado 193910" d="M1.877,0A1.876,1.876,0,1,1,0,1.877,1.877,1.877,0,0,1,1.877,0Z" transform="translate(78.605 68.652)" fill="#e8e8e8"/>
          <path id="Trazado_193911" data-name="Trazado 193911" d="M1.877,0A1.876,1.876,0,1,1,0,1.877,1.877,1.877,0,0,1,1.877,0Z" transform="translate(88.558 68.652)" fill="#e8e8e8"/>
          <path id="Trazado_193912" data-name="Trazado 193912" d="M1.877,0A1.876,1.876,0,1,1,0,1.877,1.877,1.877,0,0,1,1.877,0Z" transform="translate(98.512 68.652)" fill="#e8e8e8"/>
          <path id="Trazado_193913" data-name="Trazado 193913" d="M1.877,0A1.876,1.876,0,1,1,0,1.877,1.877,1.877,0,0,1,1.877,0Z" transform="translate(108.465 68.652)" fill="#e8e8e8"/>
          <path id="Trazado_193914" data-name="Trazado 193914" d="M1.877,0A1.876,1.876,0,1,1,0,1.877,1.877,1.877,0,0,1,1.877,0Z" transform="translate(118.418 68.652)" fill="#e8e8e8"/>
          <path id="Trazado_193915" data-name="Trazado 193915" d="M1.877,0A1.876,1.876,0,1,1,0,1.877,1.877,1.877,0,0,1,1.877,0Z" transform="translate(128.371 68.652)" fill="#e8e8e8"/>
          <path id="Trazado_193916" data-name="Trazado 193916" d="M1.877,0A1.876,1.876,0,1,1,0,1.877,1.877,1.877,0,0,1,1.877,0Z" transform="translate(138.324 68.652)" fill="#e8e8e8"/>
          <path id="Trazado_193917" data-name="Trazado 193917" d="M1.875,0A1.876,1.876,0,1,1,0,1.877,1.875,1.875,0,0,1,1.875,0Z" transform="translate(148.28 68.652)" fill="#e8e8e8"/>
          <path id="Trazado_193918" data-name="Trazado 193918" d="M.745,0A.745.745,0,1,1,0,.745.745.745,0,0,1,.745,0Z" transform="translate(159.363 69.785)" fill="#e8e8e8"/>
          <ellipse id="Elipse_5610" data-name="Elipse 5610" cx="0.442" cy="0.442" rx="0.442" ry="0.442" transform="translate(0.414 60.134)" fill="#e8e8e8"/>
          <path id="Trazado_193919" data-name="Trazado 193919" d="M1.877,0A1.876,1.876,0,1,1,0,1.877,1.875,1.875,0,0,1,1.877,0Z" transform="translate(8.933 58.699)" fill="#e8e8e8"/>
          <path id="Trazado_193920" data-name="Trazado 193920" d="M1.877,0A1.876,1.876,0,1,1,0,1.877,1.875,1.875,0,0,1,1.877,0Z" transform="translate(18.886 58.699)" fill="#e8e8e8"/>
          <path id="Trazado_193921" data-name="Trazado 193921" d="M1.877,0A1.876,1.876,0,1,1,0,1.877,1.875,1.875,0,0,1,1.877,0Z" transform="translate(28.839 58.699)" fill="#e8e8e8"/>
          <path id="Trazado_193922" data-name="Trazado 193922" d="M1.877,0A1.876,1.876,0,1,1,0,1.877,1.875,1.875,0,0,1,1.877,0Z" transform="translate(38.792 58.699)" fill="#e8e8e8"/>
          <path id="Trazado_193923" data-name="Trazado 193923" d="M1.877,0A1.876,1.876,0,1,1,0,1.877,1.877,1.877,0,0,1,1.877,0Z" transform="translate(48.745 58.699)" fill="#e8e8e8"/>
          <path id="Trazado_193924" data-name="Trazado 193924" d="M1.877,0A1.876,1.876,0,1,1,0,1.877,1.877,1.877,0,0,1,1.877,0Z" transform="translate(58.699 58.699)" fill="#e8e8e8"/>
          <path id="Trazado_193925" data-name="Trazado 193925" d="M1.877,0A1.876,1.876,0,1,1,0,1.877,1.877,1.877,0,0,1,1.877,0Z" transform="translate(68.652 58.699)" fill="#e8e8e8"/>
          <path id="Trazado_193926" data-name="Trazado 193926" d="M1.877,0A1.876,1.876,0,1,1,0,1.877,1.877,1.877,0,0,1,1.877,0Z" transform="translate(78.605 58.699)" fill="#e8e8e8"/>
          <path id="Trazado_193927" data-name="Trazado 193927" d="M1.877,0A1.876,1.876,0,1,1,0,1.877,1.877,1.877,0,0,1,1.877,0Z" transform="translate(88.558 58.699)" fill="#e8e8e8"/>
          <path id="Trazado_193928" data-name="Trazado 193928" d="M1.877,0A1.876,1.876,0,1,1,0,1.877,1.877,1.877,0,0,1,1.877,0Z" transform="translate(98.512 58.699)" fill="#e8e8e8"/>
          <path id="Trazado_193929" data-name="Trazado 193929" d="M1.877,0A1.876,1.876,0,1,1,0,1.877,1.877,1.877,0,0,1,1.877,0Z" transform="translate(108.465 58.699)" fill="#e8e8e8"/>
          <path id="Trazado_193930" data-name="Trazado 193930" d="M1.877,0A1.876,1.876,0,1,1,0,1.877,1.877,1.877,0,0,1,1.877,0Z" transform="translate(118.418 58.699)" fill="#e8e8e8"/>
          <path id="Trazado_193931" data-name="Trazado 193931" d="M1.877,0A1.876,1.876,0,1,1,0,1.877,1.877,1.877,0,0,1,1.877,0Z" transform="translate(128.371 58.699)" fill="#e8e8e8"/>
          <path id="Trazado_193932" data-name="Trazado 193932" d="M1.877,0A1.876,1.876,0,1,1,0,1.877,1.877,1.877,0,0,1,1.877,0Z" transform="translate(138.324 58.699)" fill="#e8e8e8"/>
          <path id="Trazado_193933" data-name="Trazado 193933" d="M1.875,0A1.876,1.876,0,1,1,0,1.877,1.875,1.875,0,0,1,1.875,0Z" transform="translate(148.28 58.699)" fill="#e8e8e8"/>
          <ellipse id="Elipse_5611" data-name="Elipse 5611" cx="0.414" cy="0.414" rx="0.414" ry="0.414" transform="translate(159.695 60.162)" fill="#e8e8e8"/>
          <ellipse id="Elipse_5612" data-name="Elipse 5612" cx="0.028" cy="0.028" rx="0.028" ry="0.028" transform="translate(0.828 50.595)" fill="#e8e8e8"/>
          <path id="Trazado_193934" data-name="Trazado 193934" d="M1.657,0A1.656,1.656,0,1,1,0,1.655,1.654,1.654,0,0,1,1.657,0Z" transform="translate(9.153 48.967)" fill="#e8e8e8"/>
          <path id="Trazado_193935" data-name="Trazado 193935" d="M1.877,0A1.876,1.876,0,1,1,0,1.875,1.874,1.874,0,0,1,1.877,0Z" transform="translate(18.886 48.746)" fill="#e8e8e8"/>
          <path id="Trazado_193936" data-name="Trazado 193936" d="M1.877,0A1.876,1.876,0,1,1,0,1.875,1.874,1.874,0,0,1,1.877,0" transform="translate(28.839 48.746)" fill="#e8e8e8"/>
          <path id="Trazado_193937" data-name="Trazado 193937" d="M1.877,0A1.876,1.876,0,1,1,0,1.875,1.874,1.874,0,0,1,1.877,0Z" transform="translate(38.792 48.746)" fill="#e8e8e8"/>
          <path id="Trazado_193938" data-name="Trazado 193938" d="M1.877,0A1.876,1.876,0,1,1,0,1.875,1.876,1.876,0,0,1,1.877,0Z" transform="translate(48.745 48.746)" fill="#e8e8e8"/>
          <path id="Trazado_193939" data-name="Trazado 193939" d="M1.877,0A1.876,1.876,0,1,1,0,1.875,1.876,1.876,0,0,1,1.877,0Z" transform="translate(58.699 48.746)" fill="#e8e8e8"/>
          <path id="Trazado_193940" data-name="Trazado 193940" d="M1.877,0A1.876,1.876,0,1,1,0,1.875,1.876,1.876,0,0,1,1.877,0Z" transform="translate(68.652 48.746)" fill="#e8e8e8"/>
          <path id="Trazado_193941" data-name="Trazado 193941" d="M1.877,0A1.876,1.876,0,1,1,0,1.875,1.876,1.876,0,0,1,1.877,0Z" transform="translate(78.605 48.746)" fill="#e8e8e8"/>
          <path id="Trazado_193942" data-name="Trazado 193942" d="M1.877,0A1.876,1.876,0,1,1,0,1.875,1.876,1.876,0,0,1,1.877,0Z" transform="translate(88.558 48.746)" fill="#e8e8e8"/>
          <path id="Trazado_193943" data-name="Trazado 193943" d="M1.877,0A1.876,1.876,0,1,1,0,1.875,1.876,1.876,0,0,1,1.877,0Z" transform="translate(98.512 48.746)" fill="#e8e8e8"/>
          <path id="Trazado_193944" data-name="Trazado 193944" d="M1.877,0A1.876,1.876,0,1,1,0,1.875,1.876,1.876,0,0,1,1.877,0Z" transform="translate(108.465 48.746)" fill="#e8e8e8"/>
          <path id="Trazado_193945" data-name="Trazado 193945" d="M1.877,0A1.876,1.876,0,1,1,0,1.875,1.876,1.876,0,0,1,1.877,0Z" transform="translate(118.418 48.746)" fill="#e8e8e8"/>
          <path id="Trazado_193946" data-name="Trazado 193946" d="M1.877,0A1.876,1.876,0,1,1,0,1.875,1.876,1.876,0,0,1,1.877,0Z" transform="translate(128.371 48.746)" fill="#e8e8e8"/>
          <path id="Trazado_193947" data-name="Trazado 193947" d="M1.877,0A1.876,1.876,0,1,1,0,1.875,1.876,1.876,0,0,1,1.877,0Z" transform="translate(138.324 48.746)" fill="#e8e8e8"/>
          <path id="Trazado_193948" data-name="Trazado 193948" d="M1.627,0A1.628,1.628,0,1,1,0,1.627,1.627,1.627,0,0,1,1.627,0Z" transform="translate(148.528 48.994)" fill="#e8e8e8"/>
          <ellipse id="Elipse_5613" data-name="Elipse 5613" cx="0.055" cy="0.055" rx="0.055" ry="0.055" transform="translate(160.054 50.567)" fill="#e8e8e8"/>
          <path id="Trazado_193949" data-name="Trazado 193949" d="M.775,0A.774.774,0,1,1,0,.773.774.774,0,0,1,.775,0Z" transform="translate(10.035 39.895)" fill="#e8e8e8"/>
          <path id="Trazado_193950" data-name="Trazado 193950" d="M1.877,0A1.876,1.876,0,1,1,0,1.875,1.875,1.875,0,0,1,1.877,0Z" transform="translate(18.886 38.793)" fill="#e8e8e8"/>
          <path id="Trazado_193951" data-name="Trazado 193951" d="M1.877,0A1.876,1.876,0,1,1,0,1.875,1.875,1.875,0,0,1,1.877,0Z" transform="translate(28.839 38.793)" fill="#e8e8e8"/>
          <path id="Trazado_193952" data-name="Trazado 193952" d="M1.877,0A1.876,1.876,0,1,1,0,1.875,1.875,1.875,0,0,1,1.877,0Z" transform="translate(38.792 38.793)" fill="#e8e8e8"/>
          <path id="Trazado_193953" data-name="Trazado 193953" d="M1.877,0A1.876,1.876,0,1,1,0,1.875,1.876,1.876,0,0,1,1.877,0Z" transform="translate(48.745 38.793)" fill="#e8e8e8"/>
          <path id="Trazado_193954" data-name="Trazado 193954" d="M1.877,0A1.876,1.876,0,1,1,0,1.875,1.876,1.876,0,0,1,1.877,0Z" transform="translate(58.699 38.793)" fill="#e8e8e8"/>
          <path id="Trazado_193955" data-name="Trazado 193955" d="M1.877,0A1.876,1.876,0,1,1,0,1.875,1.876,1.876,0,0,1,1.877,0Z" transform="translate(68.652 38.793)" fill="#e8e8e8"/>
          <path id="Trazado_193956" data-name="Trazado 193956" d="M1.877,0A1.876,1.876,0,1,1,0,1.875,1.876,1.876,0,0,1,1.877,0Z" transform="translate(78.605 38.793)" fill="#e8e8e8"/>
          <path id="Trazado_193957" data-name="Trazado 193957" d="M1.877,0A1.876,1.876,0,1,1,0,1.875,1.876,1.876,0,0,1,1.877,0Z" transform="translate(88.558 38.793)" fill="#e8e8e8"/>
          <path id="Trazado_193958" data-name="Trazado 193958" d="M1.877,0A1.876,1.876,0,1,1,0,1.875,1.876,1.876,0,0,1,1.877,0Z" transform="translate(98.512 38.793)" fill="#e8e8e8"/>
          <path id="Trazado_193959" data-name="Trazado 193959" d="M1.877,0A1.876,1.876,0,1,1,0,1.875,1.876,1.876,0,0,1,1.877,0Z" transform="translate(108.465 38.793)" fill="#e8e8e8"/>
          <path id="Trazado_193960" data-name="Trazado 193960" d="M1.877,0A1.876,1.876,0,1,1,0,1.875,1.876,1.876,0,0,1,1.877,0Z" transform="translate(118.418 38.793)" fill="#e8e8e8"/>
          <path id="Trazado_193961" data-name="Trazado 193961" d="M1.877,0A1.876,1.876,0,1,1,0,1.875,1.876,1.876,0,0,1,1.877,0Z" transform="translate(128.371 38.793)" fill="#e8e8e8"/>
          <path id="Trazado_193962" data-name="Trazado 193962" d="M1.877,0A1.876,1.876,0,1,1,0,1.875,1.876,1.876,0,0,1,1.877,0Z" transform="translate(138.324 38.793)" fill="#e8e8e8"/>
          <path id="Trazado_193963" data-name="Trazado 193963" d="M.745,0A.746.746,0,1,1,0,.745.746.746,0,0,1,.745,0Z" transform="translate(149.41 39.923)" fill="#e8e8e8"/>
          <ellipse id="Elipse_5614" data-name="Elipse 5614" cx="0.028" cy="0.028" rx="0.028" ry="0.028" transform="translate(10.781 30.688)" fill="#e8e8e8"/>
          <path id="Trazado_193964" data-name="Trazado 193964" d="M1.325,0A1.325,1.325,0,1,1,0,1.325,1.327,1.327,0,0,1,1.325,0Z" transform="translate(19.438 29.39)" fill="#e8e8e8"/>
          <ellipse id="Elipse_5615" data-name="Elipse 5615" cx="1.877" cy="1.877" rx="1.877" ry="1.877" transform="translate(28.839 28.839)" fill="#e8e8e8"/>
          <ellipse id="Elipse_5616" data-name="Elipse 5616" cx="1.877" cy="1.877" rx="1.877" ry="1.877" transform="translate(38.792 28.839)" fill="#e8e8e8"/>
          <ellipse id="Elipse_5617" data-name="Elipse 5617" cx="1.877" cy="1.877" rx="1.877" ry="1.877" transform="translate(48.745 28.839)" fill="#e8e8e8"/>
          <ellipse id="Elipse_5618" data-name="Elipse 5618" cx="1.877" cy="1.877" rx="1.877" ry="1.877" transform="translate(58.699 28.839)" fill="#e8e8e8"/>
          <ellipse id="Elipse_5619" data-name="Elipse 5619" cx="1.877" cy="1.877" rx="1.877" ry="1.877" transform="translate(68.652 28.839)" fill="#e8e8e8"/>
          <path id="Trazado_193965" data-name="Trazado 193965" d="M1.877,0A1.876,1.876,0,1,1,0,1.875,1.876,1.876,0,0,1,1.877,0Z" transform="translate(78.605 28.84)" fill="#e8e8e8"/>
          <path id="Trazado_193966" data-name="Trazado 193966" d="M1.877,0A1.876,1.876,0,1,1,0,1.875,1.876,1.876,0,0,1,1.877,0Z" transform="translate(88.558 28.84)" fill="#e8e8e8"/>
          <path id="Trazado_193967" data-name="Trazado 193967" d="M1.877,0A1.876,1.876,0,1,1,0,1.875,1.876,1.876,0,0,1,1.877,0Z" transform="translate(98.512 28.84)" fill="#e8e8e8"/>
          <path id="Trazado_193968" data-name="Trazado 193968" d="M1.877,0A1.876,1.876,0,1,1,0,1.875,1.876,1.876,0,0,1,1.877,0Z" transform="translate(108.465 28.84)" fill="#e8e8e8"/>
          <path id="Trazado_193969" data-name="Trazado 193969" d="M1.877,0A1.876,1.876,0,1,1,0,1.875,1.876,1.876,0,0,1,1.877,0Z" transform="translate(118.418 28.84)" fill="#e8e8e8"/>
          <path id="Trazado_193970" data-name="Trazado 193970" d="M1.877,0A1.876,1.876,0,1,1,0,1.875,1.876,1.876,0,0,1,1.877,0Z" transform="translate(128.371 28.84)" fill="#e8e8e8"/>
          <path id="Trazado_193971" data-name="Trazado 193971" d="M1.3,0A1.3,1.3,0,1,1,0,1.3,1.3,1.3,0,0,1,1.3,0Z" transform="translate(138.904 29.418)" fill="#e8e8e8"/>
          <ellipse id="Elipse_5620" data-name="Elipse 5620" cx="0.028" cy="0.028" rx="0.028" ry="0.028" transform="translate(150.128 30.688)" fill="#e8e8e8"/>
          <ellipse id="Elipse_5621" data-name="Elipse 5621" cx="0.083" cy="0.083" rx="0.083" ry="0.083" transform="translate(20.679 20.679)" fill="#e8e8e8"/>
          <path id="Trazado_193972" data-name="Trazado 193972" d="M1.325,0A1.325,1.325,0,1,1,0,1.325,1.327,1.327,0,0,1,1.325,0Z" transform="translate(29.391 19.437)" fill="#e8e8e8"/>
          <ellipse id="Elipse_5622" data-name="Elipse 5622" cx="1.877" cy="1.877" rx="1.877" ry="1.877" transform="translate(38.792 18.885)" fill="#e8e8e8"/>
          <ellipse id="Elipse_5623" data-name="Elipse 5623" cx="1.877" cy="1.877" rx="1.877" ry="1.877" transform="translate(48.745 18.885)" fill="#e8e8e8"/>
          <ellipse id="Elipse_5624" data-name="Elipse 5624" cx="1.877" cy="1.877" rx="1.877" ry="1.877" transform="translate(58.699 18.885)" fill="#e8e8e8"/>
          <ellipse id="Elipse_5625" data-name="Elipse 5625" cx="1.877" cy="1.877" rx="1.877" ry="1.877" transform="translate(68.652 18.885)" fill="#e8e8e8"/>
          <path id="Trazado_193973" data-name="Trazado 193973" d="M1.877,0A1.876,1.876,0,1,1,0,1.875,1.876,1.876,0,0,1,1.877,0Z" transform="translate(78.605 18.886)" fill="#e8e8e8"/>
          <path id="Trazado_193974" data-name="Trazado 193974" d="M1.877,0A1.876,1.876,0,1,1,0,1.875,1.876,1.876,0,0,1,1.877,0Z" transform="translate(88.558 18.886)" fill="#e8e8e8"/>
          <path id="Trazado_193975" data-name="Trazado 193975" d="M1.877,0A1.876,1.876,0,1,1,0,1.875,1.876,1.876,0,0,1,1.877,0Z" transform="translate(98.512 18.886)" fill="#e8e8e8"/>
          <path id="Trazado_193976" data-name="Trazado 193976" d="M1.877,0A1.876,1.876,0,1,1,0,1.875,1.876,1.876,0,0,1,1.877,0Z" transform="translate(108.465 18.886)" fill="#e8e8e8"/>
          <path id="Trazado_193977" data-name="Trazado 193977" d="M1.877,0A1.876,1.876,0,1,1,0,1.875,1.876,1.876,0,0,1,1.877,0Z" transform="translate(118.418 18.886)" fill="#e8e8e8"/>
          <path id="Trazado_193978" data-name="Trazado 193978" d="M1.3,0A1.3,1.3,0,1,1,0,1.3,1.3,1.3,0,0,1,1.3,0Z" transform="translate(128.951 19.464)" fill="#e8e8e8"/>
          <path id="Trazado_193979" data-name="Trazado 193979" d="M.109,0A.11.11,0,1,1,0,.109.11.11,0,0,1,.109,0Z" transform="translate(140.092 20.652)" fill="#e8e8e8"/>
          <ellipse id="Elipse_5626" data-name="Elipse 5626" cx="0.028" cy="0.028" rx="0.028" ry="0.028" transform="translate(30.688 10.781)" fill="#e8e8e8"/>
          <path id="Trazado_193980" data-name="Trazado 193980" d="M.773,0A.773.773,0,1,1,0,.773.774.774,0,0,1,.773,0Z" transform="translate(39.897 10.036)" fill="#e8e8e8"/>
          <path id="Trazado_193981" data-name="Trazado 193981" d="M1.629,0A1.628,1.628,0,1,1,0,1.627,1.628,1.628,0,0,1,1.629,0Z" transform="translate(48.994 9.182)" fill="#e8e8e8"/>
          <ellipse id="Elipse_5627" data-name="Elipse 5627" cx="1.877" cy="1.877" rx="1.877" ry="1.877" transform="translate(58.699 8.932)" fill="#e8e8e8"/>
          <ellipse id="Elipse_5628" data-name="Elipse 5628" cx="1.877" cy="1.877" rx="1.877" ry="1.877" transform="translate(68.652 8.932)" fill="#e8e8e8"/>
          <path id="Trazado_193982" data-name="Trazado 193982" d="M1.877,0A1.876,1.876,0,1,1,0,1.875,1.876,1.876,0,0,1,1.877,0Z" transform="translate(78.605 8.933)" fill="#e8e8e8"/>
          <path id="Trazado_193983" data-name="Trazado 193983" d="M1.877,0A1.876,1.876,0,1,1,0,1.875,1.876,1.876,0,0,1,1.877,0Z" transform="translate(88.558 8.933)" fill="#e8e8e8"/>
          <path id="Trazado_193984" data-name="Trazado 193984" d="M1.877,0A1.876,1.876,0,1,1,0,1.875,1.876,1.876,0,0,1,1.877,0Z" transform="translate(98.512 8.933)" fill="#e8e8e8"/>
          <path id="Trazado_193985" data-name="Trazado 193985" d="M1.629,0A1.628,1.628,0,1,1,0,1.627,1.628,1.628,0,0,1,1.629,0Z" transform="translate(108.713 9.182)" fill="#e8e8e8"/>
          <path id="Trazado_193986" data-name="Trazado 193986" d="M.745,0A.745.745,0,1,1,0,.745.745.745,0,0,1,.745,0Z" transform="translate(119.55 10.063)" fill="#e8e8e8"/>
          <ellipse id="Elipse_5629" data-name="Elipse 5629" cx="0.028" cy="0.028" rx="0.028" ry="0.028" transform="translate(130.221 10.781)" fill="#e8e8e8"/>
          <ellipse id="Elipse_5630" data-name="Elipse 5630" cx="0.055" cy="0.055" rx="0.055" ry="0.055" transform="translate(50.567 0.8)" fill="#e8e8e8"/>
          <path id="Trazado_193987" data-name="Trazado 193987" d="M.413,0A.414.414,0,1,1,0,.413.412.412,0,0,1,.413,0Z" transform="translate(60.163 0.442)" fill="#e8e8e8"/>
          <path id="Trazado_193988" data-name="Trazado 193988" d="M.773,0A.773.773,0,1,1,0,.773.774.774,0,0,1,.773,0Z" transform="translate(69.756 0.082)" fill="#e8e8e8"/>
          <ellipse id="Elipse_5631" data-name="Elipse 5631" cx="0.856" cy="0.856" rx="0.856" ry="0.856" transform="translate(79.627)" fill="#e8e8e8"/>
          <path id="Trazado_193989" data-name="Trazado 193989" d="M.773,0A.773.773,0,1,1,0,.773.774.774,0,0,1,.773,0Z" transform="translate(89.663 0.082)" fill="#e8e8e8"/>
          <path id="Trazado_193990" data-name="Trazado 193990" d="M.413,0A.414.414,0,1,1,0,.413.412.412,0,0,1,.413,0Z" transform="translate(99.976 0.442)" fill="#e8e8e8"/>
          <ellipse id="Elipse_5632" data-name="Elipse 5632" cx="0.055" cy="0.055" rx="0.055" ry="0.055" transform="translate(110.287 0.8)" fill="#e8e8e8"/>
        </g>
      </g>
      <g id="Grupo_169387" data-name="Grupo 169387" transform="translate(0 195.381)">
        <path id="Trazado_211593" data-name="Trazado 211593" d="M3.926,297.385c.227.369.463.728.707,1.08L42.556,275.22c-.2-.376-.416-.751-.642-1.121-.333-.544-.688-1.066-1.06-1.573L3,295.727c.282.56.588,1.115.921,1.659" transform="translate(-0.778 -263.724)" fill="#43a99b"/>
        <path id="Trazado_211594" data-name="Trazado 211594" d="M22.66,312.881,48.373,297.12a22.328,22.328,0,0,0,.772-4.209L18.559,311.659a22.418,22.418,0,0,0,4.1,1.222" transform="translate(-4.805 -269.002)" fill="#43a99b"/>
        <path id="Trazado_211595" data-name="Trazado 211595" d="M11.677,306.34,46.55,284.963a22.041,22.041,0,0,0-.727-3.29L9.074,304.2a22.125,22.125,0,0,0,2.6,2.141" transform="translate(-2.349 -266.093)" fill="#43a99b"/>
        <path id="Trazado_211596" data-name="Trazado 211596" d="M42.905,314.063a22.213,22.213,0,0,0,6.1-5.513L35.224,317a22.224,22.224,0,0,0,7.681-2.935" transform="translate(-9.12 -273.052)" fill="#43a99b"/>
        <path id="Trazado_211597" data-name="Trazado 211597" d="M.637,289.7,37.1,267.346a22.013,22.013,0,0,0-2.692-2.086L0,286.352A22.045,22.045,0,0,0,.637,289.7" transform="translate(0 -261.843)" fill="#43a99b"/>
        <path id="Trazado_211598" data-name="Trazado 211598" d="M12.453,263.848a22.259,22.259,0,0,0-4.907,4.074l10.764-6.6a22.243,22.243,0,0,0-5.857,2.523" transform="translate(-1.954 -260.824)" fill="#43a99b"/>
        <path id="Trazado_211599" data-name="Trazado 211599" d="M.029,280.022l29.8-18.266a22.418,22.418,0,0,0-4.292-1.106L.992,275.7a22.354,22.354,0,0,0-.963,4.326" transform="translate(-0.008 -260.649)" fill="#43a99b"/>
      </g>
    </g>
    <path id="Trazado_226797" data-name="Trazado 226797" d="M-6273.388-2800.984h147.094s-36.117,5.54-72.89,5.54S-6273.388-2800.984-6273.388-2800.984Z" transform="translate(-1443 -1644)" fill="#3f3f3f"/>
    <g id="Grupo_177801" data-name="Grupo 177801" transform="translate(-7716.388 -4714)">
      <g id="Grupo_177801-2" data-name="Grupo 177801" transform="translate(0 18)" clip-path="url(#clip-path-2)">
        <path id="Trazado_227005" data-name="Trazado 227005" d="M118.063,848.242c.466-2.486.962-4.972,1.469-7.45a225.463,225.463,0,0,0,22.317-9.436q1.8-.843,3.606-1.682a171.463,171.463,0,0,0,46.088,14.085c.257,1.458.481,2.923.687,4.388a27.132,27.132,0,0,0,8.665-.852q.606,5.69,1.2,11.379H107.462V848.2c3.521.209,7.1.147,10.6.041" transform="translate(-76.185 -607.658)" fill="#dbeeff"/>
        <path id="Trazado_227006" data-name="Trazado 227006" d="M174.853,743.161q-1.8.843-3.606,1.682a225.391,225.391,0,0,1-22.317,9.437c2.387-11.566,5.177-23.044,7.986-34.515q5.673-1.222,11.342-2.464,11.28-2.462,22.556-4.971c10.7-2.376,21.374-5.835,32.327-4.311q-.171,8.917-.72,17.815-4.456-.341-8.915-.679c-.7.323-1.392.646-2.089.973l-36.564,17.033" transform="translate(-105.583 -521.146)" fill="#fbc7b2"/>
        <path id="Trazado_227007" data-name="Trazado 227007" d="M274.558,771.151a129.245,129.245,0,0,1,9.525,31.119,171.446,171.446,0,0,1-46.088-14.085l36.564-17.034" transform="translate(-168.724 -566.169)" fill="#fbc7b2"/>
        <path id="Trazado_227008" data-name="Trazado 227008" d="M309.184,365.436a21.407,21.407,0,0,1-6.767-3.444,14.22,14.22,0,0,1-5.434-8.64,18.531,18.531,0,0,1-.415-3.228,29.5,29.5,0,0,0,3.363-3.2,39.987,39.987,0,0,0,8.919-18.5,155.672,155.672,0,0,0,.969,17.012c.72,5.706,2.012,11.4,1.744,17.143a25.085,25.085,0,0,1-.386,3.411c-.672-.158-1.337-.341-1.994-.554" transform="translate(-210.25 -252.3)" fill="#be8446"/>
        <path id="Trazado_227009" data-name="Trazado 227009" d="M150.687,252.073a29.558,29.558,0,0,1-8.912-6.767c-4.972-5.552-7.883-12.686-9.22-20.048-.052-.444-.107-.9-.162-1.351a111.544,111.544,0,0,1-.826-15.389c2.864-3.83,6.481-7.065,9.712-10.611,3.356-3.687,6.407-7.953,7.369-12.818a83.166,83.166,0,0,0,42.134,19.776c.342,2.625.566,5.265.712,7.894.257,4.678.29,9.367.367,14.048a39.987,39.987,0,0,1-8.919,18.5,29.526,29.526,0,0,1-3.363,3.2,26.67,26.67,0,0,1-17.217,6.253,25.086,25.086,0,0,1-11.676-2.688m-.907-37.526a3.127,3.127,0,0,0-1.406,2.919c0,1.674.855,3.029,1.913,3.029s1.913-1.355,1.913-3.029a3.339,3.339,0,0,0-1.2-2.812,1.314,1.314,0,0,0-.708-.217,1.208,1.208,0,0,0-.507.11m24.01,2.919c0-1.674-.855-3.029-1.913-3.029s-1.913,1.355-1.913,3.029.855,3.029,1.913,3.029,1.913-1.355,1.913-3.029" transform="translate(-93.262 -150.683)" fill="#fbc7b2"/>
        <path id="Trazado_227010" data-name="Trazado 227010" d="M182.416,433.311a36.994,36.994,0,0,1-12.488-1.707,25.365,25.365,0,0,1-9.308-5.049,15.894,15.894,0,0,1-5.031-8.261,21.446,21.446,0,0,0,6.767-3.445,14.322,14.322,0,0,0,5.372-8.3,25.085,25.085,0,0,0,11.676,2.687,26.67,26.67,0,0,0,17.217-6.253,18.5,18.5,0,0,0,.415,3.227,14.217,14.217,0,0,0,5.434,8.64,21.4,21.4,0,0,0,6.767,3.445,15.9,15.9,0,0,1-5.03,8.261A25.413,25.413,0,0,1,194.9,431.6a36.953,36.953,0,0,1-12.48,1.707" transform="translate(-110.305 -305.158)" fill="#fbc7b2"/>
        <path id="Trazado_227011" data-name="Trazado 227011" d="M194.688,285.923a1.316,1.316,0,0,1,.709.217c-.4-.022-.811-.059-1.215-.107a1.212,1.212,0,0,1,.507-.11" transform="translate(-137.663 -222.169)" fill="#3aaa35"/>
        <path id="Trazado_227012" data-name="Trazado 227012" d="M140.994,361.661c-.569.184-1.146.345-1.726.488a66.152,66.152,0,0,1-2.108-15.33c-.334-8.563-1.153-15.381-2.159-23.72,1.337,7.362,4.248,14.5,9.22,20.048a29.559,29.559,0,0,0,8.912,6.767,14.327,14.327,0,0,1-5.372,8.3,21.446,21.446,0,0,1-6.767,3.444" transform="translate(-95.709 -248.526)" fill="#be8446"/>
        <path id="Trazado_227013" data-name="Trazado 227013" d="M109.211,157.379a111.5,111.5,0,0,0,.826,15.388c.055.456.11.907.162,1.351,1.006,8.339,1.825,15.157,2.159,23.72a66.148,66.148,0,0,0,2.108,15.33,31.664,31.664,0,0,0,4.946,10.391c.191.257.319.437.451.609a8.581,8.581,0,0,1-4.722-1c-3.018-1.619-4.924-5.361-6.128-8.43a24.773,24.773,0,0,1-1.465-5.618,28.572,28.572,0,0,0,1.773,12.029,15.87,15.87,0,0,1-5.251-4.733,20.27,20.27,0,0,1-2.082-3.54l.048-.022a35.531,35.531,0,0,1-1.851-15.756,93.145,93.145,0,0,1,2.416-13.582,49.941,49.941,0,0,0,.632-7.215q.347-4.186.69-8.372.688-8.366,1.38-16.74c.5-6.029,1.013-12.143,3.11-17.819s6-10.957,11.566-13.332l.184.235a34.163,34.163,0,0,1,50.26,9.209c1.612,2.666,2.093,5.823,3.066,8.79,4.608,14.078,6.657,28.794,10.652,43.088,1.6,5.75,3.525,11.46,4.12,17.4.58,5.765-1.05,13.123-4.362,17.959a29.979,29.979,0,0,0-7.156-1.649c-.055.092-.114.18-.169.272a24.11,24.11,0,0,1-11.137,9.411l-.048-.066c3.609-2.658,5.644-6.958,6.444-11.449a25.038,25.038,0,0,0,.385-3.411c.268-5.746-1.025-11.438-1.744-17.143a155.59,155.59,0,0,1-.97-17.011c-.077-4.682-.11-9.371-.367-14.048-.147-2.629-.371-5.269-.713-7.894a83.168,83.168,0,0,1-42.134-19.776c-.962,4.865-4.013,9.132-7.369,12.818-3.231,3.547-6.848,6.782-9.712,10.612" transform="translate(-70.906 -99.544)" fill="#be8446"/>
        <path id="Trazado_227014" data-name="Trazado 227014" d="M31.278,574.321c-6.367-.382-12.554-1.652-17.8-5.151-6.326-4.226-10.387-11.284-12.176-18.675s-1.5-15.139-.54-22.684,2.809-13.655,3.815-21.194c1.388-10.4,2.78-20.845,5.621-30.946,1.322-4.7,3-9.411,5.989-13.277,4.248-5.5,10.674-8.757,16.975-11.746a15.871,15.871,0,0,0,5.251,4.733,28.572,28.572,0,0,1-1.773-12.029,24.776,24.776,0,0,0,1.465,5.618c1.2,3.07,3.11,6.811,6.128,8.43a8.58,8.58,0,0,0,4.722,1c-.132-.173-.26-.352-.451-.609A31.664,31.664,0,0,1,43.56,447.4c.58-.143,1.157-.3,1.726-.488a15.893,15.893,0,0,0,5.03,8.261,25.364,25.364,0,0,0,9.308,5.049,37.009,37.009,0,0,0,12.488,1.708,36.966,36.966,0,0,0,12.48-1.708,25.407,25.407,0,0,0,9.312-5.049,15.893,15.893,0,0,0,5.03-8.261q.986.319,1.994.554c-.8,4.491-2.835,8.79-6.444,11.449l.048.066a24.112,24.112,0,0,0,11.137-9.411c.055-.092.114-.18.169-.272a29.982,29.982,0,0,1,7.156,1.649,38.716,38.716,0,0,1,17.033,12.7c6.135,7.876,9.558,17.555,11.592,27.329a227.868,227.868,0,0,1,5.309,45.688c.1,7.028-.206,14.258-3.011,20.7a29.067,29.067,0,0,1-19.207,16.042,27.146,27.146,0,0,1-8.666.852c-.205-1.465-.43-2.93-.687-4.388a129.249,129.249,0,0,0-9.525-31.119c.7-.327,1.392-.65,2.089-.973q4.456.341,8.915.679.545-8.895.72-17.815c-10.953-1.524-21.631,1.935-32.327,4.311q-11.274,2.506-22.556,4.971v0l-10.094-7.6-5.045-3.8a40.78,40.78,0,0,0-4.593-3.257,8.38,8.38,0,0,0-.955-.455l.066-.165-10.16-4.142-2.049-.837c-1.964-.8-4.215-1.594-6.158-.9h0a5.524,5.524,0,0,0-2.177,4.95,3.106,3.106,0,0,1-.015.477,3.594,3.594,0,0,0-1.01.217,4.2,4.2,0,0,0-2.071,1.968,6.567,6.567,0,0,0-.253,5.676c-.011.015-.018.033-.029.048a5.485,5.485,0,0,0,3.118,8.1c-.011.106-.018.213-.026.316a8.733,8.733,0,0,0,.217,3.271,5.056,5.056,0,0,0,4.494,3.242,6.926,6.926,0,0,0,5.251-2.229l.022-.04a9.213,9.213,0,0,1,1.913,1.373l.033.158q9.093-1.939,18.183-3.907c-2.809,11.471-5.6,22.949-7.986,34.515-.507,2.478-1,4.964-1.469,7.45-3.5.107-7.079.169-10.6-.041" transform="translate(0 -333.778)" fill="#dbeeff"/>
        <path id="Trazado_227015" data-name="Trazado 227015" d="M63.486,688.913a5.485,5.485,0,0,1-3.118-8.1c.011-.015.019-.033.029-.048a6.567,6.567,0,0,1,.254-5.677,4.2,4.2,0,0,1,2.071-1.968,3.6,3.6,0,0,1,1.01-.217,3.1,3.1,0,0,0,.015-.477,5.524,5.524,0,0,1,2.177-4.95h0c1.942-.694,4.193.1,6.158.9l2.049.837,10.16,4.142-.066.165a8.417,8.417,0,0,1,.955.455,40.75,40.75,0,0,1,4.593,3.257l5.045,3.8,10.094,7.6v0q-5.673,1.239-11.342,2.464Q84.485,693.064,75.39,695l-.033-.158a9.229,9.229,0,0,0-1.913-1.373l-.022.041a6.927,6.927,0,0,1-5.251,2.229,5.057,5.057,0,0,1-4.494-3.242,8.732,8.732,0,0,1-.217-3.271c.007-.1.015-.209.026-.316" transform="translate(-42.24 -492.479)" fill="#fbc7b2"/>
        <path id="Trazado_227016" data-name="Trazado 227016" d="M264.808,285.923c1.347,0,2.436,1.519,2.436,3.4s-1.089,3.4-2.436,3.4-2.436-1.519-2.436-3.4,1.089-3.4,2.436-3.4" transform="translate(-186.007 -222.169)" fill="#3c3a73"/>
        <path id="Trazado_227017" data-name="Trazado 227017" d="M189.661,285.923c1.347,0,2.436,1.519,2.436,3.4s-1.089,3.4-2.436,3.4-2.436-1.519-2.436-3.4,1.089-3.4,2.436-3.4" transform="translate(-132.732 -222.169)" fill="#3c3a73"/>
        <path id="Trazado_227018" data-name="Trazado 227018" d="M146.8,317.438a5.913,5.913,0,1,0,5.913-5.913,5.913,5.913,0,0,0-5.913,5.913" transform="translate(-104.076 -240.32)" fill="#fba997"/>
        <path id="Trazado_227019" data-name="Trazado 227019" d="M279.027,317.438a5.913,5.913,0,1,0,5.913-5.913,5.913,5.913,0,0,0-5.913,5.913" transform="translate(-197.815 -240.32)" fill="#fba997"/>
        <path id="Trazado_227020" data-name="Trazado 227020" d="M250.9,268.529a.367.367,0,0,1-.139-.707c1.2-.491,2.392-1.091,3.54-1.67.977-.494,1.988-1,3.013-1.45a14.2,14.2,0,0,1,7.236-1.421.367.367,0,0,1-.082.73,13.521,13.521,0,0,0-6.861,1.364c-1.006.438-2.007.943-2.975,1.432-1.161.586-2.362,1.193-3.594,1.695a.362.362,0,0,1-.138.027" transform="translate(-177.611 -206.074)" fill="#3c3a73"/>
        <path id="Trazado_227021" data-name="Trazado 227021" d="M174.364,281.314a24.891,24.891,0,0,1-5.914-.884c-.4-.1-.8-.2-1.2-.3-1.164-.3-2.367-.6-3.556-.827a.367.367,0,1,1,.135-.722c1.212.226,2.427.537,3.6.837.4.1.8.2,1.2.3a18.614,18.614,0,0,0,8.067.64.367.367,0,1,1,.146.72,12.391,12.391,0,0,1-2.475.237" transform="translate(-115.836 -216.957)" fill="#3c3a73"/>
        <path id="Trazado_227022" data-name="Trazado 227022" d="M216.28,280.694a.367.367,0,0,1-.257-.63,4.015,4.015,0,0,0,1.194-2.693.359.359,0,0,1,.381-.353.368.368,0,0,1,.353.381,4.757,4.757,0,0,1-1.415,3.191.369.369,0,0,1-.257.1" transform="translate(-153.07 -215.856)" fill="#3c3a73"/>
        <path id="Trazado_227023" data-name="Trazado 227023" d="M219.01,326.707a.367.367,0,0,1-.335-.216,4.153,4.153,0,0,1,.022-2.99c.084-.273.18-.543.276-.812a8.451,8.451,0,0,0,.5-1.8.371.371,0,0,1,.409-.32.367.367,0,0,1,.32.409,9.144,9.144,0,0,1-.534,1.955c-.093.26-.185.521-.267.784a3.476,3.476,0,0,0-.054,2.47.367.367,0,0,1-.183.486.363.363,0,0,1-.151.033" transform="translate(-154.84 -246.732)" fill="#eb6b69"/>
        <path id="Trazado_227024" data-name="Trazado 227024" d="M224.55,347.447a5.923,5.923,0,0,1-3.265-1,.367.367,0,1,1,.4-.613,4.919,4.919,0,0,0,5.481.113.367.367,0,1,1,.395.619,5.587,5.587,0,0,1-3.015.884" transform="translate(-156.762 -264.597)" fill="#eb6b69"/>
        <path id="Trazado_227025" data-name="Trazado 227025" d="M229.18,362.65a.367.367,0,0,1-.248-.638,17.98,17.98,0,0,1,7.917-4.2.367.367,0,1,1,.171.714,17.246,17.246,0,0,0-7.593,4.027.365.365,0,0,1-.247.1" transform="translate(-162.215 -273.128)" fill="#3c3a73"/>
        <path id="Trazado_227026" data-name="Trazado 227026" d="M207.664,408.613a21.07,21.07,0,0,1-2.485-.15,26.972,26.972,0,0,1-8.634-2.611.367.367,0,1,1,.322-.66,26.23,26.23,0,0,0,8.4,2.542,19.021,19.021,0,0,0,4.362.038c.426-.048.849-.084,1.27-.121a22.325,22.325,0,0,0,2.649-.335,27.626,27.626,0,0,0,11.824-5.761.367.367,0,1,1,.466.568,28.365,28.365,0,0,1-12.14,5.912,23.278,23.278,0,0,1-2.735.347c-.415.036-.832.072-1.252.119a18.343,18.343,0,0,1-2.045.112" transform="translate(-139.193 -304.087)" fill="#eb6b69"/>
        <path id="Trazado_227027" data-name="Trazado 227027" d="M132.3,206.62a.367.367,0,0,1-.256-.631A82.967,82.967,0,0,0,142.3,193.943a.367.367,0,0,1,.6.421,83.744,83.744,0,0,1-10.346,12.152.366.366,0,0,1-.256.1" transform="translate(-93.533 -156.85)" fill="#3c3a73"/>
        <path id="Trazado_227028" data-name="Trazado 227028" d="M279.864,202.13a.381.381,0,0,1-.076-.008,42.987,42.987,0,0,1-20.237-10.406.367.367,0,1,1,.5-.541A42.249,42.249,0,0,0,279.939,201.4a.367.367,0,0,1-.075.726" transform="translate(-183.923 -154.93)" fill="#3c3a73"/>
        <path id="Trazado_227029" data-name="Trazado 227029" d="M340.221,369.4a.377.377,0,0,1-.069-.006.368.368,0,0,1-.292-.43,25.793,25.793,0,0,0,.426-3.631,63.662,63.662,0,0,0-1.081-12.5c-.23-1.5-.467-3.049-.661-4.577a146.218,146.218,0,0,1-.943-15.545.367.367,0,0,1,.36-.374.385.385,0,0,1,.374.36,145.613,145.613,0,0,0,.938,15.467c.192,1.519.429,3.064.658,4.558a64.22,64.22,0,0,1,1.089,12.648,26.609,26.609,0,0,1-.438,3.734.367.367,0,0,1-.36.3" transform="translate(-239.339 -255.073)" fill="#3c3a73"/>
        <path id="Trazado_227030" data-name="Trazado 227030" d="M316.719,199.079a.368.368,0,0,1-.364-.319c-1.162-8.709-3.475-15.748-7.071-21.52a.367.367,0,0,1,.623-.388c3.653,5.862,6,13,7.176,21.812a.367.367,0,0,1-.315.412.407.407,0,0,1-.049,0" transform="translate(-219.226 -144.722)" fill="#3c3a73"/>
        <path id="Trazado_227031" data-name="Trazado 227031" d="M362.158,429.791a.368.368,0,0,1-.311-.562,23.76,23.76,0,0,0,3.556-13.908.367.367,0,0,1,.733-.044,24.5,24.5,0,0,1-3.667,14.341.366.366,0,0,1-.311.172" transform="translate(-256.49 -313.629)" fill="#3c3a73"/>
        <path id="Trazado_227032" data-name="Trazado 227032" d="M343.136,228.422a.367.367,0,0,1-.361-.3,52.865,52.865,0,0,0-2.79-9.7.367.367,0,0,1,.683-.27,53.6,53.6,0,0,1,2.829,9.837.367.367,0,0,1-.294.428.36.36,0,0,1-.068.006" transform="translate(-241.012 -173.958)" fill="#3c3a73"/>
        <path id="Trazado_227033" data-name="Trazado 227033" d="M139.648,372.134a.367.367,0,0,1-.353-.266,65.328,65.328,0,0,1-2.148-15.512c-.264-6.778-.825-12.455-1.643-19.416a.367.367,0,0,1,.729-.086c.821,6.979,1.383,12.671,1.648,19.473A64.617,64.617,0,0,0,140,371.665a.368.368,0,0,1-.353.468" transform="translate(-96.063 -258.046)" fill="#3c3a73"/>
        <path id="Trazado_227034" data-name="Trazado 227034" d="M130.718,205.675h-.007a.367.367,0,0,1-.36-.374,80.45,80.45,0,0,1,4.014-24.331.367.367,0,0,1,.7.236,79.716,79.716,0,0,0-3.975,24.108.367.367,0,0,1-.367.36" transform="translate(-92.411 -147.587)" fill="#3c3a73"/>
        <path id="Trazado_227035" data-name="Trazado 227035" d="M83.544,688.48a.368.368,0,0,1-.095-.012l-6.961-1.85a9.642,9.642,0,0,0-2.316-.41.367.367,0,0,1,0-.734h0a10.238,10.238,0,0,1,2.5.435l6.961,1.85a.367.367,0,0,1-.094.722" transform="translate(-52.326 -505.429)" fill="#eb6b69"/>
        <path id="Trazado_227036" data-name="Trazado 227036" d="M61.39,708.657a.367.367,0,0,1-.313-.558,4.268,4.268,0,0,1,2.536-2.013,6.411,6.411,0,0,1,2.832.129l5.69,1.141a.367.367,0,1,1-.144.72l-5.69-1.141a5.846,5.846,0,0,0-2.507-.137A3.591,3.591,0,0,0,61.7,708.48a.367.367,0,0,1-.314.177" transform="translate(-43.262 -519.96)" fill="#eb6b69"/>
        <path id="Trazado_227037" data-name="Trazado 227037" d="M72.02,736.582H72a.367.367,0,0,1-.344-.389,2.941,2.941,0,0,1,.86-2.28,2.9,2.9,0,0,1,1.925-.428l6.4.135a.367.367,0,0,1,.359.375.359.359,0,0,1-.375.359l-6.4-.135a2.293,2.293,0,0,0-1.46.275,2.342,2.342,0,0,0-.577,1.744.367.367,0,0,1-.366.345" transform="translate(-50.798 -539.463)" fill="#eb6b69"/>
        <path id="Trazado_227038" data-name="Trazado 227038" d="M96.851,756.778a.367.367,0,0,1-.239-.088,7.563,7.563,0,0,0-2.157-1.457,6.944,6.944,0,0,0-1.885-.335c-.764-.059-1.542-.1-2.313-.116a.367.367,0,0,1,.008-.734h.009c.784.018,1.576.058,2.352.118a7.538,7.538,0,0,1,2.087.38,8.234,8.234,0,0,1,2.377,1.587.367.367,0,0,1-.239.646" transform="translate(-63.733 -554.043)" fill="#eb6b69"/>
        <path id="Trazado_227039" data-name="Trazado 227039" d="M91.288,534.682a.367.367,0,0,1-.334-.215,94.709,94.709,0,0,0-9.037-15.621.367.367,0,0,1,.6-.427,95.474,95.474,0,0,1,9.107,15.742.367.367,0,0,1-.334.52" transform="translate(-58.026 -386.888)" fill="#3c3a73"/>
        <path id="Trazado_227040" data-name="Trazado 227040" d="M108.75,618.944l-.045,0a.367.367,0,0,1-.32-.409l1.291-10.58a97.59,97.59,0,0,0,1.017-11.558.367.367,0,1,1,.733-.05,110.285,110.285,0,0,1-1.02,11.7l-1.291,10.58a.367.367,0,0,1-.364.323" transform="translate(-76.837 -441.998)" fill="#3c3a73"/>
        <path id="Trazado_227041" data-name="Trazado 227041" d="M115.882,875.293c-.247,0-.492-.022-.719-.043s-.445-.039-.635-.037c-2.99.056-5.421.022-7.65-.108a.367.367,0,0,1,.042-.733c2.211.129,4.625.164,7.594.107a6.866,6.866,0,0,1,.715.04c.593.054,1.205.109,1.523-.222a3.859,3.859,0,0,0,.755-2.005l.058-.308q.448-2.3.921-4.593a.367.367,0,1,1,.719.148q-.472,2.291-.92,4.586l-.057.3a4.455,4.455,0,0,1-.946,2.38,1.843,1.843,0,0,1-1.4.488" transform="translate(-75.525 -634.188)" fill="#3c3a73"/>
        <path id="Trazado_227042" data-name="Trazado 227042" d="M34.2,777.042a2.9,2.9,0,0,1-1.286-.283,2.21,2.21,0,0,1-1.188-2.61.367.367,0,1,1,.691.249,1.487,1.487,0,0,0,.822,1.7,2.716,2.716,0,0,0,2.221-.062,9.238,9.238,0,0,0,1.928-1.227l.177-.134a49.571,49.571,0,0,1,11.481-6.469.367.367,0,1,1,.272.682,48.836,48.836,0,0,0-11.311,6.373l-.176.132a9.8,9.8,0,0,1-2.087,1.319,4.016,4.016,0,0,1-1.544.327" transform="translate(-22.422 -564.064)" fill="#3c3a73"/>
        <path id="Trazado_227043" data-name="Trazado 227043" d="M176.941,743.074a.367.367,0,0,1-.077-.726q5.079-1.1,10.155-2.207a.367.367,0,0,1,.157.717q-5.077,1.108-10.157,2.207a.378.378,0,0,1-.078.008" transform="translate(-125.181 -544.178)" fill="#eb6b69"/>
        <path id="Trazado_227044" data-name="Trazado 227044" d="M236.582,782.305a.367.367,0,0,1-.155-.7l41.486-19.332a.367.367,0,0,1,.31.665l-41.486,19.332a.366.366,0,0,1-.155.034" transform="translate(-167.463 -559.85)" fill="#eb6b69"/>
        <path id="Trazado_227045" data-name="Trazado 227045" d="M401.567,628.379h-.008a.367.367,0,0,1-.36-.375c.076-3.822.1-7.7.077-11.527-.047-7.091-.273-14.275-.671-21.353a.367.367,0,0,1,.733-.041c.4,7.09.624,14.286.671,21.389.026,3.834,0,7.719-.077,11.547a.367.367,0,0,1-.367.36" transform="translate(-284.007 -441.1)" fill="#3c3a73"/>
        <path id="Trazado_227046" data-name="Trazado 227046" d="M398.933,557.288a.361.361,0,0,1-.055,0,.367.367,0,0,1-.308-.418,18.065,18.065,0,0,1,5.683-10.634.367.367,0,0,1,.495.543,17.33,17.33,0,0,0-5.452,10.2.367.367,0,0,1-.363.313" transform="translate(-282.561 -406.645)" fill="#3c3a73"/>
        <path id="Trazado_227047" data-name="Trazado 227047" d="M397.955,882.05a7.2,7.2,0,0,1-.97-.06,1.343,1.343,0,0,1-1.207-1.4c-.108-1.034-.264-2.122-.474-3.326a.367.367,0,1,1,.723-.127c.213,1.221.371,2.326.481,3.376.061.581.22.7.576.744a11.359,11.359,0,0,0,2.3-.018l.393-.028a27.63,27.63,0,0,0,5.378-.913.367.367,0,0,1,.193.708,28.359,28.359,0,0,1-5.521.937l-.389.028c-.488.036-.987.073-1.48.073" transform="translate(-280.244 -641.095)" fill="#3c3a73"/>
      </g>
    </g>
    <path id="Trazado_227048" data-name="Trazado 227048" d="M377.138,60.206a.585.585,0,0,0,.285-1.1,40.615,40.615,0,0,1-12.007-10.2,26.916,26.916,0,0,0,4.663-9.3q.578-.421,1.131-.875,2.085-.1,4.169-.3a2.84,2.84,0,0,0,2.383-1.144,2.2,2.2,0,0,0-.6-2.639,5.238,5.238,0,0,0-2.164-.98H375a3.406,3.406,0,0,0-.042-1.179c-.316-1.466-1.547-2.605-3.763-3.482q-1.111-.44-2.258-.771l.126-.128a6.977,6.977,0,0,0,1.719-3.159,4.9,4.9,0,0,0,2.072-.852c2.222-1.617,2.332-4.859,1.155-7.059-1.252-2.34-3.586-3.734-5.48-4.687a34.919,34.919,0,0,0-14-3.62,46.617,46.617,0,0,0-5.921-5.159c-2-1.459-5.056-3.416-8.487-3.564-3.01-.127-6.706,1.535-7.639,4.875a7.4,7.4,0,0,0,1.314,6.132,12.231,12.231,0,0,0,2.167,2.3,11.668,11.668,0,0,0-1.393,1.218A8.236,8.236,0,0,0,332.1,21.3a9.533,9.533,0,0,0,3.376,5.557,21.356,21.356,0,0,0,9.06,4.714,2.493,2.493,0,0,0-1.128,1.651,2.14,2.14,0,0,0-.005.62c-1.5,1.353-2.1,2.677-1.779,3.938s1.55,2.175,3.373,2.535a11.965,11.965,0,0,0,1.2.173q-.257.471-.511.951a20.593,20.593,0,0,0-2.79,8.075c-.221,3.309,1.187,6.358,3.585,7.767,3.273,1.923,7.355.446,9.5-.606a26.975,26.975,0,0,0,8.691-6.836,41.788,41.788,0,0,0,12.189,10.292.579.579,0,0,0,.284.074M363.929,48.9a25.83,25.83,0,0,1-8.471,6.728c-1.931.948-5.588,2.292-8.389.647a7.092,7.092,0,0,1-3.011-6.681,19.6,19.6,0,0,1,2.656-7.6q.39-.736.784-1.448a16.464,16.464,0,0,0,7.971-2.464q2.141.283,4.292.461a8.869,8.869,0,0,0,.58,4.3,24.776,24.776,0,0,1-8,.594.585.585,0,0,0-.106,1.165,25.947,25.947,0,0,0,8.564-.667,20.083,20.083,0,0,0,1.387,2.484q.828,1.277,1.747,2.488m4.611-8.248a25.877,25.877,0,0,1-3.862,7.3q-.793-1.062-1.514-2.175a19.35,19.35,0,0,1-1.223-2.158,26.68,26.68,0,0,0,6.6-2.966m.514-1.745a25.409,25.409,0,0,1-7.578,3.629,7.741,7.741,0,0,1-.545-3.907q4.063.282,8.146.184c-.007.032-.015.064-.023.094m-20.746-2.082q-.753,1.231-1.49,2.537a10.731,10.731,0,0,1-1.6-.192c-.645-.127-2.177-.546-2.467-1.678-.19-.743.2-1.594,1.166-2.534a5.431,5.431,0,0,0,2.842,1.515q.771.183,1.545.351m5.215.973a14.758,14.758,0,0,1-5.347,1.543q.668-1.162,1.348-2.26,1.993.405,4,.717m15.787-.161q-4.038.108-8.063-.159c.014-.034.028-.069.043-.1a6.933,6.933,0,0,1,5.852-3.694,12.2,12.2,0,0,1,2.078-.007,10.013,10.013,0,0,1,.09,3.963m1.455-.051-.261.011a11.076,11.076,0,0,0-.057-3.779,30.313,30.313,0,0,1,3.082.67,7.353,7.353,0,0,1-1.514,1.962q-.606.59-1.25,1.135m3.909-2.791.025.006a4.279,4.279,0,0,1,1.7.729,1.049,1.049,0,0,1,.352,1.179c-.224.391-.874.5-1.48.561q-1.319.127-2.64.213l.2-.2a8.173,8.173,0,0,0,1.842-2.493m-6.5-2.33c-.38,0-.761.016-1.141.051-3.12.291-5.8,2.017-6.819,4.4-.067.156-.128.315-.182.476q-1.507-.121-3.009-.3a31.972,31.972,0,0,0,3.412-2.715,19.727,19.727,0,0,0,2.809-3.044,16.1,16.1,0,0,0,2.929-1.126,5.174,5.174,0,0,1,1.579.953,4.644,4.644,0,0,1,1.013,1.316q-.295-.013-.59-.013m-6.783-.689a23.022,23.022,0,0,1-1.742,1.738,29.4,29.4,0,0,1-4.426,3.352q-2.524-.347-5.031-.842,1.172-1.82,2.383-3.457a47.053,47.053,0,0,0,6.49-.416c.741-.1,1.525-.217,2.325-.376m-10.236.754q-1.112,1.545-2.19,3.242-.968-.207-1.933-.435a4.269,4.269,0,0,1-2.232-1.147,24.37,24.37,0,0,1,2.814-1.993,35.005,35.005,0,0,0,3.541.333m16.713-3.37a24.149,24.149,0,0,1,2.894.938c1.826.723,2.823,1.586,3.05,2.641a2.2,2.2,0,0,1,.042.626,29.2,29.2,0,0,0-3.765-.774,5.932,5.932,0,0,0-1.555-2.3,6.015,6.015,0,0,0-1.134-.8q.239-.159.469-.332m-5.345,1.159a29.443,29.443,0,0,1-3.61.673,46.863,46.863,0,0,1-5.446.4q.577-.739,1.164-1.439a43.324,43.324,0,0,1,7.624-.4c.233.008.47.019.708.034-.135.248-.282.491-.439.728m-9.635-.078q-.449.563-.891,1.148c-.874-.02-1.758-.07-2.645-.157q.415-.21.838-.4,1.341-.337,2.7-.586m-3.075-.525q-1.792.454-3.553,1.059a20.865,20.865,0,0,1-10-4.782,8.416,8.416,0,0,1-3-4.858,7.065,7.065,0,0,1,2.154-5.786,10.748,10.748,0,0,1,1.516-1.286c.5.367,1.011.7,1.5,1.009,6.414,4.067,13.7,6.354,21.339,8.144A43.339,43.339,0,0,0,354.775,28a27.914,27.914,0,0,0-4.961,1.712m14.541.021-.185.07.044-.091.141.021m1.935-.927q-.106.063-.214.124a10.279,10.279,0,0,0-1.417-.333l.013-.042q.813.1,1.617.251m-2.811-.369-.006.015c-.4-.034-.793-.054-1.178-.068q-.482-.017-.963-.024c.719-.005,1.433.022,2.147.076m6.064-3.387a5.763,5.763,0,0,1-1.324,2.245,8.487,8.487,0,0,1-.631.59,26.726,26.726,0,0,0-2.652-.474,8.379,8.379,0,0,0-.141-3.088l1.533.319a16.1,16.1,0,0,0,3.2.408Zm-8.068,2.144a28.277,28.277,0,0,0-4.733.4,40.445,40.445,0,0,1,4.478-4.047q1.145.258,2.3.5a7.539,7.539,0,0,1,.255,3.222c0,.005,0,.01,0,.015-.763-.064-1.53-.1-2.3-.1m8.291-3.32a13.865,13.865,0,0,1-3.2-.378q-1.07-.22-2.134-.446c-.159-.458-.344-.909-.547-1.35a7.122,7.122,0,0,1,1.937-.809,3.486,3.486,0,0,1,3.036.561,2.654,2.654,0,0,1,.912,1.98,4.126,4.126,0,0,1,0,.442M355.7,9.977A33.6,33.6,0,0,1,368,13.4c1.739.875,3.877,2.143,4.974,4.193.92,1.721.872,4.336-.812,5.561a3.6,3.6,0,0,1-1.222.564c0-.115,0-.228-.005-.34a3.827,3.827,0,0,0-1.325-2.814,4.655,4.655,0,0,0-4.057-.808,8.138,8.138,0,0,0-2.193.9c-.307-.578-.635-1.138-.964-1.676a59.461,59.461,0,0,0-6.7-9m7.186,12.356q.094.211.182.423l-.6-.132.225-.158.194-.134m-.518-1.062q-.174.117-.344.235-.542.378-1.077.778c-7.87-1.8-15.372-4.067-21.9-8.205-.346-.219-.7-.451-1.058-.7a21.063,21.063,0,0,1,3.1-1.427,33.624,33.624,0,0,1,12.916-2.074,57.4,57.4,0,0,1,7.392,9.706c.332.541.662,1.106.968,1.687M352.832,8.691a34.655,34.655,0,0,0-12.15,2.167,21.14,21.14,0,0,0-3.709,1.768,11.407,11.407,0,0,1-2.223-2.288,6.227,6.227,0,0,1-1.142-5.14c.77-2.759,3.891-4.125,6.461-4.021,3.114.134,5.97,1.971,7.848,3.34a44.852,44.852,0,0,1,4.918,4.175Z" transform="translate(-8068.875 -4680.514)" fill="#3c3a73"/>
  </g>
</svg>
