<svg xmlns="http://www.w3.org/2000/svg" xmlns:xlink="http://www.w3.org/1999/xlink" width="295" height="283.745" viewBox="0 0 295 283.745">
  <defs>
    <clipPath id="clip-path">
      <rect id="Rect치ngulo_52193" data-name="Rect치ngulo 52193" width="286.862" height="243.52" fill="#8c5be1"/>
    </clipPath>
    <clipPath id="clip-path-2">
      <rect id="Rect치ngulo_57739" data-name="Rect치ngulo 57739" width="285.995" height="194.648" fill="none"/>
    </clipPath>
  </defs>
  <g id="Grupo_177823" data-name="Grupo 177823" transform="translate(8869 3305)">
    <g id="Grupo_177818" data-name="Grupo 177818" transform="translate(-1070)">
      <g id="Grupo_177798" data-name="Grupo 177798" transform="translate(-7799 -3305)">
        <g id="Grupo_169303" data-name="Grupo 169303" transform="translate(8.138 0)">
          <g id="Grupo_168636" data-name="Grupo 168636" transform="translate(0 0)" clip-path="url(#clip-path)">
            <path id="Trazado_211592" data-name="Trazado 211592" d="M205.743,205.85S356.916,92.471,254.651,62.459,46.789-42.028,19,31.335s47.8,104.487,12.227,144.5S75.69,288.105,205.743,205.85" transform="translate(-3.294 0)" fill="#8c5be1"/>
          </g>
        </g>
        <g id="Grupo_169306" data-name="Grupo 169306" transform="translate(63.931 283.745) rotate(-90)">
          <circle id="Elipse_5566" data-name="Elipse 5566" cx="49.221" cy="49.221" r="49.221" transform="translate(87.898 69.61) rotate(-45)" fill="#def2f4"/>
          <ellipse id="Elipse_5567" data-name="Elipse 5567" cx="79.045" cy="79.045" rx="79.045" ry="79.045" transform="translate(0 81.374) rotate(-22.5)" fill="#fff"/>
          <g id="Grupo_152550" data-name="Grupo 152550" transform="translate(6.478 9.987)">
            <ellipse id="Elipse_5568" data-name="Elipse 5568" cx="0.055" cy="0.055" rx="0.055" ry="0.055" transform="translate(50.567 160.054)" fill="#e8e8e8"/>
            <path id="Trazado_193815" data-name="Trazado 193815" d="M.469,0A.469.469,0,1,1,0,.469.469.469,0,0,1,.469,0Z" transform="translate(60.107 159.64)" fill="#e8e8e8"/>
            <path id="Trazado_193816" data-name="Trazado 193816" d="M.8,0A.8.8,0,1,1,0,.8.8.8,0,0,1,.8,0Z" transform="translate(69.729 159.308)" fill="#e8e8e8"/>
            <ellipse id="Elipse_5569" data-name="Elipse 5569" cx="0.856" cy="0.856" rx="0.856" ry="0.856" transform="translate(79.627 159.253)" fill="#e8e8e8"/>
            <path id="Trazado_193817" data-name="Trazado 193817" d="M.8,0A.8.8,0,1,1,0,.8.8.8,0,0,1,.8,0Z" transform="translate(89.635 159.308)" fill="#e8e8e8"/>
            <path id="Trazado_193818" data-name="Trazado 193818" d="M.441,0A.441.441,0,1,1,0,.441.44.44,0,0,1,.441,0Z" transform="translate(99.948 159.668)" fill="#e8e8e8"/>
            <ellipse id="Elipse_5570" data-name="Elipse 5570" cx="0.028" cy="0.028" rx="0.028" ry="0.028" transform="translate(110.315 160.081)" fill="#e8e8e8"/>
            <ellipse id="Elipse_5571" data-name="Elipse 5571" cx="0.028" cy="0.028" rx="0.028" ry="0.028" transform="translate(30.688 150.128)" fill="#e8e8e8"/>
            <path id="Trazado_193819" data-name="Trazado 193819" d="M.828,0A.828.828,0,1,1,0,.828.829.829,0,0,1,.828,0Z" transform="translate(39.841 149.327)" fill="#e8e8e8"/>
            <path id="Trazado_193820" data-name="Trazado 193820" d="M1.685,0A1.685,1.685,0,1,1,0,1.684,1.684,1.684,0,0,1,1.685,0Z" transform="translate(48.938 148.471)" fill="#e8e8e8"/>
            <ellipse id="Elipse_5572" data-name="Elipse 5572" cx="1.877" cy="1.877" rx="1.877" ry="1.877" transform="translate(58.699 148.279)" fill="#e8e8e8"/>
            <ellipse id="Elipse_5573" data-name="Elipse 5573" cx="1.877" cy="1.877" rx="1.877" ry="1.877" transform="translate(68.652 148.279)" fill="#e8e8e8"/>
            <path id="Trazado_193821" data-name="Trazado 193821" d="M1.877,0A1.877,1.877,0,1,1,0,1.877,1.878,1.878,0,0,1,1.877,0Z" transform="translate(78.605 148.278)" fill="#e8e8e8"/>
            <path id="Trazado_193822" data-name="Trazado 193822" d="M1.877,0A1.877,1.877,0,1,1,0,1.877,1.878,1.878,0,0,1,1.877,0Z" transform="translate(88.558 148.278)" fill="#e8e8e8"/>
            <path id="Trazado_193823" data-name="Trazado 193823" d="M1.877,0A1.877,1.877,0,1,1,0,1.877,1.878,1.878,0,0,1,1.877,0Z" transform="translate(98.512 148.278)" fill="#e8e8e8"/>
            <path id="Trazado_193824" data-name="Trazado 193824" d="M1.657,0A1.657,1.657,0,1,1,0,1.657,1.658,1.658,0,0,1,1.657,0Z" transform="translate(108.685 148.499)" fill="#e8e8e8"/>
            <path id="Trazado_193825" data-name="Trazado 193825" d="M.773,0A.773.773,0,1,1,0,.773.772.772,0,0,1,.773,0Z" transform="translate(119.522 149.383)" fill="#e8e8e8"/>
            <ellipse id="Elipse_5574" data-name="Elipse 5574" cx="0.028" cy="0.028" rx="0.028" ry="0.028" transform="translate(130.221 150.128)" fill="#e8e8e8"/>
            <path id="Trazado_193826" data-name="Trazado 193826" d="M.139,0A.137.137,0,0,1,.276.137.138.138,0,1,1,.139,0Z" transform="translate(20.624 140.065)" fill="#e8e8e8"/>
            <path id="Trazado_193827" data-name="Trazado 193827" d="M1.353,0A1.353,1.353,0,1,1,0,1.353,1.353,1.353,0,0,1,1.353,0Z" transform="translate(29.363 138.849)" fill="#e8e8e8"/>
            <ellipse id="Elipse_5575" data-name="Elipse 5575" cx="1.877" cy="1.877" rx="1.877" ry="1.877" transform="translate(38.792 138.325)" fill="#e8e8e8"/>
            <ellipse id="Elipse_5576" data-name="Elipse 5576" cx="1.877" cy="1.877" rx="1.877" ry="1.877" transform="translate(48.745 138.325)" fill="#e8e8e8"/>
            <ellipse id="Elipse_5577" data-name="Elipse 5577" cx="1.877" cy="1.877" rx="1.877" ry="1.877" transform="translate(58.699 138.325)" fill="#e8e8e8"/>
            <ellipse id="Elipse_5578" data-name="Elipse 5578" cx="1.877" cy="1.877" rx="1.877" ry="1.877" transform="translate(68.652 138.325)" fill="#e8e8e8"/>
            <path id="Trazado_193828" data-name="Trazado 193828" d="M1.877,0A1.877,1.877,0,1,1,0,1.877,1.878,1.878,0,0,1,1.877,0Z" transform="translate(78.605 138.325)" fill="#e8e8e8"/>
            <path id="Trazado_193829" data-name="Trazado 193829" d="M1.877,0A1.877,1.877,0,1,1,0,1.877,1.878,1.878,0,0,1,1.877,0Z" transform="translate(88.558 138.325)" fill="#e8e8e8"/>
            <path id="Trazado_193830" data-name="Trazado 193830" d="M1.877,0A1.877,1.877,0,1,1,0,1.877,1.878,1.878,0,0,1,1.877,0Z" transform="translate(98.512 138.325)" fill="#e8e8e8"/>
            <path id="Trazado_193831" data-name="Trazado 193831" d="M1.877,0A1.877,1.877,0,1,1,0,1.877,1.878,1.878,0,0,1,1.877,0Z" transform="translate(108.465 138.325)" fill="#e8e8e8"/>
            <path id="Trazado_193832" data-name="Trazado 193832" d="M1.877,0A1.877,1.877,0,1,1,0,1.877,1.878,1.878,0,0,1,1.877,0Z" transform="translate(118.418 138.325)" fill="#e8e8e8"/>
            <path id="Trazado_193833" data-name="Trazado 193833" d="M1.325,0A1.325,1.325,0,1,1,0,1.325,1.325,1.325,0,0,1,1.325,0Z" transform="translate(128.923 138.877)" fill="#e8e8e8"/>
            <path id="Trazado_193834" data-name="Trazado 193834" d="M.081,0a.083.083,0,1,1,0,.167A.084.084,0,0,1,.081,0Z" transform="translate(140.12 140.119)" fill="#e8e8e8"/>
            <ellipse id="Elipse_5579" data-name="Elipse 5579" cx="0.028" cy="0.028" rx="0.028" ry="0.028" transform="translate(10.781 130.221)" fill="#e8e8e8"/>
            <path id="Trazado_193835" data-name="Trazado 193835" d="M1.353,0A1.353,1.353,0,1,1,0,1.353,1.351,1.351,0,0,1,1.353,0Z" transform="translate(19.41 128.896)" fill="#e8e8e8"/>
            <ellipse id="Elipse_5580" data-name="Elipse 5580" cx="1.877" cy="1.877" rx="1.877" ry="1.877" transform="translate(28.839 128.372)" fill="#e8e8e8"/>
            <ellipse id="Elipse_5581" data-name="Elipse 5581" cx="1.877" cy="1.877" rx="1.877" ry="1.877" transform="translate(38.792 128.372)" fill="#e8e8e8"/>
            <ellipse id="Elipse_5582" data-name="Elipse 5582" cx="1.877" cy="1.877" rx="1.877" ry="1.877" transform="translate(48.745 128.372)" fill="#e8e8e8"/>
            <ellipse id="Elipse_5583" data-name="Elipse 5583" cx="1.877" cy="1.877" rx="1.877" ry="1.877" transform="translate(58.699 128.372)" fill="#e8e8e8"/>
            <ellipse id="Elipse_5584" data-name="Elipse 5584" cx="1.877" cy="1.877" rx="1.877" ry="1.877" transform="translate(68.652 128.372)" fill="#e8e8e8"/>
            <path id="Trazado_193836" data-name="Trazado 193836" d="M1.877,0A1.877,1.877,0,1,1,0,1.877,1.878,1.878,0,0,1,1.877,0Z" transform="translate(78.605 128.372)" fill="#e8e8e8"/>
            <path id="Trazado_193837" data-name="Trazado 193837" d="M1.877,0A1.877,1.877,0,1,1,0,1.877,1.878,1.878,0,0,1,1.877,0Z" transform="translate(88.558 128.372)" fill="#e8e8e8"/>
            <path id="Trazado_193838" data-name="Trazado 193838" d="M1.877,0A1.877,1.877,0,1,1,0,1.877,1.878,1.878,0,0,1,1.877,0Z" transform="translate(98.512 128.372)" fill="#e8e8e8"/>
            <path id="Trazado_193839" data-name="Trazado 193839" d="M1.877,0A1.877,1.877,0,1,1,0,1.877,1.878,1.878,0,0,1,1.877,0Z" transform="translate(108.465 128.372)" fill="#e8e8e8"/>
            <path id="Trazado_193840" data-name="Trazado 193840" d="M1.877,0A1.877,1.877,0,1,1,0,1.877,1.878,1.878,0,0,1,1.877,0Z" transform="translate(118.418 128.372)" fill="#e8e8e8"/>
            <path id="Trazado_193841" data-name="Trazado 193841" d="M1.877,0A1.877,1.877,0,1,1,0,1.877,1.878,1.878,0,0,1,1.877,0Z" transform="translate(128.371 128.372)" fill="#e8e8e8"/>
            <path id="Trazado_193842" data-name="Trazado 193842" d="M1.325,0A1.325,1.325,0,1,1,0,1.325,1.325,1.325,0,0,1,1.325,0Z" transform="translate(138.877 128.924)" fill="#e8e8e8"/>
            <ellipse id="Elipse_5585" data-name="Elipse 5585" cx="0.028" cy="0.028" rx="0.028" ry="0.028" transform="translate(150.128 130.221)" fill="#e8e8e8"/>
            <path id="Trazado_193843" data-name="Trazado 193843" d="M.828,0A.828.828,0,1,1,0,.828.827.827,0,0,1,.828,0Z" transform="translate(9.981 119.467)" fill="#e8e8e8"/>
            <ellipse id="Elipse_5586" data-name="Elipse 5586" cx="1.877" cy="1.877" rx="1.877" ry="1.877" transform="translate(18.885 118.419)" fill="#e8e8e8"/>
            <ellipse id="Elipse_5587" data-name="Elipse 5587" cx="1.877" cy="1.877" rx="1.877" ry="1.877" transform="translate(28.839 118.419)" fill="#e8e8e8"/>
            <ellipse id="Elipse_5588" data-name="Elipse 5588" cx="1.877" cy="1.877" rx="1.877" ry="1.877" transform="translate(38.792 118.419)" fill="#e8e8e8"/>
            <ellipse id="Elipse_5589" data-name="Elipse 5589" cx="1.877" cy="1.877" rx="1.877" ry="1.877" transform="translate(48.745 118.419)" fill="#e8e8e8"/>
            <ellipse id="Elipse_5590" data-name="Elipse 5590" cx="1.877" cy="1.877" rx="1.877" ry="1.877" transform="translate(58.699 118.419)" fill="#e8e8e8"/>
            <ellipse id="Elipse_5591" data-name="Elipse 5591" cx="1.877" cy="1.877" rx="1.877" ry="1.877" transform="translate(68.652 118.419)" fill="#e8e8e8"/>
            <path id="Trazado_193844" data-name="Trazado 193844" d="M1.877,0A1.877,1.877,0,1,1,0,1.877,1.878,1.878,0,0,1,1.877,0Z" transform="translate(78.605 118.419)" fill="#e8e8e8"/>
            <path id="Trazado_193845" data-name="Trazado 193845" d="M1.877,0A1.877,1.877,0,1,1,0,1.877,1.878,1.878,0,0,1,1.877,0Z" transform="translate(88.558 118.419)" fill="#e8e8e8"/>
            <path id="Trazado_193846" data-name="Trazado 193846" d="M1.877,0A1.877,1.877,0,1,1,0,1.877,1.878,1.878,0,0,1,1.877,0Z" transform="translate(98.512 118.419)" fill="#e8e8e8"/>
            <path id="Trazado_193847" data-name="Trazado 193847" d="M1.877,0A1.877,1.877,0,1,1,0,1.877,1.878,1.878,0,0,1,1.877,0Z" transform="translate(108.465 118.419)" fill="#e8e8e8"/>
            <path id="Trazado_193848" data-name="Trazado 193848" d="M1.877,0A1.877,1.877,0,1,1,0,1.877,1.878,1.878,0,0,1,1.877,0Z" transform="translate(118.418 118.419)" fill="#e8e8e8"/>
            <path id="Trazado_193849" data-name="Trazado 193849" d="M1.877,0A1.877,1.877,0,1,1,0,1.877,1.878,1.878,0,0,1,1.877,0Z" transform="translate(128.371 118.419)" fill="#e8e8e8"/>
            <path id="Trazado_193850" data-name="Trazado 193850" d="M1.877,0A1.877,1.877,0,1,1,0,1.877,1.878,1.878,0,0,1,1.877,0Z" transform="translate(138.324 118.419)" fill="#e8e8e8"/>
            <path id="Trazado_193851" data-name="Trazado 193851" d="M.773,0A.773.773,0,1,1,0,.773.772.772,0,0,1,.773,0Z" transform="translate(149.382 119.523)" fill="#e8e8e8"/>
            <ellipse id="Elipse_5592" data-name="Elipse 5592" cx="0.055" cy="0.055" rx="0.055" ry="0.055" transform="translate(0.8 110.287)" fill="#e8e8e8"/>
            <path id="Trazado_193852" data-name="Trazado 193852" d="M1.657,0A1.657,1.657,0,1,1,0,1.657,1.655,1.655,0,0,1,1.657,0Z" transform="translate(9.153 108.686)" fill="#e8e8e8"/>
            <ellipse id="Elipse_5593" data-name="Elipse 5593" cx="1.877" cy="1.877" rx="1.877" ry="1.877" transform="translate(18.885 108.466)" fill="#e8e8e8"/>
            <ellipse id="Elipse_5594" data-name="Elipse 5594" cx="1.877" cy="1.877" rx="1.877" ry="1.877" transform="translate(28.839 108.466)" fill="#e8e8e8"/>
            <ellipse id="Elipse_5595" data-name="Elipse 5595" cx="1.877" cy="1.877" rx="1.877" ry="1.877" transform="translate(38.792 108.466)" fill="#e8e8e8"/>
            <ellipse id="Elipse_5596" data-name="Elipse 5596" cx="1.877" cy="1.877" rx="1.877" ry="1.877" transform="translate(48.745 108.466)" fill="#e8e8e8"/>
            <ellipse id="Elipse_5597" data-name="Elipse 5597" cx="1.877" cy="1.877" rx="1.877" ry="1.877" transform="translate(58.699 108.466)" fill="#e8e8e8"/>
            <ellipse id="Elipse_5598" data-name="Elipse 5598" cx="1.877" cy="1.877" rx="1.877" ry="1.877" transform="translate(68.652 108.466)" fill="#e8e8e8"/>
            <path id="Trazado_193853" data-name="Trazado 193853" d="M1.877,0A1.877,1.877,0,1,1,0,1.877,1.878,1.878,0,0,1,1.877,0Z" transform="translate(78.605 108.465)" fill="#e8e8e8"/>
            <path id="Trazado_193854" data-name="Trazado 193854" d="M1.877,0A1.877,1.877,0,1,1,0,1.877,1.878,1.878,0,0,1,1.877,0Z" transform="translate(88.558 108.465)" fill="#e8e8e8"/>
            <path id="Trazado_193855" data-name="Trazado 193855" d="M1.877,0A1.877,1.877,0,1,1,0,1.877,1.878,1.878,0,0,1,1.877,0Z" transform="translate(98.512 108.465)" fill="#e8e8e8"/>
            <path id="Trazado_193856" data-name="Trazado 193856" d="M1.877,0A1.877,1.877,0,1,1,0,1.877,1.878,1.878,0,0,1,1.877,0Z" transform="translate(108.465 108.465)" fill="#e8e8e8"/>
            <path id="Trazado_193857" data-name="Trazado 193857" d="M1.877,0A1.877,1.877,0,1,1,0,1.877,1.878,1.878,0,0,1,1.877,0Z" transform="translate(118.418 108.465)" fill="#e8e8e8"/>
            <path id="Trazado_193858" data-name="Trazado 193858" d="M1.877,0A1.877,1.877,0,1,1,0,1.877,1.878,1.878,0,0,1,1.877,0Z" transform="translate(128.371 108.465)" fill="#e8e8e8"/>
            <path id="Trazado_193859" data-name="Trazado 193859" d="M1.877,0A1.877,1.877,0,1,1,0,1.877,1.878,1.878,0,0,1,1.877,0Z" transform="translate(138.324 108.465)" fill="#e8e8e8"/>
            <path id="Trazado_193860" data-name="Trazado 193860" d="M1.627,0A1.629,1.629,0,1,1,0,1.629,1.628,1.628,0,0,1,1.627,0Z" transform="translate(148.528 108.714)" fill="#e8e8e8"/>
            <ellipse id="Elipse_5599" data-name="Elipse 5599" cx="0.055" cy="0.055" rx="0.055" ry="0.055" transform="translate(160.054 110.287)" fill="#e8e8e8"/>
            <ellipse id="Elipse_5600" data-name="Elipse 5600" cx="0.469" cy="0.469" rx="0.469" ry="0.469" transform="translate(0.386 99.92)" fill="#e8e8e8"/>
            <ellipse id="Elipse_5601" data-name="Elipse 5601" cx="1.877" cy="1.877" rx="1.877" ry="1.877" transform="translate(8.932 98.512)" fill="#e8e8e8"/>
            <ellipse id="Elipse_5602" data-name="Elipse 5602" cx="1.877" cy="1.877" rx="1.877" ry="1.877" transform="translate(18.885 98.512)" fill="#e8e8e8"/>
            <ellipse id="Elipse_5603" data-name="Elipse 5603" cx="1.877" cy="1.877" rx="1.877" ry="1.877" transform="translate(28.839 98.512)" fill="#e8e8e8"/>
            <ellipse id="Elipse_5604" data-name="Elipse 5604" cx="1.877" cy="1.877" rx="1.877" ry="1.877" transform="translate(38.792 98.512)" fill="#e8e8e8"/>
            <ellipse id="Elipse_5605" data-name="Elipse 5605" cx="1.877" cy="1.877" rx="1.877" ry="1.877" transform="translate(48.745 98.512)" fill="#e8e8e8"/>
            <ellipse id="Elipse_5606" data-name="Elipse 5606" cx="1.877" cy="1.877" rx="1.877" ry="1.877" transform="translate(58.699 98.512)" fill="#e8e8e8"/>
            <ellipse id="Elipse_5607" data-name="Elipse 5607" cx="1.877" cy="1.877" rx="1.877" ry="1.877" transform="translate(68.652 98.512)" fill="#e8e8e8"/>
            <path id="Trazado_193861" data-name="Trazado 193861" d="M1.877,0A1.877,1.877,0,1,1,0,1.877,1.877,1.877,0,0,1,1.877,0Z" transform="translate(78.605 98.512)" fill="#e8e8e8"/>
            <path id="Trazado_193862" data-name="Trazado 193862" d="M1.877,0A1.877,1.877,0,1,1,0,1.877,1.877,1.877,0,0,1,1.877,0Z" transform="translate(88.558 98.512)" fill="#e8e8e8"/>
            <path id="Trazado_193863" data-name="Trazado 193863" d="M1.877,0A1.877,1.877,0,1,1,0,1.877,1.877,1.877,0,0,1,1.877,0Z" transform="translate(98.512 98.512)" fill="#e8e8e8"/>
            <path id="Trazado_193864" data-name="Trazado 193864" d="M1.877,0A1.877,1.877,0,1,1,0,1.877,1.877,1.877,0,0,1,1.877,0Z" transform="translate(108.465 98.512)" fill="#e8e8e8"/>
            <path id="Trazado_193865" data-name="Trazado 193865" d="M1.877,0A1.877,1.877,0,1,1,0,1.877,1.877,1.877,0,0,1,1.877,0Z" transform="translate(118.418 98.512)" fill="#e8e8e8"/>
            <path id="Trazado_193866" data-name="Trazado 193866" d="M1.877,0A1.877,1.877,0,1,1,0,1.877,1.877,1.877,0,0,1,1.877,0Z" transform="translate(128.371 98.512)" fill="#e8e8e8"/>
            <path id="Trazado_193867" data-name="Trazado 193867" d="M1.877,0A1.877,1.877,0,1,1,0,1.877,1.877,1.877,0,0,1,1.877,0Z" transform="translate(138.324 98.512)" fill="#e8e8e8"/>
            <path id="Trazado_193868" data-name="Trazado 193868" d="M1.875,0A1.877,1.877,0,1,1,0,1.877,1.875,1.875,0,0,1,1.875,0Z" transform="translate(148.28 98.512)" fill="#e8e8e8"/>
            <ellipse id="Elipse_5608" data-name="Elipse 5608" cx="0.414" cy="0.414" rx="0.414" ry="0.414" transform="translate(159.695 99.975)" fill="#e8e8e8"/>
            <path id="Trazado_193869" data-name="Trazado 193869" d="M.8,0A.8.8,0,1,1,0,.8.8.8,0,0,1,.8,0Z" transform="translate(0.056 89.636)" fill="#e8e8e8"/>
            <path id="Trazado_193870" data-name="Trazado 193870" d="M1.877,0A1.877,1.877,0,1,1,0,1.877,1.875,1.875,0,0,1,1.877,0Z" transform="translate(8.933 88.559)" fill="#e8e8e8"/>
            <path id="Trazado_193871" data-name="Trazado 193871" d="M1.877,0A1.877,1.877,0,1,1,0,1.877,1.875,1.875,0,0,1,1.877,0Z" transform="translate(18.886 88.559)" fill="#e8e8e8"/>
            <path id="Trazado_193872" data-name="Trazado 193872" d="M1.877,0A1.877,1.877,0,1,1,0,1.877,1.875,1.875,0,0,1,1.877,0Z" transform="translate(28.839 88.559)" fill="#e8e8e8"/>
            <path id="Trazado_193873" data-name="Trazado 193873" d="M1.877,0A1.877,1.877,0,1,1,0,1.877,1.875,1.875,0,0,1,1.877,0Z" transform="translate(38.792 88.559)" fill="#e8e8e8"/>
            <path id="Trazado_193874" data-name="Trazado 193874" d="M1.877,0A1.877,1.877,0,1,1,0,1.877,1.877,1.877,0,0,1,1.877,0Z" transform="translate(48.745 88.559)" fill="#e8e8e8"/>
            <path id="Trazado_193875" data-name="Trazado 193875" d="M1.877,0A1.877,1.877,0,1,1,0,1.877,1.877,1.877,0,0,1,1.877,0Z" transform="translate(58.699 88.559)" fill="#e8e8e8"/>
            <path id="Trazado_193876" data-name="Trazado 193876" d="M1.877,0A1.877,1.877,0,1,1,0,1.877,1.877,1.877,0,0,1,1.877,0Z" transform="translate(68.652 88.559)" fill="#e8e8e8"/>
            <path id="Trazado_193877" data-name="Trazado 193877" d="M1.877,0A1.877,1.877,0,1,1,0,1.877,1.877,1.877,0,0,1,1.877,0Z" transform="translate(78.605 88.559)" fill="#e8e8e8"/>
            <path id="Trazado_193878" data-name="Trazado 193878" d="M1.877,0A1.877,1.877,0,1,1,0,1.877,1.877,1.877,0,0,1,1.877,0Z" transform="translate(88.558 88.559)" fill="#e8e8e8"/>
            <path id="Trazado_193879" data-name="Trazado 193879" d="M1.877,0A1.877,1.877,0,1,1,0,1.877,1.877,1.877,0,0,1,1.877,0Z" transform="translate(98.512 88.559)" fill="#e8e8e8"/>
            <path id="Trazado_193880" data-name="Trazado 193880" d="M1.877,0A1.877,1.877,0,1,1,0,1.877,1.877,1.877,0,0,1,1.877,0Z" transform="translate(108.465 88.559)" fill="#e8e8e8"/>
            <path id="Trazado_193881" data-name="Trazado 193881" d="M1.877,0A1.877,1.877,0,1,1,0,1.877,1.877,1.877,0,0,1,1.877,0Z" transform="translate(118.418 88.559)" fill="#e8e8e8"/>
            <path id="Trazado_193882" data-name="Trazado 193882" d="M1.877,0A1.877,1.877,0,1,1,0,1.877,1.877,1.877,0,0,1,1.877,0Z" transform="translate(128.371 88.559)" fill="#e8e8e8"/>
            <path id="Trazado_193883" data-name="Trazado 193883" d="M1.877,0A1.877,1.877,0,1,1,0,1.877,1.877,1.877,0,0,1,1.877,0Z" transform="translate(138.324 88.559)" fill="#e8e8e8"/>
            <path id="Trazado_193884" data-name="Trazado 193884" d="M1.875,0A1.877,1.877,0,1,1,0,1.877,1.875,1.875,0,0,1,1.875,0Z" transform="translate(148.28 88.559)" fill="#e8e8e8"/>
            <path id="Trazado_193885" data-name="Trazado 193885" d="M.773,0A.773.773,0,1,1,0,.773.771.771,0,0,1,.773,0Z" transform="translate(159.335 89.663)" fill="#e8e8e8"/>
            <ellipse id="Elipse_5609" data-name="Elipse 5609" cx="0.856" cy="0.856" rx="0.856" ry="0.856" transform="translate(0 79.627)" fill="#e8e8e8"/>
            <path id="Trazado_193886" data-name="Trazado 193886" d="M1.877,0A1.877,1.877,0,1,1,0,1.877,1.875,1.875,0,0,1,1.877,0Z" transform="translate(8.933 78.606)" fill="#e8e8e8"/>
            <path id="Trazado_193887" data-name="Trazado 193887" d="M1.877,0A1.877,1.877,0,1,1,0,1.877,1.875,1.875,0,0,1,1.877,0Z" transform="translate(18.886 78.606)" fill="#e8e8e8"/>
            <path id="Trazado_193888" data-name="Trazado 193888" d="M1.877,0A1.877,1.877,0,1,1,0,1.877,1.875,1.875,0,0,1,1.877,0Z" transform="translate(28.839 78.606)" fill="#e8e8e8"/>
            <path id="Trazado_193889" data-name="Trazado 193889" d="M1.877,0A1.877,1.877,0,1,1,0,1.877,1.875,1.875,0,0,1,1.877,0Z" transform="translate(38.792 78.606)" fill="#e8e8e8"/>
            <path id="Trazado_193890" data-name="Trazado 193890" d="M1.877,0A1.877,1.877,0,1,1,0,1.877,1.877,1.877,0,0,1,1.877,0Z" transform="translate(48.745 78.606)" fill="#e8e8e8"/>
            <path id="Trazado_193891" data-name="Trazado 193891" d="M1.877,0A1.877,1.877,0,1,1,0,1.877,1.877,1.877,0,0,1,1.877,0Z" transform="translate(58.699 78.606)" fill="#e8e8e8"/>
            <path id="Trazado_193892" data-name="Trazado 193892" d="M1.877,0A1.877,1.877,0,1,1,0,1.877,1.877,1.877,0,0,1,1.877,0Z" transform="translate(68.652 78.606)" fill="#e8e8e8"/>
            <path id="Trazado_193893" data-name="Trazado 193893" d="M1.877,0A1.877,1.877,0,1,1,0,1.877,1.877,1.877,0,0,1,1.877,0Z" transform="translate(78.605 78.606)" fill="#e8e8e8"/>
            <path id="Trazado_193894" data-name="Trazado 193894" d="M1.877,0A1.877,1.877,0,1,1,0,1.877,1.877,1.877,0,0,1,1.877,0Z" transform="translate(88.558 78.606)" fill="#e8e8e8"/>
            <path id="Trazado_193895" data-name="Trazado 193895" d="M1.877,0A1.877,1.877,0,1,1,0,1.877,1.877,1.877,0,0,1,1.877,0Z" transform="translate(98.512 78.606)" fill="#e8e8e8"/>
            <path id="Trazado_193896" data-name="Trazado 193896" d="M1.877,0A1.877,1.877,0,1,1,0,1.877,1.877,1.877,0,0,1,1.877,0Z" transform="translate(108.465 78.606)" fill="#e8e8e8"/>
            <path id="Trazado_193897" data-name="Trazado 193897" d="M1.877,0A1.877,1.877,0,1,1,0,1.877,1.877,1.877,0,0,1,1.877,0Z" transform="translate(118.418 78.606)" fill="#e8e8e8"/>
            <path id="Trazado_193898" data-name="Trazado 193898" d="M1.877,0A1.877,1.877,0,1,1,0,1.877,1.877,1.877,0,0,1,1.877,0Z" transform="translate(128.371 78.606)" fill="#e8e8e8"/>
            <path id="Trazado_193899" data-name="Trazado 193899" d="M1.877,0A1.877,1.877,0,1,1,0,1.877,1.877,1.877,0,0,1,1.877,0Z" transform="translate(138.324 78.606)" fill="#e8e8e8"/>
            <path id="Trazado_193900" data-name="Trazado 193900" d="M1.875,0A1.877,1.877,0,1,1,0,1.877,1.875,1.875,0,0,1,1.875,0Z" transform="translate(148.28 78.606)" fill="#e8e8e8"/>
            <path id="Trazado_193901" data-name="Trazado 193901" d="M.854,0A.855.855,0,1,1,0,.856.856.856,0,0,1,.854,0Z" transform="translate(159.254 79.627)" fill="#e8e8e8"/>
            <path id="Trazado_193902" data-name="Trazado 193902" d="M.8,0A.8.8,0,1,1,0,.8.8.8,0,0,1,.8,0Z" transform="translate(0.056 69.729)" fill="#e8e8e8"/>
            <path id="Trazado_193903" data-name="Trazado 193903" d="M1.877,0A1.876,1.876,0,1,1,0,1.877,1.875,1.875,0,0,1,1.877,0Z" transform="translate(8.933 68.652)" fill="#e8e8e8"/>
            <path id="Trazado_193904" data-name="Trazado 193904" d="M1.877,0A1.876,1.876,0,1,1,0,1.877,1.875,1.875,0,0,1,1.877,0Z" transform="translate(18.886 68.652)" fill="#e8e8e8"/>
            <path id="Trazado_193905" data-name="Trazado 193905" d="M1.877,0A1.876,1.876,0,1,1,0,1.877,1.875,1.875,0,0,1,1.877,0Z" transform="translate(28.839 68.652)" fill="#e8e8e8"/>
            <path id="Trazado_193906" data-name="Trazado 193906" d="M1.877,0A1.876,1.876,0,1,1,0,1.877,1.875,1.875,0,0,1,1.877,0Z" transform="translate(38.792 68.652)" fill="#e8e8e8"/>
            <path id="Trazado_193907" data-name="Trazado 193907" d="M1.877,0A1.876,1.876,0,1,1,0,1.877,1.877,1.877,0,0,1,1.877,0Z" transform="translate(48.745 68.652)" fill="#e8e8e8"/>
            <path id="Trazado_193908" data-name="Trazado 193908" d="M1.877,0A1.876,1.876,0,1,1,0,1.877,1.877,1.877,0,0,1,1.877,0Z" transform="translate(58.699 68.652)" fill="#e8e8e8"/>
            <path id="Trazado_193909" data-name="Trazado 193909" d="M1.877,0A1.876,1.876,0,1,1,0,1.877,1.877,1.877,0,0,1,1.877,0Z" transform="translate(68.652 68.652)" fill="#e8e8e8"/>
            <path id="Trazado_193910" data-name="Trazado 193910" d="M1.877,0A1.876,1.876,0,1,1,0,1.877,1.877,1.877,0,0,1,1.877,0Z" transform="translate(78.605 68.652)" fill="#e8e8e8"/>
            <path id="Trazado_193911" data-name="Trazado 193911" d="M1.877,0A1.876,1.876,0,1,1,0,1.877,1.877,1.877,0,0,1,1.877,0Z" transform="translate(88.558 68.652)" fill="#e8e8e8"/>
            <path id="Trazado_193912" data-name="Trazado 193912" d="M1.877,0A1.876,1.876,0,1,1,0,1.877,1.877,1.877,0,0,1,1.877,0Z" transform="translate(98.512 68.652)" fill="#e8e8e8"/>
            <path id="Trazado_193913" data-name="Trazado 193913" d="M1.877,0A1.876,1.876,0,1,1,0,1.877,1.877,1.877,0,0,1,1.877,0Z" transform="translate(108.465 68.652)" fill="#e8e8e8"/>
            <path id="Trazado_193914" data-name="Trazado 193914" d="M1.877,0A1.876,1.876,0,1,1,0,1.877,1.877,1.877,0,0,1,1.877,0Z" transform="translate(118.418 68.652)" fill="#e8e8e8"/>
            <path id="Trazado_193915" data-name="Trazado 193915" d="M1.877,0A1.876,1.876,0,1,1,0,1.877,1.877,1.877,0,0,1,1.877,0Z" transform="translate(128.371 68.652)" fill="#e8e8e8"/>
            <path id="Trazado_193916" data-name="Trazado 193916" d="M1.877,0A1.876,1.876,0,1,1,0,1.877,1.877,1.877,0,0,1,1.877,0Z" transform="translate(138.324 68.652)" fill="#e8e8e8"/>
            <path id="Trazado_193917" data-name="Trazado 193917" d="M1.875,0A1.876,1.876,0,1,1,0,1.877,1.875,1.875,0,0,1,1.875,0Z" transform="translate(148.28 68.652)" fill="#e8e8e8"/>
            <path id="Trazado_193918" data-name="Trazado 193918" d="M.745,0A.745.745,0,1,1,0,.745.745.745,0,0,1,.745,0Z" transform="translate(159.363 69.785)" fill="#e8e8e8"/>
            <ellipse id="Elipse_5610" data-name="Elipse 5610" cx="0.442" cy="0.442" rx="0.442" ry="0.442" transform="translate(0.414 60.134)" fill="#e8e8e8"/>
            <path id="Trazado_193919" data-name="Trazado 193919" d="M1.877,0A1.876,1.876,0,1,1,0,1.877,1.875,1.875,0,0,1,1.877,0Z" transform="translate(8.933 58.699)" fill="#e8e8e8"/>
            <path id="Trazado_193920" data-name="Trazado 193920" d="M1.877,0A1.876,1.876,0,1,1,0,1.877,1.875,1.875,0,0,1,1.877,0Z" transform="translate(18.886 58.699)" fill="#e8e8e8"/>
            <path id="Trazado_193921" data-name="Trazado 193921" d="M1.877,0A1.876,1.876,0,1,1,0,1.877,1.875,1.875,0,0,1,1.877,0Z" transform="translate(28.839 58.699)" fill="#e8e8e8"/>
            <path id="Trazado_193922" data-name="Trazado 193922" d="M1.877,0A1.876,1.876,0,1,1,0,1.877,1.875,1.875,0,0,1,1.877,0Z" transform="translate(38.792 58.699)" fill="#e8e8e8"/>
            <path id="Trazado_193923" data-name="Trazado 193923" d="M1.877,0A1.876,1.876,0,1,1,0,1.877,1.877,1.877,0,0,1,1.877,0Z" transform="translate(48.745 58.699)" fill="#e8e8e8"/>
            <path id="Trazado_193924" data-name="Trazado 193924" d="M1.877,0A1.876,1.876,0,1,1,0,1.877,1.877,1.877,0,0,1,1.877,0Z" transform="translate(58.699 58.699)" fill="#e8e8e8"/>
            <path id="Trazado_193925" data-name="Trazado 193925" d="M1.877,0A1.876,1.876,0,1,1,0,1.877,1.877,1.877,0,0,1,1.877,0Z" transform="translate(68.652 58.699)" fill="#e8e8e8"/>
            <path id="Trazado_193926" data-name="Trazado 193926" d="M1.877,0A1.876,1.876,0,1,1,0,1.877,1.877,1.877,0,0,1,1.877,0Z" transform="translate(78.605 58.699)" fill="#e8e8e8"/>
            <path id="Trazado_193927" data-name="Trazado 193927" d="M1.877,0A1.876,1.876,0,1,1,0,1.877,1.877,1.877,0,0,1,1.877,0Z" transform="translate(88.558 58.699)" fill="#e8e8e8"/>
            <path id="Trazado_193928" data-name="Trazado 193928" d="M1.877,0A1.876,1.876,0,1,1,0,1.877,1.877,1.877,0,0,1,1.877,0Z" transform="translate(98.512 58.699)" fill="#e8e8e8"/>
            <path id="Trazado_193929" data-name="Trazado 193929" d="M1.877,0A1.876,1.876,0,1,1,0,1.877,1.877,1.877,0,0,1,1.877,0Z" transform="translate(108.465 58.699)" fill="#e8e8e8"/>
            <path id="Trazado_193930" data-name="Trazado 193930" d="M1.877,0A1.876,1.876,0,1,1,0,1.877,1.877,1.877,0,0,1,1.877,0Z" transform="translate(118.418 58.699)" fill="#e8e8e8"/>
            <path id="Trazado_193931" data-name="Trazado 193931" d="M1.877,0A1.876,1.876,0,1,1,0,1.877,1.877,1.877,0,0,1,1.877,0Z" transform="translate(128.371 58.699)" fill="#e8e8e8"/>
            <path id="Trazado_193932" data-name="Trazado 193932" d="M1.877,0A1.876,1.876,0,1,1,0,1.877,1.877,1.877,0,0,1,1.877,0Z" transform="translate(138.324 58.699)" fill="#e8e8e8"/>
            <path id="Trazado_193933" data-name="Trazado 193933" d="M1.875,0A1.876,1.876,0,1,1,0,1.877,1.875,1.875,0,0,1,1.875,0Z" transform="translate(148.28 58.699)" fill="#e8e8e8"/>
            <ellipse id="Elipse_5611" data-name="Elipse 5611" cx="0.414" cy="0.414" rx="0.414" ry="0.414" transform="translate(159.695 60.162)" fill="#e8e8e8"/>
            <ellipse id="Elipse_5612" data-name="Elipse 5612" cx="0.028" cy="0.028" rx="0.028" ry="0.028" transform="translate(0.828 50.595)" fill="#e8e8e8"/>
            <path id="Trazado_193934" data-name="Trazado 193934" d="M1.657,0A1.656,1.656,0,1,1,0,1.655,1.654,1.654,0,0,1,1.657,0Z" transform="translate(9.153 48.967)" fill="#e8e8e8"/>
            <path id="Trazado_193935" data-name="Trazado 193935" d="M1.877,0A1.876,1.876,0,1,1,0,1.875,1.874,1.874,0,0,1,1.877,0Z" transform="translate(18.886 48.746)" fill="#e8e8e8"/>
            <path id="Trazado_193936" data-name="Trazado 193936" d="M1.877,0A1.876,1.876,0,1,1,0,1.875,1.874,1.874,0,0,1,1.877,0" transform="translate(28.839 48.746)" fill="#e8e8e8"/>
            <path id="Trazado_193937" data-name="Trazado 193937" d="M1.877,0A1.876,1.876,0,1,1,0,1.875,1.874,1.874,0,0,1,1.877,0Z" transform="translate(38.792 48.746)" fill="#e8e8e8"/>
            <path id="Trazado_193938" data-name="Trazado 193938" d="M1.877,0A1.876,1.876,0,1,1,0,1.875,1.876,1.876,0,0,1,1.877,0Z" transform="translate(48.745 48.746)" fill="#e8e8e8"/>
            <path id="Trazado_193939" data-name="Trazado 193939" d="M1.877,0A1.876,1.876,0,1,1,0,1.875,1.876,1.876,0,0,1,1.877,0Z" transform="translate(58.699 48.746)" fill="#e8e8e8"/>
            <path id="Trazado_193940" data-name="Trazado 193940" d="M1.877,0A1.876,1.876,0,1,1,0,1.875,1.876,1.876,0,0,1,1.877,0Z" transform="translate(68.652 48.746)" fill="#e8e8e8"/>
            <path id="Trazado_193941" data-name="Trazado 193941" d="M1.877,0A1.876,1.876,0,1,1,0,1.875,1.876,1.876,0,0,1,1.877,0Z" transform="translate(78.605 48.746)" fill="#e8e8e8"/>
            <path id="Trazado_193942" data-name="Trazado 193942" d="M1.877,0A1.876,1.876,0,1,1,0,1.875,1.876,1.876,0,0,1,1.877,0Z" transform="translate(88.558 48.746)" fill="#e8e8e8"/>
            <path id="Trazado_193943" data-name="Trazado 193943" d="M1.877,0A1.876,1.876,0,1,1,0,1.875,1.876,1.876,0,0,1,1.877,0Z" transform="translate(98.512 48.746)" fill="#e8e8e8"/>
            <path id="Trazado_193944" data-name="Trazado 193944" d="M1.877,0A1.876,1.876,0,1,1,0,1.875,1.876,1.876,0,0,1,1.877,0Z" transform="translate(108.465 48.746)" fill="#e8e8e8"/>
            <path id="Trazado_193945" data-name="Trazado 193945" d="M1.877,0A1.876,1.876,0,1,1,0,1.875,1.876,1.876,0,0,1,1.877,0Z" transform="translate(118.418 48.746)" fill="#e8e8e8"/>
            <path id="Trazado_193946" data-name="Trazado 193946" d="M1.877,0A1.876,1.876,0,1,1,0,1.875,1.876,1.876,0,0,1,1.877,0Z" transform="translate(128.371 48.746)" fill="#e8e8e8"/>
            <path id="Trazado_193947" data-name="Trazado 193947" d="M1.877,0A1.876,1.876,0,1,1,0,1.875,1.876,1.876,0,0,1,1.877,0Z" transform="translate(138.324 48.746)" fill="#e8e8e8"/>
            <path id="Trazado_193948" data-name="Trazado 193948" d="M1.627,0A1.628,1.628,0,1,1,0,1.627,1.627,1.627,0,0,1,1.627,0Z" transform="translate(148.528 48.994)" fill="#e8e8e8"/>
            <ellipse id="Elipse_5613" data-name="Elipse 5613" cx="0.055" cy="0.055" rx="0.055" ry="0.055" transform="translate(160.054 50.567)" fill="#e8e8e8"/>
            <path id="Trazado_193949" data-name="Trazado 193949" d="M.775,0A.774.774,0,1,1,0,.773.774.774,0,0,1,.775,0Z" transform="translate(10.035 39.895)" fill="#e8e8e8"/>
            <path id="Trazado_193950" data-name="Trazado 193950" d="M1.877,0A1.876,1.876,0,1,1,0,1.875,1.875,1.875,0,0,1,1.877,0Z" transform="translate(18.886 38.793)" fill="#e8e8e8"/>
            <path id="Trazado_193951" data-name="Trazado 193951" d="M1.877,0A1.876,1.876,0,1,1,0,1.875,1.875,1.875,0,0,1,1.877,0Z" transform="translate(28.839 38.793)" fill="#e8e8e8"/>
            <path id="Trazado_193952" data-name="Trazado 193952" d="M1.877,0A1.876,1.876,0,1,1,0,1.875,1.875,1.875,0,0,1,1.877,0Z" transform="translate(38.792 38.793)" fill="#e8e8e8"/>
            <path id="Trazado_193953" data-name="Trazado 193953" d="M1.877,0A1.876,1.876,0,1,1,0,1.875,1.876,1.876,0,0,1,1.877,0Z" transform="translate(48.745 38.793)" fill="#e8e8e8"/>
            <path id="Trazado_193954" data-name="Trazado 193954" d="M1.877,0A1.876,1.876,0,1,1,0,1.875,1.876,1.876,0,0,1,1.877,0Z" transform="translate(58.699 38.793)" fill="#e8e8e8"/>
            <path id="Trazado_193955" data-name="Trazado 193955" d="M1.877,0A1.876,1.876,0,1,1,0,1.875,1.876,1.876,0,0,1,1.877,0Z" transform="translate(68.652 38.793)" fill="#e8e8e8"/>
            <path id="Trazado_193956" data-name="Trazado 193956" d="M1.877,0A1.876,1.876,0,1,1,0,1.875,1.876,1.876,0,0,1,1.877,0Z" transform="translate(78.605 38.793)" fill="#e8e8e8"/>
            <path id="Trazado_193957" data-name="Trazado 193957" d="M1.877,0A1.876,1.876,0,1,1,0,1.875,1.876,1.876,0,0,1,1.877,0Z" transform="translate(88.558 38.793)" fill="#e8e8e8"/>
            <path id="Trazado_193958" data-name="Trazado 193958" d="M1.877,0A1.876,1.876,0,1,1,0,1.875,1.876,1.876,0,0,1,1.877,0Z" transform="translate(98.512 38.793)" fill="#e8e8e8"/>
            <path id="Trazado_193959" data-name="Trazado 193959" d="M1.877,0A1.876,1.876,0,1,1,0,1.875,1.876,1.876,0,0,1,1.877,0Z" transform="translate(108.465 38.793)" fill="#e8e8e8"/>
            <path id="Trazado_193960" data-name="Trazado 193960" d="M1.877,0A1.876,1.876,0,1,1,0,1.875,1.876,1.876,0,0,1,1.877,0Z" transform="translate(118.418 38.793)" fill="#e8e8e8"/>
            <path id="Trazado_193961" data-name="Trazado 193961" d="M1.877,0A1.876,1.876,0,1,1,0,1.875,1.876,1.876,0,0,1,1.877,0Z" transform="translate(128.371 38.793)" fill="#e8e8e8"/>
            <path id="Trazado_193962" data-name="Trazado 193962" d="M1.877,0A1.876,1.876,0,1,1,0,1.875,1.876,1.876,0,0,1,1.877,0Z" transform="translate(138.324 38.793)" fill="#e8e8e8"/>
            <path id="Trazado_193963" data-name="Trazado 193963" d="M.745,0A.746.746,0,1,1,0,.745.746.746,0,0,1,.745,0Z" transform="translate(149.41 39.923)" fill="#e8e8e8"/>
            <ellipse id="Elipse_5614" data-name="Elipse 5614" cx="0.028" cy="0.028" rx="0.028" ry="0.028" transform="translate(10.781 30.688)" fill="#e8e8e8"/>
            <path id="Trazado_193964" data-name="Trazado 193964" d="M1.325,0A1.325,1.325,0,1,1,0,1.325,1.327,1.327,0,0,1,1.325,0Z" transform="translate(19.438 29.39)" fill="#e8e8e8"/>
            <ellipse id="Elipse_5615" data-name="Elipse 5615" cx="1.877" cy="1.877" rx="1.877" ry="1.877" transform="translate(28.839 28.839)" fill="#e8e8e8"/>
            <ellipse id="Elipse_5616" data-name="Elipse 5616" cx="1.877" cy="1.877" rx="1.877" ry="1.877" transform="translate(38.792 28.839)" fill="#e8e8e8"/>
            <ellipse id="Elipse_5617" data-name="Elipse 5617" cx="1.877" cy="1.877" rx="1.877" ry="1.877" transform="translate(48.745 28.839)" fill="#e8e8e8"/>
            <ellipse id="Elipse_5618" data-name="Elipse 5618" cx="1.877" cy="1.877" rx="1.877" ry="1.877" transform="translate(58.699 28.839)" fill="#e8e8e8"/>
            <ellipse id="Elipse_5619" data-name="Elipse 5619" cx="1.877" cy="1.877" rx="1.877" ry="1.877" transform="translate(68.652 28.839)" fill="#e8e8e8"/>
            <path id="Trazado_193965" data-name="Trazado 193965" d="M1.877,0A1.876,1.876,0,1,1,0,1.875,1.876,1.876,0,0,1,1.877,0Z" transform="translate(78.605 28.84)" fill="#e8e8e8"/>
            <path id="Trazado_193966" data-name="Trazado 193966" d="M1.877,0A1.876,1.876,0,1,1,0,1.875,1.876,1.876,0,0,1,1.877,0Z" transform="translate(88.558 28.84)" fill="#e8e8e8"/>
            <path id="Trazado_193967" data-name="Trazado 193967" d="M1.877,0A1.876,1.876,0,1,1,0,1.875,1.876,1.876,0,0,1,1.877,0Z" transform="translate(98.512 28.84)" fill="#e8e8e8"/>
            <path id="Trazado_193968" data-name="Trazado 193968" d="M1.877,0A1.876,1.876,0,1,1,0,1.875,1.876,1.876,0,0,1,1.877,0Z" transform="translate(108.465 28.84)" fill="#e8e8e8"/>
            <path id="Trazado_193969" data-name="Trazado 193969" d="M1.877,0A1.876,1.876,0,1,1,0,1.875,1.876,1.876,0,0,1,1.877,0Z" transform="translate(118.418 28.84)" fill="#e8e8e8"/>
            <path id="Trazado_193970" data-name="Trazado 193970" d="M1.877,0A1.876,1.876,0,1,1,0,1.875,1.876,1.876,0,0,1,1.877,0Z" transform="translate(128.371 28.84)" fill="#e8e8e8"/>
            <path id="Trazado_193971" data-name="Trazado 193971" d="M1.3,0A1.3,1.3,0,1,1,0,1.3,1.3,1.3,0,0,1,1.3,0Z" transform="translate(138.904 29.418)" fill="#e8e8e8"/>
            <ellipse id="Elipse_5620" data-name="Elipse 5620" cx="0.028" cy="0.028" rx="0.028" ry="0.028" transform="translate(150.128 30.688)" fill="#e8e8e8"/>
            <ellipse id="Elipse_5621" data-name="Elipse 5621" cx="0.083" cy="0.083" rx="0.083" ry="0.083" transform="translate(20.679 20.679)" fill="#e8e8e8"/>
            <path id="Trazado_193972" data-name="Trazado 193972" d="M1.325,0A1.325,1.325,0,1,1,0,1.325,1.327,1.327,0,0,1,1.325,0Z" transform="translate(29.391 19.437)" fill="#e8e8e8"/>
            <ellipse id="Elipse_5622" data-name="Elipse 5622" cx="1.877" cy="1.877" rx="1.877" ry="1.877" transform="translate(38.792 18.885)" fill="#e8e8e8"/>
            <ellipse id="Elipse_5623" data-name="Elipse 5623" cx="1.877" cy="1.877" rx="1.877" ry="1.877" transform="translate(48.745 18.885)" fill="#e8e8e8"/>
            <ellipse id="Elipse_5624" data-name="Elipse 5624" cx="1.877" cy="1.877" rx="1.877" ry="1.877" transform="translate(58.699 18.885)" fill="#e8e8e8"/>
            <ellipse id="Elipse_5625" data-name="Elipse 5625" cx="1.877" cy="1.877" rx="1.877" ry="1.877" transform="translate(68.652 18.885)" fill="#e8e8e8"/>
            <path id="Trazado_193973" data-name="Trazado 193973" d="M1.877,0A1.876,1.876,0,1,1,0,1.875,1.876,1.876,0,0,1,1.877,0Z" transform="translate(78.605 18.886)" fill="#e8e8e8"/>
            <path id="Trazado_193974" data-name="Trazado 193974" d="M1.877,0A1.876,1.876,0,1,1,0,1.875,1.876,1.876,0,0,1,1.877,0Z" transform="translate(88.558 18.886)" fill="#e8e8e8"/>
            <path id="Trazado_193975" data-name="Trazado 193975" d="M1.877,0A1.876,1.876,0,1,1,0,1.875,1.876,1.876,0,0,1,1.877,0Z" transform="translate(98.512 18.886)" fill="#e8e8e8"/>
            <path id="Trazado_193976" data-name="Trazado 193976" d="M1.877,0A1.876,1.876,0,1,1,0,1.875,1.876,1.876,0,0,1,1.877,0Z" transform="translate(108.465 18.886)" fill="#e8e8e8"/>
            <path id="Trazado_193977" data-name="Trazado 193977" d="M1.877,0A1.876,1.876,0,1,1,0,1.875,1.876,1.876,0,0,1,1.877,0Z" transform="translate(118.418 18.886)" fill="#e8e8e8"/>
            <path id="Trazado_193978" data-name="Trazado 193978" d="M1.3,0A1.3,1.3,0,1,1,0,1.3,1.3,1.3,0,0,1,1.3,0Z" transform="translate(128.951 19.464)" fill="#e8e8e8"/>
            <path id="Trazado_193979" data-name="Trazado 193979" d="M.109,0A.11.11,0,1,1,0,.109.11.11,0,0,1,.109,0Z" transform="translate(140.092 20.652)" fill="#e8e8e8"/>
            <ellipse id="Elipse_5626" data-name="Elipse 5626" cx="0.028" cy="0.028" rx="0.028" ry="0.028" transform="translate(30.688 10.781)" fill="#e8e8e8"/>
            <path id="Trazado_193980" data-name="Trazado 193980" d="M.773,0A.773.773,0,1,1,0,.773.774.774,0,0,1,.773,0Z" transform="translate(39.897 10.036)" fill="#e8e8e8"/>
            <path id="Trazado_193981" data-name="Trazado 193981" d="M1.629,0A1.628,1.628,0,1,1,0,1.627,1.628,1.628,0,0,1,1.629,0Z" transform="translate(48.994 9.182)" fill="#e8e8e8"/>
            <ellipse id="Elipse_5627" data-name="Elipse 5627" cx="1.877" cy="1.877" rx="1.877" ry="1.877" transform="translate(58.699 8.932)" fill="#e8e8e8"/>
            <ellipse id="Elipse_5628" data-name="Elipse 5628" cx="1.877" cy="1.877" rx="1.877" ry="1.877" transform="translate(68.652 8.932)" fill="#e8e8e8"/>
            <path id="Trazado_193982" data-name="Trazado 193982" d="M1.877,0A1.876,1.876,0,1,1,0,1.875,1.876,1.876,0,0,1,1.877,0Z" transform="translate(78.605 8.933)" fill="#e8e8e8"/>
            <path id="Trazado_193983" data-name="Trazado 193983" d="M1.877,0A1.876,1.876,0,1,1,0,1.875,1.876,1.876,0,0,1,1.877,0Z" transform="translate(88.558 8.933)" fill="#e8e8e8"/>
            <path id="Trazado_193984" data-name="Trazado 193984" d="M1.877,0A1.876,1.876,0,1,1,0,1.875,1.876,1.876,0,0,1,1.877,0Z" transform="translate(98.512 8.933)" fill="#e8e8e8"/>
            <path id="Trazado_193985" data-name="Trazado 193985" d="M1.629,0A1.628,1.628,0,1,1,0,1.627,1.628,1.628,0,0,1,1.629,0Z" transform="translate(108.713 9.182)" fill="#e8e8e8"/>
            <path id="Trazado_193986" data-name="Trazado 193986" d="M.745,0A.745.745,0,1,1,0,.745.745.745,0,0,1,.745,0Z" transform="translate(119.55 10.063)" fill="#e8e8e8"/>
            <ellipse id="Elipse_5629" data-name="Elipse 5629" cx="0.028" cy="0.028" rx="0.028" ry="0.028" transform="translate(130.221 10.781)" fill="#e8e8e8"/>
            <ellipse id="Elipse_5630" data-name="Elipse 5630" cx="0.055" cy="0.055" rx="0.055" ry="0.055" transform="translate(50.567 0.8)" fill="#e8e8e8"/>
            <path id="Trazado_193987" data-name="Trazado 193987" d="M.413,0A.414.414,0,1,1,0,.413.412.412,0,0,1,.413,0Z" transform="translate(60.163 0.442)" fill="#e8e8e8"/>
            <path id="Trazado_193988" data-name="Trazado 193988" d="M.773,0A.773.773,0,1,1,0,.773.774.774,0,0,1,.773,0Z" transform="translate(69.756 0.082)" fill="#e8e8e8"/>
            <ellipse id="Elipse_5631" data-name="Elipse 5631" cx="0.856" cy="0.856" rx="0.856" ry="0.856" transform="translate(79.627)" fill="#e8e8e8"/>
            <path id="Trazado_193989" data-name="Trazado 193989" d="M.773,0A.773.773,0,1,1,0,.773.774.774,0,0,1,.773,0Z" transform="translate(89.663 0.082)" fill="#e8e8e8"/>
            <path id="Trazado_193990" data-name="Trazado 193990" d="M.413,0A.414.414,0,1,1,0,.413.412.412,0,0,1,.413,0Z" transform="translate(99.976 0.442)" fill="#e8e8e8"/>
            <ellipse id="Elipse_5632" data-name="Elipse 5632" cx="0.055" cy="0.055" rx="0.055" ry="0.055" transform="translate(110.287 0.8)" fill="#e8e8e8"/>
          </g>
        </g>
        <g id="Grupo_169387" data-name="Grupo 169387" transform="translate(0 195.381)">
          <path id="Trazado_211593" data-name="Trazado 211593" d="M3.926,297.385c.227.369.463.728.707,1.08L42.556,275.22c-.2-.376-.416-.751-.642-1.121-.333-.544-.688-1.066-1.06-1.573L3,295.727c.282.56.588,1.115.921,1.659" transform="translate(-0.778 -263.724)" fill="#43a99b"/>
          <path id="Trazado_211594" data-name="Trazado 211594" d="M22.66,312.881,48.373,297.12a22.328,22.328,0,0,0,.772-4.209L18.559,311.659a22.418,22.418,0,0,0,4.1,1.222" transform="translate(-4.805 -269.002)" fill="#43a99b"/>
          <path id="Trazado_211595" data-name="Trazado 211595" d="M11.677,306.34,46.55,284.963a22.041,22.041,0,0,0-.727-3.29L9.074,304.2a22.125,22.125,0,0,0,2.6,2.141" transform="translate(-2.349 -266.093)" fill="#43a99b"/>
          <path id="Trazado_211596" data-name="Trazado 211596" d="M42.905,314.063a22.213,22.213,0,0,0,6.1-5.513L35.224,317a22.224,22.224,0,0,0,7.681-2.935" transform="translate(-9.12 -273.052)" fill="#43a99b"/>
          <path id="Trazado_211597" data-name="Trazado 211597" d="M.637,289.7,37.1,267.346a22.013,22.013,0,0,0-2.692-2.086L0,286.352A22.045,22.045,0,0,0,.637,289.7" transform="translate(0 -261.843)" fill="#43a99b"/>
          <path id="Trazado_211598" data-name="Trazado 211598" d="M12.453,263.848a22.259,22.259,0,0,0-4.907,4.074l10.764-6.6a22.243,22.243,0,0,0-5.857,2.523" transform="translate(-1.954 -260.824)" fill="#43a99b"/>
          <path id="Trazado_211599" data-name="Trazado 211599" d="M.029,280.022l29.8-18.266a22.418,22.418,0,0,0-4.292-1.106L.992,275.7a22.354,22.354,0,0,0-.963,4.326" transform="translate(-0.008 -260.649)" fill="#43a99b"/>
        </g>
      </g>
    </g>
    <path id="Trazado_227438" data-name="Trazado 227438" d="M-6273.388-2800.984h147.094s-36.117,5.54-72.89,5.54S-6273.388-2800.984-6273.388-2800.984Z" transform="translate(-2521.659 -253)" fill="#3f3f3f"/>
    <g id="Grupo_177822" data-name="Grupo 177822" transform="translate(-8859.995 -3241.635)">
      <g id="Grupo_177807" data-name="Grupo 177807" transform="translate(0 0.003)">
        <g id="Grupo_177806" data-name="Grupo 177806" transform="translate(0 0)" clip-path="url(#clip-path-2)">
          <path id="Trazado_227317" data-name="Trazado 227317" d="M725.7,273.925c.493.793-.325,1.541-1.1,1.772-1.08.331-2.259.331-3.37.555a9.662,9.662,0,0,0-5.03,2.69,2.852,2.852,0,0,1-.555.218c-1.779.487-1.379-1.554-.868-2.39,1.46-2.384,4.406-3.326,7.2-3.645,1.211-.137,3-.368,3.726.8" transform="translate(-593.669 -226.892)" fill="#4e4352"/>
          <path id="Trazado_227318" data-name="Trazado 227318" d="M1513.548,1112.554h5.473c-.687.056-1.373.081-2.084.1a25.638,25.638,0,0,1-3.389-.1" transform="translate(-1257.868 -924.613)" fill="#916060"/>
          <path id="Trazado_227319" data-name="Trazado 227319" d="M1166.478,584.683l-.087.212c-8.3-1.729-13.892-7.845-19.209-14.079l-.53-.624c-4.812-5.716-9.068-11.757-13.455-17.8-3.151-4.337-6.54-8.512-9.561-12.949l-.25.081c-.986-1.81-2.428-3.351-3.563-5.061-1.735-2.59-3.27-5.292-5.111-7.819-1.729-2.378-3.788-4.662-5.036-7.352a12.58,12.58,0,0,1-1.435-4.83c-.044-2.1.4-4.656-.7-6.547l.137-.162c-1.673-2.147-3.682-4.075-5.411-6.191-.9-1.1-1.872-2.459-1.8-3.957.081-1.7,1.2-2.958,2.322-4.112.3-.306.605-.605.917-.892,1.722-1.616,3.594-3.014,5.373-4.568,2.746-2.384,5.18-5.086,7.913-7.476.861-.755,2.135-1.941,3.4-2.053a2.219,2.219,0,0,1,.456.006,5,5,0,0,1,2.459,1.467,37.387,37.387,0,0,1,4.512,5.011l.15-.119c.562.711,1.154,1.4,1.766,2.072l.256-.225c6.035,2.2,9.911,7.2,14.067,11.9,2.839,3.214,5.891,6.272,8.787,9.442,2,2.19,4.3,4.069,6.428,6.122,4.886,4.73,9.735,9.473,14.678,14.141,4.724,4.456,10.241,9.061,13.524,14.772a26.917,26.917,0,0,1,2.24,5.947c1.81,6.141,1.716,11.714.942,17.979-.974,7.869-3.644,15.208-11.857,17.979a12.851,12.851,0,0,1-3.083.605h-5.486a13.2,13.2,0,0,1-3.757-.917" transform="translate(-914.567 -397.66)" fill="#0b67d1"/>
          <path id="Trazado_227320" data-name="Trazado 227320" d="M344.955,900.359a24.213,24.213,0,0,1-2.815,3.083,13.309,13.309,0,0,1-3.5,2.44c-4.574,1.953-10.391.268-14.909-1.111-.075-.025-.156-.05-.231-.069l.2-.655c-2.946-7.832-4.163-18.865-.462-26.5l.443.056c3.083-1.417,5.9-2.328,8.437-4.568l.168-.056.674,2.072c4.312-4.493,8.344-8.213,14.366-10.821,1.248-.543,7.676-3.37,7.1.325-.381,2.446-4.125,4.531-5.928,5.8-4.094,2.883-7.564,5.223-9.935,9.554,5.18-3.445,10.59-5.049,16.825-6.34a24.608,24.608,0,0,1,3.233-.474,12.163,12.163,0,0,1,1.966-.038,3.545,3.545,0,0,1,1.2.356c3.226,1.523-1.148,4.512-2.509,5.242-.212.119-.424.231-.643.343,1.342-.175,2.665-.038,3.1,1.2.649,1.872-1.342,3.514-2.8,4.231-4.318,2.147-9.161,3.37-13.237,6-1.186.768-3.907,2.2-3.832,3.938,4.637-2.041,8.693-2.59,13.817-2.79,1.061-.037,5.854-.306,4.3,2.116-1.3,2.022-4.3,2.2-6.384,2.659-3.058.674-6.3,1.791-8.569,4.056Z" transform="translate(-266.722 -716.955)" fill="#fdaa92"/>
          <path id="Trazado_227321" data-name="Trazado 227321" d="M661.272,36.62a62.475,62.475,0,0,0,0,7.944l-.693.05c-5.61-1.785-7.875-8.375-7.489-13.655a19.2,19.2,0,0,1,2.559-7.689c3.863-7.1,10.21-12.288,17.043-16.382a54.367,54.367,0,0,1,7.258-3.938c13.929-5.7,30.617-2.615,43.291,4.837a27.8,27.8,0,0,1,11.5,13.137c-1.648-.842-2.646,1.161-2.665,2.783-.356-.992-1.011-1.785-2.134-1.523-1.847.424-2.2,3.507-2.153,4.961.087,2.952,1.81,5.492,2.534,8.3.555,2.134.256,4.325.324,6.509a18.408,18.408,0,0,1-2.016-2.446c-.605-.942-1.255-1.86-1.8-2.846-.4-.73-.755-1.666-1.542-2.066-1.311-.662-2.253.624-2.665,1.729-.761,2.047.3,4.287,1.3,6.085l-.025.025c1.2,2.7,3.139,5.254,3.339,8.3.187,2.814-.73,5.692-1.548,8.4l-.1.037c-2.733.974-3.264-2.877-3.894-4.537-.705-1.866-2.315-2.7-3.464-4.225a13.922,13.922,0,0,1-2.128-6.659c-10.453-.019-21.237-6.64-28-14.2l-.075.069c.549,2.384,2.446,4.481,3.969,6.291a37.93,37.93,0,0,0,10.122,8.6c-3.089.736-6.434.125-9.417-.73-8.955-2.546-15.184-9.111-19.9-16.868-1.76-2.9-3.644-5.954-4.3-9.324l-.243.05c-.387,1.96-.674,3.919-1.223,5.841-1.311,4.568-3.607,8.906-5.735,13.143Z" transform="translate(-542.73 -0.003)" fill="#4e4352"/>
          <path id="Trazado_227322" data-name="Trazado 227322" d="M897.67,333.41c.2,1.835-.637,3.439-1.872,3.57s-2.39-1.248-2.59-3.089.643-3.432,1.872-3.57,2.4,1.254,2.59,3.089" transform="translate(-742.296 -274.514)" fill="#4e4352"/>
          <path id="Trazado_227323" data-name="Trazado 227323" d="M1066.709,161.085c.818-2.708,1.735-5.585,1.548-8.4-.2-3.045-2.141-5.6-3.339-8.3l.025-.025c-1-1.8-2.066-4.038-1.3-6.085.412-1.1,1.354-2.39,2.665-1.729.786.4,1.142,1.336,1.541,2.066.543.986,1.192,1.9,1.8,2.846a18.423,18.423,0,0,0,2.016,2.446c-.068-2.184.231-4.375-.324-6.509-.724-2.808-2.447-5.348-2.534-8.3-.044-1.454.306-4.537,2.153-4.961,1.123-.262,1.779.53,2.134,1.523.019-1.623,1.017-3.626,2.665-2.783a2.981,2.981,0,0,1,.58.393c1.329,1.123,1.822,2.989,2.315,4.593.63,2.01,1.061,4.075,1.81,6.054.412,1.092.905,2.172,1.366,3.258l.106-.044c.674,1.292,1.691,2.415,2.484,3.632a28.282,28.282,0,0,1,3.926,8.181c1,3.757.368,7.72-.131,11.5-.611,4.562-1.435,9.08-1.853,13.667h-.025c.031,3.089,1.841,5.723,3.227,8.312l.019.368c-1.267.112-2.54,1.3-3.4,2.053-2.734,2.39-5.167,5.092-7.913,7.476-1.779,1.554-3.651,2.952-5.373,4.568l-.231-.256a50.41,50.41,0,0,1-4.549-6.546c-.293-.468-.574-.936-.855-1.4a25.919,25.919,0,0,1-3.545-8.693,16.883,16.883,0,0,1-.256-2.952c.012-5.161,1.454-9.729,2.864-14.634.125-.437.256-.874.393-1.317" transform="translate(-883.745 -101.952)" fill="#fdaa92"/>
          <path id="Trazado_227324" data-name="Trazado 227324" d="M761.032,337.806c.2,1.841-.643,3.439-1.872,3.57s-2.4-1.248-2.6-3.089.643-3.432,1.878-3.57,2.39,1.254,2.59,3.089" transform="translate(-628.736 -278.167)" fill="#4e4352"/>
          <path id="Trazado_227325" data-name="Trazado 227325" d="M703.809,338.3a46.5,46.5,0,0,1,.031,5.748h-.1c-2.409-1.685-3.844-5.411-3.713-8.225.069-1.448.861-3.457,2.546-3.607a49.611,49.611,0,0,1,1.236,6.085" transform="translate(-581.767 -276.092)" fill="#fdaa92"/>
          <path id="Trazado_227326" data-name="Trazado 227326" d="M897.484,270.644c.512.83.911,2.871-.867,2.39a2.528,2.528,0,0,1-.555-.225,9.706,9.706,0,0,0-5.03-2.69c-1.111-.218-2.29-.225-3.37-.549-.78-.237-1.6-.98-1.1-1.779.724-1.167,2.515-.936,3.726-.8,2.8.325,5.741,1.267,7.2,3.651" transform="translate(-736.668 -221.795)" fill="#4e4352"/>
          <path id="Trazado_227327" data-name="Trazado 227327" d="M736.177,131.7c-1.211-.137-3-.368-3.726.8-.493.8.325,1.541,1.1,1.778,1.08.325,2.259.331,3.37.549a9.708,9.708,0,0,1,5.03,2.69,2.528,2.528,0,0,0,.555.225c1.779.48,1.379-1.56.867-2.39-1.46-2.384-4.406-3.326-7.2-3.651m-32.807,10.921c-.618-2.459-1.3-4.905-1.747-7.4a39.512,39.512,0,0,1-.518-4.163,62.464,62.464,0,0,1,0-7.944h.037c2.128-4.237,4.425-8.575,5.735-13.143.549-1.922.836-3.882,1.223-5.841l.243-.05c.655,3.37,2.54,6.428,4.3,9.324,4.718,7.757,10.946,14.322,19.9,16.868,2.983.855,6.328,1.467,9.417.73a37.925,37.925,0,0,1-10.122-8.6c-1.523-1.81-3.42-3.907-3.969-6.291l.075-.069c6.759,7.564,17.542,14.185,28,14.2a13.925,13.925,0,0,0,2.128,6.659c1.148,1.529,2.758,2.359,3.464,4.225.63,1.66,1.161,5.51,3.894,4.537l.1-.038c-.137.443-.268.88-.393,1.317-1.41,4.905-2.852,9.473-2.865,14.634a16.869,16.869,0,0,0,.256,2.952l-.25.044c-1.086,2.471-3.126,4.805-4.761,6.977l-.056-.044c-.318.362-.643.724-.974,1.073-.131.144-.268.287-.4.431a33.207,33.207,0,0,1-10.459,7.714,27.241,27.241,0,0,1-20.744.443c-.449-.175-.9-.356-1.336-.555a22.734,22.734,0,0,1-5.2-3.407c-1.1-.9-2.159-1.878-3.239-2.833a31.1,31.1,0,0,1-6.989-8.156l-.069.025a21.92,21.92,0,0,1-3.408-11.3c-.006-.162-.006-.331-.006-.5a46.454,46.454,0,0,0-.031-5.748,49.577,49.577,0,0,0-1.236-6.085m1.722-4.069a9.663,9.663,0,0,1,5.03-2.69c1.111-.225,2.29-.225,3.37-.555.78-.231,1.6-.98,1.1-1.772-.724-1.167-2.515-.936-3.726-.8-2.8.318-5.741,1.261-7.2,3.644-.512.836-.911,2.877.867,2.39a2.846,2.846,0,0,0,.555-.218m30.973,10.416c1.236-.131,2.072-1.735,1.872-3.57s-1.354-3.22-2.59-3.089-2.072,1.735-1.872,3.57,1.36,3.22,2.59,3.089m-23.078.743c1.229-.131,2.072-1.729,1.872-3.57s-1.36-3.22-2.59-3.089-2.072,1.735-1.879,3.57,1.36,3.22,2.6,3.089" transform="translate(-582.563 -86.506)" fill="#fdaa92"/>
          <path id="Trazado_227328" data-name="Trazado 227328" d="M384.611,842.457a1.314,1.314,0,0,1-1.369,1.554,1.947,1.947,0,0,1-1.879-1.554,1.314,1.314,0,0,1,1.369-1.554,1.947,1.947,0,0,1,1.878,1.554" transform="translate(-316.924 -698.852)" fill="#280000"/>
          <path id="Trazado_227329" data-name="Trazado 227329" d="M409.111,848.093a.461.461,0,0,1-.48.545.683.683,0,0,1-.659-.545.461.461,0,0,1,.48-.545.683.683,0,0,1,.659.545" transform="translate(-339.049 -704.374)" fill="#a5abc9"/>
          <path id="Trazado_227330" data-name="Trazado 227330" d="M860.863,534.493a34.837,34.837,0,0,1-17.213,2.853,8.513,8.513,0,0,0,.657,1.729c2.858,5.485,10.522,4.755,15.053,2.209,6.247-3.511,10.716-10.232,14.21-16.547a34.823,34.823,0,0,1-12.707,9.757" transform="translate(-701.134 -436.094)" fill="#fdaa92"/>
          <path id="Trazado_227331" data-name="Trazado 227331" d="M858.779,524.04a34.822,34.822,0,0,0,12.707-9.757c.387-.7.766-1.4,1.13-2.081l-.044-.044a33.208,33.208,0,0,1-10.459,7.713,27.242,27.242,0,0,1-20.744.443l-.131.25a20.046,20.046,0,0,0,.328,6.328,34.836,34.836,0,0,0,17.213-2.853" transform="translate(-699.05 -425.642)" fill="#f28f72"/>
          <path id="Trazado_227332" data-name="Trazado 227332" d="M766,544.639a16.721,16.721,0,0,0,7.836,2.668,20.005,20.005,0,0,1-.332-6.339l.131-.25c-.449-.175-.9-.356-1.335-.555a22.733,22.733,0,0,1-5.2-3.407,70.328,70.328,0,0,1-7.461-.046,16.715,16.715,0,0,0,6.36,7.929" transform="translate(-631.312 -446.045)" fill="#145eb3"/>
          <path id="Trazado_227333" data-name="Trazado 227333" d="M727.651,89.975a31.545,31.545,0,0,0,12.166,16.8c5.794,4.014,16.457,6.226,23.488,5.729L739.529,95.66l-3.823-10.275-5.018-3.465Z" transform="translate(-604.731 -68.082)" fill="#4e4352"/>
          <path id="Trazado_227334" data-name="Trazado 227334" d="M676.778,132.333a27.9,27.9,0,0,0-7.849,19.821c-3.525-.807-6.155-4.09-6.835-7.642a15.368,15.368,0,0,1,2.157-10.4,12.747,12.747,0,0,1,5.874-5.646c2.558-1.051,5.809-.709,7.678,1.329Z" transform="translate(-550.072 -106.286)" fill="#4e4352"/>
        </g>
      </g>
      <g id="Grupo_177809" data-name="Grupo 177809" transform="translate(0 0.003)">
        <g id="Grupo_177808" data-name="Grupo 177808" transform="translate(0 0)" clip-path="url(#clip-path-2)">
          <path id="Trazado_227336" data-name="Trazado 227336" d="M243.74,872.574a13.815,13.815,0,0,0-2.584-.445c-1.885.089-3.453,2-5.313,1.686-1.116-.191-1.918-1.132-2.772-1.876s-2.112-1.342-3.078-.751a3.714,3.714,0,0,1,.321,2.042,1.282,1.282,0,0,1-1.534,1.033c-.661-.25-.8-1.093-.987-1.774a5.235,5.235,0,0,0-2.7-3.28,1.6,1.6,0,0,0-1.749-.005c-.622.568-.212,1.6.272,2.286s1.028,1.595.567,2.3a1.256,1.256,0,0,0-1.874.12,1.563,1.563,0,0,0,.206,1.968c.68.68,1.8.518,2.647.841,1.083.412,2.12.923,3.227,1.277,1.543.494,3.293.5,4.657,1.46a8.042,8.042,0,0,1,1.56,1.564,9.063,9.063,0,0,0,.674.831,1.433,1.433,0,0,0,.946.392,9.6,9.6,0,0,0,1.385-.016,11.282,11.282,0,0,1,1.463.04,4.948,4.948,0,0,1,1.621.433l.312.15c.016-.033.03-.067.046-.1l.443.056c3.083-1.417,5.9-2.328,8.438-4.568l.168-.056-2.051-6.332a9.368,9.368,0,0,1-4.316.727" transform="translate(-184.542 -722.154)" fill="#145eb3"/>
          <path id="Trazado_227337" data-name="Trazado 227337" d="M353.876,874.473a10.771,10.771,0,0,0,3.734-.776l-.819-2.53a29.339,29.339,0,0,1-2,2.444,10.563,10.563,0,0,1-.919.862" transform="translate(-294.097 -724.003)" fill="#5261ab"/>
          <path id="Trazado_227338" data-name="Trazado 227338" d="M521.512,772.011a1.411,1.411,0,0,0-1.773.2,5.821,5.821,0,0,0-1.063,1.617,10.866,10.866,0,0,1-3.981,4l4.817-.009v.05c3.576.056,3.888,2.74,4.387,4.244.006.012.006.025.013.038l.172.533-2.037-9.5a2,2,0,0,0-.535-1.163" transform="translate(-427.749 -641.402)" fill="#145eb3"/>
          <path id="Trazado_227339" data-name="Trazado 227339" d="M218.63,578.251c-3.152-4.337-6.54-8.512-9.561-12.949l-.25.081c-.986-1.81-2.427-3.351-3.563-5.061-1.735-2.59-3.27-5.292-5.111-7.819-1.729-2.378-3.788-4.662-5.036-7.351a12.578,12.578,0,0,1-1.435-4.83c-.044-2.1.4-4.656-.7-6.546l.137-.162c-1.672-2.147-3.682-4.075-5.411-6.191-.9-1.1-1.872-2.459-1.8-3.957.081-1.7,1.2-2.958,2.321-4.113.3-.306.605-.605.917-.892l-.231-.256a50.434,50.434,0,0,1-4.55-6.546c-.293-.468-.574-.936-.855-1.4l-.262.156a63.8,63.8,0,0,1-9.324-.8c-.131.144-.268.287-.4.431l.044.044c-3.651,6.865-8.4,14.728-15.34,18.628-4.531,2.546-12.194,3.276-15.052-2.209a8.507,8.507,0,0,1-.654-1.718,16.5,16.5,0,0,1-14.2-10.6c-9.128-.48-18.2-2.069-27.337.2C86.421,518,74.995,528.282,62.694,536.333a27.488,27.488,0,0,1-6.209,3.2c-2.172.718-4.493.537-6.372,2.059-6.684,5.442-11.995,12.051-19.246,16.893l.1.225c-12.182,5.255-23,14.909-29,26.673a17.209,17.209,0,0,0,8.194,23.7c8.238,3.826,24.694,3.75,34.118,3.526,2.452-.062,4.587-1.285,6.958-1.691,1.853-.312,3.925.225,5.76.474l.013-.05c-.075-.025-.156-.05-.231-.069l.2-.655c-2.933-7.8-4.15-18.77-.508-26.4l-.312-.15a4.946,4.946,0,0,0-1.621-.433,11.3,11.3,0,0,0-1.463-.04,9.573,9.573,0,0,1-1.385.015,1.431,1.431,0,0,1-.946-.392,9.038,9.038,0,0,1-.674-.831,8.048,8.048,0,0,0-1.56-1.564c-1.364-.962-3.114-.966-4.658-1.46-1.107-.354-2.144-.865-3.227-1.277-.847-.322-1.968-.161-2.647-.841a1.563,1.563,0,0,1-.206-1.968,1.256,1.256,0,0,1,1.874-.12c.461-.7-.083-1.611-.567-2.3s-.894-1.719-.272-2.286a1.6,1.6,0,0,1,1.749.005,5.236,5.236,0,0,1,2.7,3.28c.184.682.326,1.525.987,1.775a1.283,1.283,0,0,0,1.534-1.033,3.717,3.717,0,0,0-.321-2.042c.966-.591,2.224.007,3.078.75s1.656,1.685,2.772,1.876c1.86.318,3.428-1.6,5.312-1.686a13.812,13.812,0,0,1,2.584.445,5.219,5.219,0,0,0,.582.05,10.52,10.52,0,0,0,.919-.862,29.351,29.351,0,0,0,2-2.444L60.66,564.4l.05-.013a3.681,3.681,0,0,1-.087-2.215,4.157,4.157,0,0,1,3.114-2.215l.861.025,22.349-.041a10.864,10.864,0,0,0,3.981-4,5.826,5.826,0,0,1,1.063-1.618,1.411,1.411,0,0,1,1.773-.2A2,2,0,0,1,94.3,555.3l2.037,9.5,14.175,43.95-.012.006a8.189,8.189,0,0,1,.512,2.7l82.058.006c.031-7.408.811-14.865,1.548-22.229.449-4.518.474-9.061,1.3-13.536.574-3.12.094-8.462,2.153-11.171,1.935,1.273,3.564,3.2,5.38,4.649a177.724,177.724,0,0,1,15.545,13.667c4.319,4.362,8.4,9.249,13.093,13.218-4.812-5.717-9.068-11.757-13.455-17.8" transform="translate(0 -423.523)" fill="#0b67d1"/>
          <path id="Trazado_227340" data-name="Trazado 227340" d="M461.278,1053.5a3.887,3.887,0,0,0,1.667-.717,1.444,1.444,0,0,0,.458-.907c-1.5,1.145-3.8,1.33-5.5,1.706-3.058.674-6.3,1.791-8.568,4.056l-.069-.05a24.2,24.2,0,0,1-2.815,3.083,8.407,8.407,0,0,0,.934,2.212,25.9,25.9,0,0,1,13.889-9.383" transform="translate(-371.036 -874.188)" fill="#dbe1ff"/>
          <path id="Trazado_227341" data-name="Trazado 227341" d="M408.062,856.337l.012-.006-14.347-44.483c-.006-.012-.006-.025-.012-.037-.5-1.5-.811-4.188-4.387-4.244v-.05l-27.166.05-.861-.025a4.158,4.158,0,0,0-3.114,2.215,3.681,3.681,0,0,0,.087,2.216l-.05.012,4.905,15.146.674,2.072c4.312-4.493,8.344-8.213,14.366-10.821,1.248-.543,7.676-3.37,7.1.325-.381,2.446-4.125,4.531-5.929,5.8-4.094,2.883-7.564,5.223-9.935,9.554,5.18-3.445,10.59-5.049,16.825-6.341a24.587,24.587,0,0,1,3.233-.474,12.136,12.136,0,0,1,1.966-.037,3.542,3.542,0,0,1,1.2.356c3.226,1.523-1.148,4.512-2.509,5.242-.212.119-.425.231-.643.343,1.342-.175,2.665-.037,3.1,1.2.649,1.872-1.342,3.513-2.8,4.231-4.319,2.147-9.161,3.37-13.237,6-1.186.768-3.907,2.2-3.832,3.938,4.637-2.041,8.693-2.59,13.817-2.79,1.061-.038,5.854-.306,4.3,2.116a3.735,3.735,0,0,1-.887.953,1.445,1.445,0,0,1-.458.907,3.888,3.888,0,0,1-1.667.717,25.9,25.9,0,0,0-13.889,9.383,5.35,5.35,0,0,0,4.183,2.75l.037-.031,27.914.325c1.91-.374,2.54-2.066,2.521-3.813a8.188,8.188,0,0,0-.512-2.7" transform="translate(-297.565 -671.105)" fill="#fff"/>
        </g>
      </g>
      <g id="Grupo_177811" data-name="Grupo 177811" transform="translate(0 0.003)">
        <g id="Grupo_177810" data-name="Grupo 177810" transform="translate(0 0)" clip-path="url(#clip-path-2)">
          <path id="Trazado_227342" data-name="Trazado 227342" d="M1062.772,367.658a.253.253,0,0,1-.25-.214,17.212,17.212,0,0,1-.212-2.728c.013-4.813,1.248-9.087,2.557-13.613q.157-.544.315-1.093c.125-.436.259-.879.394-1.326a.254.254,0,0,1,.485.147c-.135.444-.268.884-.392,1.318q-.157.55-.315,1.094c-1.3,4.49-2.524,8.731-2.537,13.473a16.69,16.69,0,0,0,.205,2.647.254.254,0,0,1-.251.293" transform="translate(-882.857 -289.634)" fill="#cf6551"/>
          <path id="Trazado_227343" data-name="Trazado 227343" d="M1114.853,259.041a.253.253,0,0,1-.252-.234c-.229-2.962-.513-6.647-2.029-9.375a13.6,13.6,0,0,0-1.965-2.531.253.253,0,0,1,.374-.342,14.451,14.451,0,0,1,2.034,2.626c1.57,2.824,1.871,6.73,2.091,9.582a.254.254,0,0,1-.233.272h-.02" transform="translate(-922.94 -204.841)" fill="#cf6551"/>
          <path id="Trazado_227344" data-name="Trazado 227344" d="M1124.354,166.738a.253.253,0,0,1-.251-.219,67,67,0,0,1-.46-7.285,51.038,51.038,0,0,0-.825-9.346,18.361,18.361,0,0,0-1.8-4.416,22.485,22.485,0,0,1-1.645-3.764c-.253-.848-.444-1.721-.629-2.565a28.718,28.718,0,0,0-.786-3.054,3.613,3.613,0,0,0-.3-.675.253.253,0,0,1,.437-.257,4.157,4.157,0,0,1,.344.769,29.134,29.134,0,0,1,.8,3.108c.183.835.372,1.7.619,2.528a22.057,22.057,0,0,0,1.61,3.678,18.778,18.778,0,0,1,1.843,4.541,51.463,51.463,0,0,1,.835,9.439,66.685,66.685,0,0,0,.456,7.23.253.253,0,0,1-.216.285l-.035,0" transform="translate(-928.828 -112.223)" fill="#cf6551"/>
          <path id="Trazado_227345" data-name="Trazado 227345" d="M1171,219.357a.253.253,0,0,1-.253-.249c-.027-1.6-.283-3.926-.51-5.974-.057-.521-.113-1.022-.161-1.487-.095-.905-.146-1.835-.2-2.734a31.7,31.7,0,0,0-.5-4.7,24.568,24.568,0,0,0-1.66-4.664l-.165-.38a.254.254,0,0,1,.465-.2l.164.379a24.929,24.929,0,0,1,1.691,4.762,32.039,32.039,0,0,1,.506,4.78c.049.893.1,1.816.195,2.709.048.464.1.964.161,1.484.227,2.059.485,4.393.512,6.021a.254.254,0,0,1-.249.258Z" transform="translate(-970.307 -165.227)" fill="#cf6551"/>
          <path id="Trazado_227346" data-name="Trazado 227346" d="M1106.424,575.988a.252.252,0,0,1-.2-.1c-.905-1.168-1.933-2.291-2.927-3.377-.83-.907-1.688-1.845-2.477-2.809a6.327,6.327,0,0,1-1.856-4.131c.088-1.77,1.233-3.084,2.4-4.278.3-.307.612-.613.956-.934a.253.253,0,0,1,.346.37c-.338.316-.645.616-.939.917-1.142,1.171-2.174,2.355-2.254,3.95a5.909,5.909,0,0,0,1.742,3.785c.779.954,1.633,1.886,2.458,2.788,1,1.094,2.036,2.225,2.954,3.409a.253.253,0,0,1-.2.409" transform="translate(-913.315 -465.645)" fill="#2b366e"/>
          <path id="Trazado_227347" data-name="Trazado 227347" d="M1171.586,560.963a.254.254,0,0,1-.235-.347,77.337,77.337,0,0,1,8.131-14.763.253.253,0,0,1,.42.283,76.867,76.867,0,0,0-8.081,14.667.254.254,0,0,1-.235.16" transform="translate(-973.462 -453.551)" fill="#2b366e"/>
          <path id="Trazado_227348" data-name="Trazado 227348" d="M1180.738,714.575a.253.253,0,0,1-.193-.089c-4.314-5.057-8.243-10.49-12.043-15.744q-.974-1.347-1.953-2.7-.24-.329-.481-.658c-1.071-1.458-2.184-2.925-3.26-4.343-.72-.949-1.465-1.931-2.191-2.9-.238-.319-.483-.636-.727-.955-.674-.876-1.37-1.782-1.956-2.728a18.722,18.722,0,0,0-1.438-1.928c-.332-.408-.676-.83-.995-1.268-.292-.4-.6-.8-.9-1.189-.485-.633-.986-1.287-1.439-1.965-.677-1.013-1.333-2.058-1.969-3.069-.991-1.578-2.017-3.209-3.134-4.743-.45-.618-.932-1.243-1.4-1.847A30.338,30.338,0,0,1,1143,662.9a12.827,12.827,0,0,1-1.458-4.936c-.011-.508.006-1.029.023-1.581.054-1.7.111-3.466-.688-4.838a.253.253,0,0,1,.438-.255c.872,1.5.813,3.334.757,5.109-.017.544-.034,1.058-.023,1.553a12.39,12.39,0,0,0,1.411,4.733,29.971,29.971,0,0,0,3.607,5.45c.468.607.953,1.235,1.407,1.859,1.127,1.548,2.157,3.187,3.153,4.772.633,1.008,1.288,2.05,1.961,3.057.443.664.94,1.312,1.42,1.939.3.39.608.794.9,1.2.311.427.65.844.978,1.247a19.135,19.135,0,0,1,1.476,1.982c.573.925,1.261,1.82,1.927,2.686.246.32.492.64.731.96.725.97,1.47,1.951,2.19,2.9,1.077,1.42,2.191,2.888,3.264,4.349q.242.329.482.66.98,1.349,1.953,2.7c3.794,5.246,7.717,10.671,12.018,15.712a.253.253,0,0,1-.193.418" transform="translate(-948.125 -541.168)" fill="#2b366e"/>
          <path id="Trazado_227349" data-name="Trazado 227349" d="M1325.42,588.7a.254.254,0,0,1-.237-.165c-.151-.4-.293-.814-.43-1.211a15.353,15.353,0,0,0-1.644-3.685c-1.879-2.79-4.36-4.693-6.987-6.709-.806-.618-1.639-1.258-2.449-1.921a42.367,42.367,0,0,1-5.251-5.341c-2.261-2.652-4.453-5.436-6.574-8.129-2.135-2.71-4.341-5.512-6.616-8.178-3.829-4.488-7.815-8.983-11.669-13.33-3.022-3.409-6.148-6.934-9.178-10.433-.753-.869-1.561-1.724-2.343-2.552-.67-.709-1.363-1.443-2.021-2.185a.253.253,0,1,1,.379-.336c.653.736,1.343,1.466,2.01,2.173.785.831,1.6,1.691,2.357,2.568,3.028,3.5,6.152,7.021,9.174,10.429,3.856,4.349,7.843,8.846,11.675,13.337,2.281,2.674,4.491,5.48,6.629,8.194,2.118,2.689,4.308,5.469,6.562,8.114a41.912,41.912,0,0,0,5.187,5.277c.8.659,1.633,1.3,2.436,1.911,2.66,2.041,5.173,3.969,7.1,6.828a15.951,15.951,0,0,1,1.7,3.8c.136.395.277.8.426,1.2a.253.253,0,0,1-.237.342" transform="translate(-1055.428 -435.844)" fill="#2b366e"/>
          <path id="Trazado_227350" data-name="Trazado 227350" d="M1545.771,833.293a.254.254,0,0,1-.235-.158,10.553,10.553,0,0,0-2.861-3.561c-2.255-2.075-5.728-4.635-9.475-5.044a.253.253,0,0,1,.055-.5c2.144.234,5.578,1.321,9.763,5.175a11.121,11.121,0,0,1,2.988,3.744.253.253,0,0,1-.14.33.249.249,0,0,1-.095.019" transform="translate(-1274.012 -684.824)" fill="#2b366e"/>
          <path id="Trazado_227351" data-name="Trazado 227351" d="M853.293,659.337a17.059,17.059,0,0,1-5.482-.892.253.253,0,1,1,.163-.48,18.258,18.258,0,0,0,17.688-3.9.253.253,0,1,1,.333.382,19.472,19.472,0,0,1-12.7,4.887" transform="translate(-704.449 -543.526)" fill="#2b366e"/>
          <path id="Trazado_227352" data-name="Trazado 227352" d="M553.89,653.671a.253.253,0,0,1-.25-.214c-1.843-11.567-3.491-23.779-1.679-34.767a.253.253,0,1,1,.5.082c-1.8,10.913-.157,23.079,1.679,34.6a.253.253,0,0,1-.21.29.248.248,0,0,1-.04,0" transform="translate(-458.067 -514.001)" fill="#2b366e"/>
          <path id="Trazado_227353" data-name="Trazado 227353" d="M386.5,728.14a.256.256,0,0,1-.059-.007c-10.178-2.429-17.966-5.889-23.149-10.286a.253.253,0,1,1,.328-.386c5.122,4.345,12.839,7.77,22.939,10.179a.253.253,0,0,1-.059.5" transform="translate(-301.85 -596.212)" fill="#2b366e"/>
          <path id="Trazado_227354" data-name="Trazado 227354" d="M708.195,816.675a.274.274,0,0,1-.3-.211c-.055-.248.151-.352.811-.642.34-.15.7-.294.728-.3.685-.232,1.388-.432,2.068-.625.665-.188,1.353-.384,2.016-.608a50.761,50.761,0,0,0,11.329-5.906,113.353,113.353,0,0,0,21.578-18.841c.578-.642,1.182-1.3,1.766-1.929a58.536,58.536,0,0,0,6.188-7.492.253.253,0,1,1,.425.276,58.931,58.931,0,0,1-6.241,7.56c-.583.631-1.185,1.284-1.762,1.924A113.851,113.851,0,0,1,725.129,808.8a51.226,51.226,0,0,1-11.446,5.964c-.675.228-1.369.425-2.04.615s-1.371.389-2.043.617c-.135.05-.828.339-1.136.5a.243.243,0,0,1-.21.177l-.059,0" transform="translate(-588.307 -648.239)" fill="#2b366e"/>
          <path id="Trazado_227355" data-name="Trazado 227355" d="M429.251,965.668a.253.253,0,0,1-.129-.471c6.221-3.687,11.314-5.831,16.512-6.951.2-.043.441-.1.7-.168a16.973,16.973,0,0,1,2.259-.455.254.254,0,0,1,.055.5,16.475,16.475,0,0,0-2.19.443c-.26.065-.506.127-.714.172-5.142,1.108-10.188,3.234-16.36,6.892a.251.251,0,0,1-.129.035" transform="translate(-356.528 -795.852)" fill="#cf6551"/>
          <path id="Trazado_227356" data-name="Trazado 227356" d="M379.522,936.621a.253.253,0,0,1-.185-.427c.6-.637,1.3-1.375,1.98-2.088a.253.253,0,0,1,.366.351c-.682.711-1.378,1.449-1.977,2.085a.253.253,0,0,1-.185.08" transform="translate(-315.199 -776.245)" fill="#cf6551"/>
          <path id="Trazado_227357" data-name="Trazado 227357" d="M134.3,894.26a9.24,9.24,0,0,1-1.185-.074.253.253,0,1,1,.065-.5,16.011,16.011,0,0,0,5.663-.629,18.07,18.07,0,0,1,5.6-.687.253.253,0,1,1-.044.5,17.7,17.7,0,0,0-5.44.676,20.9,20.9,0,0,1-4.658.712" transform="translate(-110.447 -741.593)" fill="#2b366e"/>
          <path id="Trazado_227358" data-name="Trazado 227358" d="M217.984,913.058a.255.255,0,0,1-.109-.025,4.7,4.7,0,0,0-1.538-.409,11.1,11.1,0,0,0-1.43-.039c-.132,0-.266.011-.4.018a5.691,5.691,0,0,1-1.022,0,1.68,1.68,0,0,1-1.092-.462,4.751,4.751,0,0,1-.482-.577c-.07-.093-.139-.186-.212-.276a7.906,7.906,0,0,0-1.509-1.516,7.517,7.517,0,0,0-2.943-1.029,15.611,15.611,0,0,1-1.646-.4c-.968-.31-1.912-.714-2.825-1.1-2.521-1.079-4.9-2.1-7.729-1.251a.253.253,0,0,1-.145-.485c3-.9,5.581.2,8.074,1.27.9.386,1.835.785,2.781,1.088a15.181,15.181,0,0,0,1.592.383,8,8,0,0,1,3.134,1.111,8.338,8.338,0,0,1,1.611,1.611c.077.1.151.194.225.292a4.277,4.277,0,0,0,.429.517,1.19,1.19,0,0,0,.8.323,5.387,5.387,0,0,0,.932,0c.14-.008.279-.015.416-.019a11.619,11.619,0,0,1,1.5.041,5.21,5.21,0,0,1,1.7.456.253.253,0,0,1-.109.482" transform="translate(-161.827 -752.261)" fill="#2b366e"/>
          <path id="Trazado_227359" data-name="Trazado 227359" d="M272.852,985.758a.253.253,0,0,1-.233-.153c-2.06-4.8-.747-11.777,1.615-16.191a.253.253,0,0,1,.447.239c-2.305,4.307-3.594,11.1-1.6,15.752a.254.254,0,0,1-.233.353" transform="translate(-225.715 -805.542)" fill="#2b366e"/>
          <path id="Trazado_227360" data-name="Trazado 227360" d="M206.264,861.47a.254.254,0,0,1-.25-.216c-.726-4.927-2.741-8.028-6.534-10.054a.253.253,0,1,1,.239-.447c3.948,2.11,6.044,5.326,6.8,10.427a.254.254,0,0,1-.214.288l-.037,0" transform="translate(-165.67 -707.012)" fill="#2b366e"/>
          <path id="Trazado_227361" data-name="Trazado 227361" d="M252.245,860.056l-.036,0a.253.253,0,0,1-.215-.286c.471-3.319-1.319-5.684-3.213-8.189-.2-.258-.392-.517-.586-.779a.253.253,0,0,1,.406-.3c.194.261.39.519.584.776,1.96,2.591,3.812,5.038,3.311,8.566a.253.253,0,0,1-.25.218" transform="translate(-206.226 -706.74)" fill="#2b366e"/>
          <path id="Trazado_227362" data-name="Trazado 227362" d="M851.053,464.63a.253.253,0,0,1-.191-.42,9.32,9.32,0,0,1,4.95-2.652,13.46,13.46,0,0,1,5.674-.124.253.253,0,1,1-.108.5c-3.191-.7-8.024.186-10.134,2.613a.253.253,0,0,1-.191.087" transform="translate(-707.076 -383.281)" fill="#cf6551"/>
          <path id="Trazado_227363" data-name="Trazado 227363" d="M715.212,342.9h0a.254.254,0,0,1-.252-.254c0-.56.022-1.131.041-1.684a24.159,24.159,0,0,0-.068-3.793,50.65,50.65,0,0,0-1.222-6.037.253.253,0,1,1,.492-.124,51.1,51.1,0,0,1,1.234,6.1,24.491,24.491,0,0,1,.072,3.873c-.019.549-.038,1.117-.04,1.668a.253.253,0,0,1-.253.252" transform="translate(-593.137 -274.935)" fill="#cf6551"/>
          <path id="Trazado_227364" data-name="Trazado 227364" d="M850.866,520.747a27.892,27.892,0,0,1-10.078-1.89.253.253,0,1,1,.183-.472,27.179,27.179,0,0,0,20.608-.416,32.818,32.818,0,0,0,10.461-7.745.253.253,0,0,1,.368.348,33.3,33.3,0,0,1-10.621,7.858,26.549,26.549,0,0,1-10.922,2.316" transform="translate(-698.621 -423.969)" fill="#cf6551"/>
          <path id="Trazado_227365" data-name="Trazado 227365" d="M816.94,347.681a.252.252,0,0,1-.046,0,6.19,6.19,0,0,1-1.806-.722c-.9-.489-2.126-1.158-2.408-2.3a3.407,3.407,0,0,1,.546-2.337c.07-.139.14-.276.2-.411a32.969,32.969,0,0,0,1.686-4.354,10.779,10.779,0,0,0-.4-7.351.253.253,0,0,1,.467-.2,11.29,11.29,0,0,1,.414,7.7,33.5,33.5,0,0,1-1.712,4.422c-.065.139-.137.281-.21.425a3,3,0,0,0-.506,1.986c.229.929,1.344,1.537,2.159,1.98a5.763,5.763,0,0,0,1.655.669.253.253,0,0,1-.046.5" transform="translate(-675.348 -274.126)" fill="#cf6551"/>
          <path id="Trazado_227366" data-name="Trazado 227366" d="M478.5,1107.84h0l-28.117-.322a.254.254,0,0,1-.136.029c-3.041-.216-4.794-2.84-5.42-5.225a.253.253,0,1,1,.49-.129c.576,2.193,2.159,4.6,4.883,4.841a.294.294,0,0,1,.111-.024l28.184.322c.183-.016,2.487-.272,2.3-3.327,0-.007,0-.014,0-.021q0-.1,0-.2a.254.254,0,0,1,.251-.256h0a.254.254,0,0,1,.253.251c0,.068,0,.136,0,.2.22,3.617-2.748,3.853-2.778,3.855H478.5" transform="translate(-369.671 -915.846)" fill="#9ea7d6"/>
          <path id="Trazado_227367" data-name="Trazado 227367" d="M914.754,127.124a.264.264,0,0,1-.052-.005c-10.17-2.121-20.959-8.646-28.86-17.453a.253.253,0,1,1,.377-.338c7.832,8.73,18.518,15.2,28.586,17.3a.253.253,0,0,1-.051.5" transform="translate(-736.144 -90.79)" fill="#312a33"/>
          <path id="Trazado_227368" data-name="Trazado 227368" d="M424.576,876.035a.253.253,0,0,1-.239-.17L408.618,830.61a3.841,3.841,0,0,0-3.626-2.579h-24.7a.253.253,0,0,1,0-.507h24.7a4.348,4.348,0,0,1,4.1,2.919L424.815,875.7a.253.253,0,0,1-.156.323.249.249,0,0,1-.083.014" transform="translate(-315.837 -687.734)" fill="#9ea7d6"/>
        </g>
      </g>
    </g>
  </g>
</svg>
