<svg xmlns="http://www.w3.org/2000/svg" width="66.333" height="43.531" viewBox="0 0 66.333 43.531">
  <g id="Grupo_177195" data-name="Grupo 177195" transform="translate(-860 -509.593)">
    <path id="Trazado_225951" data-name="Trazado 225951" d="M-11893.457-11176.932c-.349,0-4.29.264-3.764,0s-.964,1.139-.964,1.139v27.5h51.411l.7-5.869h5.957v-6.044h6.306v-28.726h-51.85v5.6l-6.655.613v5.78Z" transform="translate(12759.194 11699.822)" fill="#fff"/>
    <g id="_02-money" data-name="02-money" transform="translate(860 509.593)">
      <path id="Trazado_225941" data-name="Trazado 225941" d="M64.859,42.094H13.036A1.036,1.036,0,0,1,12,41.057V12.036A1.036,1.036,0,0,1,13.036,11H64.859A1.036,1.036,0,0,1,65.9,12.036V41.057A1.036,1.036,0,0,1,64.859,42.094ZM14.073,40.021h49.75V13.073H14.073Z" transform="translate(0.437 -11)"/>
      <path id="Trazado_225942" data-name="Trazado 225942" d="M39.182,31.365H37.109A3.109,3.109,0,0,1,34,28.255h2.073a1.036,1.036,0,0,0,1.036,1.036h2.073a1.036,1.036,0,1,0,0-2.073H37.109a3.109,3.109,0,1,1,0-6.219h2.073a3.109,3.109,0,0,1,3.109,3.109H40.219a1.036,1.036,0,0,0-1.036-1.036H37.109a1.036,1.036,0,1,0,0,2.073h2.073a3.109,3.109,0,0,1,0,6.219Z" transform="translate(1.239 -10.635)"/>
      <path id="Trazado_225943" data-name="Trazado 225943" d="M37,20h2.073v2.073H37Z" transform="translate(1.349 -10.672)"/>
      <path id="Trazado_225944" data-name="Trazado 225944" d="M37,30h2.073v2.073H37Z" transform="translate(1.349 -10.307)"/>
      <path id="Trazado_225945" data-name="Trazado 225945" d="M56.422,37.8H21.182a1.036,1.036,0,0,1-1.036-1.036,3.109,3.109,0,0,0-3.109-3.109A1.036,1.036,0,0,1,16,32.62V20.182a1.036,1.036,0,0,1,1.036-1.036,3.109,3.109,0,0,0,3.109-3.109A1.036,1.036,0,0,1,21.182,15H56.422a1.036,1.036,0,0,1,1.036,1.036,3.109,3.109,0,0,0,3.109,3.109A1.036,1.036,0,0,1,61.6,20.182V32.62a1.036,1.036,0,0,1-1.036,1.036,3.109,3.109,0,0,0-3.109,3.109A1.036,1.036,0,0,1,56.422,37.8ZM22.115,35.729H55.489a5.2,5.2,0,0,1,4.042-4.042V21.115a5.2,5.2,0,0,1-4.042-4.042H22.115a5.2,5.2,0,0,1-4.042,4.042V31.687a5.2,5.2,0,0,1,4.042,4.042Z" transform="translate(0.583 -10.854)"/>
      <path id="Trazado_225946" data-name="Trazado 225946" d="M38.4,37.8A11.4,11.4,0,1,1,49.8,26.4,11.4,11.4,0,0,1,38.4,37.8Zm0-20.729A9.328,9.328,0,1,0,47.729,26.4,9.328,9.328,0,0,0,38.4,17.073Z" transform="translate(0.984 -10.854)"/>
      <path id="Trazado_225947" data-name="Trazado 225947" d="M16.365,48.094H7.036A1.036,1.036,0,0,1,6,47.057V18.036A1.036,1.036,0,0,1,7.036,17h6.219v2.073H8.073V46.021h8.292Z" transform="translate(0.219 -10.781)"/>
      <path id="Trazado_225948" data-name="Trazado 225948" d="M58.276,47.255H22V45.182H57.239V40h2.073v6.219A1.036,1.036,0,0,1,58.276,47.255Z" transform="translate(0.802 -9.943)"/>
      <path id="Trazado_225949" data-name="Trazado 225949" d="M52.859,54.094H1.036A1.036,1.036,0,0,1,0,53.057V24.036A1.036,1.036,0,0,1,1.036,23H7.255v2.073H2.073V52.021h49.75V46.838H53.9v6.219A1.036,1.036,0,0,1,52.859,54.094Z" transform="translate(0 -10.563)"/>
      <path id="Trazado_225950" data-name="Trazado 225950" d="M18,45h2.073v2.073H18Z" transform="translate(0.656 -9.761)"/>
    </g>
  </g>
</svg>
