<svg xmlns="http://www.w3.org/2000/svg" xmlns:xlink="http://www.w3.org/1999/xlink" width="112.935" height="82.996" viewBox="0 0 112.935 82.996">
  <defs>
    <clipPath id="clip-path">
      <rect id="Rectángulo_53201" data-name="Rectángulo 53201" width="112.935" height="82.996" fill="none"/>
    </clipPath>
    <clipPath id="clip-path-3">
      <rect id="Rectángulo_53198" data-name="Rectángulo 53198" width="109.896" height="4.34" fill="none"/>
    </clipPath>
  </defs>
  <g id="Grupo_177192" data-name="Grupo 177192" transform="translate(-1280.517 -445.834)">
    <g id="Grupo_168902" data-name="Grupo 168902" transform="translate(1280.517 445.834)">
      <g id="Grupo_172839" data-name="Grupo 172839" clip-path="url(#clip-path)">
        <g id="Grupo_172838" data-name="Grupo 172838">
          <g id="Grupo_172837" data-name="Grupo 172837" clip-path="url(#clip-path)">
            <path id="Trazado_213506" data-name="Trazado 213506" d="M112.244,84.018c0-26.345.309-49.287,0-74.021-36.912,0-74.013,1.073-111.2.682-.357,25.208,0,48.918,0,73.427q55.753,0,111.2-.088" transform="translate(-0.162 -1.828)" fill="#fff"/>
            <path id="Trazado_213507" data-name="Trazado 213507" d="M.879,84.664a.718.718,0,0,1-.717-.717c0-8.172-.04-16.389-.082-24.336C0,43.734-.078,27.317.162,10.509A.717.717,0,0,1,.879,9.8H.886c21.48.226,43.264-.042,64.335-.3,15.374-.189,31.27-.383,46.86-.383a.718.718,0,0,1,.717.708c.2,16.318.139,31.755.07,48.1-.034,8.339-.07,16.962-.07,25.933a.717.717,0,0,1-.717.717c-18.468,0-37.273.022-55.46.044-18.257.022-37.134.044-55.742.044m.707-73.421C1.361,27.789,1.44,43.958,1.518,59.6c.037,7.716.077,15.689.082,23.625,18.377,0,37-.022,55.023-.042,17.952-.022,36.507-.044,54.75-.044,0-8.715.036-17.1.07-25.222.068-16.1.129-31.321-.062-47.366-15.356.007-31,.2-46.134.384-20.849.255-42.4.521-63.66.306Z" transform="translate(0 -1.667)"/>
            <path id="Trazado_213508" data-name="Trazado 213508" d="M1.311,1.368c-.123,3.073-.094,5.991-.235,9.513,37.221.082,74.1.032,111.2-.087,0-3.18-.094-7.332-.094-9.915Z" transform="translate(-0.197 -0.161)" fill="#12263f"/>
            <path id="Trazado_213509" data-name="Trazado 213509" d="M38.539,11.477c-12.921,0-25.427-.014-37.625-.04A.717.717,0,0,1,.2,10.719v-.028C.27,8.88.3,7.227.323,5.629c.025-1.521.048-2.956.109-4.45A.719.719,0,0,1,1.146.49L112.018,0h0a.718.718,0,0,1,.716.717c0,1.226.022,2.8.044,4.452.025,1.861.051,3.787.051,5.462a.717.717,0,0,1-.715.717c-26.189.087-50.538.128-73.579.128M1.659,10.006c33.536.072,69.45.042,109.74-.082-.007-1.489-.029-3.132-.05-4.731-.02-1.352-.036-2.652-.042-3.749L1.841,1.927C1.8,3.165,1.779,4.378,1.759,5.659c-.022,1.38-.047,2.808-.1,4.346Z" transform="translate(-0.036)"/>
            <path id="Trazado_213510" data-name="Trazado 213510" d="M96.321,7.731A.717.717,0,0,1,96.309,6.3l5.12-.091h.012a.717.717,0,0,1,.012,1.435l-5.119.091Z" transform="translate(-17.479 -1.135)"/>
            <path id="Trazado_213511" data-name="Trazado 213511" d="M110.18,7.84a.717.717,0,0,1-.012-1.434l5.119-.091h.014a.717.717,0,0,1,.012,1.435l-5.12.09Z" transform="translate(-20.013 -1.155)"/>
            <path id="Trazado_213512" data-name="Trazado 213512" d="M123.591,7.616a.717.717,0,1,1-.012-1.434l5.12-.091h.012a.718.718,0,1,1,.012,1.436l-5.119.09Z" transform="translate(-22.465 -1.114)"/>
            <path id="Trazado_213514" data-name="Trazado 213514" d="M18.74,50.893c-.674,0-1.227-.312-1.236-.708s.531-.722,1.205-.726l28.31-.423h.031c.674.007,1.209.334,1.2.731-.011.379-.523.687-1.166.7l-28.308.424Z" transform="translate(-3.2 -3.802)"/>
            <path id="Trazado_224651" data-name="Trazado 224651" d="M18.238,50.893a.718.718,0,1,1-.018-1.435l16.81-.423h.018a.717.717,0,0,1,.018,1.434l-16.81.424Z" transform="translate(-3.2 -14.114)"/>
            <path id="Trazado_213515" data-name="Trazado 213515" d="M17.9,68.591a.724.724,0,0,1-.009-1.436l29.668-.422h.009a.723.723,0,0,1,.007,1.434l-29.667.424Z" transform="translate(-3.156 -11.264)"/>
            <path id="Trazado_213516" data-name="Trazado 213516" d="M17.986,83.508a.718.718,0,1,1-.01-1.436l33.687-.422h.01a.717.717,0,0,1,.008,1.434l-33.687.424Z" transform="translate(-3.156 -14.929)"/>
            <g id="Grupo_172833" data-name="Grupo 172833" transform="translate(1.043 10.262)" opacity="0.129">
              <g id="Grupo_172832" data-name="Grupo 172832">
                <g id="Grupo_172831" data-name="Grupo 172831" clip-path="url(#clip-path-3)">
                  <path id="Trazado_213517" data-name="Trazado 213517" d="M108.672,12.989c-2.22-.476-4.871-.125-7.291-.146-10.115-.044-20.239-.344-30.375-.275-11.484.05-22.951.426-34.435.266-6.555-.1-13.119-.018-19.674-.074q-3.78-.033-7.562-.02A33.336,33.336,0,0,0,4.4,12.9c-2.632.414-3.839,1.525-2.7,2.48a8.242,8.242,0,0,0,4.7,1.134c16.625.028,33.232.49,49.857.357,16.562-.259,33.172.02,49.7-.416l.126-.006a12.415,12.415,0,0,0,3.616-.544c1.993-.744,1.946-1.934-.106-2.657a7.818,7.818,0,0,0-.93-.261" transform="translate(-1.276 -12.558)"/>
                </g>
              </g>
            </g>
            <path id="Trazado_213534" data-name="Trazado 213534" d="M118.313,24.075h-14.3A4.971,4.971,0,0,0,99.05,29.04V39.664a4.972,4.972,0,0,0,4.4,4.933v2.58a.992.992,0,0,0,1.694.7l3.251-3.251h9.915a4.97,4.97,0,0,0,4.964-4.964V29.04A4.97,4.97,0,0,0,118.313,24.075Zm2.979,15.589a2.982,2.982,0,0,1-2.979,2.979H107.986a.993.993,0,0,0-.7.291l-1.846,1.847V43.635a.993.993,0,0,0-.994-.993h-.43a2.983,2.983,0,0,1-2.979-2.979V29.04a2.984,2.984,0,0,1,2.979-2.979h14.3a2.983,2.983,0,0,1,2.979,2.979Z" transform="translate(-18.11 -4.402)" fill="none" stroke="#fff" stroke-miterlimit="10" stroke-width="0.75"/>
          </g>
        </g>
      </g>
    </g>
    <g id="ventas_1_" data-name="ventas (1)" transform="translate(1335.343 469.192)">
      <g id="Grupo_177161" data-name="Grupo 177161" transform="translate(18.88 25.173)">
        <g id="Grupo_177160" data-name="Grupo 177160">
          <path id="Trazado_225923" data-name="Trazado 225923" d="M211.955,256.036a.789.789,0,0,0-.234-.036h-18.88a.786.786,0,0,0-.754,1.011l3.283,11.013a.786.786,0,0,0,.754.562h12.164a.788.788,0,0,0,.751-.553l3.432-11.013A.787.787,0,0,0,211.955,256.036Zm-4.245,10.978h-11l-2.814-9.44h16.755Z" transform="translate(-192.055 -256)"/>
        </g>
      </g>
      <g id="Grupo_177163" data-name="Grupo 177163" transform="translate(21.24 24.386)">
        <g id="Grupo_177162" data-name="Grupo 177162">
          <path id="Trazado_225924" data-name="Trazado 225924" d="M238.08,248a.787.787,0,0,0-.738.515l-5.317,14.432H216.054v1.573h3.933v1.718a2.36,2.36,0,1,0,1.573,0V264.52h7.08v1.718a2.36,2.36,0,1,0,1.573,0V264.52h2.36a.787.787,0,0,0,.738-.515l5.317-14.432h3.385V248Zm-17.306,21.24a.787.787,0,1,1,.787-.787A.787.787,0,0,1,220.774,269.24Zm8.653,0a.787.787,0,1,1,.787-.787A.787.787,0,0,1,229.427,269.24Z" transform="translate(-216.054 -248)"/>
        </g>
      </g>
      <g id="Grupo_177165" data-name="Grupo 177165" transform="translate(24.386 29.106)">
        <g id="Grupo_177164" data-name="Grupo 177164">
          <rect id="Rectángulo_57304" data-name="Rectángulo 57304" width="9.44" height="1.573"/>
        </g>
      </g>
      <g id="Grupo_177167" data-name="Grupo 177167" transform="translate(25.173 32.253)">
        <g id="Grupo_177166" data-name="Grupo 177166">
          <rect id="Rectángulo_57305" data-name="Rectángulo 57305" width="7.866" height="1.573"/>
        </g>
      </g>
      <g id="Grupo_177169" data-name="Grupo 177169" transform="translate(0 0)">
        <g id="Grupo_177168" data-name="Grupo 177168" transform="translate(0 0)">
          <path id="Trazado_225925" data-name="Trazado 225925" d="M23.423,14.39,9.264.231a.786.786,0,0,0-1.112,0h0L.285,8.1a.786.786,0,0,0,0,1.112h0l14.16,14.16A.786.786,0,0,0,15,23.6h7.866a.786.786,0,0,0,.787-.786h0V14.947A.787.787,0,0,0,23.423,14.39ZM22.08,22.026H15.326L1.953,8.653,8.707,1.9,22.08,15.272Z" transform="translate(-0.054 0)"/>
        </g>
      </g>
      <g id="Grupo_177171" data-name="Grupo 177171" transform="translate(34.619 6.287)">
        <g id="Grupo_177170" data-name="Grupo 177170">
          <path id="Trazado_225926" data-name="Trazado 225926" d="M357.78,64.579a2.169,2.169,0,0,0-3.067-.012l-.012.012a2.2,2.2,0,0,0-.141,2.878c.389.741.353.819.141,1.032a.6.6,0,1,1-.843-.842l-1.112-1.112a2.169,2.169,0,0,0,3.067,3.067,2.2,2.2,0,0,0,.14-2.875c-.39-.742-.353-.821-.14-1.034a.6.6,0,0,1,.843.842l1.112,1.112A2.169,2.169,0,0,0,357.78,64.579Z" transform="translate(-352.116 -63.937)"/>
        </g>
      </g>
      <g id="Grupo_177173" data-name="Grupo 177173" transform="translate(5.899 35.787)">
        <g id="Grupo_177172" data-name="Grupo 177172">
          <path id="Trazado_225927" data-name="Trazado 225927" d="M63.871,366.148l1.112,1.112a1.939,1.939,0,1,0-2.731-2.753l-.011.011a1.966,1.966,0,0,0-.141,2.552c.291.555.268.578.141.706a.365.365,0,0,1-.518-.515h0l-1.112-1.112a1.937,1.937,0,0,0,1.371,3.308h0a1.932,1.932,0,0,0,1.371-.567,1.964,1.964,0,0,0,.14-2.55c-.292-.557-.269-.58-.14-.709a.365.365,0,0,1,.519.515Z" transform="translate(-60.044 -363.945)"/>
        </g>
      </g>
      <g id="Grupo_177175" data-name="Grupo 177175" transform="translate(29.893 0)">
        <g id="Grupo_177174" data-name="Grupo 177174" transform="translate(0 0)">
          <path id="Trazado_225928" data-name="Trazado 225928" d="M321.13,5.737h0L315.623.23a.786.786,0,0,0-1.112,0h0L304.284,10.456a.787.787,0,0,0-.23.556v5.507a.786.786,0,0,0,.786.787h5.507a.786.786,0,0,0,.556-.23L321.13,6.849A.786.786,0,0,0,321.13,5.737Zm-11.109,10h-4.394V11.338l9.44-9.44,4.394,4.394Z" transform="translate(-304.054 0.001)"/>
        </g>
      </g>
      <g id="Grupo_177177" data-name="Grupo 177177" transform="translate(0 31.466)">
        <g id="Grupo_177176" data-name="Grupo 177176" transform="translate(0)">
          <path id="Trazado_225929" data-name="Trazado 225929" d="M15,320H9.494a.786.786,0,0,0-.556.23L.285,328.884a.786.786,0,0,0,0,1.112h0L5.791,335.5a.786.786,0,0,0,1.112,0h0l8.653-8.653a.787.787,0,0,0,.23-.556v-5.507A.787.787,0,0,0,15,320Zm-.787,5.967-7.866,7.866L1.953,329.44l7.866-7.867h4.394v4.394Z" transform="translate(-0.054 -320)"/>
        </g>
      </g>
      <g id="Grupo_177179" data-name="Grupo 177179" transform="translate(17.306 17.306)">
        <g id="Grupo_177178" data-name="Grupo 177178">
          <path id="Trazado_225930" data-name="Trazado 225930" d="M177.234,176a1.18,1.18,0,1,0,1.18,1.18A1.18,1.18,0,0,0,177.234,176Z" transform="translate(-176.054 -176)"/>
        </g>
      </g>
      <g id="Grupo_177181" data-name="Grupo 177181" transform="translate(7.31 7.31)">
        <g id="Grupo_177180" data-name="Grupo 177180">
          <path id="Trazado_225931" data-name="Trazado 225931" d="M82.973,81.806a2.624,2.624,0,0,0-.462-3.068c-1.305-1.306-2.642-.6-3.527-.14-.956.5-1.245.58-1.686.14a1.057,1.057,0,0,1,1.494-1.495L79.9,76.13a2.624,2.624,0,0,0-3.069-.462L75.51,74.343,74.4,75.455l1.326,1.326a2.624,2.624,0,0,0,.462,3.069c1.307,1.308,2.645.605,3.53.141.953-.5,1.242-.58,1.683-.141A1.057,1.057,0,1,1,79.9,81.344l-1.112,1.112a2.594,2.594,0,0,0,3.068.462l1.191,1.191L84.163,83Z" transform="translate(-74.398 -74.343)"/>
        </g>
      </g>
      <g id="Grupo_177183" data-name="Grupo 177183" transform="translate(29.106 18.88)">
        <g id="Grupo_177182" data-name="Grupo 177182">
          <rect id="Rectángulo_57306" data-name="Rectángulo 57306" width="1.573" height="1.573"/>
        </g>
      </g>
      <g id="Grupo_177185" data-name="Grupo 177185" transform="translate(29.106 22.026)">
        <g id="Grupo_177184" data-name="Grupo 177184">
          <rect id="Rectángulo_57307" data-name="Rectángulo 57307" width="1.573" height="1.573"/>
        </g>
      </g>
      <g id="Grupo_177187" data-name="Grupo 177187" transform="translate(15.733 25.173)">
        <g id="Grupo_177186" data-name="Grupo 177186">
          <rect id="Rectángulo_57308" data-name="Rectángulo 57308" width="1.573" height="1.573"/>
        </g>
      </g>
      <g id="Grupo_177189" data-name="Grupo 177189" transform="translate(15.733 28.319)">
        <g id="Grupo_177188" data-name="Grupo 177188">
          <rect id="Rectángulo_57309" data-name="Rectángulo 57309" width="1.573" height="1.573"/>
        </g>
      </g>
    </g>
  </g>
</svg>
