<svg xmlns="http://www.w3.org/2000/svg" width="27.741" height="49.157" viewBox="0 0 27.741 49.157">
  <g id="Grupo_179081" data-name="Grupo 179081" transform="translate(-1182.259 -209.627)">
    <path id="Trazado_229598" data-name="Trazado 229598" d="M-11566.326-11447.708v5.442h5.9v-6.132s9.655-1.609,10.192-10.04-10.192-11.266-10.192-11.266-9.734-4.827-4.676-7.434,11.649,1.226,11.649,1.226l1.763-6.591-8.736-2.223v-5.135h-5.9v6.131s-10.041,2.224-9.274,10.5,12.493,11.112,12.493,11.112,7.892,4.367,1.3,6.744a12.4,12.4,0,0,1-11.112-.919h-1.839l-.844,6.284,5.825,2.3Z" transform="translate(12759.333 11700)" fill="#e5e3e5"/>
    <g id="signo-de-dolares" transform="translate(1121.884 209.627)">
      <g id="Grupo_177194" data-name="Grupo 177194" transform="translate(60.375)">
        <path id="Trazado_225940" data-name="Trazado 225940" d="M72.683,35.015a19.584,19.584,0,0,1-9.144-2.428.964.964,0,0,0-1.4.607l-1.736,6.772a.964.964,0,0,0,.468,1.083A24.91,24.91,0,0,0,70.215,43.6v4.593a.964.964,0,0,0,.965.965h5.729a.964.964,0,0,0,.965-.965V43.03c6.252-1.33,10.243-5.753,10.243-11.448,0-5.728-3.066-9.255-10.244-11.789-4.58-1.652-6.366-2.776-6.366-4.012,0-1.484,1.462-2.334,4.012-2.334a17.149,17.149,0,0,1,7.917,1.931.966.966,0,0,0,1.351-.621l1.737-6.54a.964.964,0,0,0-.532-1.125A21.65,21.65,0,0,0,78.1,5.139V.965A.964.964,0,0,0,77.14,0H71.467A.964.964,0,0,0,70.5.965V5.68c-6.055,1.408-9.78,5.6-9.78,11.086,0,6.9,5.918,9.771,11.076,11.505,4.593,1.531,5.533,2.754,5.533,4.121C77.332,34.326,74.931,35.015,72.683,35.015Zm-.273-8.575c-6.841-2.3-9.759-5.194-9.759-9.675,0-4.8,3.362-8.3,8.992-9.353a.964.964,0,0,0,.787-.948V1.93h3.744V6.059a.965.965,0,0,0,.936.965,20.019,20.019,0,0,1,7.335,1.5l-1.228,4.626a18.45,18.45,0,0,0-7.7-1.628c-4.38,0-5.941,2.2-5.941,4.264,0,2.583,2.685,4.04,7.647,5.829,6.451,2.277,8.963,5.073,8.963,9.971,0,5.019-3.616,8.735-9.436,9.7a.964.964,0,0,0-.807.951v5h-3.8V42.7a.965.965,0,0,0-.921-.964A24.034,24.034,0,0,1,62.468,39.7l1.244-4.857a21.259,21.259,0,0,0,8.973,2.106c4,0,6.578-1.788,6.578-4.553C79.261,29.348,76.521,27.811,72.41,26.441Z" transform="translate(-60.375)" fill="#010002"/>
      </g>
    </g>
  </g>
</svg>
