<svg xmlns="http://www.w3.org/2000/svg" width="102.305" height="74.92" viewBox="0 0 102.305 74.92">
  <g id="Grupo_177193" data-name="Grupo 177193" transform="translate(-1105.68 -381.861)">
    <g id="Grupo_177075" data-name="Grupo 177075" transform="translate(-174.837 193.203)">
      <g id="Grupo_172887" data-name="Grupo 172887" transform="translate(21.184 -56.342)">
        <g id="Grupo_172852" data-name="Grupo 172852" transform="translate(1259.333 245)">
          <g id="Grupo_156170" data-name="Grupo 156170">
            <g id="Grupo_156148" data-name="Grupo 156148">
              <path id="Trazado_196507" data-name="Trazado 196507" d="M135.283,352.67c0-19.071.222-35.678,0-53.582-26.72,0-53.576.777-80.5.494-.257,18.247,0,35.41,0,53.152Q95.146,352.733,135.283,352.67Z" transform="translate(-54.154 -298.568)" fill="#fff"/>
              <path id="Trazado_196508" data-name="Trazado 196508" d="M54.785,353.251a.52.52,0,0,1-.519-.518c0-5.915-.029-11.864-.057-17.616-.056-11.493-.115-23.376.057-35.543a.521.521,0,0,1,.525-.513c15.547.164,31.318-.029,46.569-.216,11.129-.137,22.635-.277,33.921-.277a.52.52,0,0,1,.519.513c.148,11.813.1,22.989.052,34.822-.025,6.034-.052,12.275-.052,18.767a.519.519,0,0,1-.519.519c-13.368,0-26.982.016-40.147.032C81.921,353.235,68.256,353.251,54.785,353.251ZM55.3,300.1c-.164,11.977-.106,23.681-.051,35.007.028,5.585.056,11.355.058,17.1,13.3,0,26.784-.016,39.83-.032,12.994-.015,26.426-.031,39.628-.031,0-6.308.027-12.378.051-18.253.049-11.656.095-22.675-.045-34.292-11.115,0-22.438.144-33.4.278C86.285,300.068,70.688,300.258,55.3,300.1Z" transform="translate(-54.152 -298.567)"/>
            </g>
            <g id="Grupo_156149" data-name="Grupo 156149">
              <path id="Trazado_196509" data-name="Trazado 196509" d="M135.283,352.67c0-19.071.222-35.678,0-53.582-26.72,0-53.576.777-80.5.494-.257,18.247,0,35.41,0,53.152Q95.146,352.733,135.283,352.67Z" transform="translate(-54.154 -298.568)" fill="#fff"/>
              <path id="Trazado_196510" data-name="Trazado 196510" d="M54.785,353.251a.52.52,0,0,1-.519-.518c0-5.915-.029-11.864-.057-17.616-.056-11.493-.115-23.376.057-35.543a.521.521,0,0,1,.525-.513c15.547.164,31.318-.029,46.569-.216,11.129-.137,22.635-.277,33.921-.277a.52.52,0,0,1,.519.513c.148,11.813.1,22.989.052,34.822-.025,6.034-.052,12.275-.052,18.767a.519.519,0,0,1-.519.519c-13.368,0-26.982.016-40.147.032C81.921,353.235,68.256,353.251,54.785,353.251ZM55.3,300.1c-.164,11.977-.106,23.681-.051,35.007.028,5.585.056,11.355.058,17.1,13.3,0,26.784-.016,39.83-.032,12.994-.015,26.426-.031,39.628-.031,0-6.308.027-12.378.051-18.253.049-11.656.095-22.675-.045-34.292-11.115,0-22.438.144-33.4.278C86.285,300.068,70.688,300.258,55.3,300.1Z" transform="translate(-54.152 -298.567)"/>
            </g>
            <g id="Grupo_156150" data-name="Grupo 156150" transform="translate(48.75 18.342)">
              <path id="Trazado_196511" data-name="Trazado 196511" d="M95.723,320.251c-.606,0-1.1-.232-1.1-.519s.492-.52,1.1-.52l23.968-.009h0c.606,0,1.1.232,1.1.518s-.492.519-1.1.519l-23.968.01Z" transform="translate(-94.624 -319.203)"/>
            </g>
            <g id="Grupo_172863" data-name="Grupo 172863" transform="translate(48.75 11.612)">
              <path id="Trazado_196511-2" data-name="Trazado 196511" d="M95.723,320.251c-.606,0-1.1-.232-1.1-.519s.492-.52,1.1-.52l23.968-.009h0c.606,0,1.1.232,1.1.518s-.492.519-1.1.519l-23.968.01Z" transform="translate(-94.624 -319.203)"/>
            </g>
            <g id="Grupo_156151" data-name="Grupo 156151" transform="translate(48.75 25.071)">
              <path id="Trazado_196512" data-name="Trazado 196512" d="M95.694,330.439c-.59,0-1.069-.232-1.071-.519s.479-.52,1.071-.52l24.677-.01h0c.59,0,1.069.232,1.069.519s-.477.52-1.069.52l-24.677.01Z" transform="translate(-94.624 -329.391)"/>
            </g>
            <g id="Grupo_177078" data-name="Grupo 177078" transform="translate(48.75 31.801)">
              <path id="Trazado_196512-2" data-name="Trazado 196512" d="M95.694,330.439c-.59,0-1.069-.232-1.071-.519s.479-.52,1.071-.52l24.677-.01h0c.59,0,1.069.232,1.069.519s-.477.52-1.069.52l-24.677.01Z" transform="translate(-94.624 -329.391)"/>
            </g>
            <g id="Grupo_156152" data-name="Grupo 156152" transform="translate(11.043 45.163)">
              <path id="Trazado_196513" data-name="Trazado 196513" d="M65.746,340.448a.519.519,0,1,1,0-1.039l36.993-.01a.519.519,0,0,1,0,1.039Z" transform="translate(-65.227 -339.399)"/>
            </g>
            <g id="Grupo_156153" data-name="Grupo 156153" transform="translate(55.252 27.867)">
              <circle id="Elipse_6030" data-name="Elipse 6030" cx="16.636" cy="16.636" r="16.636" transform="translate(0 23.527) rotate(-45)" fill="#fff"/>
              <path id="Trazado_196514" data-name="Trazado 196514" d="M133.109,342.569a17.155,17.155,0,1,1,17.155-17.155A17.174,17.174,0,0,1,133.109,342.569Zm0-33.272a16.117,16.117,0,1,0,16.117,16.116A16.135,16.135,0,0,0,133.109,309.3Z" transform="translate(-109.583 -301.887)"/>
            </g>
            <g id="Grupo_156165" data-name="Grupo 156165" transform="translate(-1.877 -5.901)">
              <g id="Grupo_172861" data-name="Grupo 172861" transform="translate(73.439 8.207)">
                <g id="Grupo_156163" data-name="Grupo 156163" transform="translate(0 0)">
                  <path id="Trazado_196526" data-name="Trazado 196526" d="M83.526,316.435a.135.135,0,0,1-.082-.027c-1.974-1.426-3.925-2.939-5.8-4.5a.14.14,0,1,1,.178-.215c1.869,1.553,3.815,3.062,5.784,4.485a.139.139,0,0,1,.031.195A.137.137,0,0,1,83.526,316.435Z" transform="translate(-77.594 -311.665)"/>
                </g>
                <g id="Grupo_156164" data-name="Grupo 156164" transform="translate(3.739 0.05)">
                  <path id="Trazado_196527" data-name="Trazado 196527" d="M84.537,313.7a.14.14,0,0,1-.091-.034c-.688-.587-1.413-1.153-2.153-1.681a.14.14,0,1,1,.162-.228c.747.533,1.477,1.1,2.173,1.7a.14.14,0,0,1-.091.246Z" transform="translate(-82.235 -311.727)"/>
                </g>
              </g>
            </g>
            <g id="Grupo_156169" data-name="Grupo 156169" transform="translate(64.107 55.913)">
              <g id="Grupo_156167" data-name="Grupo 156167" opacity="0.129">
                <path id="Trazado_196529" data-name="Trazado 196529" d="M148.746,330.032c-.656-.187-.965.409-1.263.867-.463.64-.9,1.3-1.377,1.928l-.031.04a9.273,9.273,0,0,1-.8.94,11.528,11.528,0,0,0-1.357,1.309c-.252.28-.52.543-.8.8l-.08.047a1.505,1.505,0,0,0-.152.1l-.108.073c-.852.561-1.7,1.134-2.594,1.628a19.136,19.136,0,0,1-4.6,1.322,13.883,13.883,0,0,1-5.335-.517,19.328,19.328,0,0,1-3.507-1.18c-.149-.065-.244-.1-.263-.11a22.467,22.467,0,0,1-3.013-1.478,18.9,18.9,0,0,1-2.569-2.1c-.025-.02-.051-.039-.076-.06l-.014-.011.011.009c-.4-.335-.777-.768-1.319-.777a1.064,1.064,0,0,0-.747,1.8c1.2.953,2.068,2.271,3.393,3.082a38.025,38.025,0,0,0,5.051,2.779,21.668,21.668,0,0,0,5.828,1.253,14.167,14.167,0,0,0,4.232-.569,16.39,16.39,0,0,0,4.965-2.117,8.474,8.474,0,0,0,2.138-1.7,21.564,21.564,0,0,0,1.723-1.922,25.542,25.542,0,0,0,2.63-3.406,3.392,3.392,0,0,0,.634-1.118A.823.823,0,0,0,148.746,330.032Z" transform="translate(-118.445 -329.997)"/>
              </g>
              <g id="Grupo_156168" data-name="Grupo 156168" transform="translate(2.37 3.644)" opacity="0.129">
                <path id="Trazado_196530" data-name="Trazado 196530" d="M120.9,333.713c.043.034.085.068.128.1l-.206-.16,0,0Z" transform="translate(-120.822 -333.651)"/>
              </g>
            </g>
          </g>
        </g>
        <g id="Grupo_156154" data-name="Grupo 156154" transform="translate(1325.635 285.018)">
          <path id="Trazado_196515" data-name="Trazado 196515" d="M124.4,325.308l3.679-3.679,5.661,7.906,8.1-13.482,4.517,3.421-12.109,18.888Z" transform="translate(-123.69 -315.346)" fill="#43a99b"/>
          <path id="Trazado_196516" data-name="Trazado 196516" d="M134.432,339.254a.709.709,0,0,1-.563-.281l-9.85-13.055a.706.706,0,0,1,.064-.925l3.679-3.678a.707.707,0,0,1,1.075.088l5.034,7.031,7.548-12.561a.706.706,0,0,1,1.033-.2l4.517,3.421a.708.708,0,0,1,.168.944l-12.109,18.888a.706.706,0,0,1-.569.324Zm-8.915-13.7,8.869,11.755,11.208-17.485-3.369-2.551-7.7,12.806a.706.706,0,0,1-1.179.047l-5.175-7.228Z" transform="translate(-123.876 -315.532)" fill="#43a99b"/>
        </g>
      </g>
    </g>
    <g id="cupon-de-descuento" transform="translate(1112.881 328.75)">
      <g id="Grupo_177191" data-name="Grupo 177191" transform="translate(0 64)">
        <g id="Grupo_177190" data-name="Grupo 177190">
          <path id="Trazado_225932" data-name="Trazado 225932" d="M34.011,73.407a.723.723,0,0,0,.724-.724V66.895A2.9,2.9,0,0,0,31.84,64H2.895A2.9,2.9,0,0,0,0,66.895v5.789a.723.723,0,0,0,.724.724,3.618,3.618,0,0,1,0,7.236A.723.723,0,0,0,0,81.367v5.789a2.9,2.9,0,0,0,2.895,2.895H31.84a2.9,2.9,0,0,0,2.894-2.895V81.367a.723.723,0,0,0-.724-.724,3.618,3.618,0,1,1,0-7.236Zm-5.065,3.618a5.073,5.073,0,0,0,4.342,5.014v5.117A1.449,1.449,0,0,1,31.84,88.6H2.895a1.449,1.449,0,0,1-1.447-1.447V82.039a5.066,5.066,0,0,0,0-10.028V66.895a1.449,1.449,0,0,1,1.447-1.447H31.84a1.449,1.449,0,0,1,1.447,1.447v5.117A5.073,5.073,0,0,0,28.945,77.025Z" transform="translate(0 -64)"/>
          <path id="Trazado_225933" data-name="Trazado 225933" d="M128.724,104a.723.723,0,0,0-.724.724v1.628a.724.724,0,1,0,1.447,0v-1.628A.723.723,0,0,0,128.724,104Z" transform="translate(-119.316 -101.286)"/>
          <path id="Trazado_225934" data-name="Trazado 225934" d="M128.724,192a.723.723,0,0,0-.724.724v1.447a.724.724,0,1,0,1.447,0v-1.447A.723.723,0,0,0,128.724,192Z" transform="translate(-119.316 -183.316)"/>
          <path id="Trazado_225935" data-name="Trazado 225935" d="M128.724,277.333a.723.723,0,0,0-.724.724V279.5a.724.724,0,1,0,1.447,0v-1.447A.723.723,0,0,0,128.724,277.333Z" transform="translate(-119.316 -262.86)"/>
          <path id="Trazado_225936" data-name="Trazado 225936" d="M128.724,362.667a.723.723,0,0,0-.724.724v1.447a.724.724,0,0,0,1.447,0v-1.447A.723.723,0,0,0,128.724,362.667Z" transform="translate(-119.316 -342.405)"/>
          <path id="Trazado_225937" data-name="Trazado 225937" d="M223.139,149.452a.723.723,0,0,0-1,.2l-8.684,13.025a.724.724,0,1,0,1.2.8l8.684-13.025A.723.723,0,0,0,223.139,149.452Z" transform="translate(-198.857 -143.541)"/>
          <path id="Trazado_225938" data-name="Trazado 225938" d="M197.789,152.952c0-1.995-1.3-3.618-2.895-3.618S192,150.957,192,152.952s1.3,3.618,2.895,3.618S197.789,154.947,197.789,152.952Zm-4.342,0c0-1.177.663-2.171,1.447-2.171s1.447.994,1.447,2.171-.663,2.171-1.447,2.171S193.447,154.129,193.447,152.952Z" transform="translate(-178.975 -143.545)"/>
          <path id="Trazado_225939" data-name="Trazado 225939" d="M301.561,256c-1.6,0-2.895,1.623-2.895,3.618s1.3,3.618,2.895,3.618,2.895-1.623,2.895-3.618S303.157,256,301.561,256Zm0,5.789c-.784,0-1.447-.994-1.447-2.171s.663-2.171,1.447-2.171,1.447.994,1.447,2.171S302.345,261.789,301.561,261.789Z" transform="translate(-278.404 -242.975)"/>
        </g>
      </g>
    </g>
  </g>
</svg>
