<svg xmlns="http://www.w3.org/2000/svg" width="85" height="85" viewBox="0 0 85 85">
  <g id="Grupo_181329" data-name="Grupo 181329" transform="translate(-495 -1902)">
    <g id="Grupo_177947" data-name="Grupo 177947" transform="translate(-74 51)">
      <path id="Trazado_227961" data-name="Trazado 227961" d="M42.5,0A42.5,42.5,0,1,1,0,42.5,42.5,42.5,0,0,1,42.5,0Z" transform="translate(569 1851)" fill="#ecf3fb"/>
      <path id="Intersección_11" data-name="Intersección 11" d="M5.556,63.107A41.856,41.856,0,0,1,0,42.206,42.447,42.447,0,0,1,68.444,8.893,41.868,41.868,0,0,1,74,29.792,42.447,42.447,0,0,1,5.556,63.107Z" transform="translate(569 1851)" fill="#fff"/>
    </g>
    <g id="like_1_" data-name="like (1)" transform="translate(509.701 1909.521)">
      <path id="Trazado_228140" data-name="Trazado 228140" d="M0,141.163a1.853,1.853,0,0,0,1.853,1.853h11.12a5.553,5.553,0,0,0,4.388-2.152,46.232,46.232,0,0,0,13.95,2.152H46.332a5.557,5.557,0,0,0,5.167-7.609,5.555,5.555,0,0,0,2.679-9.071,5.547,5.547,0,0,0,0-7.413,5.556,5.556,0,0,0-4.14-9.267H39.894q.216-.511.444-1.038c1.125-2.608,2.287-5.3,2.287-8.229A9.366,9.366,0,0,0,33.359,91a1.853,1.853,0,0,0-1.817,1.49L30.6,97.222c-1.243,6.215-2.616,6.919-7.725,9.537-1.35.692-2.937,1.5-4.788,2.56a5.569,5.569,0,0,0-5.11-3.369H1.853A1.853,1.853,0,0,0,0,107.8ZM24.56,110.058c2.766-1.418,4.765-2.441,6.329-4.174,1.6-1.773,2.568-4.071,3.341-7.934l.606-3.03a5.76,5.76,0,0,1,4.083,5.471c0,2.159-1.009,4.5-1.985,6.761-.354.821-.715,1.66-1.036,2.505H33.359a1.853,1.853,0,0,0,0,3.707h16.68a1.853,1.853,0,1,1,0,3.707H46.332a1.853,1.853,0,1,0,0,3.707h3.707a1.853,1.853,0,1,1,0,3.707H46.332a1.853,1.853,0,1,0,0,3.707h3.707a1.853,1.853,0,1,1,0,3.707H46.332a1.853,1.853,0,1,0,0,3.707,1.853,1.853,0,1,1,0,3.707H31.311a42.54,42.54,0,0,1-12.778-1.961v-24c2.389-1.425,4.388-2.449,6.028-3.29Zm-20.854-.4h9.267a1.856,1.856,0,0,1,1.853,1.853v25.946a1.856,1.856,0,0,1-1.853,1.853H3.706Zm0,0" transform="translate(0 -79.757)"/>
      <path id="Trazado_228141" data-name="Trazado 228141" d="M63.707,423.853A1.853,1.853,0,1,1,61.853,422,1.853,1.853,0,0,1,63.707,423.853Zm0,0" transform="translate(-52.587 -369.861)"/>
      <path id="Trazado_228142" data-name="Trazado 228142" d="M270,1.853v3.83a1.853,1.853,0,0,0,3.707,0V1.853a1.853,1.853,0,0,0-3.707,0Zm0,0" transform="translate(-236.641)"/>
      <path id="Trazado_228143" data-name="Trazado 228143" d="M341.95,35.936l-2.621,2.621a1.853,1.853,0,0,0,2.621,2.621l2.621-2.621a1.853,1.853,0,0,0-2.621-2.621Zm0,0" transform="translate(-296.928 -31.021)"/>
      <path id="Trazado_228144" data-name="Trazado 228144" d="M180.543,35.936a1.853,1.853,0,0,0,0,2.621l2.621,2.621a1.853,1.853,0,0,0,2.621-2.621l-2.621-2.621A1.853,1.853,0,0,0,180.543,35.936Zm0,0" transform="translate(-157.761 -31.021)"/>
    </g>
  </g>
</svg>
