<svg xmlns="http://www.w3.org/2000/svg" width="85" height="85" viewBox="0 0 85 85">
  <g id="Grupo_181334" data-name="Grupo 181334" transform="translate(-99 9269.58)">
    <g id="Grupo_177976" data-name="Grupo 177976" transform="translate(-470 -11120.58)">
      <path id="Trazado_227961" data-name="Trazado 227961" d="M42.5,0A42.5,42.5,0,1,1,0,42.5,42.5,42.5,0,0,1,42.5,0Z" transform="translate(569 1851)" fill="#ecf3fb"/>
      <path id="Intersección_11" data-name="Intersección 11" d="M5.556,63.107A41.856,41.856,0,0,1,0,42.206,42.447,42.447,0,0,1,68.444,8.893,41.868,41.868,0,0,1,74,29.792,42.447,42.447,0,0,1,5.556,63.107Z" transform="translate(569 1851)" fill="#fff"/>
    </g>
    <g id="precaucion" transform="translate(114 -9256.58)">
      <g id="Grupo_177977" data-name="Grupo 177977" transform="translate(25.827 2)">
        <path id="Trazado_228182" data-name="Trazado 228182" d="M16.833,11.164A1.834,1.834,0,0,1,15,9.331v-5.5a1.833,1.833,0,1,1,3.666,0v5.5A1.834,1.834,0,0,1,16.833,11.164Z" transform="translate(-15 -2)"/>
      </g>
      <g id="Grupo_177978" data-name="Grupo 177978" transform="translate(34.991 5.665)">
        <path id="Trazado_228183" data-name="Trazado 228183" d="M21.833,11.332a1.833,1.833,0,0,1-1.3-3.129L24.2,4.537a1.833,1.833,0,0,1,2.592,2.592l-3.666,3.666A1.828,1.828,0,0,1,21.833,11.332Z" transform="translate(-20 -4)"/>
      </g>
      <g id="Grupo_177979" data-name="Grupo 177979" transform="translate(12.997 5.665)">
        <path id="Trazado_228184" data-name="Trazado 228184" d="M13.5,11.332a1.828,1.828,0,0,1-1.3-.537L8.537,7.129a1.833,1.833,0,0,1,2.592-2.592L14.795,8.2a1.833,1.833,0,0,1-1.3,3.129Z" transform="translate(-8 -4)"/>
      </g>
      <g id="Grupo_177980" data-name="Grupo 177980" transform="translate(42.323 12.994)">
        <path id="Trazado_228185" data-name="Trazado 228185" d="M25.833,13.5a1.833,1.833,0,0,1-.579-3.572l5.5-1.833a1.833,1.833,0,0,1,1.16,3.477l-5.5,1.833A1.8,1.8,0,0,1,25.833,13.5Z" transform="translate(-24 -7.999)"/>
      </g>
      <g id="Grupo_177981" data-name="Grupo 177981" transform="translate(3.832 12.994)">
        <path id="Trazado_228186" data-name="Trazado 228186" d="M10.332,13.5a1.834,1.834,0,0,1-.579-.1l-5.5-1.833A1.832,1.832,0,1,1,5.413,8.095l5.5,1.833a1.833,1.833,0,0,1-.579,3.572Z" transform="translate(-2.999 -7.999)"/>
      </g>
      <path id="Trazado_228187" data-name="Trazado 228187" d="M51.487,39.158h-5.5V26.328a18.328,18.328,0,0,0-36.657,0v12.83h-5.5A1.832,1.832,0,0,0,2,40.991v5.5a1.832,1.832,0,0,0,1.833,1.833H51.487A1.831,1.831,0,0,0,53.32,46.49v-5.5A1.831,1.831,0,0,0,51.487,39.158ZM13,26.328a14.663,14.663,0,0,1,29.326,0v12.83H33.158V29.344A7.224,7.224,0,0,0,34.991,24.5a7.331,7.331,0,0,0-14.663-.013,7.218,7.218,0,0,0,1.833,4.859v9.817H13Zm12.83,12.83V28.583a1.832,1.832,0,0,0-.623-1.376,3.567,3.567,0,0,1-1.21-2.711,3.666,3.666,0,1,1,7.331.013,3.564,3.564,0,0,1-1.21,2.7,1.831,1.831,0,0,0-.623,1.375V39.158Zm23.827,5.5H5.666V42.824H49.654Z" transform="translate(0 4.997)"/>
    </g>
  </g>
</svg>
