<svg xmlns="http://www.w3.org/2000/svg" width="85" height="85" viewBox="0 0 85 85">
  <g id="Grupo_181332" data-name="Grupo 181332" transform="translate(-99 9639.58)">
    <g id="Grupo_177975" data-name="Grupo 177975" transform="translate(-470 -11490.58)">
      <path id="Trazado_227961" data-name="Trazado 227961" d="M42.5,0A42.5,42.5,0,1,1,0,42.5,42.5,42.5,0,0,1,42.5,0Z" transform="translate(569 1851)" fill="#ecf3fb"/>
      <path id="Intersección_11" data-name="Intersección 11" d="M5.556,63.107A41.856,41.856,0,0,1,0,42.206,42.447,42.447,0,0,1,68.444,8.893,41.868,41.868,0,0,1,74,29.792,42.447,42.447,0,0,1,5.556,63.107Z" transform="translate(569 1851)" fill="#fff"/>
    </g>
    <g id="chat" transform="translate(114.217 -9625.58)">
      <path id="Trazado_228164" data-name="Trazado 228164" d="M3.531,25.882,8,22.9H31.93a1.628,1.628,0,0,0,1.628-1.628V1.628A1.628,1.628,0,0,0,31.93,0H2.628A1.628,1.628,0,0,0,1,1.628v22.9A1.629,1.629,0,0,0,3.531,25.882ZM4.256,3.256H30.3V19.644H7.512a1.628,1.628,0,0,0-.9.273L4.256,21.485Z" transform="translate(-0.891)"/>
      <path id="Trazado_228165" data-name="Trazado 228165" d="M241.15,271.249l-4.587,2.991H212.628A1.628,1.628,0,0,0,211,275.868v19.644a1.628,1.628,0,0,0,1.628,1.628h29.411a1.628,1.628,0,0,0,1.628-1.628v-22.9A1.629,1.629,0,0,0,241.15,271.249Zm-.739,22.635H214.256V277.5h22.791a1.627,1.627,0,0,0,.889-.264l2.475-1.614Z" transform="translate(-188.101 -241.574)"/>
      <path id="Trazado_228166" data-name="Trazado 228166" d="M43.023,277.512a6.512,6.512,0,1,0-6.512,6.512A6.519,6.519,0,0,0,43.023,277.512Zm-6.512,3.256a3.256,3.256,0,1,1,3.256-3.256A3.26,3.26,0,0,1,36.512,280.767Z" transform="translate(-26.744 -241.589)"/>
      <path id="Trazado_228167" data-name="Trazado 228167" d="M9.768,391A9.779,9.779,0,0,0,0,400.767V402.4a1.628,1.628,0,0,0,1.628,1.628H17.907a1.628,1.628,0,0,0,1.628-1.628v-1.628A9.779,9.779,0,0,0,9.768,391Zm-6.512,9.767a6.512,6.512,0,0,1,13.023,0Z" transform="translate(0 -348.566)"/>
      <path id="Trazado_228168" data-name="Trazado 228168" d="M375.023,6.512a6.512,6.512,0,1,0-6.512,6.512A6.519,6.519,0,0,0,375.023,6.512Zm-6.512,3.256a3.256,3.256,0,1,1,3.256-3.256A3.26,3.26,0,0,1,368.512,9.768Z" transform="translate(-322.713)"/>
      <path id="Trazado_228169" data-name="Trazado 228169" d="M341.767,120A9.779,9.779,0,0,0,332,129.768V131.4a1.628,1.628,0,0,0,1.628,1.628h16.279a1.628,1.628,0,0,0,1.628-1.628v-1.628A9.779,9.779,0,0,0,341.767,120Zm-6.512,9.768a6.512,6.512,0,1,1,13.023,0Z" transform="translate(-295.969 -106.977)"/>
      <path id="Trazado_228170" data-name="Trazado 228170" d="M62.628,64.256H78.907a1.628,1.628,0,1,0,0-3.256H62.628a1.628,1.628,0,1,0,0,3.256Z" transform="translate(-54.38 -54.38)"/>
      <path id="Trazado_228171" data-name="Trazado 228171" d="M62.628,124.256H72.4a1.628,1.628,0,0,0,0-3.256H62.628a1.628,1.628,0,0,0,0,3.256Z" transform="translate(-54.38 -107.868)"/>
      <path id="Trazado_228172" data-name="Trazado 228172" d="M288.907,361H272.628a1.628,1.628,0,0,0,0,3.256h16.279a1.628,1.628,0,0,0,0-3.256Z" transform="translate(-241.589 -321.822)"/>
      <path id="Trazado_228173" data-name="Trazado 228173" d="M282.4,421h-9.767a1.628,1.628,0,0,0,0,3.256H282.4a1.628,1.628,0,1,0,0-3.256Z" transform="translate(-241.589 -375.31)"/>
    </g>
  </g>
</svg>
