<svg xmlns="http://www.w3.org/2000/svg" width="102" height="102" viewBox="0 0 102 102">
  <g id="Grupo_181330" data-name="Grupo 181330" transform="translate(-641 -996.679)">
    <circle id="Elipse_1142" data-name="Elipse 1142" cx="51" cy="51" r="51" transform="translate(641 996.679)" fill="#e1d3f6"/>
    <path id="Intersección_11" data-name="Intersección 11" d="M7200.683,3318.933A51,51,0,1,1,7232,3329.678,50.762,50.762,0,0,1,7200.683,3318.933Z" transform="translate(-6553 -2246)" fill="#ece5f7"/>
    <g id="escucha" transform="translate(656.467 1004.548)">
      <path id="Trazado_227439" data-name="Trazado 227439" d="M62.8,316.768c5.876-1.451,9.7-1.41,13,.487l-5.208-9.947c-2.961-5.662-5.291-9.1-11.45-9.432a12.758,12.758,0,0,1-3.624-.629l-28.1.459c-.1-.142-.227-.289-.309-.432a12.849,12.849,0,0,1-3.556.6c-6.158.33-8.483,3.77-11.449,9.432l-5.209,9.947c3.3-1.9,7.121-1.938,13-.487Zm0,0" transform="translate(-5.816 -250.717)" fill="#8ebfe8" fill-rule="evenodd"/>
      <path id="Trazado_227440" data-name="Trazado 227440" d="M131.877,26.584a1.2,1.2,0,0,1-1.2-1.2V18.667a15.054,15.054,0,0,0-5.564-12.154,19.869,19.869,0,0,0-12.5-4.111c-8.853,0-18.382,5.273-18.382,16.849v6.133a1.2,1.2,0,0,1-2.4,0V19.25A18.027,18.027,0,0,1,98.4,4.771a23.5,23.5,0,0,1,28.225-.126,17.38,17.38,0,0,1,6.456,14.021v6.716a1.2,1.2,0,0,1-1.2,1.2Zm0,0" transform="translate(-77.454 0)" fill="#37474f"/>
      <g id="Grupo_177825" data-name="Grupo 177825" transform="translate(-0.001 5.325)">
        <path id="Trazado_227441" data-name="Trazado 227441" d="M99.958,152.853l-5.3-4.822H92.465a3.251,3.251,0,0,0-1.675.464,3.343,3.343,0,0,0-1.617,2.866v2.2a3.323,3.323,0,0,0,3.293,3.329h2.421Zm0,0" transform="translate(-75.213 -130.184)" fill="#0b67d1" fill-rule="evenodd"/>
        <path id="Trazado_227442" data-name="Trazado 227442" d="M299.221,148.008l-4.4,4.436,4.178,4.418h2.421a3.32,3.32,0,0,0,3.293-3.329v-2.2a3.343,3.343,0,0,0-1.617-2.862,3.209,3.209,0,0,0-1.676-.468Zm0,0" transform="translate(-248.667 -130.161)" fill="#0b67d1" fill-rule="evenodd"/>
        <path id="Trazado_227443" data-name="Trazado 227443" d="M146.431,55.1h8.9V49.27c-.122-21.6-31.109-18.714-31.109-1v6.838h1.943c1.517,0,2.4-.661,3.515-2.282,2.5-3.642,3.166-2.3,6.068-.528,2.112,1.29,4.637,2.806,10.682,2.806Zm0,0" transform="translate(-104.778 -34.017)" fill="#546e7a" fill-rule="evenodd"/>
        <path id="Trazado_227444" data-name="Trazado 227444" d="M136.34,259.5c5.314,8.142,23.6,7.416,28.1-.459a8.914,8.914,0,0,1-3.842-2.811c-.436-.51-1.653-1.713-1.717-1.8l-7.961-2.476-9.737,2.972c-.4.413-.972.992-1.244,1.309a8.9,8.9,0,0,1-3.91,2.838c.081.142.213.289.309.432Zm0,0" transform="translate(-114.737 -217.832)" fill="#ffc094" fill-rule="evenodd"/>
        <path id="Trazado_227445" data-name="Trazado 227445" d="M14.081,416.466c-5.881-1.451-9.705-1.41-13,.487-3.933,7.513,3.479,9.451,12.594,9.451h1.4l5.709-6.071Zm0,0" transform="translate(0.001 -355.739)" fill="#ffc094" fill-rule="evenodd"/>
        <path id="Trazado_227446" data-name="Trazado 227446" d="M336.98,416.466l-5.027,4.753,4.033,5.185h1.4c9.11,0,16.522-1.938,12.589-9.451C346.681,415.056,342.857,415.015,336.98,416.466Zm0,0" transform="translate(-279.991 -355.739)" fill="#ffc094" fill-rule="evenodd"/>
        <path id="Trazado_227447" data-name="Trazado 227447" d="M155.331,123.314h-8.9c-6.045,0-8.57-1.52-10.682-2.806-2.9-1.778-3.565-3.118-6.068.528-1.113,1.621-2,2.278-3.515,2.278h-1.943v6.723a10.589,10.589,0,0,0,.227,2.136,19.062,19.062,0,0,0,6.776,10.379,17.524,17.524,0,0,0,4.16,2.507c.168.069.341.138.513.2a9.9,9.9,0,0,0,7.775,0,17.677,17.677,0,0,0,5.25-3.2,18.887,18.887,0,0,0,6.181-9.888,10.538,10.538,0,0,0,.227-2.131v-6.723Zm0,0" transform="translate(-104.777 -105.467)" fill="#ffc094" fill-rule="evenodd"/>
        <path id="Trazado_227448" data-name="Trazado 227448" d="M222.7,154.754a10.5,10.5,0,0,1-.227,2.131,18.371,18.371,0,0,1-5.068,8.85c-.358.358-.726.707-1.112,1.038a17.677,17.677,0,0,1-5.25,3.2,15.705,15.705,0,0,1-1.671.523,9.763,9.763,0,0,0,6.121-.523,17.661,17.661,0,0,0,5.25-3.2,18.885,18.885,0,0,0,6.181-9.888,10.538,10.538,0,0,0,.227-2.131v-6.723H222.7Zm0,0" transform="translate(-176.6 -130.184)" fill="#ff8d70" fill-rule="evenodd" opacity="0.35"/>
        <path id="Trazado_227449" data-name="Trazado 227449" d="M179.282,269.47c-.49-.552-1.567-1.622-1.631-1.708a17.661,17.661,0,0,1-5.25,3.2,9.9,9.9,0,0,1-7.775,0c-.172-.064-.345-.133-.513-.2a17.539,17.539,0,0,1-4.16-2.507c-.4.413-.972.992-1.244,1.309-.145.165-.286.326-.427.478a19.949,19.949,0,0,0,1.672,1.5,17.349,17.349,0,0,0,4.16,2.5c.168.073.341.142.513.207a9.877,9.877,0,0,0,7.775-.01c2.793-1.01,2.993-1.984,4.95-.2a18.659,18.659,0,0,0,2.335,1.828,10.1,10.1,0,0,0,3.524-3.5,8.913,8.913,0,0,1-3.842-2.81.293.293,0,0,0-.1-.078Zm0,0" transform="translate(-133.505 -231.173)" fill="#ff8d70" fill-rule="evenodd"/>
        <path id="Trazado_227450" data-name="Trazado 227450" d="M195.1,34.708c7.753-.22,15.5,4.459,15.564,15.243v1.924h4.451v-2.6C215.04,36.408,204,32.233,195.1,34.708Zm0,0" transform="translate(-164.558 -34.028)" fill="#37474f" fill-rule="evenodd"/>
        <path id="Trazado_227451" data-name="Trazado 227451" d="M15.076,444.221l-.4-4H13.414c-6.068,0-11.381-.859-13.093-3.651-1.894,6.03,5.018,7.651,13.356,7.651Zm0,0" transform="translate(-0.004 -373.557)" fill="#ffae88" fill-rule="evenodd"/>
        <path id="Trazado_227452" data-name="Trazado 227452" d="M358.115,436.907l-.4,4h1.4c8.611,0,15.7-1.731,13.134-8.266-1.276,3.284-6.908,4.266-13.4,4.266Zm0,0" transform="translate(-301.72 -370.243)" fill="#ffae88" fill-rule="evenodd"/>
        <path id="Trazado_227453" data-name="Trazado 227453" d="M104.564,361.613H87.01a1.867,1.867,0,0,0-1.912,1.933l.754,7.513L86.843,381l.223,2.228a2,2,0,0,0,1.911,1.929h36.655a2,2,0,0,0,1.911-1.929l.223-2.228.995-9.938.749-7.513a1.866,1.866,0,0,0-1.911-1.933Zm0,0" transform="translate(-71.771 -310.333)" fill="#eceff1" fill-rule="evenodd"/>
        <path id="Trazado_227454" data-name="Trazado 227454" d="M299.205,301.867c6.159.335,8.574,2.953,11.449,9.432l2.325,4.445a11.55,11.55,0,0,1,5.722,1.507l-5.208-9.947c-2.961-5.662-5.291-9.1-11.45-9.433a12.715,12.715,0,0,1-3.624-.629,10.1,10.1,0,0,1-3.524,3.5C294.537,300.958,298.479,301.831,299.205,301.867Zm0,0" transform="translate(-248.715 -256.038)" fill="#519ad6" fill-rule="evenodd"/>
        <path id="Trazado_227455" data-name="Trazado 227455" d="M94.889,172.181a10.59,10.59,0,0,1-.227-2.136v-.551l-2.162,0a3.322,3.322,0,0,1-3.292-3.33,3.452,3.452,0,0,0-.032.492v2.2a3.322,3.322,0,0,0,3.292,3.329Zm0,0" transform="translate(-75.217 -145.475)" fill="#0c52a1" fill-rule="evenodd"/>
        <path id="Trazado_227456" data-name="Trazado 227456" d="M321.735,172.671a10.538,10.538,0,0,1-.227,2.131h2.421a3.319,3.319,0,0,0,3.292-3.329v-2.2a3.316,3.316,0,0,1-3.256,2.843h-2.23Zm0,0" transform="translate(-271.181 -148.101)" fill="#0c52a1" fill-rule="evenodd"/>
        <path id="Trazado_227457" data-name="Trazado 227457" d="M205.6,414.566a3.512,3.512,0,1,0,3.974,3.481A3.752,3.752,0,0,0,205.6,414.566Zm0,0" transform="translate(-170.067 -354.997)" fill="#43a99b" fill-rule="evenodd"/>
      </g>
      <path id="Trazado_227458" data-name="Trazado 227458" d="M183.545,185.9a1.2,1.2,0,0,1-1.2-1.2v-1.483a1.2,1.2,0,0,1,2.4,0V184.7A1.2,1.2,0,0,1,183.545,185.9Zm0,0" transform="translate(-153.801 -153.527)" fill="#37474f"/>
      <path id="Trazado_227459" data-name="Trazado 227459" d="M249.928,185.9a1.2,1.2,0,0,1-1.2-1.2v-1.483a1.2,1.2,0,0,1,2.4,0V184.7A1.2,1.2,0,0,1,249.928,185.9Zm0,0" transform="translate(-209.792 -153.527)" fill="#37474f"/>
      <path id="Trazado_227460" data-name="Trazado 227460" d="M137.709,492.551h-40.7l.109,1.116a2,2,0,0,0,1.912,1.929h36.654a2,2,0,0,0,1.912-1.929Zm0,0" transform="translate(-81.823 -415.45)" fill="#c2c7cc" fill-rule="evenodd"/>
    </g>
  </g>
</svg>
