<svg xmlns="http://www.w3.org/2000/svg" width="35.274" height="88" viewBox="0 0 35.274 88">
  <g id="Grupo_177309" data-name="Grupo 177309" transform="translate(0 0)" opacity="0.65">
    <g id="Grupo_152551" data-name="Grupo 152551" transform="translate(0 88) rotate(-90)">
      <rect id="Rectángulo_45220" data-name="Rectángulo 45220" width="81.918" height="24.393" transform="translate(88 24.393) rotate(180)" fill="#43a99b"/>
      <g id="Grupo_152556" data-name="Grupo 152556" transform="translate(0 13.512)">
        <rect id="Rectángulo_45221" data-name="Rectángulo 45221" width="4.145" height="4.145" transform="translate(61.658 17.617)" fill="#eeac3a"/>
        <rect id="Rectángulo_45222" data-name="Rectángulo 45222" width="4.145" height="4.145" transform="translate(52.85 17.617)" fill="#eeac3a"/>
        <rect id="Rectángulo_45223" data-name="Rectángulo 45223" width="4.145" height="4.145" transform="translate(44.042 17.617)" fill="#eeac3a"/>
        <rect id="Rectángulo_45224" data-name="Rectángulo 45224" width="4.145" height="4.145" transform="translate(35.233 17.617)" fill="#eeac3a"/>
        <rect id="Rectángulo_45225" data-name="Rectángulo 45225" width="4.145" height="4.145" transform="translate(26.425 17.617)" fill="#eeac3a"/>
        <rect id="Rectángulo_45226" data-name="Rectángulo 45226" width="4.145" height="4.145" transform="translate(17.617 17.617)" fill="#eeac3a"/>
        <rect id="Rectángulo_45227" data-name="Rectángulo 45227" width="4.145" height="4.145" transform="translate(8.808 17.617)" fill="#eeac3a"/>
        <rect id="Rectángulo_45228" data-name="Rectángulo 45228" width="4.145" height="4.145" transform="translate(0 17.617)" fill="#eeac3a"/>
        <rect id="Rectángulo_45232" data-name="Rectángulo 45232" width="4.145" height="4.145" transform="translate(61.658 8.808)" fill="#eeac3a"/>
        <rect id="Rectángulo_45233" data-name="Rectángulo 45233" width="4.145" height="4.145" transform="translate(52.85 8.808)" fill="#eeac3a"/>
        <rect id="Rectángulo_45234" data-name="Rectángulo 45234" width="4.145" height="4.145" transform="translate(44.042 8.808)" fill="#eeac3a"/>
        <rect id="Rectángulo_45235" data-name="Rectángulo 45235" width="4.145" height="4.145" transform="translate(35.233 8.808)" fill="#eeac3a"/>
        <rect id="Rectángulo_45236" data-name="Rectángulo 45236" width="4.145" height="4.145" transform="translate(26.425 8.808)" fill="#eeac3a"/>
        <rect id="Rectángulo_45237" data-name="Rectángulo 45237" width="4.145" height="4.145" transform="translate(17.617 8.808)" fill="#eeac3a"/>
        <rect id="Rectángulo_45238" data-name="Rectángulo 45238" width="4.145" height="4.145" transform="translate(8.808 8.808)" fill="#eeac3a"/>
        <rect id="Rectángulo_45239" data-name="Rectángulo 45239" width="4.145" height="4.145" transform="translate(0 8.808)" fill="#eeac3a"/>
        <rect id="Rectángulo_45243" data-name="Rectángulo 45243" width="4.145" height="4.145" transform="translate(61.658)" fill="#eeac3a"/>
        <rect id="Rectángulo_45244" data-name="Rectángulo 45244" width="4.145" height="4.145" transform="translate(52.85)" fill="#eeac3a"/>
        <rect id="Rectángulo_45245" data-name="Rectángulo 45245" width="4.145" height="4.145" transform="translate(44.042)" fill="#eeac3a"/>
        <rect id="Rectángulo_45246" data-name="Rectángulo 45246" width="4.145" height="4.145" transform="translate(35.233)" fill="#eeac3a"/>
        <rect id="Rectángulo_45247" data-name="Rectángulo 45247" width="4.145" height="4.145" transform="translate(26.425)" fill="#eeac3a"/>
        <rect id="Rectángulo_45248" data-name="Rectángulo 45248" width="4.145" height="4.145" transform="translate(17.617)" fill="#eeac3a"/>
        <rect id="Rectángulo_45249" data-name="Rectángulo 45249" width="4.145" height="4.145" transform="translate(8.808)" fill="#eeac3a"/>
        <rect id="Rectángulo_45250" data-name="Rectángulo 45250" width="4.145" height="4.145" fill="#eeac3a"/>
      </g>
    </g>
  </g>
</svg>
