<svg xmlns="http://www.w3.org/2000/svg" xmlns:xlink="http://www.w3.org/1999/xlink" width="184.72" height="219.03" viewBox="0 0 184.72 219.03">
  <defs>
    <clipPath id="clip-path">
      <rect id="Rectángulo_58632" data-name="Rectángulo 58632" width="184.72" height="219.03" fill="none"/>
    </clipPath>
  </defs>
  <g id="Grupo_181055" data-name="Grupo 181055" transform="translate(7841 6751)">
    <g id="Grupo_181057" data-name="Grupo 181057" transform="translate(-7841 -6751)">
      <path id="Trazado_229842" data-name="Trazado 229842" d="M69.29,51.522H18.821l50.469,85.44,50.466-85.44Z" transform="translate(29.981 82.069)" fill="#3c9a89"/>
      <g id="Grupo_181056" data-name="Grupo 181056" transform="translate(0 0)">
        <g id="Grupo_181055-2" data-name="Grupo 181055" clip-path="url(#clip-path)">
          <path id="Trazado_229843" data-name="Trazado 229843" d="M106.7,106.7H0A106.7,106.7,0,0,1,106.694,0h.005Z" transform="translate(0 -0.001)" fill="#3c9a89"/>
          <path id="Trazado_229844" data-name="Trazado 229844" d="M90.783,5.322a85.459,85.459,0,1,1-85.46,85.46,85.459,85.459,0,0,1,85.46-85.46" transform="translate(8.479 8.477)" fill="#88c7bd"/>
          <path id="Trazado_229845" data-name="Trazado 229845" d="M158.792,84.143A74.649,74.649,0,1,1,84.144,9.495a74.647,74.647,0,0,1,74.648,74.648" transform="translate(15.123 15.124)" fill="#fff"/>
          <path id="Trazado_229846" data-name="Trazado 229846" d="M83.545,39.253H43.917A14.253,14.253,0,0,0,29.643,53.338v5.634A14.253,14.253,0,0,0,43.917,73.06H71.094L81.574,83.67a2.688,2.688,0,0,0,3.042.62,2.8,2.8,0,0,0,1.748-2.59V72.777a14.087,14.087,0,0,0,11.269-13.8V53.338A14.092,14.092,0,0,0,83.545,39.253" transform="translate(47.219 62.526)" fill="#3281c3"/>
          <path id="Trazado_229847" data-name="Trazado 229847" d="M85.4,53.339v5.634a14.089,14.089,0,0,1-11.269,13.8V81.7a2.811,2.811,0,0,1-1.748,2.593,2.688,2.688,0,0,1-3.042-.62L58.862,73.059H37.32V39.252H71.313A14.093,14.093,0,0,1,85.4,53.339" transform="translate(59.448 62.525)" fill="#0053a0"/>
          <path id="Trazado_229848" data-name="Trazado 229848" d="M100.852,19.623H32.863A14.09,14.09,0,0,0,18.778,33.708v16.9A14.293,14.293,0,0,0,30.047,64.605V78.973a2.809,2.809,0,0,0,1.745,2.593,2.7,2.7,0,0,0,3.044-.622L50.951,64.885h49.9a14.251,14.251,0,0,0,14.085-14.274v-16.9a14.088,14.088,0,0,0-14.085-14.085" transform="translate(29.912 31.257)" fill="#f0b324"/>
          <path id="Trazado_229849" data-name="Trazado 229849" d="M85.4,33.709v16.9A14.253,14.253,0,0,1,71.316,64.886h-34V19.624H71.313A14.09,14.09,0,0,1,85.4,33.709" transform="translate(59.448 31.259)" fill="#ee9a25"/>
          <path id="Trazado_229850" data-name="Trazado 229850" d="M25.942,23.969a2.817,2.817,0,1,1-2.819,2.819,2.818,2.818,0,0,1,2.819-2.819" transform="translate(36.833 38.18)" fill="#e7e8ee"/>
          <path id="Trazado_229851" data-name="Trazado 229851" d="M25.942,28.315a2.817,2.817,0,1,1-2.819,2.819,2.818,2.818,0,0,1,2.819-2.819" transform="translate(36.833 45.103)" fill="#e7e8ee"/>
          <path id="Trazado_229852" data-name="Trazado 229852" d="M36.879,43.6a2.817,2.817,0,1,1-2.819,2.819A2.818,2.818,0,0,1,36.879,43.6" transform="translate(54.255 69.449)" fill="#e7e8ee"/>
          <path id="Trazado_229853" data-name="Trazado 229853" d="M41.225,43.6a2.817,2.817,0,1,1-2.819,2.819A2.818,2.818,0,0,1,41.225,43.6" transform="translate(61.178 69.449)" fill="#dadae1"/>
          <path id="Trazado_229854" data-name="Trazado 229854" d="M45.644,43.6a2.817,2.817,0,1,1-2.819,2.819A2.818,2.818,0,0,1,45.644,43.6" transform="translate(68.217 69.449)" fill="#dadae1"/>
          <path id="Trazado_229855" data-name="Trazado 229855" d="M89.824,26.788a2.79,2.79,0,0,1-2.819,2.819H30.288a2.819,2.819,0,1,1,0-5.637h56.72a2.793,2.793,0,0,1,2.816,2.819" transform="translate(43.756 38.18)" fill="#e7e8ee"/>
          <path id="Trazado_229856" data-name="Trazado 229856" d="M89.824,31.134a2.79,2.79,0,0,1-2.819,2.819H30.288a2.819,2.819,0,1,1,0-5.637h56.72a2.79,2.79,0,0,1,2.816,2.819" transform="translate(43.756 45.103)" fill="#e7e8ee"/>
          <path id="Trazado_229857" data-name="Trazado 229857" d="M74.132,31.132a2.79,2.79,0,0,1-2.819,2.819H37.32V28.316H71.313a2.786,2.786,0,0,1,2.819,2.816" transform="translate(59.448 45.104)" fill="#dadae1"/>
          <path id="Trazado_229858" data-name="Trazado 229858" d="M71.314,29.6H37.321V23.969H71.314a2.817,2.817,0,1,1,0,5.634" transform="translate(59.45 38.18)" fill="#dadae1"/>
        </g>
      </g>
    </g>
  </g>
</svg>
