<svg xmlns="http://www.w3.org/2000/svg" xmlns:xlink="http://www.w3.org/1999/xlink" width="183.24" height="217.275" viewBox="0 0 183.24 217.275">
  <defs>
    <clipPath id="clip-path">
      <rect id="Rectángulo_58631" data-name="Rectángulo 58631" width="183.24" height="217.275" fill="none"/>
    </clipPath>
    <clipPath id="clip-path-2">
      <rect id="Rectángulo_58630" data-name="Rectángulo 58630" width="183.24" height="217.274" fill="none"/>
    </clipPath>
    <clipPath id="clip-path-3">
      <rect id="Rectángulo_58623" data-name="Rectángulo 58623" width="69.676" height="47.476" fill="none"/>
    </clipPath>
    <clipPath id="clip-path-4">
      <rect id="Rectángulo_58627" data-name="Rectángulo 58627" width="34.206" height="54.959" fill="none"/>
    </clipPath>
  </defs>
  <g id="Grupo_181044" data-name="Grupo 181044" transform="translate(8233.912 7268)">
    <g id="Grupo_181054" data-name="Grupo 181054" transform="translate(-8233.912 -7268)">
      <g id="Grupo_181053" data-name="Grupo 181053" clip-path="url(#clip-path)">
        <path id="Trazado_229824" data-name="Trazado 229824" d="M68.885,51.522H18.821l50.064,84.755,50.062-84.755Z" transform="translate(29.59 80.999)" fill="#0053a0"/>
        <g id="Grupo_181052" data-name="Grupo 181052" transform="translate(0 0.001)">
          <g id="Grupo_181051" data-name="Grupo 181051" clip-path="url(#clip-path-2)">
            <path id="Trazado_229825" data-name="Trazado 229825" d="M105.844,105.844H0A105.839,105.839,0,0,1,105.839,0h.005Z" transform="translate(0 -0.001)" fill="#0053a0"/>
            <path id="Trazado_229826" data-name="Trazado 229826" d="M90.1,5.322A84.774,84.774,0,1,1,5.323,90.1,84.775,84.775,0,0,1,90.1,5.322" transform="translate(8.369 8.366)" fill="#88bae6"/>
            <path id="Trazado_229827" data-name="Trazado 229827" d="M157.6,83.544A74.051,74.051,0,1,1,83.546,9.495,74.049,74.049,0,0,1,157.6,83.544" transform="translate(14.926 14.927)" fill="#fff"/>
            <path id="Trazado_229828" data-name="Trazado 229828" d="M107.827,42.107v-14a7.13,7.13,0,0,0-7.13-7.13H26.532a7.13,7.13,0,0,0-7.13,7.13v14Z" transform="translate(30.503 32.978)" fill="#5d5e5e"/>
            <path id="Trazado_229829" data-name="Trazado 229829" d="M107.815,29.191V89.356a7.13,7.13,0,0,1-7.135,7.135H26.538A7.13,7.13,0,0,1,19.4,89.356V29.191Z" transform="translate(30.504 45.891)" fill="#dedede"/>
            <path id="Trazado_229830" data-name="Trazado 229830" d="M25.756,23.44a4.229,4.229,0,1,1-4.229,4.229,4.228,4.228,0,0,1,4.229-4.229" transform="translate(33.844 36.85)" fill="#79c9e4"/>
            <path id="Trazado_229831" data-name="Trazado 229831" d="M30.575,23.44a4.229,4.229,0,1,1-4.229,4.229,4.228,4.228,0,0,1,4.229-4.229" transform="translate(41.42 36.85)" fill="#ffc046"/>
            <path id="Trazado_229832" data-name="Trazado 229832" d="M35.395,23.44a4.229,4.229,0,1,1-4.229,4.229,4.228,4.228,0,0,1,4.229-4.229" transform="translate(48.997 36.85)" fill="#f3884e"/>
            <path id="Trazado_229833" data-name="Trazado 229833" d="M59.349,91.448a5.039,5.039,0,0,0-5.039-5.039H47.571a4.218,4.218,0,0,1-4.213-4.234v-.057c0-.105,0-.206-.01-.309a3.989,3.989,0,0,1,3.984-4.231H56.26a5.23,5.23,0,0,0,5.314-4.766A5.039,5.039,0,0,0,56.543,67.5H53.785a4.222,4.222,0,0,1-4.223-4.249l0-.291v-.059a4.463,4.463,0,0,1,4.452-4.481h3.568A5.232,5.232,0,0,0,62.9,53.658a5.041,5.041,0,0,0-5.031-5.309H44.991a4.3,4.3,0,0,1-4.221-4.483V43.75a4.3,4.3,0,0,1,4.221-4.483h4.164A5.232,5.232,0,0,0,54.472,34.5a5.041,5.041,0,0,0-5.031-5.309H19.4V89.36a7.13,7.13,0,0,0,7.13,7.13H54.308A5.043,5.043,0,0,0,59.349,91.448Z" transform="translate(30.501 45.893)" fill="#f0f0f0"/>
            <g id="Grupo_181047" data-name="Grupo 181047" transform="translate(59.278 84.994)" opacity="0.6">
              <g id="Grupo_181046" data-name="Grupo 181046">
                <g id="Grupo_181045" data-name="Grupo 181045" clip-path="url(#clip-path-3)">
                  <rect id="Rectángulo_58622" data-name="Rectángulo 58622" width="69.677" height="47.477" transform="translate(0 0)" fill="#fff"/>
                </g>
              </g>
            </g>
            <path id="Trazado_229834" data-name="Trazado 229834" d="M57.06,24.031H43.122a2.714,2.714,0,0,0,0,5.427H57.06a2.714,2.714,0,1,0,0-5.427" transform="translate(63.527 37.779)" fill="#565757"/>
            <path id="Trazado_229835" data-name="Trazado 229835" d="M54.293,24.031h-3.1a2.714,2.714,0,1,0,0,5.427h3.1a2.714,2.714,0,0,0,0-5.427" transform="translate(76.213 37.779)" fill="#565757"/>
            <rect id="Rectángulo_58624" data-name="Rectángulo 58624" width="27.453" height="6.546" transform="translate(63.828 92.031)" fill="#3c9a89"/>
            <rect id="Rectángulo_58625" data-name="Rectángulo 58625" width="27.453" height="6.546" transform="translate(63.828 105.458)" fill="#3c9a89"/>
            <rect id="Rectángulo_58626" data-name="Rectángulo 58626" width="37.131" height="6.546" transform="translate(63.828 118.89)" fill="#3c9a89"/>
            <g id="Grupo_181050" data-name="Grupo 181050" transform="translate(104.113 87.423)" opacity="0.1">
              <g id="Grupo_181049" data-name="Grupo 181049">
                <g id="Grupo_181048" data-name="Grupo 181048" clip-path="url(#clip-path-4)">
                  <path id="Trazado_229836" data-name="Trazado 229836" d="M74.684,34.644V81.812a7.132,7.132,0,0,1-7.135,7.138h-7.66L40.477,69.5,73.244,33.988Z" transform="translate(-40.477 -33.99)" fill="#050506"/>
                </g>
              </g>
            </g>
            <rect id="Rectángulo_58628" data-name="Rectángulo 58628" width="49.275" height="11.301" transform="translate(106.814 112.221) rotate(-45)" fill="#ee9a25"/>
            <rect id="Rectángulo_58629" data-name="Rectángulo 58629" width="2.899" height="11.302" transform="translate(139.607 79.425) rotate(-45)" fill="#f0f0f0"/>
            <path id="Trazado_229837" data-name="Trazado 229837" d="M66.125,29.912a5.654,5.654,0,0,0-7.994,0L55.075,32.97l7.992,7.992,3.058-3.056a5.654,5.654,0,0,0,0-7.994" transform="translate(86.586 44.422)" fill="#e13d42"/>
            <path id="Trazado_229838" data-name="Trazado 229838" d="M51.179,51.63l-7.994-7.994L40.472,54.344Z" transform="translate(63.627 68.601)" fill="#ffc046"/>
            <path id="Trazado_229839" data-name="Trazado 229839" d="M44.963,49.4l-3.352-3.352-1.139,4.491Z" transform="translate(63.628 72.401)" fill="#373637"/>
            <path id="Trazado_229840" data-name="Trazado 229840" d="M47.965,47.451a2.792,2.792,0,0,1,0-3.951l6.1-6.1a2.794,2.794,0,0,1,3.951,3.951l-6.1,6.1a2.79,2.79,0,0,1-3.951,0" transform="translate(74.12 57.509)" fill="#f0b324"/>
            <path id="Trazado_229841" data-name="Trazado 229841" d="M45.421,46.787a2.792,2.792,0,0,1,0-3.951l.851-.851a2.794,2.794,0,0,1,3.951,3.951l-.851.851a2.792,2.792,0,0,1-3.951,0" transform="translate(70.12 64.717)" fill="#f0b324"/>
          </g>
        </g>
      </g>
    </g>
  </g>
</svg>
