<svg xmlns="http://www.w3.org/2000/svg" xmlns:xlink="http://www.w3.org/1999/xlink" width="183.98" height="218.153" viewBox="0 0 183.98 218.153">
  <defs>
    <clipPath id="clip-path">
      <rect id="Rectángulo_58609" data-name="Rectángulo 58609" width="183.98" height="218.153" fill="none"/>
    </clipPath>
  </defs>
  <g id="Grupo_181039" data-name="Grupo 181039" transform="translate(0 0)">
    <path id="Trazado_229793" data-name="Trazado 229793" d="M69.088,51.522H18.821l50.267,85.1,50.264-85.1Z" transform="translate(29.785 81.535)" fill="#524994"/>
    <g id="Grupo_181038" data-name="Grupo 181038" transform="translate(0 0)">
      <g id="Grupo_181037" data-name="Grupo 181037" clip-path="url(#clip-path)">
        <path id="Trazado_229794" data-name="Trazado 229794" d="M106.272,106.272H0A106.267,106.267,0,0,1,106.267,0h.005Z" transform="translate(0 -0.001)" fill="#524994"/>
        <path id="Trazado_229795" data-name="Trazado 229795" d="M90.441,5.322A85.117,85.117,0,1,1,5.323,90.44,85.117,85.117,0,0,1,90.441,5.322" transform="translate(8.424 8.421)" fill="#928dc4"/>
        <path id="Trazado_229796" data-name="Trazado 229796" d="M158.194,83.844A74.35,74.35,0,1,1,83.845,9.495a74.348,74.348,0,0,1,74.349,74.349" transform="translate(15.025 15.025)" fill="#fff"/>
        <path id="Trazado_229797" data-name="Trazado 229797" d="M35.161,18.906H78.269a8.292,8.292,0,0,1,8.293,8.29v82.9a8.292,8.292,0,0,1-8.293,8.29H35.161a8.289,8.289,0,0,1-8.29-8.29V27.2a8.289,8.289,0,0,1,8.29-8.29" transform="translate(42.525 29.919)" fill="#73808d"/>
        <rect id="Rectángulo_58606" data-name="Rectángulo 58606" width="46.424" height="69.638" transform="translate(76.028 62.09)" fill="#b9dbf5"/>
        <path id="Trazado_229798" data-name="Trazado 229798" d="M75.864,24.042H29.44V44.767c0,27.013,15.216,48.913,33.989,48.913H75.864Z" transform="translate(46.59 38.047)" fill="#e5f5fd"/>
        <rect id="Rectángulo_58607" data-name="Rectángulo 58607" width="9.948" height="3.316" transform="translate(90.949 53.8)" fill="#8e98a3"/>
        <rect id="Rectángulo_58608" data-name="Rectángulo 58608" width="3.316" height="3.316" transform="translate(104.216 53.8)" fill="#8e98a3"/>
        <path id="Trazado_229799" data-name="Trazado 229799" d="M32.007,42.979h0a8.009,8.009,0,0,0,2.345,5.661l11.89,11.89a8.005,8.005,0,0,0,11.322,0l4.287-4.287-6.632-6.632L51.9,52.927l-9.948-9.948,3.316-3.316-6.632-6.632-4.287,4.287a8.009,8.009,0,0,0-2.345,5.661" transform="translate(50.653 52.272)" fill="#73aa4b"/>
        <path id="Trazado_229800" data-name="Trazado 229800" d="M46.986,40.3H43.67a3.316,3.316,0,0,0-3.316-3.316V33.673A6.633,6.633,0,0,1,46.986,40.3" transform="translate(63.862 53.288)" fill="#73aa4b"/>
        <path id="Trazado_229801" data-name="Trazado 229801" d="M53.618,44.369H50.3a9.958,9.958,0,0,0-9.948-9.948V31.1A13.279,13.279,0,0,1,53.618,44.369" transform="translate(63.862 49.224)" fill="#73aa4b"/>
        <path id="Trazado_229802" data-name="Trazado 229802" d="M55.382,58.776l-2.345-2.345,2.144-2.144-2.144-2.144a1.662,1.662,0,0,1,0-2.345l2.144-2.144-2.144-2.144a1.662,1.662,0,0,1,0-2.345l2.144-2.144L53.037,38.88a1.662,1.662,0,0,1,0-2.345l3.316-3.316L58.7,35.564l-2.144,2.144L58.7,39.851a1.657,1.657,0,0,1,0,2.345l-2.144,2.144L58.7,46.483a1.657,1.657,0,0,1,0,2.345l-2.144,2.144L58.7,53.115a1.657,1.657,0,0,1,0,2.345Z" transform="translate(83.167 52.57)" fill="#73aa4b"/>
        <path id="Trazado_229803" data-name="Trazado 229803" d="M25.537,58.776,22.221,55.46a1.657,1.657,0,0,1,0-2.345l2.144-2.144-2.144-2.144a1.657,1.657,0,0,1,0-2.345l2.144-2.144L22.221,42.2a1.657,1.657,0,0,1,0-2.345l2.144-2.144-2.144-2.144,2.345-2.345,3.316,3.316a1.662,1.662,0,0,1,0,2.345l-2.144,2.144,2.144,2.144a1.662,1.662,0,0,1,0,2.345l-2.144,2.144L27.882,49.8a1.662,1.662,0,0,1,0,2.345l-2.144,2.144,2.144,2.144Z" transform="translate(34.396 52.57)" fill="#73aa4b"/>
        <path id="Trazado_229804" data-name="Trazado 229804" d="M39.817,52.933h3.316a3.316,3.316,0,1,1,0,6.632H39.817a3.316,3.316,0,0,1,0-6.632" transform="translate(57.764 83.768)" fill="#8e98a3"/>
      </g>
    </g>
  </g>
</svg>
