<svg xmlns="http://www.w3.org/2000/svg" xmlns:xlink="http://www.w3.org/1999/xlink" width="1030" height="358" viewBox="0 0 1030 358">
  <defs>
    <linearGradient id="linear-gradient" x1="0.5" x2="0.5" y2="1" gradientUnits="objectBoundingBox">
      <stop offset="0" stop-color="#def2f4"/>
      <stop offset="0.752" stop-color="#fff"/>
      <stop offset="1" stop-color="#ece5f7"/>
    </linearGradient>
    <clipPath id="clip-path">
      <ellipse id="Elipse_4979" data-name="Elipse 4979" cx="21.239" cy="21.239" rx="21.239" ry="21.239" fill="#fff"/>
    </clipPath>
    <clipPath id="clip-path-2">
      <rect id="Rectángulo_58921" data-name="Rectángulo 58921" width="820" height="271.225" fill="none"/>
    </clipPath>
    <clipPath id="clip-path-5">
      <rect id="Rectángulo_58910" data-name="Rectángulo 58910" width="55.991" height="38.152" fill="none"/>
    </clipPath>
    <clipPath id="clip-path-6">
      <rect id="Rectángulo_58914" data-name="Rectángulo 58914" width="27.488" height="44.165" fill="none"/>
    </clipPath>
  </defs>
  <g id="Grupo_181366" data-name="Grupo 181366" transform="translate(5507 6857)">
    <g id="Grupo_181367" data-name="Grupo 181367">
      <rect id="Rectángulo_58605" data-name="Rectángulo 58605" width="1030" height="358" rx="24" transform="translate(-5507 -6857)" fill="url(#linear-gradient)"/>
      <g id="Grupo_181034" data-name="Grupo 181034" transform="translate(-4845.995 -6412.172) rotate(180)" opacity="0.711">
        <path id="Trazado_174289" data-name="Trazado 174289" d="M138.529,383.022a54.451,54.451,0,1,0,54.451,54.451A54.451,54.451,0,0,0,138.529,383.022Zm0,98.018A43.567,43.567,0,1,1,182.1,437.473,43.567,43.567,0,0,1,138.529,481.04Z" transform="translate(417.365 -74.731)" fill="#fff"/>
        <g id="Grupo_124665" data-name="Grupo 124665" transform="translate(10 229.502)" opacity="0.23">
          <path id="Trazado_174290" data-name="Trazado 174290" d="M-42.848,302.033-124.6,383.782a7.142,7.142,0,0,1-10.1,0h0a7.143,7.143,0,0,1,0-10.1l81.749-81.749a7.143,7.143,0,0,1,10.1,0h0A7.143,7.143,0,0,1-42.848,302.033Z" transform="translate(136.79 -289.84)" fill="#fff" stroke="#8f9294" stroke-miterlimit="10" stroke-width="2"/>
          <path id="Trazado_174291" data-name="Trazado 174291" d="M-20.309,397.469l-62.4,62.4a5.452,5.452,0,0,1-7.71,0h0a5.452,5.452,0,0,1,0-7.71l62.4-62.4a5.452,5.452,0,0,1,7.71,0h0A5.452,5.452,0,0,1-20.309,397.469Z" transform="translate(109.274 -350.261)" fill="#fff" stroke="#8f9294" stroke-miterlimit="10" stroke-width="2"/>
        </g>
        <g id="Grupo_124669" data-name="Grupo 124669" transform="translate(555.894 307.171)">
          <g id="Grupo_124668" data-name="Grupo 124668">
            <line id="Línea_1655" data-name="Línea 1655" x1="5.235" y2="5.235" fill="none" stroke="#d8d9da" stroke-miterlimit="10" stroke-width="0.78"/>
            <line id="Línea_1656" data-name="Línea 1656" x1="5.235" y2="5.235" transform="translate(2.55)" fill="none" stroke="#d8d9da" stroke-miterlimit="10" stroke-width="0.78"/>
            <line id="Línea_1657" data-name="Línea 1657" x1="5.235" y2="5.235" transform="translate(5.1)" fill="none" stroke="#d8d9da" stroke-miterlimit="10" stroke-width="0.78"/>
            <line id="Línea_1658" data-name="Línea 1658" x1="5.235" y2="5.235" transform="translate(7.651)" fill="none" stroke="#d8d9da" stroke-miterlimit="10" stroke-width="0.78"/>
            <line id="Línea_1659" data-name="Línea 1659" x1="5.235" y2="5.235" transform="translate(10.201)" fill="none" stroke="#d8d9da" stroke-miterlimit="10" stroke-width="0.78"/>
            <line id="Línea_1660" data-name="Línea 1660" x1="5.235" y2="5.235" transform="translate(12.751)" fill="none" stroke="#d8d9da" stroke-miterlimit="10" stroke-width="0.78"/>
            <line id="Línea_1661" data-name="Línea 1661" x1="5.235" y2="5.235" transform="translate(15.301)" fill="none" stroke="#d8d9da" stroke-miterlimit="10" stroke-width="0.78"/>
            <line id="Línea_1662" data-name="Línea 1662" x1="5.235" y2="5.235" transform="translate(17.851)" fill="none" stroke="#d8d9da" stroke-miterlimit="10" stroke-width="0.78"/>
            <line id="Línea_1663" data-name="Línea 1663" x1="5.235" y2="5.235" transform="translate(20.401)" fill="none" stroke="#d8d9da" stroke-miterlimit="10" stroke-width="0.78"/>
            <line id="Línea_1664" data-name="Línea 1664" x1="5.235" y2="5.235" transform="translate(22.952)" fill="none" stroke="#d8d9da" stroke-miterlimit="10" stroke-width="0.78"/>
            <line id="Línea_1665" data-name="Línea 1665" x1="5.235" y2="5.235" transform="translate(25.502)" fill="none" stroke="#d8d9da" stroke-miterlimit="10" stroke-width="0.78"/>
            <line id="Línea_1666" data-name="Línea 1666" x1="5.235" y2="5.235" transform="translate(28.052)" fill="none" stroke="#d8d9da" stroke-miterlimit="10" stroke-width="0.78"/>
            <line id="Línea_1667" data-name="Línea 1667" x1="5.235" y2="5.235" transform="translate(30.602)" fill="none" stroke="#d8d9da" stroke-miterlimit="10" stroke-width="0.78"/>
          </g>
        </g>
        <g id="Grupo_149859" data-name="Grupo 149859" transform="translate(108.182 220.339)" opacity="0.394">
          <g id="Grupo_124677" data-name="Grupo 124677">
            <g id="Grupo_124673" data-name="Grupo 124673">
              <line id="Línea_1668" data-name="Línea 1668" y2="4.224" transform="translate(2.112)" fill="none" stroke="#8f9294" stroke-miterlimit="10" stroke-width="0.388"/>
              <line id="Línea_1669" data-name="Línea 1669" x2="4.224" transform="translate(0 2.112)" fill="none" stroke="#8f9294" stroke-miterlimit="10" stroke-width="0.388"/>
            </g>
            <g id="Grupo_124674" data-name="Grupo 124674" transform="translate(11.509)">
              <line id="Línea_1670" data-name="Línea 1670" y2="4.224" transform="translate(2.112)" fill="none" stroke="#8f9294" stroke-miterlimit="10" stroke-width="0.388"/>
              <line id="Línea_1671" data-name="Línea 1671" x2="4.224" transform="translate(0 2.112)" fill="none" stroke="#8f9294" stroke-miterlimit="10" stroke-width="0.388"/>
            </g>
            <g id="Grupo_124675" data-name="Grupo 124675" transform="translate(23.019)">
              <line id="Línea_1672" data-name="Línea 1672" y2="4.224" transform="translate(2.112)" fill="none" stroke="#8f9294" stroke-miterlimit="10" stroke-width="0.388"/>
              <line id="Línea_1673" data-name="Línea 1673" x2="4.224" transform="translate(0 2.112)" fill="none" stroke="#8f9294" stroke-miterlimit="10" stroke-width="0.388"/>
            </g>
            <g id="Grupo_124676" data-name="Grupo 124676" transform="translate(34.528)">
              <line id="Línea_1674" data-name="Línea 1674" y2="4.224" transform="translate(2.112)" fill="none" stroke="#8f9294" stroke-miterlimit="10" stroke-width="0.388"/>
              <line id="Línea_1675" data-name="Línea 1675" x2="4.224" transform="translate(0 2.112)" fill="none" stroke="#8f9294" stroke-miterlimit="10" stroke-width="0.388"/>
            </g>
          </g>
          <g id="Grupo_124682" data-name="Grupo 124682" transform="translate(0 8.764)">
            <g id="Grupo_124678" data-name="Grupo 124678">
              <line id="Línea_1676" data-name="Línea 1676" y2="4.224" transform="translate(2.112)" fill="none" stroke="#8f9294" stroke-miterlimit="10" stroke-width="0.388"/>
              <line id="Línea_1677" data-name="Línea 1677" x2="4.224" transform="translate(0 2.112)" fill="none" stroke="#8f9294" stroke-miterlimit="10" stroke-width="0.388"/>
            </g>
            <g id="Grupo_124679" data-name="Grupo 124679" transform="translate(11.509)">
              <line id="Línea_1678" data-name="Línea 1678" y2="4.224" transform="translate(2.112)" fill="none" stroke="#8f9294" stroke-miterlimit="10" stroke-width="0.388"/>
              <line id="Línea_1679" data-name="Línea 1679" x2="4.224" transform="translate(0 2.112)" fill="none" stroke="#8f9294" stroke-miterlimit="10" stroke-width="0.388"/>
            </g>
            <g id="Grupo_124680" data-name="Grupo 124680" transform="translate(23.019)">
              <line id="Línea_1680" data-name="Línea 1680" y2="4.224" transform="translate(2.112)" fill="none" stroke="#8f9294" stroke-miterlimit="10" stroke-width="0.388"/>
              <line id="Línea_1681" data-name="Línea 1681" x2="4.224" transform="translate(0 2.112)" fill="none" stroke="#8f9294" stroke-miterlimit="10" stroke-width="0.388"/>
            </g>
            <g id="Grupo_124681" data-name="Grupo 124681" transform="translate(34.528)">
              <line id="Línea_1682" data-name="Línea 1682" y2="4.224" transform="translate(2.112)" fill="none" stroke="#8f9294" stroke-miterlimit="10" stroke-width="0.388"/>
              <line id="Línea_1683" data-name="Línea 1683" x2="4.224" transform="translate(0 2.112)" fill="none" stroke="#8f9294" stroke-miterlimit="10" stroke-width="0.388"/>
            </g>
          </g>
          <g id="Grupo_124687" data-name="Grupo 124687" transform="translate(0 17.528)">
            <g id="Grupo_124683" data-name="Grupo 124683">
              <line id="Línea_1684" data-name="Línea 1684" y2="4.224" transform="translate(2.112)" fill="none" stroke="#8f9294" stroke-miterlimit="10" stroke-width="0.388"/>
              <line id="Línea_1685" data-name="Línea 1685" x2="4.224" transform="translate(0 2.112)" fill="none" stroke="#8f9294" stroke-miterlimit="10" stroke-width="0.388"/>
            </g>
            <g id="Grupo_124684" data-name="Grupo 124684" transform="translate(11.509)">
              <line id="Línea_1686" data-name="Línea 1686" y2="4.224" transform="translate(2.112)" fill="none" stroke="#8f9294" stroke-miterlimit="10" stroke-width="0.388"/>
              <line id="Línea_1687" data-name="Línea 1687" x2="4.224" transform="translate(0 2.112)" fill="none" stroke="#8f9294" stroke-miterlimit="10" stroke-width="0.388"/>
            </g>
            <g id="Grupo_124685" data-name="Grupo 124685" transform="translate(23.019)">
              <line id="Línea_1688" data-name="Línea 1688" y2="4.224" transform="translate(2.112)" fill="none" stroke="#8f9294" stroke-miterlimit="10" stroke-width="0.388"/>
              <line id="Línea_1689" data-name="Línea 1689" x2="4.224" transform="translate(0 2.112)" fill="none" stroke="#8f9294" stroke-miterlimit="10" stroke-width="0.388"/>
            </g>
            <g id="Grupo_124686" data-name="Grupo 124686" transform="translate(34.528)">
              <line id="Línea_1690" data-name="Línea 1690" y2="4.224" transform="translate(2.112)" fill="none" stroke="#8f9294" stroke-miterlimit="10" stroke-width="0.388"/>
              <line id="Línea_1691" data-name="Línea 1691" x2="4.224" transform="translate(0 2.112)" fill="none" stroke="#8f9294" stroke-miterlimit="10" stroke-width="0.388"/>
            </g>
          </g>
          <g id="Grupo_124692" data-name="Grupo 124692" transform="translate(0 26.292)">
            <g id="Grupo_124688" data-name="Grupo 124688">
              <line id="Línea_1692" data-name="Línea 1692" y2="4.224" transform="translate(2.112)" fill="none" stroke="#8f9294" stroke-miterlimit="10" stroke-width="0.388"/>
              <line id="Línea_1693" data-name="Línea 1693" x2="4.224" transform="translate(0 2.112)" fill="none" stroke="#8f9294" stroke-miterlimit="10" stroke-width="0.388"/>
            </g>
            <g id="Grupo_124689" data-name="Grupo 124689" transform="translate(11.509)">
              <line id="Línea_1694" data-name="Línea 1694" y2="4.224" transform="translate(2.112)" fill="none" stroke="#8f9294" stroke-miterlimit="10" stroke-width="0.388"/>
              <line id="Línea_1695" data-name="Línea 1695" x2="4.224" transform="translate(0 2.112)" fill="none" stroke="#8f9294" stroke-miterlimit="10" stroke-width="0.388"/>
            </g>
            <g id="Grupo_124690" data-name="Grupo 124690" transform="translate(23.019)">
              <line id="Línea_1696" data-name="Línea 1696" y2="4.224" transform="translate(2.112)" fill="none" stroke="#8f9294" stroke-miterlimit="10" stroke-width="0.388"/>
              <line id="Línea_1697" data-name="Línea 1697" x2="4.224" transform="translate(0 2.112)" fill="none" stroke="#8f9294" stroke-miterlimit="10" stroke-width="0.388"/>
            </g>
            <g id="Grupo_124691" data-name="Grupo 124691" transform="translate(34.528)">
              <line id="Línea_1698" data-name="Línea 1698" y2="4.224" transform="translate(2.112)" fill="none" stroke="#8f9294" stroke-miterlimit="10" stroke-width="0.388"/>
              <line id="Línea_1699" data-name="Línea 1699" x2="4.224" transform="translate(0 2.112)" fill="none" stroke="#8f9294" stroke-miterlimit="10" stroke-width="0.388"/>
            </g>
          </g>
        </g>
        <path id="Trazado_174309" data-name="Trazado 174309" d="M734.61,275.471a9.966,9.966,0,1,0,9.966,9.966A9.966,9.966,0,0,0,734.61,275.471Zm0,14.627a4.66,4.66,0,1,1,4.66-4.66A4.661,4.661,0,0,1,734.61,290.1Z" transform="translate(-124.557 -17.37)" fill="#fff"/>
        <g id="Grupo_124746" data-name="Grupo 124746" transform="translate(198.527 383.026)" opacity="0.367">
          <g id="Grupo_124745" data-name="Grupo 124745" transform="translate(0)" clip-path="url(#clip-path)">
            <path id="Trazado_174310" data-name="Trazado 174310" d="M481.868,136.445c-5.874,6.236-12.182,12.039-18.058,18.3" transform="translate(-466.094 -137.441)" fill="#fff" stroke="#606060" stroke-miterlimit="10" stroke-width="0.655"/>
            <path id="Trazado_174311" data-name="Trazado 174311" d="M484.532,136.393c-6.543,7.012-13.86,13.825-20.76,20.75" transform="translate(-466.07 -137.409)" fill="#fff" stroke="#606060" stroke-miterlimit="10" stroke-width="0.655"/>
            <path id="Trazado_174312" data-name="Trazado 174312" d="M486.938,136.4c-7.767,7.765-15.589,15.587-23.294,23.3" transform="translate(-465.992 -137.416)" fill="#fff" stroke="#606060" stroke-miterlimit="10" stroke-width="0.655"/>
            <path id="Trazado_174313" data-name="Trazado 174313" d="M489.433,136.55q-12.7,12.7-25.738,25.734" transform="translate(-466.023 -137.506)" fill="#fff" stroke="#606060" stroke-miterlimit="10" stroke-width="0.655"/>
            <path id="Trazado_174314" data-name="Trazado 174314" d="M492.5,136.489c-9.465,9.246-19.053,18.582-28.729,28.194" transform="translate(-466.069 -137.468)" fill="#fff" stroke="#606060" stroke-miterlimit="10" stroke-width="0.655"/>
            <path id="Trazado_174315" data-name="Trazado 174315" d="M494.4,136.579c-9.93,10.221-19.77,19.809-29.863,30.154-.252.252-.757.252-.89.6" transform="translate(-465.996 -137.524)" fill="#fff" stroke="#606060" stroke-miterlimit="10" stroke-width="0.655"/>
            <path id="Trazado_174316" data-name="Trazado 174316" d="M497.277,136.461c-6.113,6.481-12.673,12.285-19.233,18.845-4.794,5.046-9.588,9.336-14.182,14.373" transform="translate(-466.126 -137.451)" fill="#fff" stroke="#606060" stroke-miterlimit="10" stroke-width="0.655"/>
            <path id="Trazado_174317" data-name="Trazado 174317" d="M498.923,137.765C487.323,149.547,475.212,160.9,463.77,173" transform="translate(-466.069 -138.252)" fill="#fff" stroke="#606060" stroke-miterlimit="10" stroke-width="0.655"/>
            <path id="Trazado_174318" data-name="Trazado 174318" d="M498.966,144.249c-11.576,11.554-23.434,23.412-35.086,35.131" transform="translate(-466.137 -142.237)" fill="#fff" stroke="#606060" stroke-miterlimit="10" stroke-width="0.655"/>
            <path id="Trazado_174319" data-name="Trazado 174319" d="M500.249,147.767c-12.09,12.216-24.454,24.075-36.351,36.312" transform="translate(-466.148 -144.399)" fill="#fff" stroke="#606060" stroke-miterlimit="10" stroke-width="0.655"/>
            <path id="Trazado_174320" data-name="Trazado 174320" d="M502.589,147.736c-13.089,12.985-25.705,26.357-38.973,38.938" transform="translate(-465.974 -144.38)" fill="#fff" stroke="#606060" stroke-miterlimit="10" stroke-width="0.655"/>
            <path id="Trazado_174321" data-name="Trazado 174321" d="M507.122,147.97,467.2,187.887" transform="translate(-468.18 -144.524)" fill="#fff" stroke="#606060" stroke-miterlimit="10" stroke-width="0.655"/>
            <path id="Trazado_174322" data-name="Trazado 174322" d="M513.513,147.974c-13.327,13.146-26.448,26.518-39.9,39.939" transform="translate(-472.119 -144.526)" fill="#fff" stroke="#606060" stroke-miterlimit="10" stroke-width="0.655"/>
            <path id="Trazado_174323" data-name="Trazado 174323" d="M518.791,150.913c-12.881,12.769-25.5,25.89-38.734,38.816" transform="translate(-476.078 -146.332)" fill="#fff" stroke="#606060" stroke-miterlimit="10" stroke-width="0.655"/>
            <path id="Trazado_174324" data-name="Trazado 174324" d="M522.845,157.09c-12.2,12.155-23.806,24.77-36.316,36.434" transform="translate(-480.055 -150.128)" fill="#fff" stroke="#606060" stroke-miterlimit="10" stroke-width="0.655"/>
            <path id="Trazado_174325" data-name="Trazado 174325" d="M526.746,164.17c-11.35,11.192-22.453,22.546-33.717,33.692" transform="translate(-484.049 -154.479)" fill="#fff" stroke="#606060" stroke-miterlimit="10" stroke-width="0.655"/>
            <path id="Trazado_174326" data-name="Trazado 174326" d="M530.829,170.164c-10.415,10.395-20.76,20.992-31.276,31.36" transform="translate(-488.059 -158.162)" fill="#fff" stroke="#606060" stroke-miterlimit="10" stroke-width="0.655"/>
            <path id="Trazado_174327" data-name="Trazado 174327" d="M534.727,176.763q-14.445,14.426-28.785,28.847" transform="translate(-491.985 -162.218)" fill="#fff" stroke="#606060" stroke-miterlimit="10" stroke-width="0.655"/>
            <path id="Trazado_174328" data-name="Trazado 174328" d="M538.791,183.234c-8.65,8.889-17.481,17.72-26.283,26.315" transform="translate(-496.02 -166.194)" fill="#fff" stroke="#606060" stroke-miterlimit="10" stroke-width="0.655"/>
            <path id="Trazado_174329" data-name="Trazado 174329" d="M542.708,189.833c-7.862,7.859-15.936,15.933-23.776,23.789" transform="translate(-499.967 -170.249)" fill="#fff" stroke="#606060" stroke-miterlimit="10" stroke-width="0.655"/>
            <path id="Trazado_174330" data-name="Trazado 174330" d="M546.6,196.537Q536.04,207.1,525.369,217.753" transform="translate(-503.923 -174.369)" fill="#fff" stroke="#606060" stroke-miterlimit="10" stroke-width="0.655"/>
            <path id="Trazado_174331" data-name="Trazado 174331" d="M550.637,202.6q-7.346,7.315-14.654,14.669-2.086,2.105-4.166,4.218" transform="translate(-507.886 -178.095)" fill="#fff" stroke="#606060" stroke-miterlimit="10" stroke-width="0.655"/>
            <path id="Trazado_174332" data-name="Trazado 174332" d="M554.587,209.851c-5.331,5.441-10.882,10.992-16.312,16.1" transform="translate(-511.854 -182.551)" fill="#fff" stroke="#606060" stroke-miterlimit="10" stroke-width="0.655"/>
          </g>
        </g>
        <ellipse id="Elipse_4980" data-name="Elipse 4980" cx="2.067" cy="2.067" rx="2.067" ry="2.067" transform="translate(546.038 223.709)" fill="#fff" stroke="#606060" stroke-miterlimit="10" stroke-width="0.655"/>
        <g id="Grupo_124749" data-name="Grupo 124749" transform="translate(565.651 209.217)">
          <g id="Grupo_124668-2" data-name="Grupo 124668" transform="translate(0 0)">
            <line id="Línea_1655-2" data-name="Línea 1655" x1="4.118" y2="4.118" fill="none" stroke="#d8d9da" stroke-miterlimit="10" stroke-width="0.78"/>
            <line id="Línea_1656-2" data-name="Línea 1656" x1="4.118" y2="4.118" transform="translate(2.006)" fill="none" stroke="#d8d9da" stroke-miterlimit="10" stroke-width="0.78"/>
            <line id="Línea_1657-2" data-name="Línea 1657" x1="4.118" y2="4.118" transform="translate(4.013)" fill="none" stroke="#d8d9da" stroke-miterlimit="10" stroke-width="0.78"/>
            <line id="Línea_1658-2" data-name="Línea 1658" x1="4.118" y2="4.118" transform="translate(6.019)" fill="none" stroke="#d8d9da" stroke-miterlimit="10" stroke-width="0.78"/>
            <line id="Línea_1659-2" data-name="Línea 1659" x1="4.118" y2="4.118" transform="translate(8.025)" fill="none" stroke="#d8d9da" stroke-miterlimit="10" stroke-width="0.78"/>
            <line id="Línea_1660-2" data-name="Línea 1660" x1="4.118" y2="4.118" transform="translate(10.032)" fill="none" stroke="#d8d9da" stroke-miterlimit="10" stroke-width="0.78"/>
            <line id="Línea_1661-2" data-name="Línea 1661" x1="4.118" y2="4.118" transform="translate(12.038)" fill="none" stroke="#d8d9da" stroke-miterlimit="10" stroke-width="0.78"/>
            <line id="Línea_1662-2" data-name="Línea 1662" x1="4.118" y2="4.118" transform="translate(14.044)" fill="none" stroke="#d8d9da" stroke-miterlimit="10" stroke-width="0.78"/>
            <line id="Línea_1663-2" data-name="Línea 1663" x1="4.118" y2="4.118" transform="translate(16.051)" fill="none" stroke="#d8d9da" stroke-miterlimit="10" stroke-width="0.78"/>
            <line id="Línea_1664-2" data-name="Línea 1664" x1="4.118" y2="4.118" transform="translate(18.057)" fill="none" stroke="#d8d9da" stroke-miterlimit="10" stroke-width="0.78"/>
            <line id="Línea_1665-2" data-name="Línea 1665" x1="4.118" y2="4.118" transform="translate(20.063)" fill="none" stroke="#d8d9da" stroke-miterlimit="10" stroke-width="0.78"/>
            <line id="Línea_1666-2" data-name="Línea 1666" x1="4.118" y2="4.118" transform="translate(22.07)" fill="none" stroke="#d8d9da" stroke-miterlimit="10" stroke-width="0.78"/>
            <line id="Línea_1667-2" data-name="Línea 1667" x1="4.118" y2="4.118" transform="translate(24.076)" fill="none" stroke="#d8d9da" stroke-miterlimit="10" stroke-width="0.78"/>
          </g>
        </g>
      </g>
      <path id="Trazado_230322" data-name="Trazado 230322" d="M71.453,17V5.625h3.5a5.315,5.315,0,0,1,2.684.676,4.712,4.712,0,0,1,1.848,1.922,5.928,5.928,0,0,1,.664,2.832v.523A5.945,5.945,0,0,1,79.5,14.4a4.672,4.672,0,0,1-1.84,1.914,5.355,5.355,0,0,1-2.68.688ZM73.8,7.523v7.594H74.93a2.545,2.545,0,0,0,2.1-.9,4.06,4.06,0,0,0,.742-2.57v-.6a4.124,4.124,0,0,0-.719-2.629,2.537,2.537,0,0,0-2.1-.895ZM84.086,17H81.82V8.547h2.266Zm-2.4-10.641a1.112,1.112,0,0,1,.34-.836,1.465,1.465,0,0,1,1.848,0,1.105,1.105,0,0,1,.344.836,1.108,1.108,0,0,1-.348.844,1.448,1.448,0,0,1-1.836,0A1.108,1.108,0,0,1,81.688,6.359Zm8.836,8.3a.727.727,0,0,0-.41-.652,4.659,4.659,0,0,0-1.316-.426q-3.016-.633-3.016-2.562a2.323,2.323,0,0,1,.934-1.879,3.766,3.766,0,0,1,2.441-.754,4.053,4.053,0,0,1,2.574.758,2.388,2.388,0,0,1,.965,1.969H90.438a1.092,1.092,0,0,0-.312-.8A1.322,1.322,0,0,0,89.148,10a1.351,1.351,0,0,0-.883.258.814.814,0,0,0-.312.656.7.7,0,0,0,.355.605,3.657,3.657,0,0,0,1.2.4,9.8,9.8,0,0,1,1.422.379,2.336,2.336,0,0,1,1.789,2.273,2.2,2.2,0,0,1-.992,1.871,4.28,4.28,0,0,1-2.562.715,4.47,4.47,0,0,1-1.887-.379,3.166,3.166,0,0,1-1.293-1.039,2.414,2.414,0,0,1-.469-1.426h2.141a1.179,1.179,0,0,0,.445.922,1.766,1.766,0,0,0,1.109.32,1.635,1.635,0,0,0,.98-.246A.766.766,0,0,0,90.523,14.664Zm7.539,2.492a4.15,4.15,0,0,1-3.027-1.141,4.054,4.054,0,0,1-1.168-3.039v-.219a5.106,5.106,0,0,1,.492-2.277,3.612,3.612,0,0,1,1.395-1.547,3.914,3.914,0,0,1,2.059-.543,3.508,3.508,0,0,1,2.73,1.094,4.444,4.444,0,0,1,1,3.1v.922H96.156a2.1,2.1,0,0,0,.66,1.328,2,2,0,0,0,1.395.5,2.437,2.437,0,0,0,2.039-.945l1.109,1.242a3.389,3.389,0,0,1-1.375,1.121A4.511,4.511,0,0,1,98.063,17.156ZM97.8,10.219a1.414,1.414,0,0,0-1.09.453,2.341,2.341,0,0,0-.535,1.3H99.32v-.18a1.669,1.669,0,0,0-.406-1.16A1.459,1.459,0,0,0,97.8,10.219ZM104.9,8.547l.07.977a2.951,2.951,0,0,1,2.43-1.133,2.453,2.453,0,0,1,2,.789,3.682,3.682,0,0,1,.672,2.359V17h-2.258V11.594a1.465,1.465,0,0,0-.312-1.043,1.4,1.4,0,0,0-1.039-.324,1.553,1.553,0,0,0-1.43.813V17h-2.258V8.547ZM109.383,5.1a2.187,2.187,0,0,1-.516,1.48,1.6,1.6,0,0,1-1.258.6,1.908,1.908,0,0,1-.527-.066,3.539,3.539,0,0,1-.637-.285,3.435,3.435,0,0,0-.586-.27,1.432,1.432,0,0,0-.391-.051.627.627,0,0,0-.465.2.759.759,0,0,0-.191.555L103.5,7.18a2.22,2.22,0,0,1,.512-1.477,1.578,1.578,0,0,1,1.254-.609,1.614,1.614,0,0,1,.441.059,4.86,4.86,0,0,1,.676.285,4.392,4.392,0,0,0,.648.273,1.48,1.48,0,0,0,.375.047.659.659,0,0,0,.473-.191.728.728,0,0,0,.2-.551Zm6.289,12.055a4.15,4.15,0,0,1-3.027-1.141,4.054,4.054,0,0,1-1.168-3.039v-.219a5.106,5.106,0,0,1,.492-2.277,3.612,3.612,0,0,1,1.395-1.547,3.914,3.914,0,0,1,2.059-.543,3.508,3.508,0,0,1,2.73,1.094,4.444,4.444,0,0,1,1,3.1v.922h-5.383a2.1,2.1,0,0,0,.66,1.328,2,2,0,0,0,1.395.5,2.437,2.437,0,0,0,2.039-.945l1.109,1.242a3.389,3.389,0,0,1-1.375,1.121A4.511,4.511,0,0,1,115.672,17.156Zm-.258-6.937a1.414,1.414,0,0,0-1.09.453,2.341,2.341,0,0,0-.535,1.3h3.141v-.18a1.669,1.669,0,0,0-.406-1.16A1.459,1.459,0,0,0,115.414,10.219ZM63.547,35.336a1.481,1.481,0,0,0,1.016-.344,1.2,1.2,0,0,0,.406-.914h2.117a2.9,2.9,0,0,1-.469,1.574,3.093,3.093,0,0,1-1.262,1.109,3.949,3.949,0,0,1-1.77.395A3.67,3.67,0,0,1,60.727,36,4.56,4.56,0,0,1,59.68,32.82v-.148a4.508,4.508,0,0,1,1.039-3.117,3.627,3.627,0,0,1,2.852-1.164,3.555,3.555,0,0,1,2.543.9,3.2,3.2,0,0,1,.973,2.4H64.969a1.539,1.539,0,0,0-.406-1.066,1.513,1.513,0,0,0-2.223.164,3.324,3.324,0,0,0-.4,1.863v.234a3.366,3.366,0,0,0,.4,1.875A1.378,1.378,0,0,0,63.547,35.336ZM68.023,32.7a5.013,5.013,0,0,1,.484-2.242A3.546,3.546,0,0,1,69.9,28.93a4.069,4.069,0,0,1,2.113-.539,3.849,3.849,0,0,1,2.793,1.047,4.2,4.2,0,0,1,1.207,2.844l.016.578a4.418,4.418,0,0,1-1.086,3.121,4.209,4.209,0,0,1-5.832,0,4.5,4.5,0,0,1-1.09-3.187Zm2.258.164a3.151,3.151,0,0,0,.453,1.84,1.629,1.629,0,0,0,2.578.008,3.448,3.448,0,0,0,.461-2.012,3.12,3.12,0,0,0-.461-1.828,1.5,1.5,0,0,0-1.3-.648,1.475,1.475,0,0,0-1.281.645A3.506,3.506,0,0,0,70.281,32.859ZM79.5,28.547l.07.977A2.951,2.951,0,0,1,82,28.391a2.453,2.453,0,0,1,2,.789,3.682,3.682,0,0,1,.672,2.359V37H82.414V31.594a1.465,1.465,0,0,0-.312-1.043,1.4,1.4,0,0,0-1.039-.324,1.553,1.553,0,0,0-1.43.813V37H77.375V28.547Zm9.586-2.078v2.078h1.445V30.2H89.086v4.219a1.007,1.007,0,0,0,.18.672.9.9,0,0,0,.688.2,3.6,3.6,0,0,0,.664-.055v1.711a4.648,4.648,0,0,1-1.367.2,2.156,2.156,0,0,1-2.422-2.4V30.2H85.594V28.547h1.234V26.469ZM95.68,37.156a4.15,4.15,0,0,1-3.027-1.141,4.054,4.054,0,0,1-1.168-3.039v-.219a5.106,5.106,0,0,1,.492-2.277,3.612,3.612,0,0,1,1.395-1.547,3.914,3.914,0,0,1,2.059-.543,3.508,3.508,0,0,1,2.73,1.094,4.444,4.444,0,0,1,1,3.1v.922H93.773a2.1,2.1,0,0,0,.66,1.328,2,2,0,0,0,1.395.5,2.437,2.437,0,0,0,2.039-.945l1.109,1.242A3.389,3.389,0,0,1,97.6,36.754,4.511,4.511,0,0,1,95.68,37.156Zm-.258-6.937a1.414,1.414,0,0,0-1.09.453,2.341,2.341,0,0,0-.535,1.3h3.141v-.18a1.669,1.669,0,0,0-.406-1.16A1.459,1.459,0,0,0,95.422,30.219Zm7.094-1.672.07.977a2.951,2.951,0,0,1,2.43-1.133,2.453,2.453,0,0,1,2,.789,3.682,3.682,0,0,1,.672,2.359V37H105.43V31.594a1.465,1.465,0,0,0-.312-1.043,1.4,1.4,0,0,0-1.039-.324,1.553,1.553,0,0,0-1.43.813V37h-2.258V28.547ZM111.781,37h-2.266V28.547h2.266Zm-2.4-10.641a1.112,1.112,0,0,1,.34-.836,1.465,1.465,0,0,1,1.848,0,1.193,1.193,0,0,1,0,1.68,1.448,1.448,0,0,1-1.836,0A1.108,1.108,0,0,1,109.383,26.359Zm3.906,6.352a5.094,5.094,0,0,1,.887-3.148,2.877,2.877,0,0,1,2.426-1.172,2.589,2.589,0,0,1,2.039.922V25h2.266V37h-2.039l-.109-.9a2.657,2.657,0,0,1-2.172,1.055,2.869,2.869,0,0,1-2.395-1.176A5.258,5.258,0,0,1,113.289,32.711Zm2.258.164a3.328,3.328,0,0,0,.414,1.82,1.349,1.349,0,0,0,1.2.633,1.511,1.511,0,0,0,1.477-.883V31.109a1.489,1.489,0,0,0-1.461-.883Q115.547,30.227,115.547,32.875Zm6.758-.18a5.013,5.013,0,0,1,.484-2.242,3.546,3.546,0,0,1,1.395-1.523,4.069,4.069,0,0,1,2.113-.539,3.849,3.849,0,0,1,2.793,1.047,4.2,4.2,0,0,1,1.207,2.844l.016.578a4.418,4.418,0,0,1-1.086,3.121,4.209,4.209,0,0,1-5.832,0A4.5,4.5,0,0,1,122.3,32.8Zm2.258.164a3.151,3.151,0,0,0,.453,1.84,1.629,1.629,0,0,0,2.578.008,3.448,3.448,0,0,0,.461-2.012,3.12,3.12,0,0,0-.461-1.828,1.5,1.5,0,0,0-1.3-.648,1.475,1.475,0,0,0-1.281.645A3.506,3.506,0,0,0,124.563,32.859Z" transform="translate(-5422 -6580.729)" fill="#12263f"/>
      <path id="Trazado_230323" data-name="Trazado 230323" d="M63.5,12.836H61.629V17H59.285V5.625h4.227a4.778,4.778,0,0,1,3.109.9,3.1,3.1,0,0,1,1.094,2.539,3.5,3.5,0,0,1-.5,1.941,3.437,3.437,0,0,1-1.527,1.238l2.461,4.648V17H65.629Zm-1.867-1.9H63.52a1.936,1.936,0,0,0,1.367-.449,1.606,1.606,0,0,0,.484-1.238,1.719,1.719,0,0,0-.457-1.266,1.9,1.9,0,0,0-1.4-.461H61.629Zm11.609,6.219a4.15,4.15,0,0,1-3.027-1.141,4.054,4.054,0,0,1-1.168-3.039v-.219a5.106,5.106,0,0,1,.492-2.277A3.612,3.612,0,0,1,70.93,8.934a3.914,3.914,0,0,1,2.059-.543,3.508,3.508,0,0,1,2.73,1.094,4.444,4.444,0,0,1,1,3.1v.922H71.332a2.1,2.1,0,0,0,.66,1.328,2,2,0,0,0,1.395.5,2.437,2.437,0,0,0,2.039-.945l1.109,1.242a3.389,3.389,0,0,1-1.375,1.121A4.511,4.511,0,0,1,73.238,17.156Zm-.258-6.937a1.414,1.414,0,0,0-1.09.453,2.341,2.341,0,0,0-.535,1.3H74.5v-.18a1.669,1.669,0,0,0-.406-1.16A1.459,1.459,0,0,0,72.98,10.219Zm8.078,4.023,1.57-5.7h2.359L82.137,17H79.98L77.129,8.547h2.359ZM88.363,17H86.1V8.547h2.266Zm-2.4-10.641a1.112,1.112,0,0,1,.34-.836,1.465,1.465,0,0,1,1.848,0,1.105,1.105,0,0,1,.344.836,1.108,1.108,0,0,1-.348.844,1.448,1.448,0,0,1-1.836,0A1.108,1.108,0,0,1,85.965,6.359Zm8.836,8.3a.727.727,0,0,0-.41-.652,4.659,4.659,0,0,0-1.316-.426q-3.016-.633-3.016-2.562a2.323,2.323,0,0,1,.934-1.879,3.766,3.766,0,0,1,2.441-.754,4.053,4.053,0,0,1,2.574.758,2.388,2.388,0,0,1,.965,1.969H94.715a1.092,1.092,0,0,0-.312-.8A1.322,1.322,0,0,0,93.426,10a1.351,1.351,0,0,0-.883.258.814.814,0,0,0-.312.656.7.7,0,0,0,.355.605,3.657,3.657,0,0,0,1.2.4,9.8,9.8,0,0,1,1.422.379A2.336,2.336,0,0,1,97,14.57,2.2,2.2,0,0,1,96,16.441a4.28,4.28,0,0,1-2.562.715,4.47,4.47,0,0,1-1.887-.379,3.166,3.166,0,0,1-1.293-1.039,2.414,2.414,0,0,1-.469-1.426h2.141a1.179,1.179,0,0,0,.445.922,1.766,1.766,0,0,0,1.109.32,1.635,1.635,0,0,0,.98-.246A.766.766,0,0,0,94.8,14.664Zm7.539,2.492a4.15,4.15,0,0,1-3.027-1.141,4.054,4.054,0,0,1-1.168-3.039v-.219a5.106,5.106,0,0,1,.492-2.277,3.612,3.612,0,0,1,1.395-1.547,3.914,3.914,0,0,1,2.059-.543,3.508,3.508,0,0,1,2.73,1.094,4.444,4.444,0,0,1,1,3.1v.922h-5.383a2.1,2.1,0,0,0,.66,1.328,2,2,0,0,0,1.395.5,2.437,2.437,0,0,0,2.039-.945l1.109,1.242a3.389,3.389,0,0,1-1.375,1.121A4.511,4.511,0,0,1,102.34,17.156Zm-.258-6.937a1.414,1.414,0,0,0-1.09.453,2.341,2.341,0,0,0-.535,1.3H103.6v-.18a1.669,1.669,0,0,0-.406-1.16A1.459,1.459,0,0,0,102.082,10.219ZM113.465,17H111.2V5h2.266Zm1.508-4.3a5.013,5.013,0,0,1,.484-2.242,3.546,3.546,0,0,1,1.395-1.523,4.069,4.069,0,0,1,2.113-.539,3.849,3.849,0,0,1,2.793,1.047,4.2,4.2,0,0,1,1.207,2.844l.016.578a4.418,4.418,0,0,1-1.086,3.121,4.209,4.209,0,0,1-5.832,0,4.5,4.5,0,0,1-1.09-3.187Zm2.258.164a3.151,3.151,0,0,0,.453,1.84,1.629,1.629,0,0,0,2.578.008,3.448,3.448,0,0,0,.461-2.012,3.12,3.12,0,0,0-.461-1.828,1.5,1.5,0,0,0-1.3-.648,1.475,1.475,0,0,0-1.281.645A3.506,3.506,0,0,0,117.23,12.859Zm11.719,1.8a.727.727,0,0,0-.41-.652,4.659,4.659,0,0,0-1.316-.426q-3.016-.633-3.016-2.562a2.323,2.323,0,0,1,.934-1.879,3.766,3.766,0,0,1,2.441-.754,4.053,4.053,0,0,1,2.574.758,2.388,2.388,0,0,1,.965,1.969h-2.258a1.092,1.092,0,0,0-.312-.8,1.322,1.322,0,0,0-.977-.316,1.351,1.351,0,0,0-.883.258.814.814,0,0,0-.312.656.7.7,0,0,0,.355.605,3.657,3.657,0,0,0,1.2.4,9.8,9.8,0,0,1,1.422.379,2.336,2.336,0,0,1,1.789,2.273,2.205,2.205,0,0,1-.992,1.871,4.28,4.28,0,0,1-2.562.715,4.47,4.47,0,0,1-1.887-.379,3.166,3.166,0,0,1-1.293-1.039,2.414,2.414,0,0,1-.469-1.426h2.141a1.179,1.179,0,0,0,.445.922,1.766,1.766,0,0,0,1.109.32,1.635,1.635,0,0,0,.98-.246A.766.766,0,0,0,128.949,14.664ZM54.289,35.336a1.481,1.481,0,0,0,1.016-.344,1.2,1.2,0,0,0,.406-.914h2.117a2.9,2.9,0,0,1-.469,1.574A3.093,3.093,0,0,1,56.1,36.762a3.949,3.949,0,0,1-1.77.395A3.67,3.67,0,0,1,51.469,36a4.56,4.56,0,0,1-1.047-3.184v-.148a4.508,4.508,0,0,1,1.039-3.117,3.627,3.627,0,0,1,2.852-1.164,3.555,3.555,0,0,1,2.543.9,3.2,3.2,0,0,1,.973,2.4H55.711a1.539,1.539,0,0,0-.406-1.066,1.513,1.513,0,0,0-2.223.164,3.324,3.324,0,0,0-.4,1.863v.234a3.366,3.366,0,0,0,.4,1.875A1.378,1.378,0,0,0,54.289,35.336ZM58.766,32.7a5.013,5.013,0,0,1,.484-2.242,3.546,3.546,0,0,1,1.395-1.523,4.069,4.069,0,0,1,2.113-.539,3.849,3.849,0,0,1,2.793,1.047,4.2,4.2,0,0,1,1.207,2.844l.016.578a4.418,4.418,0,0,1-1.086,3.121,4.209,4.209,0,0,1-5.832,0,4.5,4.5,0,0,1-1.09-3.187Zm2.258.164a3.151,3.151,0,0,0,.453,1.84,1.629,1.629,0,0,0,2.578.008,3.448,3.448,0,0,0,.461-2.012,3.12,3.12,0,0,0-.461-1.828,1.5,1.5,0,0,0-1.3-.648,1.475,1.475,0,0,0-1.281.645A3.506,3.506,0,0,0,61.023,32.859Zm9.258-4.312.07.945a2.971,2.971,0,0,1,2.43-1.1,2.255,2.255,0,0,1,2.242,1.289,2.9,2.9,0,0,1,2.539-1.289,2.521,2.521,0,0,1,2.047.8,3.681,3.681,0,0,1,.672,2.41V37H78.016V31.609a1.61,1.61,0,0,0-.281-1.051,1.246,1.246,0,0,0-.992-.332,1.409,1.409,0,0,0-1.406.969l.008,5.8H73.086V31.617a1.59,1.59,0,0,0-.289-1.062,1.259,1.259,0,0,0-.984-.328,1.463,1.463,0,0,0-1.391.8V37H68.164V28.547Zm15.625,8.609a4.15,4.15,0,0,1-3.027-1.141,4.054,4.054,0,0,1-1.168-3.039v-.219A5.106,5.106,0,0,1,82.2,30.48,3.612,3.612,0,0,1,83.6,28.934a3.914,3.914,0,0,1,2.059-.543,3.508,3.508,0,0,1,2.73,1.094,4.444,4.444,0,0,1,1,3.1v.922H84a2.1,2.1,0,0,0,.66,1.328,2,2,0,0,0,1.395.5,2.437,2.437,0,0,0,2.039-.945L89.2,35.633a3.389,3.389,0,0,1-1.375,1.121A4.511,4.511,0,0,1,85.906,37.156Zm-.258-6.937a1.414,1.414,0,0,0-1.09.453,2.341,2.341,0,0,0-.535,1.3h3.141v-.18a1.669,1.669,0,0,0-.406-1.16A1.459,1.459,0,0,0,85.648,30.219Zm7.094-1.672.07.977a2.951,2.951,0,0,1,2.43-1.133,2.453,2.453,0,0,1,2,.789,3.682,3.682,0,0,1,.672,2.359V37H95.656V31.594a1.465,1.465,0,0,0-.312-1.043,1.4,1.4,0,0,0-1.039-.324,1.553,1.553,0,0,0-1.43.813V37H90.617V28.547Zm9.586-2.078v2.078h1.445V30.2h-1.445v4.219a1.007,1.007,0,0,0,.18.672.9.9,0,0,0,.688.2,3.6,3.6,0,0,0,.664-.055v1.711a4.648,4.648,0,0,1-1.367.2,2.156,2.156,0,0,1-2.422-2.4V30.2H98.836V28.547h1.234V26.469ZM109.93,37a2.507,2.507,0,0,1-.227-.758,2.732,2.732,0,0,1-2.133.914,3,3,0,0,1-2.059-.719,2.312,2.312,0,0,1-.816-1.812,2.389,2.389,0,0,1,1-2.062,4.915,4.915,0,0,1,2.879-.727h1.039v-.484a1.393,1.393,0,0,0-.3-.937,1.183,1.183,0,0,0-.949-.352,1.345,1.345,0,0,0-.895.273.929.929,0,0,0-.324.75h-2.258a2.268,2.268,0,0,1,.453-1.359,3,3,0,0,1,1.281-.98,4.669,4.669,0,0,1,1.859-.355,3.689,3.689,0,0,1,2.48.785,2.747,2.747,0,0,1,.918,2.207v3.664a4.041,4.041,0,0,0,.336,1.82V37Zm-1.867-1.57a1.945,1.945,0,0,0,.922-.223,1.462,1.462,0,0,0,.625-.6V33.156h-.844q-1.7,0-1.8,1.172l-.008.133a.9.9,0,0,0,.3.7A1.153,1.153,0,0,0,108.063,35.43Zm10.3-4.766a6.134,6.134,0,0,0-.812-.062,1.654,1.654,0,0,0-1.68.867V37h-2.258V28.547h2.133l.063,1.008a2.092,2.092,0,0,1,1.883-1.164,2.366,2.366,0,0,1,.7.1ZM121.828,37h-2.266V28.547h2.266Zm-2.4-10.641a1.112,1.112,0,0,1,.34-.836,1.465,1.465,0,0,1,1.848,0,1.193,1.193,0,0,1,0,1.68,1.448,1.448,0,0,1-1.836,0A1.108,1.108,0,0,1,119.43,26.359Zm3.906,6.336a5.013,5.013,0,0,1,.484-2.242,3.546,3.546,0,0,1,1.395-1.523,4.069,4.069,0,0,1,2.113-.539,3.849,3.849,0,0,1,2.793,1.047,4.2,4.2,0,0,1,1.207,2.844l.016.578a4.418,4.418,0,0,1-1.086,3.121,4.209,4.209,0,0,1-5.832,0,4.5,4.5,0,0,1-1.09-3.187Zm2.258.164a3.151,3.151,0,0,0,.453,1.84,1.629,1.629,0,0,0,2.578.008,3.448,3.448,0,0,0,.461-2.012,3.12,3.12,0,0,0-.461-1.828,1.5,1.5,0,0,0-1.3-.648,1.475,1.475,0,0,0-1.281.645A3.506,3.506,0,0,0,125.594,32.859Zm11.719,1.8a.727.727,0,0,0-.41-.652,4.659,4.659,0,0,0-1.316-.426q-3.016-.633-3.016-2.562a2.323,2.323,0,0,1,.934-1.879,3.766,3.766,0,0,1,2.441-.754,4.053,4.053,0,0,1,2.574.758,2.388,2.388,0,0,1,.965,1.969h-2.258a1.092,1.092,0,0,0-.312-.8,1.322,1.322,0,0,0-.977-.316,1.351,1.351,0,0,0-.883.258.814.814,0,0,0-.312.656.7.7,0,0,0,.355.605,3.657,3.657,0,0,0,1.2.4,9.8,9.8,0,0,1,1.422.379,2.336,2.336,0,0,1,1.789,2.273,2.205,2.205,0,0,1-.992,1.871,4.28,4.28,0,0,1-2.562.715,4.47,4.47,0,0,1-1.887-.379,3.166,3.166,0,0,1-1.293-1.039,2.414,2.414,0,0,1-.469-1.426h2.141a1.179,1.179,0,0,0,.445.922,1.766,1.766,0,0,0,1.109.32,1.635,1.635,0,0,0,.98-.246A.766.766,0,0,0,137.313,34.664Z" transform="translate(-5199 -6580.729)" fill="#12263f"/>
      <path id="Trazado_230324" data-name="Trazado 230324" d="M62.773,13.211A4.025,4.025,0,0,1,61.418,16.1,4.76,4.76,0,0,1,58.2,17.156a4.28,4.28,0,0,1-3.441-1.473A6.038,6.038,0,0,1,53.5,11.641v-.7a6.819,6.819,0,0,1,.578-2.891A4.332,4.332,0,0,1,55.73,6.137a5.164,5.164,0,0,1,5.668.387,4.326,4.326,0,0,1,1.391,2.961H60.445a2.376,2.376,0,0,0-.613-1.6,2.271,2.271,0,0,0-1.605-.5,1.991,1.991,0,0,0-1.754.84,4.707,4.707,0,0,0-.6,2.605V11.7a5.038,5.038,0,0,0,.559,2.7,1.954,1.954,0,0,0,1.762.852,2.314,2.314,0,0,0,1.621-.5,2.241,2.241,0,0,0,.613-1.535Zm6.141-2.547A6.134,6.134,0,0,0,68.1,10.6a1.654,1.654,0,0,0-1.68.867V17H64.164V8.547H66.3l.063,1.008a2.092,2.092,0,0,1,1.883-1.164,2.366,2.366,0,0,1,.7.1Zm4.977,6.492a4.15,4.15,0,0,1-3.027-1.141A4.054,4.054,0,0,1,69.7,12.977v-.219a5.106,5.106,0,0,1,.492-2.277,3.612,3.612,0,0,1,1.395-1.547,3.914,3.914,0,0,1,2.059-.543,3.508,3.508,0,0,1,2.73,1.094,4.444,4.444,0,0,1,1,3.1v.922H71.984a2.1,2.1,0,0,0,.66,1.328,2,2,0,0,0,1.395.5,2.437,2.437,0,0,0,2.039-.945l1.109,1.242a3.389,3.389,0,0,1-1.375,1.121A4.511,4.511,0,0,1,73.891,17.156Zm-.258-6.937a1.414,1.414,0,0,0-1.09.453,2.341,2.341,0,0,0-.535,1.3h3.141v-.18a1.669,1.669,0,0,0-.406-1.16A1.459,1.459,0,0,0,73.633,10.219Zm8.906,6.938a4.15,4.15,0,0,1-3.027-1.141,4.054,4.054,0,0,1-1.168-3.039v-.219a5.106,5.106,0,0,1,.492-2.277A3.612,3.612,0,0,1,80.23,8.934a3.914,3.914,0,0,1,2.059-.543,3.508,3.508,0,0,1,2.73,1.094,4.444,4.444,0,0,1,1,3.1v.922H80.633a2.1,2.1,0,0,0,.66,1.328,2,2,0,0,0,1.395.5,2.437,2.437,0,0,0,2.039-.945l1.109,1.242a3.389,3.389,0,0,1-1.375,1.121A4.511,4.511,0,0,1,82.539,17.156Zm-.258-6.937a1.414,1.414,0,0,0-1.09.453,2.341,2.341,0,0,0-.535,1.3H83.8v-.18a1.669,1.669,0,0,0-.406-1.16A1.459,1.459,0,0,0,82.281,10.219Zm12.891,6.938a4.15,4.15,0,0,1-3.027-1.141,4.054,4.054,0,0,1-1.168-3.039v-.219a5.106,5.106,0,0,1,.492-2.277,3.612,3.612,0,0,1,1.395-1.547,3.914,3.914,0,0,1,2.059-.543,3.508,3.508,0,0,1,2.73,1.094,4.444,4.444,0,0,1,1,3.1v.922H93.266a2.1,2.1,0,0,0,.66,1.328,2,2,0,0,0,1.395.5,2.437,2.437,0,0,0,2.039-.945l1.109,1.242a3.389,3.389,0,0,1-1.375,1.121A4.511,4.511,0,0,1,95.172,17.156Zm-.258-6.937a1.414,1.414,0,0,0-1.09.453,2.341,2.341,0,0,0-.535,1.3H96.43v-.18a1.669,1.669,0,0,0-.406-1.16A1.459,1.459,0,0,0,94.914,10.219Zm7.4,6.781h-2.266V5h2.266Zm7.328,0h-2.219l2.086-12h2.211Zm5.883.156a3.677,3.677,0,0,1-1.965-.543,3.292,3.292,0,0,1-1.277-1.469,4.093,4.093,0,0,1-.328-2.059l.023-.312a5.465,5.465,0,0,1,.719-2.266,4.341,4.341,0,0,1,1.547-1.59,3.827,3.827,0,0,1,2.094-.527,2.926,2.926,0,0,1,2.473,1.2,4.105,4.105,0,0,1,.637,2.957l-.125.961h-5.18a1.814,1.814,0,0,0,.4,1.313,1.521,1.521,0,0,0,1.172.508,2.712,2.712,0,0,0,2.109-.93l1.008,1.25a3.135,3.135,0,0,1-1.375,1.121A4.5,4.5,0,0,1,115.523,17.156Zm.7-6.945a1.565,1.565,0,0,0-1.082.383,3.363,3.363,0,0,0-.848,1.383h3.031l.047-.2a2.071,2.071,0,0,0,.008-.594,1.134,1.134,0,0,0-.383-.707A1.2,1.2,0,0,0,116.227,10.211ZM124.867,17a2.281,2.281,0,0,1-.086-.766,2.863,2.863,0,0,1-2.156.922,2.594,2.594,0,0,1-1.84-.723,2.186,2.186,0,0,1-.684-1.746,2.527,2.527,0,0,1,1.16-2.121,5.266,5.266,0,0,1,2.965-.738l1.031.016.109-.508a1.764,1.764,0,0,0,.023-.492.846.846,0,0,0-.277-.574.955.955,0,0,0-.629-.215,1.345,1.345,0,0,0-.875.254,1.231,1.231,0,0,0-.461.777l-2.211.008a2.457,2.457,0,0,1,1.113-1.965,4.312,4.312,0,0,1,2.613-.738,3.117,3.117,0,0,1,2.25.855,2.5,2.5,0,0,1,.68,2.121l-.648,4.047-.039.5a2.412,2.412,0,0,0,.133.938l-.008.148Zm-1.7-1.555a2.017,2.017,0,0,0,1.664-.828l.273-1.461-.766-.008a2.139,2.139,0,0,0-1.758.742,1.292,1.292,0,0,0-.242.633.75.75,0,0,0,.176.668A.891.891,0,0,0,123.172,15.445Zm9.4-7.062a2.4,2.4,0,0,1,1.906.945L135.3,5h2.211l-2.078,12h-1.969l.125-.906a2.736,2.736,0,0,1-2.2,1.07,2.433,2.433,0,0,1-1.383-.414,2.607,2.607,0,0,1-.918-1.168,4.7,4.7,0,0,1-.355-1.7,6.4,6.4,0,0,1,.023-.953l.047-.352a6.767,6.767,0,0,1,.723-2.281,3.766,3.766,0,0,1,1.313-1.461A3.094,3.094,0,0,1,132.57,8.383Zm-1.6,4.547a6.326,6.326,0,0,0-.039,1q.078,1.375,1.109,1.4a1.885,1.885,0,0,0,1.617-.875l.6-3.359a1.248,1.248,0,0,0-1.219-.875,1.606,1.606,0,0,0-1.34.621A4.176,4.176,0,0,0,130.969,12.93ZM67.8,28.539l-.18.961A3.112,3.112,0,0,1,70.1,28.391a2.379,2.379,0,0,1,1.3.359,1.679,1.679,0,0,1,.7.93,3.255,3.255,0,0,1,2.625-1.289,2.126,2.126,0,0,1,1.754.8,3.271,3.271,0,0,1,.5,2.234l-.016.2L76.055,37H73.844l.9-5.4a3.9,3.9,0,0,0,.023-.539.837.837,0,0,0-.937-.844,1.86,1.86,0,0,0-1.555.969l-.023.18L71.266,37h-2.2l.9-5.383a3.9,3.9,0,0,0,.023-.539.836.836,0,0,0-.93-.852,1.867,1.867,0,0,0-1.508.789L66.492,37h-2.2l1.461-8.453ZM82.7,37a2.281,2.281,0,0,1-.086-.766,2.863,2.863,0,0,1-2.156.922,2.594,2.594,0,0,1-1.84-.723,2.186,2.186,0,0,1-.684-1.746,2.527,2.527,0,0,1,1.16-2.121,5.266,5.266,0,0,1,2.965-.738l1.031.016.109-.508a1.764,1.764,0,0,0,.023-.492.846.846,0,0,0-.277-.574.955.955,0,0,0-.629-.215,1.345,1.345,0,0,0-.875.254,1.231,1.231,0,0,0-.461.777l-2.211.008a2.457,2.457,0,0,1,1.113-1.965,4.312,4.312,0,0,1,2.613-.738,3.117,3.117,0,0,1,2.25.855,2.5,2.5,0,0,1,.68,2.121l-.648,4.047-.039.5a2.412,2.412,0,0,0,.133.938L84.859,37ZM81,35.445a2.017,2.017,0,0,0,1.664-.828l.273-1.461-.766-.008a2.139,2.139,0,0,0-1.758.742,1.292,1.292,0,0,0-.242.633.75.75,0,0,0,.176.668A.891.891,0,0,0,81,35.445Zm5.625-2.68A5.849,5.849,0,0,1,87.9,29.582a3.242,3.242,0,0,1,2.629-1.2,2.37,2.37,0,0,1,2.016.977l.289-.82,2.023.008-1.383,8.164a3.983,3.983,0,0,1-1.437,2.672,4.471,4.471,0,0,1-3,.953,4.168,4.168,0,0,1-1.672-.379,3.575,3.575,0,0,1-1.312-1l1.094-1.344a2.349,2.349,0,0,0,1.844.961,2.166,2.166,0,0,0,1.469-.449,2.4,2.4,0,0,0,.828-1.355l.125-.508a2.749,2.749,0,0,1-2.07.891,2.428,2.428,0,0,1-1.961-.918,3.947,3.947,0,0,1-.8-2.348A7.89,7.89,0,0,1,86.625,32.766Zm2.164.922a2.015,2.015,0,0,0,.309,1.176,1.08,1.08,0,0,0,.895.465,1.973,1.973,0,0,0,1.594-.766l.656-3.578A1.3,1.3,0,0,0,91,30.219a1.729,1.729,0,0,0-1.43.68,3.552,3.552,0,0,0-.734,1.867A8.189,8.189,0,0,0,88.789,33.688Zm9.836-5.148-.187,1a3.042,3.042,0,0,1,2.461-1.148,2.028,2.028,0,0,1,1.766.875,3.526,3.526,0,0,1,.414,2.359L102.188,37h-2.2l.906-5.4a2.528,2.528,0,0,0,.016-.555.9.9,0,0,0-1-.82,1.9,1.9,0,0,0-1.555.8L97.3,37h-2.2l1.469-8.453Zm9.3,8.617a3.677,3.677,0,0,1-1.965-.543,3.292,3.292,0,0,1-1.277-1.469,4.093,4.093,0,0,1-.328-2.059l.023-.312a5.465,5.465,0,0,1,.719-2.266,4.341,4.341,0,0,1,1.547-1.59,3.827,3.827,0,0,1,2.094-.527,2.926,2.926,0,0,1,2.473,1.2,4.105,4.105,0,0,1,.637,2.957l-.125.961h-5.18a1.814,1.814,0,0,0,.4,1.313,1.521,1.521,0,0,0,1.172.508,2.712,2.712,0,0,0,2.109-.93l1.008,1.25a3.135,3.135,0,0,1-1.375,1.121A4.5,4.5,0,0,1,107.93,37.156Zm.7-6.945a1.565,1.565,0,0,0-1.082.383,3.363,3.363,0,0,0-.848,1.383h3.031l.047-.2a2.071,2.071,0,0,0,.008-.594,1.134,1.134,0,0,0-.383-.707A1.2,1.2,0,0,0,108.633,30.211Zm8.219-3.742-.367,2.078h1.406L117.6,30.2H116.2l-.719,4.234a1.077,1.077,0,0,0,.063.609q.109.211.531.227.125.008.672-.039l-.156,1.727a3.706,3.706,0,0,1-1.266.18,1.985,1.985,0,0,1-1.617-.68,2.456,2.456,0,0,1-.437-1.8l.727-4.461h-1.2l.289-1.656h1.2l.359-2.078Zm5.75,8.148q.125-.625-.867-.906l-.711-.18q-2.523-.7-2.453-2.453a2.428,2.428,0,0,1,1.059-1.949,3.942,3.942,0,0,1,2.457-.738,3.536,3.536,0,0,1,2.313.758,2.5,2.5,0,0,1,.9,1.977l-2.187-.008a.963.963,0,0,0-1.078-1.1,1.551,1.551,0,0,0-.895.258,1.061,1.061,0,0,0-.465.7q-.117.625.945.883l.313.07a6.285,6.285,0,0,1,1.648.59,2.488,2.488,0,0,1,.879.824,2.04,2.04,0,0,1,.285,1.18,2.251,2.251,0,0,1-.52,1.406,3.18,3.18,0,0,1-1.359.93,4.736,4.736,0,0,1-1.816.3,3.568,3.568,0,0,1-2.344-.809,2.607,2.607,0,0,1-.953-2.051l2.078.016a1.142,1.142,0,0,0,1.3,1.227,1.845,1.845,0,0,0,1-.25A.988.988,0,0,0,122.6,34.617Z" transform="translate(-4982 -6580.729)" fill="#12263f"/>
      <path id="Trazado_230325" data-name="Trazado 230325" d="M24.891,12.836H23.023V17H20.68V5.625h4.227a4.778,4.778,0,0,1,3.109.9,3.1,3.1,0,0,1,1.094,2.539,3.5,3.5,0,0,1-.5,1.941,3.437,3.437,0,0,1-1.527,1.238l2.461,4.648V17H27.023Zm-1.867-1.9h1.891a1.936,1.936,0,0,0,1.367-.449,1.606,1.606,0,0,0,.484-1.238,1.719,1.719,0,0,0-.457-1.266,1.9,1.9,0,0,0-1.4-.461H23.023Zm11.609,6.219a4.15,4.15,0,0,1-3.027-1.141,4.054,4.054,0,0,1-1.168-3.039v-.219a5.106,5.106,0,0,1,.492-2.277,3.612,3.612,0,0,1,1.395-1.547,3.914,3.914,0,0,1,2.059-.543,3.508,3.508,0,0,1,2.73,1.094,4.444,4.444,0,0,1,1,3.1v.922H32.727a2.1,2.1,0,0,0,.66,1.328,2,2,0,0,0,1.395.5,2.437,2.437,0,0,0,2.039-.945l1.109,1.242a3.389,3.389,0,0,1-1.375,1.121A4.511,4.511,0,0,1,34.633,17.156Zm-.258-6.937a1.414,1.414,0,0,0-1.09.453,2.341,2.341,0,0,0-.535,1.3h3.141v-.18a1.669,1.669,0,0,0-.406-1.16A1.459,1.459,0,0,0,34.375,10.219ZM44.289,17a2.507,2.507,0,0,1-.227-.758,2.732,2.732,0,0,1-2.133.914,3,3,0,0,1-2.059-.719,2.312,2.312,0,0,1-.816-1.812,2.389,2.389,0,0,1,1-2.062,4.915,4.915,0,0,1,2.879-.727h1.039v-.484a1.393,1.393,0,0,0-.3-.937,1.183,1.183,0,0,0-.949-.352,1.345,1.345,0,0,0-.895.273.929.929,0,0,0-.324.75H39.242A2.268,2.268,0,0,1,39.7,9.727a3,3,0,0,1,1.281-.98,4.669,4.669,0,0,1,1.859-.355,3.689,3.689,0,0,1,2.48.785,2.747,2.747,0,0,1,.918,2.207v3.664a4.041,4.041,0,0,0,.336,1.82V17Zm-1.867-1.57a1.945,1.945,0,0,0,.922-.223,1.462,1.462,0,0,0,.625-.6V13.156h-.844q-1.7,0-1.8,1.172l-.008.133a.9.9,0,0,0,.3.7A1.153,1.153,0,0,0,42.422,15.43ZM50.352,17H48.086V5h2.266Zm4.242,0H52.328V8.547h2.266ZM52.2,6.359a1.112,1.112,0,0,1,.34-.836,1.465,1.465,0,0,1,1.848,0,1.105,1.105,0,0,1,.344.836,1.108,1.108,0,0,1-.348.844,1.448,1.448,0,0,1-1.836,0A1.108,1.108,0,0,1,52.2,6.359Zm7.773,8.977a1.481,1.481,0,0,0,1.016-.344,1.2,1.2,0,0,0,.406-.914h2.117a2.9,2.9,0,0,1-.469,1.574,3.093,3.093,0,0,1-1.262,1.109,3.949,3.949,0,0,1-1.77.395A3.67,3.67,0,0,1,57.148,16,4.56,4.56,0,0,1,56.1,12.82v-.148a4.508,4.508,0,0,1,1.039-3.117,3.627,3.627,0,0,1,2.852-1.164,3.555,3.555,0,0,1,2.543.9,3.2,3.2,0,0,1,.973,2.4H61.391a1.539,1.539,0,0,0-.406-1.066,1.513,1.513,0,0,0-2.223.164,3.324,3.324,0,0,0-.4,1.863v.234a3.366,3.366,0,0,0,.4,1.875A1.378,1.378,0,0,0,59.969,15.336Zm8.719,1.82a4.15,4.15,0,0,1-3.027-1.141,4.054,4.054,0,0,1-1.168-3.039v-.219a5.106,5.106,0,0,1,.492-2.277,3.612,3.612,0,0,1,1.395-1.547,3.914,3.914,0,0,1,2.059-.543,3.508,3.508,0,0,1,2.73,1.094,4.444,4.444,0,0,1,1,3.1v.922H66.781a2.1,2.1,0,0,0,.66,1.328,2,2,0,0,0,1.395.5,2.437,2.437,0,0,0,2.039-.945l1.109,1.242a3.389,3.389,0,0,1-1.375,1.121A4.511,4.511,0,0,1,68.688,17.156Zm-.258-6.937a1.414,1.414,0,0,0-1.09.453,2.341,2.341,0,0,0-.535,1.3h3.141v-.18a1.669,1.669,0,0,0-.406-1.16A1.459,1.459,0,0,0,68.43,10.219Zm12.516,5.117a1.481,1.481,0,0,0,1.016-.344,1.2,1.2,0,0,0,.406-.914h2.117a2.9,2.9,0,0,1-.469,1.574,3.093,3.093,0,0,1-1.262,1.109,3.949,3.949,0,0,1-1.77.395A3.67,3.67,0,0,1,78.125,16a4.56,4.56,0,0,1-1.047-3.184v-.148a4.508,4.508,0,0,1,1.039-3.117,3.627,3.627,0,0,1,2.852-1.164,3.555,3.555,0,0,1,2.543.9,3.2,3.2,0,0,1,.973,2.4H82.367a1.539,1.539,0,0,0-.406-1.066,1.513,1.513,0,0,0-2.223.164,3.324,3.324,0,0,0-.4,1.863v.234a3.366,3.366,0,0,0,.4,1.875A1.378,1.378,0,0,0,80.945,15.336ZM90.672,17a2.507,2.507,0,0,1-.227-.758,2.732,2.732,0,0,1-2.133.914,3,3,0,0,1-2.059-.719,2.312,2.312,0,0,1-.816-1.812,2.389,2.389,0,0,1,1-2.062,4.915,4.915,0,0,1,2.879-.727h1.039v-.484a1.393,1.393,0,0,0-.3-.937,1.183,1.183,0,0,0-.949-.352,1.345,1.345,0,0,0-.895.273.929.929,0,0,0-.324.75H85.625a2.268,2.268,0,0,1,.453-1.359,3,3,0,0,1,1.281-.98,4.669,4.669,0,0,1,1.859-.355,3.689,3.689,0,0,1,2.48.785,2.747,2.747,0,0,1,.918,2.207v3.664a4.041,4.041,0,0,0,.336,1.82V17ZM88.8,15.43a1.945,1.945,0,0,0,.922-.223,1.462,1.462,0,0,0,.625-.6V13.156h-.844q-1.7,0-1.8,1.172l-.008.133a.9.9,0,0,0,.3.7A1.153,1.153,0,0,0,88.8,15.43Zm7.664-6.883.07.945a2.971,2.971,0,0,1,2.43-1.1,2.255,2.255,0,0,1,2.242,1.289,2.9,2.9,0,0,1,2.539-1.289,2.521,2.521,0,0,1,2.047.8,3.681,3.681,0,0,1,.672,2.41V17H104.2V11.609a1.61,1.61,0,0,0-.281-1.051,1.246,1.246,0,0,0-.992-.332,1.409,1.409,0,0,0-1.406.969l.008,5.8H99.273V11.617a1.59,1.59,0,0,0-.289-1.062A1.259,1.259,0,0,0,98,10.227a1.463,1.463,0,0,0-1.391.8V17H94.352V8.547Zm19.344,4.3a5.07,5.07,0,0,1-.887,3.129,2.843,2.843,0,0,1-2.395,1.176,2.633,2.633,0,0,1-2.07-.891V20.25H108.2V8.547H110.3l.078.828a2.654,2.654,0,0,1,2.141-.984,2.862,2.862,0,0,1,2.43,1.156,5.207,5.207,0,0,1,.867,3.188Zm-2.258-.164a3.327,3.327,0,0,0-.418-1.82,1.361,1.361,0,0,0-1.215-.641,1.478,1.478,0,0,0-1.461.813V14.5a1.5,1.5,0,0,0,1.477.836Q113.555,15.336,113.555,12.688ZM122.109,17a2.507,2.507,0,0,1-.227-.758,2.732,2.732,0,0,1-2.133.914,3,3,0,0,1-2.059-.719,2.312,2.312,0,0,1-.816-1.812,2.389,2.389,0,0,1,1-2.062,4.915,4.915,0,0,1,2.879-.727h1.039v-.484a1.393,1.393,0,0,0-.3-.937,1.183,1.183,0,0,0-.949-.352,1.345,1.345,0,0,0-.895.273.929.929,0,0,0-.324.75h-2.258a2.268,2.268,0,0,1,.453-1.359,3,3,0,0,1,1.281-.98,4.669,4.669,0,0,1,1.859-.355,3.689,3.689,0,0,1,2.48.785,2.747,2.747,0,0,1,.918,2.207v3.664a4.041,4.041,0,0,0,.336,1.82V17Zm-1.867-1.57a1.945,1.945,0,0,0,.922-.223,1.462,1.462,0,0,0,.625-.6V13.156h-.844q-1.7,0-1.8,1.172l-.008.133a.9.9,0,0,0,.3.7A1.153,1.153,0,0,0,120.242,15.43Zm7.625-6.883.07.977a2.951,2.951,0,0,1,2.43-1.133,2.453,2.453,0,0,1,2,.789,3.682,3.682,0,0,1,.672,2.359V17h-2.258V11.594a1.465,1.465,0,0,0-.312-1.043,1.4,1.4,0,0,0-1.039-.324,1.553,1.553,0,0,0-1.43.813V17h-2.258V8.547ZM132.352,5.1a2.187,2.187,0,0,1-.516,1.48,1.6,1.6,0,0,1-1.258.6,1.908,1.908,0,0,1-.527-.066,3.539,3.539,0,0,1-.637-.285,3.434,3.434,0,0,0-.586-.27,1.432,1.432,0,0,0-.391-.051.627.627,0,0,0-.465.2.759.759,0,0,0-.191.555l-1.312-.078A2.22,2.22,0,0,1,126.98,5.7a1.578,1.578,0,0,1,1.254-.609,1.614,1.614,0,0,1,.441.059,4.861,4.861,0,0,1,.676.285,4.392,4.392,0,0,0,.648.273,1.48,1.48,0,0,0,.375.047.659.659,0,0,0,.473-.191.728.728,0,0,0,.2-.551Zm7.3,11.9a2.507,2.507,0,0,1-.227-.758,2.732,2.732,0,0,1-2.133.914,3,3,0,0,1-2.059-.719,2.312,2.312,0,0,1-.816-1.812,2.389,2.389,0,0,1,1-2.062,4.915,4.915,0,0,1,2.879-.727h1.039v-.484a1.393,1.393,0,0,0-.3-.937,1.183,1.183,0,0,0-.949-.352,1.345,1.345,0,0,0-.895.273.929.929,0,0,0-.324.75H134.6a2.268,2.268,0,0,1,.453-1.359,3,3,0,0,1,1.281-.98,4.669,4.669,0,0,1,1.859-.355,3.689,3.689,0,0,1,2.48.785,2.747,2.747,0,0,1,.918,2.207v3.664a4.041,4.041,0,0,0,.336,1.82V17Zm-1.867-1.57a1.945,1.945,0,0,0,.922-.223,1.462,1.462,0,0,0,.625-.6V13.156h-.844q-1.7,0-1.8,1.172l-.008.133a.9.9,0,0,0,.3.7A1.153,1.153,0,0,0,137.781,15.43Zm17.141-2.578a5.07,5.07,0,0,1-.887,3.129,2.843,2.843,0,0,1-2.395,1.176,2.633,2.633,0,0,1-2.07-.891V20.25h-2.258V8.547h2.094l.078.828a2.654,2.654,0,0,1,2.141-.984,2.862,2.862,0,0,1,2.43,1.156,5.207,5.207,0,0,1,.867,3.188Zm-2.258-.164a3.327,3.327,0,0,0-.418-1.82,1.361,1.361,0,0,0-1.215-.641,1.479,1.479,0,0,0-1.461.813V14.5a1.5,1.5,0,0,0,1.477.836Q152.664,15.336,152.664,12.688Zm3.3.008a5.013,5.013,0,0,1,.484-2.242,3.546,3.546,0,0,1,1.395-1.523,4.069,4.069,0,0,1,2.113-.539,3.849,3.849,0,0,1,2.793,1.047,4.2,4.2,0,0,1,1.207,2.844l.016.578a4.418,4.418,0,0,1-1.086,3.121,4.209,4.209,0,0,1-5.832,0,4.5,4.5,0,0,1-1.09-3.187Zm2.258.164a3.151,3.151,0,0,0,.453,1.84,1.629,1.629,0,0,0,2.578.008,3.448,3.448,0,0,0,.461-2.012,3.12,3.12,0,0,0-.461-1.828,1.5,1.5,0,0,0-1.3-.648,1.475,1.475,0,0,0-1.281.645A3.506,3.506,0,0,0,158.227,12.859Zm11.891-2.2a6.134,6.134,0,0,0-.812-.062,1.654,1.654,0,0,0-1.68.867V17h-2.258V8.547H167.5l.063,1.008a2.092,2.092,0,0,1,1.883-1.164,2.366,2.366,0,0,1,.7.1ZM67.449,28.547l.07.945a2.971,2.971,0,0,1,2.43-1.1,2.255,2.255,0,0,1,2.242,1.289,2.9,2.9,0,0,1,2.539-1.289,2.521,2.521,0,0,1,2.047.8,3.681,3.681,0,0,1,.672,2.41V37H75.184V31.609a1.61,1.61,0,0,0-.281-1.051,1.246,1.246,0,0,0-.992-.332A1.409,1.409,0,0,0,72.5,31.2l.008,5.8H70.254V31.617a1.59,1.59,0,0,0-.289-1.062,1.259,1.259,0,0,0-.984-.328,1.463,1.463,0,0,0-1.391.8V37H65.332V28.547Zm15.625,8.609a4.15,4.15,0,0,1-3.027-1.141,4.054,4.054,0,0,1-1.168-3.039v-.219a5.106,5.106,0,0,1,.492-2.277,3.612,3.612,0,0,1,1.395-1.547,3.914,3.914,0,0,1,2.059-.543,3.508,3.508,0,0,1,2.73,1.094,4.444,4.444,0,0,1,1,3.1v.922H81.168a2.1,2.1,0,0,0,.66,1.328,2,2,0,0,0,1.395.5,2.437,2.437,0,0,0,2.039-.945l1.109,1.242A3.389,3.389,0,0,1,85,36.754,4.511,4.511,0,0,1,83.074,37.156Zm-.258-6.937a1.414,1.414,0,0,0-1.09.453,2.341,2.341,0,0,0-.535,1.3h3.141v-.18a1.669,1.669,0,0,0-.406-1.16A1.459,1.459,0,0,0,82.816,30.219Zm7.094-1.672.07.977a2.951,2.951,0,0,1,2.43-1.133,2.453,2.453,0,0,1,2,.789,3.682,3.682,0,0,1,.672,2.359V37H92.824V31.594a1.465,1.465,0,0,0-.312-1.043,1.4,1.4,0,0,0-1.039-.324,1.553,1.553,0,0,0-1.43.813V37H87.785V28.547Zm11.461,6.117a.727.727,0,0,0-.41-.652,4.659,4.659,0,0,0-1.316-.426q-3.016-.633-3.016-2.562a2.323,2.323,0,0,1,.934-1.879A3.766,3.766,0,0,1,100,28.391a4.053,4.053,0,0,1,2.574.758,2.388,2.388,0,0,1,.965,1.969h-2.258a1.092,1.092,0,0,0-.312-.8A1.322,1.322,0,0,0,100,30a1.351,1.351,0,0,0-.883.258.814.814,0,0,0-.312.656.7.7,0,0,0,.355.605,3.657,3.657,0,0,0,1.2.4,9.8,9.8,0,0,1,1.422.379,2.336,2.336,0,0,1,1.789,2.273,2.2,2.2,0,0,1-.992,1.871,4.28,4.28,0,0,1-2.562.715,4.47,4.47,0,0,1-1.887-.379,3.166,3.166,0,0,1-1.293-1.039,2.414,2.414,0,0,1-.469-1.426H98.5a1.179,1.179,0,0,0,.445.922,1.766,1.766,0,0,0,1.109.32,1.635,1.635,0,0,0,.98-.246A.766.766,0,0,0,101.371,34.664ZM109.918,37a2.507,2.507,0,0,1-.227-.758,2.732,2.732,0,0,1-2.133.914,3,3,0,0,1-2.059-.719,2.312,2.312,0,0,1-.816-1.812,2.389,2.389,0,0,1,1-2.062,4.915,4.915,0,0,1,2.879-.727H109.6v-.484a1.393,1.393,0,0,0-.3-.937,1.183,1.183,0,0,0-.949-.352,1.345,1.345,0,0,0-.895.273.929.929,0,0,0-.324.75h-2.258a2.268,2.268,0,0,1,.453-1.359,3,3,0,0,1,1.281-.98,4.669,4.669,0,0,1,1.859-.355,3.689,3.689,0,0,1,2.48.785,2.747,2.747,0,0,1,.918,2.207v3.664a4.041,4.041,0,0,0,.336,1.82V37Zm-1.867-1.57a1.945,1.945,0,0,0,.922-.223,1.462,1.462,0,0,0,.625-.6V33.156h-.844q-1.7,0-1.8,1.172l-.008.133a.9.9,0,0,0,.3.7A1.153,1.153,0,0,0,108.051,35.43Zm7.938-6.883v8.914a3.024,3.024,0,0,1-.742,2.176,2.821,2.821,0,0,1-2.141.777,4.591,4.591,0,0,1-1.117-.133V38.492a4.238,4.238,0,0,0,.711.07q1.023,0,1.023-1.086v-8.93Zm-2.445-2.187a1.112,1.112,0,0,1,.34-.836,1.47,1.47,0,0,1,1.852,0,1.2,1.2,0,0,1-.008,1.68,1.448,1.448,0,0,1-1.836,0A1.108,1.108,0,0,1,113.543,26.359Zm8.1,10.8a4.15,4.15,0,0,1-3.027-1.141,4.054,4.054,0,0,1-1.168-3.039v-.219a5.106,5.106,0,0,1,.492-2.277,3.612,3.612,0,0,1,1.395-1.547,3.914,3.914,0,0,1,2.059-.543,3.508,3.508,0,0,1,2.73,1.094,4.444,4.444,0,0,1,1,3.1v.922h-5.383a2.1,2.1,0,0,0,.66,1.328,2,2,0,0,0,1.395.5,2.437,2.437,0,0,0,2.039-.945l1.109,1.242a3.389,3.389,0,0,1-1.375,1.121A4.511,4.511,0,0,1,121.645,37.156Zm-.258-6.937a1.414,1.414,0,0,0-1.09.453,2.341,2.341,0,0,0-.535,1.3H122.9v-.18a1.669,1.669,0,0,0-.406-1.16A1.459,1.459,0,0,0,121.387,30.219Z" transform="translate(-4769 -6580.729)" fill="#12263f"/>
      <g id="Grupo_181361" data-name="Grupo 181361" transform="translate(-5402 -6814)" clip-path="url(#clip-path-2)">
        <path id="Trazado_230256" data-name="Trazado 230256" d="M59.051,51.521H18.822L59.051,119.63,99.28,51.521Z" transform="translate(20.082 54.972)" fill="#0053a0"/>
        <g id="Grupo_181360" data-name="Grupo 181360">
          <g id="Grupo_181359" data-name="Grupo 181359" clip-path="url(#clip-path-2)">
            <path id="Trazado_230257" data-name="Trazado 230257" d="M85.056,85.056H0A85.052,85.052,0,0,1,85.051,0h0Z" transform="translate(0)" fill="#0053a0"/>
            <path id="Trazado_230258" data-name="Trazado 230258" d="M73.448,5.322A68.124,68.124,0,1,1,5.323,73.447,68.124,68.124,0,0,1,73.448,5.322" transform="translate(5.679 5.678)" fill="#88bae6"/>
            <path id="Trazado_230259" data-name="Trazado 230259" d="M128.508,69A59.507,59.507,0,1,1,69,9.5,59.505,59.505,0,0,1,128.508,69" transform="translate(10.13 10.131)" fill="#fff"/>
            <path id="Trazado_230260" data-name="Trazado 230260" d="M163.913,51.521H123.683l40.229,68.109,40.229-68.109Z" transform="translate(131.966 54.972)" fill="#3c9a89"/>
            <path id="Trazado_230261" data-name="Trazado 230261" d="M189.918,85.056H104.862A85.052,85.052,0,0,1,189.913,0h0Z" transform="translate(111.884)" fill="#3c9a89"/>
            <path id="Trazado_230262" data-name="Trazado 230262" d="M178.309,5.322a68.124,68.124,0,1,1-68.125,68.125A68.124,68.124,0,0,1,178.309,5.322" transform="translate(117.562 5.678)" fill="#88c7bd"/>
            <path id="Trazado_230263" data-name="Trazado 230263" d="M233.37,69A59.507,59.507,0,1,1,173.864,9.5,59.505,59.505,0,0,1,233.37,69" transform="translate(122.014 10.131)" fill="#fff"/>
            <line id="Línea_1807" data-name="Línea 1807" x2="195.969" transform="translate(91.6 204.79)" fill="none" stroke="#88bae6" stroke-miterlimit="10" stroke-width="2" stroke-dasharray="4.034 4.034"/>
            <path id="Trazado_230264" data-name="Trazado 230264" d="M268.774,51.521H228.545l40.229,68.109L309,51.521Z" transform="translate(243.849 54.972)" fill="#524994"/>
            <path id="Trazado_230265" data-name="Trazado 230265" d="M294.78,85.056H209.724A85.052,85.052,0,0,1,294.775,0h0Z" transform="translate(223.768)" fill="#524994"/>
            <path id="Trazado_230266" data-name="Trazado 230266" d="M283.171,5.322a68.124,68.124,0,1,1-68.125,68.125A68.124,68.124,0,0,1,283.171,5.322" transform="translate(229.446 5.678)" fill="#928dc4"/>
            <path id="Trazado_230267" data-name="Trazado 230267" d="M338.231,69A59.507,59.507,0,1,1,278.725,9.5,59.505,59.505,0,0,1,338.231,69" transform="translate(233.897 10.131)" fill="#fff"/>
            <line id="Línea_1808" data-name="Línea 1808" x2="195.969" transform="translate(308.345 204.79)" fill="none" stroke="#88bae6" stroke-miterlimit="10" stroke-width="2" stroke-dasharray="4.034 4.034"/>
            <path id="Trazado_230268" data-name="Trazado 230268" d="M373.636,51.521H333.407l40.229,68.109,40.229-68.109Z" transform="translate(355.733 54.972)" fill="#ee9a25"/>
            <path id="Trazado_230269" data-name="Trazado 230269" d="M399.641,85.056H314.585A85.052,85.052,0,0,1,399.637,0h0Z" transform="translate(335.651)" fill="#ee9a25"/>
            <path id="Trazado_230270" data-name="Trazado 230270" d="M388.033,5.322a68.124,68.124,0,1,1-68.125,68.125A68.124,68.124,0,0,1,388.033,5.322" transform="translate(341.331 5.678)" fill="#fdc481"/>
            <path id="Trazado_230271" data-name="Trazado 230271" d="M443.093,69A59.507,59.507,0,1,1,383.587,9.5,59.505,59.505,0,0,1,443.093,69" transform="translate(345.781 10.131)" fill="#fff"/>
            <line id="Línea_1809" data-name="Línea 1809" x2="195.969" transform="translate(525.09 204.79)" fill="none" stroke="#88bae6" stroke-miterlimit="10" stroke-width="2" stroke-dasharray="4.034 4.034"/>
            <path id="Trazado_230272" data-name="Trazado 230272" d="M90.46,37.957V26.707a5.729,5.729,0,0,0-5.73-5.73h-59.6a5.729,5.729,0,0,0-5.73,5.73v11.25Z" transform="translate(20.701 22.382)" fill="#5d5e5e"/>
            <path id="Trazado_230273" data-name="Trazado 230273" d="M90.451,29.191V77.539a5.73,5.73,0,0,1-5.734,5.734H25.137A5.73,5.73,0,0,1,19.4,77.539V29.191Z" transform="translate(20.702 31.146)" fill="#dedede"/>
            <path id="Trazado_230274" data-name="Trazado 230274" d="M24.925,23.44a3.4,3.4,0,1,1-3.4,3.4,3.4,3.4,0,0,1,3.4-3.4" transform="translate(22.969 25.01)" fill="#79c9e4"/>
            <path id="Trazado_230275" data-name="Trazado 230275" d="M29.744,23.44a3.4,3.4,0,1,1-3.4,3.4,3.4,3.4,0,0,1,3.4-3.4" transform="translate(28.11 25.01)" fill="#ffc046"/>
            <path id="Trazado_230276" data-name="Trazado 230276" d="M34.564,23.44a3.4,3.4,0,1,1-3.4,3.4,3.4,3.4,0,0,1,3.4-3.4" transform="translate(33.253 25.01)" fill="#f3884e"/>
            <path id="Trazado_230277" data-name="Trazado 230277" d="M51.5,79.221a4.049,4.049,0,0,0-4.049-4.049H42.038a3.39,3.39,0,0,1-3.386-3.4v-.045c0-.085,0-.165-.008-.248a3.206,3.206,0,0,1,3.2-3.4h7.174a4.2,4.2,0,0,0,4.27-3.83,4.049,4.049,0,0,0-4.043-4.266H47.032a3.393,3.393,0,0,1-3.394-3.415l0-.234v-.048a3.587,3.587,0,0,1,3.578-3.6h2.867a4.2,4.2,0,0,0,4.272-3.83,4.051,4.051,0,0,0-4.043-4.266H39.965a3.454,3.454,0,0,1-3.392-3.6v-.093a3.454,3.454,0,0,1,3.392-3.6h3.346a4.2,4.2,0,0,0,4.272-3.83,4.051,4.051,0,0,0-4.043-4.266H19.4v48.35a5.729,5.729,0,0,0,5.73,5.73H47.452A4.052,4.052,0,0,0,51.5,79.221Z" transform="translate(20.7 31.147)" fill="#f0f0f0"/>
            <g id="Grupo_181355" data-name="Grupo 181355" transform="translate(47.635 68.302)" opacity="0.6">
              <g id="Grupo_181354" data-name="Grupo 181354">
                <g id="Grupo_181353" data-name="Grupo 181353" clip-path="url(#clip-path-5)">
                  <rect id="Rectángulo_58909" data-name="Rectángulo 58909" width="55.992" height="38.152" transform="translate(0 0.001)" fill="#fff"/>
                </g>
              </g>
            </g>
            <path id="Trazado_230278" data-name="Trazado 230278" d="M53.79,24.031h-11.2a2.181,2.181,0,0,0,0,4.361h11.2a2.181,2.181,0,1,0,0-4.361" transform="translate(43.114 25.64)" fill="#565757"/>
            <path id="Trazado_230279" data-name="Trazado 230279" d="M53.15,24.031H50.658a2.181,2.181,0,0,0,0,4.361H53.15a2.181,2.181,0,0,0,0-4.361" transform="translate(51.723 25.64)" fill="#565757"/>
            <rect id="Rectángulo_58911" data-name="Rectángulo 58911" width="22.061" height="5.26" transform="translate(51.292 73.958)" fill="#3c9a89"/>
            <rect id="Rectángulo_58912" data-name="Rectángulo 58912" width="22.061" height="5.26" transform="translate(51.292 84.748)" fill="#3c9a89"/>
            <rect id="Rectángulo_58913" data-name="Rectángulo 58913" width="29.839" height="5.26" transform="translate(51.292 95.539)" fill="#3c9a89"/>
            <g id="Grupo_181358" data-name="Grupo 181358" transform="translate(83.665 70.254)" opacity="0.1">
              <g id="Grupo_181357" data-name="Grupo 181357">
                <g id="Grupo_181356" data-name="Grupo 181356" clip-path="url(#clip-path-6)">
                  <path id="Trazado_230280" data-name="Trazado 230280" d="M67.966,34.515v37.9a5.732,5.732,0,0,1-5.734,5.736H56.076l-15.6-15.626L66.808,33.988Z" transform="translate(-40.477 -33.99)" fill="#050506"/>
                </g>
              </g>
            </g>
            <rect id="Rectángulo_58915" data-name="Rectángulo 58915" width="39.597" height="9.081" transform="translate(85.835 90.181) rotate(-45)" fill="#ee9a25"/>
            <rect id="Rectángulo_58916" data-name="Rectángulo 58916" width="2.33" height="9.082" transform="translate(112.187 63.826) rotate(-45)" fill="#f0f0f0"/>
            <path id="Trazado_230281" data-name="Trazado 230281" d="M63.955,29.587a4.543,4.543,0,0,0-6.424,0l-2.456,2.458L61.5,38.466l2.458-2.456a4.543,4.543,0,0,0,0-6.424" transform="translate(58.763 30.149)" fill="#e13d42"/>
            <path id="Trazado_230282" data-name="Trazado 230282" d="M49.076,50.06l-6.424-6.424-2.181,8.6Z" transform="translate(43.182 46.558)" fill="#ffc046"/>
            <path id="Trazado_230283" data-name="Trazado 230283" d="M44.081,48.747l-2.693-2.693-.916,3.609Z" transform="translate(43.182 49.137)" fill="#373637"/>
            <path id="Trazado_230284" data-name="Trazado 230284" d="M47.8,45.316a2.244,2.244,0,0,1,0-3.175l4.9-4.9a2.246,2.246,0,1,1,3.175,3.177l-4.9,4.9a2.242,2.242,0,0,1-3.175,0" transform="translate(50.303 39.031)" fill="#f0b324"/>
            <path id="Trazado_230285" data-name="Trazado 230285" d="M45.26,45.683a2.244,2.244,0,0,1,0-3.175l.684-.684A2.245,2.245,0,0,1,49.119,45l-.684.684a2.244,2.244,0,0,1-3.175,0" transform="translate(47.588 43.922)" fill="#f0b324"/>
            <path id="Trazado_230286" data-name="Trazado 230286" d="M177.472,39.253H145.883A11.362,11.362,0,0,0,134.5,50.481v4.492A11.362,11.362,0,0,0,145.883,66.2h21.664L175.9,74.66a2.143,2.143,0,0,0,2.425.494,2.238,2.238,0,0,0,1.393-2.065V65.977a11.23,11.23,0,0,0,8.983-11V50.481a11.234,11.234,0,0,0-11.23-11.228" transform="translate(143.511 41.882)" fill="#3281c3"/>
            <path id="Trazado_230287" data-name="Trazado 230287" d="M180.51,50.482v4.492a11.231,11.231,0,0,1-8.983,11v7.11a2.241,2.241,0,0,1-1.393,2.067,2.143,2.143,0,0,1-2.425-.494l-8.355-8.46H142.182V39.252h27.1a11.234,11.234,0,0,1,11.23,11.23" transform="translate(151.703 41.88)" fill="#0053a0"/>
            <path id="Trazado_230288" data-name="Trazado 230288" d="M189.065,19.623h-54.2a11.232,11.232,0,0,0-11.228,11.228V44.325a11.394,11.394,0,0,0,8.983,11.155V66.934A2.239,2.239,0,0,0,134.013,69a2.15,2.15,0,0,0,2.427-.5l12.846-12.8h39.779a11.36,11.36,0,0,0,11.228-11.379V30.851a11.23,11.23,0,0,0-11.228-11.228" transform="translate(131.918 20.937)" fill="#f0b324"/>
            <path id="Trazado_230289" data-name="Trazado 230289" d="M180.51,30.852V44.326A11.362,11.362,0,0,1,169.282,55.7h-27.1V19.624h27.1a11.232,11.232,0,0,1,11.23,11.228" transform="translate(151.703 20.938)" fill="#ee9a25"/>
            <path id="Trazado_230290" data-name="Trazado 230290" d="M130.232,23.969a2.246,2.246,0,1,1-2.247,2.247,2.246,2.246,0,0,1,2.247-2.247" transform="translate(136.555 25.574)" fill="#e7e8ee"/>
            <path id="Trazado_230291" data-name="Trazado 230291" d="M130.232,28.315a2.246,2.246,0,1,1-2.247,2.247,2.246,2.246,0,0,1,2.247-2.247" transform="translate(136.555 30.211)" fill="#e7e8ee"/>
            <path id="Trazado_230292" data-name="Trazado 230292" d="M141.169,43.6a2.246,2.246,0,1,1-2.247,2.247,2.246,2.246,0,0,1,2.247-2.247" transform="translate(148.225 46.519)" fill="#e7e8ee"/>
            <path id="Trazado_230293" data-name="Trazado 230293" d="M145.515,43.6a2.246,2.246,0,1,1-2.247,2.247,2.246,2.246,0,0,1,2.247-2.247" transform="translate(152.862 46.519)" fill="#dadae1"/>
            <path id="Trazado_230294" data-name="Trazado 230294" d="M149.934,43.6a2.246,2.246,0,1,1-2.247,2.247,2.246,2.246,0,0,1,2.247-2.247" transform="translate(157.577 46.519)" fill="#dadae1"/>
            <path id="Trazado_230295" data-name="Trazado 230295" d="M182.037,26.216a2.224,2.224,0,0,1-2.247,2.247H134.578a2.247,2.247,0,0,1,0-4.494h45.215a2.226,2.226,0,0,1,2.245,2.247" transform="translate(141.192 25.574)" fill="#e7e8ee"/>
            <path id="Trazado_230296" data-name="Trazado 230296" d="M182.037,30.562a2.224,2.224,0,0,1-2.247,2.247H134.578a2.247,2.247,0,0,1,0-4.494h45.215a2.224,2.224,0,0,1,2.245,2.247" transform="translate(141.192 30.211)" fill="#e7e8ee"/>
            <path id="Trazado_230297" data-name="Trazado 230297" d="M171.527,30.561a2.224,2.224,0,0,1-2.247,2.247h-27.1V28.316h27.1a2.221,2.221,0,0,1,2.247,2.245" transform="translate(151.703 30.212)" fill="#dadae1"/>
            <path id="Trazado_230298" data-name="Trazado 230298" d="M169.28,28.461h-27.1V23.969h27.1a2.246,2.246,0,1,1,0,4.492" transform="translate(151.703 25.574)" fill="#dadae1"/>
            <path id="Trazado_230299" data-name="Trazado 230299" d="M243.23,18.906h34.5a6.636,6.636,0,0,1,6.637,6.635V91.893a6.636,6.636,0,0,1-6.637,6.635h-34.5a6.635,6.635,0,0,1-6.635-6.635V25.541a6.635,6.635,0,0,1,6.635-6.635" transform="translate(252.438 20.172)" fill="#73808d"/>
            <rect id="Rectángulo_58917" data-name="Rectángulo 58917" width="37.156" height="55.736" transform="translate(494.341 49.694)" fill="#b9dbf5"/>
            <path id="Trazado_230300" data-name="Trazado 230300" d="M276.319,24.042H239.163V40.629c0,21.62,12.179,39.148,27.2,39.148h9.952Z" transform="translate(255.178 25.652)" fill="#e5f5fd"/>
            <rect id="Rectángulo_58918" data-name="Rectángulo 58918" width="7.962" height="2.654" transform="translate(506.284 43.059)" fill="#8e98a3"/>
            <rect id="Rectángulo_58919" data-name="Rectángulo 58919" width="2.654" height="2.654" transform="translate(516.9 43.059)" fill="#8e98a3"/>
            <path id="Trazado_230301" data-name="Trazado 230301" d="M241.731,40.993h0a6.41,6.41,0,0,0,1.877,4.531l9.516,9.516a6.407,6.407,0,0,0,9.062,0l3.431-3.431L260.309,46.3l-2.654,2.654-7.962-7.962,2.654-2.654-5.308-5.308-3.431,3.431a6.41,6.41,0,0,0-1.877,4.531" transform="translate(257.918 35.243)" fill="#73aa4b"/>
            <path id="Trazado_230302" data-name="Trazado 230302" d="M255.385,38.981h-2.654a2.654,2.654,0,0,0-2.654-2.654V33.673a5.309,5.309,0,0,1,5.308,5.308" transform="translate(266.823 35.928)" fill="#73aa4b"/>
            <path id="Trazado_230303" data-name="Trazado 230303" d="M260.693,41.721h-2.654a7.97,7.97,0,0,0-7.962-7.962V31.1a10.628,10.628,0,0,1,10.616,10.616" transform="translate(266.823 33.188)" fill="#73aa4b"/>
            <path id="Trazado_230304" data-name="Trazado 230304" d="M264.54,53.674,262.663,51.8l1.716-1.716-1.716-1.716a1.33,1.33,0,0,1,0-1.877l1.716-1.716-1.716-1.716a1.33,1.33,0,0,1,0-1.877l1.716-1.716-1.716-1.716a1.33,1.33,0,0,1,0-1.877l2.654-2.654,1.877,1.877-1.716,1.716,1.716,1.716a1.326,1.326,0,0,1,0,1.877l-1.716,1.716,1.716,1.716a1.326,1.326,0,0,1,0,1.877l-1.716,1.716,1.716,1.716a1.326,1.326,0,0,1,0,1.877Z" transform="translate(279.839 35.443)" fill="#73aa4b"/>
            <path id="Trazado_230305" data-name="Trazado 230305" d="M234.5,53.674l-2.654-2.654a1.326,1.326,0,0,1,0-1.877l1.716-1.716-1.716-1.716a1.326,1.326,0,0,1,0-1.877l1.716-1.716L231.847,40.4a1.326,1.326,0,0,1,0-1.877l1.716-1.716L231.847,35.1l1.877-1.877,2.654,2.654a1.33,1.33,0,0,1,0,1.877l-1.716,1.716,1.716,1.716a1.33,1.33,0,0,1,0,1.877l-1.716,1.716,1.716,1.716a1.33,1.33,0,0,1,0,1.877l-1.716,1.716,1.716,1.716Z" transform="translate(246.957 35.443)" fill="#73aa4b"/>
            <path id="Trazado_230306" data-name="Trazado 230306" d="M248.879,52.933h2.654a2.654,2.654,0,0,1,0,5.308h-2.654a2.654,2.654,0,0,1,0-5.308" transform="translate(262.713 56.478)" fill="#8e98a3"/>
            <path id="Trazado_230307" data-name="Trazado 230307" d="M403.878,45.331c-2.792-2.032-24.613-17.9-25.081-18.243l-6.682-4.859a2.581,2.581,0,0,0-3.034,0l-6.718,4.886L337.317,45.331a2.58,2.58,0,0,0-1.062,2.088V90.883a2.581,2.581,0,0,0,2.579,2.582h63.526a2.581,2.581,0,0,0,2.579-2.582V47.416a2.579,2.579,0,0,0-1.062-2.086" transform="translate(358.772 23.191)" fill="#e28c12"/>
            <path id="Trazado_230308" data-name="Trazado 230308" d="M339.291,90.883v-42.4a2.579,2.579,0,0,1,1.062-2.086c1.083-.788,23.96-17.429,25.045-18.216l6.718-4.886a2.6,2.6,0,0,1,.889-.415l-.891-.647a2.581,2.581,0,0,0-3.034,0l-6.72,4.886c-1.083.79-23.96,17.429-25.043,18.216a2.579,2.579,0,0,0-1.062,2.086V90.883a2.58,2.58,0,0,0,2.579,2.58h3.036a2.58,2.58,0,0,1-2.579-2.58" transform="translate(358.772 23.191)" fill="#cc770b"/>
            <path id="Trazado_230309" data-name="Trazado 230309" d="M367.972,44.475,337.5,69.7h63.524L370.556,44.475a2.027,2.027,0,0,0-2.584,0" transform="translate(360.104 46.957)" fill="#ffba39"/>
            <path id="Trazado_230310" data-name="Trazado 230310" d="M338.586,56l-1.083.9h3.036a2.576,2.576,0,0,1-1.953-.9" transform="translate(360.104 59.753)" fill="#fea416"/>
            <path id="Trazado_230311" data-name="Trazado 230311" d="M353.971,55.8l29.485,24.407a2.579,2.579,0,0,0,2.582-2.58V34.16Z" transform="translate(377.674 36.448)" fill="#fea416"/>
            <path id="Trazado_230312" data-name="Trazado 230312" d="M336.255,34.16V77.626a2.58,2.58,0,0,0,2.579,2.58L368.322,55.8Z" transform="translate(358.772 36.448)" fill="#fea416"/>
            <path id="Trazado_230313" data-name="Trazado 230313" d="M339.291,36.208l-3.036-2.048V77.624a2.585,2.585,0,0,0,2.579,2.584l1.083-.9a2.578,2.578,0,0,1-.626-1.687Z" transform="translate(358.772 36.448)" fill="#e28c12"/>
            <path id="Trazado_230314" data-name="Trazado 230314" d="M386.556,19.9H343.483a2,2,0,0,0-2,2V56.657L362.743,71l.984-.814a2.03,2.03,0,0,1,2.586,0L367.3,71l21.259-14.345V21.895a2,2,0,0,0-2-2" transform="translate(364.349 21.228)" fill="#dce5f6"/>
            <path id="Trazado_230315" data-name="Trazado 230315" d="M344.519,19.9h-1.038a2,2,0,0,0-2,2V56.657l3.036,2.048Z" transform="translate(364.35 21.228)" fill="#ced4df"/>
            <path id="Trazado_230316" data-name="Trazado 230316" d="M375.61,32.6H346.153a.809.809,0,0,1-.81-.808V25.377a.809.809,0,0,1,.81-.81H375.61a.808.808,0,0,1,.808.81v6.414a.808.808,0,0,1-.808.808" transform="translate(368.469 26.212)" fill="#1bb4ee"/>
            <path id="Trazado_230317" data-name="Trazado 230317" d="M375.585,27.413H346.176a.835.835,0,0,1-.833-.833v3.038a.835.835,0,0,0,.833.835h29.409a.834.834,0,0,0,.833-.835V26.58a.833.833,0,0,1-.833.833" transform="translate(368.469 28.36)" fill="#0a98d9"/>
            <path id="Trazado_230318" data-name="Trazado 230318" d="M377.007,33.223H345.932a1.14,1.14,0,1,1,0-2.28h31.075a1.14,1.14,0,0,1,0,2.28" transform="translate(367.88 33.015)" fill="#b6bdc8"/>
            <path id="Trazado_230319" data-name="Trazado 230319" d="M377.007,36.122H345.932a1.14,1.14,0,1,1,0-2.28h31.075a1.14,1.14,0,0,1,0,2.28" transform="translate(367.88 36.108)" fill="#b6bdc8"/>
            <path id="Trazado_230320" data-name="Trazado 230320" d="M377.007,39.021H345.932a1.14,1.14,0,1,1,0-2.28h31.075a1.14,1.14,0,0,1,0,2.28" transform="translate(367.88 39.201)" fill="#b6bdc8"/>
            <path id="Trazado_230321" data-name="Trazado 230321" d="M347.253,41.919h28.319l2.408-1.625a1.139,1.139,0,0,0-1.029-.655H345.874a1.139,1.139,0,0,0-1.029.655Z" transform="translate(367.937 42.293)" fill="#b6bdc8"/>
          </g>
        </g>
      </g>
    </g>
  </g>
</svg>
