<svg xmlns="http://www.w3.org/2000/svg" xmlns:xlink="http://www.w3.org/1999/xlink" width="183.24" height="217.275" viewBox="0 0 183.24 217.275">
  <defs>
    <clipPath id="clip-path">
      <rect id="Rectángulo_58669" data-name="Rectángulo 58669" width="183.24" height="217.275" fill="none"/>
    </clipPath>
  </defs>
  <g id="Grupo_181074" data-name="Grupo 181074" transform="translate(0 0)">
    <path id="Trazado_229936" data-name="Trazado 229936" d="M68.885,51.522H18.821l50.064,84.755,50.062-84.755Z" transform="translate(29.59 80.999)" fill="#524994"/>
    <g id="Grupo_181075" data-name="Grupo 181075" transform="translate(0 0)">
      <g id="Grupo_181074-2" data-name="Grupo 181074" clip-path="url(#clip-path)">
        <path id="Trazado_229937" data-name="Trazado 229937" d="M105.844,105.844H0A105.84,105.84,0,0,1,105.839,0h.005Z" transform="translate(0 -0.001)" fill="#524994"/>
        <path id="Trazado_229938" data-name="Trazado 229938" d="M90.1,5.322A84.774,84.774,0,1,1,5.323,90.1,84.775,84.775,0,0,1,90.1,5.322" transform="translate(8.369 8.366)" fill="#928dc4"/>
        <path id="Trazado_229939" data-name="Trazado 229939" d="M157.6,83.545a74.051,74.051,0,1,1-74.05-74.05,74.049,74.049,0,0,1,74.05,74.05" transform="translate(14.926 14.927)" fill="#fff"/>
        <path id="Trazado_229940" data-name="Trazado 229940" d="M39.67,30.391a1.543,1.543,0,0,1-1.546-1.543V23.832a1.546,1.546,0,0,1,3.092,0v5.016a1.543,1.543,0,0,1-1.546,1.543" transform="translate(59.937 35.044)" fill="#e3f3f8"/>
        <path id="Trazado_229941" data-name="Trazado 229941" d="M38.155,41.871a4.576,4.576,0,0,1,6.248,0,2.182,2.182,0,0,0,1.057.535V28.156a3.607,3.607,0,0,0-3.606-3.606H40.706A3.606,3.606,0,0,0,37.1,28.156v14.25A2.164,2.164,0,0,0,38.155,41.871Z" transform="translate(58.327 38.595)" fill="#30b6e7"/>
        <path id="Trazado_229942" data-name="Trazado 229942" d="M41.28,28.157a3.6,3.6,0,0,1,2.091-3.269,3.61,3.61,0,0,0-1.518-.337H40.706A3.607,3.607,0,0,0,37.1,28.157v14.25a2.164,2.164,0,0,0,1.055-.535A4.582,4.582,0,0,1,41.28,40.64Z" transform="translate(58.327 38.597)" fill="#13b3ed"/>
        <rect id="Rectángulo_58665" data-name="Rectángulo 58665" width="79.641" height="19.433" transform="translate(59.786 102.86)" fill="#fda42f"/>
        <rect id="Rectángulo_58666" data-name="Rectángulo 58666" width="12.336" height="19.433" transform="translate(59.784 102.86)" fill="#f9940b"/>
        <rect id="Rectángulo_58667" data-name="Rectángulo 58667" width="67.879" height="11.359" transform="translate(65.454 92.285)" fill="#ffd866"/>
        <rect id="Rectángulo_58668" data-name="Rectángulo 58668" width="6.67" height="11.359" transform="translate(65.454 92.284)" fill="#ffc150"/>
        <path id="Trazado_229943" data-name="Trazado 229943" d="M23.243,47.337V57.813a3.274,3.274,0,0,0,3.092,3.3H99.793a3.274,3.274,0,0,0,3.092-3.3V47.337Z" transform="translate(36.542 74.42)" fill="#ffd866"/>
        <path id="Trazado_229944" data-name="Trazado 229944" d="M35.58,47.337H23.244V57.813a3.273,3.273,0,0,0,3.089,3.3H35.58Z" transform="translate(36.543 74.42)" fill="#ffc150"/>
        <path id="Trazado_229945" data-name="Trazado 229945" d="M111.9,52.612H21.835a1.011,1.011,0,0,0-1.011,1.011,7.957,7.957,0,0,0,7.958,7.958h76.172a7.957,7.957,0,0,0,7.958-7.958,1.011,1.011,0,0,0-1.011-1.011" transform="translate(32.738 82.713)" fill="#e3f3f8"/>
        <path id="Trazado_229946" data-name="Trazado 229946" d="M37.1,53.623a1.011,1.011,0,0,1,1.011-1.011H21.834a1.011,1.011,0,0,0-1.011,1.011,7.957,7.957,0,0,0,7.958,7.958H45.058A7.957,7.957,0,0,1,37.1,53.623" transform="translate(32.737 82.713)" fill="#d0e2e7"/>
        <path id="Trazado_229947" data-name="Trazado 229947" d="M101.574,30.674a4.583,4.583,0,0,0-3.637,1.2,2.215,2.215,0,0,1-2.986,0,4.576,4.576,0,0,0-6.248,0,2.215,2.215,0,0,1-2.986,0,4.576,4.576,0,0,0-6.248,0,2.215,2.215,0,0,1-2.986,0,4.576,4.576,0,0,0-6.248,0,2.215,2.215,0,0,1-2.986,0,4.58,4.58,0,0,0-6.25,0,2.212,2.212,0,0,1-2.984,0,4.58,4.58,0,0,0-6.25,0,2.212,2.212,0,0,1-2.984,0,4.58,4.58,0,0,0-6.25,0,2.212,2.212,0,0,1-2.984,0,4.58,4.58,0,0,0-6.25,0,2.212,2.212,0,0,1-2.984,0,4.588,4.588,0,0,0-3.64-1.2,4.687,4.687,0,0,0-4.1,4.692V57.988a4.688,4.688,0,0,0,4.162,4.7A4.628,4.628,0,0,0,31.8,58.1V50.585a4.686,4.686,0,0,1,4.162-4.7,4.628,4.628,0,0,1,5.072,4.594v7.508a4.688,4.688,0,0,0,4.162,4.7A4.628,4.628,0,0,0,50.272,58.1V50.585a4.686,4.686,0,0,1,4.164-4.7,4.627,4.627,0,0,1,5.07,4.594v7.508a4.688,4.688,0,0,0,4.164,4.7A4.627,4.627,0,0,0,68.74,58.1V50.585a4.686,4.686,0,0,1,4.164-4.7,4.627,4.627,0,0,1,5.07,4.594v7.508a4.688,4.688,0,0,0,4.164,4.7,4.627,4.627,0,0,0,5.07-4.594V50.585a4.686,4.686,0,0,1,4.164-4.7,4.627,4.627,0,0,1,5.07,4.594v7.508a4.688,4.688,0,0,0,4.164,4.7,4.626,4.626,0,0,0,5.07-4.594V35.366A4.687,4.687,0,0,0,101.574,30.674Z" transform="translate(35.483 48.179)" fill="#e65a70"/>
        <path id="Trazado_229948" data-name="Trazado 229948" d="M58.807,36.579a4.688,4.688,0,0,0-4.162,4.7v7.508a4.629,4.629,0,0,1-2.413,4.051,4.46,4.46,0,0,0,1.739.545,4.629,4.629,0,0,0,5.07-4.6V36.564C58.964,36.567,58.887,36.572,58.807,36.579Z" transform="translate(82.118 57.483)" fill="#e13c56"/>
        <path id="Trazado_229949" data-name="Trazado 229949" d="M44.447,36.583a4.688,4.688,0,0,0-4.162,4.7v7.508a4.629,4.629,0,0,1-2.413,4.051,4.46,4.46,0,0,0,1.739.545,4.629,4.629,0,0,0,5.07-4.6V41.285a4.768,4.768,0,0,1,2.426-4.159A4.6,4.6,0,0,0,44.447,36.583Z" transform="translate(59.542 57.479)" fill="#e13c56"/>
        <path id="Trazado_229950" data-name="Trazado 229950" d="M51.627,36.583a4.688,4.688,0,0,0-4.162,4.7v7.508a4.629,4.629,0,0,1-2.413,4.051,4.46,4.46,0,0,0,1.739.545,4.629,4.629,0,0,0,5.07-4.6V41.285a4.768,4.768,0,0,1,2.426-4.159A4.6,4.6,0,0,0,51.627,36.583Z" transform="translate(70.83 57.479)" fill="#e13c56"/>
        <path id="Trazado_229951" data-name="Trazado 229951" d="M37.266,36.583a4.688,4.688,0,0,0-4.162,4.7v7.508a4.629,4.629,0,0,1-2.413,4.051,4.46,4.46,0,0,0,1.739.545,4.629,4.629,0,0,0,5.07-4.6V41.285a4.768,4.768,0,0,1,2.426-4.159,4.6,4.6,0,0,0-2.66-.543" transform="translate(48.252 57.479)" fill="#e13c56"/>
        <path id="Trazado_229952" data-name="Trazado 229952" d="M36.64,35.366a4.766,4.766,0,0,1,2.2-4.025,4.581,4.581,0,0,0-5.548.535,2.21,2.21,0,0,1-2.986,0,4.581,4.581,0,0,0-3.637-1.2,4.684,4.684,0,0,0-4.1,4.692V57.988a4.688,4.688,0,0,0,4.162,4.7,4.63,4.63,0,0,0,5.072-4.6V50.585a4.688,4.688,0,0,1,4.162-4.7,4.943,4.943,0,0,1,.674-.015Z" transform="translate(35.483 48.179)" fill="#e13c56"/>
        <path id="Trazado_229953" data-name="Trazado 229953" d="M48.805,22.132l-4.548-5.355a1.366,1.366,0,0,0-2.083,0l-4.548,5.355a7.333,7.333,0,1,0,11.179,0" transform="translate(56.391 25.616)" fill="#ffd866"/>
        <path id="Trazado_229954" data-name="Trazado 229954" d="M41.806,22.132l3.5-4.121-1.049-1.235a1.366,1.366,0,0,0-2.083,0l-4.548,5.355a7.332,7.332,0,0,0,5.589,12.079,7.537,7.537,0,0,0,2.091-.293A7.344,7.344,0,0,1,41.806,22.132Z" transform="translate(56.391 25.616)" fill="#ffc150"/>
        <path id="Trazado_229955" data-name="Trazado 229955" d="M44.17,22.65l-2.456-2.894a.743.743,0,0,0-1.127,0L38.131,22.65a3.961,3.961,0,1,0,6.039,0" transform="translate(58.456 30.652)" fill="#fda42f"/>
        <path id="Trazado_229956" data-name="Trazado 229956" d="M42.312,22.65l.929-1.093-1.525-1.8a.743.743,0,0,0-1.127,0L38.132,22.65a3.967,3.967,0,0,0,5.108,5.939,3.969,3.969,0,0,1-.929-5.939" transform="translate(58.455 30.652)" fill="#f9940b"/>
      </g>
    </g>
  </g>
</svg>
