<svg xmlns="http://www.w3.org/2000/svg" xmlns:xlink="http://www.w3.org/1999/xlink" width="183.416" height="217.483" viewBox="0 0 183.416 217.483">
  <defs>
    <clipPath id="clip-path">
      <rect id="Rectángulo_58615" data-name="Rectángulo 58615" width="183.416" height="217.483" fill="none"/>
    </clipPath>
  </defs>
  <g id="Grupo_181040" data-name="Grupo 181040" transform="translate(0 0)">
    <path id="Trazado_229805" data-name="Trazado 229805" d="M68.933,51.522H18.821l50.112,84.836,50.11-84.836Z" transform="translate(29.636 81.126)" fill="#ee9a25"/>
    <g id="Grupo_181042" data-name="Grupo 181042" transform="translate(0 0)">
      <g id="Grupo_181041" data-name="Grupo 181041" clip-path="url(#clip-path)">
        <path id="Trazado_229806" data-name="Trazado 229806" d="M105.945,105.945H0A105.941,105.941,0,0,1,105.94,0h.005Z" transform="translate(0 -0.001)" fill="#ee9a25"/>
        <path id="Trazado_229807" data-name="Trazado 229807" d="M90.18,5.322A84.855,84.855,0,1,1,5.323,90.179,84.856,84.856,0,0,1,90.18,5.322" transform="translate(8.382 8.379)" fill="#fdc481"/>
        <path id="Trazado_229808" data-name="Trazado 229808" d="M157.738,83.616A74.122,74.122,0,1,1,83.617,9.5a74.12,74.12,0,0,1,74.121,74.121" transform="translate(14.949 14.95)" fill="#fff"/>
        <path id="Trazado_229809" data-name="Trazado 229809" d="M105.9,51.126c-3.478-2.531-30.659-22.3-31.24-22.724L66.337,22.35a3.215,3.215,0,0,0-3.78,0L54.19,28.436l-31.2,22.69a3.214,3.214,0,0,0-1.323,2.6v54.139a3.214,3.214,0,0,0,3.213,3.216h79.128a3.215,3.215,0,0,0,3.213-3.216V53.724a3.213,3.213,0,0,0-1.323-2.6" transform="translate(34.122 34.224)" fill="#e28c12"/>
        <path id="Trazado_229810" data-name="Trazado 229810" d="M25.452,107.865V55.047a3.213,3.213,0,0,1,1.323-2.6l31.194-22.69,8.37-6.086a3.246,3.246,0,0,1,1.107-.517l-1.11-.806a3.215,3.215,0,0,0-3.78,0l-8.37,6.086c-1.349.984-29.845,21.709-31.194,22.69a3.213,3.213,0,0,0-1.323,2.6v54.142a3.214,3.214,0,0,0,3.213,3.213h3.782a3.214,3.214,0,0,1-3.213-3.213" transform="translate(34.122 34.224)" fill="#cc770b"/>
        <path id="Trazado_229811" data-name="Trazado 229811" d="M60.872,44.589,22.917,76h79.128L64.09,44.589a2.525,2.525,0,0,0-3.218,0" transform="translate(36.085 69.298)" fill="#ffba39"/>
        <path id="Trazado_229812" data-name="Trazado 229812" d="M24.267,56,22.918,57.12H26.7A3.208,3.208,0,0,1,24.267,56" transform="translate(36.087 88.182)" fill="#fea416"/>
        <path id="Trazado_229813" data-name="Trazado 229813" d="M39.386,61.114l36.727,30.4A3.213,3.213,0,0,0,79.329,88.3V34.16Z" transform="translate(62.018 53.788)" fill="#fea416"/>
        <path id="Trazado_229814" data-name="Trazado 229814" d="M21.67,34.16V88.3a3.214,3.214,0,0,0,3.213,3.213l36.729-30.4Z" transform="translate(34.122 53.788)" fill="#fea416"/>
        <path id="Trazado_229815" data-name="Trazado 229815" d="M25.452,36.711,21.67,34.16V88.3a3.219,3.219,0,0,0,3.213,3.216L26.232,90.4a3.21,3.21,0,0,1-.78-2.1Z" transform="translate(34.122 53.788)" fill="#e28c12"/>
        <path id="Trazado_229816" data-name="Trazado 229816" d="M83.042,19.9H29.389a2.49,2.49,0,0,0-2.492,2.49v43.3L53.379,83.553l1.226-1.014a2.528,2.528,0,0,1,3.221,0l1.226,1.014,26.48-17.868v-43.3a2.49,2.49,0,0,0-2.49-2.49" transform="translate(42.352 31.328)" fill="#dce5f6"/>
        <path id="Trazado_229817" data-name="Trazado 229817" d="M30.68,19.9H29.388a2.49,2.49,0,0,0-2.49,2.49v43.3l3.782,2.551Z" transform="translate(42.354 31.328)" fill="#ced4df"/>
        <path id="Trazado_229818" data-name="Trazado 229818" d="M68.458,34.572H31.767a1.007,1.007,0,0,1-1.009-1.007V25.576a1.008,1.008,0,0,1,1.009-1.009H68.458a1.007,1.007,0,0,1,1.007,1.009v7.989a1.006,1.006,0,0,1-1.007,1.007" transform="translate(48.432 38.683)" fill="#1bb4ee"/>
        <path id="Trazado_229819" data-name="Trazado 229819" d="M68.427,27.617H31.8a1.039,1.039,0,0,1-1.038-1.038v3.785A1.04,1.04,0,0,0,31.8,31.4H68.427a1.038,1.038,0,0,0,1.038-1.04V26.579a1.038,1.038,0,0,1-1.038,1.038" transform="translate(48.432 41.851)" fill="#0a98d9"/>
        <path id="Trazado_229820" data-name="Trazado 229820" d="M70.334,33.781H31.627a1.419,1.419,0,1,1,0-2.837H70.334a1.419,1.419,0,0,1,0,2.837" transform="translate(47.563 48.724)" fill="#b6bdc8"/>
        <path id="Trazado_229821" data-name="Trazado 229821" d="M70.334,36.682H31.627a1.42,1.42,0,1,1,0-2.84H70.334a1.42,1.42,0,0,1,0,2.84" transform="translate(47.563 53.287)" fill="#b6bdc8"/>
        <path id="Trazado_229822" data-name="Trazado 229822" d="M70.334,39.581H31.627a1.42,1.42,0,1,1,0-2.84H70.334a1.42,1.42,0,0,1,0,2.84" transform="translate(47.563 57.852)" fill="#b6bdc8"/>
        <path id="Trazado_229823" data-name="Trazado 229823" d="M33.259,42.479H68.534l3-2.024a1.418,1.418,0,0,0-1.282-.816H31.542a1.418,1.418,0,0,0-1.282.816Z" transform="translate(47.648 62.415)" fill="#b6bdc8"/>
      </g>
    </g>
  </g>
</svg>
