<svg xmlns="http://www.w3.org/2000/svg" xmlns:xlink="http://www.w3.org/1999/xlink" width="1030" height="358" viewBox="0 0 1030 358">
  <defs>
    <linearGradient id="linear-gradient" x1="0.5" x2="0.5" y2="1" gradientUnits="objectBoundingBox">
      <stop offset="0" stop-color="#def2f4"/>
      <stop offset="0.752" stop-color="#fff"/>
      <stop offset="1" stop-color="#ece5f7"/>
    </linearGradient>
    <clipPath id="clip-path">
      <ellipse id="Elipse_4979" data-name="Elipse 4979" cx="21.239" cy="21.239" rx="21.239" ry="21.239" fill="#fff"/>
    </clipPath>
    <clipPath id="clip-path-2">
      <rect id="Rectángulo_58645" data-name="Rectángulo 58645" width="582.018" height="198.224" fill="none"/>
    </clipPath>
  </defs>
  <g id="Grupo_181372" data-name="Grupo 181372" transform="translate(5533 7323)">
    <g id="Grupo_181371" data-name="Grupo 181371" transform="translate(-26 1)">
      <g id="Grupo_181369" data-name="Grupo 181369" transform="translate(-5792 -12067)">
        <rect id="Rectángulo_58605" data-name="Rectángulo 58605" width="1030" height="358" rx="24" transform="translate(285 4743)" fill="url(#linear-gradient)"/>
        <g id="Grupo_181034" data-name="Grupo 181034" transform="translate(946.005 5187.828) rotate(180)" opacity="0.711">
          <path id="Trazado_174289" data-name="Trazado 174289" d="M138.529,383.022a54.451,54.451,0,1,0,54.451,54.451A54.451,54.451,0,0,0,138.529,383.022Zm0,98.018A43.567,43.567,0,1,1,182.1,437.473,43.567,43.567,0,0,1,138.529,481.04Z" transform="translate(417.365 -74.731)" fill="#fff"/>
          <g id="Grupo_124665" data-name="Grupo 124665" transform="translate(10 229.502)" opacity="0.23">
            <path id="Trazado_174290" data-name="Trazado 174290" d="M-42.848,302.033-124.6,383.782a7.142,7.142,0,0,1-10.1,0h0a7.143,7.143,0,0,1,0-10.1l81.749-81.749a7.143,7.143,0,0,1,10.1,0h0A7.143,7.143,0,0,1-42.848,302.033Z" transform="translate(136.79 -289.84)" fill="#fff" stroke="#8f9294" stroke-miterlimit="10" stroke-width="2"/>
            <path id="Trazado_174291" data-name="Trazado 174291" d="M-20.309,397.469l-62.4,62.4a5.452,5.452,0,0,1-7.71,0h0a5.452,5.452,0,0,1,0-7.71l62.4-62.4a5.452,5.452,0,0,1,7.71,0h0A5.452,5.452,0,0,1-20.309,397.469Z" transform="translate(109.274 -350.261)" fill="#fff" stroke="#8f9294" stroke-miterlimit="10" stroke-width="2"/>
          </g>
          <g id="Grupo_124669" data-name="Grupo 124669" transform="translate(555.894 307.171)">
            <g id="Grupo_124668" data-name="Grupo 124668">
              <line id="Línea_1655" data-name="Línea 1655" x1="5.235" y2="5.235" fill="none" stroke="#d8d9da" stroke-miterlimit="10" stroke-width="0.78"/>
              <line id="Línea_1656" data-name="Línea 1656" x1="5.235" y2="5.235" transform="translate(2.55)" fill="none" stroke="#d8d9da" stroke-miterlimit="10" stroke-width="0.78"/>
              <line id="Línea_1657" data-name="Línea 1657" x1="5.235" y2="5.235" transform="translate(5.1)" fill="none" stroke="#d8d9da" stroke-miterlimit="10" stroke-width="0.78"/>
              <line id="Línea_1658" data-name="Línea 1658" x1="5.235" y2="5.235" transform="translate(7.651)" fill="none" stroke="#d8d9da" stroke-miterlimit="10" stroke-width="0.78"/>
              <line id="Línea_1659" data-name="Línea 1659" x1="5.235" y2="5.235" transform="translate(10.201)" fill="none" stroke="#d8d9da" stroke-miterlimit="10" stroke-width="0.78"/>
              <line id="Línea_1660" data-name="Línea 1660" x1="5.235" y2="5.235" transform="translate(12.751)" fill="none" stroke="#d8d9da" stroke-miterlimit="10" stroke-width="0.78"/>
              <line id="Línea_1661" data-name="Línea 1661" x1="5.235" y2="5.235" transform="translate(15.301)" fill="none" stroke="#d8d9da" stroke-miterlimit="10" stroke-width="0.78"/>
              <line id="Línea_1662" data-name="Línea 1662" x1="5.235" y2="5.235" transform="translate(17.851)" fill="none" stroke="#d8d9da" stroke-miterlimit="10" stroke-width="0.78"/>
              <line id="Línea_1663" data-name="Línea 1663" x1="5.235" y2="5.235" transform="translate(20.401)" fill="none" stroke="#d8d9da" stroke-miterlimit="10" stroke-width="0.78"/>
              <line id="Línea_1664" data-name="Línea 1664" x1="5.235" y2="5.235" transform="translate(22.952)" fill="none" stroke="#d8d9da" stroke-miterlimit="10" stroke-width="0.78"/>
              <line id="Línea_1665" data-name="Línea 1665" x1="5.235" y2="5.235" transform="translate(25.502)" fill="none" stroke="#d8d9da" stroke-miterlimit="10" stroke-width="0.78"/>
              <line id="Línea_1666" data-name="Línea 1666" x1="5.235" y2="5.235" transform="translate(28.052)" fill="none" stroke="#d8d9da" stroke-miterlimit="10" stroke-width="0.78"/>
              <line id="Línea_1667" data-name="Línea 1667" x1="5.235" y2="5.235" transform="translate(30.602)" fill="none" stroke="#d8d9da" stroke-miterlimit="10" stroke-width="0.78"/>
            </g>
          </g>
          <g id="Grupo_149859" data-name="Grupo 149859" transform="translate(108.182 220.339)" opacity="0.394">
            <g id="Grupo_124677" data-name="Grupo 124677">
              <g id="Grupo_124673" data-name="Grupo 124673">
                <line id="Línea_1668" data-name="Línea 1668" y2="4.224" transform="translate(2.112)" fill="none" stroke="#8f9294" stroke-miterlimit="10" stroke-width="0.388"/>
                <line id="Línea_1669" data-name="Línea 1669" x2="4.224" transform="translate(0 2.112)" fill="none" stroke="#8f9294" stroke-miterlimit="10" stroke-width="0.388"/>
              </g>
              <g id="Grupo_124674" data-name="Grupo 124674" transform="translate(11.509)">
                <line id="Línea_1670" data-name="Línea 1670" y2="4.224" transform="translate(2.112)" fill="none" stroke="#8f9294" stroke-miterlimit="10" stroke-width="0.388"/>
                <line id="Línea_1671" data-name="Línea 1671" x2="4.224" transform="translate(0 2.112)" fill="none" stroke="#8f9294" stroke-miterlimit="10" stroke-width="0.388"/>
              </g>
              <g id="Grupo_124675" data-name="Grupo 124675" transform="translate(23.019)">
                <line id="Línea_1672" data-name="Línea 1672" y2="4.224" transform="translate(2.112)" fill="none" stroke="#8f9294" stroke-miterlimit="10" stroke-width="0.388"/>
                <line id="Línea_1673" data-name="Línea 1673" x2="4.224" transform="translate(0 2.112)" fill="none" stroke="#8f9294" stroke-miterlimit="10" stroke-width="0.388"/>
              </g>
              <g id="Grupo_124676" data-name="Grupo 124676" transform="translate(34.528)">
                <line id="Línea_1674" data-name="Línea 1674" y2="4.224" transform="translate(2.112)" fill="none" stroke="#8f9294" stroke-miterlimit="10" stroke-width="0.388"/>
                <line id="Línea_1675" data-name="Línea 1675" x2="4.224" transform="translate(0 2.112)" fill="none" stroke="#8f9294" stroke-miterlimit="10" stroke-width="0.388"/>
              </g>
            </g>
            <g id="Grupo_124682" data-name="Grupo 124682" transform="translate(0 8.764)">
              <g id="Grupo_124678" data-name="Grupo 124678">
                <line id="Línea_1676" data-name="Línea 1676" y2="4.224" transform="translate(2.112)" fill="none" stroke="#8f9294" stroke-miterlimit="10" stroke-width="0.388"/>
                <line id="Línea_1677" data-name="Línea 1677" x2="4.224" transform="translate(0 2.112)" fill="none" stroke="#8f9294" stroke-miterlimit="10" stroke-width="0.388"/>
              </g>
              <g id="Grupo_124679" data-name="Grupo 124679" transform="translate(11.509)">
                <line id="Línea_1678" data-name="Línea 1678" y2="4.224" transform="translate(2.112)" fill="none" stroke="#8f9294" stroke-miterlimit="10" stroke-width="0.388"/>
                <line id="Línea_1679" data-name="Línea 1679" x2="4.224" transform="translate(0 2.112)" fill="none" stroke="#8f9294" stroke-miterlimit="10" stroke-width="0.388"/>
              </g>
              <g id="Grupo_124680" data-name="Grupo 124680" transform="translate(23.019)">
                <line id="Línea_1680" data-name="Línea 1680" y2="4.224" transform="translate(2.112)" fill="none" stroke="#8f9294" stroke-miterlimit="10" stroke-width="0.388"/>
                <line id="Línea_1681" data-name="Línea 1681" x2="4.224" transform="translate(0 2.112)" fill="none" stroke="#8f9294" stroke-miterlimit="10" stroke-width="0.388"/>
              </g>
              <g id="Grupo_124681" data-name="Grupo 124681" transform="translate(34.528)">
                <line id="Línea_1682" data-name="Línea 1682" y2="4.224" transform="translate(2.112)" fill="none" stroke="#8f9294" stroke-miterlimit="10" stroke-width="0.388"/>
                <line id="Línea_1683" data-name="Línea 1683" x2="4.224" transform="translate(0 2.112)" fill="none" stroke="#8f9294" stroke-miterlimit="10" stroke-width="0.388"/>
              </g>
            </g>
            <g id="Grupo_124687" data-name="Grupo 124687" transform="translate(0 17.528)">
              <g id="Grupo_124683" data-name="Grupo 124683">
                <line id="Línea_1684" data-name="Línea 1684" y2="4.224" transform="translate(2.112)" fill="none" stroke="#8f9294" stroke-miterlimit="10" stroke-width="0.388"/>
                <line id="Línea_1685" data-name="Línea 1685" x2="4.224" transform="translate(0 2.112)" fill="none" stroke="#8f9294" stroke-miterlimit="10" stroke-width="0.388"/>
              </g>
              <g id="Grupo_124684" data-name="Grupo 124684" transform="translate(11.509)">
                <line id="Línea_1686" data-name="Línea 1686" y2="4.224" transform="translate(2.112)" fill="none" stroke="#8f9294" stroke-miterlimit="10" stroke-width="0.388"/>
                <line id="Línea_1687" data-name="Línea 1687" x2="4.224" transform="translate(0 2.112)" fill="none" stroke="#8f9294" stroke-miterlimit="10" stroke-width="0.388"/>
              </g>
              <g id="Grupo_124685" data-name="Grupo 124685" transform="translate(23.019)">
                <line id="Línea_1688" data-name="Línea 1688" y2="4.224" transform="translate(2.112)" fill="none" stroke="#8f9294" stroke-miterlimit="10" stroke-width="0.388"/>
                <line id="Línea_1689" data-name="Línea 1689" x2="4.224" transform="translate(0 2.112)" fill="none" stroke="#8f9294" stroke-miterlimit="10" stroke-width="0.388"/>
              </g>
              <g id="Grupo_124686" data-name="Grupo 124686" transform="translate(34.528)">
                <line id="Línea_1690" data-name="Línea 1690" y2="4.224" transform="translate(2.112)" fill="none" stroke="#8f9294" stroke-miterlimit="10" stroke-width="0.388"/>
                <line id="Línea_1691" data-name="Línea 1691" x2="4.224" transform="translate(0 2.112)" fill="none" stroke="#8f9294" stroke-miterlimit="10" stroke-width="0.388"/>
              </g>
            </g>
            <g id="Grupo_124692" data-name="Grupo 124692" transform="translate(0 26.292)">
              <g id="Grupo_124688" data-name="Grupo 124688">
                <line id="Línea_1692" data-name="Línea 1692" y2="4.224" transform="translate(2.112)" fill="none" stroke="#8f9294" stroke-miterlimit="10" stroke-width="0.388"/>
                <line id="Línea_1693" data-name="Línea 1693" x2="4.224" transform="translate(0 2.112)" fill="none" stroke="#8f9294" stroke-miterlimit="10" stroke-width="0.388"/>
              </g>
              <g id="Grupo_124689" data-name="Grupo 124689" transform="translate(11.509)">
                <line id="Línea_1694" data-name="Línea 1694" y2="4.224" transform="translate(2.112)" fill="none" stroke="#8f9294" stroke-miterlimit="10" stroke-width="0.388"/>
                <line id="Línea_1695" data-name="Línea 1695" x2="4.224" transform="translate(0 2.112)" fill="none" stroke="#8f9294" stroke-miterlimit="10" stroke-width="0.388"/>
              </g>
              <g id="Grupo_124690" data-name="Grupo 124690" transform="translate(23.019)">
                <line id="Línea_1696" data-name="Línea 1696" y2="4.224" transform="translate(2.112)" fill="none" stroke="#8f9294" stroke-miterlimit="10" stroke-width="0.388"/>
                <line id="Línea_1697" data-name="Línea 1697" x2="4.224" transform="translate(0 2.112)" fill="none" stroke="#8f9294" stroke-miterlimit="10" stroke-width="0.388"/>
              </g>
              <g id="Grupo_124691" data-name="Grupo 124691" transform="translate(34.528)">
                <line id="Línea_1698" data-name="Línea 1698" y2="4.224" transform="translate(2.112)" fill="none" stroke="#8f9294" stroke-miterlimit="10" stroke-width="0.388"/>
                <line id="Línea_1699" data-name="Línea 1699" x2="4.224" transform="translate(0 2.112)" fill="none" stroke="#8f9294" stroke-miterlimit="10" stroke-width="0.388"/>
              </g>
            </g>
          </g>
          <path id="Trazado_174309" data-name="Trazado 174309" d="M734.61,275.471a9.966,9.966,0,1,0,9.966,9.966A9.966,9.966,0,0,0,734.61,275.471Zm0,14.627a4.66,4.66,0,1,1,4.66-4.66A4.661,4.661,0,0,1,734.61,290.1Z" transform="translate(-124.557 -17.37)" fill="#fff"/>
          <g id="Grupo_124746" data-name="Grupo 124746" transform="translate(198.527 383.026)" opacity="0.367">
            <g id="Grupo_124745" data-name="Grupo 124745" transform="translate(0)" clip-path="url(#clip-path)">
              <path id="Trazado_174310" data-name="Trazado 174310" d="M481.868,136.445c-5.874,6.236-12.182,12.039-18.058,18.3" transform="translate(-466.094 -137.441)" fill="#fff" stroke="#606060" stroke-miterlimit="10" stroke-width="0.655"/>
              <path id="Trazado_174311" data-name="Trazado 174311" d="M484.532,136.393c-6.543,7.012-13.86,13.825-20.76,20.75" transform="translate(-466.07 -137.409)" fill="#fff" stroke="#606060" stroke-miterlimit="10" stroke-width="0.655"/>
              <path id="Trazado_174312" data-name="Trazado 174312" d="M486.938,136.4c-7.767,7.765-15.589,15.587-23.294,23.3" transform="translate(-465.992 -137.416)" fill="#fff" stroke="#606060" stroke-miterlimit="10" stroke-width="0.655"/>
              <path id="Trazado_174313" data-name="Trazado 174313" d="M489.433,136.55q-12.7,12.7-25.738,25.734" transform="translate(-466.023 -137.506)" fill="#fff" stroke="#606060" stroke-miterlimit="10" stroke-width="0.655"/>
              <path id="Trazado_174314" data-name="Trazado 174314" d="M492.5,136.489c-9.465,9.246-19.053,18.582-28.729,28.194" transform="translate(-466.069 -137.468)" fill="#fff" stroke="#606060" stroke-miterlimit="10" stroke-width="0.655"/>
              <path id="Trazado_174315" data-name="Trazado 174315" d="M494.4,136.579c-9.93,10.221-19.77,19.809-29.863,30.154-.252.252-.757.252-.89.6" transform="translate(-465.996 -137.524)" fill="#fff" stroke="#606060" stroke-miterlimit="10" stroke-width="0.655"/>
              <path id="Trazado_174316" data-name="Trazado 174316" d="M497.277,136.461c-6.113,6.481-12.673,12.285-19.233,18.845-4.794,5.046-9.588,9.336-14.182,14.373" transform="translate(-466.126 -137.451)" fill="#fff" stroke="#606060" stroke-miterlimit="10" stroke-width="0.655"/>
              <path id="Trazado_174317" data-name="Trazado 174317" d="M498.923,137.765C487.323,149.547,475.212,160.9,463.77,173" transform="translate(-466.069 -138.252)" fill="#fff" stroke="#606060" stroke-miterlimit="10" stroke-width="0.655"/>
              <path id="Trazado_174318" data-name="Trazado 174318" d="M498.966,144.249c-11.576,11.554-23.434,23.412-35.086,35.131" transform="translate(-466.137 -142.237)" fill="#fff" stroke="#606060" stroke-miterlimit="10" stroke-width="0.655"/>
              <path id="Trazado_174319" data-name="Trazado 174319" d="M500.249,147.767c-12.09,12.216-24.454,24.075-36.351,36.312" transform="translate(-466.148 -144.399)" fill="#fff" stroke="#606060" stroke-miterlimit="10" stroke-width="0.655"/>
              <path id="Trazado_174320" data-name="Trazado 174320" d="M502.589,147.736c-13.089,12.985-25.705,26.357-38.973,38.938" transform="translate(-465.974 -144.38)" fill="#fff" stroke="#606060" stroke-miterlimit="10" stroke-width="0.655"/>
              <path id="Trazado_174321" data-name="Trazado 174321" d="M507.122,147.97,467.2,187.887" transform="translate(-468.18 -144.524)" fill="#fff" stroke="#606060" stroke-miterlimit="10" stroke-width="0.655"/>
              <path id="Trazado_174322" data-name="Trazado 174322" d="M513.513,147.974c-13.327,13.146-26.448,26.518-39.9,39.939" transform="translate(-472.119 -144.526)" fill="#fff" stroke="#606060" stroke-miterlimit="10" stroke-width="0.655"/>
              <path id="Trazado_174323" data-name="Trazado 174323" d="M518.791,150.913c-12.881,12.769-25.5,25.89-38.734,38.816" transform="translate(-476.078 -146.332)" fill="#fff" stroke="#606060" stroke-miterlimit="10" stroke-width="0.655"/>
              <path id="Trazado_174324" data-name="Trazado 174324" d="M522.845,157.09c-12.2,12.155-23.806,24.77-36.316,36.434" transform="translate(-480.055 -150.128)" fill="#fff" stroke="#606060" stroke-miterlimit="10" stroke-width="0.655"/>
              <path id="Trazado_174325" data-name="Trazado 174325" d="M526.746,164.17c-11.35,11.192-22.453,22.546-33.717,33.692" transform="translate(-484.049 -154.479)" fill="#fff" stroke="#606060" stroke-miterlimit="10" stroke-width="0.655"/>
              <path id="Trazado_174326" data-name="Trazado 174326" d="M530.829,170.164c-10.415,10.395-20.76,20.992-31.276,31.36" transform="translate(-488.059 -158.162)" fill="#fff" stroke="#606060" stroke-miterlimit="10" stroke-width="0.655"/>
              <path id="Trazado_174327" data-name="Trazado 174327" d="M534.727,176.763q-14.445,14.426-28.785,28.847" transform="translate(-491.985 -162.218)" fill="#fff" stroke="#606060" stroke-miterlimit="10" stroke-width="0.655"/>
              <path id="Trazado_174328" data-name="Trazado 174328" d="M538.791,183.234c-8.65,8.889-17.481,17.72-26.283,26.315" transform="translate(-496.02 -166.194)" fill="#fff" stroke="#606060" stroke-miterlimit="10" stroke-width="0.655"/>
              <path id="Trazado_174329" data-name="Trazado 174329" d="M542.708,189.833c-7.862,7.859-15.936,15.933-23.776,23.789" transform="translate(-499.967 -170.249)" fill="#fff" stroke="#606060" stroke-miterlimit="10" stroke-width="0.655"/>
              <path id="Trazado_174330" data-name="Trazado 174330" d="M546.6,196.537Q536.04,207.1,525.369,217.753" transform="translate(-503.923 -174.369)" fill="#fff" stroke="#606060" stroke-miterlimit="10" stroke-width="0.655"/>
              <path id="Trazado_174331" data-name="Trazado 174331" d="M550.637,202.6q-7.346,7.315-14.654,14.669-2.086,2.105-4.166,4.218" transform="translate(-507.886 -178.095)" fill="#fff" stroke="#606060" stroke-miterlimit="10" stroke-width="0.655"/>
              <path id="Trazado_174332" data-name="Trazado 174332" d="M554.587,209.851c-5.331,5.441-10.882,10.992-16.312,16.1" transform="translate(-511.854 -182.551)" fill="#fff" stroke="#606060" stroke-miterlimit="10" stroke-width="0.655"/>
            </g>
          </g>
          <ellipse id="Elipse_4980" data-name="Elipse 4980" cx="2.067" cy="2.067" rx="2.067" ry="2.067" transform="translate(546.038 223.709)" fill="#fff" stroke="#606060" stroke-miterlimit="10" stroke-width="0.655"/>
          <g id="Grupo_124749" data-name="Grupo 124749" transform="translate(565.651 209.217)">
            <g id="Grupo_124668-2" data-name="Grupo 124668" transform="translate(0 0)">
              <line id="Línea_1655-2" data-name="Línea 1655" x1="4.118" y2="4.118" fill="none" stroke="#d8d9da" stroke-miterlimit="10" stroke-width="0.78"/>
              <line id="Línea_1656-2" data-name="Línea 1656" x1="4.118" y2="4.118" transform="translate(2.006)" fill="none" stroke="#d8d9da" stroke-miterlimit="10" stroke-width="0.78"/>
              <line id="Línea_1657-2" data-name="Línea 1657" x1="4.118" y2="4.118" transform="translate(4.013)" fill="none" stroke="#d8d9da" stroke-miterlimit="10" stroke-width="0.78"/>
              <line id="Línea_1658-2" data-name="Línea 1658" x1="4.118" y2="4.118" transform="translate(6.019)" fill="none" stroke="#d8d9da" stroke-miterlimit="10" stroke-width="0.78"/>
              <line id="Línea_1659-2" data-name="Línea 1659" x1="4.118" y2="4.118" transform="translate(8.025)" fill="none" stroke="#d8d9da" stroke-miterlimit="10" stroke-width="0.78"/>
              <line id="Línea_1660-2" data-name="Línea 1660" x1="4.118" y2="4.118" transform="translate(10.032)" fill="none" stroke="#d8d9da" stroke-miterlimit="10" stroke-width="0.78"/>
              <line id="Línea_1661-2" data-name="Línea 1661" x1="4.118" y2="4.118" transform="translate(12.038)" fill="none" stroke="#d8d9da" stroke-miterlimit="10" stroke-width="0.78"/>
              <line id="Línea_1662-2" data-name="Línea 1662" x1="4.118" y2="4.118" transform="translate(14.044)" fill="none" stroke="#d8d9da" stroke-miterlimit="10" stroke-width="0.78"/>
              <line id="Línea_1663-2" data-name="Línea 1663" x1="4.118" y2="4.118" transform="translate(16.051)" fill="none" stroke="#d8d9da" stroke-miterlimit="10" stroke-width="0.78"/>
              <line id="Línea_1664-2" data-name="Línea 1664" x1="4.118" y2="4.118" transform="translate(18.057)" fill="none" stroke="#d8d9da" stroke-miterlimit="10" stroke-width="0.78"/>
              <line id="Línea_1665-2" data-name="Línea 1665" x1="4.118" y2="4.118" transform="translate(20.063)" fill="none" stroke="#d8d9da" stroke-miterlimit="10" stroke-width="0.78"/>
              <line id="Línea_1666-2" data-name="Línea 1666" x1="4.118" y2="4.118" transform="translate(22.07)" fill="none" stroke="#d8d9da" stroke-miterlimit="10" stroke-width="0.78"/>
              <line id="Línea_1667-2" data-name="Línea 1667" x1="4.118" y2="4.118" transform="translate(24.076)" fill="none" stroke="#d8d9da" stroke-miterlimit="10" stroke-width="0.78"/>
            </g>
          </g>
        </g>
      </g>
      <path id="Trazado_230326" data-name="Trazado 230326" d="M53.7,17V5.625h3.5a5.315,5.315,0,0,1,2.684.676,4.712,4.712,0,0,1,1.848,1.922,5.928,5.928,0,0,1,.664,2.832v.523a5.945,5.945,0,0,1-.652,2.82,4.672,4.672,0,0,1-1.84,1.914,5.355,5.355,0,0,1-2.68.688Zm2.344-9.477v7.594H57.18a2.545,2.545,0,0,0,2.1-.9,4.06,4.06,0,0,0,.742-2.57v-.6A4.124,4.124,0,0,0,59.3,8.418a2.537,2.537,0,0,0-2.1-.895Zm11.8,9.633a4.15,4.15,0,0,1-3.027-1.141,4.054,4.054,0,0,1-1.168-3.039v-.219a5.106,5.106,0,0,1,.492-2.277,3.612,3.612,0,0,1,1.395-1.547,3.914,3.914,0,0,1,2.059-.543,3.508,3.508,0,0,1,2.73,1.094,4.444,4.444,0,0,1,1,3.1v.922H65.938a2.1,2.1,0,0,0,.66,1.328,2,2,0,0,0,1.395.5,2.437,2.437,0,0,0,2.039-.945l1.109,1.242a3.389,3.389,0,0,1-1.375,1.121A4.511,4.511,0,0,1,67.844,17.156Zm-.258-6.937a1.414,1.414,0,0,0-1.09.453,2.341,2.341,0,0,0-.535,1.3H69.1v-.18a1.669,1.669,0,0,0-.406-1.16A1.459,1.459,0,0,0,67.586,10.219Zm9.594,4.445a.727.727,0,0,0-.41-.652,4.659,4.659,0,0,0-1.316-.426q-3.016-.633-3.016-2.562a2.323,2.323,0,0,1,.934-1.879,3.766,3.766,0,0,1,2.441-.754,4.053,4.053,0,0,1,2.574.758,2.388,2.388,0,0,1,.965,1.969H77.094a1.092,1.092,0,0,0-.312-.8A1.322,1.322,0,0,0,75.8,10a1.351,1.351,0,0,0-.883.258.814.814,0,0,0-.312.656.7.7,0,0,0,.355.605,3.657,3.657,0,0,0,1.2.4,9.8,9.8,0,0,1,1.422.379,2.336,2.336,0,0,1,1.789,2.273,2.2,2.2,0,0,1-.992,1.871,4.28,4.28,0,0,1-2.562.715,4.47,4.47,0,0,1-1.887-.379,3.166,3.166,0,0,1-1.293-1.039,2.414,2.414,0,0,1-.469-1.426h2.141a1.179,1.179,0,0,0,.445.922,1.766,1.766,0,0,0,1.109.32,1.635,1.635,0,0,0,.98-.246A.766.766,0,0,0,77.18,14.664Zm7.164.672a1.481,1.481,0,0,0,1.016-.344,1.2,1.2,0,0,0,.406-.914h2.117a2.9,2.9,0,0,1-.469,1.574,3.093,3.093,0,0,1-1.262,1.109,3.949,3.949,0,0,1-1.77.395A3.67,3.67,0,0,1,81.523,16a4.56,4.56,0,0,1-1.047-3.184v-.148a4.508,4.508,0,0,1,1.039-3.117,3.627,3.627,0,0,1,2.852-1.164,3.555,3.555,0,0,1,2.543.9,3.2,3.2,0,0,1,.973,2.4H85.766a1.539,1.539,0,0,0-.406-1.066,1.513,1.513,0,0,0-2.223.164,3.324,3.324,0,0,0-.4,1.863v.234a3.366,3.366,0,0,0,.4,1.875A1.378,1.378,0,0,0,84.344,15.336Zm9.891.8a2.831,2.831,0,0,1-2.312,1.016,2.67,2.67,0,0,1-2.074-.781,3.335,3.335,0,0,1-.73-2.289V8.547h2.258v5.461q0,1.32,1.2,1.32a1.631,1.631,0,0,0,1.578-.8V8.547h2.266V17H94.3Zm7.781,1.016a4.15,4.15,0,0,1-3.027-1.141,4.054,4.054,0,0,1-1.168-3.039v-.219a5.106,5.106,0,0,1,.492-2.277,3.612,3.612,0,0,1,1.395-1.547,3.914,3.914,0,0,1,2.059-.543,3.508,3.508,0,0,1,2.73,1.094,4.444,4.444,0,0,1,1,3.1v.922h-5.383a2.1,2.1,0,0,0,.66,1.328,2,2,0,0,0,1.395.5,2.437,2.437,0,0,0,2.039-.945l1.109,1.242a3.389,3.389,0,0,1-1.375,1.121A4.511,4.511,0,0,1,102.016,17.156Zm-.258-6.937a1.414,1.414,0,0,0-1.09.453,2.341,2.341,0,0,0-.535,1.3h3.141v-.18a1.669,1.669,0,0,0-.406-1.16A1.459,1.459,0,0,0,101.758,10.219Zm7.094-1.672.07.977a2.951,2.951,0,0,1,2.43-1.133,2.453,2.453,0,0,1,2,.789,3.682,3.682,0,0,1,.672,2.359V17h-2.258V11.594a1.465,1.465,0,0,0-.312-1.043,1.4,1.4,0,0,0-1.039-.324,1.553,1.553,0,0,0-1.43.813V17h-2.258V8.547Zm9.586-2.078V8.547h1.445V10.2h-1.445v4.219a1.007,1.007,0,0,0,.18.672.9.9,0,0,0,.688.2,3.6,3.6,0,0,0,.664-.055v1.711a4.648,4.648,0,0,1-1.367.2,2.156,2.156,0,0,1-2.422-2.4V10.2h-1.234V8.547h1.234V6.469Zm2.117,6.227a5.013,5.013,0,0,1,.484-2.242,3.546,3.546,0,0,1,1.395-1.523,4.069,4.069,0,0,1,2.113-.539,3.849,3.849,0,0,1,2.793,1.047,4.2,4.2,0,0,1,1.207,2.844l.016.578a4.418,4.418,0,0,1-1.086,3.121,4.209,4.209,0,0,1-5.832,0,4.5,4.5,0,0,1-1.09-3.187Zm2.258.164a3.151,3.151,0,0,0,.453,1.84,1.629,1.629,0,0,0,2.578.008A3.448,3.448,0,0,0,126.3,12.7a3.12,3.12,0,0,0-.461-1.828,1.5,1.5,0,0,0-1.3-.648,1.475,1.475,0,0,0-1.281.645A3.506,3.506,0,0,0,122.813,12.859Zm11.719,1.8a.727.727,0,0,0-.41-.652,4.659,4.659,0,0,0-1.316-.426q-3.016-.633-3.016-2.562a2.323,2.323,0,0,1,.934-1.879,3.766,3.766,0,0,1,2.441-.754,4.053,4.053,0,0,1,2.574.758,2.388,2.388,0,0,1,.965,1.969h-2.258a1.092,1.092,0,0,0-.312-.8,1.322,1.322,0,0,0-.977-.316,1.351,1.351,0,0,0-.883.258.814.814,0,0,0-.312.656.7.7,0,0,0,.355.605,3.657,3.657,0,0,0,1.2.4,9.8,9.8,0,0,1,1.422.379,2.336,2.336,0,0,1,1.789,2.273,2.205,2.205,0,0,1-.992,1.871,4.28,4.28,0,0,1-2.562.715,4.47,4.47,0,0,1-1.887-.379,3.166,3.166,0,0,1-1.293-1.039,2.414,2.414,0,0,1-.469-1.426h2.141a1.179,1.179,0,0,0,.445.922,1.766,1.766,0,0,0,1.109.32,1.635,1.635,0,0,0,.98-.246A.766.766,0,0,0,134.531,14.664ZM63.809,37.156a4.15,4.15,0,0,1-3.027-1.141,4.054,4.054,0,0,1-1.168-3.039v-.219a5.106,5.106,0,0,1,.492-2.277A3.612,3.612,0,0,1,61.5,28.934a3.914,3.914,0,0,1,2.059-.543,3.508,3.508,0,0,1,2.73,1.094,4.444,4.444,0,0,1,1,3.1v.922H61.9a2.1,2.1,0,0,0,.66,1.328,2,2,0,0,0,1.395.5A2.437,2.437,0,0,0,66,34.391l1.109,1.242a3.389,3.389,0,0,1-1.375,1.121A4.511,4.511,0,0,1,63.809,37.156Zm-.258-6.937a1.414,1.414,0,0,0-1.09.453,2.341,2.341,0,0,0-.535,1.3h3.141v-.18a1.669,1.669,0,0,0-.406-1.16A1.459,1.459,0,0,0,63.551,30.219Zm8.234.852,1.422-2.523h2.414l-2.406,4.141L75.723,37H73.3l-1.508-2.656L70.293,37h-2.43l2.508-4.312-2.4-4.141h2.422Zm8.281,4.266a1.481,1.481,0,0,0,1.016-.344,1.2,1.2,0,0,0,.406-.914h2.117a2.9,2.9,0,0,1-.469,1.574,3.093,3.093,0,0,1-1.262,1.109,3.949,3.949,0,0,1-1.77.395A3.67,3.67,0,0,1,77.246,36,4.56,4.56,0,0,1,76.2,32.82v-.148a4.508,4.508,0,0,1,1.039-3.117,3.627,3.627,0,0,1,2.852-1.164,3.555,3.555,0,0,1,2.543.9,3.2,3.2,0,0,1,.973,2.4H81.488a1.539,1.539,0,0,0-.406-1.066,1.513,1.513,0,0,0-2.223.164,3.324,3.324,0,0,0-.4,1.863v.234a3.366,3.366,0,0,0,.4,1.875A1.378,1.378,0,0,0,80.066,35.336ZM87.277,37H85.012V25h2.266Zm6.922-.859a2.831,2.831,0,0,1-2.312,1.016,2.67,2.67,0,0,1-2.074-.781,3.335,3.335,0,0,1-.73-2.289V28.547H91.34v5.461q0,1.32,1.2,1.32a1.631,1.631,0,0,0,1.578-.8V28.547h2.266V37H94.262Zm8.469-1.477a.727.727,0,0,0-.41-.652,4.659,4.659,0,0,0-1.316-.426q-3.016-.633-3.016-2.562a2.323,2.323,0,0,1,.934-1.879,3.766,3.766,0,0,1,2.441-.754,4.053,4.053,0,0,1,2.574.758,2.388,2.388,0,0,1,.965,1.969h-2.258a1.092,1.092,0,0,0-.312-.8,1.322,1.322,0,0,0-.977-.316,1.351,1.351,0,0,0-.883.258.814.814,0,0,0-.312.656.7.7,0,0,0,.355.605,3.657,3.657,0,0,0,1.2.4,9.8,9.8,0,0,1,1.422.379,2.336,2.336,0,0,1,1.789,2.273,2.2,2.2,0,0,1-.992,1.871,4.28,4.28,0,0,1-2.562.715,4.47,4.47,0,0,1-1.887-.379,3.166,3.166,0,0,1-1.293-1.039,2.414,2.414,0,0,1-.469-1.426H99.8a1.179,1.179,0,0,0,.445.922,1.766,1.766,0,0,0,1.109.32,1.635,1.635,0,0,0,.98-.246A.766.766,0,0,0,102.668,34.664ZM108.7,37h-2.266V28.547H108.7Zm-2.4-10.641a1.112,1.112,0,0,1,.34-.836,1.465,1.465,0,0,1,1.848,0,1.193,1.193,0,0,1,0,1.68,1.448,1.448,0,0,1-1.836,0A1.108,1.108,0,0,1,106.3,26.359Zm7.422,7.883,1.57-5.7h2.359L114.8,37h-2.156l-2.852-8.453h2.359Zm4.453-1.547a5.013,5.013,0,0,1,.484-2.242,3.546,3.546,0,0,1,1.395-1.523,4.069,4.069,0,0,1,2.113-.539,3.849,3.849,0,0,1,2.793,1.047,4.2,4.2,0,0,1,1.207,2.844l.016.578A4.418,4.418,0,0,1,125.1,35.98a4.209,4.209,0,0,1-5.832,0,4.5,4.5,0,0,1-1.09-3.187Zm2.258.164a3.151,3.151,0,0,0,.453,1.84,1.629,1.629,0,0,0,2.578.008,3.448,3.448,0,0,0,.461-2.012,3.12,3.12,0,0,0-.461-1.828,1.5,1.5,0,0,0-1.3-.648,1.475,1.475,0,0,0-1.281.645A3.506,3.506,0,0,0,120.434,32.859Zm11.719,1.8a.727.727,0,0,0-.41-.652,4.659,4.659,0,0,0-1.316-.426q-3.016-.633-3.016-2.562a2.323,2.323,0,0,1,.934-1.879,3.766,3.766,0,0,1,2.441-.754,4.053,4.053,0,0,1,2.574.758,2.388,2.388,0,0,1,.965,1.969h-2.258a1.092,1.092,0,0,0-.312-.8,1.322,1.322,0,0,0-.977-.316,1.351,1.351,0,0,0-.883.258.814.814,0,0,0-.312.656.7.7,0,0,0,.355.605,3.657,3.657,0,0,0,1.2.4,9.8,9.8,0,0,1,1.422.379,2.336,2.336,0,0,1,1.789,2.273,2.205,2.205,0,0,1-.992,1.871,4.28,4.28,0,0,1-2.562.715,4.47,4.47,0,0,1-1.887-.379,3.166,3.166,0,0,1-1.293-1.039,2.414,2.414,0,0,1-.469-1.426h2.141a1.179,1.179,0,0,0,.445.922,1.766,1.766,0,0,0,1.109.32,1.635,1.635,0,0,0,.98-.246A.766.766,0,0,0,132.152,34.664Z" transform="translate(-5297 -7048)" fill="#12263f"/>
      <path id="Trazado_230327" data-name="Trazado 230327" d="M84.109,13.2a4.254,4.254,0,0,1-.8,2.09,4.375,4.375,0,0,1-1.75,1.4,5.329,5.329,0,0,1-2.328.465,3.936,3.936,0,0,1-1.961-.52A3.443,3.443,0,0,1,75.949,15.2a5.312,5.312,0,0,1-.543-2.168,10.634,10.634,0,0,1,.2-2.391A7.578,7.578,0,0,1,76.512,8.1a5.666,5.666,0,0,1,1.551-1.758,4.679,4.679,0,0,1,2.891-.875,3.839,3.839,0,0,1,2.8,1.09A4.384,4.384,0,0,1,84.891,9.5l-2.281-.008a2.391,2.391,0,0,0-.43-1.578,1.753,1.753,0,0,0-1.336-.531,2.319,2.319,0,0,0-1.926.836,5.027,5.027,0,0,0-1.012,2.555,14.155,14.155,0,0,0-.219,2.445,2.434,2.434,0,0,0,.461,1.52,1.543,1.543,0,0,0,1.18.512,2.356,2.356,0,0,0,1.676-.5,2.625,2.625,0,0,0,.832-1.535Zm6.609-2.539a4.548,4.548,0,0,0-.742-.078,2.136,2.136,0,0,0-1.867.883L87.133,17h-2.2L86.4,8.547l2.07-.008-.2,1.031a2.325,2.325,0,0,1,1.969-1.2A3.214,3.214,0,0,1,91,8.484Zm4.508-2.273a3.39,3.39,0,0,1,1.926.574A3.234,3.234,0,0,1,98.34,10.5a4.762,4.762,0,0,1,.27,2.176,5.143,5.143,0,0,1-1.4,3.262,3.96,3.96,0,0,1-3.02,1.215,3.38,3.38,0,0,1-1.906-.566,3.222,3.222,0,0,1-1.187-1.527,4.657,4.657,0,0,1-.273-2.156,5.3,5.3,0,0,1,1.422-3.328A3.878,3.878,0,0,1,95.227,8.391ZM93,13.711a1.955,1.955,0,0,0,.352,1.184,1.168,1.168,0,0,0,.945.449,1.712,1.712,0,0,0,1.594-.934,4.659,4.659,0,0,0,.539-2.535,2.127,2.127,0,0,0-.363-1.2,1.148,1.148,0,0,0-.949-.465,1.714,1.714,0,0,0-1.574.926A4.611,4.611,0,0,0,93,13.711Zm11.141.906q.125-.625-.867-.906l-.711-.18q-2.523-.7-2.453-2.453a2.428,2.428,0,0,1,1.059-1.949,3.942,3.942,0,0,1,2.457-.738,3.536,3.536,0,0,1,2.313.758,2.5,2.5,0,0,1,.9,1.977l-2.187-.008a.963.963,0,0,0-1.078-1.1,1.551,1.551,0,0,0-.895.258,1.061,1.061,0,0,0-.465.7q-.117.625.945.883l.313.07a6.285,6.285,0,0,1,1.648.59,2.488,2.488,0,0,1,.879.824,2.04,2.04,0,0,1,.285,1.18,2.251,2.251,0,0,1-.52,1.406,3.18,3.18,0,0,1-1.359.93,4.736,4.736,0,0,1-1.816.3,3.568,3.568,0,0,1-2.344-.809,2.607,2.607,0,0,1-.953-2.051l2.078.016a1.142,1.142,0,0,0,1.3,1.227,1.845,1.845,0,0,0,1-.25A.987.987,0,0,0,104.141,14.617Zm8.055,0q.125-.625-.867-.906l-.711-.18q-2.523-.7-2.453-2.453a2.428,2.428,0,0,1,1.059-1.949,3.942,3.942,0,0,1,2.457-.738,3.536,3.536,0,0,1,2.313.758,2.5,2.5,0,0,1,.9,1.977l-2.187-.008a.963.963,0,0,0-1.078-1.1,1.551,1.551,0,0,0-.895.258,1.061,1.061,0,0,0-.465.7q-.117.625.945.883l.313.07a6.285,6.285,0,0,1,1.648.59,2.488,2.488,0,0,1,.879.824,2.04,2.04,0,0,1,.285,1.18,2.251,2.251,0,0,1-.52,1.406,3.18,3.18,0,0,1-1.359.93,4.736,4.736,0,0,1-1.816.3,3.568,3.568,0,0,1-2.344-.809,2.607,2.607,0,0,1-.953-2.051l2.078.016a1.142,1.142,0,0,0,1.3,1.227,1.845,1.845,0,0,0,1-.25A.987.987,0,0,0,112.2,14.617Zm-35.684,20q.125-.625-.867-.906l-.711-.18q-2.523-.7-2.453-2.453a2.428,2.428,0,0,1,1.059-1.949A3.942,3.942,0,0,1,76,28.391a3.536,3.536,0,0,1,2.313.758,2.5,2.5,0,0,1,.9,1.977l-2.187-.008a.963.963,0,0,0-1.078-1.1,1.551,1.551,0,0,0-.895.258,1.061,1.061,0,0,0-.465.7q-.117.625.945.883l.313.07a6.285,6.285,0,0,1,1.648.59,2.488,2.488,0,0,1,.879.824,2.04,2.04,0,0,1,.285,1.18,2.251,2.251,0,0,1-.52,1.406,3.18,3.18,0,0,1-1.359.93,4.736,4.736,0,0,1-1.816.3,3.568,3.568,0,0,1-2.344-.809A2.607,2.607,0,0,1,71.66,34.3l2.078.016a1.142,1.142,0,0,0,1.3,1.227,1.845,1.845,0,0,0,1-.25A.988.988,0,0,0,76.512,34.617Zm7.172,2.539a3.677,3.677,0,0,1-1.965-.543,3.292,3.292,0,0,1-1.277-1.469,4.093,4.093,0,0,1-.328-2.059l.023-.312a5.465,5.465,0,0,1,.719-2.266,4.341,4.341,0,0,1,1.547-1.59,3.827,3.827,0,0,1,2.094-.527,2.926,2.926,0,0,1,2.473,1.2,4.105,4.105,0,0,1,.637,2.957l-.125.961H82.3a1.814,1.814,0,0,0,.4,1.313,1.521,1.521,0,0,0,1.172.508,2.712,2.712,0,0,0,2.109-.93l1.008,1.25a3.135,3.135,0,0,1-1.375,1.121A4.5,4.5,0,0,1,83.684,37.156Zm.7-6.945a1.565,1.565,0,0,0-1.082.383,3.363,3.363,0,0,0-.848,1.383h3.031l.047-.2a2.071,2.071,0,0,0,.008-.594,1.134,1.134,0,0,0-.383-.707A1.2,1.2,0,0,0,84.387,30.211ZM90.465,37H88.246l2.086-12h2.211Zm4.2,0H92.441l2.086-12h2.211Zm4.2,0H96.637l1.469-8.453h2.219Zm-.492-10.6a1.1,1.1,0,0,1,.344-.867,1.323,1.323,0,0,1,1.734-.039,1.1,1.1,0,0,1,.383.828,1.132,1.132,0,0,1-.324.844,1.215,1.215,0,0,1-.887.375,1.235,1.235,0,0,1-.863-.3A1.091,1.091,0,0,1,98.363,26.4Zm5.844,2.141-.187,1a3.042,3.042,0,0,1,2.461-1.148,2.028,2.028,0,0,1,1.766.875,3.526,3.526,0,0,1,.414,2.359L107.77,37h-2.2l.906-5.4a2.528,2.528,0,0,0,.016-.555.9.9,0,0,0-1-.82,1.9,1.9,0,0,0-1.555.8L102.879,37h-2.2l1.469-8.453Zm5.711,4.227a5.849,5.849,0,0,1,1.277-3.184,3.242,3.242,0,0,1,2.629-1.2,2.37,2.37,0,0,1,2.016.977l.289-.82,2.023.008-1.383,8.164a3.983,3.983,0,0,1-1.437,2.672,4.471,4.471,0,0,1-3,.953,4.168,4.168,0,0,1-1.672-.379,3.575,3.575,0,0,1-1.312-1l1.094-1.344a2.349,2.349,0,0,0,1.844.961,2.166,2.166,0,0,0,1.469-.449,2.4,2.4,0,0,0,.828-1.355l.125-.508a2.749,2.749,0,0,1-2.07.891,2.428,2.428,0,0,1-1.961-.918,3.947,3.947,0,0,1-.8-2.348A7.89,7.89,0,0,1,109.918,32.766Zm2.164.922a2.015,2.015,0,0,0,.309,1.176,1.08,1.08,0,0,0,.895.465,1.973,1.973,0,0,0,1.594-.766l.656-3.578a1.3,1.3,0,0,0-1.242-.766,1.729,1.729,0,0,0-1.43.68,3.552,3.552,0,0,0-.734,1.867A8.189,8.189,0,0,0,112.082,33.688Z" transform="translate(-5082 -7048)" fill="#12263f"/>
      <path id="Trazado_230328" data-name="Trazado 230328" d="M77.1,12.352H72.6V17H70.258V5.625h7.406v1.9H72.6v2.938h4.5Zm5.664,4.8a4.15,4.15,0,0,1-3.027-1.141,4.054,4.054,0,0,1-1.168-3.039v-.219a5.106,5.106,0,0,1,.492-2.277,3.612,3.612,0,0,1,1.395-1.547,3.914,3.914,0,0,1,2.059-.543,3.508,3.508,0,0,1,2.73,1.094,4.444,4.444,0,0,1,1,3.1v.922H80.859a2.1,2.1,0,0,0,.66,1.328,2,2,0,0,0,1.395.5,2.437,2.437,0,0,0,2.039-.945l1.109,1.242a3.389,3.389,0,0,1-1.375,1.121A4.511,4.511,0,0,1,82.766,17.156Zm-.258-6.937a1.414,1.414,0,0,0-1.09.453,2.341,2.341,0,0,0-.535,1.3h3.141v-.18a1.669,1.669,0,0,0-.406-1.16A1.459,1.459,0,0,0,82.508,10.219Zm8.531,5.117a1.481,1.481,0,0,0,1.016-.344,1.2,1.2,0,0,0,.406-.914h2.117a2.9,2.9,0,0,1-.469,1.574,3.093,3.093,0,0,1-1.262,1.109,3.949,3.949,0,0,1-1.77.395A3.67,3.67,0,0,1,88.219,16a4.56,4.56,0,0,1-1.047-3.184v-.148a4.508,4.508,0,0,1,1.039-3.117,3.627,3.627,0,0,1,2.852-1.164,3.555,3.555,0,0,1,2.543.9,3.2,3.2,0,0,1,.973,2.4H92.461a1.539,1.539,0,0,0-.406-1.066,1.513,1.513,0,0,0-2.223.164,3.324,3.324,0,0,0-.4,1.863v.234a3.366,3.366,0,0,0,.4,1.875A1.378,1.378,0,0,0,91.039,15.336ZM98.07,9.469a2.818,2.818,0,0,1,2.258-1.078q2.75,0,2.789,3.2V17h-2.258V11.648a1.57,1.57,0,0,0-.312-1.074,1.34,1.34,0,0,0-1.039-.348,1.537,1.537,0,0,0-1.437.766V17H95.813V5H98.07ZM109.719,17a2.507,2.507,0,0,1-.227-.758,2.732,2.732,0,0,1-2.133.914,3,3,0,0,1-2.059-.719,2.312,2.312,0,0,1-.816-1.812,2.389,2.389,0,0,1,1-2.062,4.915,4.915,0,0,1,2.879-.727H109.4v-.484a1.393,1.393,0,0,0-.3-.937,1.183,1.183,0,0,0-.949-.352,1.345,1.345,0,0,0-.895.273.929.929,0,0,0-.324.75h-2.258a2.268,2.268,0,0,1,.453-1.359,3,3,0,0,1,1.281-.98,4.669,4.669,0,0,1,1.859-.355,3.689,3.689,0,0,1,2.48.785,2.747,2.747,0,0,1,.918,2.207v3.664a4.041,4.041,0,0,0,.336,1.82V17Zm-1.867-1.57a1.945,1.945,0,0,0,.922-.223,1.462,1.462,0,0,0,.625-.6V13.156h-.844q-1.7,0-1.8,1.172l-.008.133a.9.9,0,0,0,.3.7A1.153,1.153,0,0,0,107.852,15.43Zm10.125-.766a.727.727,0,0,0-.41-.652,4.659,4.659,0,0,0-1.316-.426q-3.016-.633-3.016-2.562a2.323,2.323,0,0,1,.934-1.879,3.766,3.766,0,0,1,2.441-.754,4.053,4.053,0,0,1,2.574.758,2.388,2.388,0,0,1,.965,1.969h-2.258a1.092,1.092,0,0,0-.312-.8A1.322,1.322,0,0,0,116.6,10a1.351,1.351,0,0,0-.883.258.814.814,0,0,0-.312.656.7.7,0,0,0,.355.605,3.657,3.657,0,0,0,1.2.4,9.8,9.8,0,0,1,1.422.379,2.336,2.336,0,0,1,1.789,2.273,2.2,2.2,0,0,1-.992,1.871,4.28,4.28,0,0,1-2.562.715,4.47,4.47,0,0,1-1.887-.379,3.166,3.166,0,0,1-1.293-1.039,2.414,2.414,0,0,1-.469-1.426h2.141a1.179,1.179,0,0,0,.445.922,1.766,1.766,0,0,0,1.109.32,1.635,1.635,0,0,0,.98-.246A.766.766,0,0,0,117.977,14.664Zm-52.9,16a6.134,6.134,0,0,0-.812-.062,1.654,1.654,0,0,0-1.68.867V37H60.328V28.547h2.133l.063,1.008a2.092,2.092,0,0,1,1.883-1.164,2.366,2.366,0,0,1,.7.1Zm4.977,6.492a4.15,4.15,0,0,1-3.027-1.141,4.054,4.054,0,0,1-1.168-3.039v-.219a5.106,5.106,0,0,1,.492-2.277,3.612,3.612,0,0,1,1.395-1.547,3.914,3.914,0,0,1,2.059-.543,3.508,3.508,0,0,1,2.73,1.094,4.444,4.444,0,0,1,1,3.1v.922H68.148a2.1,2.1,0,0,0,.66,1.328,2,2,0,0,0,1.395.5,2.437,2.437,0,0,0,2.039-.945l1.109,1.242a3.389,3.389,0,0,1-1.375,1.121A4.511,4.511,0,0,1,70.055,37.156ZM69.8,30.219a1.414,1.414,0,0,0-1.09.453,2.341,2.341,0,0,0-.535,1.3h3.141v-.18a1.669,1.669,0,0,0-.406-1.16A1.459,1.459,0,0,0,69.8,30.219ZM77.2,37H74.93V25H77.2Zm5.75.156a4.15,4.15,0,0,1-3.027-1.141,4.054,4.054,0,0,1-1.168-3.039v-.219a5.106,5.106,0,0,1,.492-2.277,3.612,3.612,0,0,1,1.395-1.547,3.914,3.914,0,0,1,2.059-.543,3.508,3.508,0,0,1,2.73,1.094,4.444,4.444,0,0,1,1,3.1v.922H81.039a2.1,2.1,0,0,0,.66,1.328,2,2,0,0,0,1.395.5,2.437,2.437,0,0,0,2.039-.945l1.109,1.242a3.389,3.389,0,0,1-1.375,1.121A4.511,4.511,0,0,1,82.945,37.156Zm-.258-6.937a1.414,1.414,0,0,0-1.09.453,2.341,2.341,0,0,0-.535,1.3H84.2v-.18a1.669,1.669,0,0,0-.406-1.16A1.459,1.459,0,0,0,82.688,30.219Zm8.078,4.023,1.57-5.7H94.7L91.844,37H89.688l-2.852-8.453H89.2Zm9.7,2.758a2.507,2.507,0,0,1-.227-.758,2.732,2.732,0,0,1-2.133.914,3,3,0,0,1-2.059-.719,2.312,2.312,0,0,1-.816-1.812,2.389,2.389,0,0,1,1-2.062,4.915,4.915,0,0,1,2.879-.727h1.039v-.484a1.393,1.393,0,0,0-.3-.937,1.183,1.183,0,0,0-.949-.352,1.345,1.345,0,0,0-.895.273.929.929,0,0,0-.324.75H95.422a2.268,2.268,0,0,1,.453-1.359,3,3,0,0,1,1.281-.98,4.669,4.669,0,0,1,1.859-.355,3.689,3.689,0,0,1,2.48.785,2.747,2.747,0,0,1,.918,2.207v3.664a4.041,4.041,0,0,0,.336,1.82V37ZM98.6,35.43a1.945,1.945,0,0,0,.922-.223,1.462,1.462,0,0,0,.625-.6V33.156H99.3q-1.7,0-1.8,1.172l-.008.133a.9.9,0,0,0,.3.7A1.153,1.153,0,0,0,98.6,35.43Zm7.625-6.883.07.977a2.951,2.951,0,0,1,2.43-1.133,2.453,2.453,0,0,1,2,.789,3.682,3.682,0,0,1,.672,2.359V37h-2.258V31.594a1.465,1.465,0,0,0-.312-1.043,1.4,1.4,0,0,0-1.039-.324,1.553,1.553,0,0,0-1.43.813V37H104.1V28.547Zm9.586-2.078v2.078h1.445V30.2h-1.445v4.219a1.007,1.007,0,0,0,.18.672.9.9,0,0,0,.688.2,3.6,3.6,0,0,0,.664-.055v1.711a4.648,4.648,0,0,1-1.367.2,2.156,2.156,0,0,1-2.422-2.4V30.2H112.32V28.547h1.234V26.469Zm6.594,10.688a4.15,4.15,0,0,1-3.027-1.141,4.054,4.054,0,0,1-1.168-3.039v-.219a5.106,5.106,0,0,1,.492-2.277,3.612,3.612,0,0,1,1.395-1.547,3.914,3.914,0,0,1,2.059-.543,3.508,3.508,0,0,1,2.73,1.094,4.444,4.444,0,0,1,1,3.1v.922H120.5a2.1,2.1,0,0,0,.66,1.328,2,2,0,0,0,1.395.5,2.437,2.437,0,0,0,2.039-.945l1.109,1.242a3.389,3.389,0,0,1-1.375,1.121A4.511,4.511,0,0,1,122.406,37.156Zm-.258-6.937a1.414,1.414,0,0,0-1.09.453,2.341,2.341,0,0,0-.535,1.3h3.141v-.18a1.669,1.669,0,0,0-.406-1.16A1.459,1.459,0,0,0,122.148,30.219Zm9.594,4.445a.727.727,0,0,0-.41-.652,4.659,4.659,0,0,0-1.316-.426Q127,32.953,127,31.023a2.323,2.323,0,0,1,.934-1.879,3.766,3.766,0,0,1,2.441-.754,4.053,4.053,0,0,1,2.574.758,2.388,2.388,0,0,1,.965,1.969h-2.258a1.092,1.092,0,0,0-.312-.8,1.322,1.322,0,0,0-.977-.316,1.351,1.351,0,0,0-.883.258.814.814,0,0,0-.312.656.7.7,0,0,0,.355.605,3.657,3.657,0,0,0,1.2.4,9.8,9.8,0,0,1,1.422.379,2.336,2.336,0,0,1,1.789,2.273,2.205,2.205,0,0,1-.992,1.871,4.28,4.28,0,0,1-2.562.715,4.47,4.47,0,0,1-1.887-.379,3.166,3.166,0,0,1-1.293-1.039,2.414,2.414,0,0,1-.469-1.426h2.141a1.179,1.179,0,0,0,.445.922,1.766,1.766,0,0,0,1.109.32,1.635,1.635,0,0,0,.98-.246A.766.766,0,0,0,131.742,34.664Z" transform="translate(-4867 -7048)" fill="#12263f"/>
      <g id="Grupo_181370" data-name="Grupo 181370" transform="translate(-5283 -7280)">
        <path id="Trazado_229859" data-name="Trazado 229859" d="M59.139,51.521H18.822l40.318,68.258L99.457,51.521Z" transform="translate(20.168 55.205)" fill="#0053a0"/>
        <g id="Grupo_181060" data-name="Grupo 181060" transform="translate(0 0)">
          <g id="Grupo_181059" data-name="Grupo 181059" clip-path="url(#clip-path-2)">
            <path id="Trazado_229860" data-name="Trazado 229860" d="M85.242,85.242H0A85.239,85.239,0,0,1,85.238,0h0Z" transform="translate(0 -0.001)" fill="#0053a0"/>
            <path id="Trazado_229861" data-name="Trazado 229861" d="M73.6,5.323A68.274,68.274,0,1,1,5.323,73.6,68.274,68.274,0,0,1,73.6,5.323" transform="translate(5.704 5.703)" fill="#88bae6"/>
            <path id="Trazado_229862" data-name="Trazado 229862" d="M128.769,69.132A59.638,59.638,0,1,1,69.133,9.495a59.636,59.636,0,0,1,59.636,59.637" transform="translate(10.173 10.173)" fill="#fff"/>
            <path id="Trazado_229863" data-name="Trazado 229863" d="M164,51.521H123.683L164,119.779l40.318-68.258Z" transform="translate(132.527 55.204)" fill="#3c9a89"/>
            <path id="Trazado_229864" data-name="Trazado 229864" d="M190.1,85.242H104.862A85.239,85.239,0,0,1,190.1,0h0Z" transform="translate(112.36 -0.001)" fill="#3c9a89"/>
            <path id="Trazado_229865" data-name="Trazado 229865" d="M178.459,5.323A68.274,68.274,0,1,1,110.184,73.6,68.274,68.274,0,0,1,178.459,5.323" transform="translate(118.062 5.703)" fill="#88c7bd"/>
            <path id="Trazado_229866" data-name="Trazado 229866" d="M233.631,69.132A59.638,59.638,0,1,1,173.995,9.495a59.636,59.636,0,0,1,59.637,59.637" transform="translate(122.533 10.173)" fill="#fff"/>
            <path id="Trazado_229869" data-name="Trazado 229869" d="M268.863,51.521H228.545l40.318,68.258L309.18,51.521Z" transform="translate(244.887 55.204)" fill="#524994"/>
            <path id="Trazado_229870" data-name="Trazado 229870" d="M294.966,85.242H209.724A85.239,85.239,0,0,1,294.962,0h0Z" transform="translate(224.72 -0.001)" fill="#524994"/>
            <path id="Trazado_229871" data-name="Trazado 229871" d="M283.321,5.323A68.274,68.274,0,1,1,215.046,73.6,68.274,68.274,0,0,1,283.321,5.323" transform="translate(230.422 5.703)" fill="#928dc4"/>
            <path id="Trazado_229872" data-name="Trazado 229872" d="M338.492,69.132A59.638,59.638,0,1,1,278.856,9.495a59.636,59.636,0,0,1,59.636,59.637" transform="translate(234.892 10.173)" fill="#fff"/>
            <path id="Trazado_229877" data-name="Trazado 229877" d="M249.092,28.816a1.245,1.245,0,0,1-1.245-1.245V23.534a1.245,1.245,0,0,1,2.49,0v4.037a1.245,1.245,0,0,1-1.245,1.245" transform="translate(265.569 23.884)" fill="#e3f3f8"/>
            <path id="Trazado_229878" data-name="Trazado 229878" d="M247.672,38.5a3.686,3.686,0,0,1,5.032,0,1.758,1.758,0,0,0,.851.431V27.454a2.905,2.905,0,0,0-2.9-2.9h-.924a2.9,2.9,0,0,0-2.9,2.9V38.93a1.743,1.743,0,0,0,.849-.431" transform="translate(264.472 26.305)" fill="#30b6e7"/>
            <path id="Trazado_229879" data-name="Trazado 229879" d="M250.189,27.455a2.9,2.9,0,0,1,1.682-2.633,2.891,2.891,0,0,0-1.22-.271h-.924a2.905,2.905,0,0,0-2.9,2.9V38.931a1.743,1.743,0,0,0,.849-.431,3.69,3.69,0,0,1,2.517-.992Z" transform="translate(264.472 26.306)" fill="#13b3ed"/>
            <rect id="Rectángulo_58633" data-name="Rectángulo 58633" width="64.14" height="15.65" transform="translate(482.592 82.839)" fill="#fda42f"/>
            <rect id="Rectángulo_58634" data-name="Rectángulo 58634" width="9.935" height="15.65" transform="translate(482.592 82.839)" fill="#f9940b"/>
            <rect id="Rectángulo_58635" data-name="Rectángulo 58635" width="54.667" height="9.148" transform="translate(487.155 74.321)" fill="#ffd866"/>
            <rect id="Rectángulo_58636" data-name="Rectángulo 58636" width="5.371" height="9.148" transform="translate(487.155 74.321)" fill="#ffc150"/>
            <path id="Trazado_229880" data-name="Trazado 229880" d="M232.967,47.337v8.437a2.636,2.636,0,0,0,2.49,2.656h59.16a2.636,2.636,0,0,0,2.49-2.656V47.337Z" transform="translate(249.625 50.721)" fill="#ffd866"/>
            <path id="Trazado_229881" data-name="Trazado 229881" d="M242.9,47.337h-9.935v8.437a2.636,2.636,0,0,0,2.488,2.656H242.9Z" transform="translate(249.625 50.721)" fill="#ffc150"/>
            <path id="Trazado_229882" data-name="Trazado 229882" d="M303.9,52.612H231.361a.814.814,0,0,0-.814.814,6.409,6.409,0,0,0,6.409,6.409H298.3a6.409,6.409,0,0,0,6.409-6.409.814.814,0,0,0-.814-.814" transform="translate(247.032 56.373)" fill="#e3f3f8"/>
            <path id="Trazado_229883" data-name="Trazado 229883" d="M243.656,53.426a.814.814,0,0,1,.814-.814H231.361a.814.814,0,0,0-.814.814,6.409,6.409,0,0,0,6.409,6.409h13.108a6.409,6.409,0,0,1-6.409-6.409" transform="translate(247.032 56.373)" fill="#d0e2e7"/>
            <path id="Trazado_229884" data-name="Trazado 229884" d="M295.919,30.669a3.691,3.691,0,0,0-2.929.969,1.784,1.784,0,0,1-2.405,0,3.686,3.686,0,0,0-5.032,0,1.784,1.784,0,0,1-2.405,0,3.686,3.686,0,0,0-5.032,0,1.784,1.784,0,0,1-2.405,0,3.686,3.686,0,0,0-5.032,0,1.784,1.784,0,0,1-2.405,0,3.688,3.688,0,0,0-5.034,0,1.782,1.782,0,0,1-2.4,0,3.688,3.688,0,0,0-5.034,0,1.782,1.782,0,0,1-2.4,0,3.688,3.688,0,0,0-5.034,0,1.781,1.781,0,0,1-2.4,0,3.688,3.688,0,0,0-5.034,0,1.782,1.782,0,0,1-2.4,0,3.7,3.7,0,0,0-2.931-.969,3.775,3.775,0,0,0-3.3,3.778V52.666a3.776,3.776,0,0,0,3.352,3.787,3.727,3.727,0,0,0,4.085-3.7V46.7a3.774,3.774,0,0,1,3.352-3.785,3.727,3.727,0,0,1,4.085,3.7v6.047a3.776,3.776,0,0,0,3.352,3.787,3.727,3.727,0,0,0,4.085-3.7V46.7a3.774,3.774,0,0,1,3.354-3.785,3.727,3.727,0,0,1,4.083,3.7v6.047a3.776,3.776,0,0,0,3.354,3.787,3.727,3.727,0,0,0,4.083-3.7V46.7a3.774,3.774,0,0,1,3.354-3.785,3.727,3.727,0,0,1,4.083,3.7v6.047a3.776,3.776,0,0,0,3.354,3.787,3.727,3.727,0,0,0,4.083-3.7V46.7A3.774,3.774,0,0,1,287.7,42.92a3.727,3.727,0,0,1,4.083,3.7v6.047a3.776,3.776,0,0,0,3.354,3.787,3.726,3.726,0,0,0,4.083-3.7V34.447a3.775,3.775,0,0,0-3.3-3.778" transform="translate(248.903 32.836)" fill="#e65a70"/>
            <path id="Trazado_229885" data-name="Trazado 229885" d="M267.251,36.576a3.776,3.776,0,0,0-3.352,3.787V46.41a3.728,3.728,0,0,1-1.943,3.263,3.592,3.592,0,0,0,1.4.439,3.728,3.728,0,0,0,4.083-3.7V36.564C267.377,36.566,267.315,36.57,267.251,36.576Z" transform="translate(280.687 39.178)" fill="#e13c56"/>
            <path id="Trazado_229886" data-name="Trazado 229886" d="M252.891,36.579a3.776,3.776,0,0,0-3.352,3.787v6.047a3.728,3.728,0,0,1-1.943,3.263,3.592,3.592,0,0,0,1.4.439,3.728,3.728,0,0,0,4.083-3.7V40.366a3.84,3.84,0,0,1,1.953-3.35A3.7,3.7,0,0,0,252.891,36.579Z" transform="translate(265.3 39.175)" fill="#e13c56"/>
            <path id="Trazado_229887" data-name="Trazado 229887" d="M260.071,36.579a3.776,3.776,0,0,0-3.352,3.787v6.047a3.728,3.728,0,0,1-1.943,3.263,3.592,3.592,0,0,0,1.4.439,3.728,3.728,0,0,0,4.083-3.7V40.366a3.84,3.84,0,0,1,1.953-3.35A3.7,3.7,0,0,0,260.071,36.579Z" transform="translate(272.993 39.175)" fill="#e13c56"/>
            <path id="Trazado_229888" data-name="Trazado 229888" d="M245.711,36.579a3.776,3.776,0,0,0-3.352,3.787v6.047a3.728,3.728,0,0,1-1.943,3.263,3.592,3.592,0,0,0,1.4.439,3.728,3.728,0,0,0,4.083-3.7V40.366a3.84,3.84,0,0,1,1.953-3.35,3.7,3.7,0,0,0-2.142-.437" transform="translate(257.606 39.175)" fill="#e13c56"/>
            <path id="Trazado_229889" data-name="Trazado 229889" d="M243.624,34.447a3.839,3.839,0,0,1,1.775-3.242,3.69,3.69,0,0,0-4.468.431,1.78,1.78,0,0,1-2.4,0,3.69,3.69,0,0,0-2.929-.967,3.772,3.772,0,0,0-3.3,3.778V52.666a3.776,3.776,0,0,0,3.352,3.787,3.729,3.729,0,0,0,4.085-3.7V46.7a3.776,3.776,0,0,1,3.352-3.787,3.98,3.98,0,0,1,.543-.012Z" transform="translate(248.903 32.836)" fill="#e13c56"/>
            <path id="Trazado_229890" data-name="Trazado 229890" d="M256.01,21l-3.662-4.313a1.1,1.1,0,0,0-1.678,0L247.007,21a5.905,5.905,0,1,0,9,0" transform="translate(263.152 17.459)" fill="#ffd866"/>
            <path id="Trazado_229891" data-name="Trazado 229891" d="M250.373,21l2.819-3.319-.845-.994a1.1,1.1,0,0,0-1.678,0L247.007,21a5.905,5.905,0,0,0,4.5,9.728,6.07,6.07,0,0,0,1.684-.236A5.914,5.914,0,0,1,250.373,21" transform="translate(263.152 17.459)" fill="#ffc150"/>
            <path id="Trazado_229892" data-name="Trazado 229892" d="M252.533,22.038l-1.978-2.33a.6.6,0,0,0-.907,0l-1.978,2.33a3.19,3.19,0,1,0,4.864,0" transform="translate(264.56 20.891)" fill="#fda42f"/>
            <path id="Trazado_229893" data-name="Trazado 229893" d="M251.036,22.038l.748-.882-1.228-1.448a.6.6,0,0,0-.907,0l-1.978,2.33a3.2,3.2,0,0,0,4.114,4.783,3.2,3.2,0,0,1-.748-4.783" transform="translate(264.559 20.891)" fill="#f9940b"/>
            <rect id="Rectángulo_58637" data-name="Rectángulo 58637" width="37.855" height="67.307" transform="translate(259.711 46.066)" fill="#e7502f"/>
            <rect id="Rectángulo_58638" data-name="Rectángulo 58638" width="18.88" height="67.307" transform="translate(278.686 46.066)" fill="#9f3a25"/>
            <rect id="Rectángulo_58639" data-name="Rectángulo 58639" width="57.244" height="48.359" transform="translate(276.637 69.17)" fill="#ffd200"/>
            <rect id="Rectángulo_58640" data-name="Rectángulo 58640" width="28.676" height="48.359" transform="translate(305.205 69.17)" fill="#ffb000"/>
            <path id="Trazado_229894" data-name="Trazado 229894" d="M149.555,31.576H145.4v-5.84a5.761,5.761,0,1,0-11.522,0v5.84h-4.153v-5.84a9.915,9.915,0,1,1,19.83,0Z" transform="translate(139 16.95)" fill="#d9d9d9"/>
            <path id="Trazado_229895" data-name="Trazado 229895" d="M134.533,15.821v4.155a5.765,5.765,0,0,1,5.713,5.759v5.84H144.4v-5.84a9.925,9.925,0,0,0-9.869-9.914" transform="translate(144.152 16.951)" fill="#b5b4b4"/>
            <path id="Trazado_229896" data-name="Trazado 229896" d="M144.457,50.18H140.3V40.832a14.625,14.625,0,0,1,29.25,0V50.18H165.4V40.832a10.469,10.469,0,0,0-20.939,0Z" transform="translate(150.334 28.082)" fill="#d9d9d9"/>
            <path id="Trazado_229897" data-name="Trazado 229897" d="M147.39,26.209l-.056,0v4.153h.056a10.481,10.481,0,0,1,10.469,10.469V50.18h4.155V40.834A14.641,14.641,0,0,0,147.39,26.209" transform="translate(157.869 28.082)" fill="#b5b4b4"/>
            <path id="Trazado_229898" data-name="Trazado 229898" d="M162.9,39.278l-8.5,5.744V65.377H171.4V45.022Zm0,8.578a2.063,2.063,0,1,1,2.063-2.063,2.063,2.063,0,0,1-2.063,2.063" transform="translate(165.443 42.086)" fill="#e7502f"/>
            <path id="Trazado_229899" data-name="Trazado 229899" d="M167.024,45.024l-8.5-5.746-.041.029v4.427l.041,0a2.063,2.063,0,0,1,0,4.126l-.041,0V65.379h8.539Z" transform="translate(169.817 42.086)" fill="#9f3a25"/>
            <rect id="Rectángulo_58641" data-name="Rectángulo 58641" width="3.178" height="17.993" transform="translate(326.753 69.17)" fill="#fff"/>
            <rect id="Rectángulo_58642" data-name="Rectángulo 58642" width="1.63" height="17.993" transform="translate(328.3 69.17)" fill="#d9d9d9"/>
            <path id="Trazado_229900" data-name="Trazado 229900" d="M131.6,30.885l-7.921,5.355V55.207H139.52V36.24Zm0,7.994a1.922,1.922,0,1,1,1.92-1.922,1.922,1.922,0,0,1-1.92,1.922" transform="translate(132.522 33.093)" fill="#ffe7a2"/>
            <path id="Trazado_229901" data-name="Trazado 229901" d="M135.536,36.239l-7.919-5.355-.222.151v4.013a1.959,1.959,0,0,1,.222-.014,1.922,1.922,0,0,1,0,3.845,1.961,1.961,0,0,1-.222-.012V55.208h8.141Z" transform="translate(136.504 33.091)" fill="#ffce4b"/>
            <rect id="Rectángulo_58643" data-name="Rectángulo 58643" width="2.689" height="23.317" transform="translate(262.776 46.066)" fill="#ffd200"/>
            <rect id="Rectángulo_58644" data-name="Rectángulo 58644" width="1.568" height="23.317" transform="translate(263.899 46.066)" fill="#ffb000"/>
            <path id="Trazado_229902" data-name="Trazado 229902" d="M65.9,31.346a26.88,26.88,0,0,1-5.869,4.611q-.808.494-1.694.992a73.815,73.815,0,0,1-7.024,3.414c-.766.327-1.467.613-2.072.853-1.427.566-2.337.885-2.391.9a1.217,1.217,0,0,1-1.607-1,16.836,16.836,0,0,1,.06-4.572,1.218,1.218,0,1,1,2.409.36,14.553,14.553,0,0,0-.162,2.351c.247-.093.52-.2.818-.317.584-.234,1.255-.51,1.989-.82a71.118,71.118,0,0,0,6.79-3.3c.508-.284,1.059-.6,1.628-.955,3.71-2.287,8.2-5.846,6.908-9.1a3.846,3.846,0,0,0-3.308-2.652C58.811,21.74,53.755,25,50.6,29.7l-.94,1.6a1.218,1.218,0,1,1-2.1-1.235l.959-1.628.037-.058c3.679-5.508,9.6-9.16,14.078-8.684a6.274,6.274,0,0,1,5.313,4.174C68.9,26.277,68.212,28.792,65.9,31.346Z" transform="translate(48.341 21.058)" fill="#cf465b"/>
            <path id="Trazado_229903" data-name="Trazado 229903" d="M46.451,42.185a1.215,1.215,0,0,1-1.208-1.065,16.672,16.672,0,0,1,.06-4.572,1.218,1.218,0,1,1,2.409.36,14.562,14.562,0,0,0-.162,2.353c.737-.284,1.7-.669,2.807-1.139a71.336,71.336,0,0,0,6.788-3.3c3.828-2.144,10.026-6.3,8.537-10.057a3.847,3.847,0,0,0-3.306-2.652C58.81,21.739,53.754,25,50.6,29.7l-.943,1.6a1.218,1.218,0,0,1-2.1-1.237l.959-1.628.037-.058c3.679-5.506,9.6-9.158,14.078-8.684a6.273,6.273,0,0,1,5.313,4.176c.955,2.405.265,4.92-2.047,7.474a30.159,30.159,0,0,1-7.563,5.6,72.833,72.833,0,0,1-7.024,3.414c-2.571,1.1-4.387,1.73-4.462,1.755a1.21,1.21,0,0,1-.4.068" transform="translate(48.341 21.057)" fill="#cf465b"/>
            <path id="Trazado_229904" data-name="Trazado 229904" d="M89.166,58.568a6,6,0,0,0,1.313-2.678C91.2,52.379,92.19,43.328,87.394,30.3a6,6,0,0,0-3.563-3.563c-13.032-4.8-22.082-3.805-25.591-3.082a5.938,5.938,0,0,0-2.678,1.313A327.61,327.61,0,0,0,18.27,61.878a6,6,0,0,0-.182,7.65A161.212,161.212,0,0,0,44.6,96.04a6,6,0,0,0,7.65-.182A327.777,327.777,0,0,0,89.166,58.568Zm-15.706-17.9a4.712,4.712,0,1,1,6.664,0,4.713,4.713,0,0,1-6.664,0" transform="translate(18.002 24.689)" fill="#ffc450"/>
            <path id="Trazado_229905" data-name="Trazado 229905" d="M58.24,23.649a5.959,5.959,0,0,0-2.678,1.313A327.781,327.781,0,0,0,18.27,61.877a6,6,0,0,0-.182,7.652c.137.172.273.342.408.512a6.357,6.357,0,0,1,1.636-5.274A398.084,398.084,0,0,1,58.226,27a6.863,6.863,0,0,1,2.627-1.454,40.318,40.318,0,0,1,17.046-.69c-9.848-2.608-16.709-1.813-19.659-1.206" transform="translate(18.002 24.688)" fill="#ffb23c"/>
            <path id="Trazado_229906" data-name="Trazado 229906" d="M26.575,53.711a2.367,2.367,0,0,1,.779-3.863l29.117-11.9a2.366,2.366,0,0,1,1.79,4.381l-29.115,11.9a2.369,2.369,0,0,1-2.571-.518" transform="translate(27.733 40.469)" fill="#cf465b"/>
            <path id="Trazado_229907" data-name="Trazado 229907" d="M31.793,45.155c-3.018-3.02-2.743-8.209.617-11.569s8.549-3.638,11.569-.617,2.743,8.209-.617,11.569-8.549,3.638-11.569.617m8.839-8.839c-1.154-1.154-3.387-.872-4.874.617s-1.771,3.72-.617,4.874,3.387.872,4.874-.615,1.771-3.722.617-4.876" transform="translate(31.821 33.079)" fill="#cf465b"/>
            <path id="Trazado_229908" data-name="Trazado 229908" d="M32.251,59.151c-3.02-3.02-2.743-8.211.617-11.569s8.549-3.638,11.569-.617,2.743,8.209-.617,11.569-8.549,3.635-11.569.617m8.839-8.839c-1.154-1.154-3.387-.872-4.874.615S34.445,54.649,35.6,55.8s3.387.872,4.876-.617,1.769-3.72.615-4.874" transform="translate(32.312 48.076)" fill="#cf465b"/>
            <path id="Trazado_229909" data-name="Trazado 229909" d="M48.826,38.936A5.927,5.927,0,1,1,53.018,37.2a5.911,5.911,0,0,1-4.193,1.734m0-9.421A3.495,3.495,0,1,0,51.3,30.538,3.469,3.469,0,0,0,48.826,29.515Z" transform="translate(45.966 29.017)" fill="#ffb23c"/>
            <path id="Trazado_229910" data-name="Trazado 229910" d="M58.349,28.6q-.808.5-1.694.994a74.061,74.061,0,0,1-7.024,3.414c-.766.327-1.467.613-2.074.853a5.983,5.983,0,0,1-.87-2.275c.584-.234,1.255-.508,1.989-.82a71.129,71.129,0,0,0,6.79-3.3c.508-.286,1.059-.6,1.626-.957A5.98,5.98,0,0,1,58.349,28.6" transform="translate(50.024 28.41)" fill="#cf465b"/>
          </g>
        </g>
      </g>
      <line id="Línea_1810" data-name="Línea 1810" x2="196.399" transform="translate(-5191.199 -7076.779)" fill="none" stroke="#88bae6" stroke-miterlimit="10" stroke-width="2" stroke-dasharray="4.034 4.034"/>
      <line id="Línea_1811" data-name="Línea 1811" x2="196.399" transform="translate(-4973.978 -7076.779)" fill="none" stroke="#88bae6" stroke-miterlimit="10" stroke-width="2" stroke-dasharray="4.034 4.034"/>
    </g>
  </g>
</svg>
