<svg xmlns="http://www.w3.org/2000/svg" xmlns:xlink="http://www.w3.org/1999/xlink" width="196.249" height="188.762" viewBox="0 0 196.249 188.762">
  <defs>
    <clipPath id="clip-path">
      <rect id="Rectángulo_52193" data-name="Rectángulo 52193" width="190.835" height="162.002" fill="#ece5f7"/>
    </clipPath>
    <clipPath id="clip-path-2">
      <rect id="Rectángulo_55065" data-name="Rectángulo 55065" width="102.047" height="166.425" fill="none"/>
    </clipPath>
    <clipPath id="clip-path-3">
      <rect id="Rectángulo_57414" data-name="Rectángulo 57414" width="91.943" height="89.313" fill="none"/>
    </clipPath>
  </defs>
  <g id="Grupo_181351" data-name="Grupo 181351" transform="translate(-912 -4204.304)">
    <g id="Grupo_177354" data-name="Grupo 177354" transform="translate(725.007 -595.544)">
      <g id="Grupo_169303" data-name="Grupo 169303" transform="translate(192.407 4799.848)">
        <g id="Grupo_168636" data-name="Grupo 168636" transform="translate(0 0)" clip-path="url(#clip-path)">
          <path id="Trazado_211592" data-name="Trazado 211592" d="M141.129,136.942S241.7,61.516,173.666,41.551,35.385-27.959,16.9,20.846s31.8,69.51,8.134,96.131,29.579,74.686,116.1,19.966" transform="translate(-6.45 0)" fill="#ece5f7"/>
        </g>
      </g>
      <g id="Grupo_169306" data-name="Grupo 169306" transform="translate(229.524 4988.609) rotate(-90)">
        <circle id="Elipse_5566" data-name="Elipse 5566" cx="32.745" cy="32.745" r="32.745" transform="translate(58.474 46.308) rotate(-45)" fill="#def2f4"/>
        <ellipse id="Elipse_5567" data-name="Elipse 5567" cx="52.584" cy="52.584" rx="52.584" ry="52.584" transform="translate(0 54.134) rotate(-22.5)" fill="#fff"/>
        <g id="Grupo_152550" data-name="Grupo 152550" transform="translate(4.31 6.644)">
          <ellipse id="Elipse_5568" data-name="Elipse 5568" cx="0.037" cy="0.037" rx="0.037" ry="0.037" transform="translate(33.64 106.476)" fill="#e8e8e8"/>
          <path id="Trazado_193815" data-name="Trazado 193815" d="M.312,0A.312.312,0,1,1,0,.312.312.312,0,0,1,.312,0Z" transform="translate(39.986 106.201)" fill="#e8e8e8"/>
          <path id="Trazado_193816" data-name="Trazado 193816" d="M.533,0A.533.533,0,1,1,0,.533.534.534,0,0,1,.533,0Z" transform="translate(46.387 105.98)" fill="#e8e8e8"/>
          <ellipse id="Elipse_5569" data-name="Elipse 5569" cx="0.569" cy="0.569" rx="0.569" ry="0.569" transform="translate(52.972 105.943)" fill="#e8e8e8"/>
          <path id="Trazado_193817" data-name="Trazado 193817" d="M.533,0A.533.533,0,1,1,0,.533.533.533,0,0,1,.533,0Z" transform="translate(59.63 105.98)" fill="#e8e8e8"/>
          <path id="Trazado_193818" data-name="Trazado 193818" d="M.293,0A.293.293,0,1,1,0,.293.293.293,0,0,1,.293,0Z" transform="translate(66.49 106.219)" fill="#e8e8e8"/>
          <ellipse id="Elipse_5570" data-name="Elipse 5570" cx="0.018" cy="0.018" rx="0.018" ry="0.018" transform="translate(73.387 106.494)" fill="#e8e8e8"/>
          <ellipse id="Elipse_5571" data-name="Elipse 5571" cx="0.018" cy="0.018" rx="0.018" ry="0.018" transform="translate(20.415 99.873)" fill="#e8e8e8"/>
          <path id="Trazado_193819" data-name="Trazado 193819" d="M.551,0A.551.551,0,1,1,0,.551.551.551,0,0,1,.551,0Z" transform="translate(26.504 99.34)" fill="#e8e8e8"/>
          <path id="Trazado_193820" data-name="Trazado 193820" d="M1.121,0A1.121,1.121,0,1,1,0,1.121,1.121,1.121,0,0,1,1.121,0Z" transform="translate(32.556 98.77)" fill="#e8e8e8"/>
          <ellipse id="Elipse_5572" data-name="Elipse 5572" cx="1.249" cy="1.249" rx="1.249" ry="1.249" transform="translate(39.049 98.643)" fill="#e8e8e8"/>
          <ellipse id="Elipse_5573" data-name="Elipse 5573" cx="1.249" cy="1.249" rx="1.249" ry="1.249" transform="translate(45.671 98.643)" fill="#e8e8e8"/>
          <path id="Trazado_193821" data-name="Trazado 193821" d="M1.249,0A1.249,1.249,0,1,1,0,1.249,1.249,1.249,0,0,1,1.249,0Z" transform="translate(52.292 98.642)" fill="#e8e8e8"/>
          <path id="Trazado_193822" data-name="Trazado 193822" d="M1.249,0A1.249,1.249,0,1,1,0,1.249,1.249,1.249,0,0,1,1.249,0Z" transform="translate(58.914 98.642)" fill="#e8e8e8"/>
          <path id="Trazado_193823" data-name="Trazado 193823" d="M1.249,0A1.249,1.249,0,1,1,0,1.249,1.249,1.249,0,0,1,1.249,0Z" transform="translate(65.535 98.642)" fill="#e8e8e8"/>
          <path id="Trazado_193824" data-name="Trazado 193824" d="M1.1,0A1.1,1.1,0,1,1,0,1.1,1.1,1.1,0,0,1,1.1,0Z" transform="translate(72.303 98.789)" fill="#e8e8e8"/>
          <path id="Trazado_193825" data-name="Trazado 193825" d="M.514,0A.514.514,0,1,1,0,.514.514.514,0,0,1,.514,0Z" transform="translate(79.512 99.377)" fill="#e8e8e8"/>
          <ellipse id="Elipse_5574" data-name="Elipse 5574" cx="0.018" cy="0.018" rx="0.018" ry="0.018" transform="translate(86.63 99.873)" fill="#e8e8e8"/>
          <path id="Trazado_193826" data-name="Trazado 193826" d="M.093,0A.091.091,0,0,1,.184.091.092.092,0,1,1,.093,0Z" transform="translate(13.72 93.178)" fill="#e8e8e8"/>
          <path id="Trazado_193827" data-name="Trazado 193827" d="M.9,0A.9.9,0,1,1,0,.9.9.9,0,0,1,.9,0Z" transform="translate(19.534 92.37)" fill="#e8e8e8"/>
          <ellipse id="Elipse_5575" data-name="Elipse 5575" cx="1.249" cy="1.249" rx="1.249" ry="1.249" transform="translate(25.806 92.021)" fill="#e8e8e8"/>
          <ellipse id="Elipse_5576" data-name="Elipse 5576" cx="1.249" cy="1.249" rx="1.249" ry="1.249" transform="translate(32.428 92.021)" fill="#e8e8e8"/>
          <ellipse id="Elipse_5577" data-name="Elipse 5577" cx="1.249" cy="1.249" rx="1.249" ry="1.249" transform="translate(39.049 92.021)" fill="#e8e8e8"/>
          <ellipse id="Elipse_5578" data-name="Elipse 5578" cx="1.249" cy="1.249" rx="1.249" ry="1.249" transform="translate(45.671 92.021)" fill="#e8e8e8"/>
          <path id="Trazado_193828" data-name="Trazado 193828" d="M1.249,0A1.249,1.249,0,1,1,0,1.249,1.249,1.249,0,0,1,1.249,0Z" transform="translate(52.292 92.021)" fill="#e8e8e8"/>
          <path id="Trazado_193829" data-name="Trazado 193829" d="M1.249,0A1.249,1.249,0,1,1,0,1.249,1.249,1.249,0,0,1,1.249,0Z" transform="translate(58.914 92.021)" fill="#e8e8e8"/>
          <path id="Trazado_193830" data-name="Trazado 193830" d="M1.249,0A1.249,1.249,0,1,1,0,1.249,1.249,1.249,0,0,1,1.249,0Z" transform="translate(65.535 92.021)" fill="#e8e8e8"/>
          <path id="Trazado_193831" data-name="Trazado 193831" d="M1.249,0A1.249,1.249,0,1,1,0,1.249,1.249,1.249,0,0,1,1.249,0Z" transform="translate(72.156 92.021)" fill="#e8e8e8"/>
          <path id="Trazado_193832" data-name="Trazado 193832" d="M1.249,0A1.249,1.249,0,1,1,0,1.249,1.249,1.249,0,0,1,1.249,0Z" transform="translate(78.778 92.021)" fill="#e8e8e8"/>
          <path id="Trazado_193833" data-name="Trazado 193833" d="M.881,0A.881.881,0,1,1,0,.881.881.881,0,0,1,.881,0Z" transform="translate(85.766 92.388)" fill="#e8e8e8"/>
          <path id="Trazado_193834" data-name="Trazado 193834" d="M.054,0a.056.056,0,1,1,0,.111A.056.056,0,0,1,.054,0Z" transform="translate(93.215 93.214)" fill="#e8e8e8"/>
          <ellipse id="Elipse_5579" data-name="Elipse 5579" cx="0.018" cy="0.018" rx="0.018" ry="0.018" transform="translate(7.172 86.63)" fill="#e8e8e8"/>
          <path id="Trazado_193835" data-name="Trazado 193835" d="M.9,0A.9.9,0,1,1,0,.9.9.9,0,0,1,.9,0Z" transform="translate(12.913 85.748)" fill="#e8e8e8"/>
          <ellipse id="Elipse_5580" data-name="Elipse 5580" cx="1.249" cy="1.249" rx="1.249" ry="1.249" transform="translate(19.185 85.4)" fill="#e8e8e8"/>
          <ellipse id="Elipse_5581" data-name="Elipse 5581" cx="1.249" cy="1.249" rx="1.249" ry="1.249" transform="translate(25.806 85.4)" fill="#e8e8e8"/>
          <ellipse id="Elipse_5582" data-name="Elipse 5582" cx="1.249" cy="1.249" rx="1.249" ry="1.249" transform="translate(32.428 85.4)" fill="#e8e8e8"/>
          <ellipse id="Elipse_5583" data-name="Elipse 5583" cx="1.249" cy="1.249" rx="1.249" ry="1.249" transform="translate(39.049 85.4)" fill="#e8e8e8"/>
          <ellipse id="Elipse_5584" data-name="Elipse 5584" cx="1.249" cy="1.249" rx="1.249" ry="1.249" transform="translate(45.671 85.4)" fill="#e8e8e8"/>
          <path id="Trazado_193836" data-name="Trazado 193836" d="M1.249,0A1.249,1.249,0,1,1,0,1.249,1.249,1.249,0,0,1,1.249,0Z" transform="translate(52.292 85.399)" fill="#e8e8e8"/>
          <path id="Trazado_193837" data-name="Trazado 193837" d="M1.249,0A1.249,1.249,0,1,1,0,1.249,1.249,1.249,0,0,1,1.249,0Z" transform="translate(58.914 85.399)" fill="#e8e8e8"/>
          <path id="Trazado_193838" data-name="Trazado 193838" d="M1.249,0A1.249,1.249,0,1,1,0,1.249,1.249,1.249,0,0,1,1.249,0Z" transform="translate(65.535 85.399)" fill="#e8e8e8"/>
          <path id="Trazado_193839" data-name="Trazado 193839" d="M1.249,0A1.249,1.249,0,1,1,0,1.249,1.249,1.249,0,0,1,1.249,0Z" transform="translate(72.156 85.399)" fill="#e8e8e8"/>
          <path id="Trazado_193840" data-name="Trazado 193840" d="M1.249,0A1.249,1.249,0,1,1,0,1.249,1.249,1.249,0,0,1,1.249,0Z" transform="translate(78.778 85.399)" fill="#e8e8e8"/>
          <path id="Trazado_193841" data-name="Trazado 193841" d="M1.249,0A1.249,1.249,0,1,1,0,1.249,1.249,1.249,0,0,1,1.249,0Z" transform="translate(85.399 85.399)" fill="#e8e8e8"/>
          <path id="Trazado_193842" data-name="Trazado 193842" d="M.881,0A.881.881,0,1,1,0,.881.881.881,0,0,1,.881,0Z" transform="translate(92.388 85.767)" fill="#e8e8e8"/>
          <ellipse id="Elipse_5585" data-name="Elipse 5585" cx="0.018" cy="0.018" rx="0.018" ry="0.018" transform="translate(99.873 86.63)" fill="#e8e8e8"/>
          <path id="Trazado_193843" data-name="Trazado 193843" d="M.551,0A.551.551,0,1,1,0,.551.55.55,0,0,1,.551,0Z" transform="translate(6.64 79.476)" fill="#e8e8e8"/>
          <ellipse id="Elipse_5586" data-name="Elipse 5586" cx="1.249" cy="1.249" rx="1.249" ry="1.249" transform="translate(12.564 78.778)" fill="#e8e8e8"/>
          <ellipse id="Elipse_5587" data-name="Elipse 5587" cx="1.249" cy="1.249" rx="1.249" ry="1.249" transform="translate(19.185 78.778)" fill="#e8e8e8"/>
          <ellipse id="Elipse_5588" data-name="Elipse 5588" cx="1.249" cy="1.249" rx="1.249" ry="1.249" transform="translate(25.806 78.778)" fill="#e8e8e8"/>
          <ellipse id="Elipse_5589" data-name="Elipse 5589" cx="1.249" cy="1.249" rx="1.249" ry="1.249" transform="translate(32.428 78.778)" fill="#e8e8e8"/>
          <ellipse id="Elipse_5590" data-name="Elipse 5590" cx="1.249" cy="1.249" rx="1.249" ry="1.249" transform="translate(39.049 78.778)" fill="#e8e8e8"/>
          <ellipse id="Elipse_5591" data-name="Elipse 5591" cx="1.249" cy="1.249" rx="1.249" ry="1.249" transform="translate(45.671 78.778)" fill="#e8e8e8"/>
          <path id="Trazado_193844" data-name="Trazado 193844" d="M1.249,0A1.249,1.249,0,1,1,0,1.249,1.249,1.249,0,0,1,1.249,0Z" transform="translate(52.292 78.778)" fill="#e8e8e8"/>
          <path id="Trazado_193845" data-name="Trazado 193845" d="M1.249,0A1.249,1.249,0,1,1,0,1.249,1.249,1.249,0,0,1,1.249,0Z" transform="translate(58.914 78.778)" fill="#e8e8e8"/>
          <path id="Trazado_193846" data-name="Trazado 193846" d="M1.249,0A1.249,1.249,0,1,1,0,1.249,1.249,1.249,0,0,1,1.249,0Z" transform="translate(65.535 78.778)" fill="#e8e8e8"/>
          <path id="Trazado_193847" data-name="Trazado 193847" d="M1.249,0A1.249,1.249,0,1,1,0,1.249,1.249,1.249,0,0,1,1.249,0Z" transform="translate(72.156 78.778)" fill="#e8e8e8"/>
          <path id="Trazado_193848" data-name="Trazado 193848" d="M1.249,0A1.249,1.249,0,1,1,0,1.249,1.249,1.249,0,0,1,1.249,0Z" transform="translate(78.778 78.778)" fill="#e8e8e8"/>
          <path id="Trazado_193849" data-name="Trazado 193849" d="M1.249,0A1.249,1.249,0,1,1,0,1.249,1.249,1.249,0,0,1,1.249,0Z" transform="translate(85.399 78.778)" fill="#e8e8e8"/>
          <path id="Trazado_193850" data-name="Trazado 193850" d="M1.249,0A1.249,1.249,0,1,1,0,1.249,1.249,1.249,0,0,1,1.249,0Z" transform="translate(92.02 78.778)" fill="#e8e8e8"/>
          <path id="Trazado_193851" data-name="Trazado 193851" d="M.514,0A.514.514,0,1,1,0,.514.514.514,0,0,1,.514,0Z" transform="translate(99.377 79.513)" fill="#e8e8e8"/>
          <ellipse id="Elipse_5592" data-name="Elipse 5592" cx="0.037" cy="0.037" rx="0.037" ry="0.037" transform="translate(0.532 73.369)" fill="#e8e8e8"/>
          <path id="Trazado_193852" data-name="Trazado 193852" d="M1.1,0A1.1,1.1,0,1,1,0,1.1,1.1,1.1,0,0,1,1.1,0Z" transform="translate(6.089 72.303)" fill="#e8e8e8"/>
          <ellipse id="Elipse_5593" data-name="Elipse 5593" cx="1.249" cy="1.249" rx="1.249" ry="1.249" transform="translate(12.564 72.157)" fill="#e8e8e8"/>
          <ellipse id="Elipse_5594" data-name="Elipse 5594" cx="1.249" cy="1.249" rx="1.249" ry="1.249" transform="translate(19.185 72.157)" fill="#e8e8e8"/>
          <ellipse id="Elipse_5595" data-name="Elipse 5595" cx="1.249" cy="1.249" rx="1.249" ry="1.249" transform="translate(25.806 72.157)" fill="#e8e8e8"/>
          <ellipse id="Elipse_5596" data-name="Elipse 5596" cx="1.249" cy="1.249" rx="1.249" ry="1.249" transform="translate(32.428 72.157)" fill="#e8e8e8"/>
          <ellipse id="Elipse_5597" data-name="Elipse 5597" cx="1.249" cy="1.249" rx="1.249" ry="1.249" transform="translate(39.049 72.157)" fill="#e8e8e8"/>
          <ellipse id="Elipse_5598" data-name="Elipse 5598" cx="1.249" cy="1.249" rx="1.249" ry="1.249" transform="translate(45.671 72.157)" fill="#e8e8e8"/>
          <path id="Trazado_193853" data-name="Trazado 193853" d="M1.249,0A1.249,1.249,0,1,1,0,1.249,1.249,1.249,0,0,1,1.249,0Z" transform="translate(52.292 72.157)" fill="#e8e8e8"/>
          <path id="Trazado_193854" data-name="Trazado 193854" d="M1.249,0A1.249,1.249,0,1,1,0,1.249,1.249,1.249,0,0,1,1.249,0Z" transform="translate(58.914 72.157)" fill="#e8e8e8"/>
          <path id="Trazado_193855" data-name="Trazado 193855" d="M1.249,0A1.249,1.249,0,1,1,0,1.249,1.249,1.249,0,0,1,1.249,0Z" transform="translate(65.535 72.157)" fill="#e8e8e8"/>
          <path id="Trazado_193856" data-name="Trazado 193856" d="M1.249,0A1.249,1.249,0,1,1,0,1.249,1.249,1.249,0,0,1,1.249,0Z" transform="translate(72.156 72.157)" fill="#e8e8e8"/>
          <path id="Trazado_193857" data-name="Trazado 193857" d="M1.249,0A1.249,1.249,0,1,1,0,1.249,1.249,1.249,0,0,1,1.249,0Z" transform="translate(78.778 72.157)" fill="#e8e8e8"/>
          <path id="Trazado_193858" data-name="Trazado 193858" d="M1.249,0A1.249,1.249,0,1,1,0,1.249,1.249,1.249,0,0,1,1.249,0Z" transform="translate(85.399 72.157)" fill="#e8e8e8"/>
          <path id="Trazado_193859" data-name="Trazado 193859" d="M1.249,0A1.249,1.249,0,1,1,0,1.249,1.249,1.249,0,0,1,1.249,0Z" transform="translate(92.02 72.157)" fill="#e8e8e8"/>
          <path id="Trazado_193860" data-name="Trazado 193860" d="M1.082,0A1.084,1.084,0,1,1,0,1.084,1.083,1.083,0,0,1,1.082,0Z" transform="translate(98.808 72.322)" fill="#e8e8e8"/>
          <ellipse id="Elipse_5599" data-name="Elipse 5599" cx="0.037" cy="0.037" rx="0.037" ry="0.037" transform="translate(106.476 73.369)" fill="#e8e8e8"/>
          <ellipse id="Elipse_5600" data-name="Elipse 5600" cx="0.312" cy="0.312" rx="0.312" ry="0.312" transform="translate(0.257 66.472)" fill="#e8e8e8"/>
          <ellipse id="Elipse_5601" data-name="Elipse 5601" cx="1.249" cy="1.249" rx="1.249" ry="1.249" transform="translate(5.942 65.535)" fill="#e8e8e8"/>
          <ellipse id="Elipse_5602" data-name="Elipse 5602" cx="1.249" cy="1.249" rx="1.249" ry="1.249" transform="translate(12.564 65.535)" fill="#e8e8e8"/>
          <ellipse id="Elipse_5603" data-name="Elipse 5603" cx="1.249" cy="1.249" rx="1.249" ry="1.249" transform="translate(19.185 65.535)" fill="#e8e8e8"/>
          <ellipse id="Elipse_5604" data-name="Elipse 5604" cx="1.249" cy="1.249" rx="1.249" ry="1.249" transform="translate(25.806 65.535)" fill="#e8e8e8"/>
          <ellipse id="Elipse_5605" data-name="Elipse 5605" cx="1.249" cy="1.249" rx="1.249" ry="1.249" transform="translate(32.428 65.535)" fill="#e8e8e8"/>
          <ellipse id="Elipse_5606" data-name="Elipse 5606" cx="1.249" cy="1.249" rx="1.249" ry="1.249" transform="translate(39.049 65.535)" fill="#e8e8e8"/>
          <ellipse id="Elipse_5607" data-name="Elipse 5607" cx="1.249" cy="1.249" rx="1.249" ry="1.249" transform="translate(45.671 65.535)" fill="#e8e8e8"/>
          <path id="Trazado_193861" data-name="Trazado 193861" d="M1.249,0A1.249,1.249,0,1,1,0,1.249,1.249,1.249,0,0,1,1.249,0Z" transform="translate(52.292 65.535)" fill="#e8e8e8"/>
          <path id="Trazado_193862" data-name="Trazado 193862" d="M1.249,0A1.249,1.249,0,1,1,0,1.249,1.249,1.249,0,0,1,1.249,0Z" transform="translate(58.914 65.535)" fill="#e8e8e8"/>
          <path id="Trazado_193863" data-name="Trazado 193863" d="M1.249,0A1.249,1.249,0,1,1,0,1.249,1.249,1.249,0,0,1,1.249,0Z" transform="translate(65.535 65.535)" fill="#e8e8e8"/>
          <path id="Trazado_193864" data-name="Trazado 193864" d="M1.249,0A1.249,1.249,0,1,1,0,1.249,1.249,1.249,0,0,1,1.249,0Z" transform="translate(72.156 65.535)" fill="#e8e8e8"/>
          <path id="Trazado_193865" data-name="Trazado 193865" d="M1.249,0A1.249,1.249,0,1,1,0,1.249,1.249,1.249,0,0,1,1.249,0Z" transform="translate(78.778 65.535)" fill="#e8e8e8"/>
          <path id="Trazado_193866" data-name="Trazado 193866" d="M1.249,0A1.249,1.249,0,1,1,0,1.249,1.249,1.249,0,0,1,1.249,0Z" transform="translate(85.399 65.535)" fill="#e8e8e8"/>
          <path id="Trazado_193867" data-name="Trazado 193867" d="M1.249,0A1.249,1.249,0,1,1,0,1.249,1.249,1.249,0,0,1,1.249,0Z" transform="translate(92.02 65.535)" fill="#e8e8e8"/>
          <path id="Trazado_193868" data-name="Trazado 193868" d="M1.247,0A1.249,1.249,0,1,1,0,1.249,1.248,1.248,0,0,1,1.247,0Z" transform="translate(98.643 65.535)" fill="#e8e8e8"/>
          <ellipse id="Elipse_5608" data-name="Elipse 5608" cx="0.275" cy="0.275" rx="0.275" ry="0.275" transform="translate(106.237 66.508)" fill="#e8e8e8"/>
          <path id="Trazado_193869" data-name="Trazado 193869" d="M.533,0A.533.533,0,1,1,0,.533.533.533,0,0,1,.533,0Z" transform="translate(0.037 59.63)" fill="#e8e8e8"/>
          <path id="Trazado_193870" data-name="Trazado 193870" d="M1.249,0A1.249,1.249,0,1,1,0,1.249,1.247,1.247,0,0,1,1.249,0Z" transform="translate(5.942 58.914)" fill="#e8e8e8"/>
          <path id="Trazado_193871" data-name="Trazado 193871" d="M1.249,0A1.249,1.249,0,1,1,0,1.249,1.247,1.247,0,0,1,1.249,0Z" transform="translate(12.564 58.914)" fill="#e8e8e8"/>
          <path id="Trazado_193872" data-name="Trazado 193872" d="M1.249,0A1.249,1.249,0,1,1,0,1.249,1.247,1.247,0,0,1,1.249,0Z" transform="translate(19.185 58.914)" fill="#e8e8e8"/>
          <path id="Trazado_193873" data-name="Trazado 193873" d="M1.249,0A1.249,1.249,0,1,1,0,1.249,1.247,1.247,0,0,1,1.249,0Z" transform="translate(25.807 58.914)" fill="#e8e8e8"/>
          <path id="Trazado_193874" data-name="Trazado 193874" d="M1.249,0A1.249,1.249,0,1,1,0,1.249,1.248,1.248,0,0,1,1.249,0Z" transform="translate(32.428 58.914)" fill="#e8e8e8"/>
          <path id="Trazado_193875" data-name="Trazado 193875" d="M1.249,0A1.249,1.249,0,1,1,0,1.249,1.248,1.248,0,0,1,1.249,0Z" transform="translate(39.049 58.914)" fill="#e8e8e8"/>
          <path id="Trazado_193876" data-name="Trazado 193876" d="M1.249,0A1.249,1.249,0,1,1,0,1.249,1.248,1.248,0,0,1,1.249,0Z" transform="translate(45.671 58.914)" fill="#e8e8e8"/>
          <path id="Trazado_193877" data-name="Trazado 193877" d="M1.249,0A1.249,1.249,0,1,1,0,1.249,1.248,1.248,0,0,1,1.249,0Z" transform="translate(52.292 58.914)" fill="#e8e8e8"/>
          <path id="Trazado_193878" data-name="Trazado 193878" d="M1.249,0A1.249,1.249,0,1,1,0,1.249,1.248,1.248,0,0,1,1.249,0Z" transform="translate(58.914 58.914)" fill="#e8e8e8"/>
          <path id="Trazado_193879" data-name="Trazado 193879" d="M1.249,0A1.249,1.249,0,1,1,0,1.249,1.248,1.248,0,0,1,1.249,0Z" transform="translate(65.535 58.914)" fill="#e8e8e8"/>
          <path id="Trazado_193880" data-name="Trazado 193880" d="M1.249,0A1.249,1.249,0,1,1,0,1.249,1.248,1.248,0,0,1,1.249,0Z" transform="translate(72.156 58.914)" fill="#e8e8e8"/>
          <path id="Trazado_193881" data-name="Trazado 193881" d="M1.249,0A1.249,1.249,0,1,1,0,1.249,1.248,1.248,0,0,1,1.249,0Z" transform="translate(78.778 58.914)" fill="#e8e8e8"/>
          <path id="Trazado_193882" data-name="Trazado 193882" d="M1.249,0A1.249,1.249,0,1,1,0,1.249,1.248,1.248,0,0,1,1.249,0Z" transform="translate(85.399 58.914)" fill="#e8e8e8"/>
          <path id="Trazado_193883" data-name="Trazado 193883" d="M1.249,0A1.249,1.249,0,1,1,0,1.249,1.248,1.248,0,0,1,1.249,0Z" transform="translate(92.02 58.914)" fill="#e8e8e8"/>
          <path id="Trazado_193884" data-name="Trazado 193884" d="M1.247,0A1.249,1.249,0,1,1,0,1.249,1.248,1.248,0,0,1,1.247,0Z" transform="translate(98.643 58.914)" fill="#e8e8e8"/>
          <path id="Trazado_193885" data-name="Trazado 193885" d="M.514,0A.514.514,0,1,1,0,.514.513.513,0,0,1,.514,0Z" transform="translate(105.998 59.649)" fill="#e8e8e8"/>
          <ellipse id="Elipse_5609" data-name="Elipse 5609" cx="0.569" cy="0.569" rx="0.569" ry="0.569" transform="translate(0 52.972)" fill="#e8e8e8"/>
          <path id="Trazado_193886" data-name="Trazado 193886" d="M1.249,0A1.249,1.249,0,1,1,0,1.249,1.247,1.247,0,0,1,1.249,0Z" transform="translate(5.942 52.293)" fill="#e8e8e8"/>
          <path id="Trazado_193887" data-name="Trazado 193887" d="M1.249,0A1.249,1.249,0,1,1,0,1.249,1.247,1.247,0,0,1,1.249,0Z" transform="translate(12.564 52.293)" fill="#e8e8e8"/>
          <path id="Trazado_193888" data-name="Trazado 193888" d="M1.249,0A1.249,1.249,0,1,1,0,1.249,1.247,1.247,0,0,1,1.249,0Z" transform="translate(19.185 52.293)" fill="#e8e8e8"/>
          <path id="Trazado_193889" data-name="Trazado 193889" d="M1.249,0A1.249,1.249,0,1,1,0,1.249,1.247,1.247,0,0,1,1.249,0Z" transform="translate(25.807 52.293)" fill="#e8e8e8"/>
          <path id="Trazado_193890" data-name="Trazado 193890" d="M1.249,0A1.249,1.249,0,1,1,0,1.249,1.249,1.249,0,0,1,1.249,0Z" transform="translate(32.428 52.293)" fill="#e8e8e8"/>
          <path id="Trazado_193891" data-name="Trazado 193891" d="M1.249,0A1.249,1.249,0,1,1,0,1.249,1.249,1.249,0,0,1,1.249,0Z" transform="translate(39.049 52.293)" fill="#e8e8e8"/>
          <path id="Trazado_193892" data-name="Trazado 193892" d="M1.249,0A1.249,1.249,0,1,1,0,1.249,1.249,1.249,0,0,1,1.249,0Z" transform="translate(45.671 52.293)" fill="#e8e8e8"/>
          <path id="Trazado_193893" data-name="Trazado 193893" d="M1.249,0A1.249,1.249,0,1,1,0,1.249,1.249,1.249,0,0,1,1.249,0Z" transform="translate(52.292 52.293)" fill="#e8e8e8"/>
          <path id="Trazado_193894" data-name="Trazado 193894" d="M1.249,0A1.249,1.249,0,1,1,0,1.249,1.249,1.249,0,0,1,1.249,0Z" transform="translate(58.914 52.293)" fill="#e8e8e8"/>
          <path id="Trazado_193895" data-name="Trazado 193895" d="M1.249,0A1.249,1.249,0,1,1,0,1.249,1.249,1.249,0,0,1,1.249,0Z" transform="translate(65.535 52.293)" fill="#e8e8e8"/>
          <path id="Trazado_193896" data-name="Trazado 193896" d="M1.249,0A1.249,1.249,0,1,1,0,1.249,1.249,1.249,0,0,1,1.249,0Z" transform="translate(72.156 52.293)" fill="#e8e8e8"/>
          <path id="Trazado_193897" data-name="Trazado 193897" d="M1.249,0A1.249,1.249,0,1,1,0,1.249,1.249,1.249,0,0,1,1.249,0Z" transform="translate(78.778 52.293)" fill="#e8e8e8"/>
          <path id="Trazado_193898" data-name="Trazado 193898" d="M1.249,0A1.249,1.249,0,1,1,0,1.249,1.249,1.249,0,0,1,1.249,0Z" transform="translate(85.399 52.293)" fill="#e8e8e8"/>
          <path id="Trazado_193899" data-name="Trazado 193899" d="M1.249,0A1.249,1.249,0,1,1,0,1.249,1.249,1.249,0,0,1,1.249,0Z" transform="translate(92.02 52.293)" fill="#e8e8e8"/>
          <path id="Trazado_193900" data-name="Trazado 193900" d="M1.247,0A1.249,1.249,0,1,1,0,1.249,1.248,1.248,0,0,1,1.247,0Z" transform="translate(98.643 52.293)" fill="#e8e8e8"/>
          <path id="Trazado_193901" data-name="Trazado 193901" d="M.568,0A.569.569,0,1,1,0,.57.569.569,0,0,1,.568,0Z" transform="translate(105.944 52.972)" fill="#e8e8e8"/>
          <path id="Trazado_193902" data-name="Trazado 193902" d="M.533,0A.533.533,0,1,1,0,.533.533.533,0,0,1,.533,0Z" transform="translate(0.037 46.387)" fill="#e8e8e8"/>
          <path id="Trazado_193903" data-name="Trazado 193903" d="M1.249,0A1.248,1.248,0,1,1,0,1.249,1.247,1.247,0,0,1,1.249,0Z" transform="translate(5.942 45.671)" fill="#e8e8e8"/>
          <path id="Trazado_193904" data-name="Trazado 193904" d="M1.249,0A1.248,1.248,0,1,1,0,1.249,1.247,1.247,0,0,1,1.249,0Z" transform="translate(12.564 45.671)" fill="#e8e8e8"/>
          <path id="Trazado_193905" data-name="Trazado 193905" d="M1.249,0A1.248,1.248,0,1,1,0,1.249,1.247,1.247,0,0,1,1.249,0Z" transform="translate(19.185 45.671)" fill="#e8e8e8"/>
          <path id="Trazado_193906" data-name="Trazado 193906" d="M1.249,0A1.248,1.248,0,1,1,0,1.249,1.247,1.247,0,0,1,1.249,0Z" transform="translate(25.807 45.671)" fill="#e8e8e8"/>
          <path id="Trazado_193907" data-name="Trazado 193907" d="M1.249,0A1.248,1.248,0,1,1,0,1.249,1.249,1.249,0,0,1,1.249,0Z" transform="translate(32.428 45.671)" fill="#e8e8e8"/>
          <path id="Trazado_193908" data-name="Trazado 193908" d="M1.249,0A1.248,1.248,0,1,1,0,1.249,1.249,1.249,0,0,1,1.249,0Z" transform="translate(39.049 45.671)" fill="#e8e8e8"/>
          <path id="Trazado_193909" data-name="Trazado 193909" d="M1.249,0A1.248,1.248,0,1,1,0,1.249,1.249,1.249,0,0,1,1.249,0Z" transform="translate(45.671 45.671)" fill="#e8e8e8"/>
          <path id="Trazado_193910" data-name="Trazado 193910" d="M1.249,0A1.248,1.248,0,1,1,0,1.249,1.249,1.249,0,0,1,1.249,0Z" transform="translate(52.292 45.671)" fill="#e8e8e8"/>
          <path id="Trazado_193911" data-name="Trazado 193911" d="M1.249,0A1.248,1.248,0,1,1,0,1.249,1.249,1.249,0,0,1,1.249,0Z" transform="translate(58.914 45.671)" fill="#e8e8e8"/>
          <path id="Trazado_193912" data-name="Trazado 193912" d="M1.249,0A1.248,1.248,0,1,1,0,1.249,1.249,1.249,0,0,1,1.249,0Z" transform="translate(65.535 45.671)" fill="#e8e8e8"/>
          <path id="Trazado_193913" data-name="Trazado 193913" d="M1.249,0A1.248,1.248,0,1,1,0,1.249,1.249,1.249,0,0,1,1.249,0Z" transform="translate(72.156 45.671)" fill="#e8e8e8"/>
          <path id="Trazado_193914" data-name="Trazado 193914" d="M1.249,0A1.248,1.248,0,1,1,0,1.249,1.249,1.249,0,0,1,1.249,0Z" transform="translate(78.778 45.671)" fill="#e8e8e8"/>
          <path id="Trazado_193915" data-name="Trazado 193915" d="M1.249,0A1.248,1.248,0,1,1,0,1.249,1.249,1.249,0,0,1,1.249,0Z" transform="translate(85.399 45.671)" fill="#e8e8e8"/>
          <path id="Trazado_193916" data-name="Trazado 193916" d="M1.249,0A1.248,1.248,0,1,1,0,1.249,1.249,1.249,0,0,1,1.249,0Z" transform="translate(92.02 45.671)" fill="#e8e8e8"/>
          <path id="Trazado_193917" data-name="Trazado 193917" d="M1.247,0A1.248,1.248,0,1,1,0,1.249,1.248,1.248,0,0,1,1.247,0Z" transform="translate(98.643 45.671)" fill="#e8e8e8"/>
          <path id="Trazado_193918" data-name="Trazado 193918" d="M.5,0A.5.5,0,1,1,0,.5.5.5,0,0,1,.5,0Z" transform="translate(106.016 46.424)" fill="#e8e8e8"/>
          <ellipse id="Elipse_5610" data-name="Elipse 5610" cx="0.294" cy="0.294" rx="0.294" ry="0.294" transform="translate(0.275 40.004)" fill="#e8e8e8"/>
          <path id="Trazado_193919" data-name="Trazado 193919" d="M1.249,0A1.248,1.248,0,1,1,0,1.249,1.247,1.247,0,0,1,1.249,0Z" transform="translate(5.942 39.05)" fill="#e8e8e8"/>
          <path id="Trazado_193920" data-name="Trazado 193920" d="M1.249,0A1.248,1.248,0,1,1,0,1.249,1.247,1.247,0,0,1,1.249,0Z" transform="translate(12.564 39.05)" fill="#e8e8e8"/>
          <path id="Trazado_193921" data-name="Trazado 193921" d="M1.249,0A1.248,1.248,0,1,1,0,1.249,1.247,1.247,0,0,1,1.249,0Z" transform="translate(19.185 39.05)" fill="#e8e8e8"/>
          <path id="Trazado_193922" data-name="Trazado 193922" d="M1.249,0A1.248,1.248,0,1,1,0,1.249,1.247,1.247,0,0,1,1.249,0Z" transform="translate(25.807 39.05)" fill="#e8e8e8"/>
          <path id="Trazado_193923" data-name="Trazado 193923" d="M1.249,0A1.248,1.248,0,1,1,0,1.249,1.249,1.249,0,0,1,1.249,0Z" transform="translate(32.428 39.05)" fill="#e8e8e8"/>
          <path id="Trazado_193924" data-name="Trazado 193924" d="M1.249,0A1.248,1.248,0,1,1,0,1.249,1.249,1.249,0,0,1,1.249,0Z" transform="translate(39.049 39.05)" fill="#e8e8e8"/>
          <path id="Trazado_193925" data-name="Trazado 193925" d="M1.249,0A1.248,1.248,0,1,1,0,1.249,1.249,1.249,0,0,1,1.249,0Z" transform="translate(45.671 39.05)" fill="#e8e8e8"/>
          <path id="Trazado_193926" data-name="Trazado 193926" d="M1.249,0A1.248,1.248,0,1,1,0,1.249,1.249,1.249,0,0,1,1.249,0Z" transform="translate(52.292 39.05)" fill="#e8e8e8"/>
          <path id="Trazado_193927" data-name="Trazado 193927" d="M1.249,0A1.248,1.248,0,1,1,0,1.249,1.249,1.249,0,0,1,1.249,0Z" transform="translate(58.914 39.05)" fill="#e8e8e8"/>
          <path id="Trazado_193928" data-name="Trazado 193928" d="M1.249,0A1.248,1.248,0,1,1,0,1.249,1.249,1.249,0,0,1,1.249,0Z" transform="translate(65.535 39.05)" fill="#e8e8e8"/>
          <path id="Trazado_193929" data-name="Trazado 193929" d="M1.249,0A1.248,1.248,0,1,1,0,1.249,1.249,1.249,0,0,1,1.249,0Z" transform="translate(72.156 39.05)" fill="#e8e8e8"/>
          <path id="Trazado_193930" data-name="Trazado 193930" d="M1.249,0A1.248,1.248,0,1,1,0,1.249,1.249,1.249,0,0,1,1.249,0Z" transform="translate(78.778 39.05)" fill="#e8e8e8"/>
          <path id="Trazado_193931" data-name="Trazado 193931" d="M1.249,0A1.248,1.248,0,1,1,0,1.249,1.249,1.249,0,0,1,1.249,0Z" transform="translate(85.399 39.05)" fill="#e8e8e8"/>
          <path id="Trazado_193932" data-name="Trazado 193932" d="M1.249,0A1.248,1.248,0,1,1,0,1.249,1.249,1.249,0,0,1,1.249,0Z" transform="translate(92.02 39.05)" fill="#e8e8e8"/>
          <path id="Trazado_193933" data-name="Trazado 193933" d="M1.247,0A1.248,1.248,0,1,1,0,1.249,1.248,1.248,0,0,1,1.247,0Z" transform="translate(98.643 39.05)" fill="#e8e8e8"/>
          <ellipse id="Elipse_5611" data-name="Elipse 5611" cx="0.275" cy="0.275" rx="0.275" ry="0.275" transform="translate(106.237 40.023)" fill="#e8e8e8"/>
          <ellipse id="Elipse_5612" data-name="Elipse 5612" cx="0.018" cy="0.018" rx="0.018" ry="0.018" transform="translate(0.551 33.658)" fill="#e8e8e8"/>
          <path id="Trazado_193934" data-name="Trazado 193934" d="M1.1,0A1.1,1.1,0,1,1,0,1.1,1.1,1.1,0,0,1,1.1,0Z" transform="translate(6.089 32.575)" fill="#e8e8e8"/>
          <path id="Trazado_193935" data-name="Trazado 193935" d="M1.249,0A1.248,1.248,0,1,1,0,1.247,1.247,1.247,0,0,1,1.249,0Z" transform="translate(12.564 32.428)" fill="#e8e8e8"/>
          <path id="Trazado_193936" data-name="Trazado 193936" d="M1.249,0A1.248,1.248,0,1,1,0,1.247,1.247,1.247,0,0,1,1.249,0" transform="translate(19.185 32.428)" fill="#e8e8e8"/>
          <path id="Trazado_193937" data-name="Trazado 193937" d="M1.249,0A1.248,1.248,0,1,1,0,1.247,1.247,1.247,0,0,1,1.249,0Z" transform="translate(25.807 32.428)" fill="#e8e8e8"/>
          <path id="Trazado_193938" data-name="Trazado 193938" d="M1.249,0A1.248,1.248,0,1,1,0,1.247,1.248,1.248,0,0,1,1.249,0Z" transform="translate(32.428 32.428)" fill="#e8e8e8"/>
          <path id="Trazado_193939" data-name="Trazado 193939" d="M1.249,0A1.248,1.248,0,1,1,0,1.247,1.248,1.248,0,0,1,1.249,0Z" transform="translate(39.049 32.428)" fill="#e8e8e8"/>
          <path id="Trazado_193940" data-name="Trazado 193940" d="M1.249,0A1.248,1.248,0,1,1,0,1.247,1.248,1.248,0,0,1,1.249,0Z" transform="translate(45.671 32.428)" fill="#e8e8e8"/>
          <path id="Trazado_193941" data-name="Trazado 193941" d="M1.249,0A1.248,1.248,0,1,1,0,1.247,1.248,1.248,0,0,1,1.249,0Z" transform="translate(52.292 32.428)" fill="#e8e8e8"/>
          <path id="Trazado_193942" data-name="Trazado 193942" d="M1.249,0A1.248,1.248,0,1,1,0,1.247,1.248,1.248,0,0,1,1.249,0Z" transform="translate(58.914 32.428)" fill="#e8e8e8"/>
          <path id="Trazado_193943" data-name="Trazado 193943" d="M1.249,0A1.248,1.248,0,1,1,0,1.247,1.248,1.248,0,0,1,1.249,0Z" transform="translate(65.535 32.428)" fill="#e8e8e8"/>
          <path id="Trazado_193944" data-name="Trazado 193944" d="M1.249,0A1.248,1.248,0,1,1,0,1.247,1.248,1.248,0,0,1,1.249,0Z" transform="translate(72.156 32.428)" fill="#e8e8e8"/>
          <path id="Trazado_193945" data-name="Trazado 193945" d="M1.249,0A1.248,1.248,0,1,1,0,1.247,1.248,1.248,0,0,1,1.249,0Z" transform="translate(78.778 32.428)" fill="#e8e8e8"/>
          <path id="Trazado_193946" data-name="Trazado 193946" d="M1.249,0A1.248,1.248,0,1,1,0,1.247,1.248,1.248,0,0,1,1.249,0Z" transform="translate(85.399 32.428)" fill="#e8e8e8"/>
          <path id="Trazado_193947" data-name="Trazado 193947" d="M1.249,0A1.248,1.248,0,1,1,0,1.247,1.248,1.248,0,0,1,1.249,0Z" transform="translate(92.02 32.428)" fill="#e8e8e8"/>
          <path id="Trazado_193948" data-name="Trazado 193948" d="M1.082,0A1.083,1.083,0,1,1,0,1.082,1.082,1.082,0,0,1,1.082,0Z" transform="translate(98.808 32.594)" fill="#e8e8e8"/>
          <ellipse id="Elipse_5613" data-name="Elipse 5613" cx="0.037" cy="0.037" rx="0.037" ry="0.037" transform="translate(106.476 33.64)" fill="#e8e8e8"/>
          <path id="Trazado_193949" data-name="Trazado 193949" d="M.515,0A.515.515,0,1,1,0,.514.515.515,0,0,1,.515,0Z" transform="translate(6.676 26.54)" fill="#e8e8e8"/>
          <path id="Trazado_193950" data-name="Trazado 193950" d="M1.249,0A1.248,1.248,0,1,1,0,1.247,1.247,1.247,0,0,1,1.249,0Z" transform="translate(12.564 25.807)" fill="#e8e8e8"/>
          <path id="Trazado_193951" data-name="Trazado 193951" d="M1.249,0A1.248,1.248,0,1,1,0,1.247,1.247,1.247,0,0,1,1.249,0Z" transform="translate(19.185 25.807)" fill="#e8e8e8"/>
          <path id="Trazado_193952" data-name="Trazado 193952" d="M1.249,0A1.248,1.248,0,1,1,0,1.247,1.247,1.247,0,0,1,1.249,0Z" transform="translate(25.807 25.807)" fill="#e8e8e8"/>
          <path id="Trazado_193953" data-name="Trazado 193953" d="M1.249,0A1.248,1.248,0,1,1,0,1.247,1.248,1.248,0,0,1,1.249,0Z" transform="translate(32.428 25.807)" fill="#e8e8e8"/>
          <path id="Trazado_193954" data-name="Trazado 193954" d="M1.249,0A1.248,1.248,0,1,1,0,1.247,1.248,1.248,0,0,1,1.249,0Z" transform="translate(39.049 25.807)" fill="#e8e8e8"/>
          <path id="Trazado_193955" data-name="Trazado 193955" d="M1.249,0A1.248,1.248,0,1,1,0,1.247,1.248,1.248,0,0,1,1.249,0Z" transform="translate(45.671 25.807)" fill="#e8e8e8"/>
          <path id="Trazado_193956" data-name="Trazado 193956" d="M1.249,0A1.248,1.248,0,1,1,0,1.247,1.248,1.248,0,0,1,1.249,0Z" transform="translate(52.292 25.807)" fill="#e8e8e8"/>
          <path id="Trazado_193957" data-name="Trazado 193957" d="M1.249,0A1.248,1.248,0,1,1,0,1.247,1.248,1.248,0,0,1,1.249,0Z" transform="translate(58.914 25.807)" fill="#e8e8e8"/>
          <path id="Trazado_193958" data-name="Trazado 193958" d="M1.249,0A1.248,1.248,0,1,1,0,1.247,1.248,1.248,0,0,1,1.249,0Z" transform="translate(65.535 25.807)" fill="#e8e8e8"/>
          <path id="Trazado_193959" data-name="Trazado 193959" d="M1.249,0A1.248,1.248,0,1,1,0,1.247,1.248,1.248,0,0,1,1.249,0Z" transform="translate(72.156 25.807)" fill="#e8e8e8"/>
          <path id="Trazado_193960" data-name="Trazado 193960" d="M1.249,0A1.248,1.248,0,1,1,0,1.247,1.248,1.248,0,0,1,1.249,0Z" transform="translate(78.778 25.807)" fill="#e8e8e8"/>
          <path id="Trazado_193961" data-name="Trazado 193961" d="M1.249,0A1.248,1.248,0,1,1,0,1.247,1.248,1.248,0,0,1,1.249,0Z" transform="translate(85.399 25.807)" fill="#e8e8e8"/>
          <path id="Trazado_193962" data-name="Trazado 193962" d="M1.249,0A1.248,1.248,0,1,1,0,1.247,1.248,1.248,0,0,1,1.249,0Z" transform="translate(92.02 25.807)" fill="#e8e8e8"/>
          <path id="Trazado_193963" data-name="Trazado 193963" d="M.5,0A.5.5,0,1,1,0,.5.5.5,0,0,1,.5,0Z" transform="translate(99.395 26.559)" fill="#e8e8e8"/>
          <ellipse id="Elipse_5614" data-name="Elipse 5614" cx="0.018" cy="0.018" rx="0.018" ry="0.018" transform="translate(7.172 20.415)" fill="#e8e8e8"/>
          <path id="Trazado_193964" data-name="Trazado 193964" d="M.881,0A.881.881,0,1,1,0,.881.883.883,0,0,1,.881,0Z" transform="translate(12.931 19.552)" fill="#e8e8e8"/>
          <ellipse id="Elipse_5615" data-name="Elipse 5615" cx="1.249" cy="1.249" rx="1.249" ry="1.249" transform="translate(19.185 19.185)" fill="#e8e8e8"/>
          <ellipse id="Elipse_5616" data-name="Elipse 5616" cx="1.249" cy="1.249" rx="1.249" ry="1.249" transform="translate(25.806 19.185)" fill="#e8e8e8"/>
          <ellipse id="Elipse_5617" data-name="Elipse 5617" cx="1.249" cy="1.249" rx="1.249" ry="1.249" transform="translate(32.428 19.185)" fill="#e8e8e8"/>
          <ellipse id="Elipse_5618" data-name="Elipse 5618" cx="1.249" cy="1.249" rx="1.249" ry="1.249" transform="translate(39.049 19.185)" fill="#e8e8e8"/>
          <ellipse id="Elipse_5619" data-name="Elipse 5619" cx="1.249" cy="1.249" rx="1.249" ry="1.249" transform="translate(45.671 19.185)" fill="#e8e8e8"/>
          <path id="Trazado_193965" data-name="Trazado 193965" d="M1.249,0A1.248,1.248,0,1,1,0,1.247,1.248,1.248,0,0,1,1.249,0Z" transform="translate(52.292 19.186)" fill="#e8e8e8"/>
          <path id="Trazado_193966" data-name="Trazado 193966" d="M1.249,0A1.248,1.248,0,1,1,0,1.247,1.248,1.248,0,0,1,1.249,0Z" transform="translate(58.914 19.186)" fill="#e8e8e8"/>
          <path id="Trazado_193967" data-name="Trazado 193967" d="M1.249,0A1.248,1.248,0,1,1,0,1.247,1.248,1.248,0,0,1,1.249,0Z" transform="translate(65.535 19.186)" fill="#e8e8e8"/>
          <path id="Trazado_193968" data-name="Trazado 193968" d="M1.249,0A1.248,1.248,0,1,1,0,1.247,1.248,1.248,0,0,1,1.249,0Z" transform="translate(72.156 19.186)" fill="#e8e8e8"/>
          <path id="Trazado_193969" data-name="Trazado 193969" d="M1.249,0A1.248,1.248,0,1,1,0,1.247,1.248,1.248,0,0,1,1.249,0Z" transform="translate(78.778 19.186)" fill="#e8e8e8"/>
          <path id="Trazado_193970" data-name="Trazado 193970" d="M1.249,0A1.248,1.248,0,1,1,0,1.247,1.248,1.248,0,0,1,1.249,0Z" transform="translate(85.399 19.186)" fill="#e8e8e8"/>
          <path id="Trazado_193971" data-name="Trazado 193971" d="M.863,0A.864.864,0,1,1,0,.863.863.863,0,0,1,.863,0Z" transform="translate(92.406 19.57)" fill="#e8e8e8"/>
          <ellipse id="Elipse_5620" data-name="Elipse 5620" cx="0.018" cy="0.018" rx="0.018" ry="0.018" transform="translate(99.873 20.415)" fill="#e8e8e8"/>
          <ellipse id="Elipse_5621" data-name="Elipse 5621" cx="0.055" cy="0.055" rx="0.055" ry="0.055" transform="translate(13.757 13.757)" fill="#e8e8e8"/>
          <path id="Trazado_193972" data-name="Trazado 193972" d="M.881,0A.881.881,0,1,1,0,.881.883.883,0,0,1,.881,0Z" transform="translate(19.553 12.93)" fill="#e8e8e8"/>
          <ellipse id="Elipse_5622" data-name="Elipse 5622" cx="1.249" cy="1.249" rx="1.249" ry="1.249" transform="translate(25.806 12.564)" fill="#e8e8e8"/>
          <ellipse id="Elipse_5623" data-name="Elipse 5623" cx="1.249" cy="1.249" rx="1.249" ry="1.249" transform="translate(32.428 12.564)" fill="#e8e8e8"/>
          <ellipse id="Elipse_5624" data-name="Elipse 5624" cx="1.249" cy="1.249" rx="1.249" ry="1.249" transform="translate(39.049 12.564)" fill="#e8e8e8"/>
          <ellipse id="Elipse_5625" data-name="Elipse 5625" cx="1.249" cy="1.249" rx="1.249" ry="1.249" transform="translate(45.671 12.564)" fill="#e8e8e8"/>
          <path id="Trazado_193973" data-name="Trazado 193973" d="M1.249,0A1.248,1.248,0,1,1,0,1.247,1.248,1.248,0,0,1,1.249,0Z" transform="translate(52.292 12.564)" fill="#e8e8e8"/>
          <path id="Trazado_193974" data-name="Trazado 193974" d="M1.249,0A1.248,1.248,0,1,1,0,1.247,1.248,1.248,0,0,1,1.249,0Z" transform="translate(58.914 12.564)" fill="#e8e8e8"/>
          <path id="Trazado_193975" data-name="Trazado 193975" d="M1.249,0A1.248,1.248,0,1,1,0,1.247,1.248,1.248,0,0,1,1.249,0Z" transform="translate(65.535 12.564)" fill="#e8e8e8"/>
          <path id="Trazado_193976" data-name="Trazado 193976" d="M1.249,0A1.248,1.248,0,1,1,0,1.247,1.248,1.248,0,0,1,1.249,0Z" transform="translate(72.156 12.564)" fill="#e8e8e8"/>
          <path id="Trazado_193977" data-name="Trazado 193977" d="M1.249,0A1.248,1.248,0,1,1,0,1.247,1.248,1.248,0,0,1,1.249,0Z" transform="translate(78.778 12.564)" fill="#e8e8e8"/>
          <path id="Trazado_193978" data-name="Trazado 193978" d="M.863,0A.863.863,0,1,1,0,.863.863.863,0,0,1,.863,0Z" transform="translate(85.785 12.949)" fill="#e8e8e8"/>
          <path id="Trazado_193979" data-name="Trazado 193979" d="M.073,0A.073.073,0,1,1,0,.073.073.073,0,0,1,.073,0Z" transform="translate(93.197 13.739)" fill="#e8e8e8"/>
          <ellipse id="Elipse_5626" data-name="Elipse 5626" cx="0.018" cy="0.018" rx="0.018" ry="0.018" transform="translate(20.415 7.172)" fill="#e8e8e8"/>
          <path id="Trazado_193980" data-name="Trazado 193980" d="M.514,0A.514.514,0,1,1,0,.514.515.515,0,0,1,.514,0Z" transform="translate(26.541 6.676)" fill="#e8e8e8"/>
          <path id="Trazado_193981" data-name="Trazado 193981" d="M1.084,0A1.083,1.083,0,1,1,0,1.082,1.083,1.083,0,0,1,1.084,0Z" transform="translate(32.593 6.108)" fill="#e8e8e8"/>
          <ellipse id="Elipse_5627" data-name="Elipse 5627" cx="1.249" cy="1.249" rx="1.249" ry="1.249" transform="translate(39.049 5.942)" fill="#e8e8e8"/>
          <ellipse id="Elipse_5628" data-name="Elipse 5628" cx="1.249" cy="1.249" rx="1.249" ry="1.249" transform="translate(45.671 5.942)" fill="#e8e8e8"/>
          <path id="Trazado_193982" data-name="Trazado 193982" d="M1.249,0A1.248,1.248,0,1,1,0,1.247,1.248,1.248,0,0,1,1.249,0Z" transform="translate(52.292 5.943)" fill="#e8e8e8"/>
          <path id="Trazado_193983" data-name="Trazado 193983" d="M1.249,0A1.248,1.248,0,1,1,0,1.247,1.248,1.248,0,0,1,1.249,0Z" transform="translate(58.914 5.943)" fill="#e8e8e8"/>
          <path id="Trazado_193984" data-name="Trazado 193984" d="M1.249,0A1.248,1.248,0,1,1,0,1.247,1.248,1.248,0,0,1,1.249,0Z" transform="translate(65.535 5.943)" fill="#e8e8e8"/>
          <path id="Trazado_193985" data-name="Trazado 193985" d="M1.084,0A1.083,1.083,0,1,1,0,1.082,1.083,1.083,0,0,1,1.084,0Z" transform="translate(72.321 6.108)" fill="#e8e8e8"/>
          <path id="Trazado_193986" data-name="Trazado 193986" d="M.5,0A.5.5,0,1,1,0,.5.5.5,0,0,1,.5,0Z" transform="translate(79.531 6.695)" fill="#e8e8e8"/>
          <ellipse id="Elipse_5629" data-name="Elipse 5629" cx="0.018" cy="0.018" rx="0.018" ry="0.018" transform="translate(86.63 7.172)" fill="#e8e8e8"/>
          <ellipse id="Elipse_5630" data-name="Elipse 5630" cx="0.037" cy="0.037" rx="0.037" ry="0.037" transform="translate(33.64 0.532)" fill="#e8e8e8"/>
          <path id="Trazado_193987" data-name="Trazado 193987" d="M.275,0A.276.276,0,1,1,0,.275.274.274,0,0,1,.275,0Z" transform="translate(40.023 0.294)" fill="#e8e8e8"/>
          <path id="Trazado_193988" data-name="Trazado 193988" d="M.514,0A.514.514,0,1,1,0,.514.515.515,0,0,1,.514,0Z" transform="translate(46.406 0.055)" fill="#e8e8e8"/>
          <ellipse id="Elipse_5631" data-name="Elipse 5631" cx="0.569" cy="0.569" rx="0.569" ry="0.569" transform="translate(52.972)" fill="#e8e8e8"/>
          <path id="Trazado_193989" data-name="Trazado 193989" d="M.514,0A.514.514,0,1,1,0,.514.515.515,0,0,1,.514,0Z" transform="translate(59.648 0.055)" fill="#e8e8e8"/>
          <path id="Trazado_193990" data-name="Trazado 193990" d="M.275,0A.276.276,0,1,1,0,.275.274.274,0,0,1,.275,0Z" transform="translate(66.509 0.294)" fill="#e8e8e8"/>
          <ellipse id="Elipse_5632" data-name="Elipse 5632" cx="0.037" cy="0.037" rx="0.037" ry="0.037" transform="translate(73.369 0.532)" fill="#e8e8e8"/>
        </g>
      </g>
      <g id="Grupo_169387" data-name="Grupo 169387" transform="translate(186.993 4929.825)">
        <path id="Trazado_211593" data-name="Trazado 211593" d="M3.618,289.064c.151.246.308.484.47.718l25.228-15.464c-.135-.25-.277-.5-.427-.745-.222-.362-.458-.709-.7-1.047L3,287.96c.187.373.391.741.613,1.1" transform="translate(-1.524 -266.671)" fill="#def2f4"/>
        <path id="Trazado_211594" data-name="Trazado 211594" d="M21.287,306.2l17.105-10.485a14.854,14.854,0,0,0,.514-2.8L18.559,305.383a14.913,14.913,0,0,0,2.728.813" transform="translate(-9.409 -277.006)" fill="#def2f4"/>
        <path id="Trazado_211595" data-name="Trazado 211595" d="M10.805,298.083l23.2-14.221a14.663,14.663,0,0,0-.484-2.188L9.074,296.658a14.721,14.721,0,0,0,1.731,1.424" transform="translate(-4.6 -271.308)" fill="#def2f4"/>
        <path id="Trazado_211596" data-name="Trazado 211596" d="M40.334,312.217a14.778,14.778,0,0,0,4.058-3.667l-9.168,5.62a14.784,14.784,0,0,0,5.11-1.953" transform="translate(-17.858 -284.935)" fill="#def2f4"/>
        <path id="Trazado_211597" data-name="Trazado 211597" d="M.424,281.517l24.257-14.869a14.646,14.646,0,0,0-1.791-1.388L0,279.291a14.665,14.665,0,0,0,.424,2.225" transform="translate(0 -262.987)" fill="#def2f4"/>
        <path id="Trazado_211598" data-name="Trazado 211598" d="M10.811,263a14.808,14.808,0,0,0-3.265,2.711l7.161-4.389a14.8,14.8,0,0,0-3.9,1.678" transform="translate(-3.826 -260.992)" fill="#def2f4"/>
        <path id="Trazado_211599" data-name="Trazado 211599" d="M.029,273.537l19.825-12.152A14.913,14.913,0,0,0,17,260.649L.669,270.658a14.872,14.872,0,0,0-.64,2.878" transform="translate(-0.015 -260.649)" fill="#def2f4"/>
      </g>
    </g>
    <g id="Grupo_177355" data-name="Grupo 177355" transform="translate(989.311 4215.369)">
      <g id="Grupo_173414" data-name="Grupo 173414" transform="translate(0 0)" clip-path="url(#clip-path-2)">
        <path id="Trazado_214037" data-name="Trazado 214037" d="M105.024,38.506a8.553,8.553,0,0,1-2.873,5.029,23.175,23.175,0,0,1-12.193,5.985,30.2,30.2,0,0,1-9.435.07,36.407,36.407,0,0,1-4.227-.853,17.584,17.584,0,0,1-6.17-2.707,8.369,8.369,0,0,1-3.464-5.612c-.366-3.509,2.149-6.716,5.067-8.691A4.757,4.757,0,0,1,70.3,26.915,9.382,9.382,0,0,1,73.1,22.5a19.759,19.759,0,0,1,9.448-4.938,5.808,5.808,0,0,1,5.06,1.154,7.8,7.8,0,0,1,2.572,8.178,14.906,14.906,0,0,1,13.368,6.652,7.881,7.881,0,0,1,1.475,4.964" transform="translate(-10.86 -2.836)" fill="#252727"/>
        <path id="Trazado_214038" data-name="Trazado 214038" d="M107.73,38.762a8.553,8.553,0,0,1-2.873,5.029,23.175,23.175,0,0,1-12.193,5.985,30.2,30.2,0,0,1-9.435.07,27.22,27.22,0,0,0,10.4-2.219,15.915,15.915,0,0,0,7.068-5.427,8.755,8.755,0,0,0,.873-8.575,8.776,8.776,0,0,0-5.517-4.24,16.976,16.976,0,0,0-7.1-.224,10.77,10.77,0,0,0,1.366-10.192,7.8,7.8,0,0,1,2.572,8.178A14.906,14.906,0,0,1,106.255,33.8a7.881,7.881,0,0,1,1.475,4.964" transform="translate(-13.566 -3.092)" fill="#424242"/>
        <path id="Trazado_214042" data-name="Trazado 214042" d="M16.7,48.818c.341-.485,9.081,3.309,9.081,3.309A6.747,6.747,0,0,1,25.3,47.7c0-.013.007-.028.011-.041.037-.131.1-.269.228-.3a.363.363,0,0,1,.187.013,1.891,1.891,0,0,1,1.123,1.1A14.49,14.49,0,0,1,27.334,50a8.024,8.024,0,0,0,1.641,2.586c1.115,1.345.183,4.364.183,4.364s.21.141.5.337l-2.39,4.183-1.83-1.065-1.343.131c-.972-.034-8.944-4.477-8.809-5.074a3.953,3.953,0,0,1,.151-.5c.095-.254.2-.487.273-.642.055-.114.092-.182.092-.182a6.065,6.065,0,0,1-.023-.732,3.354,3.354,0,0,1,.07-.7.678.678,0,0,1,.281-.486,4.113,4.113,0,0,1,1.45.208c1.824.43,4.673,1.3,4.607,1.087-.095-.292-5.713-3.714-5.713-3.714a1.287,1.287,0,0,1,.006-.469,1.334,1.334,0,0,1,.22-.521" transform="translate(-2.491 -7.717)" fill="#ffa07f"/>
        <path id="Trazado_214043" data-name="Trazado 214043" d="M16.128,53.174a4.1,4.1,0,0,1,1.45.208c.141.53.137,1.158.3,1.639a5.2,5.2,0,0,0,1.247,2,8.206,8.206,0,0,0,3.395,1.836c1.239.389,2.52.655,3.725,1.137a13.543,13.543,0,0,1,1.87.937l-.941,1.689-1.739-1.266-1.343.131c-.972-.034-8.944-4.477-8.809-5.073a3.791,3.791,0,0,1,.151-.5c.095-.254.2-.487.273-.642.055-.114.092-.182.092-.182a5.867,5.867,0,0,1-.023-.732,3.4,3.4,0,0,1,.069-.7.676.676,0,0,1,.282-.487" transform="translate(-2.491 -8.664)" fill="#ff7d6f"/>
        <path id="Trazado_214044" data-name="Trazado 214044" d="M15.871,54.46c.157.069.317.138.481.2a14.586,14.586,0,0,0,2.538.737c.625.121,1.035.161,1.085.164-.043-.023-.405-.219-.973-.5-.608-.295-1.447-.683-2.392-1.055-.228-.09-.451-.173-.667-.254a3.458,3.458,0,0,0-.071.7" transform="translate(-2.587 -8.763)" fill="#cf4a57"/>
        <path id="Trazado_214045" data-name="Trazado 214045" d="M15.465,56.328a15.426,15.426,0,0,0,2.922.891,15.563,15.563,0,0,0-2.652-1.533c-.071.156-.177.388-.27.642" transform="translate(-2.521 -9.077)" fill="#cf4a57"/>
        <path id="Trazado_214046" data-name="Trazado 214046" d="M31.033,58.3c-.023-.016-.051-.03-.074-.047a3.486,3.486,0,0,1-.358-.264,1.241,1.241,0,0,1-.222-.281,1.552,1.552,0,0,1-.077-.953,8.52,8.52,0,0,0,.119-3.141c-.3-1.209-1.228-2.155-1.745-3.29a8.5,8.5,0,0,0-1.17-2.433c-.074-.08-.157-.155-.24-.237.038-.127.1-.269.227-.3a.417.417,0,0,1,.187.014,1.873,1.873,0,0,1,1.122,1.1A14.263,14.263,0,0,1,29.287,50a8.043,8.043,0,0,0,1.639,2.585c1.117,1.346.189,4.366.189,4.366s.223.106.491.205l.064.026.2.081Z" transform="translate(-4.444 -7.718)" fill="#ffbf90"/>
        <path id="Trazado_214047" data-name="Trazado 214047" d="M28.289,59.868l-.168-.087a2.514,2.514,0,0,1-.427-.3,3.057,3.057,0,0,1-.954-3.176,2.564,2.564,0,0,1,.193-.485l.092-.166s0,.069.01.188.016.29.038.493a9.026,9.026,0,0,0,.881,2.936c.094.181.177.332.241.432l.1.162" transform="translate(-4.339 -9.072)" fill="#cf4a57"/>
        <path id="Trazado_214048" data-name="Trazado 214048" d="M58.822,33.022a27.443,27.443,0,0,0-2.546,2.014,14.512,14.512,0,0,0-3.412,4.137c-.565,1.173-6.2,19.8-6.2,19.8l-5.067-1.886-1.752-.655-2.11-.783-1.584-.59-3.707-1.379-.3-.109-.167.315L27.823,61.86s3.5,1.758,7.71,3.688c.372.173.744.341,1.122.513,5.266,2.386,11.224,4.837,12.751,4.458a10.433,10.433,0,0,0,3.156-1.828,79.855,79.855,0,0,0,7.081-6.349V37.89Z" transform="translate(-4.535 -5.383)" fill="#fde4d9"/>
        <path id="Trazado_214049" data-name="Trazado 214049" d="M53.869,69a17.876,17.876,0,0,1-2.806-3.43.323.323,0,0,0-.6.162A16.054,16.054,0,0,1,50,68.921a.321.321,0,0,0,.619.171,16.959,16.959,0,0,0,.417-2.415,18.483,18.483,0,0,0,2.378,2.775c.3.285.753-.168.454-.454" transform="translate(-8.149 -10.663)" fill="#e1bfb2"/>
        <path id="Trazado_214050" data-name="Trazado 214050" d="M64.86,35.293l-.7,79.869s-8.858-.757-10.36-3.54c-.8-1.481,1.026-23.065,2.964-42.93,1.693-17.338,3.47-33.36,3.675-33.6.013-.019.032-.039.039-.052a27.443,27.443,0,0,1,2.546-2.014Z" transform="translate(-8.739 -5.383)" fill="#fde4d9"/>
        <path id="Trazado_214051" data-name="Trazado 214051" d="M93.371,161.053l-5.093,3.213-10.14-13.514L63.719,131.529l-.045.038c-.173-.27-.333-.506-.475-.737l-.007-.007a11.728,11.728,0,0,1-.975-1.687c-.244-.783-.743-6.478-1.263-13.688-.378-5.26-.488-14.284-.712-20.782a32.6,32.6,0,0,1,2.437-13.623c.244-.6.4-.931.4-.931L76.99,83.1,72.7,114.256l.3,8.6,12.392,23.226Z" transform="translate(-9.816 -13.059)" fill="#254f79"/>
        <path id="Trazado_214052" data-name="Trazado 214052" d="M96.86,173.9l-5.093,3.213L81.627,163.6l7.248-4.67Z" transform="translate(-13.305 -25.906)" fill="#ff7d6f"/>
        <path id="Trazado_214053" data-name="Trazado 214053" d="M86.655,102.05c-1.316,2.219-5.549,11.09-8.64,17.646-.9,1.9-1.7,3.6-2.3,4.9-.032.058-.057.116-.083.167-.051.109-.1.212-.141.314-.154.321-.289.609-.41.866-.026.064-.058.121-.084.179-.077.18-.154.334-.212.462-.013.019-.018.045-.031.064-.129.282-.206.436-.206.436s-.583,10.679-1.334,11.828c-.006.013-.013.019-.018.032-.424.712-3.574,7.229-6.941,14.24-4.2,8.736-8.729,18.242-8.729,18.242L52.9,170.45l4.965-21.16,6.183-26.343,1.257-6.267,6.991-34.745L83.3,81.288l1.245-.5s4.265,17.626,2.111,21.263" transform="translate(-8.622 -13.168)" fill="#ffa07f"/>
        <path id="Trazado_214054" data-name="Trazado 214054" d="M58.5,171.284c1.071-2.246,14.685-30.8,15.6-32.338.007-.013.014-.023.019-.033.746-1.148,1.334-11.828,1.334-11.828s.006-.011.017-.034.021-.045.036-.08l.011-.023c.007-.014.016-.03.023-.049l.031-.064c.025-.056.054-.117.088-.189.009-.02.018-.042.029-.064.061-.129.131-.282.214-.459.027-.058.056-.119.085-.182.119-.253.254-.544.405-.868.049-.1.1-.2.146-.31.025-.056.053-.112.08-.17.567-1.211,1.306-2.787,2.135-4.544.054-.117.11-.236.167-.355,3.092-6.554,7.329-15.428,8.643-17.649,2.152-3.634-2.113-21.263-2.113-21.263l-1.245.5c.746,5.72,2.169,17.417,1.512,19.067-.582,1.458-6.012,11.856-9.6,18.677-.111.216-.223.429-.333.636-.013.023-.025.046-.036.069q-.227.433-.441.838a.567.567,0,0,0-.03.059c-.042.077-.081.155-.123.23-.219.422-.429.818-.624,1.189l-.191.363c-.064.119-.122.234-.182.347-.053.1-.1.193-.15.284s-.1.184-.142.27c-.036.067-.07.131-.1.194s-.055.108-.085.159c-.052.1-.1.193-.147.28-.018.033-.034.064-.05.1l-.511.969s-.355,11.441-1.27,13.351c-.005.013-.013.027-.02.044-.92,2.007-10.675,27.505-13.185,32.875" transform="translate(-9.536 -13.168)" fill="#ff7d6f"/>
        <path id="Trazado_214055" data-name="Trazado 214055" d="M36.5,189.021a1.144,1.144,0,0,1,.877-.707c1.377-.193,6.343-.6,7.828-1.2,1.153-.472,3.982-1.476,4.819-1.806l6.383,2.139a65.674,65.674,0,0,1-1.137,7.339Z" transform="translate(-5.95 -30.205)" fill="#3a435e"/>
        <path id="Trazado_214056" data-name="Trazado 214056" d="M35.815,191.592l18.771,5.763.576-1.847-18.77-5.763Z" transform="translate(-5.838 -30.929)" fill="#fde4d9"/>
        <path id="Trazado_214057" data-name="Trazado 214057" d="M48.129,188.256c.007.025.013.05.018.076.041.19.023.457-.226.487a.626.626,0,0,1-.363-.1,4.063,4.063,0,0,1-1.016-.809,3.06,3.06,0,0,1-.8-1.155c-.143-.47.332-.721.751-.494a3.494,3.494,0,0,1,1.641,1.994" transform="translate(-7.451 -30.347)" fill="#fde4d9"/>
        <path id="Trazado_214058" data-name="Trazado 214058" d="M46.075,188.921c.007.025.013.05.018.076.041.19.023.456-.225.487a.627.627,0,0,1-.364-.1,4.044,4.044,0,0,1-1.015-.809,3.052,3.052,0,0,1-.805-1.155c-.143-.47.332-.721.751-.494a3.494,3.494,0,0,1,1.641,1.994" transform="translate(-7.116 -30.456)" fill="#fde4d9"/>
        <path id="Trazado_214059" data-name="Trazado 214059" d="M43.757,189.064c.007.025.013.05.018.076.041.19.023.456-.226.487a.629.629,0,0,1-.364-.1,4.063,4.063,0,0,1-1.016-.809,3.06,3.06,0,0,1-.8-1.155c-.143-.47.332-.722.751-.494a3.5,3.5,0,0,1,1.641,1.994" transform="translate(-6.738 -30.479)" fill="#fde4d9"/>
        <path id="Trazado_214060" data-name="Trazado 214060" d="M84.29,190.215a1.141,1.141,0,0,1,.082-1.124c.8-1.137,3.9-5.039,4.468-6.539.444-1.165,1.641-3.918,1.973-4.754l5.922-3.2a65.6,65.6,0,0,1,4.583,5.843Z" transform="translate(-13.722 -28.46)" fill="#3a435e"/>
        <path id="Trazado_214061" data-name="Trazado 214061" d="M85.266,193.036l17.029-9.775-.956-1.682L84.31,191.354Z" transform="translate(-13.743 -29.598)" fill="#fde4d9"/>
        <path id="Trazado_214062" data-name="Trazado 214062" d="M91.2,183.617l.068.038c.167.1.349.3.2.5a.635.635,0,0,1-.321.2,4.058,4.058,0,0,1-1.286.188,3.058,3.058,0,0,1-1.393-.2c-.441-.216-.3-.735.151-.886a3.5,3.5,0,0,1,2.577.163" transform="translate(-14.377 -29.876)" fill="#fde4d9"/>
        <path id="Trazado_214063" data-name="Trazado 214063" d="M90.28,185.571l.068.038c.167.1.349.3.2.5a.635.635,0,0,1-.321.2,4.059,4.059,0,0,1-1.286.188,3.058,3.058,0,0,1-1.393-.2c-.441-.216-.3-.735.151-.886a3.5,3.5,0,0,1,2.577.163" transform="translate(-14.227 -30.194)" fill="#fde4d9"/>
        <path id="Trazado_214064" data-name="Trazado 214064" d="M88.8,187.362l.068.039c.167.1.349.3.2.5a.635.635,0,0,1-.321.2,4.058,4.058,0,0,1-1.286.188,3.058,3.058,0,0,1-1.393-.2c-.441-.216-.3-.736.151-.886a3.5,3.5,0,0,1,2.577.163" transform="translate(-13.986 -30.486)" fill="#fde4d9"/>
        <path id="Trazado_214065" data-name="Trazado 214065" d="M87.622,102.05c-1.316,2.219-5.549,11.09-8.64,17.646-.9,1.9-1.7,3.6-2.3,4.9-.032.058-.057.116-.083.167-.051.109-.1.212-.141.314-.154.321-.289.609-.41.866-.026.064-.058.121-.084.179-.077.18-.154.334-.212.462-.013.019-.018.045-.031.064-.129.282-.206.436-.206.436s-.583,10.679-1.334,11.828c-.006.013-.013.019-.018.032-.424.712-3.574,7.229-6.941,14.24l-8.389-3.894,6.183-26.343,1.257-6.267L73.26,81.935l4.632-.27,1.314-.083,5.06-.3,1.245-.5s.641,2.643,1.3,6.093c.084.417.16.847.244,1.29.1.545.193,1.1.289,1.667.07.424.141.847.205,1.276.693,4.554,1.078,9.25.078,10.936" transform="translate(-9.589 -13.168)" fill="#456997"/>
        <path id="Trazado_214066" data-name="Trazado 214066" d="M90.773,91.315a13.3,13.3,0,0,1-12.078-8.306c-.321-.757.789-1.411,1.11-.648a12.136,12.136,0,0,0,10.763,7.678c.07.424.141.847.205,1.276" transform="translate(-12.818 -13.369)" fill="#254f79"/>
        <path id="Trazado_214067" data-name="Trazado 214067" d="M90.763,88.325a10.109,10.109,0,0,1-9.109-6.273.629.629,0,0,1-.05-.231l1.314-.083a8.857,8.857,0,0,0,7.6,5.3c.083.417.159.846.244,1.289" transform="translate(-13.302 -13.323)" fill="#254f79"/>
        <path id="Trazado_214068" data-name="Trazado 214068" d="M62.02,18.543a3.041,3.041,0,0,1,4.7-2.05,4.929,4.929,0,0,0-4.7,2.05" transform="translate(-10.109 -2.605)" fill="#252727"/>
        <path id="Trazado_214069" data-name="Trazado 214069" d="M63.419,20.583A3.041,3.041,0,0,1,66.775,16.7a4.929,4.929,0,0,0-3.356,3.881" transform="translate(-10.317 -2.717)" fill="#252727"/>
        <path id="Trazado_214070" data-name="Trazado 214070" d="M61.9,54.424c.1.09.173.147.212.18.013.013.026.019.026.032s.013.007.013.007-.688,13.785-1.576,20.321A32.819,32.819,0,0,0,77.6,76.57l10.021-1.606c-.422-1.495-2.267-6.739-2.72-8.642a75.456,75.456,0,0,1-1.712-9.05c-.372-3.739.244-9.025,1.065-13.835.129-.347.25-.7.366-1.065a47.218,47.218,0,0,0,1.894-10.029L83.8,31.455a.175.175,0,0,0-.038-.007l-.506-.019-.379-.019-2.508-.116c-.667-.4-1.558-6.747-1.558-6.747l-5.33,1.809s1.168,4.541.558,5.291c-.283.321-1.155.263-1.527.282-.963.064-1.924.051-2.893.019-.045,0-.1-.007-.154-.007-.263-.006-.526-.013-.789-.025-.372-.013-.744-.033-1.11-.045-2.091-.1-3.868-.231-3.868-.231a46.376,46.376,0,0,0-4.592,8.909v.007a.007.007,0,0,0-.007.007A19.332,19.332,0,0,0,57.74,47.1,12.553,12.553,0,0,0,61.9,54.424" transform="translate(-9.412 -4.001)" fill="#eeac3a"/>
        <path id="Trazado_214071" data-name="Trazado 214071" d="M76.15,59.375a10.918,10.918,0,0,1-4.963-1.8,14.747,14.747,0,0,1-6.57,2.385A9.061,9.061,0,0,0,71.079,58.7a13.446,13.446,0,0,0,5.071.68" transform="translate(-10.533 -9.385)" fill="#c28b2c"/>
        <path id="Trazado_214072" data-name="Trazado 214072" d="M85.006,31.41c-2.444,4.008-8.114,6.093-11.135,5.606-2.444-.4-2.964-3.5-3.066-5.1.263.013.526.019.788.026.052,0,.11.007.154.007.968.032,1.931.044,2.893-.019.372-.019,1.245.039,1.527-.283.609-.75-.558-5.291-.558-5.291l5.331-1.809s.891,6.344,1.558,6.748Z" transform="translate(-11.542 -4.001)" fill="#ffa07f"/>
        <path id="Trazado_214073" data-name="Trazado 214073" d="M77.56,1.617C77.357,1.6,69.8,2.849,68.4,5.334S64.74,17.106,66.461,21.709s4.811,4.136,5.916,3.872,6.33-2.145,7.6-3.756,4.229-10.1,3.774-12.377S77.56,1.617,77.56,1.617" transform="translate(-10.732 -0.264)" fill="#ffbf90"/>
        <path id="Trazado_214074" data-name="Trazado 214074" d="M78.017.83c-.2-.014-7.761,1.231-9.156,3.717S65.2,16.319,66.918,20.922s4.81,4.136,5.915,3.872,6.33-2.145,7.6-3.756,4.229-10.1,3.774-12.377S78.017.83,78.017.83" transform="translate(-10.807 -0.135)" fill="#ffa07f"/>
        <path id="Trazado_214081" data-name="Trazado 214081" d="M83.451,20.006c.28-.116,1.752-1.85,2.661-.7a3.125,3.125,0,0,1,.1,3.947c-.882.885-2.1,1.825-3.493,1.39Z" transform="translate(-13.484 -3.083)" fill="#ffa07f"/>
        <path id="Trazado_214082" data-name="Trazado 214082" d="M86.172,20.924a1.376,1.376,0,0,1-.1.729,5.847,5.847,0,0,1-2.338,2.369,2.682,2.682,0,0,0,.419-1.568c-.008-.189-.034-.379-.023-.567.04-.76,1.787-2.411,2.041-.963" transform="translate(-13.649 -3.317)" fill="#ff7d6f"/>
        <path id="Trazado_214083" data-name="Trazado 214083" d="M83.167,24.277l.054-.028c.034-.019.09-.044.152-.085a2.1,2.1,0,0,0,.477-.4,2.017,2.017,0,0,0,.42-.782,1.783,1.783,0,0,0-.048-1.072.973.973,0,0,0-.058-.137l-.016-.033c0-.008,0,0,0,0v0h0l0-.005.017-.028.034-.056c.023-.036.046-.073.07-.109a4.582,4.582,0,0,1,.3-.4c.1-.124.21-.237.315-.34a2.65,2.65,0,0,1,.306-.267.629.629,0,0,1,.3-.12.435.435,0,0,1,.248.06.238.238,0,0,1,.1.115.184.184,0,0,1,.013.052.193.193,0,0,0,0-.054.241.241,0,0,0-.085-.144.493.493,0,0,0-.282-.115.773.773,0,0,0-.4.095,2.592,2.592,0,0,0-.372.248,3.973,3.973,0,0,0-.372.328A3.565,3.565,0,0,0,84,21.4c-.028.037-.054.075-.081.114l-.038.059-.052.083-.036.058c.008.021.018.042.028.062l.041.09a.774.774,0,0,1,.049.119,1.873,1.873,0,0,1,.088.951,2.1,2.1,0,0,1-.289.754,2.235,2.235,0,0,1-.373.445c-.052.049-.1.081-.127.106l-.045.038" transform="translate(-13.556 -3.312)" fill="#cf4a57"/>
        <path id="Trazado_214088" data-name="Trazado 214088" d="M66.351,6.476c.956,1.517,4.6,2.369,4.6,2.369L70.81,6.616C71.318,8.359,74.1,8.844,74.1,8.844l-.958-2.508c1.262,2.516,8.809,5.023,8.809,5.023l-1.128,5.179a5.388,5.388,0,0,1,1.67-.588c.7-.053,1.646,1.99,1.646,1.99a27.221,27.221,0,0,0,2.8-6.783,7.512,7.512,0,0,0-.255-5C83.362-.67,73.8-.582,70.729.634a8.19,8.19,0,0,0-4.313,3.845,2.112,2.112,0,0,0-.065,2" transform="translate(-10.779 0)" fill="#252727"/>
        <path id="Trazado_214089" data-name="Trazado 214089" d="M69.42,6.19a3.268,3.268,0,0,1,.34-2.452A6.559,6.559,0,0,0,72.2,5.779a4.562,4.562,0,0,1,.1-2.262A25.392,25.392,0,0,0,87,11.155a9.16,9.16,0,0,0,.236-3.325,5.4,5.4,0,0,0-.492-1.671C83.418-.669,73.859-.583,70.783.633a8.886,8.886,0,0,0-3.3,2.326,5.892,5.892,0,0,0-1.008,1.518A12.851,12.851,0,0,0,69.42,6.19" transform="translate(-10.835 0)" fill="#424242"/>
        <path id="Trazado_214090" data-name="Trazado 214090" d="M67.677,2.959a2.283,2.283,0,0,0,.943.762,4.168,4.168,0,0,1,1.5-1.99A3.627,3.627,0,0,0,71.777,3.51a4.274,4.274,0,0,1,.341-1.758,11.263,11.263,0,0,0,5.29,2.991,3.772,3.772,0,0,1-1.591-2.385A24.7,24.7,0,0,0,87.435,7.83a5.433,5.433,0,0,0-.492-1.671C83.614-.669,74.055-.583,70.98.633a8.9,8.9,0,0,0-3.3,2.326" transform="translate(-11.032 0)" fill="#595959"/>
        <path id="Trazado_214091" data-name="Trazado 214091" d="M80.507,20.7a3.041,3.041,0,0,1,4.7-2.05,4.93,4.93,0,0,0-4.7,2.05" transform="translate(-13.123 -2.957)" fill="#252727"/>
        <path id="Trazado_214092" data-name="Trazado 214092" d="M81.906,22.74a3.041,3.041,0,0,1,3.356-3.881,4.929,4.929,0,0,0-3.356,3.881" transform="translate(-13.331 -3.069)" fill="#252727"/>
        <path id="Trazado_214093" data-name="Trazado 214093" d="M86.816,32.74s-5.557,13.408-4.845,21.318-.032,59.5-.032,59.5,15.282-.849,17.206-4.411-4.7-49.318-4.7-49.318l-1.122-24.32s-2.626-3.177-6.5-2.771" transform="translate(-13.351 -5.331)" fill="#fde4d9"/>
        <path id="Trazado_214094" data-name="Trazado 214094" d="M86.722,103.781l-1.812,2.726,11.225,5.933,1.261-2.084Z" transform="translate(-13.841 -16.917)" fill="#e1bfb2"/>
        <path id="Trazado_214095" data-name="Trazado 214095" d="M116.009,115.526a66.856,66.856,0,0,1-30.351,0L88.2,83.776h25.271l2.149,26.824Z" transform="translate(-13.962 -13.656)" fill="#8c5be1"/>
        <path id="Trazado_214096" data-name="Trazado 214096" d="M93.077,97.022c.771.326,2.406-5.216,2.406-5.216l1.6-.119-.466,2.38,1.056,3.372s.682.088,1.523.145c.1.008.212.013.32.02a13.934,13.934,0,0,0,1.5.014c.044,0,.09-.005.134-.006a4.343,4.343,0,0,0,.616-.087.948.948,0,0,0,.434-.193l-.234-2.745a24.831,24.831,0,0,0,2.9-3.189,8.554,8.554,0,0,0-.536-2.275c-.164-.521-.817-2.544-.988-3.052l-2.462-.41L98.268,87.45c-.317.2-.732.473-1.183.793h0c-.223.157-.453.326-.685.5a11.64,11.64,0,0,0-2.231,2.108,2.814,2.814,0,0,0-.472.888c-.556,1.959-1.388,4.958-.619,5.283" transform="translate(-15.121 -13.963)" fill="#ffa07f"/>
        <path id="Trazado_214097" data-name="Trazado 214097" d="M102.458,99.129c.044,0,.09,0,.134-.006-.024-.112-.059-.259-.1-.435-.088-.4-.2-.945-.306-1.536a9.168,9.168,0,0,1-.157-1.54c0-.1,0-.2.005-.28s.015-.155.022-.213l.016-.189s-.037.059-.1.17c-.031.055-.069.125-.11.205s-.069.177-.107.285a3.613,3.613,0,0,0-.116,1.711,4.3,4.3,0,0,0,.593,1.516c.082.128.158.232.222.313" transform="translate(-16.559 -15.474)" fill="#cf4a57"/>
        <path id="Trazado_214098" data-name="Trazado 214098" d="M100.333,99.165c.1.008.212.013.321.02a.711.711,0,0,0-.014-.071c-.088-.4-.2-.944-.3-1.534a9.12,9.12,0,0,1-.158-1.542c0-.1,0-.2,0-.278s.017-.156.022-.214c.011-.121.017-.187.017-.187s-.036.057-.1.167c-.029.055-.069.124-.108.206s-.07.178-.108.285a3.589,3.589,0,0,0-.116,1.712,4.25,4.25,0,0,0,.544,1.437" transform="translate(-16.257 -15.544)" fill="#cf4a57"/>
        <path id="Trazado_214099" data-name="Trazado 214099" d="M95.151,36.057s17.8,18.548,18.226,24.32-6.2,20.5-6.2,20.5L97.77,77.585l3.558-17.85-7.941-5.558-.25-17.1Z" transform="translate(-15.182 -5.877)" fill="#fde4d9"/>
        <path id="Trazado_214100" data-name="Trazado 214100" d="M93.9,52.441a14.218,14.218,0,0,1-1.859-14.115c.157-.382-.463-.547-.619-.171A14.849,14.849,0,0,0,93.447,52.9c.253.326.7-.131.454-.454" transform="translate(-14.722 -6.185)" fill="#e1bfb2"/>
        <path id="Trazado_214101" data-name="Trazado 214101" d="M108.114,63.871l-2.72-.221,1.814-.8c.377-.166.051-.719-.323-.553l-2.933,1.295c-.319.141-.119.574.162.6l4,.324c.412.033.409-.608,0-.641" transform="translate(-16.918 -10.149)" fill="#e1bfb2"/>
        <path id="Trazado_214102" data-name="Trazado 214102" d="M112.161,82.179h-1.3a7.917,7.917,0,0,0-15.708,0H93.842a9.215,9.215,0,0,1,18.319,0" transform="translate(-15.297 -12.059)" fill="#254f79"/>
      </g>
    </g>
    <g id="Grupo_177368" data-name="Grupo 177368" transform="translate(928.057 4287.035)">
      <g id="Grupo_177367" data-name="Grupo 177367" clip-path="url(#clip-path-3)">
        <path id="Trazado_226313" data-name="Trazado 226313" d="M52.345,694.938a6.686,6.686,0,1,1-6.686-6.686,6.686,6.686,0,0,1,6.686,6.686" transform="translate(-34.673 -612.312)" fill="#1f3050"/>
        <path id="Trazado_226314" data-name="Trazado 226314" d="M554.379,694.938a6.686,6.686,0,1,1-6.686-6.686,6.686,6.686,0,0,1,6.686,6.686" transform="translate(-481.313 -612.312)" fill="#1f3050"/>
        <path id="Trazado_226315" data-name="Trazado 226315" d="M31.669,671.824l-.542.095a2.491,2.491,0,0,1-2.884-2.024l-1.309-7.466,5.615-.009,1.143,6.519a2.491,2.491,0,0,1-2.024,2.884" transform="translate(-23.963 -589.331)" fill="#ffab00"/>
        <path id="Trazado_226316" data-name="Trazado 226316" d="M533.7,671.824l-.541.095a2.491,2.491,0,0,1-2.884-2.024l-1.308-7.466,5.615-.009,1.143,6.519a2.491,2.491,0,0,1-2.024,2.884" transform="translate(-470.605 -589.331)" fill="#ffab00"/>
        <path id="Trazado_226317" data-name="Trazado 226317" d="M64.853,503.291h-64a.853.853,0,0,1,0-1.707h64a5.34,5.34,0,0,0,3.77-9.1,21.83,21.83,0,0,0-13.606-6.311l-17.329-1.444a.836.836,0,1,1,.182-1.661l17.289,1.4a23.535,23.535,0,0,1,14.671,6.8,7.038,7.038,0,0,1-4.976,12.015" transform="translate(0 -429.764)" fill="#ffab00"/>
        <path id="Trazado_226318" data-name="Trazado 226318" d="M594.4,54.968a.853.853,0,0,1-.853-.853V14.9A14.229,14.229,0,0,1,606.95.7L619.1,0a.853.853,0,1,1,.1,1.7l-12.148.7A12.521,12.521,0,0,0,595.255,14.9V54.115a.853.853,0,0,1-.853.853" transform="translate(-528.057 -0.001)" fill="#ffab00"/>
        <path id="Trazado_226319" data-name="Trazado 226319" d="M132.641,171.605l-.156-.176H74.551A1.167,1.167,0,0,0,73.4,172.8l6.185,33.949a.886.886,0,0,0,.872.727h52.024l.156-.176ZM78.519,191.358h7.407l1,6.587H79.719Zm52.26-10.845h-5.732v-7.377h5.732Zm-5.732,10.845h5.732v6.587h-5.732Zm5.732,14.416h-5.732v-6.62h5.732Zm-5.732-24.053h5.732v8.427h-5.732Zm-1.209-1.209h-9.855v-7.377h9.855Zm0,9.636h-9.855v-8.427h9.855Zm0,7.8h-9.855v-6.587h9.855Zm0,7.829h-9.855v-6.62h9.855Zm-10.775-25.261H97.393l-.847-7.378h16.517Zm0,1.209v8.427H98.5l-.967-8.427Zm0,9.636v6.587H99.394l-.756-6.587Zm0,7.8v6.62h-12.77l-.76-6.62Zm-17.88-26.019.847,7.378H85.854l-1.122-7.378Zm.986,8.586.967,8.427H87.319l-1.282-8.427Zm-10.426,8.427H78.3l-1.535-8.427h7.7Zm1.761,1.209h9.771l.756,6.587H88.505Zm10.666,7.8.76,6.62H89.7l-1.007-6.62ZM83.155,173.136l1.122,7.378H76.543L75.2,173.136Zm-3.216,26.019h7.173l1.007,6.62H81.145Z" transform="translate(-65.287 -152.514)" fill="#ffab00"/>
      </g>
    </g>
  </g>
</svg>
