<svg xmlns="http://www.w3.org/2000/svg" width="60.001" height="60.001" viewBox="0 0 60.001 60.001">
  <g id="Grupo_181374" data-name="Grupo 181374" transform="translate(-296.999 -6591)">
    <circle id="Elipse_6255" data-name="Elipse 6255" cx="30" cy="30" r="30" transform="translate(297 6591)" fill="#d7e6f8"/>
    <path id="Intersección_8" data-name="Intersección 8" d="M7292,11730a30.344,30.344,0,0,1,.2-3.494,30.026,30.026,0,1,1-.2,3.494Z" transform="translate(-6995 -5109)" fill="#c6dcf6"/>
    <g id="respuestas" transform="translate(300.879 6596.388)">
      <path id="Trazado_226354" data-name="Trazado 226354" d="M28.348,28.765l-2.417-2.416a.762.762,0,0,1,0-1.078.771.771,0,0,1,1.086,0l1.874,1.874,4.283-4.283a.768.768,0,0,1,1.086,1.086l-4.826,4.819A.77.77,0,0,1,28.348,28.765Z" transform="translate(-4.399 -3.266)" fill="#12263f"/>
      <g id="ARC_309_" transform="translate(17.699 13.863)">
        <g id="Grupo_177399" data-name="Grupo 177399">
          <path id="Trazado_226355" data-name="Trazado 226355" d="M29.453,32.275a8.426,8.426,0,1,1,6.557-3.183.765.765,0,0,1-1.2-.951,6.9,6.9,0,1,0-4.521,2.552,6.867,6.867,0,0,0,2.428-.789.765.765,0,1,1,.734,1.342,8.391,8.391,0,0,1-2.968.964,7.976,7.976,0,0,1-1.033.067Z" transform="translate(-20.988 -15.435)" fill="#12263f"/>
        </g>
      </g>
      <g id="LWPOLYLINE_58_" transform="translate(7 8.75)">
        <g id="Grupo_177400" data-name="Grupo 177400">
          <path id="Trazado_226356" data-name="Trazado 226356" d="M38.8,44.315a.766.766,0,0,1-.509-.193l-9.354-8.316H10.6a3.6,3.6,0,0,1-3.6-3.6V12.351a3.6,3.6,0,0,1,3.6-3.6H41.641a3.6,3.6,0,0,1,3.6,3.6V32.2a3.6,3.6,0,0,1-3.6,3.6H39.57v7.745a.765.765,0,0,1-.766.765ZM10.6,10.28A2.074,2.074,0,0,0,8.53,12.351V32.2A2.074,2.074,0,0,0,10.6,34.276H29.233a.77.77,0,0,1,.509.193l8.3,7.378V35.041a.765.765,0,0,1,.765-.765h2.836A2.074,2.074,0,0,0,43.713,32.2V12.351a2.074,2.074,0,0,0-2.071-2.071Z" transform="translate(-7 -8.75)" fill="#12263f"/>
        </g>
      </g>
    </g>
  </g>
</svg>
