<svg id="Grupo_177567" data-name="Grupo 177567" xmlns="http://www.w3.org/2000/svg" xmlns:xlink="http://www.w3.org/1999/xlink" width="295" height="226.728" viewBox="0 0 295 226.728">
  <defs>
    <clipPath id="clip-path">
      <rect id="Rectángulo_57527" data-name="Rectángulo 57527" width="295" height="226.728" fill="none"/>
    </clipPath>
  </defs>
  <g id="Grupo_177566" data-name="Grupo 177566" clip-path="url(#clip-path)">
    <path id="Trazado_226606" data-name="Trazado 226606" d="M125.541,257.532c0,2.835-17.429,5.134-38.929,5.134s-38.929-2.3-38.929-5.134S65.112,252.4,86.612,252.4s38.929,2.3,38.929,5.134" transform="translate(-6.789 -35.938)" fill="#afafaf" opacity="0.55"/>
    <path id="Trazado_226607" data-name="Trazado 226607" d="M330.909,250.263c0,2.126-17.621,3.85-39.357,3.85s-39.356-1.724-39.356-3.85,17.621-3.85,39.356-3.85,39.357,1.724,39.357,3.85" transform="translate(-35.909 -35.085)" fill="#afafaf" opacity="0.55"/>
    <path id="Trazado_226608" data-name="Trazado 226608" d="M12.16,199.374H7.526v-4.635H4.635v4.635H0v2.892H4.635V206.9H7.526v-4.634H12.16Z" transform="translate(0 -27.728)" fill="#30c5cc"/>
    <path id="Trazado_226609" data-name="Trazado 226609" d="M18.148,189.723a2.864,2.864,0,1,1-2.864-2.866,2.865,2.865,0,0,1,2.864,2.866" transform="translate(-1.768 -26.606)" fill="#3d9cff"/>
    <path id="Trazado_226610" data-name="Trazado 226610" d="M259.2,200.205H41.144a15.9,15.9,0,0,1-15.851-15.85V15.851A15.9,15.9,0,0,1,41.144,0H259.2a15.9,15.9,0,0,1,15.85,15.851v168.5a15.9,15.9,0,0,1-15.85,15.85" transform="translate(-3.601)" fill="#383838"/>
    <rect id="Rectángulo_57493" data-name="Rectángulo 57493" width="234.661" height="185.946" rx="12.013" transform="translate(29.24 7.13)" fill="#43a99b"/>
    <path id="Trazado_226611" data-name="Trazado 226611" d="M256.972,189.775H47.921a6.655,6.655,0,0,1-6.655-6.655V21.237a6.655,6.655,0,0,1,6.655-6.655H256.972a6.655,6.655,0,0,1,6.655,6.655V183.12a6.655,6.655,0,0,1-6.655,6.655" transform="translate(-5.876 -2.076)" fill="#c1d5f5"/>
    <path id="Trazado_226612" data-name="Trazado 226612" d="M7.809,218.408a28.582,28.582,0,0,0,24.41,13.811H263.146a28.582,28.582,0,0,0,24.41-13.811Z" transform="translate(-1.112 -31.098)" fill="#0b9b9b"/>
    <path id="Trazado_226613" data-name="Trazado 226613" d="M10.794,222.462H284.57a28.806,28.806,0,0,0,2.986-4.054H7.809a28.8,28.8,0,0,0,2.985,4.054" transform="translate(-1.112 -31.098)" fill="#30c5cc"/>
    <rect id="Rectángulo_57494" data-name="Rectángulo 57494" width="62.172" height="34.793" transform="translate(52.872 116.643)" fill="#feba40"/>
    <rect id="Rectángulo_57495" data-name="Rectángulo 57495" width="23.388" height="3.222" transform="translate(113.685 27.578)" fill="#30c5cc"/>
    <rect id="Rectángulo_57496" data-name="Rectángulo 57496" width="14.278" height="3.222" transform="translate(83.443 27.578)" fill="#30c5cc"/>
    <rect id="Rectángulo_57497" data-name="Rectángulo 57497" width="28.288" height="3.222" transform="translate(50.842 27.578)" fill="#30c5cc"/>
    <rect id="Rectángulo_57498" data-name="Rectángulo 57498" width="6.135" height="3.222" transform="translate(102.191 27.578)" fill="#30c5cc"/>
    <rect id="Rectángulo_57499" data-name="Rectángulo 57499" width="14.229" height="3.222" transform="translate(143.024 27.578)" fill="#30c5cc"/>
    <rect id="Rectángulo_57500" data-name="Rectángulo 57500" width="8.774" height="3.222" transform="translate(113.685 36.99)" fill="#30c5cc"/>
    <rect id="Rectángulo_57501" data-name="Rectángulo 57501" width="8.774" height="3.222" transform="translate(125.948 36.99)" fill="#30c5cc"/>
    <rect id="Rectángulo_57502" data-name="Rectángulo 57502" width="14.278" height="3.222" transform="translate(68.898 36.99)" fill="#30c5cc"/>
    <rect id="Rectángulo_57503" data-name="Rectángulo 57503" width="14.008" height="3.222" transform="translate(50.842 36.99)" fill="#30c5cc"/>
    <rect id="Rectángulo_57504" data-name="Rectángulo 57504" width="23.512" height="3.222" transform="translate(87.094 36.99)" fill="#30c5cc"/>
    <path id="Trazado_226614" data-name="Trazado 226614" d="M100.793,244.6c-1.479-4.745-4.348-24.82-4.99-32.683-.135-1.665-18.43-8.811-18.43-8.811-10.71-.272-16.221,3.929-16.221,3.929l25.716,8.685c0,11.6,9.886,29.089,9.887,29.09l4.039-.21" transform="translate(-8.707 -28.917)" fill="#2f2f8e"/>
    <path id="Trazado_226615" data-name="Trazado 226615" d="M78,217.783l-7.636,26.6,4.362.951c1.9-6.274,12.893-27.774,13.19-30.33.127-1.09.049-1.931-.358-2.273s-12.735-7.708-16.315-8.513c-4.795-1.078-11.917-2.8-11.917-2.8a14.365,14.365,0,0,0-3.232,11.027C56.872,219.265,78,217.783,78,217.783" transform="translate(-7.972 -28.678)" fill="#4c49a2"/>
    <path id="Trazado_226616" data-name="Trazado 226616" d="M68.139,165.97s-8.369.742-8.749,3.023,3.992,16.721,3.992,16.721l-4.251,11.348s12.071,2.97,17.952.755c.558.256,1.509-11.912,1.509-11.912l2.1-5.978,2.658,9.02L89.43,197.5l3.993-3.232-4.434-7.792s-6.863-15.661-8.685-17.484c-3.422-3.422-12.164-3.023-12.164-3.023" transform="translate(-8.419 -23.629)" fill="#fff"/>
    <path id="Trazado_226617" data-name="Trazado 226617" d="M76.189,165.245l-.648-8.606H69.267v8.039c-.794.088.856,6.505,5.912,6.505,0,0,2.359-.855,1.011-5.938" transform="translate(-9.835 -22.303)" fill="#e67750"/>
    <path id="Trazado_226618" data-name="Trazado 226618" d="M62.056,183.675c.732,2.6,1.327,4.562,1.327,4.562l-4.25,11.348s9.183,2.26,15.434,1.365c-.557-.409-7.968-5.4-8.332-7.58-.76-4.563-4.178-9.7-4.178-9.7" transform="translate(-8.419 -26.152)" fill="#efefef"/>
    <path id="Trazado_226619" data-name="Trazado 226619" d="M81.175,146.1c-.531-2.2-3.968-2.841-9.4-2.2-3.695.434-4.526,3.835-4.629,6.363-.056.014-.111.02-.166.037a3,3,0,0,0-2.115,2.981,2.931,2.931,0,0,0,.733,1.831,3.069,3.069,0,0,0,2.235,1.426,2.878,2.878,0,0,0,.774-.015c1.538,3.2,4.36,7.192,8.321,6.716,5.805-4.059,4.249-17.136,4.249-17.136" transform="translate(-9.235 -20.456)" fill="#fd9e71"/>
    <path id="Trazado_226620" data-name="Trazado 226620" d="M68.749,151.489a4.212,4.212,0,0,1,1.507-4.911c2.707-2.033,2.89.967,5.744,1.335s5.671.136,5.364,2.022c1.728-4.261-.77-6.7-3.563-8.035s-7.165-1.912-10.2.623-2.626,8.622-2.626,8.622c2-.968,2.539-.184,3.776.343" transform="translate(-9.248 -20.042)" fill="#201251"/>
    <path id="Trazado_226621" data-name="Trazado 226621" d="M65.485,141.926s-2.521-6.773-7.3-5.1-2.623,11.3-3.15,15.492-3.528,4.372-4.605,2.51c-2,3.8,5.828,7.655,8.376,4.006s1.08-12.9,2.708-13.839a3.168,3.168,0,0,1,3.27.282Z" transform="translate(-7.135 -19.444)" fill="#201251"/>
    <path id="Trazado_226622" data-name="Trazado 226622" d="M58.708,168.51C56.7,169.669,53,183.52,53,185.8s17.811,13.641,17.811,13.641.822-2.8,2.723-3.374c-.38-.19-13.308-12.549-13.308-12.549l3.422-9.687s0-8.175-4.943-5.323" transform="translate(-7.547 -23.907)" fill="#fff"/>
    <path id="Trazado_226623" data-name="Trazado 226623" d="M72.183,206.621l18.155-.557,11.788,4.373L82.171,211.5Z" transform="translate(-10.278 -29.34)" fill="#30c5cc"/>
    <path id="Trazado_226624" data-name="Trazado 226624" d="M82.171,211.588l-9.988-3.869v-1.006L82.961,210.6Z" transform="translate(-10.278 -29.433)" fill="#0b9b9b"/>
    <path id="Trazado_226625" data-name="Trazado 226625" d="M83.829,209.678l6-16.383,19.848,1.064L103.784,209Z" transform="translate(-11.936 -27.522)" fill="#0b9b9b"/>
    <path id="Trazado_226626" data-name="Trazado 226626" d="M97.985,201.492c-.59,1.18-.412,2.465.4,2.87s1.946-.223,2.536-1.4.413-2.466-.4-2.871-1.946.223-2.536,1.4" transform="translate(-13.902 -28.472)" fill="#30c5cc"/>
    <path id="Trazado_226627" data-name="Trazado 226627" d="M76.495,200.744s7.225,5.7,6.465,6.084a8.963,8.963,0,0,1-5.7-.57c-1.711-.95-3.484-2.139-3.484-2.139s.631-3.184,2.723-3.375" transform="translate(-10.504 -28.583)" fill="#fd9e71"/>
    <path id="Trazado_226628" data-name="Trazado 226628" d="M76.986,251.052c1.282,1.3,5.646,3.27,7.795,3.8,2.305.571,1.9,2.506.217,2.506-3.306,0-10.661-.415-14.286-.415-.57-1.711.413-4,1.566-5.54.352-.47,4.524-.539,4.708-.353" transform="translate(-10.044 -35.732)" fill="#201251"/>
    <path id="Trazado_226629" data-name="Trazado 226629" d="M107.358,251.052c1.282,1.3,5.646,3.27,7.795,3.8,2.305.571,1.9,2.506.217,2.506-3.306,0-10.661-.415-14.286-.415-.57-1.711.413-4,1.566-5.54.352-.47,4.524-.539,4.708-.353" transform="translate(-14.369 -35.732)" fill="#201251"/>
    <rect id="Rectángulo_57505" data-name="Rectángulo 57505" width="17.434" height="4.804" transform="translate(53.208 103.12)" fill="#31d0a8"/>
    <rect id="Rectángulo_57506" data-name="Rectángulo 57506" width="17.434" height="4.804" transform="translate(97.609 103.12)" fill="#31d0a8"/>
    <rect id="Rectángulo_57507" data-name="Rectángulo 57507" width="17.434" height="4.804" transform="translate(75.409 103.12)" fill="#31d0a8"/>
    <rect id="Rectángulo_57508" data-name="Rectángulo 57508" width="56.881" height="21.19" transform="translate(111.785 24.008) rotate(-13.777)" fill="#feba40"/>
    <rect id="Rectángulo_57509" data-name="Rectángulo 57509" width="41.898" height="2.93" transform="matrix(0.971, -0.238, 0.238, 0.971, 115.388, 26.084)" fill="#fedb9b"/>
    <rect id="Rectángulo_57510" data-name="Rectángulo 57510" width="35.009" height="2.93" transform="matrix(0.971, -0.238, 0.238, 0.971, 116.629, 31.141)" fill="#fedb9b"/>
    <rect id="Rectángulo_57511" data-name="Rectángulo 57511" width="16.61" height="2.93" transform="matrix(0.971, -0.238, 0.238, 0.971, 117.987, 36.68)" fill="#fedb9b"/>
    <rect id="Rectángulo_57512" data-name="Rectángulo 57512" width="8.896" height="2.928" transform="translate(152.325 22.466) rotate(-13.775)" fill="#fff"/>
    <rect id="Rectángulo_57513" data-name="Rectángulo 57513" width="62.047" height="50.631" transform="translate(52.551 47.193)" fill="#fff"/>
    <rect id="Rectángulo_57514" data-name="Rectángulo 57514" width="122.023" height="22.833" transform="translate(119.244 76.395)" fill="#4cb0dd"/>
    <rect id="Rectángulo_57515" data-name="Rectángulo 57515" width="33.022" height="16.224" transform="translate(204.594 79.699)" fill="#fff"/>
    <rect id="Rectángulo_57516" data-name="Rectángulo 57516" width="76.325" height="3.129" transform="translate(123.706 80.683)" fill="#75d5ef"/>
    <rect id="Rectángulo_57517" data-name="Rectángulo 57517" width="76.325" height="3.129" transform="translate(123.706 86.246)" fill="#75d5ef"/>
    <rect id="Rectángulo_57518" data-name="Rectángulo 57518" width="51.386" height="3.129" transform="translate(123.705 91.81)" fill="#75d5ef"/>
    <rect id="Rectángulo_57519" data-name="Rectángulo 57519" width="117.264" height="55.02" transform="translate(119.271 115.538)" fill="#fff"/>
    <rect id="Rectángulo_57520" data-name="Rectángulo 57520" width="117.264" height="9.122" transform="translate(119.271 115.538)" fill="#fdbe44"/>
    <rect id="Rectángulo_57521" data-name="Rectángulo 57521" width="67.712" height="4.644" transform="translate(122.116 137.632)" fill="#e8e8e8"/>
    <rect id="Rectángulo_57522" data-name="Rectángulo 57522" width="60.723" height="4.644" transform="translate(122.116 145.889)" fill="#e8e8e8"/>
    <rect id="Rectángulo_57523" data-name="Rectángulo 57523" width="40.955" height="4.644" transform="translate(122.116 154.145)" fill="#e8e8e8"/>
    <rect id="Rectángulo_57524" data-name="Rectángulo 57524" width="24.408" height="4.644" transform="translate(122.116 130.026)" fill="#e8e8e8"/>
    <path id="Trazado_226660" data-name="Trazado 226660" d="M0,0H35.417V35.417H0Z" transform="translate(196.423 129.799)" fill="#afafaf"/>
    <path id="Trazado_226630" data-name="Trazado 226630" d="M251.537,170.085a4.483,4.483,0,0,0,.889-2.681V164.7a4.51,4.51,0,0,0-9.02,0V167.4a4.485,4.485,0,0,0,.976,2.8,10.642,10.642,0,0,0-7.105,10.036h22.306s-.864-8.069-8.045-10.152" transform="translate(-33.785 -22.808)" fill="#f6fffa"/>
    <path id="Trazado_226631" data-name="Trazado 226631" d="M148.058,139.924a2.3,2.3,0,1,1-2.3-2.3,2.3,2.3,0,0,1,2.3,2.3" transform="translate(-20.426 -19.595)" fill="#db5a28"/>
    <path id="Trazado_226632" data-name="Trazado 226632" d="M156.658,139.924a2.3,2.3,0,1,1-2.3-2.3,2.3,2.3,0,0,1,2.3,2.3" transform="translate(-21.65 -19.595)" fill="#ffe780"/>
    <path id="Trazado_226633" data-name="Trazado 226633" d="M166.634,139.924a2.3,2.3,0,1,1-2.3-2.3,2.3,2.3,0,0,1,2.3,2.3" transform="translate(-23.071 -19.595)" fill="#1fb288"/>
    <path id="Trazado_226661" data-name="Trazado 226661" d="M0,0H41.068V41.068H0Z" transform="translate(196.609 25.382)" fill="#8c5be1"/>
    <path id="Trazado_226634" data-name="Trazado 226634" d="M294.358,242.286s.354,1.081-2.959,2.593-6.811.978-7.669,2.247a6.958,6.958,0,0,0-1.058,2.473h18.85s-.143-5.2-2.277-7.515c.272.5-4.887.2-4.887.2" transform="translate(-40.248 -34.469)" fill="#9e472d"/>
    <path id="Trazado_226635" data-name="Trazado 226635" d="M318.37,242.279s.34,1.039-2.845,2.492-6.548.941-7.374,2.161a6.67,6.67,0,0,0-1.017,2.377h18.123s-.137-5-2.189-7.225c.261.478-4.7.195-4.7.195" transform="translate(-43.731 -34.469)" fill="#9e472d"/>
    <path id="Trazado_226636" data-name="Trazado 226636" d="M288.1,123.526l-13.686,2.406-9.625-20.6,14.738-1.2Z" transform="translate(-37.701 -14.826)" fill="#fff"/>
    <path id="Trazado_226637" data-name="Trazado 226637" d="M272.037,124.319a.016.016,0,0,1,.011,0c-.047.021-.054.022-.011,0" transform="translate(-38.73 -17.701)" fill="#262845"/>
    <path id="Trazado_226638" data-name="Trazado 226638" d="M302.714,81.425a18.3,18.3,0,0,0-1.8,6.918c0,2.312.293,5.654.471,7.456a1.04,1.04,0,0,0,1.341.894l2.7-.83-.151,3.91,7.531-.13,1.643-15.811s-6.316-6.918-11.73-2.406" transform="translate(-42.845 -11.376)" fill="#fd9e71"/>
    <path id="Trazado_226639" data-name="Trazado 226639" d="M303.219,89.429s.424-3.13,2.785-2.482-.345,3.806-.345,3.806l2.256,4.061a6.93,6.93,0,0,0,5.264-.15s2.507-7.621,2.507-10.027a5.648,5.648,0,0,0-2.194-4.031s-5.878-2.937-9.036-2.787a3.669,3.669,0,0,0-3.46,3.31s-1.2,2.4,0,3.458,2.223,4.842,2.223,4.842" transform="translate(-42.781 -11.079)" fill="#201251"/>
    <path id="Trazado_226640" data-name="Trazado 226640" d="M313.825,100.382l-.34,2.176-7.782.03s1.5-2.406,8.122-2.206" transform="translate(-43.527 -14.291)" fill="#6aa5cc"/>
    <path id="Trazado_226641" data-name="Trazado 226641" d="M275.354,121.99s.545-1.706-1.654-2.707a6.351,6.351,0,0,0-.9-2.858c-.462-.461-.752,2.105-.752,2.105s-2.154-3.835-2.708-2.858,4.864,8.522,5.014,8.823,1-2.507,1-2.507" transform="translate(-38.344 -16.447)" fill="#fd9e71"/>
    <path id="Trazado_226642" data-name="Trazado 226642" d="M299.109,151.891,293.9,196.007l1.057,34.2,6.563-.469s1.855-17.986,2.005-22.5a64.948,64.948,0,0,0-1.2-11.43l6.617-27.271,1.1.2.3,26.87,6.028,34.129,5.516.266s.136-17.6-.315-21.962a118.512,118.512,0,0,0-2.808-13.084l2.406-27.824a21.471,21.471,0,0,0-1.9-15.541c-.551.051-20.153.3-20.153.3" transform="translate(-41.846 -21.584)" fill="#201251"/>
    <path id="Trazado_226643" data-name="Trazado 226643" d="M301.175,102.951s-9.324,3.008-11.029,4.713-6.592,19.272-6.592,19.272l-7.367-7.382-2.283,5.354s8.622,12.834,11.329,13.235,8.823-16.242,8.823-16.242a115.278,115.278,0,0,0,1.6,13.635,28.434,28.434,0,0,1,.6,9.425c8.344,1.515,15.441,1.2,20.153-.3l2.335-17.516s3.179.371,4.182-.732-3.609-19.251-4.612-20.655-9.363-2.837-9.363-2.837Z" transform="translate(-39 -14.654)" fill="#96c4ea"/>
    <path id="Trazado_226644" data-name="Trazado 226644" d="M315.993,116.96c-.05-.356-.638-.269-.624.084a114.243,114.243,0,0,1-1.16,22.35c-.079.5.666.729.777.214a65.026,65.026,0,0,0,1.007-22.648" transform="translate(-44.738 -16.621)" fill="#6aa5cc"/>
    <path id="Trazado_226645" data-name="Trazado 226645" d="M325.75,123.484c-.051-.252-.433-.185-.437.059a74.631,74.631,0,0,1-1.461,12.941,45.872,45.872,0,0,0-1.172,11.619c.035.55.886.558.863,0-.19-4.538.732-8.92,1.558-13.357.685-3.684,1.393-7.534.649-11.262" transform="translate(-45.937 -17.559)" fill="#6aa5cc"/>
    <path id="Trazado_226646" data-name="Trazado 226646" d="M296.745,123.348c-2.5,1.591-3.443,4.706-4.4,7.356-1.3,3.585-2.593,7.107-5.416,9.8-.421.4.207,1.019.634.635,5.213-4.693,4.966-12.364,9.411-17.494.132-.153-.038-.415-.227-.294" transform="translate(-40.834 -17.558)" fill="#6aa5cc"/>
    <path id="Trazado_226647" data-name="Trazado 226647" d="M320.227,149.938s-12.633,1.6-20.253-.8c.2,0,0,2.406,0,2.406a38.289,38.289,0,0,0,20.855.8c-.089-.035-.6-2.406-.6-2.406" transform="translate(-42.712 -21.235)" fill="#9e472d"/>
    <path id="Trazado_226648" data-name="Trazado 226648" d="M169.352,209.944s-1.045,2.281-2.852,2.662-6.56,1.425-7.321,2.091a3.826,3.826,0,0,0-.76,2.377h15.087s-.027-4.569-.9-6.942c.36,0-3.252-.188-3.252-.188" transform="translate(-22.557 -29.893)" fill="#1a133a"/>
    <path id="Trazado_226649" data-name="Trazado 226649" d="M203.271,209.944s-1.045,2.281-2.852,2.662-6.56,1.425-7.321,2.091a3.826,3.826,0,0,0-.76,2.377h15.087s-.027-4.569-.9-6.942c.36,0-3.252-.188-3.252-.188" transform="translate(-27.386 -29.893)" fill="#1a133a"/>
    <path id="Trazado_226650" data-name="Trazado 226650" d="M202.188,35.968s-4.2-1.072-4.456-.4,6.5,2.665,6.5,2.665l6.078,16.853-2.275,5.392,4.183,4.563s4.563-6.179,4.944-7.985S206.319,37.09,206.319,37.09s-2.226-7.074-2.567-7.415-4.359-.127-5.269-.111,2.649,3.618,2.649,3.618Z" transform="translate(-28.153 -4.198)" fill="#e79673"/>
    <path id="Trazado_226651" data-name="Trazado 226651" d="M183.436,51.111a15.41,15.41,0,0,0-2.43,5.805,19.551,19.551,0,0,0,.143,5.847l3.675-.122V66.08h7.3a38.373,38.373,0,0,1,.428-4.03c.286-1.426,2.281-4.135,2.281-4.135l-3.28-9.268-4.706-.428Z" transform="translate(-25.75 -6.865)" fill="#e79673"/>
    <path id="Trazado_226652" data-name="Trazado 226652" d="M185.661,54.875s1.283-2.995,2.852-1.853-.427,3.564-.427,3.564,1,4.135,2.709,4.706l1.711.57a62.509,62.509,0,0,0,5.134-5.276c.713-1.141-1.141-7.7-2.424-9.126s-6.845-1.284-7.273-2-1.853-2-3.28-1.426-1.141,5.276-1.141,5.276,1.763,1.518,1.88,2.613a5.367,5.367,0,0,1-.7,2.545Z" transform="translate(-26.127 -6.25)" fill="#201251"/>
    <path id="Trazado_226653" data-name="Trazado 226653" d="M176.051,68.595s7.289-1.064,11.471-1.159,10.838,2.092,10.838,2.092l4.843-5.185,6.169,5.8s-5.251,7.75-6.943,9.558S199.5,89.966,199.12,92.533s-1.33,17.587-1.33,17.587-4.468,5.323-22.816-.476c-.19-.19.761-11.027.666-13.689s-2.472-11.693-2.947-13.879-8.056-6.562-8.056-6.562-.936-5.326,2.562-7.89c.455.287,8.852.972,8.852.972" transform="translate(-23.426 -9.161)" fill="#201251"/>
    <path id="Trazado_226654" data-name="Trazado 226654" d="M156.552,42.676s-2.757,2.567-2.947,3.612S157.4,59.245,157.4,59.245l7.254,4.247-2.561,7.891s-7.916-5.511-9.056-7.128S149.9,46.478,149.9,46.478s-2.567-3.232-2.757-4.088-.788-3.653-.346-4.2,3.383-3.593,3.814-2.689,2.014,7.489,2.014,7.489,3.265-1.451,3.93-.31" transform="translate(-20.878 -5.031)" fill="#e79673"/>
    <path id="Trazado_226655" data-name="Trazado 226655" d="M175.667,117.113l-4.135,38.976-2.139,41.353,7.13.285s4.421-27.437,4.492-31.614-.072-9.168-.072-9.168l4.563-20.819h2.566l5.277,27.094,5.418,33.653,5.7.285s.855-20.962,0-25.24-2.14-8.413-2.14-8.413l-2.566-28.091s2.281-9.982-1.284-17.825c-.713-1.425-22.815-.475-22.815-.475" transform="translate(-24.119 -16.631)" fill="#4c49a2"/>
    <path id="Trazado_226656" data-name="Trazado 226656" d="M123.894,64.695H119.26V60.06h-2.891v4.635h-4.635v2.892h4.635V72.22h2.891V67.586h4.635Z" transform="translate(-15.909 -8.552)" fill="#fdbe44"/>
    <path id="Trazado_226657" data-name="Trazado 226657" d="M74.414,104.758a7.246,7.246,0,1,1,7.245-7.246,7.255,7.255,0,0,1-7.245,7.246m0-10.71a3.464,3.464,0,1,0,3.464,3.464,3.468,3.468,0,0,0-3.464-3.464" transform="translate(-9.563 -12.853)" fill="#30c5cc"/>
    <path id="Trazado_226658" data-name="Trazado 226658" d="M333.4,28.78h-4.634V24.146h-2.892V28.78h-4.635v2.892h4.635v4.634h2.892V31.672H333.4Z" transform="translate(-45.739 -3.438)" fill="#30c5cc"/>
    <path id="Trazado_226659" data-name="Trazado 226659" d="M242.014,48.891a7.246,7.246,0,1,1,7.245-7.246,7.255,7.255,0,0,1-7.245,7.246m0-10.71a3.464,3.464,0,1,0,3.464,3.464,3.468,3.468,0,0,0-3.464-3.464" transform="translate(-33.427 -4.898)" fill="#feba40"/>
  </g>
</svg>
