<svg xmlns="http://www.w3.org/2000/svg" width="60" height="60.001" viewBox="0 0 60 60.001">
  <g id="Grupo_181376" data-name="Grupo 181376" transform="translate(-297 -6822)">
    <circle id="Elipse_6263" data-name="Elipse 6263" cx="30" cy="30" r="30" transform="translate(297 6822)" fill="#d7e6f8"/>
    <path id="Intersección_10" data-name="Intersección 10" d="M7292,11730a30.344,30.344,0,0,1,.2-3.494,30.026,30.026,0,1,1-.2,3.494Z" transform="translate(-6993.999 -4878)" fill="#c6dcf6"/>
    <g id="cheque" transform="translate(309 6830.002)">
      <path id="Trazado_226363" data-name="Trazado 226363" d="M2.613,31.4a.612.612,0,0,0,.612-.612V9.962A1.838,1.838,0,0,1,5.063,8.125h3.2l-.116.464a.612.612,0,0,0,.594.761h12.25a.613.613,0,0,0,.594-.761l-.116-.464h3.2A1.838,1.838,0,0,1,26.5,9.962v6.125a.612.612,0,1,0,1.225,0V9.962A3.066,3.066,0,0,0,24.663,6.9h-3.5l-.339-1.357a3.062,3.062,0,0,0-2.97-2.318H16.587a1.826,1.826,0,0,0-3.45,0H11.873A3.062,3.062,0,0,0,8.9,5.544L8.565,6.9h-3.5A3.066,3.066,0,0,0,2,9.962V30.787A.612.612,0,0,0,2.613,31.4ZM14.863,3.225a.612.612,0,1,1-.613.613A.613.613,0,0,1,14.863,3.225ZM11.873,4.45h1.264a1.826,1.826,0,0,0,3.45,0h1.264a1.838,1.838,0,0,1,1.782,1.392l.57,2.283H9.522l.569-2.282A1.838,1.838,0,0,1,11.874,4.45Z"/>
      <path id="Trazado_226364" data-name="Trazado 226364" d="M15.61,20.18a.613.613,0,0,0-.866,0l-1.266,1.266a4.3,4.3,0,1,0,.687,1.046l1.445-1.445A.613.613,0,0,0,15.61,20.18ZM13.34,24.288A3.1,3.1,0,1,1,12.6,22.32l-2.328,2.328-.792-.792a.612.612,0,1,0-.866.866l1.225,1.225a.612.612,0,0,0,.866,0l2.5-2.5A3.024,3.024,0,0,1,13.34,24.288Z" transform="translate(-1.54 -6.975)"/>
      <path id="Trazado_226365" data-name="Trazado 226365" d="M15.61,36.18a.612.612,0,0,0-.866,0l-1.266,1.266a4.3,4.3,0,1,0,.687,1.046l1.445-1.445A.612.612,0,0,0,15.61,36.18ZM13.34,40.288A3.1,3.1,0,1,1,12.6,38.32l-2.327,2.327-.792-.792a.612.612,0,1,0-.866.866l1.225,1.225a.613.613,0,0,0,.866,0l2.5-2.5A3.024,3.024,0,0,1,13.34,40.288Z" transform="translate(-1.54 -13.175)"/>
      <path id="Trazado_226366" data-name="Trazado 226366" d="M28.287,24H24.612a.612.612,0,0,0,0,1.225h3.675a.612.612,0,1,0,0-1.225Z" transform="translate(-8.525 -8.525)"/>
      <path id="Trazado_226367" data-name="Trazado 226367" d="M28.287,28H24.612a.612.612,0,1,0,0,1.225h3.675a.612.612,0,1,0,0-1.225Z" transform="translate(-8.525 -10.075)"/>
      <path id="Trazado_226368" data-name="Trazado 226368" d="M28.287,40H24.612a.613.613,0,0,0,0,1.225h3.675a.613.613,0,1,0,0-1.225Z" transform="translate(-8.525 -14.725)"/>
      <path id="Trazado_226369" data-name="Trazado 226369" d="M28.287,44H24.612a.612.612,0,1,0,0,1.225h3.675a.612.612,0,1,0,0-1.225Z" transform="translate(-8.525 -16.275)"/>
      <path id="Trazado_226370" data-name="Trazado 226370" d="M38.331,28.482l-7.35-2.45a.607.607,0,0,0-.387,0l-7.35,2.45a.613.613,0,0,0-.419.581v5.512A10.468,10.468,0,0,0,26.5,42.512v2.475a1.838,1.838,0,0,1-1.837,1.838H5.063a1.838,1.838,0,0,1-1.838-1.838v-2.45a.612.612,0,1,0-1.225,0v2.45A3.066,3.066,0,0,0,5.063,48.05h19.6a3.066,3.066,0,0,0,3.062-3.062V43.456l2.7,2.021a.612.612,0,0,0,.735,0l3.43-2.573a10.462,10.462,0,0,0,4.165-8.33V29.063A.613.613,0,0,0,38.331,28.482Zm-.806,6.093a9.231,9.231,0,0,1-3.675,7.35l-3.063,2.3-3.062-2.3a9.231,9.231,0,0,1-3.675-7.35V29.5l6.737-2.246L37.525,29.5Z" transform="translate(0 -9.3)"/>
      <path id="Trazado_226371" data-name="Trazado 226371" d="M45.319,30.249l-4.9,1.633a.612.612,0,0,0-.419.581v3.747a8,8,0,0,0,3.185,6.37l1.96,1.47a.612.612,0,0,0,.735,0l1.96-1.47a8,8,0,0,0,3.185-6.37V32.463a.612.612,0,0,0-.419-.581l-4.9-1.633A.607.607,0,0,0,45.319,30.249ZM49.8,32.9v3.308A6.772,6.772,0,0,1,47.1,41.6l-1.592,1.194L43.92,41.6h0a6.773,6.773,0,0,1-2.695-5.39V32.9l4.287-1.429Z" transform="translate(-14.725 -10.935)"/>
      <path id="Trazado_226372" data-name="Trazado 226372" d="M45.046,39.017a.612.612,0,1,0-.866.866L45.4,41.108a.613.613,0,0,0,.826.038l3.675-3.063a.613.613,0,1,0-.785-.942l-3.246,2.7Z" transform="translate(-16.275 -13.562)"/>
    </g>
  </g>
</svg>
