<svg xmlns="http://www.w3.org/2000/svg" width="60.001" height="60.001" viewBox="0 0 60.001 60.001">
  <g id="Grupo_181373" data-name="Grupo 181373" transform="translate(-296.999 -6468)">
    <circle id="Elipse_6145" data-name="Elipse 6145" cx="30" cy="30" r="30" transform="translate(297 6468)" fill="#d7e6f8"/>
    <path id="Intersección_7" data-name="Intersección 7" d="M7292,11730a30.344,30.344,0,0,1,.2-3.494,30.026,30.026,0,1,1-.2,3.494Z" transform="translate(-6995 -5232)" fill="#c6dcf6"/>
    <g id="apreton-de-manos_1_" data-name="apreton-de-manos (1)" transform="translate(304.861 6480.2)">
      <g id="Grupo_177402" data-name="Grupo 177402" transform="translate(20.244 19.236)">
        <g id="Grupo_177401" data-name="Grupo 177401">
          <path id="Trazado_226357" data-name="Trazado 226357" d="M256.448,244.793l-5.549-3.409a.611.611,0,0,0-.224-.082L248.938,241a.6.6,0,0,0-.208,1.179l1.639.289,5.451,3.35a.6.6,0,0,0,.627-1.02Z" transform="translate(-248.236 -240.986)" fill="#12263f"/>
        </g>
      </g>
      <g id="Grupo_177404" data-name="Grupo 177404" transform="translate(0.467 0.001)">
        <g id="Grupo_177403" data-name="Grupo 177403" transform="translate(0 0)">
          <path id="Trazado_226358" data-name="Trazado 226358" d="M41.1,23.235a.6.6,0,0,0-.846-.029l-2.427,2.268L26.7,14.5,41.071,1.036a.6.6,0,1,0-.819-.874L25.43,14.053a.6.6,0,0,0-.011.863l.984.971-.314.277L19.513,15.6a.6.6,0,0,0-.3.052L14,18.022l-.046-.011-3-.529.242-.619a.6.6,0,0,0-.335-.774l-9.58-3.832a.6.6,0,0,0-.445,1.112l9.028,3.611-5.32,13.6L1.265,29.413a.6.6,0,1,0-.4,1.129L4.7,31.9a.6.6,0,0,0,.757-.346l.889-2.272,2.33,1.306L8.417,31a2.513,2.513,0,0,0,2.916,3.711,2.512,2.512,0,0,0,3.261,2.012,2.513,2.513,0,0,0,3.261,2.013,2.513,2.513,0,0,0,4.626.941l.408-.662.336.207a2.51,2.51,0,0,0,3.459-.826,2.5,2.5,0,0,0,.366-1.467,2.483,2.483,0,0,0,.581.07,2.535,2.535,0,0,0,2.147-1.2,2.5,2.5,0,0,0,.368-1.467,2.484,2.484,0,0,0,.58.07,2.535,2.535,0,0,0,2.147-1.2,2.5,2.5,0,0,0,.367-1.468,2.514,2.514,0,0,0,1.9-4.587l-.41-.252,1.376-1.438,1.287,1.27a.6.6,0,0,0,.829.011l2.847-2.661A.6.6,0,0,0,41.1,23.235ZM11.678,33.014a1.317,1.317,0,0,1-2.242-1.383L12.789,26.2a1.324,1.324,0,0,1,1.791-.443,1.362,1.362,0,0,1,.429,1.863Zm3.261,2.012A1.317,1.317,0,1,1,12.7,33.643l2.683-4.348a1.324,1.324,0,0,1,1.791-.443,1.362,1.362,0,0,1,.429,1.863ZM18.2,37.038a1.317,1.317,0,0,1-1.813.429,1.329,1.329,0,0,1-.429-1.813l2.012-3.261a1.324,1.324,0,0,1,1.791-.443,1.362,1.362,0,0,1,.429,1.863Zm4.58-.125-1.319,2.137a1.317,1.317,0,0,1-2.242-1.383l1.341-2.174a1.324,1.324,0,0,1,1.791-.443A1.362,1.362,0,0,1,22.78,36.913ZM33.687,26.257l-2.968-1.824a.6.6,0,1,0-.627,1.02l4.422,2.717a1.317,1.317,0,1,1-1.379,2.245L28.392,27.5a.6.6,0,0,0-.627,1.02l3.654,2.245a1.317,1.317,0,0,1-1.379,2.245l-3.312-2.035A.6.6,0,1,0,26.1,32l2.223,1.366a1.317,1.317,0,0,1-1.379,2.245s-1.955-1.2-1.974-1.209a.6.6,0,0,0-.573,1.049l.832.511A1.317,1.317,0,0,1,23.852,38.2L23.518,38l.282-.456a2.592,2.592,0,0,0,.306-1.971,2.475,2.475,0,0,0-2.584-1.891,2.6,2.6,0,0,0-.006-1.208,2.476,2.476,0,0,0-2.584-1.891,2.549,2.549,0,0,0-1.151-2.759,2.492,2.492,0,0,0-1.44-.34,2.507,2.507,0,0,0-4.57-1.915l-2.467,4L6.785,28.154l3.731-9.534,2.031.358a2.514,2.514,0,0,0,3,3.868l3.506-1.6a.6.6,0,0,0-.5-1.09l-3.506,1.6a1.317,1.317,0,0,1-1.092-2.4L19.567,16.8l6.674.575.051,0a.6.6,0,0,0,.4-.15l.568-.5,8,7.89Z" transform="translate(-0.467 -0.001)" fill="#12263f"/>
        </g>
      </g>
    </g>
  </g>
</svg>
