<svg xmlns="http://www.w3.org/2000/svg" width="60.001" height="60.001" viewBox="0 0 60.001 60.001">
  <g id="Grupo_181375" data-name="Grupo 181375" transform="translate(-296.999 -6714)">
    <circle id="Elipse_6260" data-name="Elipse 6260" cx="30" cy="30" r="30" transform="translate(297 6714)" fill="#d7e6f8"/>
    <path id="Intersección_9" data-name="Intersección 9" d="M7292,11730a30.344,30.344,0,0,1,.2-3.494,30.026,30.026,0,1,1-.2,3.494Z" transform="translate(-6995 -4986)" fill="#c6dcf6"/>
    <g id="alerta" transform="translate(310 6727.5)">
      <path id="Trazado_226359" data-name="Trazado 226359" d="M385.3,208.91a.684.684,0,1,1,.483-.2A.688.688,0,0,1,385.3,208.91Zm0,0" transform="translate(-358.329 -192.89)"/>
      <path id="Trazado_226360" data-name="Trazado 226360" d="M32.052,31.591H2.948A2.943,2.943,0,0,1,.4,27.176L14.951,1.971a2.943,2.943,0,0,1,5.1,0l6.034,10.452a.684.684,0,1,1-1.184.684L18.865,2.654a1.576,1.576,0,0,0-2.73,0L1.583,27.86a1.576,1.576,0,0,0,1.365,2.364h29.1a1.576,1.576,0,0,0,1.365-2.364l-5.833-10.1a.684.684,0,0,1,1.184-.683l5.833,10.1a2.943,2.943,0,0,1-2.549,4.414Zm0,0" transform="translate(0)"/>
      <path id="Trazado_226361" data-name="Trazado 226361" d="M226.191,159.336A2.19,2.19,0,0,1,224,157.149V150.98a2.187,2.187,0,1,1,4.374,0v6.169A2.19,2.19,0,0,1,226.191,159.336Zm0-9.176a.821.821,0,0,0-.82.82v6.169a.82.82,0,0,0,1.641,0V150.98A.821.821,0,0,0,226.191,150.16Zm0,0" transform="translate(-208.691 -138.156)"/>
      <path id="Trazado_226362" data-name="Trazado 226362" d="M226.191,331.4a2.187,2.187,0,1,1,1.547-.641A2.19,2.19,0,0,1,226.191,331.4Zm0-3.008a.82.82,0,1,0,.82.82A.821.821,0,0,0,226.191,328.395Zm0,0" transform="translate(-208.691 -304.207)"/>
    </g>
  </g>
</svg>
