<svg xmlns="http://www.w3.org/2000/svg" xmlns:xlink="http://www.w3.org/1999/xlink" width="295" height="283.745" viewBox="0 0 295 283.745">
  <defs>
    <clipPath id="clip-path">
      <rect id="Rect치ngulo_52193" data-name="Rect치ngulo 52193" width="286.862" height="243.52" fill="#8c5be1"/>
    </clipPath>
    <clipPath id="clip-path-2">
      <rect id="Rect치ngulo_57541" data-name="Rect치ngulo 57541" width="238.697" height="233.504" fill="none"/>
    </clipPath>
  </defs>
  <g id="Grupo_177816" data-name="Grupo 177816" transform="translate(-390 -8548)">
    <g id="Grupo_174088" data-name="Grupo 174088" transform="translate(390 8548)">
      <g id="Grupo_169303" data-name="Grupo 169303" transform="translate(8.138 0)">
        <g id="Grupo_168636" data-name="Grupo 168636" transform="translate(0 0)" clip-path="url(#clip-path)">
          <path id="Trazado_211592" data-name="Trazado 211592" d="M205.743,205.85S356.916,92.471,254.651,62.459,46.789-42.028,19,31.335s47.8,104.487,12.227,144.5S75.69,288.105,205.743,205.85" transform="translate(-3.294 0)" fill="#8c5be1"/>
        </g>
      </g>
      <g id="Grupo_169306" data-name="Grupo 169306" transform="translate(63.931 283.745) rotate(-90)">
        <circle id="Elipse_5566" data-name="Elipse 5566" cx="49.221" cy="49.221" r="49.221" transform="translate(87.898 69.61) rotate(-45)" fill="#def2f4"/>
        <ellipse id="Elipse_5567" data-name="Elipse 5567" cx="79.045" cy="79.045" rx="79.045" ry="79.045" transform="translate(0 81.374) rotate(-22.5)" fill="#fff"/>
        <g id="Grupo_152550" data-name="Grupo 152550" transform="translate(6.478 9.987)">
          <ellipse id="Elipse_5568" data-name="Elipse 5568" cx="0.055" cy="0.055" rx="0.055" ry="0.055" transform="translate(50.567 160.054)" fill="#e8e8e8"/>
          <path id="Trazado_193815" data-name="Trazado 193815" d="M.469,0A.469.469,0,1,1,0,.469.469.469,0,0,1,.469,0Z" transform="translate(60.107 159.64)" fill="#e8e8e8"/>
          <path id="Trazado_193816" data-name="Trazado 193816" d="M.8,0A.8.8,0,1,1,0,.8.8.8,0,0,1,.8,0Z" transform="translate(69.729 159.308)" fill="#e8e8e8"/>
          <ellipse id="Elipse_5569" data-name="Elipse 5569" cx="0.856" cy="0.856" rx="0.856" ry="0.856" transform="translate(79.627 159.253)" fill="#e8e8e8"/>
          <path id="Trazado_193817" data-name="Trazado 193817" d="M.8,0A.8.8,0,1,1,0,.8.8.8,0,0,1,.8,0Z" transform="translate(89.635 159.308)" fill="#e8e8e8"/>
          <path id="Trazado_193818" data-name="Trazado 193818" d="M.441,0A.441.441,0,1,1,0,.441.44.44,0,0,1,.441,0Z" transform="translate(99.948 159.668)" fill="#e8e8e8"/>
          <ellipse id="Elipse_5570" data-name="Elipse 5570" cx="0.028" cy="0.028" rx="0.028" ry="0.028" transform="translate(110.315 160.081)" fill="#e8e8e8"/>
          <ellipse id="Elipse_5571" data-name="Elipse 5571" cx="0.028" cy="0.028" rx="0.028" ry="0.028" transform="translate(30.688 150.128)" fill="#e8e8e8"/>
          <path id="Trazado_193819" data-name="Trazado 193819" d="M.828,0A.828.828,0,1,1,0,.828.829.829,0,0,1,.828,0Z" transform="translate(39.841 149.327)" fill="#e8e8e8"/>
          <path id="Trazado_193820" data-name="Trazado 193820" d="M1.685,0A1.685,1.685,0,1,1,0,1.684,1.684,1.684,0,0,1,1.685,0Z" transform="translate(48.938 148.471)" fill="#e8e8e8"/>
          <ellipse id="Elipse_5572" data-name="Elipse 5572" cx="1.877" cy="1.877" rx="1.877" ry="1.877" transform="translate(58.699 148.279)" fill="#e8e8e8"/>
          <ellipse id="Elipse_5573" data-name="Elipse 5573" cx="1.877" cy="1.877" rx="1.877" ry="1.877" transform="translate(68.652 148.279)" fill="#e8e8e8"/>
          <path id="Trazado_193821" data-name="Trazado 193821" d="M1.877,0A1.877,1.877,0,1,1,0,1.877,1.878,1.878,0,0,1,1.877,0Z" transform="translate(78.605 148.278)" fill="#e8e8e8"/>
          <path id="Trazado_193822" data-name="Trazado 193822" d="M1.877,0A1.877,1.877,0,1,1,0,1.877,1.878,1.878,0,0,1,1.877,0Z" transform="translate(88.558 148.278)" fill="#e8e8e8"/>
          <path id="Trazado_193823" data-name="Trazado 193823" d="M1.877,0A1.877,1.877,0,1,1,0,1.877,1.878,1.878,0,0,1,1.877,0Z" transform="translate(98.512 148.278)" fill="#e8e8e8"/>
          <path id="Trazado_193824" data-name="Trazado 193824" d="M1.657,0A1.657,1.657,0,1,1,0,1.657,1.658,1.658,0,0,1,1.657,0Z" transform="translate(108.685 148.499)" fill="#e8e8e8"/>
          <path id="Trazado_193825" data-name="Trazado 193825" d="M.773,0A.773.773,0,1,1,0,.773.772.772,0,0,1,.773,0Z" transform="translate(119.522 149.383)" fill="#e8e8e8"/>
          <ellipse id="Elipse_5574" data-name="Elipse 5574" cx="0.028" cy="0.028" rx="0.028" ry="0.028" transform="translate(130.221 150.128)" fill="#e8e8e8"/>
          <path id="Trazado_193826" data-name="Trazado 193826" d="M.139,0A.137.137,0,0,1,.276.137.138.138,0,1,1,.139,0Z" transform="translate(20.624 140.065)" fill="#e8e8e8"/>
          <path id="Trazado_193827" data-name="Trazado 193827" d="M1.353,0A1.353,1.353,0,1,1,0,1.353,1.353,1.353,0,0,1,1.353,0Z" transform="translate(29.363 138.849)" fill="#e8e8e8"/>
          <ellipse id="Elipse_5575" data-name="Elipse 5575" cx="1.877" cy="1.877" rx="1.877" ry="1.877" transform="translate(38.792 138.325)" fill="#e8e8e8"/>
          <ellipse id="Elipse_5576" data-name="Elipse 5576" cx="1.877" cy="1.877" rx="1.877" ry="1.877" transform="translate(48.745 138.325)" fill="#e8e8e8"/>
          <ellipse id="Elipse_5577" data-name="Elipse 5577" cx="1.877" cy="1.877" rx="1.877" ry="1.877" transform="translate(58.699 138.325)" fill="#e8e8e8"/>
          <ellipse id="Elipse_5578" data-name="Elipse 5578" cx="1.877" cy="1.877" rx="1.877" ry="1.877" transform="translate(68.652 138.325)" fill="#e8e8e8"/>
          <path id="Trazado_193828" data-name="Trazado 193828" d="M1.877,0A1.877,1.877,0,1,1,0,1.877,1.878,1.878,0,0,1,1.877,0Z" transform="translate(78.605 138.325)" fill="#e8e8e8"/>
          <path id="Trazado_193829" data-name="Trazado 193829" d="M1.877,0A1.877,1.877,0,1,1,0,1.877,1.878,1.878,0,0,1,1.877,0Z" transform="translate(88.558 138.325)" fill="#e8e8e8"/>
          <path id="Trazado_193830" data-name="Trazado 193830" d="M1.877,0A1.877,1.877,0,1,1,0,1.877,1.878,1.878,0,0,1,1.877,0Z" transform="translate(98.512 138.325)" fill="#e8e8e8"/>
          <path id="Trazado_193831" data-name="Trazado 193831" d="M1.877,0A1.877,1.877,0,1,1,0,1.877,1.878,1.878,0,0,1,1.877,0Z" transform="translate(108.465 138.325)" fill="#e8e8e8"/>
          <path id="Trazado_193832" data-name="Trazado 193832" d="M1.877,0A1.877,1.877,0,1,1,0,1.877,1.878,1.878,0,0,1,1.877,0Z" transform="translate(118.418 138.325)" fill="#e8e8e8"/>
          <path id="Trazado_193833" data-name="Trazado 193833" d="M1.325,0A1.325,1.325,0,1,1,0,1.325,1.325,1.325,0,0,1,1.325,0Z" transform="translate(128.923 138.877)" fill="#e8e8e8"/>
          <path id="Trazado_193834" data-name="Trazado 193834" d="M.081,0a.083.083,0,1,1,0,.167A.084.084,0,0,1,.081,0Z" transform="translate(140.12 140.119)" fill="#e8e8e8"/>
          <ellipse id="Elipse_5579" data-name="Elipse 5579" cx="0.028" cy="0.028" rx="0.028" ry="0.028" transform="translate(10.781 130.221)" fill="#e8e8e8"/>
          <path id="Trazado_193835" data-name="Trazado 193835" d="M1.353,0A1.353,1.353,0,1,1,0,1.353,1.351,1.351,0,0,1,1.353,0Z" transform="translate(19.41 128.896)" fill="#e8e8e8"/>
          <ellipse id="Elipse_5580" data-name="Elipse 5580" cx="1.877" cy="1.877" rx="1.877" ry="1.877" transform="translate(28.839 128.372)" fill="#e8e8e8"/>
          <ellipse id="Elipse_5581" data-name="Elipse 5581" cx="1.877" cy="1.877" rx="1.877" ry="1.877" transform="translate(38.792 128.372)" fill="#e8e8e8"/>
          <ellipse id="Elipse_5582" data-name="Elipse 5582" cx="1.877" cy="1.877" rx="1.877" ry="1.877" transform="translate(48.745 128.372)" fill="#e8e8e8"/>
          <ellipse id="Elipse_5583" data-name="Elipse 5583" cx="1.877" cy="1.877" rx="1.877" ry="1.877" transform="translate(58.699 128.372)" fill="#e8e8e8"/>
          <ellipse id="Elipse_5584" data-name="Elipse 5584" cx="1.877" cy="1.877" rx="1.877" ry="1.877" transform="translate(68.652 128.372)" fill="#e8e8e8"/>
          <path id="Trazado_193836" data-name="Trazado 193836" d="M1.877,0A1.877,1.877,0,1,1,0,1.877,1.878,1.878,0,0,1,1.877,0Z" transform="translate(78.605 128.372)" fill="#e8e8e8"/>
          <path id="Trazado_193837" data-name="Trazado 193837" d="M1.877,0A1.877,1.877,0,1,1,0,1.877,1.878,1.878,0,0,1,1.877,0Z" transform="translate(88.558 128.372)" fill="#e8e8e8"/>
          <path id="Trazado_193838" data-name="Trazado 193838" d="M1.877,0A1.877,1.877,0,1,1,0,1.877,1.878,1.878,0,0,1,1.877,0Z" transform="translate(98.512 128.372)" fill="#e8e8e8"/>
          <path id="Trazado_193839" data-name="Trazado 193839" d="M1.877,0A1.877,1.877,0,1,1,0,1.877,1.878,1.878,0,0,1,1.877,0Z" transform="translate(108.465 128.372)" fill="#e8e8e8"/>
          <path id="Trazado_193840" data-name="Trazado 193840" d="M1.877,0A1.877,1.877,0,1,1,0,1.877,1.878,1.878,0,0,1,1.877,0Z" transform="translate(118.418 128.372)" fill="#e8e8e8"/>
          <path id="Trazado_193841" data-name="Trazado 193841" d="M1.877,0A1.877,1.877,0,1,1,0,1.877,1.878,1.878,0,0,1,1.877,0Z" transform="translate(128.371 128.372)" fill="#e8e8e8"/>
          <path id="Trazado_193842" data-name="Trazado 193842" d="M1.325,0A1.325,1.325,0,1,1,0,1.325,1.325,1.325,0,0,1,1.325,0Z" transform="translate(138.877 128.924)" fill="#e8e8e8"/>
          <ellipse id="Elipse_5585" data-name="Elipse 5585" cx="0.028" cy="0.028" rx="0.028" ry="0.028" transform="translate(150.128 130.221)" fill="#e8e8e8"/>
          <path id="Trazado_193843" data-name="Trazado 193843" d="M.828,0A.828.828,0,1,1,0,.828.827.827,0,0,1,.828,0Z" transform="translate(9.981 119.467)" fill="#e8e8e8"/>
          <ellipse id="Elipse_5586" data-name="Elipse 5586" cx="1.877" cy="1.877" rx="1.877" ry="1.877" transform="translate(18.885 118.419)" fill="#e8e8e8"/>
          <ellipse id="Elipse_5587" data-name="Elipse 5587" cx="1.877" cy="1.877" rx="1.877" ry="1.877" transform="translate(28.839 118.419)" fill="#e8e8e8"/>
          <ellipse id="Elipse_5588" data-name="Elipse 5588" cx="1.877" cy="1.877" rx="1.877" ry="1.877" transform="translate(38.792 118.419)" fill="#e8e8e8"/>
          <ellipse id="Elipse_5589" data-name="Elipse 5589" cx="1.877" cy="1.877" rx="1.877" ry="1.877" transform="translate(48.745 118.419)" fill="#e8e8e8"/>
          <ellipse id="Elipse_5590" data-name="Elipse 5590" cx="1.877" cy="1.877" rx="1.877" ry="1.877" transform="translate(58.699 118.419)" fill="#e8e8e8"/>
          <ellipse id="Elipse_5591" data-name="Elipse 5591" cx="1.877" cy="1.877" rx="1.877" ry="1.877" transform="translate(68.652 118.419)" fill="#e8e8e8"/>
          <path id="Trazado_193844" data-name="Trazado 193844" d="M1.877,0A1.877,1.877,0,1,1,0,1.877,1.878,1.878,0,0,1,1.877,0Z" transform="translate(78.605 118.419)" fill="#e8e8e8"/>
          <path id="Trazado_193845" data-name="Trazado 193845" d="M1.877,0A1.877,1.877,0,1,1,0,1.877,1.878,1.878,0,0,1,1.877,0Z" transform="translate(88.558 118.419)" fill="#e8e8e8"/>
          <path id="Trazado_193846" data-name="Trazado 193846" d="M1.877,0A1.877,1.877,0,1,1,0,1.877,1.878,1.878,0,0,1,1.877,0Z" transform="translate(98.512 118.419)" fill="#e8e8e8"/>
          <path id="Trazado_193847" data-name="Trazado 193847" d="M1.877,0A1.877,1.877,0,1,1,0,1.877,1.878,1.878,0,0,1,1.877,0Z" transform="translate(108.465 118.419)" fill="#e8e8e8"/>
          <path id="Trazado_193848" data-name="Trazado 193848" d="M1.877,0A1.877,1.877,0,1,1,0,1.877,1.878,1.878,0,0,1,1.877,0Z" transform="translate(118.418 118.419)" fill="#e8e8e8"/>
          <path id="Trazado_193849" data-name="Trazado 193849" d="M1.877,0A1.877,1.877,0,1,1,0,1.877,1.878,1.878,0,0,1,1.877,0Z" transform="translate(128.371 118.419)" fill="#e8e8e8"/>
          <path id="Trazado_193850" data-name="Trazado 193850" d="M1.877,0A1.877,1.877,0,1,1,0,1.877,1.878,1.878,0,0,1,1.877,0Z" transform="translate(138.324 118.419)" fill="#e8e8e8"/>
          <path id="Trazado_193851" data-name="Trazado 193851" d="M.773,0A.773.773,0,1,1,0,.773.772.772,0,0,1,.773,0Z" transform="translate(149.382 119.523)" fill="#e8e8e8"/>
          <ellipse id="Elipse_5592" data-name="Elipse 5592" cx="0.055" cy="0.055" rx="0.055" ry="0.055" transform="translate(0.8 110.287)" fill="#e8e8e8"/>
          <path id="Trazado_193852" data-name="Trazado 193852" d="M1.657,0A1.657,1.657,0,1,1,0,1.657,1.655,1.655,0,0,1,1.657,0Z" transform="translate(9.153 108.686)" fill="#e8e8e8"/>
          <ellipse id="Elipse_5593" data-name="Elipse 5593" cx="1.877" cy="1.877" rx="1.877" ry="1.877" transform="translate(18.885 108.466)" fill="#e8e8e8"/>
          <ellipse id="Elipse_5594" data-name="Elipse 5594" cx="1.877" cy="1.877" rx="1.877" ry="1.877" transform="translate(28.839 108.466)" fill="#e8e8e8"/>
          <ellipse id="Elipse_5595" data-name="Elipse 5595" cx="1.877" cy="1.877" rx="1.877" ry="1.877" transform="translate(38.792 108.466)" fill="#e8e8e8"/>
          <ellipse id="Elipse_5596" data-name="Elipse 5596" cx="1.877" cy="1.877" rx="1.877" ry="1.877" transform="translate(48.745 108.466)" fill="#e8e8e8"/>
          <ellipse id="Elipse_5597" data-name="Elipse 5597" cx="1.877" cy="1.877" rx="1.877" ry="1.877" transform="translate(58.699 108.466)" fill="#e8e8e8"/>
          <ellipse id="Elipse_5598" data-name="Elipse 5598" cx="1.877" cy="1.877" rx="1.877" ry="1.877" transform="translate(68.652 108.466)" fill="#e8e8e8"/>
          <path id="Trazado_193853" data-name="Trazado 193853" d="M1.877,0A1.877,1.877,0,1,1,0,1.877,1.878,1.878,0,0,1,1.877,0Z" transform="translate(78.605 108.465)" fill="#e8e8e8"/>
          <path id="Trazado_193854" data-name="Trazado 193854" d="M1.877,0A1.877,1.877,0,1,1,0,1.877,1.878,1.878,0,0,1,1.877,0Z" transform="translate(88.558 108.465)" fill="#e8e8e8"/>
          <path id="Trazado_193855" data-name="Trazado 193855" d="M1.877,0A1.877,1.877,0,1,1,0,1.877,1.878,1.878,0,0,1,1.877,0Z" transform="translate(98.512 108.465)" fill="#e8e8e8"/>
          <path id="Trazado_193856" data-name="Trazado 193856" d="M1.877,0A1.877,1.877,0,1,1,0,1.877,1.878,1.878,0,0,1,1.877,0Z" transform="translate(108.465 108.465)" fill="#e8e8e8"/>
          <path id="Trazado_193857" data-name="Trazado 193857" d="M1.877,0A1.877,1.877,0,1,1,0,1.877,1.878,1.878,0,0,1,1.877,0Z" transform="translate(118.418 108.465)" fill="#e8e8e8"/>
          <path id="Trazado_193858" data-name="Trazado 193858" d="M1.877,0A1.877,1.877,0,1,1,0,1.877,1.878,1.878,0,0,1,1.877,0Z" transform="translate(128.371 108.465)" fill="#e8e8e8"/>
          <path id="Trazado_193859" data-name="Trazado 193859" d="M1.877,0A1.877,1.877,0,1,1,0,1.877,1.878,1.878,0,0,1,1.877,0Z" transform="translate(138.324 108.465)" fill="#e8e8e8"/>
          <path id="Trazado_193860" data-name="Trazado 193860" d="M1.627,0A1.629,1.629,0,1,1,0,1.629,1.628,1.628,0,0,1,1.627,0Z" transform="translate(148.528 108.714)" fill="#e8e8e8"/>
          <ellipse id="Elipse_5599" data-name="Elipse 5599" cx="0.055" cy="0.055" rx="0.055" ry="0.055" transform="translate(160.054 110.287)" fill="#e8e8e8"/>
          <ellipse id="Elipse_5600" data-name="Elipse 5600" cx="0.469" cy="0.469" rx="0.469" ry="0.469" transform="translate(0.386 99.92)" fill="#e8e8e8"/>
          <ellipse id="Elipse_5601" data-name="Elipse 5601" cx="1.877" cy="1.877" rx="1.877" ry="1.877" transform="translate(8.932 98.512)" fill="#e8e8e8"/>
          <ellipse id="Elipse_5602" data-name="Elipse 5602" cx="1.877" cy="1.877" rx="1.877" ry="1.877" transform="translate(18.885 98.512)" fill="#e8e8e8"/>
          <ellipse id="Elipse_5603" data-name="Elipse 5603" cx="1.877" cy="1.877" rx="1.877" ry="1.877" transform="translate(28.839 98.512)" fill="#e8e8e8"/>
          <ellipse id="Elipse_5604" data-name="Elipse 5604" cx="1.877" cy="1.877" rx="1.877" ry="1.877" transform="translate(38.792 98.512)" fill="#e8e8e8"/>
          <ellipse id="Elipse_5605" data-name="Elipse 5605" cx="1.877" cy="1.877" rx="1.877" ry="1.877" transform="translate(48.745 98.512)" fill="#e8e8e8"/>
          <ellipse id="Elipse_5606" data-name="Elipse 5606" cx="1.877" cy="1.877" rx="1.877" ry="1.877" transform="translate(58.699 98.512)" fill="#e8e8e8"/>
          <ellipse id="Elipse_5607" data-name="Elipse 5607" cx="1.877" cy="1.877" rx="1.877" ry="1.877" transform="translate(68.652 98.512)" fill="#e8e8e8"/>
          <path id="Trazado_193861" data-name="Trazado 193861" d="M1.877,0A1.877,1.877,0,1,1,0,1.877,1.877,1.877,0,0,1,1.877,0Z" transform="translate(78.605 98.512)" fill="#e8e8e8"/>
          <path id="Trazado_193862" data-name="Trazado 193862" d="M1.877,0A1.877,1.877,0,1,1,0,1.877,1.877,1.877,0,0,1,1.877,0Z" transform="translate(88.558 98.512)" fill="#e8e8e8"/>
          <path id="Trazado_193863" data-name="Trazado 193863" d="M1.877,0A1.877,1.877,0,1,1,0,1.877,1.877,1.877,0,0,1,1.877,0Z" transform="translate(98.512 98.512)" fill="#e8e8e8"/>
          <path id="Trazado_193864" data-name="Trazado 193864" d="M1.877,0A1.877,1.877,0,1,1,0,1.877,1.877,1.877,0,0,1,1.877,0Z" transform="translate(108.465 98.512)" fill="#e8e8e8"/>
          <path id="Trazado_193865" data-name="Trazado 193865" d="M1.877,0A1.877,1.877,0,1,1,0,1.877,1.877,1.877,0,0,1,1.877,0Z" transform="translate(118.418 98.512)" fill="#e8e8e8"/>
          <path id="Trazado_193866" data-name="Trazado 193866" d="M1.877,0A1.877,1.877,0,1,1,0,1.877,1.877,1.877,0,0,1,1.877,0Z" transform="translate(128.371 98.512)" fill="#e8e8e8"/>
          <path id="Trazado_193867" data-name="Trazado 193867" d="M1.877,0A1.877,1.877,0,1,1,0,1.877,1.877,1.877,0,0,1,1.877,0Z" transform="translate(138.324 98.512)" fill="#e8e8e8"/>
          <path id="Trazado_193868" data-name="Trazado 193868" d="M1.875,0A1.877,1.877,0,1,1,0,1.877,1.875,1.875,0,0,1,1.875,0Z" transform="translate(148.28 98.512)" fill="#e8e8e8"/>
          <ellipse id="Elipse_5608" data-name="Elipse 5608" cx="0.414" cy="0.414" rx="0.414" ry="0.414" transform="translate(159.695 99.975)" fill="#e8e8e8"/>
          <path id="Trazado_193869" data-name="Trazado 193869" d="M.8,0A.8.8,0,1,1,0,.8.8.8,0,0,1,.8,0Z" transform="translate(0.056 89.636)" fill="#e8e8e8"/>
          <path id="Trazado_193870" data-name="Trazado 193870" d="M1.877,0A1.877,1.877,0,1,1,0,1.877,1.875,1.875,0,0,1,1.877,0Z" transform="translate(8.933 88.559)" fill="#e8e8e8"/>
          <path id="Trazado_193871" data-name="Trazado 193871" d="M1.877,0A1.877,1.877,0,1,1,0,1.877,1.875,1.875,0,0,1,1.877,0Z" transform="translate(18.886 88.559)" fill="#e8e8e8"/>
          <path id="Trazado_193872" data-name="Trazado 193872" d="M1.877,0A1.877,1.877,0,1,1,0,1.877,1.875,1.875,0,0,1,1.877,0Z" transform="translate(28.839 88.559)" fill="#e8e8e8"/>
          <path id="Trazado_193873" data-name="Trazado 193873" d="M1.877,0A1.877,1.877,0,1,1,0,1.877,1.875,1.875,0,0,1,1.877,0Z" transform="translate(38.792 88.559)" fill="#e8e8e8"/>
          <path id="Trazado_193874" data-name="Trazado 193874" d="M1.877,0A1.877,1.877,0,1,1,0,1.877,1.877,1.877,0,0,1,1.877,0Z" transform="translate(48.745 88.559)" fill="#e8e8e8"/>
          <path id="Trazado_193875" data-name="Trazado 193875" d="M1.877,0A1.877,1.877,0,1,1,0,1.877,1.877,1.877,0,0,1,1.877,0Z" transform="translate(58.699 88.559)" fill="#e8e8e8"/>
          <path id="Trazado_193876" data-name="Trazado 193876" d="M1.877,0A1.877,1.877,0,1,1,0,1.877,1.877,1.877,0,0,1,1.877,0Z" transform="translate(68.652 88.559)" fill="#e8e8e8"/>
          <path id="Trazado_193877" data-name="Trazado 193877" d="M1.877,0A1.877,1.877,0,1,1,0,1.877,1.877,1.877,0,0,1,1.877,0Z" transform="translate(78.605 88.559)" fill="#e8e8e8"/>
          <path id="Trazado_193878" data-name="Trazado 193878" d="M1.877,0A1.877,1.877,0,1,1,0,1.877,1.877,1.877,0,0,1,1.877,0Z" transform="translate(88.558 88.559)" fill="#e8e8e8"/>
          <path id="Trazado_193879" data-name="Trazado 193879" d="M1.877,0A1.877,1.877,0,1,1,0,1.877,1.877,1.877,0,0,1,1.877,0Z" transform="translate(98.512 88.559)" fill="#e8e8e8"/>
          <path id="Trazado_193880" data-name="Trazado 193880" d="M1.877,0A1.877,1.877,0,1,1,0,1.877,1.877,1.877,0,0,1,1.877,0Z" transform="translate(108.465 88.559)" fill="#e8e8e8"/>
          <path id="Trazado_193881" data-name="Trazado 193881" d="M1.877,0A1.877,1.877,0,1,1,0,1.877,1.877,1.877,0,0,1,1.877,0Z" transform="translate(118.418 88.559)" fill="#e8e8e8"/>
          <path id="Trazado_193882" data-name="Trazado 193882" d="M1.877,0A1.877,1.877,0,1,1,0,1.877,1.877,1.877,0,0,1,1.877,0Z" transform="translate(128.371 88.559)" fill="#e8e8e8"/>
          <path id="Trazado_193883" data-name="Trazado 193883" d="M1.877,0A1.877,1.877,0,1,1,0,1.877,1.877,1.877,0,0,1,1.877,0Z" transform="translate(138.324 88.559)" fill="#e8e8e8"/>
          <path id="Trazado_193884" data-name="Trazado 193884" d="M1.875,0A1.877,1.877,0,1,1,0,1.877,1.875,1.875,0,0,1,1.875,0Z" transform="translate(148.28 88.559)" fill="#e8e8e8"/>
          <path id="Trazado_193885" data-name="Trazado 193885" d="M.773,0A.773.773,0,1,1,0,.773.771.771,0,0,1,.773,0Z" transform="translate(159.335 89.663)" fill="#e8e8e8"/>
          <ellipse id="Elipse_5609" data-name="Elipse 5609" cx="0.856" cy="0.856" rx="0.856" ry="0.856" transform="translate(0 79.627)" fill="#e8e8e8"/>
          <path id="Trazado_193886" data-name="Trazado 193886" d="M1.877,0A1.877,1.877,0,1,1,0,1.877,1.875,1.875,0,0,1,1.877,0Z" transform="translate(8.933 78.606)" fill="#e8e8e8"/>
          <path id="Trazado_193887" data-name="Trazado 193887" d="M1.877,0A1.877,1.877,0,1,1,0,1.877,1.875,1.875,0,0,1,1.877,0Z" transform="translate(18.886 78.606)" fill="#e8e8e8"/>
          <path id="Trazado_193888" data-name="Trazado 193888" d="M1.877,0A1.877,1.877,0,1,1,0,1.877,1.875,1.875,0,0,1,1.877,0Z" transform="translate(28.839 78.606)" fill="#e8e8e8"/>
          <path id="Trazado_193889" data-name="Trazado 193889" d="M1.877,0A1.877,1.877,0,1,1,0,1.877,1.875,1.875,0,0,1,1.877,0Z" transform="translate(38.792 78.606)" fill="#e8e8e8"/>
          <path id="Trazado_193890" data-name="Trazado 193890" d="M1.877,0A1.877,1.877,0,1,1,0,1.877,1.877,1.877,0,0,1,1.877,0Z" transform="translate(48.745 78.606)" fill="#e8e8e8"/>
          <path id="Trazado_193891" data-name="Trazado 193891" d="M1.877,0A1.877,1.877,0,1,1,0,1.877,1.877,1.877,0,0,1,1.877,0Z" transform="translate(58.699 78.606)" fill="#e8e8e8"/>
          <path id="Trazado_193892" data-name="Trazado 193892" d="M1.877,0A1.877,1.877,0,1,1,0,1.877,1.877,1.877,0,0,1,1.877,0Z" transform="translate(68.652 78.606)" fill="#e8e8e8"/>
          <path id="Trazado_193893" data-name="Trazado 193893" d="M1.877,0A1.877,1.877,0,1,1,0,1.877,1.877,1.877,0,0,1,1.877,0Z" transform="translate(78.605 78.606)" fill="#e8e8e8"/>
          <path id="Trazado_193894" data-name="Trazado 193894" d="M1.877,0A1.877,1.877,0,1,1,0,1.877,1.877,1.877,0,0,1,1.877,0Z" transform="translate(88.558 78.606)" fill="#e8e8e8"/>
          <path id="Trazado_193895" data-name="Trazado 193895" d="M1.877,0A1.877,1.877,0,1,1,0,1.877,1.877,1.877,0,0,1,1.877,0Z" transform="translate(98.512 78.606)" fill="#e8e8e8"/>
          <path id="Trazado_193896" data-name="Trazado 193896" d="M1.877,0A1.877,1.877,0,1,1,0,1.877,1.877,1.877,0,0,1,1.877,0Z" transform="translate(108.465 78.606)" fill="#e8e8e8"/>
          <path id="Trazado_193897" data-name="Trazado 193897" d="M1.877,0A1.877,1.877,0,1,1,0,1.877,1.877,1.877,0,0,1,1.877,0Z" transform="translate(118.418 78.606)" fill="#e8e8e8"/>
          <path id="Trazado_193898" data-name="Trazado 193898" d="M1.877,0A1.877,1.877,0,1,1,0,1.877,1.877,1.877,0,0,1,1.877,0Z" transform="translate(128.371 78.606)" fill="#e8e8e8"/>
          <path id="Trazado_193899" data-name="Trazado 193899" d="M1.877,0A1.877,1.877,0,1,1,0,1.877,1.877,1.877,0,0,1,1.877,0Z" transform="translate(138.324 78.606)" fill="#e8e8e8"/>
          <path id="Trazado_193900" data-name="Trazado 193900" d="M1.875,0A1.877,1.877,0,1,1,0,1.877,1.875,1.875,0,0,1,1.875,0Z" transform="translate(148.28 78.606)" fill="#e8e8e8"/>
          <path id="Trazado_193901" data-name="Trazado 193901" d="M.854,0A.855.855,0,1,1,0,.856.856.856,0,0,1,.854,0Z" transform="translate(159.254 79.627)" fill="#e8e8e8"/>
          <path id="Trazado_193902" data-name="Trazado 193902" d="M.8,0A.8.8,0,1,1,0,.8.8.8,0,0,1,.8,0Z" transform="translate(0.056 69.729)" fill="#e8e8e8"/>
          <path id="Trazado_193903" data-name="Trazado 193903" d="M1.877,0A1.876,1.876,0,1,1,0,1.877,1.875,1.875,0,0,1,1.877,0Z" transform="translate(8.933 68.652)" fill="#e8e8e8"/>
          <path id="Trazado_193904" data-name="Trazado 193904" d="M1.877,0A1.876,1.876,0,1,1,0,1.877,1.875,1.875,0,0,1,1.877,0Z" transform="translate(18.886 68.652)" fill="#e8e8e8"/>
          <path id="Trazado_193905" data-name="Trazado 193905" d="M1.877,0A1.876,1.876,0,1,1,0,1.877,1.875,1.875,0,0,1,1.877,0Z" transform="translate(28.839 68.652)" fill="#e8e8e8"/>
          <path id="Trazado_193906" data-name="Trazado 193906" d="M1.877,0A1.876,1.876,0,1,1,0,1.877,1.875,1.875,0,0,1,1.877,0Z" transform="translate(38.792 68.652)" fill="#e8e8e8"/>
          <path id="Trazado_193907" data-name="Trazado 193907" d="M1.877,0A1.876,1.876,0,1,1,0,1.877,1.877,1.877,0,0,1,1.877,0Z" transform="translate(48.745 68.652)" fill="#e8e8e8"/>
          <path id="Trazado_193908" data-name="Trazado 193908" d="M1.877,0A1.876,1.876,0,1,1,0,1.877,1.877,1.877,0,0,1,1.877,0Z" transform="translate(58.699 68.652)" fill="#e8e8e8"/>
          <path id="Trazado_193909" data-name="Trazado 193909" d="M1.877,0A1.876,1.876,0,1,1,0,1.877,1.877,1.877,0,0,1,1.877,0Z" transform="translate(68.652 68.652)" fill="#e8e8e8"/>
          <path id="Trazado_193910" data-name="Trazado 193910" d="M1.877,0A1.876,1.876,0,1,1,0,1.877,1.877,1.877,0,0,1,1.877,0Z" transform="translate(78.605 68.652)" fill="#e8e8e8"/>
          <path id="Trazado_193911" data-name="Trazado 193911" d="M1.877,0A1.876,1.876,0,1,1,0,1.877,1.877,1.877,0,0,1,1.877,0Z" transform="translate(88.558 68.652)" fill="#e8e8e8"/>
          <path id="Trazado_193912" data-name="Trazado 193912" d="M1.877,0A1.876,1.876,0,1,1,0,1.877,1.877,1.877,0,0,1,1.877,0Z" transform="translate(98.512 68.652)" fill="#e8e8e8"/>
          <path id="Trazado_193913" data-name="Trazado 193913" d="M1.877,0A1.876,1.876,0,1,1,0,1.877,1.877,1.877,0,0,1,1.877,0Z" transform="translate(108.465 68.652)" fill="#e8e8e8"/>
          <path id="Trazado_193914" data-name="Trazado 193914" d="M1.877,0A1.876,1.876,0,1,1,0,1.877,1.877,1.877,0,0,1,1.877,0Z" transform="translate(118.418 68.652)" fill="#e8e8e8"/>
          <path id="Trazado_193915" data-name="Trazado 193915" d="M1.877,0A1.876,1.876,0,1,1,0,1.877,1.877,1.877,0,0,1,1.877,0Z" transform="translate(128.371 68.652)" fill="#e8e8e8"/>
          <path id="Trazado_193916" data-name="Trazado 193916" d="M1.877,0A1.876,1.876,0,1,1,0,1.877,1.877,1.877,0,0,1,1.877,0Z" transform="translate(138.324 68.652)" fill="#e8e8e8"/>
          <path id="Trazado_193917" data-name="Trazado 193917" d="M1.875,0A1.876,1.876,0,1,1,0,1.877,1.875,1.875,0,0,1,1.875,0Z" transform="translate(148.28 68.652)" fill="#e8e8e8"/>
          <path id="Trazado_193918" data-name="Trazado 193918" d="M.745,0A.745.745,0,1,1,0,.745.745.745,0,0,1,.745,0Z" transform="translate(159.363 69.785)" fill="#e8e8e8"/>
          <ellipse id="Elipse_5610" data-name="Elipse 5610" cx="0.442" cy="0.442" rx="0.442" ry="0.442" transform="translate(0.414 60.134)" fill="#e8e8e8"/>
          <path id="Trazado_193919" data-name="Trazado 193919" d="M1.877,0A1.876,1.876,0,1,1,0,1.877,1.875,1.875,0,0,1,1.877,0Z" transform="translate(8.933 58.699)" fill="#e8e8e8"/>
          <path id="Trazado_193920" data-name="Trazado 193920" d="M1.877,0A1.876,1.876,0,1,1,0,1.877,1.875,1.875,0,0,1,1.877,0Z" transform="translate(18.886 58.699)" fill="#e8e8e8"/>
          <path id="Trazado_193921" data-name="Trazado 193921" d="M1.877,0A1.876,1.876,0,1,1,0,1.877,1.875,1.875,0,0,1,1.877,0Z" transform="translate(28.839 58.699)" fill="#e8e8e8"/>
          <path id="Trazado_193922" data-name="Trazado 193922" d="M1.877,0A1.876,1.876,0,1,1,0,1.877,1.875,1.875,0,0,1,1.877,0Z" transform="translate(38.792 58.699)" fill="#e8e8e8"/>
          <path id="Trazado_193923" data-name="Trazado 193923" d="M1.877,0A1.876,1.876,0,1,1,0,1.877,1.877,1.877,0,0,1,1.877,0Z" transform="translate(48.745 58.699)" fill="#e8e8e8"/>
          <path id="Trazado_193924" data-name="Trazado 193924" d="M1.877,0A1.876,1.876,0,1,1,0,1.877,1.877,1.877,0,0,1,1.877,0Z" transform="translate(58.699 58.699)" fill="#e8e8e8"/>
          <path id="Trazado_193925" data-name="Trazado 193925" d="M1.877,0A1.876,1.876,0,1,1,0,1.877,1.877,1.877,0,0,1,1.877,0Z" transform="translate(68.652 58.699)" fill="#e8e8e8"/>
          <path id="Trazado_193926" data-name="Trazado 193926" d="M1.877,0A1.876,1.876,0,1,1,0,1.877,1.877,1.877,0,0,1,1.877,0Z" transform="translate(78.605 58.699)" fill="#e8e8e8"/>
          <path id="Trazado_193927" data-name="Trazado 193927" d="M1.877,0A1.876,1.876,0,1,1,0,1.877,1.877,1.877,0,0,1,1.877,0Z" transform="translate(88.558 58.699)" fill="#e8e8e8"/>
          <path id="Trazado_193928" data-name="Trazado 193928" d="M1.877,0A1.876,1.876,0,1,1,0,1.877,1.877,1.877,0,0,1,1.877,0Z" transform="translate(98.512 58.699)" fill="#e8e8e8"/>
          <path id="Trazado_193929" data-name="Trazado 193929" d="M1.877,0A1.876,1.876,0,1,1,0,1.877,1.877,1.877,0,0,1,1.877,0Z" transform="translate(108.465 58.699)" fill="#e8e8e8"/>
          <path id="Trazado_193930" data-name="Trazado 193930" d="M1.877,0A1.876,1.876,0,1,1,0,1.877,1.877,1.877,0,0,1,1.877,0Z" transform="translate(118.418 58.699)" fill="#e8e8e8"/>
          <path id="Trazado_193931" data-name="Trazado 193931" d="M1.877,0A1.876,1.876,0,1,1,0,1.877,1.877,1.877,0,0,1,1.877,0Z" transform="translate(128.371 58.699)" fill="#e8e8e8"/>
          <path id="Trazado_193932" data-name="Trazado 193932" d="M1.877,0A1.876,1.876,0,1,1,0,1.877,1.877,1.877,0,0,1,1.877,0Z" transform="translate(138.324 58.699)" fill="#e8e8e8"/>
          <path id="Trazado_193933" data-name="Trazado 193933" d="M1.875,0A1.876,1.876,0,1,1,0,1.877,1.875,1.875,0,0,1,1.875,0Z" transform="translate(148.28 58.699)" fill="#e8e8e8"/>
          <ellipse id="Elipse_5611" data-name="Elipse 5611" cx="0.414" cy="0.414" rx="0.414" ry="0.414" transform="translate(159.695 60.162)" fill="#e8e8e8"/>
          <ellipse id="Elipse_5612" data-name="Elipse 5612" cx="0.028" cy="0.028" rx="0.028" ry="0.028" transform="translate(0.828 50.595)" fill="#e8e8e8"/>
          <path id="Trazado_193934" data-name="Trazado 193934" d="M1.657,0A1.656,1.656,0,1,1,0,1.655,1.654,1.654,0,0,1,1.657,0Z" transform="translate(9.153 48.967)" fill="#e8e8e8"/>
          <path id="Trazado_193935" data-name="Trazado 193935" d="M1.877,0A1.876,1.876,0,1,1,0,1.875,1.874,1.874,0,0,1,1.877,0Z" transform="translate(18.886 48.746)" fill="#e8e8e8"/>
          <path id="Trazado_193936" data-name="Trazado 193936" d="M1.877,0A1.876,1.876,0,1,1,0,1.875,1.874,1.874,0,0,1,1.877,0" transform="translate(28.839 48.746)" fill="#e8e8e8"/>
          <path id="Trazado_193937" data-name="Trazado 193937" d="M1.877,0A1.876,1.876,0,1,1,0,1.875,1.874,1.874,0,0,1,1.877,0Z" transform="translate(38.792 48.746)" fill="#e8e8e8"/>
          <path id="Trazado_193938" data-name="Trazado 193938" d="M1.877,0A1.876,1.876,0,1,1,0,1.875,1.876,1.876,0,0,1,1.877,0Z" transform="translate(48.745 48.746)" fill="#e8e8e8"/>
          <path id="Trazado_193939" data-name="Trazado 193939" d="M1.877,0A1.876,1.876,0,1,1,0,1.875,1.876,1.876,0,0,1,1.877,0Z" transform="translate(58.699 48.746)" fill="#e8e8e8"/>
          <path id="Trazado_193940" data-name="Trazado 193940" d="M1.877,0A1.876,1.876,0,1,1,0,1.875,1.876,1.876,0,0,1,1.877,0Z" transform="translate(68.652 48.746)" fill="#e8e8e8"/>
          <path id="Trazado_193941" data-name="Trazado 193941" d="M1.877,0A1.876,1.876,0,1,1,0,1.875,1.876,1.876,0,0,1,1.877,0Z" transform="translate(78.605 48.746)" fill="#e8e8e8"/>
          <path id="Trazado_193942" data-name="Trazado 193942" d="M1.877,0A1.876,1.876,0,1,1,0,1.875,1.876,1.876,0,0,1,1.877,0Z" transform="translate(88.558 48.746)" fill="#e8e8e8"/>
          <path id="Trazado_193943" data-name="Trazado 193943" d="M1.877,0A1.876,1.876,0,1,1,0,1.875,1.876,1.876,0,0,1,1.877,0Z" transform="translate(98.512 48.746)" fill="#e8e8e8"/>
          <path id="Trazado_193944" data-name="Trazado 193944" d="M1.877,0A1.876,1.876,0,1,1,0,1.875,1.876,1.876,0,0,1,1.877,0Z" transform="translate(108.465 48.746)" fill="#e8e8e8"/>
          <path id="Trazado_193945" data-name="Trazado 193945" d="M1.877,0A1.876,1.876,0,1,1,0,1.875,1.876,1.876,0,0,1,1.877,0Z" transform="translate(118.418 48.746)" fill="#e8e8e8"/>
          <path id="Trazado_193946" data-name="Trazado 193946" d="M1.877,0A1.876,1.876,0,1,1,0,1.875,1.876,1.876,0,0,1,1.877,0Z" transform="translate(128.371 48.746)" fill="#e8e8e8"/>
          <path id="Trazado_193947" data-name="Trazado 193947" d="M1.877,0A1.876,1.876,0,1,1,0,1.875,1.876,1.876,0,0,1,1.877,0Z" transform="translate(138.324 48.746)" fill="#e8e8e8"/>
          <path id="Trazado_193948" data-name="Trazado 193948" d="M1.627,0A1.628,1.628,0,1,1,0,1.627,1.627,1.627,0,0,1,1.627,0Z" transform="translate(148.528 48.994)" fill="#e8e8e8"/>
          <ellipse id="Elipse_5613" data-name="Elipse 5613" cx="0.055" cy="0.055" rx="0.055" ry="0.055" transform="translate(160.054 50.567)" fill="#e8e8e8"/>
          <path id="Trazado_193949" data-name="Trazado 193949" d="M.775,0A.774.774,0,1,1,0,.773.774.774,0,0,1,.775,0Z" transform="translate(10.035 39.895)" fill="#e8e8e8"/>
          <path id="Trazado_193950" data-name="Trazado 193950" d="M1.877,0A1.876,1.876,0,1,1,0,1.875,1.875,1.875,0,0,1,1.877,0Z" transform="translate(18.886 38.793)" fill="#e8e8e8"/>
          <path id="Trazado_193951" data-name="Trazado 193951" d="M1.877,0A1.876,1.876,0,1,1,0,1.875,1.875,1.875,0,0,1,1.877,0Z" transform="translate(28.839 38.793)" fill="#e8e8e8"/>
          <path id="Trazado_193952" data-name="Trazado 193952" d="M1.877,0A1.876,1.876,0,1,1,0,1.875,1.875,1.875,0,0,1,1.877,0Z" transform="translate(38.792 38.793)" fill="#e8e8e8"/>
          <path id="Trazado_193953" data-name="Trazado 193953" d="M1.877,0A1.876,1.876,0,1,1,0,1.875,1.876,1.876,0,0,1,1.877,0Z" transform="translate(48.745 38.793)" fill="#e8e8e8"/>
          <path id="Trazado_193954" data-name="Trazado 193954" d="M1.877,0A1.876,1.876,0,1,1,0,1.875,1.876,1.876,0,0,1,1.877,0Z" transform="translate(58.699 38.793)" fill="#e8e8e8"/>
          <path id="Trazado_193955" data-name="Trazado 193955" d="M1.877,0A1.876,1.876,0,1,1,0,1.875,1.876,1.876,0,0,1,1.877,0Z" transform="translate(68.652 38.793)" fill="#e8e8e8"/>
          <path id="Trazado_193956" data-name="Trazado 193956" d="M1.877,0A1.876,1.876,0,1,1,0,1.875,1.876,1.876,0,0,1,1.877,0Z" transform="translate(78.605 38.793)" fill="#e8e8e8"/>
          <path id="Trazado_193957" data-name="Trazado 193957" d="M1.877,0A1.876,1.876,0,1,1,0,1.875,1.876,1.876,0,0,1,1.877,0Z" transform="translate(88.558 38.793)" fill="#e8e8e8"/>
          <path id="Trazado_193958" data-name="Trazado 193958" d="M1.877,0A1.876,1.876,0,1,1,0,1.875,1.876,1.876,0,0,1,1.877,0Z" transform="translate(98.512 38.793)" fill="#e8e8e8"/>
          <path id="Trazado_193959" data-name="Trazado 193959" d="M1.877,0A1.876,1.876,0,1,1,0,1.875,1.876,1.876,0,0,1,1.877,0Z" transform="translate(108.465 38.793)" fill="#e8e8e8"/>
          <path id="Trazado_193960" data-name="Trazado 193960" d="M1.877,0A1.876,1.876,0,1,1,0,1.875,1.876,1.876,0,0,1,1.877,0Z" transform="translate(118.418 38.793)" fill="#e8e8e8"/>
          <path id="Trazado_193961" data-name="Trazado 193961" d="M1.877,0A1.876,1.876,0,1,1,0,1.875,1.876,1.876,0,0,1,1.877,0Z" transform="translate(128.371 38.793)" fill="#e8e8e8"/>
          <path id="Trazado_193962" data-name="Trazado 193962" d="M1.877,0A1.876,1.876,0,1,1,0,1.875,1.876,1.876,0,0,1,1.877,0Z" transform="translate(138.324 38.793)" fill="#e8e8e8"/>
          <path id="Trazado_193963" data-name="Trazado 193963" d="M.745,0A.746.746,0,1,1,0,.745.746.746,0,0,1,.745,0Z" transform="translate(149.41 39.923)" fill="#e8e8e8"/>
          <ellipse id="Elipse_5614" data-name="Elipse 5614" cx="0.028" cy="0.028" rx="0.028" ry="0.028" transform="translate(10.781 30.688)" fill="#e8e8e8"/>
          <path id="Trazado_193964" data-name="Trazado 193964" d="M1.325,0A1.325,1.325,0,1,1,0,1.325,1.327,1.327,0,0,1,1.325,0Z" transform="translate(19.438 29.39)" fill="#e8e8e8"/>
          <ellipse id="Elipse_5615" data-name="Elipse 5615" cx="1.877" cy="1.877" rx="1.877" ry="1.877" transform="translate(28.839 28.839)" fill="#e8e8e8"/>
          <ellipse id="Elipse_5616" data-name="Elipse 5616" cx="1.877" cy="1.877" rx="1.877" ry="1.877" transform="translate(38.792 28.839)" fill="#e8e8e8"/>
          <ellipse id="Elipse_5617" data-name="Elipse 5617" cx="1.877" cy="1.877" rx="1.877" ry="1.877" transform="translate(48.745 28.839)" fill="#e8e8e8"/>
          <ellipse id="Elipse_5618" data-name="Elipse 5618" cx="1.877" cy="1.877" rx="1.877" ry="1.877" transform="translate(58.699 28.839)" fill="#e8e8e8"/>
          <ellipse id="Elipse_5619" data-name="Elipse 5619" cx="1.877" cy="1.877" rx="1.877" ry="1.877" transform="translate(68.652 28.839)" fill="#e8e8e8"/>
          <path id="Trazado_193965" data-name="Trazado 193965" d="M1.877,0A1.876,1.876,0,1,1,0,1.875,1.876,1.876,0,0,1,1.877,0Z" transform="translate(78.605 28.84)" fill="#e8e8e8"/>
          <path id="Trazado_193966" data-name="Trazado 193966" d="M1.877,0A1.876,1.876,0,1,1,0,1.875,1.876,1.876,0,0,1,1.877,0Z" transform="translate(88.558 28.84)" fill="#e8e8e8"/>
          <path id="Trazado_193967" data-name="Trazado 193967" d="M1.877,0A1.876,1.876,0,1,1,0,1.875,1.876,1.876,0,0,1,1.877,0Z" transform="translate(98.512 28.84)" fill="#e8e8e8"/>
          <path id="Trazado_193968" data-name="Trazado 193968" d="M1.877,0A1.876,1.876,0,1,1,0,1.875,1.876,1.876,0,0,1,1.877,0Z" transform="translate(108.465 28.84)" fill="#e8e8e8"/>
          <path id="Trazado_193969" data-name="Trazado 193969" d="M1.877,0A1.876,1.876,0,1,1,0,1.875,1.876,1.876,0,0,1,1.877,0Z" transform="translate(118.418 28.84)" fill="#e8e8e8"/>
          <path id="Trazado_193970" data-name="Trazado 193970" d="M1.877,0A1.876,1.876,0,1,1,0,1.875,1.876,1.876,0,0,1,1.877,0Z" transform="translate(128.371 28.84)" fill="#e8e8e8"/>
          <path id="Trazado_193971" data-name="Trazado 193971" d="M1.3,0A1.3,1.3,0,1,1,0,1.3,1.3,1.3,0,0,1,1.3,0Z" transform="translate(138.904 29.418)" fill="#e8e8e8"/>
          <ellipse id="Elipse_5620" data-name="Elipse 5620" cx="0.028" cy="0.028" rx="0.028" ry="0.028" transform="translate(150.128 30.688)" fill="#e8e8e8"/>
          <ellipse id="Elipse_5621" data-name="Elipse 5621" cx="0.083" cy="0.083" rx="0.083" ry="0.083" transform="translate(20.679 20.679)" fill="#e8e8e8"/>
          <path id="Trazado_193972" data-name="Trazado 193972" d="M1.325,0A1.325,1.325,0,1,1,0,1.325,1.327,1.327,0,0,1,1.325,0Z" transform="translate(29.391 19.437)" fill="#e8e8e8"/>
          <ellipse id="Elipse_5622" data-name="Elipse 5622" cx="1.877" cy="1.877" rx="1.877" ry="1.877" transform="translate(38.792 18.885)" fill="#e8e8e8"/>
          <ellipse id="Elipse_5623" data-name="Elipse 5623" cx="1.877" cy="1.877" rx="1.877" ry="1.877" transform="translate(48.745 18.885)" fill="#e8e8e8"/>
          <ellipse id="Elipse_5624" data-name="Elipse 5624" cx="1.877" cy="1.877" rx="1.877" ry="1.877" transform="translate(58.699 18.885)" fill="#e8e8e8"/>
          <ellipse id="Elipse_5625" data-name="Elipse 5625" cx="1.877" cy="1.877" rx="1.877" ry="1.877" transform="translate(68.652 18.885)" fill="#e8e8e8"/>
          <path id="Trazado_193973" data-name="Trazado 193973" d="M1.877,0A1.876,1.876,0,1,1,0,1.875,1.876,1.876,0,0,1,1.877,0Z" transform="translate(78.605 18.886)" fill="#e8e8e8"/>
          <path id="Trazado_193974" data-name="Trazado 193974" d="M1.877,0A1.876,1.876,0,1,1,0,1.875,1.876,1.876,0,0,1,1.877,0Z" transform="translate(88.558 18.886)" fill="#e8e8e8"/>
          <path id="Trazado_193975" data-name="Trazado 193975" d="M1.877,0A1.876,1.876,0,1,1,0,1.875,1.876,1.876,0,0,1,1.877,0Z" transform="translate(98.512 18.886)" fill="#e8e8e8"/>
          <path id="Trazado_193976" data-name="Trazado 193976" d="M1.877,0A1.876,1.876,0,1,1,0,1.875,1.876,1.876,0,0,1,1.877,0Z" transform="translate(108.465 18.886)" fill="#e8e8e8"/>
          <path id="Trazado_193977" data-name="Trazado 193977" d="M1.877,0A1.876,1.876,0,1,1,0,1.875,1.876,1.876,0,0,1,1.877,0Z" transform="translate(118.418 18.886)" fill="#e8e8e8"/>
          <path id="Trazado_193978" data-name="Trazado 193978" d="M1.3,0A1.3,1.3,0,1,1,0,1.3,1.3,1.3,0,0,1,1.3,0Z" transform="translate(128.951 19.464)" fill="#e8e8e8"/>
          <path id="Trazado_193979" data-name="Trazado 193979" d="M.109,0A.11.11,0,1,1,0,.109.11.11,0,0,1,.109,0Z" transform="translate(140.092 20.652)" fill="#e8e8e8"/>
          <ellipse id="Elipse_5626" data-name="Elipse 5626" cx="0.028" cy="0.028" rx="0.028" ry="0.028" transform="translate(30.688 10.781)" fill="#e8e8e8"/>
          <path id="Trazado_193980" data-name="Trazado 193980" d="M.773,0A.773.773,0,1,1,0,.773.774.774,0,0,1,.773,0Z" transform="translate(39.897 10.036)" fill="#e8e8e8"/>
          <path id="Trazado_193981" data-name="Trazado 193981" d="M1.629,0A1.628,1.628,0,1,1,0,1.627,1.628,1.628,0,0,1,1.629,0Z" transform="translate(48.994 9.182)" fill="#e8e8e8"/>
          <ellipse id="Elipse_5627" data-name="Elipse 5627" cx="1.877" cy="1.877" rx="1.877" ry="1.877" transform="translate(58.699 8.932)" fill="#e8e8e8"/>
          <ellipse id="Elipse_5628" data-name="Elipse 5628" cx="1.877" cy="1.877" rx="1.877" ry="1.877" transform="translate(68.652 8.932)" fill="#e8e8e8"/>
          <path id="Trazado_193982" data-name="Trazado 193982" d="M1.877,0A1.876,1.876,0,1,1,0,1.875,1.876,1.876,0,0,1,1.877,0Z" transform="translate(78.605 8.933)" fill="#e8e8e8"/>
          <path id="Trazado_193983" data-name="Trazado 193983" d="M1.877,0A1.876,1.876,0,1,1,0,1.875,1.876,1.876,0,0,1,1.877,0Z" transform="translate(88.558 8.933)" fill="#e8e8e8"/>
          <path id="Trazado_193984" data-name="Trazado 193984" d="M1.877,0A1.876,1.876,0,1,1,0,1.875,1.876,1.876,0,0,1,1.877,0Z" transform="translate(98.512 8.933)" fill="#e8e8e8"/>
          <path id="Trazado_193985" data-name="Trazado 193985" d="M1.629,0A1.628,1.628,0,1,1,0,1.627,1.628,1.628,0,0,1,1.629,0Z" transform="translate(108.713 9.182)" fill="#e8e8e8"/>
          <path id="Trazado_193986" data-name="Trazado 193986" d="M.745,0A.745.745,0,1,1,0,.745.745.745,0,0,1,.745,0Z" transform="translate(119.55 10.063)" fill="#e8e8e8"/>
          <ellipse id="Elipse_5629" data-name="Elipse 5629" cx="0.028" cy="0.028" rx="0.028" ry="0.028" transform="translate(130.221 10.781)" fill="#e8e8e8"/>
          <ellipse id="Elipse_5630" data-name="Elipse 5630" cx="0.055" cy="0.055" rx="0.055" ry="0.055" transform="translate(50.567 0.8)" fill="#e8e8e8"/>
          <path id="Trazado_193987" data-name="Trazado 193987" d="M.413,0A.414.414,0,1,1,0,.413.412.412,0,0,1,.413,0Z" transform="translate(60.163 0.442)" fill="#e8e8e8"/>
          <path id="Trazado_193988" data-name="Trazado 193988" d="M.773,0A.773.773,0,1,1,0,.773.774.774,0,0,1,.773,0Z" transform="translate(69.756 0.082)" fill="#e8e8e8"/>
          <ellipse id="Elipse_5631" data-name="Elipse 5631" cx="0.856" cy="0.856" rx="0.856" ry="0.856" transform="translate(79.627)" fill="#e8e8e8"/>
          <path id="Trazado_193989" data-name="Trazado 193989" d="M.773,0A.773.773,0,1,1,0,.773.774.774,0,0,1,.773,0Z" transform="translate(89.663 0.082)" fill="#e8e8e8"/>
          <path id="Trazado_193990" data-name="Trazado 193990" d="M.413,0A.414.414,0,1,1,0,.413.412.412,0,0,1,.413,0Z" transform="translate(99.976 0.442)" fill="#e8e8e8"/>
          <ellipse id="Elipse_5632" data-name="Elipse 5632" cx="0.055" cy="0.055" rx="0.055" ry="0.055" transform="translate(110.287 0.8)" fill="#e8e8e8"/>
        </g>
      </g>
      <g id="Grupo_169387" data-name="Grupo 169387" transform="translate(0 195.381)">
        <path id="Trazado_211593" data-name="Trazado 211593" d="M3.926,297.385c.227.369.463.728.707,1.08L42.556,275.22c-.2-.376-.416-.751-.642-1.121-.333-.544-.688-1.066-1.06-1.573L3,295.727c.282.56.588,1.115.921,1.659" transform="translate(-0.778 -263.724)" fill="#43a99b"/>
        <path id="Trazado_211594" data-name="Trazado 211594" d="M22.66,312.881,48.373,297.12a22.328,22.328,0,0,0,.772-4.209L18.559,311.659a22.418,22.418,0,0,0,4.1,1.222" transform="translate(-4.805 -269.002)" fill="#43a99b"/>
        <path id="Trazado_211595" data-name="Trazado 211595" d="M11.677,306.34,46.55,284.963a22.041,22.041,0,0,0-.727-3.29L9.074,304.2a22.125,22.125,0,0,0,2.6,2.141" transform="translate(-2.349 -266.093)" fill="#43a99b"/>
        <path id="Trazado_211596" data-name="Trazado 211596" d="M42.905,314.063a22.213,22.213,0,0,0,6.1-5.513L35.224,317a22.224,22.224,0,0,0,7.681-2.935" transform="translate(-9.12 -273.052)" fill="#43a99b"/>
        <path id="Trazado_211597" data-name="Trazado 211597" d="M.637,289.7,37.1,267.346a22.013,22.013,0,0,0-2.692-2.086L0,286.352A22.045,22.045,0,0,0,.637,289.7" transform="translate(0 -261.843)" fill="#43a99b"/>
        <path id="Trazado_211598" data-name="Trazado 211598" d="M12.453,263.848a22.259,22.259,0,0,0-4.907,4.074l10.764-6.6a22.243,22.243,0,0,0-5.857,2.523" transform="translate(-1.954 -260.824)" fill="#43a99b"/>
        <path id="Trazado_211599" data-name="Trazado 211599" d="M.029,280.022l29.8-18.266a22.418,22.418,0,0,0-4.292-1.106L.992,275.7a22.354,22.354,0,0,0-.963,4.326" transform="translate(-0.008 -260.649)" fill="#43a99b"/>
      </g>
    </g>
    <g id="Grupo_177576" data-name="Grupo 177576" transform="translate(117.303 -464.069)">
      <g id="Grupo_177575" data-name="Grupo 177575" transform="translate(311 9029.581)">
        <g id="Grupo_177574" data-name="Grupo 177574" clip-path="url(#clip-path-2)">
          <path id="Trazado_226668" data-name="Trazado 226668" d="M613.033,208.509a12.093,12.093,0,0,1-16.323-9.441c-12.412.629-25.979,1.534-27.35,1.625l0-.062c12.055-3.585,15.945-6.079,26.5-9.463a10.537,10.537,0,0,1,10.3-9.318,11.893,11.893,0,0,1,22.206-2.127,9.806,9.806,0,0,1,8.325.945,7.98,7.98,0,0,1,3.512,7.038,10.19,10.19,0,0,1-3.912,17.821,13.83,13.83,0,0,1-23.253,2.981" transform="translate(-405.279 -123.164)" fill="#ced8e0"/>
          <path id="Trazado_226669" data-name="Trazado 226669" d="M713.143,304.291a1.952,1.952,0,1,1-1.952,1.952,1.953,1.953,0,0,1,1.952-1.952" transform="translate(-506.24 -216.6)" fill="#ced8e0"/>
          <path id="Trazado_226670" data-name="Trazado 226670" d="M682.692,180.495a2.343,2.343,0,1,1-2.345,2.345,2.34,2.34,0,0,1,2.345-2.345" transform="translate(-484.284 -128.48)" fill="#ced8e0"/>
          <path id="Trazado_226671" data-name="Trazado 226671" d="M15.611,179.724a11.895,11.895,0,0,1,16.4-5.271,12.13,12.13,0,0,1,5.813,7.4,10.53,10.53,0,0,1,10.292,9.314c10.561,3.385,14.451,5.882,26.507,9.467l0,.062c-1.374-.091-14.942-.992-27.35-1.625a12.1,12.1,0,0,1-16.324,9.441,14.165,14.165,0,0,1-13.713,4.726,14.216,14.216,0,0,1-9.54-7.707,10.553,10.553,0,0,1-7.438-7.54A10.563,10.563,0,0,1,3.774,187.7a8,8,0,0,1,3.516-7.035,9.8,9.8,0,0,1,8.322-.945" transform="translate(0 -123.164)" fill="#ced8e0"/>
          <path id="Trazado_226672" data-name="Trazado 226672" d="M134.014,180.495a2.343,2.343,0,1,1-2.345,2.345,2.344,2.344,0,0,1,2.345-2.345" transform="translate(-93.725 -128.48)" fill="#ced8e0"/>
          <path id="Trazado_226673" data-name="Trazado 226673" d="M105.5,304.291a1.952,1.952,0,1,1-1.952,1.952,1.95,1.95,0,0,1,1.952-1.952" transform="translate(-73.709 -216.6)" fill="#ced8e0"/>
          <path id="Trazado_226674" data-name="Trazado 226674" d="M45.277,184.027a1,1,0,1,1-1,1,1,1,0,0,1,1-1" transform="translate(-31.52 -130.994)" fill="#ced8e0"/>
          <path id="Trazado_226675" data-name="Trazado 226675" d="M530.55,252.221c.156-1.4.316-2.825.458-4.061l.026,0a14.267,14.267,0,0,1,1.832-1.007,5.719,5.719,0,0,1,.88-.3,3.337,3.337,0,0,1,2.879.487,4.364,4.364,0,0,1,1.265,2.261,18.983,18.983,0,0,1,.738,4.373,6.274,6.274,0,0,1-.429,3.036c-.633,1.341-1.974,2.178-3.01,3.243-1.112,1.141-1.89,2.567-2.948,3.752a5.1,5.1,0,0,1-4.017,1.978,46.461,46.461,0,0,0,1.85-9.732h.022c.131-1.142.291-2.571.454-4.032" transform="translate(-376 -175.63)" fill="#fbc7b2"/>
          <path id="Trazado_226676" data-name="Trazado 226676" d="M77.93,404.486q2.879-2.192,5.751-4.381a5.175,5.175,0,0,1,3.432-1.458c1.861.185,2.941,2.45,2.508,4.272a5.683,5.683,0,0,1-1.156,2.258l.036.029a2.565,2.565,0,0,1,3.29,1.105A4.054,4.054,0,0,1,91.8,409.9a2.711,2.711,0,0,1,2.625,1.7,4.242,4.242,0,0,1-.124,3.258,6.344,6.344,0,0,1-.523,1l.08.047a5.458,5.458,0,0,1,2.425,5.569,12.023,12.023,0,0,1-2.88,5.7c-5.322,6.558-13.059,10.754-18.719,17.025q-2.885,3.2-5.439,6.58c-11.917,15.665-19.268,33.781-31.2,49.872-3.337,4.5-7.144,9.223-12.557,10.688-5.97,1.622-12.583-1.443-16.2-6.464s-4.541-11.6-3.7-17.73,3.286-11.914,5.937-17.5a229.179,229.179,0,0,1,35.33-53.522,75.517,75.517,0,0,0,14.466,12.841,39.778,39.778,0,0,0,2.137-8.191c.665-3.9,1.113-7.882,2.374-11.655,1.174-3.512,4.13-6.151,7.209-8.125a3.527,3.527,0,0,1,1.421-.622,2.608,2.608,0,0,1,2.378,1.269,7.61,7.61,0,0,1,.945,2.661Z" transform="translate(-3.775 -283.756)" fill="#fbc7b2"/>
          <path id="Trazado_226677" data-name="Trazado 226677" d="M363.316,250.511c1.207,0,2.189,1.436,2.189,3.2s-.982,3.207-2.189,3.207-2.185-1.436-2.185-3.207.978-3.2,2.185-3.2" transform="translate(-257.06 -178.319)" fill="#3c3a73"/>
          <path id="Trazado_226678" data-name="Trazado 226678" d="M274.408,252.221c.164,1.461.324,2.89.454,4.032h.022a46.469,46.469,0,0,0,1.85,9.732,5.1,5.1,0,0,1-4.017-1.978c-1.058-1.185-1.836-2.61-2.948-3.752-1.036-1.065-2.378-1.9-3.01-3.243a6.274,6.274,0,0,1-.429-3.036,18.967,18.967,0,0,1,.738-4.373,4.362,4.362,0,0,1,1.265-2.261,3.337,3.337,0,0,1,2.879-.487,5.715,5.715,0,0,1,.88.3,14.256,14.256,0,0,1,1.832,1.007l.025,0c.142,1.236.3,2.665.458,4.061" transform="translate(-189.565 -175.63)" fill="#fbc7b2"/>
          <path id="Trazado_226679" data-name="Trazado 226679" d="M452.356,250.511c1.207,0,2.185,1.436,2.185,3.2s-.978,3.207-2.185,3.207-2.185-1.436-2.185-3.207.978-3.2,2.185-3.2" transform="translate(-320.441 -178.319)" fill="#3c3a73"/>
          <path id="Trazado_226680" data-name="Trazado 226680" d="M383.428,324.415a23.56,23.56,0,0,0,3.941-.476c1.527-.316,3.112-.785,4.61-.356a5.639,5.639,0,0,1,3.068,2.545,7.6,7.6,0,0,1,.982,6.155,5.649,5.649,0,0,1-4.581,3.984c-2.767.3-5.315-1.756-8.02-2.127-2.7.368-5.257,2.425-8.027,2.127a5.65,5.65,0,0,1-4.577-3.984,7.6,7.6,0,0,1,.982-6.155,5.641,5.641,0,0,1,3.069-2.545c1.5-.429,3.083.04,4.61.356a23.218,23.218,0,0,0,3.945.476" transform="translate(-263.76 -230.21)" fill="#fff"/>
          <path id="Trazado_226681" data-name="Trazado 226681" d="M507.555,405.177a5.643,5.643,0,0,1-1.16-2.258c-.429-1.822.651-4.086,2.512-4.272a5.175,5.175,0,0,1,3.432,1.458q2.874,2.192,5.752,4.381l.142-.185a7.673,7.673,0,0,1,.942-2.661,2.613,2.613,0,0,1,2.381-1.269,3.525,3.525,0,0,1,1.422.622c3.075,1.974,6.035,4.613,7.209,8.125,1.262,3.774,1.709,7.751,2.374,11.655a39.724,39.724,0,0,0,2.138,8.187,75.268,75.268,0,0,0,14.466-12.837,229.183,229.183,0,0,1,35.33,53.522c2.65,5.588,5.1,11.372,5.937,17.5s-.091,12.71-3.7,17.73-10.227,8.085-16.2,6.464c-5.41-1.465-9.216-6.184-12.553-10.688-11.928-16.091-19.279-34.207-31.2-49.868-1.712-2.25-3.516-4.45-5.442-6.584-5.657-6.271-13.393-10.467-18.719-17.025a12.016,12.016,0,0,1-2.876-5.7,5.456,5.456,0,0,1,2.421-5.569l.08-.051a6.793,6.793,0,0,1-.523-.992,4.257,4.257,0,0,1-.12-3.257,2.709,2.709,0,0,1,2.625-1.7,4.042,4.042,0,0,1,.007-3.588,2.564,2.564,0,0,1,3.29-1.105Z" transform="translate(-355.681 -283.756)" fill="#fbc7b2"/>
          <path id="Trazado_226682" data-name="Trazado 226682" d="M142.382,391.587c-1-1.141-1.96-2.316-2.879-3.516,8.311-6.475,14.368-16.076,24.064-20.173,9.413-3.977,20.235-1.894,30.28-3.734a46.67,46.67,0,0,0,4.014,4.664,20.515,20.515,0,0,0,18.857,20.137c6.159.5,12.535-2.53,16.491-7.216a20.786,20.786,0,0,0,4.679-10.772,47.119,47.119,0,0,0,5.966-6.428c9.311,1.149,19.119-.3,27.746,3.348,9.7,4.1,15.756,13.7,24.064,20.173-.92,1.2-1.883,2.374-2.879,3.516a75.259,75.259,0,0,1-14.466,12.837,39.724,39.724,0,0,1-2.138-8.187c-.665-3.9-1.112-7.882-2.374-11.655-1.174-3.512-4.133-6.151-7.209-8.126a3.523,3.523,0,0,0-1.422-.622,2.613,2.613,0,0,0-2.381,1.269,7.681,7.681,0,0,0-.941,2.661l-.142.185q-2.874-2.187-5.751-4.381a5.176,5.176,0,0,0-3.432-1.458c-1.861.185-2.941,2.45-2.512,4.272a5.647,5.647,0,0,0,1.16,2.258l-.036.029a2.564,2.564,0,0,0-3.29,1.105,4.041,4.041,0,0,0-.007,3.588,2.708,2.708,0,0,0-2.625,1.7,4.258,4.258,0,0,0,.12,3.258,6.818,6.818,0,0,0,.523.992l-.08.051a5.457,5.457,0,0,0-2.421,5.57,12.019,12.019,0,0,0,2.876,5.7c5.326,6.558,13.062,10.754,18.719,17.025,1.927,2.134,3.73,4.334,5.442,6.584a372.063,372.063,0,0,0-3.821,66.475H168.591a372.8,372.8,0,0,0-3.821-66.479q2.563-3.376,5.439-6.58c5.66-6.271,13.4-10.467,18.719-17.025a12.025,12.025,0,0,0,2.879-5.7,5.459,5.459,0,0,0-2.425-5.57l-.08-.047a6.357,6.357,0,0,0,.524-1,4.244,4.244,0,0,0,.124-3.258,2.712,2.712,0,0,0-2.625-1.7,4.054,4.054,0,0,0-.007-3.588,2.565,2.565,0,0,0-3.29-1.105l-.036-.029a5.683,5.683,0,0,0,1.156-2.258c.433-1.822-.647-4.086-2.508-4.272a5.175,5.175,0,0,0-3.432,1.458q-2.874,2.192-5.752,4.381l-.142-.185a7.61,7.61,0,0,0-.945-2.661,2.607,2.607,0,0,0-2.377-1.269,3.523,3.523,0,0,0-1.422.622c-3.079,1.974-6.035,4.613-7.209,8.126-1.262,3.774-1.709,7.751-2.374,11.655a39.761,39.761,0,0,1-2.138,8.191,75.517,75.517,0,0,1-14.466-12.841" transform="translate(-99.301 -259.219)" fill="#43a99b"/>
          <path id="Trazado_226683" data-name="Trazado 226683" d="M330.865,29.028a34.407,34.407,0,0,1-3.788-4.635,26.959,26.959,0,0,0-2.927.738,27.284,27.284,0,0,0-6,2.72c-.324.2-.647.393-.967.589a9.662,9.662,0,0,1-5.232-5.333,6.879,6.879,0,0,1,2.1-7.751,7.779,7.779,0,0,1,5.264-1.225,20.3,20.3,0,0,1,4.606,1.109,19.74,19.74,0,0,1-.956-4.167,12.621,12.621,0,0,1,.069-3.29,9.208,9.208,0,0,1,2.519-5.249C328.084.045,332.051-.406,335.526.3s6.653,2.4,9.943,3.726A20.661,20.661,0,0,0,353.395,5.8a19.336,19.336,0,0,1,3.025-.483,10.691,10.691,0,0,1,8.027,2.388,9.632,9.632,0,0,1,2.887,6.173,16.193,16.193,0,0,1-1,6.842,20.169,20.169,0,0,1-3.664,6.442,14.3,14.3,0,0,1-6.17,4.319c-2.912,1-6.064.9-9.129,1.2-3.236.309-6.526,1.065-9.7.353a14.4,14.4,0,0,1-6.806-4.006" transform="translate(-221.759 0)" fill="#753f1b"/>
          <path id="Trazado_226684" data-name="Trazado 226684" d="M290.092,121.936a33.387,33.387,0,0,1-1.8,8.587c-.833,2.1-2.08,4.1-2.414,6.318-.156-1.4-.316-2.825-.458-4.061l-.025,0a14.256,14.256,0,0,0-1.832-1.007,37.2,37.2,0,0,1-1.094-9.58c-.207-7.126.258-14.437,3.028-21.006a26.5,26.5,0,0,1,6.988-9.772,28.474,28.474,0,0,1,3.977-2.73c.32-.2.643-.393.967-.589a27.281,27.281,0,0,1,6-2.719,26.824,26.824,0,0,1,2.927-.738,34.428,34.428,0,0,0,3.788,4.635,14.4,14.4,0,0,0,6.806,4.007c3.174.712,6.464-.044,9.7-.353,3.065-.295,6.217-.2,9.129-1.2a14.3,14.3,0,0,0,6.169-4.319c6.406,2.029,11.4,7.544,14.022,13.775,2.77,6.569,3.236,13.88,3.028,21.006a37.2,37.2,0,0,1-1.094,9.58,14.282,14.282,0,0,0-1.832,1.007l-.025,0c-.142,1.236-.3,2.665-.458,4.061-.334-2.221-1.581-4.217-2.414-6.318a33.389,33.389,0,0,1-1.8-8.587,7.135,7.135,0,0,1-1.967-1.007,11.209,11.209,0,0,1-2.843-3.5c-1.218-2.087-2.261-4.272-3.49-6.351a20.976,20.976,0,0,0-4.526-5.613l.007-.065a127.662,127.662,0,0,0-17.821-.76,127.659,127.659,0,0,0-17.821.76l.007.065a20.975,20.975,0,0,0-4.526,5.613c-1.229,2.08-2.272,4.264-3.49,6.351a11.209,11.209,0,0,1-2.843,3.5,7.135,7.135,0,0,1-1.967,1.007" transform="translate(-201.036 -60.251)" fill="#753f1b"/>
          <path id="Trazado_226685" data-name="Trazado 226685" d="M372.218,389.252a47.076,47.076,0,0,0,9.816-6.755,20.785,20.785,0,0,1-4.679,10.772c-3.956,4.686-10.332,7.718-16.491,7.217a20.516,20.516,0,0,1-18.857-20.137,47,47,0,0,0,12.063,8.9c2.817,1.447,5.922,2.628,9.074,2.374,3.152.254,6.257-.927,9.074-2.374" transform="translate(-243.447 -270.74)" fill="#fbc7b2"/>
          <path id="Trazado_226686" data-name="Trazado 226686" d="M343.666,184.911c0-1.767-.978-3.2-2.185-3.2s-2.185,1.436-2.185,3.2.978,3.207,2.185,3.207,2.185-1.436,2.185-3.207m-27.845-3.2c-1.207,0-2.185,1.436-2.185,3.2s.978,3.207,2.185,3.207,2.189-1.436,2.189-3.207-.982-3.2-2.189-3.2m-19.086,18.163a46.484,46.484,0,0,1-1.85-9.732h-.022c-.131-1.141-.291-2.57-.454-4.032.335-2.221,1.582-4.217,2.414-6.318a33.388,33.388,0,0,0,1.8-8.587,7.147,7.147,0,0,0,1.967-1.007,11.214,11.214,0,0,0,2.843-3.5c1.218-2.087,2.261-4.272,3.49-6.351a20.973,20.973,0,0,1,4.526-5.613l-.007-.065a127.7,127.7,0,0,1,17.821-.76,127.707,127.707,0,0,1,17.821.76l-.007.065a20.97,20.97,0,0,1,4.526,5.613c1.229,2.08,2.272,4.264,3.49,6.351a11.213,11.213,0,0,0,2.843,3.5A7.143,7.143,0,0,0,359.9,171.2a33.4,33.4,0,0,0,1.8,8.587c.833,2.1,2.079,4.1,2.414,6.318-.164,1.462-.324,2.89-.454,4.032h-.022a46.442,46.442,0,0,1-1.85,9.732,47,47,0,0,1-5.835,12.408c-.582.876-1.2,1.734-1.836,2.566a47.126,47.126,0,0,1-15.782,13.183c-2.818,1.447-5.922,2.629-9.074,2.374-3.152.254-6.257-.927-9.074-2.374a47.267,47.267,0,0,1-16.076-13.568q-.8-1.069-1.541-2.181a47.019,47.019,0,0,1-5.835-12.408m45.1,11.717a7.6,7.6,0,0,0-.982-6.155,5.643,5.643,0,0,0-3.069-2.545c-1.5-.429-3.083.04-4.61.356a23.561,23.561,0,0,1-3.941.476,23.218,23.218,0,0,1-3.945-.476c-1.527-.316-3.112-.785-4.61-.356a5.643,5.643,0,0,0-3.069,2.545,7.6,7.6,0,0,0-.982,6.155,5.65,5.65,0,0,0,4.577,3.985c2.77.3,5.322-1.76,8.027-2.127,2.7.371,5.253,2.425,8.02,2.127a5.65,5.65,0,0,0,4.581-3.985" transform="translate(-209.565 -109.516)" fill="#fbc7b2"/>
          <path id="Trazado_226687" data-name="Trazado 226687" d="M315.895,285.482a5.855,5.855,0,1,0,5.855-5.855,5.855,5.855,0,0,0-5.855,5.855" transform="translate(-224.86 -199.044)" fill="#fba997"/>
          <path id="Trazado_226688" data-name="Trazado 226688" d="M472.628,285.482a5.855,5.855,0,1,0,5.854-5.855,5.854,5.854,0,0,0-5.854,5.855" transform="translate(-336.426 -199.044)" fill="#fba997"/>
          <path id="Trazado_226689" data-name="Trazado 226689" d="M404.692,303.416a6.193,6.193,0,0,1-.845-.058,6.259,6.259,0,0,1-3.619-1.833.364.364,0,1,1,.522-.506,5.5,5.5,0,0,0,6.713.927.364.364,0,1,1,.365.629,6.264,6.264,0,0,1-3.136.841" transform="translate(-284.817 -214.193)" fill="#eb6b69"/>
          <path id="Trazado_226690" data-name="Trazado 226690" d="M425.433,285.558a.364.364,0,0,1-.333-.509,3.753,3.753,0,0,0,.026-2.6,12.027,12.027,0,0,0-1.264-2.524.364.364,0,0,1,.623-.375,12.525,12.525,0,0,1,1.335,2.682,4.47,4.47,0,0,1-.054,3.108.364.364,0,0,1-.333.218" transform="translate(-301.677 -198.864)" fill="#eb6b69"/>
          <path id="Trazado_226691" data-name="Trazado 226691" d="M362.422,256.387c-1.405,0-2.549-1.6-2.549-3.567s1.144-3.567,2.549-3.567,2.549,1.6,2.549,3.567-1.144,3.567-2.549,3.567m0-6.407c-.988,0-1.822,1.3-1.822,2.84s.835,2.84,1.822,2.84,1.822-1.3,1.822-2.84-.834-2.84-1.822-2.84" transform="translate(-256.165 -177.423)" fill="#3c3a73"/>
          <path id="Trazado_226692" data-name="Trazado 226692" d="M356.319,243.211a14.066,14.066,0,0,1-5.055-1.21l-.631-.252a14.249,14.249,0,0,0-5.889-1.45.363.363,0,1,1-.039-.726,14.73,14.73,0,0,1,6.2,1.5l.627.251c2.137.846,4.407,1.543,6.519.918a.364.364,0,1,1,.207.7,6.782,6.782,0,0,1-1.938.271" transform="translate(-245.123 -170.524)" fill="#3c3a73"/>
          <path id="Trazado_226693" data-name="Trazado 226693" d="M451.459,256.387c-1.405,0-2.549-1.6-2.549-3.567s1.144-3.567,2.549-3.567,2.549,1.6,2.549,3.567-1.143,3.567-2.549,3.567m0-6.407c-.988,0-1.822,1.3-1.822,2.84s.835,2.84,1.822,2.84,1.822-1.3,1.822-2.84-.834-2.84-1.822-2.84" transform="translate(-319.543 -177.423)" fill="#3c3a73"/>
          <path id="Trazado_226694" data-name="Trazado 226694" d="M439.2,243.211a6.781,6.781,0,0,1-1.938-.271.364.364,0,1,1,.207-.7c2.112.625,4.382-.072,6.518-.918l.627-.251a14.739,14.739,0,0,1,6.2-1.5.363.363,0,1,1-.039.726,14.25,14.25,0,0,0-5.889,1.45l-.631.252a14.073,14.073,0,0,1-5.055,1.21" transform="translate(-311.069 -170.525)" fill="#3c3a73"/>
          <path id="Trazado_226695" data-name="Trazado 226695" d="M415.094,396.438c-.322,0-.644-.014-.968-.042a.364.364,0,1,1,.065-.724c3.345.3,6.545-1.088,8.961-2.33a46.566,46.566,0,0,0,9.736-6.7.364.364,0,0,1,.484.542,47.3,47.3,0,0,1-9.888,6.8,19.033,19.033,0,0,1-8.39,2.449" transform="translate(-294.548 -275.154)" fill="#eb6b69"/>
          <path id="Trazado_226696" data-name="Trazado 226696" d="M537.439,267.571a.364.364,0,0,1-.21-.66,4.936,4.936,0,0,0,1.552-1.585,2.22,2.22,0,0,0,.158-1.974,3.713,3.713,0,0,0-.406-.617,6.135,6.135,0,0,1-.353-.5,3.2,3.2,0,0,1,3.71-4.7.363.363,0,1,1-.221.692,2.469,2.469,0,0,0-2.866,3.63,5.335,5.335,0,0,0,.311.442,4.316,4.316,0,0,1,.482.743,2.914,2.914,0,0,1-.179,2.638,5.617,5.617,0,0,1-1.768,1.827.364.364,0,0,1-.21.067" transform="translate(-382.3 -183.212)" fill="#eb6b69"/>
          <path id="Trazado_226697" data-name="Trazado 226697" d="M507.107,159.877a.375.375,0,0,1-.051,0,23.539,23.539,0,0,1-11.45-4.942.364.364,0,0,1,.455-.567,22.812,22.812,0,0,0,11.1,4.79.364.364,0,0,1-.05.724" transform="translate(-352.686 -109.823)" fill="#c48c66"/>
          <path id="Trazado_226698" data-name="Trazado 226698" d="M527.793,193.757a.372.372,0,0,1-.069-.006,16.956,16.956,0,0,1-4.563-1.568.364.364,0,0,1,.332-.647,16.224,16.224,0,0,0,4.367,1.5.364.364,0,0,1-.068.721" transform="translate(-372.256 -136.311)" fill="#c48c66"/>
          <path id="Trazado_226699" data-name="Trazado 226699" d="M471.087,119.178a.363.363,0,0,1-.193-.672,19.631,19.631,0,0,0,8.736-12.752.364.364,0,0,1,.714.136,20.371,20.371,0,0,1-9.065,13.232.361.361,0,0,1-.192.055" transform="translate(-335.07 -75.068)" fill="#c48c66"/>
          <path id="Trazado_226700" data-name="Trazado 226700" d="M446.834,130.7a.364.364,0,0,1-.29-.582,9.827,9.827,0,0,0,1.916-4.841.364.364,0,1,1,.723.079,10.557,10.557,0,0,1-2.058,5.2.363.363,0,0,1-.291.145" transform="translate(-317.807 -88.943)" fill="#c48c66"/>
          <path id="Trazado_226701" data-name="Trazado 226701" d="M362.42,392.161a19.031,19.031,0,0,1-8.39-2.449,47.283,47.283,0,0,1-11.738-8.549.364.364,0,0,1,.513-.516,46.556,46.556,0,0,0,11.558,8.418c2.416,1.241,5.619,2.629,8.961,2.33a.364.364,0,1,1,.065.724q-.485.043-.967.042" transform="translate(-243.573 -270.877)" fill="#eb6b69"/>
          <path id="Trazado_226702" data-name="Trazado 226702" d="M280.748,267.571a.363.363,0,0,1-.209-.067,5.61,5.61,0,0,1-1.769-1.827,2.916,2.916,0,0,1-.178-2.638,4.3,4.3,0,0,1,.481-.742,5.356,5.356,0,0,0,.312-.443,2.469,2.469,0,0,0-2.866-3.63.363.363,0,1,1-.221-.692,3.2,3.2,0,0,1,3.709,4.7,6.055,6.055,0,0,1-.353.5,3.682,3.682,0,0,0-.405.616,2.222,2.222,0,0,0,.158,1.974,4.93,4.93,0,0,0,1.552,1.585.364.364,0,0,1-.21.661" transform="translate(-196.494 -183.212)" fill="#eb6b69"/>
          <path id="Trazado_226703" data-name="Trazado 226703" d="M290.785,213.8c-.623,0-1.288-.033-2-.1a.364.364,0,0,1,.067-.724,12.826,12.826,0,0,0,5.673-.494.364.364,0,1,1,.255.681,11.226,11.226,0,0,1-3.994.637" transform="translate(-205.327 -151.232)" fill="#c48c66"/>
          <path id="Trazado_226704" data-name="Trazado 226704" d="M293.958,159.877a.364.364,0,0,1-.05-.724,22.812,22.812,0,0,0,11.1-4.79.363.363,0,0,1,.454.567,23.535,23.535,0,0,1-11.449,4.942.377.377,0,0,1-.051,0" transform="translate(-208.986 -109.823)" fill="#c48c66"/>
          <path id="Trazado_226705" data-name="Trazado 226705" d="M290.087,193.756a.364.364,0,0,1-.068-.721,16.227,16.227,0,0,0,4.368-1.5.364.364,0,0,1,.331.647,16.964,16.964,0,0,1-4.563,1.568.372.372,0,0,1-.069.006" transform="translate(-206.231 -136.31)" fill="#c48c66"/>
          <path id="Trazado_226706" data-name="Trazado 226706" d="M335.836,119.178a.361.361,0,0,1-.192-.055,20.372,20.372,0,0,1-9.065-13.232.364.364,0,1,1,.714-.136,19.632,19.632,0,0,0,8.736,12.752.363.363,0,0,1-.193.672" transform="translate(-232.461 -75.068)" fill="#c48c66"/>
          <path id="Trazado_226707" data-name="Trazado 226707" d="M377.167,130.7a.363.363,0,0,1-.291-.145,10.555,10.555,0,0,1-2.058-5.2.364.364,0,1,1,.723-.079,9.83,9.83,0,0,0,1.916,4.841.363.363,0,0,1-.29.582" transform="translate(-266.802 -88.943)" fill="#c48c66"/>
          <path id="Trazado_226708" data-name="Trazado 226708" d="M375.226,88.977a13.548,13.548,0,0,1-2.985-.3,14.57,14.57,0,0,1-6.982-4.1,43.378,43.378,0,0,1-4.979-6.334.364.364,0,1,1,.6-.413,42.846,42.846,0,0,0,4.892,6.23,13.864,13.864,0,0,0,6.629,3.909,21.358,21.358,0,0,0,7.322-.1c.743-.095,1.511-.192,2.265-.265.813-.078,1.644-.129,2.446-.179a25.191,25.191,0,0,0,6.6-1,14.174,14.174,0,0,0,6.3-4.556.364.364,0,0,1,.564.459,14.9,14.9,0,0,1-6.628,4.784,25.741,25.741,0,0,1-6.79,1.035c-.8.05-1.62.1-2.422.178-.744.071-1.506.168-2.243.262a36.508,36.508,0,0,1-4.588.388" transform="translate(-256.409 -55.285)" fill="#c48c66"/>
          <path id="Trazado_226709" data-name="Trazado 226709" d="M355.748,57.678a.363.363,0,0,1-.333-.216c-.643-1.448-1.261-2.868-1.765-4.311a.363.363,0,1,1,.686-.239c.494,1.417,1.106,2.822,1.743,4.256a.364.364,0,0,1-.332.511" transform="translate(-251.721 -37.49)" fill="#c48c66"/>
          <path id="Trazado_226710" data-name="Trazado 226710" d="M334.1,69.312a.361.361,0,0,1-.243-.094,15.725,15.725,0,0,0-10.675-4.011.364.364,0,1,1-.012-.727l.251,0a16.455,16.455,0,0,1,10.923,4.2.364.364,0,0,1-.244.633" transform="translate(-229.782 -45.897)" fill="#c48c66"/>
          <path id="Trazado_226711" data-name="Trazado 226711" d="M324.62,73.908a.364.364,0,0,1-.187-.675,12.152,12.152,0,0,1,8.525-1.475.364.364,0,0,1-.143.713,11.419,11.419,0,0,0-8.009,1.386.363.363,0,0,1-.186.052" transform="translate(-230.812 -50.918)" fill="#c48c66"/>
          <path id="Trazado_226712" data-name="Trazado 226712" d="M412.3,58.526a.364.364,0,0,1-.156-.692c4.7-2.225,7.995-4.545,10.367-7.3,2.974-3.458,4.4-7.8,3.82-11.613a.363.363,0,1,1,.718-.11c.614,4.021-.876,8.581-3.988,12.2-2.441,2.837-5.811,5.216-10.607,7.486a.363.363,0,0,1-.155.035" transform="translate(-293.228 -27.404)" fill="#c48c66"/>
          <path id="Trazado_226713" data-name="Trazado 226713" d="M371.306,37.764a4.82,4.82,0,0,1-.971-.1.364.364,0,0,1,.146-.712c1.944.4,3.844-.779,4.8-1.517a13.03,13.03,0,0,0,1.153-19.68.364.364,0,1,1,.51-.518,13.758,13.758,0,0,1-1.22,20.775,7.58,7.58,0,0,1-4.423,1.75" transform="translate(-263.405 -10.773)" fill="#c48c66"/>
          <path id="Trazado_226714" data-name="Trazado 226714" d="M430.293,46.56a.359.359,0,0,1-.146-.031.364.364,0,0,1-.187-.479,9.838,9.838,0,0,0,.264-7.162.363.363,0,1,1,.685-.242,10.571,10.571,0,0,1-.283,7.7.364.364,0,0,1-.333.218" transform="translate(-306.032 -27.336)" fill="#c48c66"/>
          <path id="Trazado_226715" data-name="Trazado 226715" d="M446.544,88.158a.364.364,0,0,1-.121-.707,15.161,15.161,0,0,0,8.432-7.439.364.364,0,0,1,.65.326,15.894,15.894,0,0,1-8.84,7.8.357.357,0,0,1-.121.021" transform="translate(-317.6 -56.812)" fill="#c48c66"/>
          <path id="Trazado_226716" data-name="Trazado 226716" d="M359.4,32.2a.363.363,0,0,1-.36-.319,14.87,14.87,0,0,0-1.241-4.728,6.632,6.632,0,0,0-3.3-3.3,4.266,4.266,0,0,0-4.358.567.364.364,0,0,1-.48-.546,5,5,0,0,1,5.114-.693,7.355,7.355,0,0,1,3.673,3.654,15.551,15.551,0,0,1,1.31,4.96.364.364,0,0,1-.316.405l-.045,0" transform="translate(-248.808 -16.214)" fill="#c48c66"/>
          <path id="Trazado_226717" data-name="Trazado 226717" d="M32.744,549.362a.364.364,0,0,1-.248-.629c5.176-4.85,10.619-9.52,15.882-14.037,9.947-8.536,20.233-17.362,28.919-27.6a18.408,18.408,0,0,0,3.082-5.331.364.364,0,0,1,.678.264,19.111,19.111,0,0,1-3.2,5.538c-8.724,10.285-19.032,19.13-29,27.684-5.257,4.511-10.694,9.177-15.859,14.015a.361.361,0,0,1-.248.1" transform="translate(-23.049 -356.999)" fill="#eb6b69"/>
          <path id="Trazado_226718" data-name="Trazado 226718" d="M270.443,424.789a.364.364,0,0,1-.293-.578,14.381,14.381,0,0,1,3.44-3.058c.3-.213.6-.426.891-.644a10.021,10.021,0,0,0,2.64-2.65.363.363,0,1,1,.617.384,10.7,10.7,0,0,1-2.824,2.85c-.3.22-.6.436-.9.652a13.834,13.834,0,0,0-3.275,2.895.362.362,0,0,1-.294.149" transform="translate(-192.248 -297.318)" fill="#eb6b69"/>
          <path id="Trazado_226719" data-name="Trazado 226719" d="M233.758,423.483a.364.364,0,0,1-.221-.653l6.478-4.935a.364.364,0,0,1,.441.578l-6.478,4.935a.363.363,0,0,1-.22.074" transform="translate(-166.135 -297.413)" fill="#eb6b69"/>
          <path id="Trazado_226720" data-name="Trazado 226720" d="M287.351,443.493a.364.364,0,0,1-.31-.552,14.435,14.435,0,0,1,2.356-2.727l.235-.229a10.633,10.633,0,0,0,2.3-2.9.364.364,0,0,1,.658.31,11.244,11.244,0,0,1-2.445,3.113l-.236.231a13.884,13.884,0,0,0-2.243,2.584.364.364,0,0,1-.311.175" transform="translate(-204.283 -310.974)" fill="#eb6b69"/>
          <path id="Trazado_226721" data-name="Trazado 226721" d="M299.311,462.047a.363.363,0,0,1-.3-.562,17.971,17.971,0,0,1,1.739-2.151c.141-.158.283-.315.422-.473a13.188,13.188,0,0,0,1.361-1.767.363.363,0,1,1,.619.381,13.848,13.848,0,0,1-1.434,1.868c-.141.16-.284.319-.427.478a17.381,17.381,0,0,0-1.671,2.062.363.363,0,0,1-.3.165" transform="translate(-212.797 -325.245)" fill="#eb6b69"/>
          <path id="Trazado_226722" data-name="Trazado 226722" d="M668.114,550.029a.362.362,0,0,1-.248-.1c-5.164-4.839-10.6-9.5-15.858-14.014-9.969-8.555-20.277-17.4-29-27.685a18.9,18.9,0,0,1-3.1-5.264.364.364,0,0,1,.675-.272,18.173,18.173,0,0,0,2.976,5.065c8.687,10.241,18.973,19.068,28.921,27.6,5.263,4.516,10.7,9.186,15.881,14.036a.364.364,0,0,1-.248.629" transform="translate(-441.246 -357.666)" fill="#eb6b69"/>
          <path id="Trazado_226723" data-name="Trazado 226723" d="M532.828,426.758a.363.363,0,0,1-.294-.149,13.84,13.84,0,0,0-3.275-2.895c-.3-.216-.605-.431-.9-.652a12.6,12.6,0,0,1-2.213-2.012.363.363,0,1,1,.557-.467,11.932,11.932,0,0,0,2.088,1.894c.293.217.592.43.891.644a14.367,14.367,0,0,1,3.44,3.058.363.363,0,0,1-.293.578" transform="translate(-374.46 -299.288)" fill="#eb6b69"/>
          <path id="Trazado_226724" data-name="Trazado 226724" d="M570.2,424.141a.362.362,0,0,1-.22-.074l-6.129-4.669a.364.364,0,1,1,.441-.578l6.128,4.669a.364.364,0,0,1-.221.653" transform="translate(-401.256 -298.071)" fill="#eb6b69"/>
          <path id="Trazado_226725" data-name="Trazado 226725" d="M519.622,443.493a.364.364,0,0,1-.311-.175,13.9,13.9,0,0,0-2.246-2.588l-.233-.228a11.241,11.241,0,0,1-2.446-3.113.364.364,0,0,1,.658-.31,10.629,10.629,0,0,0,2.3,2.9l.231.226a14.451,14.451,0,0,1,2.359,2.73.364.364,0,0,1-.31.552" transform="translate(-366.126 -310.973)" fill="#eb6b69"/>
          <path id="Trazado_226726" data-name="Trazado 226726" d="M511.417,462.6a.362.362,0,0,1-.3-.165,17.387,17.387,0,0,0-1.672-2.064q-.214-.238-.425-.476a14.893,14.893,0,0,1-1.287-1.637.363.363,0,1,1,.607-.4,14.158,14.158,0,0,0,1.226,1.555c.139.158.28.315.421.471a18,18,0,0,1,1.74,2.153.364.364,0,0,1-.3.562" transform="translate(-361.367 -325.792)" fill="#eb6b69"/>
          <path id="Trazado_226727" data-name="Trazado 226727" d="M325.54,627.724A.363.363,0,0,1,325.5,627a27.418,27.418,0,0,0,19.657-12.265.364.364,0,0,1,.611.394,28.155,28.155,0,0,1-20.184,12.593l-.043,0" transform="translate(-231.467 -437.462)" fill="#3c3a73"/>
        </g>
      </g>
    </g>
    <path id="Trazado_226728" data-name="Trazado 226728" d="M-6273.388-2800.984h147.094s-36.117,5.54-72.89,5.54S-6273.388-2800.984-6273.388-2800.984Z" transform="translate(6746 11600)" fill="#3f3f3f"/>
  </g>
</svg>
