<svg xmlns="http://www.w3.org/2000/svg" xmlns:xlink="http://www.w3.org/1999/xlink" width="295" height="283.745" viewBox="0 0 295 283.745">
  <defs>
    <clipPath id="clip-path">
      <rect id="Rect치ngulo_52193" data-name="Rect치ngulo 52193" width="286.862" height="243.52" fill="#8c5be1"/>
    </clipPath>
    <clipPath id="clip-path-2">
      <rect id="Rect치ngulo_57742" data-name="Rect치ngulo 57742" width="141.991" height="253.786" transform="translate(0 0)" fill="none"/>
    </clipPath>
  </defs>
  <g id="Grupo_177819" data-name="Grupo 177819" transform="translate(7799 3746)">
    <g id="Grupo_177742" data-name="Grupo 177742" transform="translate(-7799 -3746)">
      <g id="Grupo_169303" data-name="Grupo 169303" transform="translate(8.138 0)">
        <g id="Grupo_168636" data-name="Grupo 168636" transform="translate(0 0)" clip-path="url(#clip-path)">
          <path id="Trazado_211592" data-name="Trazado 211592" d="M205.743,205.85S356.916,92.471,254.651,62.459,46.789-42.028,19,31.335s47.8,104.487,12.227,144.5S75.69,288.105,205.743,205.85" transform="translate(-3.294 0)" fill="#8c5be1"/>
        </g>
      </g>
      <g id="Grupo_169306" data-name="Grupo 169306" transform="translate(63.931 283.745) rotate(-90)">
        <circle id="Elipse_5566" data-name="Elipse 5566" cx="49.221" cy="49.221" r="49.221" transform="translate(87.898 69.61) rotate(-45)" fill="#def2f4"/>
        <ellipse id="Elipse_5567" data-name="Elipse 5567" cx="79.045" cy="79.045" rx="79.045" ry="79.045" transform="translate(0 81.374) rotate(-22.5)" fill="#fff"/>
        <g id="Grupo_152550" data-name="Grupo 152550" transform="translate(6.478 9.987)">
          <ellipse id="Elipse_5568" data-name="Elipse 5568" cx="0.055" cy="0.055" rx="0.055" ry="0.055" transform="translate(50.567 160.054)" fill="#e8e8e8"/>
          <path id="Trazado_193815" data-name="Trazado 193815" d="M.469,0A.469.469,0,1,1,0,.469.469.469,0,0,1,.469,0Z" transform="translate(60.107 159.64)" fill="#e8e8e8"/>
          <path id="Trazado_193816" data-name="Trazado 193816" d="M.8,0A.8.8,0,1,1,0,.8.8.8,0,0,1,.8,0Z" transform="translate(69.729 159.308)" fill="#e8e8e8"/>
          <ellipse id="Elipse_5569" data-name="Elipse 5569" cx="0.856" cy="0.856" rx="0.856" ry="0.856" transform="translate(79.627 159.253)" fill="#e8e8e8"/>
          <path id="Trazado_193817" data-name="Trazado 193817" d="M.8,0A.8.8,0,1,1,0,.8.8.8,0,0,1,.8,0Z" transform="translate(89.635 159.308)" fill="#e8e8e8"/>
          <path id="Trazado_193818" data-name="Trazado 193818" d="M.441,0A.441.441,0,1,1,0,.441.44.44,0,0,1,.441,0Z" transform="translate(99.948 159.668)" fill="#e8e8e8"/>
          <ellipse id="Elipse_5570" data-name="Elipse 5570" cx="0.028" cy="0.028" rx="0.028" ry="0.028" transform="translate(110.315 160.081)" fill="#e8e8e8"/>
          <ellipse id="Elipse_5571" data-name="Elipse 5571" cx="0.028" cy="0.028" rx="0.028" ry="0.028" transform="translate(30.688 150.128)" fill="#e8e8e8"/>
          <path id="Trazado_193819" data-name="Trazado 193819" d="M.828,0A.828.828,0,1,1,0,.828.829.829,0,0,1,.828,0Z" transform="translate(39.841 149.327)" fill="#e8e8e8"/>
          <path id="Trazado_193820" data-name="Trazado 193820" d="M1.685,0A1.685,1.685,0,1,1,0,1.684,1.684,1.684,0,0,1,1.685,0Z" transform="translate(48.938 148.471)" fill="#e8e8e8"/>
          <ellipse id="Elipse_5572" data-name="Elipse 5572" cx="1.877" cy="1.877" rx="1.877" ry="1.877" transform="translate(58.699 148.279)" fill="#e8e8e8"/>
          <ellipse id="Elipse_5573" data-name="Elipse 5573" cx="1.877" cy="1.877" rx="1.877" ry="1.877" transform="translate(68.652 148.279)" fill="#e8e8e8"/>
          <path id="Trazado_193821" data-name="Trazado 193821" d="M1.877,0A1.877,1.877,0,1,1,0,1.877,1.878,1.878,0,0,1,1.877,0Z" transform="translate(78.605 148.278)" fill="#e8e8e8"/>
          <path id="Trazado_193822" data-name="Trazado 193822" d="M1.877,0A1.877,1.877,0,1,1,0,1.877,1.878,1.878,0,0,1,1.877,0Z" transform="translate(88.558 148.278)" fill="#e8e8e8"/>
          <path id="Trazado_193823" data-name="Trazado 193823" d="M1.877,0A1.877,1.877,0,1,1,0,1.877,1.878,1.878,0,0,1,1.877,0Z" transform="translate(98.512 148.278)" fill="#e8e8e8"/>
          <path id="Trazado_193824" data-name="Trazado 193824" d="M1.657,0A1.657,1.657,0,1,1,0,1.657,1.658,1.658,0,0,1,1.657,0Z" transform="translate(108.685 148.499)" fill="#e8e8e8"/>
          <path id="Trazado_193825" data-name="Trazado 193825" d="M.773,0A.773.773,0,1,1,0,.773.772.772,0,0,1,.773,0Z" transform="translate(119.522 149.383)" fill="#e8e8e8"/>
          <ellipse id="Elipse_5574" data-name="Elipse 5574" cx="0.028" cy="0.028" rx="0.028" ry="0.028" transform="translate(130.221 150.128)" fill="#e8e8e8"/>
          <path id="Trazado_193826" data-name="Trazado 193826" d="M.139,0A.137.137,0,0,1,.276.137.138.138,0,1,1,.139,0Z" transform="translate(20.624 140.065)" fill="#e8e8e8"/>
          <path id="Trazado_193827" data-name="Trazado 193827" d="M1.353,0A1.353,1.353,0,1,1,0,1.353,1.353,1.353,0,0,1,1.353,0Z" transform="translate(29.363 138.849)" fill="#e8e8e8"/>
          <ellipse id="Elipse_5575" data-name="Elipse 5575" cx="1.877" cy="1.877" rx="1.877" ry="1.877" transform="translate(38.792 138.325)" fill="#e8e8e8"/>
          <ellipse id="Elipse_5576" data-name="Elipse 5576" cx="1.877" cy="1.877" rx="1.877" ry="1.877" transform="translate(48.745 138.325)" fill="#e8e8e8"/>
          <ellipse id="Elipse_5577" data-name="Elipse 5577" cx="1.877" cy="1.877" rx="1.877" ry="1.877" transform="translate(58.699 138.325)" fill="#e8e8e8"/>
          <ellipse id="Elipse_5578" data-name="Elipse 5578" cx="1.877" cy="1.877" rx="1.877" ry="1.877" transform="translate(68.652 138.325)" fill="#e8e8e8"/>
          <path id="Trazado_193828" data-name="Trazado 193828" d="M1.877,0A1.877,1.877,0,1,1,0,1.877,1.878,1.878,0,0,1,1.877,0Z" transform="translate(78.605 138.325)" fill="#e8e8e8"/>
          <path id="Trazado_193829" data-name="Trazado 193829" d="M1.877,0A1.877,1.877,0,1,1,0,1.877,1.878,1.878,0,0,1,1.877,0Z" transform="translate(88.558 138.325)" fill="#e8e8e8"/>
          <path id="Trazado_193830" data-name="Trazado 193830" d="M1.877,0A1.877,1.877,0,1,1,0,1.877,1.878,1.878,0,0,1,1.877,0Z" transform="translate(98.512 138.325)" fill="#e8e8e8"/>
          <path id="Trazado_193831" data-name="Trazado 193831" d="M1.877,0A1.877,1.877,0,1,1,0,1.877,1.878,1.878,0,0,1,1.877,0Z" transform="translate(108.465 138.325)" fill="#e8e8e8"/>
          <path id="Trazado_193832" data-name="Trazado 193832" d="M1.877,0A1.877,1.877,0,1,1,0,1.877,1.878,1.878,0,0,1,1.877,0Z" transform="translate(118.418 138.325)" fill="#e8e8e8"/>
          <path id="Trazado_193833" data-name="Trazado 193833" d="M1.325,0A1.325,1.325,0,1,1,0,1.325,1.325,1.325,0,0,1,1.325,0Z" transform="translate(128.923 138.877)" fill="#e8e8e8"/>
          <path id="Trazado_193834" data-name="Trazado 193834" d="M.081,0a.083.083,0,1,1,0,.167A.084.084,0,0,1,.081,0Z" transform="translate(140.12 140.119)" fill="#e8e8e8"/>
          <ellipse id="Elipse_5579" data-name="Elipse 5579" cx="0.028" cy="0.028" rx="0.028" ry="0.028" transform="translate(10.781 130.221)" fill="#e8e8e8"/>
          <path id="Trazado_193835" data-name="Trazado 193835" d="M1.353,0A1.353,1.353,0,1,1,0,1.353,1.351,1.351,0,0,1,1.353,0Z" transform="translate(19.41 128.896)" fill="#e8e8e8"/>
          <ellipse id="Elipse_5580" data-name="Elipse 5580" cx="1.877" cy="1.877" rx="1.877" ry="1.877" transform="translate(28.839 128.372)" fill="#e8e8e8"/>
          <ellipse id="Elipse_5581" data-name="Elipse 5581" cx="1.877" cy="1.877" rx="1.877" ry="1.877" transform="translate(38.792 128.372)" fill="#e8e8e8"/>
          <ellipse id="Elipse_5582" data-name="Elipse 5582" cx="1.877" cy="1.877" rx="1.877" ry="1.877" transform="translate(48.745 128.372)" fill="#e8e8e8"/>
          <ellipse id="Elipse_5583" data-name="Elipse 5583" cx="1.877" cy="1.877" rx="1.877" ry="1.877" transform="translate(58.699 128.372)" fill="#e8e8e8"/>
          <ellipse id="Elipse_5584" data-name="Elipse 5584" cx="1.877" cy="1.877" rx="1.877" ry="1.877" transform="translate(68.652 128.372)" fill="#e8e8e8"/>
          <path id="Trazado_193836" data-name="Trazado 193836" d="M1.877,0A1.877,1.877,0,1,1,0,1.877,1.878,1.878,0,0,1,1.877,0Z" transform="translate(78.605 128.372)" fill="#e8e8e8"/>
          <path id="Trazado_193837" data-name="Trazado 193837" d="M1.877,0A1.877,1.877,0,1,1,0,1.877,1.878,1.878,0,0,1,1.877,0Z" transform="translate(88.558 128.372)" fill="#e8e8e8"/>
          <path id="Trazado_193838" data-name="Trazado 193838" d="M1.877,0A1.877,1.877,0,1,1,0,1.877,1.878,1.878,0,0,1,1.877,0Z" transform="translate(98.512 128.372)" fill="#e8e8e8"/>
          <path id="Trazado_193839" data-name="Trazado 193839" d="M1.877,0A1.877,1.877,0,1,1,0,1.877,1.878,1.878,0,0,1,1.877,0Z" transform="translate(108.465 128.372)" fill="#e8e8e8"/>
          <path id="Trazado_193840" data-name="Trazado 193840" d="M1.877,0A1.877,1.877,0,1,1,0,1.877,1.878,1.878,0,0,1,1.877,0Z" transform="translate(118.418 128.372)" fill="#e8e8e8"/>
          <path id="Trazado_193841" data-name="Trazado 193841" d="M1.877,0A1.877,1.877,0,1,1,0,1.877,1.878,1.878,0,0,1,1.877,0Z" transform="translate(128.371 128.372)" fill="#e8e8e8"/>
          <path id="Trazado_193842" data-name="Trazado 193842" d="M1.325,0A1.325,1.325,0,1,1,0,1.325,1.325,1.325,0,0,1,1.325,0Z" transform="translate(138.877 128.924)" fill="#e8e8e8"/>
          <ellipse id="Elipse_5585" data-name="Elipse 5585" cx="0.028" cy="0.028" rx="0.028" ry="0.028" transform="translate(150.128 130.221)" fill="#e8e8e8"/>
          <path id="Trazado_193843" data-name="Trazado 193843" d="M.828,0A.828.828,0,1,1,0,.828.827.827,0,0,1,.828,0Z" transform="translate(9.981 119.467)" fill="#e8e8e8"/>
          <ellipse id="Elipse_5586" data-name="Elipse 5586" cx="1.877" cy="1.877" rx="1.877" ry="1.877" transform="translate(18.885 118.419)" fill="#e8e8e8"/>
          <ellipse id="Elipse_5587" data-name="Elipse 5587" cx="1.877" cy="1.877" rx="1.877" ry="1.877" transform="translate(28.839 118.419)" fill="#e8e8e8"/>
          <ellipse id="Elipse_5588" data-name="Elipse 5588" cx="1.877" cy="1.877" rx="1.877" ry="1.877" transform="translate(38.792 118.419)" fill="#e8e8e8"/>
          <ellipse id="Elipse_5589" data-name="Elipse 5589" cx="1.877" cy="1.877" rx="1.877" ry="1.877" transform="translate(48.745 118.419)" fill="#e8e8e8"/>
          <ellipse id="Elipse_5590" data-name="Elipse 5590" cx="1.877" cy="1.877" rx="1.877" ry="1.877" transform="translate(58.699 118.419)" fill="#e8e8e8"/>
          <ellipse id="Elipse_5591" data-name="Elipse 5591" cx="1.877" cy="1.877" rx="1.877" ry="1.877" transform="translate(68.652 118.419)" fill="#e8e8e8"/>
          <path id="Trazado_193844" data-name="Trazado 193844" d="M1.877,0A1.877,1.877,0,1,1,0,1.877,1.878,1.878,0,0,1,1.877,0Z" transform="translate(78.605 118.419)" fill="#e8e8e8"/>
          <path id="Trazado_193845" data-name="Trazado 193845" d="M1.877,0A1.877,1.877,0,1,1,0,1.877,1.878,1.878,0,0,1,1.877,0Z" transform="translate(88.558 118.419)" fill="#e8e8e8"/>
          <path id="Trazado_193846" data-name="Trazado 193846" d="M1.877,0A1.877,1.877,0,1,1,0,1.877,1.878,1.878,0,0,1,1.877,0Z" transform="translate(98.512 118.419)" fill="#e8e8e8"/>
          <path id="Trazado_193847" data-name="Trazado 193847" d="M1.877,0A1.877,1.877,0,1,1,0,1.877,1.878,1.878,0,0,1,1.877,0Z" transform="translate(108.465 118.419)" fill="#e8e8e8"/>
          <path id="Trazado_193848" data-name="Trazado 193848" d="M1.877,0A1.877,1.877,0,1,1,0,1.877,1.878,1.878,0,0,1,1.877,0Z" transform="translate(118.418 118.419)" fill="#e8e8e8"/>
          <path id="Trazado_193849" data-name="Trazado 193849" d="M1.877,0A1.877,1.877,0,1,1,0,1.877,1.878,1.878,0,0,1,1.877,0Z" transform="translate(128.371 118.419)" fill="#e8e8e8"/>
          <path id="Trazado_193850" data-name="Trazado 193850" d="M1.877,0A1.877,1.877,0,1,1,0,1.877,1.878,1.878,0,0,1,1.877,0Z" transform="translate(138.324 118.419)" fill="#e8e8e8"/>
          <path id="Trazado_193851" data-name="Trazado 193851" d="M.773,0A.773.773,0,1,1,0,.773.772.772,0,0,1,.773,0Z" transform="translate(149.382 119.523)" fill="#e8e8e8"/>
          <ellipse id="Elipse_5592" data-name="Elipse 5592" cx="0.055" cy="0.055" rx="0.055" ry="0.055" transform="translate(0.8 110.287)" fill="#e8e8e8"/>
          <path id="Trazado_193852" data-name="Trazado 193852" d="M1.657,0A1.657,1.657,0,1,1,0,1.657,1.655,1.655,0,0,1,1.657,0Z" transform="translate(9.153 108.686)" fill="#e8e8e8"/>
          <ellipse id="Elipse_5593" data-name="Elipse 5593" cx="1.877" cy="1.877" rx="1.877" ry="1.877" transform="translate(18.885 108.466)" fill="#e8e8e8"/>
          <ellipse id="Elipse_5594" data-name="Elipse 5594" cx="1.877" cy="1.877" rx="1.877" ry="1.877" transform="translate(28.839 108.466)" fill="#e8e8e8"/>
          <ellipse id="Elipse_5595" data-name="Elipse 5595" cx="1.877" cy="1.877" rx="1.877" ry="1.877" transform="translate(38.792 108.466)" fill="#e8e8e8"/>
          <ellipse id="Elipse_5596" data-name="Elipse 5596" cx="1.877" cy="1.877" rx="1.877" ry="1.877" transform="translate(48.745 108.466)" fill="#e8e8e8"/>
          <ellipse id="Elipse_5597" data-name="Elipse 5597" cx="1.877" cy="1.877" rx="1.877" ry="1.877" transform="translate(58.699 108.466)" fill="#e8e8e8"/>
          <ellipse id="Elipse_5598" data-name="Elipse 5598" cx="1.877" cy="1.877" rx="1.877" ry="1.877" transform="translate(68.652 108.466)" fill="#e8e8e8"/>
          <path id="Trazado_193853" data-name="Trazado 193853" d="M1.877,0A1.877,1.877,0,1,1,0,1.877,1.878,1.878,0,0,1,1.877,0Z" transform="translate(78.605 108.465)" fill="#e8e8e8"/>
          <path id="Trazado_193854" data-name="Trazado 193854" d="M1.877,0A1.877,1.877,0,1,1,0,1.877,1.878,1.878,0,0,1,1.877,0Z" transform="translate(88.558 108.465)" fill="#e8e8e8"/>
          <path id="Trazado_193855" data-name="Trazado 193855" d="M1.877,0A1.877,1.877,0,1,1,0,1.877,1.878,1.878,0,0,1,1.877,0Z" transform="translate(98.512 108.465)" fill="#e8e8e8"/>
          <path id="Trazado_193856" data-name="Trazado 193856" d="M1.877,0A1.877,1.877,0,1,1,0,1.877,1.878,1.878,0,0,1,1.877,0Z" transform="translate(108.465 108.465)" fill="#e8e8e8"/>
          <path id="Trazado_193857" data-name="Trazado 193857" d="M1.877,0A1.877,1.877,0,1,1,0,1.877,1.878,1.878,0,0,1,1.877,0Z" transform="translate(118.418 108.465)" fill="#e8e8e8"/>
          <path id="Trazado_193858" data-name="Trazado 193858" d="M1.877,0A1.877,1.877,0,1,1,0,1.877,1.878,1.878,0,0,1,1.877,0Z" transform="translate(128.371 108.465)" fill="#e8e8e8"/>
          <path id="Trazado_193859" data-name="Trazado 193859" d="M1.877,0A1.877,1.877,0,1,1,0,1.877,1.878,1.878,0,0,1,1.877,0Z" transform="translate(138.324 108.465)" fill="#e8e8e8"/>
          <path id="Trazado_193860" data-name="Trazado 193860" d="M1.627,0A1.629,1.629,0,1,1,0,1.629,1.628,1.628,0,0,1,1.627,0Z" transform="translate(148.528 108.714)" fill="#e8e8e8"/>
          <ellipse id="Elipse_5599" data-name="Elipse 5599" cx="0.055" cy="0.055" rx="0.055" ry="0.055" transform="translate(160.054 110.287)" fill="#e8e8e8"/>
          <ellipse id="Elipse_5600" data-name="Elipse 5600" cx="0.469" cy="0.469" rx="0.469" ry="0.469" transform="translate(0.386 99.92)" fill="#e8e8e8"/>
          <ellipse id="Elipse_5601" data-name="Elipse 5601" cx="1.877" cy="1.877" rx="1.877" ry="1.877" transform="translate(8.932 98.512)" fill="#e8e8e8"/>
          <ellipse id="Elipse_5602" data-name="Elipse 5602" cx="1.877" cy="1.877" rx="1.877" ry="1.877" transform="translate(18.885 98.512)" fill="#e8e8e8"/>
          <ellipse id="Elipse_5603" data-name="Elipse 5603" cx="1.877" cy="1.877" rx="1.877" ry="1.877" transform="translate(28.839 98.512)" fill="#e8e8e8"/>
          <ellipse id="Elipse_5604" data-name="Elipse 5604" cx="1.877" cy="1.877" rx="1.877" ry="1.877" transform="translate(38.792 98.512)" fill="#e8e8e8"/>
          <ellipse id="Elipse_5605" data-name="Elipse 5605" cx="1.877" cy="1.877" rx="1.877" ry="1.877" transform="translate(48.745 98.512)" fill="#e8e8e8"/>
          <ellipse id="Elipse_5606" data-name="Elipse 5606" cx="1.877" cy="1.877" rx="1.877" ry="1.877" transform="translate(58.699 98.512)" fill="#e8e8e8"/>
          <ellipse id="Elipse_5607" data-name="Elipse 5607" cx="1.877" cy="1.877" rx="1.877" ry="1.877" transform="translate(68.652 98.512)" fill="#e8e8e8"/>
          <path id="Trazado_193861" data-name="Trazado 193861" d="M1.877,0A1.877,1.877,0,1,1,0,1.877,1.877,1.877,0,0,1,1.877,0Z" transform="translate(78.605 98.512)" fill="#e8e8e8"/>
          <path id="Trazado_193862" data-name="Trazado 193862" d="M1.877,0A1.877,1.877,0,1,1,0,1.877,1.877,1.877,0,0,1,1.877,0Z" transform="translate(88.558 98.512)" fill="#e8e8e8"/>
          <path id="Trazado_193863" data-name="Trazado 193863" d="M1.877,0A1.877,1.877,0,1,1,0,1.877,1.877,1.877,0,0,1,1.877,0Z" transform="translate(98.512 98.512)" fill="#e8e8e8"/>
          <path id="Trazado_193864" data-name="Trazado 193864" d="M1.877,0A1.877,1.877,0,1,1,0,1.877,1.877,1.877,0,0,1,1.877,0Z" transform="translate(108.465 98.512)" fill="#e8e8e8"/>
          <path id="Trazado_193865" data-name="Trazado 193865" d="M1.877,0A1.877,1.877,0,1,1,0,1.877,1.877,1.877,0,0,1,1.877,0Z" transform="translate(118.418 98.512)" fill="#e8e8e8"/>
          <path id="Trazado_193866" data-name="Trazado 193866" d="M1.877,0A1.877,1.877,0,1,1,0,1.877,1.877,1.877,0,0,1,1.877,0Z" transform="translate(128.371 98.512)" fill="#e8e8e8"/>
          <path id="Trazado_193867" data-name="Trazado 193867" d="M1.877,0A1.877,1.877,0,1,1,0,1.877,1.877,1.877,0,0,1,1.877,0Z" transform="translate(138.324 98.512)" fill="#e8e8e8"/>
          <path id="Trazado_193868" data-name="Trazado 193868" d="M1.875,0A1.877,1.877,0,1,1,0,1.877,1.875,1.875,0,0,1,1.875,0Z" transform="translate(148.28 98.512)" fill="#e8e8e8"/>
          <ellipse id="Elipse_5608" data-name="Elipse 5608" cx="0.414" cy="0.414" rx="0.414" ry="0.414" transform="translate(159.695 99.975)" fill="#e8e8e8"/>
          <path id="Trazado_193869" data-name="Trazado 193869" d="M.8,0A.8.8,0,1,1,0,.8.8.8,0,0,1,.8,0Z" transform="translate(0.056 89.636)" fill="#e8e8e8"/>
          <path id="Trazado_193870" data-name="Trazado 193870" d="M1.877,0A1.877,1.877,0,1,1,0,1.877,1.875,1.875,0,0,1,1.877,0Z" transform="translate(8.933 88.559)" fill="#e8e8e8"/>
          <path id="Trazado_193871" data-name="Trazado 193871" d="M1.877,0A1.877,1.877,0,1,1,0,1.877,1.875,1.875,0,0,1,1.877,0Z" transform="translate(18.886 88.559)" fill="#e8e8e8"/>
          <path id="Trazado_193872" data-name="Trazado 193872" d="M1.877,0A1.877,1.877,0,1,1,0,1.877,1.875,1.875,0,0,1,1.877,0Z" transform="translate(28.839 88.559)" fill="#e8e8e8"/>
          <path id="Trazado_193873" data-name="Trazado 193873" d="M1.877,0A1.877,1.877,0,1,1,0,1.877,1.875,1.875,0,0,1,1.877,0Z" transform="translate(38.792 88.559)" fill="#e8e8e8"/>
          <path id="Trazado_193874" data-name="Trazado 193874" d="M1.877,0A1.877,1.877,0,1,1,0,1.877,1.877,1.877,0,0,1,1.877,0Z" transform="translate(48.745 88.559)" fill="#e8e8e8"/>
          <path id="Trazado_193875" data-name="Trazado 193875" d="M1.877,0A1.877,1.877,0,1,1,0,1.877,1.877,1.877,0,0,1,1.877,0Z" transform="translate(58.699 88.559)" fill="#e8e8e8"/>
          <path id="Trazado_193876" data-name="Trazado 193876" d="M1.877,0A1.877,1.877,0,1,1,0,1.877,1.877,1.877,0,0,1,1.877,0Z" transform="translate(68.652 88.559)" fill="#e8e8e8"/>
          <path id="Trazado_193877" data-name="Trazado 193877" d="M1.877,0A1.877,1.877,0,1,1,0,1.877,1.877,1.877,0,0,1,1.877,0Z" transform="translate(78.605 88.559)" fill="#e8e8e8"/>
          <path id="Trazado_193878" data-name="Trazado 193878" d="M1.877,0A1.877,1.877,0,1,1,0,1.877,1.877,1.877,0,0,1,1.877,0Z" transform="translate(88.558 88.559)" fill="#e8e8e8"/>
          <path id="Trazado_193879" data-name="Trazado 193879" d="M1.877,0A1.877,1.877,0,1,1,0,1.877,1.877,1.877,0,0,1,1.877,0Z" transform="translate(98.512 88.559)" fill="#e8e8e8"/>
          <path id="Trazado_193880" data-name="Trazado 193880" d="M1.877,0A1.877,1.877,0,1,1,0,1.877,1.877,1.877,0,0,1,1.877,0Z" transform="translate(108.465 88.559)" fill="#e8e8e8"/>
          <path id="Trazado_193881" data-name="Trazado 193881" d="M1.877,0A1.877,1.877,0,1,1,0,1.877,1.877,1.877,0,0,1,1.877,0Z" transform="translate(118.418 88.559)" fill="#e8e8e8"/>
          <path id="Trazado_193882" data-name="Trazado 193882" d="M1.877,0A1.877,1.877,0,1,1,0,1.877,1.877,1.877,0,0,1,1.877,0Z" transform="translate(128.371 88.559)" fill="#e8e8e8"/>
          <path id="Trazado_193883" data-name="Trazado 193883" d="M1.877,0A1.877,1.877,0,1,1,0,1.877,1.877,1.877,0,0,1,1.877,0Z" transform="translate(138.324 88.559)" fill="#e8e8e8"/>
          <path id="Trazado_193884" data-name="Trazado 193884" d="M1.875,0A1.877,1.877,0,1,1,0,1.877,1.875,1.875,0,0,1,1.875,0Z" transform="translate(148.28 88.559)" fill="#e8e8e8"/>
          <path id="Trazado_193885" data-name="Trazado 193885" d="M.773,0A.773.773,0,1,1,0,.773.771.771,0,0,1,.773,0Z" transform="translate(159.335 89.663)" fill="#e8e8e8"/>
          <ellipse id="Elipse_5609" data-name="Elipse 5609" cx="0.856" cy="0.856" rx="0.856" ry="0.856" transform="translate(0 79.627)" fill="#e8e8e8"/>
          <path id="Trazado_193886" data-name="Trazado 193886" d="M1.877,0A1.877,1.877,0,1,1,0,1.877,1.875,1.875,0,0,1,1.877,0Z" transform="translate(8.933 78.606)" fill="#e8e8e8"/>
          <path id="Trazado_193887" data-name="Trazado 193887" d="M1.877,0A1.877,1.877,0,1,1,0,1.877,1.875,1.875,0,0,1,1.877,0Z" transform="translate(18.886 78.606)" fill="#e8e8e8"/>
          <path id="Trazado_193888" data-name="Trazado 193888" d="M1.877,0A1.877,1.877,0,1,1,0,1.877,1.875,1.875,0,0,1,1.877,0Z" transform="translate(28.839 78.606)" fill="#e8e8e8"/>
          <path id="Trazado_193889" data-name="Trazado 193889" d="M1.877,0A1.877,1.877,0,1,1,0,1.877,1.875,1.875,0,0,1,1.877,0Z" transform="translate(38.792 78.606)" fill="#e8e8e8"/>
          <path id="Trazado_193890" data-name="Trazado 193890" d="M1.877,0A1.877,1.877,0,1,1,0,1.877,1.877,1.877,0,0,1,1.877,0Z" transform="translate(48.745 78.606)" fill="#e8e8e8"/>
          <path id="Trazado_193891" data-name="Trazado 193891" d="M1.877,0A1.877,1.877,0,1,1,0,1.877,1.877,1.877,0,0,1,1.877,0Z" transform="translate(58.699 78.606)" fill="#e8e8e8"/>
          <path id="Trazado_193892" data-name="Trazado 193892" d="M1.877,0A1.877,1.877,0,1,1,0,1.877,1.877,1.877,0,0,1,1.877,0Z" transform="translate(68.652 78.606)" fill="#e8e8e8"/>
          <path id="Trazado_193893" data-name="Trazado 193893" d="M1.877,0A1.877,1.877,0,1,1,0,1.877,1.877,1.877,0,0,1,1.877,0Z" transform="translate(78.605 78.606)" fill="#e8e8e8"/>
          <path id="Trazado_193894" data-name="Trazado 193894" d="M1.877,0A1.877,1.877,0,1,1,0,1.877,1.877,1.877,0,0,1,1.877,0Z" transform="translate(88.558 78.606)" fill="#e8e8e8"/>
          <path id="Trazado_193895" data-name="Trazado 193895" d="M1.877,0A1.877,1.877,0,1,1,0,1.877,1.877,1.877,0,0,1,1.877,0Z" transform="translate(98.512 78.606)" fill="#e8e8e8"/>
          <path id="Trazado_193896" data-name="Trazado 193896" d="M1.877,0A1.877,1.877,0,1,1,0,1.877,1.877,1.877,0,0,1,1.877,0Z" transform="translate(108.465 78.606)" fill="#e8e8e8"/>
          <path id="Trazado_193897" data-name="Trazado 193897" d="M1.877,0A1.877,1.877,0,1,1,0,1.877,1.877,1.877,0,0,1,1.877,0Z" transform="translate(118.418 78.606)" fill="#e8e8e8"/>
          <path id="Trazado_193898" data-name="Trazado 193898" d="M1.877,0A1.877,1.877,0,1,1,0,1.877,1.877,1.877,0,0,1,1.877,0Z" transform="translate(128.371 78.606)" fill="#e8e8e8"/>
          <path id="Trazado_193899" data-name="Trazado 193899" d="M1.877,0A1.877,1.877,0,1,1,0,1.877,1.877,1.877,0,0,1,1.877,0Z" transform="translate(138.324 78.606)" fill="#e8e8e8"/>
          <path id="Trazado_193900" data-name="Trazado 193900" d="M1.875,0A1.877,1.877,0,1,1,0,1.877,1.875,1.875,0,0,1,1.875,0Z" transform="translate(148.28 78.606)" fill="#e8e8e8"/>
          <path id="Trazado_193901" data-name="Trazado 193901" d="M.854,0A.855.855,0,1,1,0,.856.856.856,0,0,1,.854,0Z" transform="translate(159.254 79.627)" fill="#e8e8e8"/>
          <path id="Trazado_193902" data-name="Trazado 193902" d="M.8,0A.8.8,0,1,1,0,.8.8.8,0,0,1,.8,0Z" transform="translate(0.056 69.729)" fill="#e8e8e8"/>
          <path id="Trazado_193903" data-name="Trazado 193903" d="M1.877,0A1.876,1.876,0,1,1,0,1.877,1.875,1.875,0,0,1,1.877,0Z" transform="translate(8.933 68.652)" fill="#e8e8e8"/>
          <path id="Trazado_193904" data-name="Trazado 193904" d="M1.877,0A1.876,1.876,0,1,1,0,1.877,1.875,1.875,0,0,1,1.877,0Z" transform="translate(18.886 68.652)" fill="#e8e8e8"/>
          <path id="Trazado_193905" data-name="Trazado 193905" d="M1.877,0A1.876,1.876,0,1,1,0,1.877,1.875,1.875,0,0,1,1.877,0Z" transform="translate(28.839 68.652)" fill="#e8e8e8"/>
          <path id="Trazado_193906" data-name="Trazado 193906" d="M1.877,0A1.876,1.876,0,1,1,0,1.877,1.875,1.875,0,0,1,1.877,0Z" transform="translate(38.792 68.652)" fill="#e8e8e8"/>
          <path id="Trazado_193907" data-name="Trazado 193907" d="M1.877,0A1.876,1.876,0,1,1,0,1.877,1.877,1.877,0,0,1,1.877,0Z" transform="translate(48.745 68.652)" fill="#e8e8e8"/>
          <path id="Trazado_193908" data-name="Trazado 193908" d="M1.877,0A1.876,1.876,0,1,1,0,1.877,1.877,1.877,0,0,1,1.877,0Z" transform="translate(58.699 68.652)" fill="#e8e8e8"/>
          <path id="Trazado_193909" data-name="Trazado 193909" d="M1.877,0A1.876,1.876,0,1,1,0,1.877,1.877,1.877,0,0,1,1.877,0Z" transform="translate(68.652 68.652)" fill="#e8e8e8"/>
          <path id="Trazado_193910" data-name="Trazado 193910" d="M1.877,0A1.876,1.876,0,1,1,0,1.877,1.877,1.877,0,0,1,1.877,0Z" transform="translate(78.605 68.652)" fill="#e8e8e8"/>
          <path id="Trazado_193911" data-name="Trazado 193911" d="M1.877,0A1.876,1.876,0,1,1,0,1.877,1.877,1.877,0,0,1,1.877,0Z" transform="translate(88.558 68.652)" fill="#e8e8e8"/>
          <path id="Trazado_193912" data-name="Trazado 193912" d="M1.877,0A1.876,1.876,0,1,1,0,1.877,1.877,1.877,0,0,1,1.877,0Z" transform="translate(98.512 68.652)" fill="#e8e8e8"/>
          <path id="Trazado_193913" data-name="Trazado 193913" d="M1.877,0A1.876,1.876,0,1,1,0,1.877,1.877,1.877,0,0,1,1.877,0Z" transform="translate(108.465 68.652)" fill="#e8e8e8"/>
          <path id="Trazado_193914" data-name="Trazado 193914" d="M1.877,0A1.876,1.876,0,1,1,0,1.877,1.877,1.877,0,0,1,1.877,0Z" transform="translate(118.418 68.652)" fill="#e8e8e8"/>
          <path id="Trazado_193915" data-name="Trazado 193915" d="M1.877,0A1.876,1.876,0,1,1,0,1.877,1.877,1.877,0,0,1,1.877,0Z" transform="translate(128.371 68.652)" fill="#e8e8e8"/>
          <path id="Trazado_193916" data-name="Trazado 193916" d="M1.877,0A1.876,1.876,0,1,1,0,1.877,1.877,1.877,0,0,1,1.877,0Z" transform="translate(138.324 68.652)" fill="#e8e8e8"/>
          <path id="Trazado_193917" data-name="Trazado 193917" d="M1.875,0A1.876,1.876,0,1,1,0,1.877,1.875,1.875,0,0,1,1.875,0Z" transform="translate(148.28 68.652)" fill="#e8e8e8"/>
          <path id="Trazado_193918" data-name="Trazado 193918" d="M.745,0A.745.745,0,1,1,0,.745.745.745,0,0,1,.745,0Z" transform="translate(159.363 69.785)" fill="#e8e8e8"/>
          <ellipse id="Elipse_5610" data-name="Elipse 5610" cx="0.442" cy="0.442" rx="0.442" ry="0.442" transform="translate(0.414 60.134)" fill="#e8e8e8"/>
          <path id="Trazado_193919" data-name="Trazado 193919" d="M1.877,0A1.876,1.876,0,1,1,0,1.877,1.875,1.875,0,0,1,1.877,0Z" transform="translate(8.933 58.699)" fill="#e8e8e8"/>
          <path id="Trazado_193920" data-name="Trazado 193920" d="M1.877,0A1.876,1.876,0,1,1,0,1.877,1.875,1.875,0,0,1,1.877,0Z" transform="translate(18.886 58.699)" fill="#e8e8e8"/>
          <path id="Trazado_193921" data-name="Trazado 193921" d="M1.877,0A1.876,1.876,0,1,1,0,1.877,1.875,1.875,0,0,1,1.877,0Z" transform="translate(28.839 58.699)" fill="#e8e8e8"/>
          <path id="Trazado_193922" data-name="Trazado 193922" d="M1.877,0A1.876,1.876,0,1,1,0,1.877,1.875,1.875,0,0,1,1.877,0Z" transform="translate(38.792 58.699)" fill="#e8e8e8"/>
          <path id="Trazado_193923" data-name="Trazado 193923" d="M1.877,0A1.876,1.876,0,1,1,0,1.877,1.877,1.877,0,0,1,1.877,0Z" transform="translate(48.745 58.699)" fill="#e8e8e8"/>
          <path id="Trazado_193924" data-name="Trazado 193924" d="M1.877,0A1.876,1.876,0,1,1,0,1.877,1.877,1.877,0,0,1,1.877,0Z" transform="translate(58.699 58.699)" fill="#e8e8e8"/>
          <path id="Trazado_193925" data-name="Trazado 193925" d="M1.877,0A1.876,1.876,0,1,1,0,1.877,1.877,1.877,0,0,1,1.877,0Z" transform="translate(68.652 58.699)" fill="#e8e8e8"/>
          <path id="Trazado_193926" data-name="Trazado 193926" d="M1.877,0A1.876,1.876,0,1,1,0,1.877,1.877,1.877,0,0,1,1.877,0Z" transform="translate(78.605 58.699)" fill="#e8e8e8"/>
          <path id="Trazado_193927" data-name="Trazado 193927" d="M1.877,0A1.876,1.876,0,1,1,0,1.877,1.877,1.877,0,0,1,1.877,0Z" transform="translate(88.558 58.699)" fill="#e8e8e8"/>
          <path id="Trazado_193928" data-name="Trazado 193928" d="M1.877,0A1.876,1.876,0,1,1,0,1.877,1.877,1.877,0,0,1,1.877,0Z" transform="translate(98.512 58.699)" fill="#e8e8e8"/>
          <path id="Trazado_193929" data-name="Trazado 193929" d="M1.877,0A1.876,1.876,0,1,1,0,1.877,1.877,1.877,0,0,1,1.877,0Z" transform="translate(108.465 58.699)" fill="#e8e8e8"/>
          <path id="Trazado_193930" data-name="Trazado 193930" d="M1.877,0A1.876,1.876,0,1,1,0,1.877,1.877,1.877,0,0,1,1.877,0Z" transform="translate(118.418 58.699)" fill="#e8e8e8"/>
          <path id="Trazado_193931" data-name="Trazado 193931" d="M1.877,0A1.876,1.876,0,1,1,0,1.877,1.877,1.877,0,0,1,1.877,0Z" transform="translate(128.371 58.699)" fill="#e8e8e8"/>
          <path id="Trazado_193932" data-name="Trazado 193932" d="M1.877,0A1.876,1.876,0,1,1,0,1.877,1.877,1.877,0,0,1,1.877,0Z" transform="translate(138.324 58.699)" fill="#e8e8e8"/>
          <path id="Trazado_193933" data-name="Trazado 193933" d="M1.875,0A1.876,1.876,0,1,1,0,1.877,1.875,1.875,0,0,1,1.875,0Z" transform="translate(148.28 58.699)" fill="#e8e8e8"/>
          <ellipse id="Elipse_5611" data-name="Elipse 5611" cx="0.414" cy="0.414" rx="0.414" ry="0.414" transform="translate(159.695 60.162)" fill="#e8e8e8"/>
          <ellipse id="Elipse_5612" data-name="Elipse 5612" cx="0.028" cy="0.028" rx="0.028" ry="0.028" transform="translate(0.828 50.595)" fill="#e8e8e8"/>
          <path id="Trazado_193934" data-name="Trazado 193934" d="M1.657,0A1.656,1.656,0,1,1,0,1.655,1.654,1.654,0,0,1,1.657,0Z" transform="translate(9.153 48.967)" fill="#e8e8e8"/>
          <path id="Trazado_193935" data-name="Trazado 193935" d="M1.877,0A1.876,1.876,0,1,1,0,1.875,1.874,1.874,0,0,1,1.877,0Z" transform="translate(18.886 48.746)" fill="#e8e8e8"/>
          <path id="Trazado_193936" data-name="Trazado 193936" d="M1.877,0A1.876,1.876,0,1,1,0,1.875,1.874,1.874,0,0,1,1.877,0" transform="translate(28.839 48.746)" fill="#e8e8e8"/>
          <path id="Trazado_193937" data-name="Trazado 193937" d="M1.877,0A1.876,1.876,0,1,1,0,1.875,1.874,1.874,0,0,1,1.877,0Z" transform="translate(38.792 48.746)" fill="#e8e8e8"/>
          <path id="Trazado_193938" data-name="Trazado 193938" d="M1.877,0A1.876,1.876,0,1,1,0,1.875,1.876,1.876,0,0,1,1.877,0Z" transform="translate(48.745 48.746)" fill="#e8e8e8"/>
          <path id="Trazado_193939" data-name="Trazado 193939" d="M1.877,0A1.876,1.876,0,1,1,0,1.875,1.876,1.876,0,0,1,1.877,0Z" transform="translate(58.699 48.746)" fill="#e8e8e8"/>
          <path id="Trazado_193940" data-name="Trazado 193940" d="M1.877,0A1.876,1.876,0,1,1,0,1.875,1.876,1.876,0,0,1,1.877,0Z" transform="translate(68.652 48.746)" fill="#e8e8e8"/>
          <path id="Trazado_193941" data-name="Trazado 193941" d="M1.877,0A1.876,1.876,0,1,1,0,1.875,1.876,1.876,0,0,1,1.877,0Z" transform="translate(78.605 48.746)" fill="#e8e8e8"/>
          <path id="Trazado_193942" data-name="Trazado 193942" d="M1.877,0A1.876,1.876,0,1,1,0,1.875,1.876,1.876,0,0,1,1.877,0Z" transform="translate(88.558 48.746)" fill="#e8e8e8"/>
          <path id="Trazado_193943" data-name="Trazado 193943" d="M1.877,0A1.876,1.876,0,1,1,0,1.875,1.876,1.876,0,0,1,1.877,0Z" transform="translate(98.512 48.746)" fill="#e8e8e8"/>
          <path id="Trazado_193944" data-name="Trazado 193944" d="M1.877,0A1.876,1.876,0,1,1,0,1.875,1.876,1.876,0,0,1,1.877,0Z" transform="translate(108.465 48.746)" fill="#e8e8e8"/>
          <path id="Trazado_193945" data-name="Trazado 193945" d="M1.877,0A1.876,1.876,0,1,1,0,1.875,1.876,1.876,0,0,1,1.877,0Z" transform="translate(118.418 48.746)" fill="#e8e8e8"/>
          <path id="Trazado_193946" data-name="Trazado 193946" d="M1.877,0A1.876,1.876,0,1,1,0,1.875,1.876,1.876,0,0,1,1.877,0Z" transform="translate(128.371 48.746)" fill="#e8e8e8"/>
          <path id="Trazado_193947" data-name="Trazado 193947" d="M1.877,0A1.876,1.876,0,1,1,0,1.875,1.876,1.876,0,0,1,1.877,0Z" transform="translate(138.324 48.746)" fill="#e8e8e8"/>
          <path id="Trazado_193948" data-name="Trazado 193948" d="M1.627,0A1.628,1.628,0,1,1,0,1.627,1.627,1.627,0,0,1,1.627,0Z" transform="translate(148.528 48.994)" fill="#e8e8e8"/>
          <ellipse id="Elipse_5613" data-name="Elipse 5613" cx="0.055" cy="0.055" rx="0.055" ry="0.055" transform="translate(160.054 50.567)" fill="#e8e8e8"/>
          <path id="Trazado_193949" data-name="Trazado 193949" d="M.775,0A.774.774,0,1,1,0,.773.774.774,0,0,1,.775,0Z" transform="translate(10.035 39.895)" fill="#e8e8e8"/>
          <path id="Trazado_193950" data-name="Trazado 193950" d="M1.877,0A1.876,1.876,0,1,1,0,1.875,1.875,1.875,0,0,1,1.877,0Z" transform="translate(18.886 38.793)" fill="#e8e8e8"/>
          <path id="Trazado_193951" data-name="Trazado 193951" d="M1.877,0A1.876,1.876,0,1,1,0,1.875,1.875,1.875,0,0,1,1.877,0Z" transform="translate(28.839 38.793)" fill="#e8e8e8"/>
          <path id="Trazado_193952" data-name="Trazado 193952" d="M1.877,0A1.876,1.876,0,1,1,0,1.875,1.875,1.875,0,0,1,1.877,0Z" transform="translate(38.792 38.793)" fill="#e8e8e8"/>
          <path id="Trazado_193953" data-name="Trazado 193953" d="M1.877,0A1.876,1.876,0,1,1,0,1.875,1.876,1.876,0,0,1,1.877,0Z" transform="translate(48.745 38.793)" fill="#e8e8e8"/>
          <path id="Trazado_193954" data-name="Trazado 193954" d="M1.877,0A1.876,1.876,0,1,1,0,1.875,1.876,1.876,0,0,1,1.877,0Z" transform="translate(58.699 38.793)" fill="#e8e8e8"/>
          <path id="Trazado_193955" data-name="Trazado 193955" d="M1.877,0A1.876,1.876,0,1,1,0,1.875,1.876,1.876,0,0,1,1.877,0Z" transform="translate(68.652 38.793)" fill="#e8e8e8"/>
          <path id="Trazado_193956" data-name="Trazado 193956" d="M1.877,0A1.876,1.876,0,1,1,0,1.875,1.876,1.876,0,0,1,1.877,0Z" transform="translate(78.605 38.793)" fill="#e8e8e8"/>
          <path id="Trazado_193957" data-name="Trazado 193957" d="M1.877,0A1.876,1.876,0,1,1,0,1.875,1.876,1.876,0,0,1,1.877,0Z" transform="translate(88.558 38.793)" fill="#e8e8e8"/>
          <path id="Trazado_193958" data-name="Trazado 193958" d="M1.877,0A1.876,1.876,0,1,1,0,1.875,1.876,1.876,0,0,1,1.877,0Z" transform="translate(98.512 38.793)" fill="#e8e8e8"/>
          <path id="Trazado_193959" data-name="Trazado 193959" d="M1.877,0A1.876,1.876,0,1,1,0,1.875,1.876,1.876,0,0,1,1.877,0Z" transform="translate(108.465 38.793)" fill="#e8e8e8"/>
          <path id="Trazado_193960" data-name="Trazado 193960" d="M1.877,0A1.876,1.876,0,1,1,0,1.875,1.876,1.876,0,0,1,1.877,0Z" transform="translate(118.418 38.793)" fill="#e8e8e8"/>
          <path id="Trazado_193961" data-name="Trazado 193961" d="M1.877,0A1.876,1.876,0,1,1,0,1.875,1.876,1.876,0,0,1,1.877,0Z" transform="translate(128.371 38.793)" fill="#e8e8e8"/>
          <path id="Trazado_193962" data-name="Trazado 193962" d="M1.877,0A1.876,1.876,0,1,1,0,1.875,1.876,1.876,0,0,1,1.877,0Z" transform="translate(138.324 38.793)" fill="#e8e8e8"/>
          <path id="Trazado_193963" data-name="Trazado 193963" d="M.745,0A.746.746,0,1,1,0,.745.746.746,0,0,1,.745,0Z" transform="translate(149.41 39.923)" fill="#e8e8e8"/>
          <ellipse id="Elipse_5614" data-name="Elipse 5614" cx="0.028" cy="0.028" rx="0.028" ry="0.028" transform="translate(10.781 30.688)" fill="#e8e8e8"/>
          <path id="Trazado_193964" data-name="Trazado 193964" d="M1.325,0A1.325,1.325,0,1,1,0,1.325,1.327,1.327,0,0,1,1.325,0Z" transform="translate(19.438 29.39)" fill="#e8e8e8"/>
          <ellipse id="Elipse_5615" data-name="Elipse 5615" cx="1.877" cy="1.877" rx="1.877" ry="1.877" transform="translate(28.839 28.839)" fill="#e8e8e8"/>
          <ellipse id="Elipse_5616" data-name="Elipse 5616" cx="1.877" cy="1.877" rx="1.877" ry="1.877" transform="translate(38.792 28.839)" fill="#e8e8e8"/>
          <ellipse id="Elipse_5617" data-name="Elipse 5617" cx="1.877" cy="1.877" rx="1.877" ry="1.877" transform="translate(48.745 28.839)" fill="#e8e8e8"/>
          <ellipse id="Elipse_5618" data-name="Elipse 5618" cx="1.877" cy="1.877" rx="1.877" ry="1.877" transform="translate(58.699 28.839)" fill="#e8e8e8"/>
          <ellipse id="Elipse_5619" data-name="Elipse 5619" cx="1.877" cy="1.877" rx="1.877" ry="1.877" transform="translate(68.652 28.839)" fill="#e8e8e8"/>
          <path id="Trazado_193965" data-name="Trazado 193965" d="M1.877,0A1.876,1.876,0,1,1,0,1.875,1.876,1.876,0,0,1,1.877,0Z" transform="translate(78.605 28.84)" fill="#e8e8e8"/>
          <path id="Trazado_193966" data-name="Trazado 193966" d="M1.877,0A1.876,1.876,0,1,1,0,1.875,1.876,1.876,0,0,1,1.877,0Z" transform="translate(88.558 28.84)" fill="#e8e8e8"/>
          <path id="Trazado_193967" data-name="Trazado 193967" d="M1.877,0A1.876,1.876,0,1,1,0,1.875,1.876,1.876,0,0,1,1.877,0Z" transform="translate(98.512 28.84)" fill="#e8e8e8"/>
          <path id="Trazado_193968" data-name="Trazado 193968" d="M1.877,0A1.876,1.876,0,1,1,0,1.875,1.876,1.876,0,0,1,1.877,0Z" transform="translate(108.465 28.84)" fill="#e8e8e8"/>
          <path id="Trazado_193969" data-name="Trazado 193969" d="M1.877,0A1.876,1.876,0,1,1,0,1.875,1.876,1.876,0,0,1,1.877,0Z" transform="translate(118.418 28.84)" fill="#e8e8e8"/>
          <path id="Trazado_193970" data-name="Trazado 193970" d="M1.877,0A1.876,1.876,0,1,1,0,1.875,1.876,1.876,0,0,1,1.877,0Z" transform="translate(128.371 28.84)" fill="#e8e8e8"/>
          <path id="Trazado_193971" data-name="Trazado 193971" d="M1.3,0A1.3,1.3,0,1,1,0,1.3,1.3,1.3,0,0,1,1.3,0Z" transform="translate(138.904 29.418)" fill="#e8e8e8"/>
          <ellipse id="Elipse_5620" data-name="Elipse 5620" cx="0.028" cy="0.028" rx="0.028" ry="0.028" transform="translate(150.128 30.688)" fill="#e8e8e8"/>
          <ellipse id="Elipse_5621" data-name="Elipse 5621" cx="0.083" cy="0.083" rx="0.083" ry="0.083" transform="translate(20.679 20.679)" fill="#e8e8e8"/>
          <path id="Trazado_193972" data-name="Trazado 193972" d="M1.325,0A1.325,1.325,0,1,1,0,1.325,1.327,1.327,0,0,1,1.325,0Z" transform="translate(29.391 19.437)" fill="#e8e8e8"/>
          <ellipse id="Elipse_5622" data-name="Elipse 5622" cx="1.877" cy="1.877" rx="1.877" ry="1.877" transform="translate(38.792 18.885)" fill="#e8e8e8"/>
          <ellipse id="Elipse_5623" data-name="Elipse 5623" cx="1.877" cy="1.877" rx="1.877" ry="1.877" transform="translate(48.745 18.885)" fill="#e8e8e8"/>
          <ellipse id="Elipse_5624" data-name="Elipse 5624" cx="1.877" cy="1.877" rx="1.877" ry="1.877" transform="translate(58.699 18.885)" fill="#e8e8e8"/>
          <ellipse id="Elipse_5625" data-name="Elipse 5625" cx="1.877" cy="1.877" rx="1.877" ry="1.877" transform="translate(68.652 18.885)" fill="#e8e8e8"/>
          <path id="Trazado_193973" data-name="Trazado 193973" d="M1.877,0A1.876,1.876,0,1,1,0,1.875,1.876,1.876,0,0,1,1.877,0Z" transform="translate(78.605 18.886)" fill="#e8e8e8"/>
          <path id="Trazado_193974" data-name="Trazado 193974" d="M1.877,0A1.876,1.876,0,1,1,0,1.875,1.876,1.876,0,0,1,1.877,0Z" transform="translate(88.558 18.886)" fill="#e8e8e8"/>
          <path id="Trazado_193975" data-name="Trazado 193975" d="M1.877,0A1.876,1.876,0,1,1,0,1.875,1.876,1.876,0,0,1,1.877,0Z" transform="translate(98.512 18.886)" fill="#e8e8e8"/>
          <path id="Trazado_193976" data-name="Trazado 193976" d="M1.877,0A1.876,1.876,0,1,1,0,1.875,1.876,1.876,0,0,1,1.877,0Z" transform="translate(108.465 18.886)" fill="#e8e8e8"/>
          <path id="Trazado_193977" data-name="Trazado 193977" d="M1.877,0A1.876,1.876,0,1,1,0,1.875,1.876,1.876,0,0,1,1.877,0Z" transform="translate(118.418 18.886)" fill="#e8e8e8"/>
          <path id="Trazado_193978" data-name="Trazado 193978" d="M1.3,0A1.3,1.3,0,1,1,0,1.3,1.3,1.3,0,0,1,1.3,0Z" transform="translate(128.951 19.464)" fill="#e8e8e8"/>
          <path id="Trazado_193979" data-name="Trazado 193979" d="M.109,0A.11.11,0,1,1,0,.109.11.11,0,0,1,.109,0Z" transform="translate(140.092 20.652)" fill="#e8e8e8"/>
          <ellipse id="Elipse_5626" data-name="Elipse 5626" cx="0.028" cy="0.028" rx="0.028" ry="0.028" transform="translate(30.688 10.781)" fill="#e8e8e8"/>
          <path id="Trazado_193980" data-name="Trazado 193980" d="M.773,0A.773.773,0,1,1,0,.773.774.774,0,0,1,.773,0Z" transform="translate(39.897 10.036)" fill="#e8e8e8"/>
          <path id="Trazado_193981" data-name="Trazado 193981" d="M1.629,0A1.628,1.628,0,1,1,0,1.627,1.628,1.628,0,0,1,1.629,0Z" transform="translate(48.994 9.182)" fill="#e8e8e8"/>
          <ellipse id="Elipse_5627" data-name="Elipse 5627" cx="1.877" cy="1.877" rx="1.877" ry="1.877" transform="translate(58.699 8.932)" fill="#e8e8e8"/>
          <ellipse id="Elipse_5628" data-name="Elipse 5628" cx="1.877" cy="1.877" rx="1.877" ry="1.877" transform="translate(68.652 8.932)" fill="#e8e8e8"/>
          <path id="Trazado_193982" data-name="Trazado 193982" d="M1.877,0A1.876,1.876,0,1,1,0,1.875,1.876,1.876,0,0,1,1.877,0Z" transform="translate(78.605 8.933)" fill="#e8e8e8"/>
          <path id="Trazado_193983" data-name="Trazado 193983" d="M1.877,0A1.876,1.876,0,1,1,0,1.875,1.876,1.876,0,0,1,1.877,0Z" transform="translate(88.558 8.933)" fill="#e8e8e8"/>
          <path id="Trazado_193984" data-name="Trazado 193984" d="M1.877,0A1.876,1.876,0,1,1,0,1.875,1.876,1.876,0,0,1,1.877,0Z" transform="translate(98.512 8.933)" fill="#e8e8e8"/>
          <path id="Trazado_193985" data-name="Trazado 193985" d="M1.629,0A1.628,1.628,0,1,1,0,1.627,1.628,1.628,0,0,1,1.629,0Z" transform="translate(108.713 9.182)" fill="#e8e8e8"/>
          <path id="Trazado_193986" data-name="Trazado 193986" d="M.745,0A.745.745,0,1,1,0,.745.745.745,0,0,1,.745,0Z" transform="translate(119.55 10.063)" fill="#e8e8e8"/>
          <ellipse id="Elipse_5629" data-name="Elipse 5629" cx="0.028" cy="0.028" rx="0.028" ry="0.028" transform="translate(130.221 10.781)" fill="#e8e8e8"/>
          <ellipse id="Elipse_5630" data-name="Elipse 5630" cx="0.055" cy="0.055" rx="0.055" ry="0.055" transform="translate(50.567 0.8)" fill="#e8e8e8"/>
          <path id="Trazado_193987" data-name="Trazado 193987" d="M.413,0A.414.414,0,1,1,0,.413.412.412,0,0,1,.413,0Z" transform="translate(60.163 0.442)" fill="#e8e8e8"/>
          <path id="Trazado_193988" data-name="Trazado 193988" d="M.773,0A.773.773,0,1,1,0,.773.774.774,0,0,1,.773,0Z" transform="translate(69.756 0.082)" fill="#e8e8e8"/>
          <ellipse id="Elipse_5631" data-name="Elipse 5631" cx="0.856" cy="0.856" rx="0.856" ry="0.856" transform="translate(79.627)" fill="#e8e8e8"/>
          <path id="Trazado_193989" data-name="Trazado 193989" d="M.773,0A.773.773,0,1,1,0,.773.774.774,0,0,1,.773,0Z" transform="translate(89.663 0.082)" fill="#e8e8e8"/>
          <path id="Trazado_193990" data-name="Trazado 193990" d="M.413,0A.414.414,0,1,1,0,.413.412.412,0,0,1,.413,0Z" transform="translate(99.976 0.442)" fill="#e8e8e8"/>
          <ellipse id="Elipse_5632" data-name="Elipse 5632" cx="0.055" cy="0.055" rx="0.055" ry="0.055" transform="translate(110.287 0.8)" fill="#e8e8e8"/>
        </g>
      </g>
      <g id="Grupo_169387" data-name="Grupo 169387" transform="translate(0 195.381)">
        <path id="Trazado_211593" data-name="Trazado 211593" d="M3.926,297.385c.227.369.463.728.707,1.08L42.556,275.22c-.2-.376-.416-.751-.642-1.121-.333-.544-.688-1.066-1.06-1.573L3,295.727c.282.56.588,1.115.921,1.659" transform="translate(-0.778 -263.724)" fill="#43a99b"/>
        <path id="Trazado_211594" data-name="Trazado 211594" d="M22.66,312.881,48.373,297.12a22.328,22.328,0,0,0,.772-4.209L18.559,311.659a22.418,22.418,0,0,0,4.1,1.222" transform="translate(-4.805 -269.002)" fill="#43a99b"/>
        <path id="Trazado_211595" data-name="Trazado 211595" d="M11.677,306.34,46.55,284.963a22.041,22.041,0,0,0-.727-3.29L9.074,304.2a22.125,22.125,0,0,0,2.6,2.141" transform="translate(-2.349 -266.093)" fill="#43a99b"/>
        <path id="Trazado_211596" data-name="Trazado 211596" d="M42.905,314.063a22.213,22.213,0,0,0,6.1-5.513L35.224,317a22.224,22.224,0,0,0,7.681-2.935" transform="translate(-9.12 -273.052)" fill="#43a99b"/>
        <path id="Trazado_211597" data-name="Trazado 211597" d="M.637,289.7,37.1,267.346a22.013,22.013,0,0,0-2.692-2.086L0,286.352A22.045,22.045,0,0,0,.637,289.7" transform="translate(0 -261.843)" fill="#43a99b"/>
        <path id="Trazado_211598" data-name="Trazado 211598" d="M12.453,263.848a22.259,22.259,0,0,0-4.907,4.074l10.764-6.6a22.243,22.243,0,0,0-5.857,2.523" transform="translate(-1.954 -260.824)" fill="#43a99b"/>
        <path id="Trazado_211599" data-name="Trazado 211599" d="M.029,280.022l29.8-18.266a22.418,22.418,0,0,0-4.292-1.106L.992,275.7a22.354,22.354,0,0,0-.963,4.326" transform="translate(-0.008 -260.649)" fill="#43a99b"/>
      </g>
    </g>
    <g id="Grupo_177815" data-name="Grupo 177815" transform="translate(-7713.837 -3745.996)">
      <g id="Grupo_177814" data-name="Grupo 177814" transform="translate(0 -0.004)" clip-path="url(#clip-path-2)">
        <path id="Trazado_227369" data-name="Trazado 227369" d="M245.012,91.106a26.794,26.794,0,0,1-.535,6.179,16.848,16.848,0,0,1-1.6,5.248,11.338,11.338,0,0,1-2.59,3.019,13.27,13.27,0,0,1-2.43,1.842c-2.669,1.547-5.823,1.912-8.821,2.393-7.606,1.081-15.117-1.14-22.673-1.618a30.029,30.029,0,0,0-8.148.393,54.73,54.73,0,0,0-6.787,2.666,21.184,21.184,0,0,1-7.622,1.208c-2.624-.092-5.132-.986-7.681-1.541a29.286,29.286,0,0,1-6.458-2.084c-1.27-.577-2.208-1.66-3.443-2.287-2.385-1.2-5.7-2.654-5.1-5.866a3.46,3.46,0,0,1-.268-.87c-.4-1.433-.763-2.888-1.067-4.343a42.305,42.305,0,0,1-.455-5.282,53.962,53.962,0,0,1,.712-7.391c.442-2.732.555-5.5.795-8.255.211-5.531.478-11.119-.348-16.613-.173-1.875-.217-3.745-.475-5.6-.174-1.653-.077-3.317-.126-4.974-.145-2.54-.145-5.083-.129-7.625a29.8,29.8,0,0,1,.189-3.981c.408-2.145.643-4.325,1.157-6.447.3-1.147.728-2.238,1.1-3.323a21.774,21.774,0,0,1,1.225-3.318c.751-1.5,1.663-2.921,2.366-4.43a13.113,13.113,0,0,1,1.34-2.023,20.406,20.406,0,0,1,2.348-2.827A20.1,20.1,0,0,1,174.6,9.779c.208-.1.42-.246.641-.349q.862-.5,1.723-1c2.257-1.359,4.541-2.789,6.847-4.039A44.029,44.029,0,0,1,193.783.836a33.573,33.573,0,0,1,15.358.1,23.7,23.7,0,0,1,7.558,2.93c3.232,2.08,5.637,5.131,7.9,8.179,1.7,1.871,2.778,4.151,4.116,6.267a42.222,42.222,0,0,1,2.4,3.9,34.909,34.909,0,0,1,2.456,6.338,46.434,46.434,0,0,1,2.494,9.026c.473,2.716.5,5.473.81,8.2.166,4.129.108,8.3.628,12.4a64.638,64.638,0,0,0,2,10.236c.786,3.48,1.756,6.917,2.773,10.334a82.237,82.237,0,0,1,2.738,12.363" transform="translate(-131.181 0.004)" fill="#5c3545"/>
        <path id="Trazado_227370" data-name="Trazado 227370" d="M141.816,618.934c.467,2.686.083,2.669-2.232,3.769a13.374,13.374,0,0,0-1.578,1.1c-.305.146-.62.316-.917.5-.077.325-.745.828-.86,1.019a18.136,18.136,0,0,0-1.76,3.019c-1.317,2.57-3.756,4.331-5.27,6.776-1.56,2.6-1.991,5.648-2.448,8.59-.9,6.644-2.42,12.3-7.8,16.748a20.734,20.734,0,0,1-11.1,4.9,77.384,77.384,0,0,1-12.346.821c-3.561.079-7.079.594-10.622.9-3.2.236-6.407.522-9.619.544a102.711,102.711,0,0,1-10.309-.754c-2.522-.232-5.053-.292-7.584-.352-5.076-.019-9.991-1.438-15.029-1.852-4.28-.425-8.751-.735-12.633-2.746a11.625,11.625,0,0,1-4.909-5.888c-1.062-2.742-1.226-5.717-1.6-8.6-.742-5.495-1.868-11.3-5.557-15.545a31.406,31.406,0,0,0-6.825-4.761,12.092,12.092,0,0,0-1.409-.671.289.289,0,0,1-.31.066,10.628,10.628,0,0,0-1.571-.518.2.2,0,0,1-.084.012q-.268-.081-.533-.178a7.716,7.716,0,0,1-1.491-.556c-.349-.184-.692-.378-1.032-.578a10.788,10.788,0,0,1-3.932-1.722A1.2,1.2,0,0,1,.064,621.9.586.586,0,0,1,0,621.685a1.737,1.737,0,0,1,.1-.551q.024-.093.046-.185a.6.6,0,0,1,.073-.308c.169-.734.293-1.446.436-2.19.536-2.408,1.43-4.719,1.945-7.135.785-3.848,1.593-7.652,2.521-11.46.686-2.325,1.179-4.7,1.81-7.04A58.91,58.91,0,0,1,9.021,586.8a27.722,27.722,0,0,1,2.417-6.179c.809-1.331,1.556-2.706,2.473-3.968a46.541,46.541,0,0,1,3.651-4.3,17.882,17.882,0,0,1,7.746-4.84c1.555-.374,3.327-2.17,4.85-.892a3.227,3.227,0,0,0,1.672.908c1.19.309,2.643-.267,3.65.576.035.042.068.084.1.128,1.348.69,2.7,1.374,4.082,2a28.975,28.975,0,0,0,4.136,1.713c1.635.3,3.216.848,4.861,1.094a19.42,19.42,0,0,0,5.081-.1c2.937-.369,5.688-1.546,8.625-1.881,4.486-.5,8.569,2.21,12.962,2.555,2.323.3,4.285-1.143,6.354-1.937a26.467,26.467,0,0,1,10.338-1.218c1.638-.058,2.952-1.038,4.359-1.745a6.791,6.791,0,0,1,2.718-.563.284.284,0,0,1,.261-.155c.549.017,1.1.034,1.648.055a9.115,9.115,0,0,1,2,.3,24.468,24.468,0,0,0,4.2-.373.254.254,0,0,1,.227.089,3.8,3.8,0,0,0,.434-.025c.913-.041,1.823-.091,2.738-.1a5.659,5.659,0,0,1,1.689.18,22.986,22.986,0,0,1,3.895.956,18.356,18.356,0,0,1,5.8,2.938,16.468,16.468,0,0,1,3.415,2.882,20.074,20.074,0,0,1,3.976,5.063c.641,1.16,1.4,2.233,2.108,3.353a.278.278,0,0,1-.143.418c.661,1.65,1.318,3.3,1.894,4.984,1.661,4.876,2.881,9.887,4.353,14.822.426,1.421.6,2.9,1.009,4.325.376,1.283.8,2.552,1.19,3.832.454,1.429.787,2.888,1.209,4.325a19.041,19.041,0,0,1,.813,2.918" transform="translate(0 -466.139)" fill="#f9eee7"/>
        <path id="Trazado_227371" data-name="Trazado 227371" d="M509.734,318.41q.113,15.234.227,30.467a17.362,17.362,0,0,0,.907,6.6l3.724,1.591c-.881-8.129-.377-16.335-.232-24.511s-.085-16.469-2.373-24.32Z" transform="translate(-419.674 -253.776)" fill="#3d242e"/>
        <path id="Trazado_227372" data-name="Trazado 227372" d="M194.83,1210.143c-.409-2.226-.723-4.476-1.338-6.659a41.927,41.927,0,0,0-1.811-4.762,34.7,34.7,0,0,1-1.322-3.768c-.5-1.589-1.143-3.123-1.774-4.661-.212-.514-.415-1.031-.615-1.55-21.114-2.552-42.922-.492-63.446-6.128-6.408-1.76-12.765-4.276-19.339-4.727-.371.15-.744.3-1.121.43-.953.349-1.857.688-2.845.974-1.684.44-3.466.629-4.971,1.575a17.161,17.161,0,0,0-1.809,1.164q.26-.642.527-1.281c.158-.428.44-.814.589-1.234a.28.28,0,0,0-.277-.277c-.179,0-.277.162-.34.307-.1.2-.206.389-.3.588-1.493,3.332-2.615,6.818-4.065,10.166-1.477,3.9-2.605,7.936-3.69,11.961a93.746,93.746,0,0,0-2.252,11.965c-.329,2.382-.855,4.742-1.032,7.143a.279.279,0,0,0,.277.277.247.247,0,0,0,.245-.165,40.432,40.432,0,0,0,4.946,1.051c2.634.173,5.28-.128,7.915.081,3.944.374,7.937.043,11.893.279,3.619-.006,7.2.591,10.813.668,3.386.021,6.767-.24,10.153-.248,2.819-.07,5.641.132,8.458-.066,13.746-.967,27.524.243,41.272-.025,3.786-.074,7.574-.191,11.36-.173,1,.007,2.012-.062,3-.152a5.534,5.534,0,0,0,1.469-.134c.69-.4.514-1.933.606-2.683a24.919,24.919,0,0,0-.184-4.954c-.289-1.668-.7-3.311-1-4.981" transform="translate(-68.83 -969.776)" fill="#433473"/>
        <path id="Trazado_227373" data-name="Trazado 227373" d="M288.555,1174.422a53.057,53.057,0,0,0-3.38-7.784,14.242,14.242,0,0,0-3.1-3.647c-1.786-1.032-3.936-1.165-5.951-1.333-3.894-.246-7.793-.334-11.693-.349-9.064,0-18.1,1.032-27.157,1.2a83.3,83.3,0,0,1-10.526-.906,82.7,82.7,0,0,0-8.857-1.1,22.308,22.308,0,0,0-7.615,1.226c-1.531.535-3,1.235-4.5,1.842,6.574.45,12.931,2.967,19.339,4.727,20.524,5.636,42.331,3.576,63.446,6.128" transform="translate(-169.415 -955.456)" fill="#302653"/>
        <path id="Trazado_227374" data-name="Trazado 227374" d="M165.66,254.817a24.859,24.859,0,0,0,.207-3.6c-.228-4.5-.512-9-.581-13.51-.072-.353.257-1.9-.424-1.615a.284.284,0,0,0-.144.266,4.013,4.013,0,0,0-1.433.364q-1.491.525-2.967,1.092a94.078,94.078,0,0,1-9.5,3.076c-2.007.6-4.09.942-6.1,1.554-2.043.672-4.175,1.267-6.179,2.067-.5.192-1.006.37-1.5.58a.278.278,0,0,0-.127.371.247.247,0,0,0,.1.114c-.038.246-.079.492-.118.737-.228,2.056-.69,4.086-.857,6.151-.33,3.592-.729,7.19-1.118,10.764-.21,1.538-.446,3.071-.689,4.6l-1.6-.027c-2.823-.033-5.649-.018-8.469.083a96.944,96.944,0,0,1-10.061-.14c-1.479,0-2.959.027-4.438.059s-2.98.064-4.47.06c-3.33-.116-6.652.185-9.977.189-5.328-.088-10.662-.466-15.988-.13-1.168.076-2.34.05-3.51.025-1.135-.024-2.269-.049-3.4.019.605-1.467,1.262-2.914,1.754-4.422.506-1.272,1.181-2.47,1.63-3.766.769-1.889,1.66-3.731,2.244-5.692,1.246-4.353,2.481-8.667,3.957-12.959.7-2.515,1.57-4.953,2.318-7.461.777-2.866,1.721-5.686,2.517-8.544,1.078-4.309,1.878-8.687,3.1-12.961a74.521,74.521,0,0,1,3.222-10.444c.367-1.275.577-2.592.974-3.86.7.058,1.4.106,2.106.128a16.378,16.378,0,0,0,2.15-.077,18.733,18.733,0,0,1,1.892-.084,21.3,21.3,0,0,0,4.855-.452,44.923,44.923,0,0,0,7.514-2.208,35.036,35.036,0,0,0,7.063-4.422,29.851,29.851,0,0,0,7.547-9.024c.061-.079.118-.16.173-.244a.484.484,0,0,0,.366-.337.279.279,0,0,0,.1-.239c.007-.015.013-.031.018-.047.33-.088.245-.721-.161-.71a11.909,11.909,0,0,1-2.053-.225,9.5,9.5,0,0,1-2.023-.318,2.655,2.655,0,0,1-1.11-1.435c.011-.209-.035-.487-.257-.561-.156-.415-.392-.923-.924-.831-.13.008-.259.025-.389.039a.28.28,0,0,0-.12-.025,32.266,32.266,0,0,1-4.5-.215c-1.912-.144-4.523-.615-5.12-2.748a53.555,53.555,0,0,1-.265-8.19q0-.289,0-.578c.061-1.2.119-2.409.11-3.617a6.814,6.814,0,0,0,1-.739c3.861-4.084,7.316-11.293,9.094-25.409a7.8,7.8,0,0,0-.212-2c-.452-2.032-.259-3.756-1.06-5.728a30.379,30.379,0,0,0-3.006-5.578,40.834,40.834,0,0,0-8.61-9.076,86.433,86.433,0,0,0-14.806-8.971c-5.028-2.532-9.728-5.718-14.721-8.414a3.051,3.051,0,0,0-1.526-.5c-1.256.053-2.037,2.384-2.407,3.331A70.382,70.382,0,0,0,71.7,107.51c-.149.618-.331,1.225-.532,1.825-.066.309-.132.617-.209.923a25.049,25.049,0,0,1-.742,2.429c-.277.766-.566,1.528-.846,2.292-.286.783-.563,1.568-.84,2.354s-.618,1.527-.954,2.279c-.16.361-.336.713-.512,1.066s-.339.736-.495,1.112-.311.72-.466,1.08q-.122.387-.24.776a41.5,41.5,0,0,0-.813,4.682,6.445,6.445,0,0,1-.59,2.2c-.409.658-.841.327-1.247-.116a13.972,13.972,0,0,0-3.292-2.473,3.008,3.008,0,0,0-3.38.021,5.378,5.378,0,0,0-1.979,3.694,7.356,7.356,0,0,0,.151,3.225,12,12,0,0,0,.968,2.968,13.015,13.015,0,0,0,1.463,2.789,8.074,8.074,0,0,0,4.81,2.533,21.806,21.806,0,0,0,2.817.115.8.8,0,0,1,.108.072,6.784,6.784,0,0,1,2.2,2.692c.622,1.024,1.062,2.2,1.622,3.262a32.058,32.058,0,0,0,2.645,4.274,22.227,22.227,0,0,1,2.155,3.38c.4,3.767-.273,7.606-.122,11.393.351,3.384.558,6.8,1.095,10.176.024.948.1,1.926.1,2.891-.531-.115-1.064-.232-1.587-.318-3.5-.506-6.985-1.141-10.505-1.454a.284.284,0,0,0-.179.494c1.3,1.894,2.273,4.041,3.975,5.622a39.689,39.689,0,0,0,3.68,2.852,16.7,16.7,0,0,0,3.107,2.118c-.906,2.463-1.588,5.007-2.624,7.422-2.751,6.588-5.9,13-9.141,19.361-1.02,1.972-1.732,4.082-2.667,6.094-.575,1.229-1.294,2.428-1.856,3.674-1.35,2.817-2.415,5.772-3.766,8.591-.937,2.236-1.737,4.528-2.684,6.758a.682.682,0,0,1-.04.083c-.429-.168-.859-.333-1.283-.509-1.907-.861-3.846-1.647-5.8-2.386-.368-.079-1.246-.655-1.561-.36-1.231-.516-2.483-.985-3.727-1.468a14.023,14.023,0,0,0-1.594-.511.279.279,0,0,0-.161-.52,2.617,2.617,0,0,0-.442-.021.523.523,0,0,0-.351.335,16.9,16.9,0,0,0-.48,3.6c-.114,1.9-.285,3.79-.48,5.679-.159,2.251-.333,4.51-.359,6.771.091,1.428.154,2.859.151,4.29a62.317,62.317,0,0,0,1.56,12.4c.665,3.621,1.09,7.441,3.046,10.538-.118.187-.235.375-.349.564a2.929,2.929,0,0,0-.471,1.551,12.445,12.445,0,0,0,.21,1.263c.239.663.928,1.006,1.5,1.347-.344,1.85-.284,3.444,1.739,4.158a1.2,1.2,0,0,1,.168.11.826.826,0,0,1-.033.275,8.2,8.2,0,0,0-.708,2.645c.014,1.594.873,3.523,2.495,4.036a1.7,1.7,0,0,0,.182.01,3.679,3.679,0,0,0,1.566-.476c.9-.637,1.172-1.8,1.934-2.562,1.438-1.443,3.615-1.621,5.538-1.959a20.124,20.124,0,0,1,3.64-.409c3.891-.421,7.917-1.132,11.213-3.386a15.9,15.9,0,0,1,1.657-.826,26.048,26.048,0,0,0,2.72.343,92.884,92.884,0,0,1,9.369,1.1c2.728.367,5.49.463,8.219.837,3.978.606,7.993.887,12,1.267,2.509.356,5.039.31,7.562.5,2.43.134,4.851.364,7.28.495,1.336.03,2.652-.019,3.992.1,5.117.178,10.211.719,15.328.85,2.306.121,4.614-.025,6.92-.029.426,0,.852.014,1.278.016a1.509,1.509,0,0,0,.831.043,2.575,2.575,0,0,1,.456-.03,13.243,13.243,0,0,1,2.066-.051,13.12,13.12,0,0,0,2.958-.473,23.712,23.712,0,0,0,4.742-1.789c.735-.45,1.507-.995,2.278-1.434a20.949,20.949,0,0,0,3.405-2.681,15.959,15.959,0,0,0,1.081-1.376,8.389,8.389,0,0,0,1.04-1.365c.089-.228.546-.909.895-1.558a.283.283,0,0,0,.118-.13,17.459,17.459,0,0,0,1.683-7.936c.522-3.731.2-7.517.259-11.274.018-2.508.107-5.013.1-7.519" transform="translate(-28.029 -78.232)" fill="#f0b0a0"/>
        <path id="Trazado_227375" data-name="Trazado 227375" d="M239.585,176.386c0,.01,0,.019-.005.029s0,0,0,0l.007-.031" transform="translate(-197.249 -145.221)" fill="#f0b0a0"/>
        <path id="Trazado_227376" data-name="Trazado 227376" d="M249.248,139.793v0h0v0" transform="translate(-205.211 -115.093)" fill="#f0b0a0"/>
        <path id="Trazado_227377" data-name="Trazado 227377" d="M249.251,139.738v.01l0-.01" transform="translate(-205.211 -115.048)" fill="#f0b0a0"/>
        <path id="Trazado_227378" data-name="Trazado 227378" d="M249.26,139.677v0" transform="translate(-205.22 -114.998)" fill="#f0b0a0"/>
        <path id="Trazado_227379" data-name="Trazado 227379" d="M249.4,138.934h0v0" transform="translate(-205.337 -114.386)" fill="#f0b0a0"/>
        <path id="Trazado_227380" data-name="Trazado 227380" d="M355.4,126l0,0,0,0" transform="translate(-292.608 -103.733)" fill="#f0b0a0"/>
        <path id="Trazado_227381" data-name="Trazado 227381" d="M355.4,125.993h0" transform="translate(-292.607 -103.731)" fill="#f0b0a0"/>
        <path id="Trazado_227382" data-name="Trazado 227382" d="M355.389,125.988h0" transform="translate(-292.597 -103.727)" fill="#f0b0a0"/>
        <path id="Trazado_227383" data-name="Trazado 227383" d="M355.374,125.977l0,0,0,0h0" transform="translate(-292.584 -103.717)" fill="#f0b0a0"/>
        <path id="Trazado_227384" data-name="Trazado 227384" d="M253.828,105.9c0,.011-.008.02-.012.031a.13.13,0,0,1-.007.017l.019-.049" transform="translate(-208.966 -87.191)" fill="#f0b0a0"/>
        <path id="Trazado_227385" data-name="Trazado 227385" d="M310.015,86.645,310,86.638l.011.007" transform="translate(-255.232 -71.33)" fill="#f0b0a0"/>
        <path id="Trazado_227386" data-name="Trazado 227386" d="M355.423,126.011h0" transform="translate(-292.626 -103.746)" fill="#f0b0a0"/>
        <path id="Trazado_227387" data-name="Trazado 227387" d="M355.412,126h0" transform="translate(-292.617 -103.739)" fill="#f0b0a0"/>
        <path id="Trazado_227388" data-name="Trazado 227388" d="M355.308,125.929h0" transform="translate(-292.531 -103.678)" fill="#f0b0a0"/>
        <path id="Trazado_227389" data-name="Trazado 227389" d="M355.271,125.9l-.007,0,.008.005h0" transform="translate(-292.496 -103.654)" fill="#f0b0a0"/>
        <path id="Trazado_227390" data-name="Trazado 227390" d="M355.187,125.845l0,0,.014.01-.011-.008" transform="translate(-292.43 -103.608)" fill="#f0b0a0"/>
        <path id="Trazado_227391" data-name="Trazado 227391" d="M273.291,219.092c.5.31.369.98.041,1.372-1.358,1.966-5.41,1.8-7.613,1.853a10.711,10.711,0,0,0-2.114.08,13.36,13.36,0,0,1-3.066.533.5.5,0,0,1-.389-.243.439.439,0,0,1-.04-.114c-.429-.6.392-1.35.89-1.585a.324.324,0,0,0-.093.026,17.032,17.032,0,0,1,3.412-1.114c2-.282,4.1.039,6.078-.315.963-.072,1.944-.934,2.9-.493" transform="translate(-214.054 -180.279)" fill="#5c3545"/>
        <path id="Trazado_227392" data-name="Trazado 227392" d="M417.833,196.3a.524.524,0,0,1-.044.223c-.187.4-.579.161-.881.034l-.061-.027a.261.261,0,0,1-.193-.056,13.451,13.451,0,0,0-1.938-.9,21.387,21.387,0,0,0-4.235-.716,23.96,23.96,0,0,0-3.792.073c-1.126.087-2.88.691-3.529-.584-.481-2.392,5.021-2.264,6.6-2.236a8.326,8.326,0,0,1,2.433.316c.257.078,1.48.342,1.842.429a5.571,5.571,0,0,1,3.391,2.408,2.33,2.33,0,0,1,.409,1.036" transform="translate(-331.906 -158.161)" fill="#5c3545"/>
        <path id="Trazado_227393" data-name="Trazado 227393" d="M373.336,283.568c2.6-.528,3.72-2.246,3.044-4.832-.451-1.7-1.58-3.183-1.854-4.934-.042-.68-.061-1.352-.067-2.031a.277.277,0,1,0-.554,0c.019.794.011,1.619.106,2.392a26.662,26.662,0,0,0,1.514,3.793c.919,2.25.7,4.341-1.959,4.978a3.734,3.734,0,0,0-.446.124.278.278,0,0,0,.216.511" transform="translate(-307.06 -223.525)" fill="#e17e86"/>
        <path id="Trazado_227394" data-name="Trazado 227394" d="M353.714,367.1a.446.446,0,0,1,.338-.417,24.589,24.589,0,0,1,5.432-2.218,13.013,13.013,0,0,1,4.233-.574.416.416,0,0,1,0,.832c-.462,0-.925,0-1.347.024a13.673,13.673,0,0,0-3.352.74,18.7,18.7,0,0,0-3.8,1.529c-.445.172-1.35.966-1.5.084" transform="translate(-291.219 -299.589)" fill="#e17e86"/>
        <path id="Trazado_227395" data-name="Trazado 227395" d="M261.738,391.335c-4.6.1-4.447-6.383-4.945-9.641a17.466,17.466,0,0,0-1.147-4.567,9.108,9.108,0,0,0-2.832-3.664,4.311,4.311,0,0,0-2.6-.8,2.033,2.033,0,0,0-1.427,1.989c-.1,3.548,1.519,6.882,1.22,10.437a.277.277,0,1,1-.554,0v-1.268c.228-2.888-2.434-8.617-.583-10.93a2.318,2.318,0,0,1,2.81-.57c2.449.812,4.064,3.21,4.828,5.566.962,2.669.909,5.539,1.418,8.3.351,1.694.882,3.82,2.674,4.478a5.935,5.935,0,0,0,2.6-.069.277.277,0,1,1,.076.549,8.3,8.3,0,0,1-1.543.191" transform="translate(-204.359 -306.342)" fill="#e17e86"/>
        <path id="Trazado_227396" data-name="Trazado 227396" d="M324.894,397.7a.286.286,0,0,1,.312-.278,4.85,4.85,0,0,0,2.246-.55c4.36-2.681,7.788-6.568,12.013-9.427a42.754,42.754,0,0,1,6.35-3.706,51.407,51.407,0,0,1,6.4-3,4.325,4.325,0,0,1,3.609-.021,2.553,2.553,0,0,1,.733,3.363c-1,1.522-2.944,2-4.493,2.791a20.893,20.893,0,0,0-7.523,5.691c-1.2,1.191-2.436,2.347-3.656,3.517-.436.4-.861.715-1.249,1.13-.228.2-.391.759-.763.529-.49-.426,1.166-1.6,1.455-1.9,1.675-1.577,3.357-3.152,4.933-4.829a20.353,20.353,0,0,1,4.806-3.788c1.783-1.009,3.852-1.541,5.485-2.8a2.021,2.021,0,0,0,.071-3.159,2.541,2.541,0,0,0-1.559-.381c-2.519.376-4.773,1.743-7.034,2.844a52.044,52.044,0,0,0-6.867,3.913c-4.32,2.828-7.755,6.787-12.147,9.517h0a2.8,2.8,0,0,1-1.465.644,13.934,13.934,0,0,1-1.387.18.28.28,0,0,1-.277-.277" transform="translate(-267.491 -313.13)" fill="#e17e86"/>
        <path id="Trazado_227397" data-name="Trazado 227397" d="M373.121,503.543a.282.282,0,0,1-.148-.363c.126-.319.212-.641.307-.968a2.9,2.9,0,0,1,1.628-2.026c.881-.333,1.77-.617,2.626-1a23.882,23.882,0,0,0,3.852-2.283,15.417,15.417,0,0,0,5.358-5.565,8.833,8.833,0,0,0,.915-2.833,6.4,6.4,0,0,0-1.5-3.958c-.319-.33-.8-.8-.428-1.266a9.279,9.279,0,0,0,1.939-3.343,4.032,4.032,0,0,0-1.662-4.09c-.383-.346-1.081-.26-1.316-.755-.087-.323.249-.525.451-.715,1.344-1.19,3.1-1.982,4.16-3.462a4.255,4.255,0,0,0,.606-3.184,2.456,2.456,0,0,0-2.152-.733,21.415,21.415,0,0,0-3.842.469,22.752,22.752,0,0,0-4.107.79q-.751.239-1.5.475c-.21.108-.52-.006-.483-.275a.283.283,0,0,1,.237-.237c.794-.219,1.57-.513,2.367-.727a28.543,28.543,0,0,1,3.268-.552c1.878-.262,4.7-1.077,6.342.1.884.679.493,2.572.107,3.464-.9,2.095-3.219,2.965-4.807,4.439a4.409,4.409,0,0,1,2.943,4.64c-.151,1.575-1.219,2.858-2.133,4.078.227.368.563.634.81.988a7.62,7.62,0,0,1,1.1,2.568c.446,1.511-.181,2.99-.807,4.343-1.545,3.1-4.46,5.147-7.3,6.958a15.261,15.261,0,0,1-3.251,1.6c-1.238.5-2.42.6-2.832,2.084-.174.337-.238,1.534-.746,1.345" transform="translate(-307.06 -384.014)" fill="#e17e86"/>
        <path id="Trazado_227398" data-name="Trazado 227398" d="M254.606,382.461c-.356-1.373-.968-2.9-2.284-3.573a4.56,4.56,0,0,0-.487-.222,1.78,1.78,0,0,0-.712.222c-.278.29-.687-.18-.359-.422a1.5,1.5,0,0,1,1.513-.215,4.393,4.393,0,0,1,2.2,2.214,8.663,8.663,0,0,1,.664,1.849.277.277,0,0,1-.535.147" transform="translate(-206.359 -311.311)" fill="#e17e86"/>
        <path id="Trazado_227399" data-name="Trazado 227399" d="M488.871,392.9a.279.279,0,0,1,.261-.277,5.388,5.388,0,0,0,2.135-1.363.278.278,0,0,1,.511.217,4.435,4.435,0,0,1-1.971,1.45c-.279.123-.864.495-.937-.027" transform="translate(-402.497 -321.999)" fill="#e17e86"/>
        <path id="Trazado_227400" data-name="Trazado 227400" d="M166.208,307.265c-1.09-1.816-2.07-2.4-1.287-4.741a3.228,3.228,0,0,0,.335-1.12,3.962,3.962,0,0,0-2.27-2.354,3.4,3.4,0,0,0-2.167.414c-.288.558-.877.123-.464-.32a3.236,3.236,0,0,1,3.252-.409A4.365,4.365,0,0,1,165.8,301.3a3.055,3.055,0,0,1-.359,1.413,3.057,3.057,0,0,0,0,2.345c.128.514,1.779,2.056,1.131,2.357a.279.279,0,0,1-.363-.147" transform="translate(-131.906 -245.722)" fill="#e17e86"/>
        <path id="Trazado_227401" data-name="Trazado 227401" d="M95.451,943.445a.279.279,0,0,1-.194-.341c.345-1.116.669-2.237,1.058-3.339,1.03-2.964,2.339-5.872,3.377-8.83.216-.655.438-1.309.631-1.971a.279.279,0,0,1,.275-.25c.5.064.174.637.1.929-.173.548-.35,1.111-.539,1.646-1.01,2.831-2.228,5.6-3.235,8.421q-.432,1.243-.812,2.5c-.161.32-.191,1.343-.656,1.233" transform="translate(-78.417 -764.627)" fill="#e17e86"/>
        <path id="Trazado_227402" data-name="Trazado 227402" d="M75.367,1092.416a21.6,21.6,0,0,1-6.625-1.638,17.177,17.177,0,0,1-3.212-1.521c-1.208-.89-2.163-2.09-3.285-3.089a.277.277,0,0,1,.392-.392c.719.7,1.442,1.391,2.154,2.095a5.336,5.336,0,0,0,1.672,1.287,29.5,29.5,0,0,0,4.362,1.785,18.759,18.759,0,0,0,4.542.919c6.011.475,9.9-2.474,13.117-7.256.705-1.026,1.393-2.134,2.069-3.157a34.968,34.968,0,0,0,2.806-4.4c.44-.894.829-1.813,1.179-2.745.152-.372.32-.737.467-1.112a.279.279,0,0,1,.363-.147c.344.174.048.557-.035.81-.195.434-.369.874-.536,1.319-1.089,3.047-3.153,5.542-4.856,8.24-3.473,5.565-7.586,9.562-14.581,9h.007" transform="translate(-51.183 -883.441)" fill="#e17e86"/>
        <path id="Trazado_227403" data-name="Trazado 227403" d="M75.817,1186.574a.283.283,0,0,1,.126-.312,13.459,13.459,0,0,1,1.98-1.679.277.277,0,0,1,.339.438c-.286.226-.584.391-.855.626-.349.315-.684.644-1.028.964-.142.2-.48.239-.562-.038" transform="translate(-62.414 -975.239)" fill="#e17e86"/>
        <path id="Trazado_227404" data-name="Trazado 227404" d="M65.057,1160.89c.162-.373.585-.586.863-.875.375-.326.754-.648,1.139-.959a.277.277,0,1,1,.338.439c-.621.512-1.242,1.026-1.826,1.578a.28.28,0,0,1-.514-.182" transform="translate(-53.559 -954.224)" fill="#e17e86"/>
        <path id="Trazado_227405" data-name="Trazado 227405" d="M185.965,713.113c-.064-5.246-.205-10.505-.686-15.727a.278.278,0,0,1,.55-.076c.1.891.17,1.785.228,2.68v0c0-.009,0-.017,0-.025.207,3.375.347,6.765.419,10.15.026,1,.049,2,.044,3a.277.277,0,0,1-.554,0" transform="translate(-152.542 -573.915)" fill="#d6bca9"/>
        <path id="Trazado_227406" data-name="Trazado 227406" d="M615.075,712.266a.278.278,0,0,0-.312.237,4.758,4.758,0,0,1-.349,1.517c-.243.765-.355,1.547-.55,2.334.115-2.2.243-4.4.226-6.6a.277.277,0,1,0-.554,0c.027,2.846-.2,5.664-.317,8.507.018.3.033.609.048.914a.544.544,0,0,0,.018.35c.147,3.16.159,6.331.15,9.494-.069,3.8-.3,7.595-.239,11.393.071,2.031.07,4.06.142,6.09a43.5,43.5,0,0,1,.108,5.363.277.277,0,0,0,.554,0,35.835,35.835,0,0,0-.083-4.808c-.1-2.568-.121-5.155-.187-7.726.086-5.871.4-11.737.195-17.61.009-.8-.058-1.586-.106-2.378.042-.183.044-.4.095-.546.093-.463.186-.938.283-1.406,0,.008,0,.015-.005.023.2-.863.386-1.726.583-2.591.042-.464.96-2.428.3-2.559" transform="translate(-504.847 -584.126)" fill="#d6bca9"/>
        <path id="Trazado_227407" data-name="Trazado 227407" d="M140.323,1247.436a.279.279,0,0,1-.237-.312c.111-.723.235-1.447.317-2.174a87.406,87.406,0,0,1,1.355-10.591c.425-2.329.4-4.725.921-7.038a127.6,127.6,0,0,1,3.367-13.9c.079-.267.476-.355.569-.041a.271.271,0,0,1-.055.247c-.058.149-.082.309-.127.463a122.464,122.464,0,0,0-3.206,13.317,46.24,46.24,0,0,0-.668,5.318c-.221,1.782-.578,3.542-.855,5.316a64,64,0,0,0-.7,6.38c-.068.935-.227,1.858-.369,2.784a.281.281,0,0,1-.313.236" transform="translate(-115.333 -998.829)" fill="#776ba2"/>
        <path id="Trazado_227408" data-name="Trazado 227408" d="M245.328,1233.312c.153-2.888-.116-5.789.174-8.67.585-4.025.762-8.094,1.349-12.121.262-2.115.573-4.251.811-6.365a.554.554,0,0,1,.15-.433c.261-.209.637.121.407.392-.4,3.659-.98,7.3-1.356,10.959-.183,1.734-.272,3.476-.483,5.206-.156,1.092-.331,2.2-.4,3.3-.139,2.282.014,4.569-.064,6.854-.072.341.157,1.114-.308,1.156a.28.28,0,0,1-.277-.277" transform="translate(-201.983 -992.64)" fill="#776ba2"/>
        <path id="Trazado_227409" data-name="Trazado 227409" d="M368.856,1280.557c-.463-3.691.1-7.351,0-11.05.014-1.139.194-2.3.283-3.427.014-.814-.054-1.625-.031-2.439,0-2.471.025-4.941.049-7.412.006-1,.025-2,.084-3a.278.278,0,0,1,.55.075c-.139,4.043-.153,8.1-.1,12.142a32.261,32.261,0,0,1-.247,3.271c-.068,2.359-.03,4.722-.2,7.078a20.884,20.884,0,0,0,0,2.851c.042.613.1,1.224.155,1.836a.277.277,0,1,1-.549.076" transform="translate(-303.533 -1031.614)" fill="#776ba2"/>
        <path id="Trazado_227410" data-name="Trazado 227410" d="M370.883,1225.724c.048-1.036.08-2.076.108-3.113a.272.272,0,0,1-.033-.323h0a.349.349,0,0,0-.028.066.3.3,0,0,1,.54-.1,7.4,7.4,0,0,1,.03,1.83c-.023.547-.037,1.094-.064,1.64a.281.281,0,0,1-.277.277.278.278,0,0,1-.277-.277" transform="translate(-305.354 -1006.194)" fill="#776ba2"/>
        <path id="Trazado_227411" data-name="Trazado 227411" d="M495.648,1250.293c-.153-2.43-.214-4.862-.223-7.3-.189-2.483-.56-4.944-.775-7.424-.114-2.515-.316-5.005-.549-7.508a47.381,47.381,0,0,0-.659-5.351,1.369,1.369,0,0,1-.045-.356.28.28,0,0,1,.495-.132c.081.112.059.288.1.4a59.063,59.063,0,0,1,.751,6.354c.346,3.351.384,6.719.841,10.057.122,1.2.275,2.4.377,3.612s-.005,2.4.05,3.6c.075,1.347.118,2.7.2,4.044a.277.277,0,0,1-.554,0" transform="translate(-406.221 -1006.194)" fill="#776ba2"/>
        <path id="Trazado_227412" data-name="Trazado 227412" d="M589.976,1240.733a5.637,5.637,0,0,0-.129-1.776l0,.009,0,.015c-.59-2.413-1.269-4.8-1.914-7.2a.277.277,0,0,1,.535-.147c.659,2.485,1.391,4.969,1.969,7.468.052.352.338,1.93-.188,1.91a.278.278,0,0,1-.277-.277" transform="translate(-484.051 -1013.86)" fill="#776ba2"/>
        <path id="Trazado_227413" data-name="Trazado 227413" d="M647.41,1257.434c-.125-2.532-.282-5.061-.4-7.595a59.861,59.861,0,0,0-.926-8.27c-.618-2.493-1.314-4.965-1.948-7.455a27.335,27.335,0,0,0-1.954-6.018c-.116-.2-.255-.48.025-.609.234-.1.385.15.452.324,1.407,2.679,1.8,5.744,2.657,8.62.447,1.857,1.052,3.678,1.411,5.554a75.5,75.5,0,0,1,.948,9.734c.031,1.939.235,3.795.293,5.714a.277.277,0,0,1-.554,0" transform="translate(-528.603 -1010.594)" fill="#776ba2"/>
        <path id="Trazado_227414" data-name="Trazado 227414" d="M603.368,1329.828a42,42,0,0,0-.16-5.955c-.232-3.071-.47-6.134-.748-9.2a.277.277,0,0,1,.549-.075c.335,3.637.593,7.286.895,10.922.129,1.409.016,2.823.015,4.232a.278.278,0,0,1-.55.076" transform="translate(-496.015 -1082.139)" fill="#776ba2"/>
        <path id="Trazado_227415" data-name="Trazado 227415" d="M241.437,1384.822c-.38-.073-.187-.541-.185-.8.065-1.188.106-2.377.16-3.565q.044-1.014.088-2.026a.278.278,0,0,1,.555,0q-.088,1.969-.171,3.935c-.041.738-.044,1.48-.134,2.214a.28.28,0,0,1-.313.237" transform="translate(-198.585 -1134.663)" fill="#776ba2"/>
        <path id="Trazado_227416" data-name="Trazado 227416" d="M368.93,1420.112a.277.277,0,1,1,.277.277.279.279,0,0,1-.277-.277" transform="translate(-303.747 -1168.976)" fill="#776ba2"/>
        <path id="Trazado_227417" data-name="Trazado 227417" d="M193.774,127.824a.28.28,0,0,0-.1-.379c-.194-.117-.367.048-.464.207A55.181,55.181,0,0,0,190,134.89a71.777,71.777,0,0,0-1.931,10.383c-.167,1.259-.213,2.521-.29,3.786-.02.3-.045.593-.073.895a.281.281,0,0,0,.237.312.279.279,0,0,0,.312-.237c.029-.305.056-.616.075-.92.084-1.341.134-2.669.32-4.009a70.162,70.162,0,0,1,1.886-10.063,62.235,62.235,0,0,1,3.064-6.98c.055-.079.122-.149.174-.231" transform="translate(-154.54 -104.895)" fill="#965756"/>
        <path id="Trazado_227418" data-name="Trazado 227418" d="M206.874,415.074a22.618,22.618,0,0,1-.4-3.108c-.14-4.244.258-8.5.305-12.74.019-2.566-.068-5.132-.144-7.7a.277.277,0,0,0-.554,0,134.153,134.153,0,0,1-.078,13.7c-.09,3.968-.436,8.028.813,11.865a.277.277,0,1,0,.535-.147c-.177-.62-.352-1.242-.481-1.873" transform="translate(-169.517 -322.131)" fill="#965756"/>
        <path id="Trazado_227419" data-name="Trazado 227419" d="M374.57,64.415A30.649,30.649,0,0,1,384.8,71.034a.277.277,0,0,0,.392-.392c-.463-.461-.919-.929-1.411-1.361a25.147,25.147,0,0,0-3.546-2.563,39.009,39.009,0,0,0-10.783-4.638,31.54,31.54,0,0,0-7.758-.341c-.326.005-1.059.093-.73.566a.277.277,0,0,0,.321.05,14.029,14.029,0,0,1,1.938-.134,29.017,29.017,0,0,1,6.15.408,38.88,38.88,0,0,1,5.2,1.786" transform="translate(-297.116 -50.759)" fill="#965756"/>
        <path id="Trazado_227420" data-name="Trazado 227420" d="M425.113,135.605a24.263,24.263,0,0,0-9.35-10.3,35.865,35.865,0,0,0-5.144-3.241l.016.007h0c-2.984-1.528-5.8-3.393-8.69-5.083a14.16,14.16,0,0,0-2.31-1.275.277.277,0,0,0-.021.554,7.007,7.007,0,0,1,.913.518c3.2,1.87,6.309,3.912,9.59,5.645a24.5,24.5,0,0,1,3.129,1.793,59.514,59.514,0,0,1,6.414,4.751,22.516,22.516,0,0,1,5.734,8.858.277.277,0,1,0,.51-.215c-.252-.677-.5-1.353-.794-2.015" transform="translate(-328.801 -95.272)" fill="#965756"/>
        <path id="Trazado_227421" data-name="Trazado 227421" d="M542.177,141.738a.279.279,0,0,0,.506.066.311.311,0,0,0,.023-.239,14.792,14.792,0,0,0-.776-2.962,25.723,25.723,0,0,0-3.523-6.037.279.279,0,0,0-.471.232.536.536,0,0,0,.181.271,20.1,20.1,0,0,1,4.06,8.669" transform="translate(-442.889 -109.077)" fill="#965756"/>
        <path id="Trazado_227422" data-name="Trazado 227422" d="M566.592,368.437c-.194-4.523-1.549-8.9-2.965-13.167a33.676,33.676,0,0,1-1.716-7.573c-.427-3.076-.838-6.155-1.34-9.22a7.959,7.959,0,0,0-.314-1.308.277.277,0,0,0-.511.215,6.492,6.492,0,0,1,.2.766c.487,2.742.836,5.517,1.233,8.274a44.024,44.024,0,0,0,1.193,6.679,100.492,100.492,0,0,1,3.3,11.739,47.617,47.617,0,0,1,.449,7.454.277.277,0,0,0,.554,0c0-1.287-.016-2.574-.081-3.859" transform="translate(-460.833 -277.459)" fill="#965756"/>
        <path id="Trazado_227423" data-name="Trazado 227423" d="M214.1,167.8a.281.281,0,0,0-.276.262c-.843,1.862-1.884,3.632-2.869,5.421-.31.552-.618,1.1-.948,1.645a.282.282,0,0,0,.1.38c.433.179.548-.491.761-.745.744-1.3,1.464-2.609,2.182-3.921.429-.813.868-1.627,1.24-2.469.127-.219.134-.557-.188-.574" transform="translate(-172.873 -138.154)" fill="#965756"/>
        <path id="Trazado_227424" data-name="Trazado 227424" d="M429.042,248.087a.414.414,0,0,1-.208-.056,9.06,9.06,0,0,0-7.69-.623.416.416,0,1,1-.3-.777,9.9,9.9,0,0,1,8.4.681.416.416,0,0,1-.209.776" transform="translate(-346.272 -202.535)" fill="#5c3545"/>
        <path id="Trazado_227425" data-name="Trazado 227425" d="M272.9,248.4a.416.416,0,0,1-.209-.776,9.9,9.9,0,0,1,8.4-.681.416.416,0,1,1-.3.777,9.057,9.057,0,0,0-7.69.623.416.416,0,0,1-.208.056" transform="translate(-224.342 -202.791)" fill="#5c3545"/>
        <path id="Trazado_227426" data-name="Trazado 227426" d="M287.278,251.915a2.6,2.6,0,1,1-2.6-2.6,2.6,2.6,0,0,1,2.6,2.6" transform="translate(-232.237 -205.263)"/>
        <path id="Trazado_227427" data-name="Trazado 227427" d="M436.181,251.915a2.6,2.6,0,1,1-2.6-2.6,2.6,2.6,0,0,1,2.6,2.6" transform="translate(-354.831 -205.263)"/>
        <path id="Trazado_227428" data-name="Trazado 227428" d="M263.638,93.206l.007-.018.012-.032-.019.05" transform="translate(-217.058 -76.696)" fill="#f0b0a0"/>
        <path id="Trazado_227429" data-name="Trazado 227429" d="M249.406,138.713l0-.012c0-.012,0-.024.005-.036l-.008.047" transform="translate(-205.341 -114.166)" fill="#f0b0a0"/>
        <path id="Trazado_227430" data-name="Trazado 227430" d="M249.218,139.854c0-.008,0-.014,0-.02v0a.23.23,0,0,1,0,.024" transform="translate(-205.186 -115.124)" fill="#f0b0a0"/>
        <path id="Trazado_227431" data-name="Trazado 227431" d="M288.145,76.9h0" transform="translate(-237.235 -63.308)" fill="#f0b0a0"/>
        <path id="Trazado_227432" data-name="Trazado 227432" d="M251.131,130.974h0" transform="translate(-206.761 -107.832)" fill="#f0b0a0"/>
        <path id="Trazado_227433" data-name="Trazado 227433" d="M249.246,139.806h0v0" transform="translate(-205.208 -115.104)" fill="#f0b0a0"/>
        <path id="Trazado_227434" data-name="Trazado 227434" d="M249.244,139.806v0h0v0" transform="translate(-205.206 -115.104)" fill="#f0b0a0"/>
        <path id="Trazado_227435" data-name="Trazado 227435" d="M355.313,125.931l.008.007h0l-.01-.008" transform="translate(-292.536 -103.681)" fill="#f0b0a0"/>
        <path id="Trazado_227436" data-name="Trazado 227436" d="M253.868,580.408a13.159,13.159,0,0,1,.266,3.059,41.186,41.186,0,0,1-.873,4.026c-.3.839-.7,1.639-.932,2.5a.277.277,0,1,0,.534.147c.259-.983.764-1.876,1.043-2.852.224-.884.364-1.786.588-2.671a10.2,10.2,0,0,0-.125-4.536q-.243.173-.5.325" transform="translate(-207.738 -477.593)" fill="#e17e86"/>
        <path id="Trazado_227437" data-name="Trazado 227437" d="M440.585,493.094c-.2.115-.425.3-.353.517.058.173.272.224.45.263a3.41,3.41,0,0,1,2.529,2.492,3.686,3.686,0,0,0,.347,1.2,2.421,2.421,0,0,0,2.077.748l-.066-4.839c-.021-1.516-.132-1.857-.086-4.75a21.542,21.542,0,0,1-4.9,4.374" transform="translate(-362.441 -402.372)" fill="#e17e86"/>
      </g>
    </g>
    <path id="Trazado_226935" data-name="Trazado 226935" d="M-6273.388-2800.984h147.094s-36.117,5.54-72.89,5.54S-6273.388-2800.984-6273.388-2800.984Z" transform="translate(-1443 -694)" fill="#3f3f3f"/>
  </g>
</svg>
