<svg xmlns="http://www.w3.org/2000/svg" xmlns:xlink="http://www.w3.org/1999/xlink" width="400" height="263" viewBox="0 0 400 263">
  <defs>
    <clipPath id="clip-path">
      <rect id="Rectángulo_57889" data-name="Rectángulo 57889" width="246" height="182.061" fill="#fff"/>
    </clipPath>
    <clipPath id="clip-path-2">
      <rect id="Rectángulo_57893" data-name="Rectángulo 57893" width="183.165" height="155.278" fill="none"/>
    </clipPath>
    <clipPath id="clip-path-4">
      <rect id="Rectángulo_57890" data-name="Rectángulo 57890" width="12.529" height="14.673" fill="none"/>
    </clipPath>
    <clipPath id="clip-path-5">
      <rect id="Rectángulo_57891" data-name="Rectángulo 57891" width="4.816" height="10.264" fill="none"/>
    </clipPath>
  </defs>
  <g id="Grupo_181330" data-name="Grupo 181330" transform="translate(-600 -2389)">
    <rect id="Rectángulo_57876" data-name="Rectángulo 57876" width="400" height="263" transform="translate(600 2389)" fill="#ecf3fb"/>
    <rect id="Rectángulo_57882" data-name="Rectángulo 57882" width="400" height="73" transform="translate(600 2579)" fill="#fdf3e1"/>
    <text id="Calidad_del_servicio_o_producto" data-name="Calidad del servicio o producto" transform="translate(643 2609)" fill="#12263f" font-size="16" font-family="Roboto-Bold, Roboto" font-weight="700"><tspan x="0" y="17">Calidad del servicio o producto</tspan></text>
    <g id="Grupo_177952" data-name="Grupo 177952" transform="translate(677 2396.682)">
      <g id="Grupo_177953" data-name="Grupo 177953" clip-path="url(#clip-path)">
        <path id="Trazado_227962" data-name="Trazado 227962" d="M225.36,191.02c26.178-19.9,37.836-75.1-4.669-102.164-28.14-17.915-45.641-7.7-77.3-19.546C104.747,54.845,98.987,11.144,51.978,32.648,27.074,44.036,9.81,76.134,6.772,112.614c-2.977,35.725,9.685,60.238,35.559,77.011,60.761,2.585,121.644,2.117,183.028,1.395" transform="translate(-2.848 -12.029)" fill="#fff"/>
        <path id="Trazado_227963" data-name="Trazado 227963" d="M208.041,21.995c-3.954,15.875,10.729,31.591,26.2,38.106s33.208,5.744,49.779,2.635c7.15-1.339,14.5-3.225,20.056-7.783s8.776-12.474,5.731-18.868c-2.687-5.639-9.227-8.527-15.463-10.01s-12.858-2.089-18.413-5.209c-5.268-2.96-9-7.86-13.586-11.741-8.465-7.16-20.355-10.71-31.36-8.445S211.4,8.5,208.041,21.995" transform="translate(-93.071 0)" fill="#fff"/>
        <path id="Trazado_227964" data-name="Trazado 227964" d="M238.8,224.47c-1.064-16.4,6.113-33.382,18.2-43.095.375,16.487-6.73,33.173-18.2,43.095" transform="translate(-107.119 -81.397)" fill="#a2c7eb"/>
        <path id="Trazado_227965" data-name="Trazado 227965" d="M244.934,189.385a217.581,217.581,0,0,0-13.158,29.672c-4.448,12.441-7.949,25.659-15.567,36.089" transform="translate(-97.03 -84.992)" fill="none" stroke="#6f8bbf" stroke-linecap="round" stroke-miterlimit="10" stroke-width="1"/>
        <path id="Trazado_227966" data-name="Trazado 227966" d="M231.96,256.33c6.119-13.687,18.262-24.028,31.651-26.955-5.7,14.668-18.521,25.858-31.651,26.955" transform="translate(-104.098 -102.938)" fill="#a2c7eb"/>
        <path id="Trazado_227967" data-name="Trazado 227967" d="M260.707,234.845q-13.717,12.072-27.9,23.46" transform="translate(-104.48 -105.393)" fill="none" stroke="#6f8bbf" stroke-linecap="round" stroke-miterlimit="10" stroke-width="1"/>
        <path id="Trazado_227968" data-name="Trazado 227968" d="M225.41,286.842c8.175-12.21,23.256-18.582,35.736-15.1-9.178,12.055-24.292,18.444-35.736,15.1" transform="translate(-101.159 -121.527)" fill="#a2c7eb"/>
        <path id="Trazado_227969" data-name="Trazado 227969" d="M256.972,274.115a118.986,118.986,0,0,1-34.192,14.629" transform="translate(-99.978 -123.016)" fill="none" stroke="#6f8bbf" stroke-linecap="round" stroke-miterlimit="10" stroke-width="1"/>
        <path id="Trazado_227970" data-name="Trazado 227970" d="M224.131,238.824c2.613-13.748-1.306-29.072-10.032-39.209-3.577,13.51-.165,29.342,10.032,39.209" transform="translate(-95.465 -89.583)" fill="#a2c7eb"/>
        <path id="Trazado_227971" data-name="Trazado 227971" d="M216.85,205.975a148.819,148.819,0,0,0,9.52,36.474" transform="translate(-97.317 -92.437)" fill="none" stroke="#6f8bbf" stroke-linecap="round" stroke-miterlimit="10" stroke-width="1"/>
        <path id="Trazado_227972" data-name="Trazado 227972" d="M209.851,263.708c-1.113-14.133-8.357-27.407-18.951-34.733a60.4,60.4,0,0,0,5.76,21.261c3.633,7.535,8.968,12.314,13.191,13.472" transform="translate(-85.671 -102.759)" fill="#a2c7eb"/>
        <path id="Trazado_227973" data-name="Trazado 227973" d="M193.75,234.165a112.281,112.281,0,0,0,17.645,32.169" transform="translate(-86.95 -105.088)" fill="none" stroke="#6f8bbf" stroke-linecap="round" stroke-miterlimit="10" stroke-width="1"/>
        <path id="Trazado_227974" data-name="Trazado 227974" d="M373.71,260.627c5.782-15.043,19.083-27.247,33.751-30.962-6.427,14.839-19.546,26.8-33.751,30.962" transform="translate(-167.712 -103.068)" fill="#a2c7eb"/>
        <path id="Trazado_227975" data-name="Trazado 227975" d="M385.874,235.335A213.732,213.732,0,0,0,362.083,256.4c-9.029,9.272-17.545,19.613-28.553,25.8" transform="translate(-149.68 -105.613)" fill="none" stroke="#6f8bbf" stroke-linecap="round" stroke-miterlimit="10" stroke-width="1"/>
        <path id="Trazado_227976" data-name="Trazado 227976" d="M359.92,289.94c11.019-9.7,25.99-13.951,39.021-11.1-11.047,10.743-26.966,15.478-39.021,11.1" transform="translate(-161.524 -124.746)" fill="#a2c7eb"/>
        <path id="Trazado_227977" data-name="Trazado 227977" d="M395.3,282.005q-17.074,5.159-34.275,9.514" transform="translate(-162.017 -126.557)" fill="none" stroke="#6f8bbf" stroke-linecap="round" stroke-miterlimit="10" stroke-width="1"/>
        <path id="Trazado_227978" data-name="Trazado 227978" d="M345.26,311.93c12.232-7.541,28.173-7.061,37.775,1.136-13.053,6.99-29.033,6.51-37.775-1.136" transform="translate(-154.945 -137.586)" fill="#a2c7eb"/>
        <path id="Trazado_227979" data-name="Trazado 227979" d="M378.855,316.8a115.24,115.24,0,0,1-36.215-.921" transform="translate(-153.769 -141.757)" fill="none" stroke="#6f8bbf" stroke-linecap="round" stroke-miterlimit="10" stroke-width="1"/>
        <path id="Trazado_227980" data-name="Trazado 227980" d="M362.439,261.806c7.943-11.179,10.76-26.431,7.2-39.021-8.7,10.572-12.177,26.067-7.2,39.021" transform="translate(-161.629 -99.981)" fill="#a2c7eb"/>
        <path id="Trazado_227981" data-name="Trazado 227981" d="M370.882,229.1a146.563,146.563,0,0,0-6.532,36.381" transform="translate(-163.512 -102.817)" fill="none" stroke="#6f8bbf" stroke-linecap="round" stroke-miterlimit="10" stroke-width="1"/>
        <path id="Trazado_227982" data-name="Trazado 227982" d="M343.4,277.689c4.807-13.042,3.848-27.826-2.514-38.674a59.632,59.632,0,0,0-3.622,21.288c.116,8.191,2.872,14.629,6.135,17.386" transform="translate(-151.354 -107.264)" fill="#a2c7eb"/>
        <path id="Trazado_227983" data-name="Trazado 227983" d="M343.811,244.8a110.54,110.54,0,0,0,2.409,35.857" transform="translate(-154.069 -109.858)" fill="none" stroke="#6f8bbf" stroke-linecap="round" stroke-miterlimit="10" stroke-width="1"/>
        <path id="Trazado_227984" data-name="Trazado 227984" d="M42.636,208.214c-5.895-18.03-22.345-32.6-41.482-36.732,8.045,15.6,22.638,28.013,41.482,36.732" transform="translate(-0.518 -76.957)" fill="#a2c7eb"/>
        <path id="Trazado_227985" data-name="Trazado 227985" d="M43.116,237.585A54.527,54.527,0,0,0,0,233.289a60.888,60.888,0,0,0,43.116,4.3" transform="translate(0 -103.53)" fill="#a2c7eb"/>
        <path id="Trazado_227986" data-name="Trazado 227986" d="M52.21,249.858a57.041,57.041,0,0,0-39.9,9.391c12.851,4.672,28.27,1.642,39.9-9.391" transform="translate(-5.523 -111.894)" fill="#a2c7eb"/>
        <path id="Trazado_227987" data-name="Trazado 227987" d="M63.664,265.782c-13.819-.057-27.407,6.51-35.53,17.175a30.383,30.383,0,0,0,18.324-2.06c5.642-2.555,10.37-6.916,17.206-15.115" transform="translate(-12.626 -119.276)" fill="#a2c7eb"/>
        <path id="Trazado_227988" data-name="Trazado 227988" d="M79.352,291.192A45.351,45.351,0,0,0,41.38,302.237a30.51,30.51,0,0,0,18.432,1c6-1.582,11.4-5.1,19.54-12.046" transform="translate(-18.57 -130.396)" fill="#a2c7eb"/>
        <path id="Trazado_227989" data-name="Trazado 227989" d="M76.28,205.169a45.7,45.7,0,0,1-6.328-42.376c3.9,6.611,7.272,13.6,8.844,21.03s1.267,15.351-2.516,21.347" transform="translate(-30.21 -73.058)" fill="#a2c7eb"/>
        <path id="Trazado_227990" data-name="Trazado 227990" d="M93.121,231.691A41.8,41.8,0,0,1,104.7,195.816c1.07,13.331-3.008,26.912-11.581,35.875" transform="translate(-41.553 -87.878)" fill="#a2c7eb"/>
        <path id="Trazado_227991" data-name="Trazado 227991" d="M8.753,177.344c27.387,17.523,48.805,43.641,60.111,73.316" transform="translate(-3.928 -79.588)" fill="none" stroke="#6f8bbf" stroke-linecap="round" stroke-miterlimit="10" stroke-width="1"/>
        <path id="Trazado_227992" data-name="Trazado 227992" d="M73.64,174.393a217.3,217.3,0,0,1,6.044,41.187" transform="translate(-33.048 -78.263)" fill="none" stroke="#6f8bbf" stroke-linecap="round" stroke-miterlimit="10" stroke-width="1"/>
        <path id="Trazado_227993" data-name="Trazado 227993" d="M102.828,205.307a80.261,80.261,0,0,1-9.851,31.187" transform="translate(-41.726 -92.137)" fill="none" stroke="#6f8bbf" stroke-linecap="round" stroke-miterlimit="10" stroke-width="1"/>
        <path id="Trazado_227994" data-name="Trazado 227994" d="M10.458,235.972a221.72,221.72,0,0,0,38.082,3.872" transform="translate(-4.693 -105.899)" fill="none" stroke="#6f8bbf" stroke-linecap="round" stroke-miterlimit="10" stroke-width="1"/>
        <path id="Trazado_227995" data-name="Trazado 227995" d="M24.184,258.661a102.251,102.251,0,0,0,33.5-8.253" transform="translate(-10.853 -112.377)" fill="none" stroke="#6f8bbf" stroke-linecap="round" stroke-miterlimit="10" stroke-width="1"/>
        <path id="Trazado_227996" data-name="Trazado 227996" d="M36.767,280.389Q52.791,272.4,68.816,264.4" transform="translate(-16.5 -118.655)" fill="none" stroke="#6f8bbf" stroke-linecap="round" stroke-miterlimit="10" stroke-width="1"/>
        <path id="Trazado_227997" data-name="Trazado 227997" d="M49.372,302.055c13.948-2.691,18.092-5.9,33.572-10.346" transform="translate(-22.157 -130.912)" fill="none" stroke="#6f8bbf" stroke-linecap="round" stroke-miterlimit="10" stroke-width="1"/>
      </g>
    </g>
    <g id="Grupo_177963" data-name="Grupo 177963" transform="translate(711.835 2422)">
      <g id="Grupo_177962" data-name="Grupo 177962" clip-path="url(#clip-path-2)">
        <g id="Grupo_177961" data-name="Grupo 177961">
          <g id="Grupo_177960" data-name="Grupo 177960" clip-path="url(#clip-path-2)">
            <path id="Trazado_227998" data-name="Trazado 227998" d="M24.1,230.569v-41.9s-.466-11.291,5.471-14.55S60.53,172.6,60.53,172.6v57.968Z" transform="translate(-10.536 -75.292)" fill="#1c83ff"/>
            <path id="Trazado_227999" data-name="Trazado 227999" d="M98.414,103.241s-1.513,12.688-2.1,13.735l-.582,1.048L92.827,120s5.587,7.915,12.455,9.2,6.285-2.794,6.285-2.794l-1.048-2.212,1.4-12.105s-12.455-5.7-13.5-8.846" transform="translate(-40.602 -45.158)" fill="#ff9d8c"/>
            <path id="Trazado_228000" data-name="Trazado 228000" d="M86.413,133.358l4.54-1.978a21.363,21.363,0,0,0,9.661,7.565c6.751,2.794,6.868,1.164,7.217,0a4.423,4.423,0,0,0-.116-2.444l.5-4.075,2.7.9,9.372,75.809L96.19,210.3Z" transform="translate(-37.797 -57.466)" fill="#eeac3a"/>
            <path id="Trazado_228001" data-name="Trazado 228001" d="M125.931,133.379s1.629,3.764,3.143,12.61a300.654,300.654,0,0,1,3.259,33.989c.349,10.243.582,33.64.582,33.64H163.3c.349,0,2.445-11.524,2.445-11.524s-13.27-11.368-13.968-13.231c-.466-1.242-.233-24.25-2.212-34.842s-4.54-12.727-9.894-15.365a116.246,116.246,0,0,0-13.735-5.277" transform="translate(-55.082 -58.34)" fill="#223a7a"/>
            <path id="Trazado_228002" data-name="Trazado 228002" d="M153.4,214.39a.281.281,0,0,1-.281-.281c0-.833-.148-12.656-.291-24.091s-.291-23.262-.291-24.1a.281.281,0,1,1,.563,0c0,.832.148,12.656.29,24.091s.291,23.262.291,24.1a.281.281,0,0,1-.281.281" transform="translate(-66.718 -72.45)" fill="#8593b6"/>
            <path id="Trazado_228003" data-name="Trazado 228003" d="M46.3,247.239l-.233,16.18H81.454s1.513-13.735.931-15.016S46.3,247.239,46.3,247.239" transform="translate(-20.15 -108.141)" fill="#223a7a"/>
            <g id="Grupo_177956" data-name="Grupo 177956" transform="translate(58.785 59.456)" style="mix-blend-mode: multiply;isolation: isolate">
              <g id="Grupo_177955" data-name="Grupo 177955">
                <g id="Grupo_177954" data-name="Grupo 177954" clip-path="url(#clip-path-4)">
                  <path id="Trazado_228004" data-name="Trazado 228004" d="M111.235,117.695a18.519,18.519,0,0,0,4.95,2.659l.831-7.2s-9.355-4.285-12.53-7.474a19.506,19.506,0,0,0,6.748,12.014" transform="translate(-104.488 -105.681)" fill="#8e9bbb"/>
                </g>
              </g>
            </g>
            <path id="Trazado_228005" data-name="Trazado 228005" d="M125.624,59.214a25.182,25.182,0,0,1,2.91,9.312c.466,5.121,0,18.274-4.19,23.862s-12.92,3.958-16.878.582c-3.632-3.1-7.217-6.518-8.148-13.269s1.979-19.555,10.243-22.233,16.063,1.746,16.063,1.746" transform="translate(-43.368 -24.76)" fill="#ff9d8c"/>
            <path id="Trazado_228006" data-name="Trazado 228006" d="M141.055,255.365s-.411,0-1.035-.017c-.146-.006-.309,0-.478-.006-.6-.017-1.333-.034-2.07-.056l-.5-.017c-.731-.017-1.356.073-1.941.039h-.017c-.124-.006-.3.011-.45.017a1.094,1.094,0,0,1-.186.006,2.733,2.733,0,0,1-.771-.3,52.334,52.334,0,0,0-12.073-1.609c-5.2.023-9.862.377-10.622-.259s-1.226-7.179,3.212-7.606l5.457,2.07s12.462-1.48,17.03,1.89,4.439,5.851,4.439,5.851" transform="translate(-48.298 -107.405)" fill="#ff9d8c"/>
            <path id="Trazado_228007" data-name="Trazado 228007" d="M148.6,260.016c-.124-.006-.3.011-.45.017a5.286,5.286,0,0,0-.478-.641c-1.406-1.435-4.8-2.363-6.037-2.661a.211.211,0,0,1-.158-.253.216.216,0,0,1,.259-.158c1.795.433,5.6,1.542,6.684,3.359.034.051.124.225.18.338" transform="translate(-61.879 -112.112)" fill="#223a7a"/>
            <path id="Trazado_228008" data-name="Trazado 228008" d="M152.3,258.892c-.163,0-.332-.008-.5-.017-1.535-2.8-4.048-3.605-7.153-4.6l-.184-.061a.212.212,0,1,1,.133-.4l.179.061c3.283,1.053,5.924,1.9,7.52,5.023" transform="translate(-63.128 -111.011)" fill="#223a7a"/>
            <path id="Trazado_228009" data-name="Trazado 228009" d="M156.231,257.969c-.146,0-.309,0-.478-.006a12.268,12.268,0,0,0-8.092-6,.211.211,0,0,1-.174-.246.218.218,0,0,1,.246-.168,12.567,12.567,0,0,1,8.5,6.42" transform="translate(-64.509 -110.026)" fill="#223a7a"/>
            <path id="Trazado_228010" data-name="Trazado 228010" d="M97.889,67.339a10.9,10.9,0,0,0,4.365-4.656,13.253,13.253,0,0,0,1.571-6.518,20.119,20.119,0,0,1,8.148.931c4.889,1.455,10.709,3.434,15.6.64s4.888-7.275,2.5-9.137c-2.672-2.086-7.974-.815-7.974-.815s2.037-1.979.932-3.143-5.122.349-5.122.349-4.889-3.9-14.143-3.434S90.09,48.482,89.566,55.7a39.954,39.954,0,0,0,2.1,14.434Z" transform="translate(-39.146 -18.16)" fill="#223a7a"/>
            <g id="Grupo_177959" data-name="Grupo 177959" transform="translate(75.124 50.787)" style="mix-blend-mode: multiply;isolation: isolate">
              <g id="Grupo_177958" data-name="Grupo 177958">
                <g id="Grupo_177957" data-name="Grupo 177957" clip-path="url(#clip-path-5)">
                  <path id="Trazado_228011" data-name="Trazado 228011" d="M135.923,90.413a14.892,14.892,0,0,0-.644,4.165c-.1,1.068-.3,2.312.679,3.032.467.344,2.676,1.273,1.54,2.025a2.992,2.992,0,0,1-1.652.186c-.34-.016-.683-.03-1.022-.056-.365-.027-.723-.137-1.088-.139a.213.213,0,0,0-.107.393,4.59,4.59,0,0,0,2.135.508,3.222,3.222,0,0,0,1.767-.311,1.264,1.264,0,0,0,.807-.905,1.446,1.446,0,0,0-.7-1.246c-.44-.326-.98-.478-1.424-.8-.616-.441-.565-1.184-.522-1.872.1-1.655.484-3.281.632-4.928.023-.252-.326-.252-.406-.055" transform="translate(-133.53 -90.272)" fill="#8e9bbb"/>
                </g>
              </g>
            </g>
            <path id="Trazado_228012" data-name="Trazado 228012" d="M144.22,95.834c-.174.981-.887,1.675-1.594,1.55s-1.139-1.022-.965-2,.887-1.675,1.594-1.55,1.139,1.022.965,2" transform="translate(-61.945 -41.035)" fill="#223a7a"/>
            <path id="Trazado_228013" data-name="Trazado 228013" d="M128.239,94.362c-.158,1.059-.9,1.825-1.666,1.711s-1.253-1.064-1.1-2.122.9-1.825,1.666-1.711,1.253,1.063,1.1,2.122" transform="translate(-54.871 -40.341)" fill="#223a7a"/>
            <path id="Trazado_228014" data-name="Trazado 228014" d="M142.245,89.128c.544.092,1.093,0,1.642.037.132.01.262.029.393.042.093.009-.174-.028-.044-.006l.084.014c.069.012.137.026.205.043.116.028.23.072.347.1a1.363,1.363,0,0,0,.331.043l.179-.024-.113.02a1.089,1.089,0,0,0,.223-.024.605.605,0,0,0,.418-.735.691.691,0,0,0-.119-.237q-.035-.046-.071-.091l.066.075c-.023-.033-.047-.064-.073-.1a.351.351,0,0,0-.124-.124c-.043-.033-.087-.069-.132-.1a1.583,1.583,0,0,0-.5-.2,4.164,4.164,0,0,0-1-.128,6.949,6.949,0,0,0-.99.079,1.905,1.905,0,0,0-.848.314.563.563,0,0,0-.263.547.541.541,0,0,0,.394.457" transform="translate(-62.043 -38.373)" fill="#223a7a"/>
            <path id="Trazado_228015" data-name="Trazado 228015" d="M127.654,86.95a2.285,2.285,0,0,0-.227-.118c-.066-.03-.246-.125-.11-.05-.05-.028-.1-.055-.149-.08a3.438,3.438,0,0,0-.7-.252,4.678,4.678,0,0,0-1.635-.112,3.8,3.8,0,0,0-1.615.505,1.006,1.006,0,0,0-.2.144c-.04.051-.079.1-.118.153l.033-.051a.573.573,0,0,0-.244.474.472.472,0,0,0,.252.419.709.709,0,0,0,.565,0H123.2a1.068,1.068,0,0,0,.439,0c.006,0,.156-.039.057-.018s.159-.019.186-.023.207-.022.022,0l.1-.012c.088-.011.176-.021.263-.029.384-.03.767-.048,1.152-.06.357-.012.721-.015,1.078,0,.153.007.305.012.459.016.087,0,.049.016-.009,0,.031.01.064.016.1.024.064.018.126.038.188.062a.535.535,0,0,0,.637-.313.542.542,0,0,0-.221-.675" transform="translate(-53.661 -37.753)" fill="#223a7a"/>
            <path id="Trazado_228016" data-name="Trazado 228016" d="M132.869,114.19a5.264,5.264,0,0,1,2.63-2.367c-.976-.1-5.58-.525-6.742.134-1.3.739.24,3.706,2.932,3.856a3.679,3.679,0,0,0,.785-.046,3.877,3.877,0,0,1,.395-1.577" transform="translate(-56.113 -48.812)" fill="#223a7a"/>
            <path id="Trazado_228017" data-name="Trazado 228017" d="M98.62,104.741s.466,1.8,3.143,3.9a31.04,31.04,0,0,0,6.557,3.628l.311-1.358s-4.016-1.746-5.878-3.667a7.606,7.606,0,0,1-2.1-2.968Z" transform="translate(-43.136 -45.61)" fill="#dee1eb"/>
            <path id="Trazado_228018" data-name="Trazado 228018" d="M115.811,114.28a3.366,3.366,0,0,1,3.507,2.706c.15,1.1-.885,2.338-3.307,1.252-3.008-1.349-2.354-3.858-.2-3.958" transform="translate(-49.851 -49.984)" fill="#223a7a"/>
            <path id="Trazado_228019" data-name="Trazado 228019" d="M97.864,64.259s.931-6.689,5.413-11.232c8.555-8.672,15.83-8.148,15.83-8.148s-.059-1.223-2.794-2.154c-2.568-.874-3.724-.407-3.724-.407a21.551,21.551,0,0,0-12.979,7.159,27.873,27.873,0,0,0-6.577,14.957Z" transform="translate(-40.693 -18.455)" fill="#dee1eb"/>
            <path id="Trazado_228020" data-name="Trazado 228020" d="M93.5,79.863c-5.6-.95-8.73,3.435-8.963,7.857s2.981,7.786,7.275,7.45c9.661-.757,8.555-14.143,1.688-15.307" transform="translate(-36.973 -34.875)" fill="#c3cae1"/>
            <path id="Trazado_228021" data-name="Trazado 228021" d="M92.43,92.757A3.82,3.82,0,0,1,88.985,90.7a4.256,4.256,0,0,1,.164-4.4.211.211,0,1,1,.349.237,3.831,3.831,0,0,0-.142,3.959,3.391,3.391,0,0,0,3.182,1.831,3.694,3.694,0,0,0,3.056-1.65,4.663,4.663,0,0,0,.461-4.133,3.146,3.146,0,0,0-3.139-2.065.211.211,0,0,1-.056-.418,3.528,3.528,0,0,1,3.59,2.333,5.1,5.1,0,0,1-.506,4.518,4.105,4.105,0,0,1-3.4,1.837l-.119,0" transform="translate(-38.689 -36.761)" fill="#818fb3"/>
            <path id="Trazado_228022" data-name="Trazado 228022" d="M63.568,132s-16.994,4.19-22.931,10.941-8.73,40.042-8.846,46.211,4.19,8.73,6.751,10.476,13.852,4.888,22.931,5.354,17.693,0,17.693,0a12.092,12.092,0,0,1,1.368-4.888c1.3-2.7,2.939-3.26,2.939-3.26l-7.8-2.793s-1.365-24.47-3.492-36.317A105.266,105.266,0,0,0,63.568,132" transform="translate(-13.904 -57.737)" fill="#223a7a"/>
            <path id="Trazado_228023" data-name="Trazado 228023" d="M134.6,191.225a.282.282,0,0,1-.257-.395c1.592-3.593,3.242-10.646,4.171-15.594l.077-.4c.281-1.455.631-3.266-.067-4.515-.356-.637-1.161-2.02-1.934-3.35-.8-1.381-1.561-2.684-1.771-3.073-.41-.76.88-2.79,2.749-5.575.5-.752.941-1.4,1.195-1.842.666-1.152.223-2.208-.29-3.43l-.175-.421c-.465-1.142-.994-2.286-1.5-3.393-.209-.452-.419-.9-.624-1.36q-.409-.9-.825-1.833a107.267,107.267,0,0,0-5.524-11.121.281.281,0,1,1,.483-.287,107.7,107.7,0,0,1,5.553,11.178q.417.928.824,1.831c.206.453.415.9.623,1.356.514,1.112,1.045,2.263,1.516,3.417l.173.416c.523,1.246,1.064,2.535.259,3.929-.264.457-.7,1.114-1.215,1.874-.974,1.452-3,4.474-2.721,4.994.206.381.962,1.681,1.762,3.058.775,1.333,1.582,2.719,1.939,3.358.8,1.429.426,3.351.128,4.9l-.077.4c-.338,1.8-2.131,11.028-4.209,15.717a.281.281,0,0,1-.257.168" transform="translate(-56.763 -58.83)" fill="#8593b6"/>
            <path id="Trazado_228024" data-name="Trazado 228024" d="M97.681,191.491a.278.278,0,0,1-.2-.083c-1.323-1.333-7.7-12.378-8.176-14.454-.261-1.137.393-4.021,1.023-6.81.488-2.161.995-4.4.851-5-.215-.9-1.846-2.237-3.423-3.525-1.906-1.556-3.876-3.166-4.257-4.616-.434-1.648-.063-11.964.182-18.79.088-2.455.157-4.393.157-5.085a.281.281,0,0,1,.281-.281h0a.281.281,0,0,1,.281.281c0,.7-.07,2.645-.158,5.106-.229,6.38-.614,17.059-.2,18.627.335,1.273,2.32,2.893,4.07,4.324,1.726,1.41,3.355,2.742,3.615,3.831.174.731-.3,2.828-.85,5.254-.588,2.6-1.256,5.548-1.024,6.561.465,2.037,6.728,12.875,8.027,14.183a.282.282,0,0,1-.2.48" transform="translate(-36.435 -58.106)" fill="#8593b6"/>
            <path id="Trazado_228025" data-name="Trazado 228025" d="M67.988,202.516l-.039,0a.282.282,0,0,1-.24-.318c.206-1.463,3.436-30.606,3.584-32.838a.278.278,0,0,1,.3-.262.281.281,0,0,1,.262.3c-.149,2.236-3.381,31.414-3.588,32.879a.282.282,0,0,1-.278.242" transform="translate(-29.615 -73.962)" fill="#8593b6"/>
            <path id="Trazado_228026" data-name="Trazado 228026" d="M86.536,234.168a.294.294,0,0,1-.106-.02c-.715-.29-3.877-1.356-7.879-2.706-8.078-2.724-19.141-6.455-21.245-7.548a.281.281,0,1,1,.259-.5c2.065,1.072,13.56,4.949,21.166,7.514,4.011,1.353,7.18,2.421,7.911,2.717a.282.282,0,0,1-.106.542" transform="translate(-24.999 -97.698)" fill="#8593b6"/>
            <path id="Trazado_228027" data-name="Trazado 228027" d="M77.945,258.894c-7.11,0-20.892-1.281-31.362-4.984a.282.282,0,0,1,.187-.531c13.227,4.679,31.73,5.478,35.172,4.7a.282.282,0,0,1,.123.55,22.458,22.458,0,0,1-4.12.261" transform="translate(-20.294 -110.821)" fill="#8593b6"/>
            <path id="Trazado_228028" data-name="Trazado 228028" d="M257.332,189.862,235.08,233.939l-64.873.465,20.021-45.163Z" transform="translate(-74.448 -82.774)" fill="#afafaf"/>
            <path id="Trazado_228029" data-name="Trazado 228029" d="M93.677,233.347l.012-3.528h42l19.322-42.369H222.17l1.688,1.629H158.247l-20.079,44.232s-44.491-.08-44.491.036" transform="translate(-40.974 -81.99)" fill="#325f73"/>
            <path id="Trazado_228030" data-name="Trazado 228030" d="M253.349,230.331c-.733,2.2-4.711,3.9-8.885,3.792s-6.963-1.971-6.231-4.17,4.711-3.9,8.885-3.792,6.964,1.971,6.231,4.17" transform="translate(-104.152 -98.921)" fill="#dadee8"/>
            <path id="Trazado_228031" data-name="Trazado 228031" d="M172.539,234.64a.286.286,0,0,1-.116-.025.281.281,0,0,1-.14-.372l20.153-44.4H258.23a.281.281,0,1,1,0,.563H192.8l-20,44.067a.281.281,0,0,1-.256.165" transform="translate(-75.346 -83.038)" fill="#e9e5e5"/>
            <path id="Trazado_228032" data-name="Trazado 228032" d="M30.3,94.074H3.053A3.053,3.053,0,0,1,0,91.022v-13.6a3.053,3.053,0,0,1,3.053-3.053H30.3a3.053,3.053,0,0,1,3.053,3.053v13.6A3.052,3.052,0,0,1,30.3,94.074" transform="translate(0 -32.529)" fill="#43a99b"/>
            <path id="Trazado_228033" data-name="Trazado 228033" d="M65.121,88.525,54.889,84.208v8.635Z" transform="translate(-24.009 -36.832)" fill="#43a99b"/>
            <path id="Trazado_228034" data-name="Trazado 228034" d="M18.569,90.417a1.885,1.885,0,1,1-1.885-1.885,1.885,1.885,0,0,1,1.885,1.885" transform="translate(-6.474 -38.724)" fill="#fff"/>
            <path id="Trazado_228035" data-name="Trazado 228035" d="M30.057,90.417a1.885,1.885,0,1,1-1.885-1.885,1.885,1.885,0,0,1,1.885,1.885" transform="translate(-11.498 -38.724)" fill="#fff"/>
            <path id="Trazado_228036" data-name="Trazado 228036" d="M41.545,90.417a1.885,1.885,0,1,1-1.885-1.885,1.885,1.885,0,0,1,1.885,1.885" transform="translate(-16.523 -38.724)" fill="#fff"/>
            <path id="Trazado_228037" data-name="Trazado 228037" d="M245.795,0H182.9a7.314,7.314,0,0,0-7.314,7.314V37.151a7.314,7.314,0,0,0,7.314,7.314h5.637a25.832,25.832,0,0,1-2.487,11.873,31.606,31.606,0,0,0,13.636-11.873h46.108a7.314,7.314,0,0,0,7.314-7.314V7.314A7.314,7.314,0,0,0,245.795,0" transform="translate(-76.801)" fill="#8c5be1"/>
            <path id="Trazado_228038" data-name="Trazado 228038" d="M227.229,22.863h-31.2a1.552,1.552,0,1,1,0-3.1h31.2a1.552,1.552,0,1,1,0,3.1" transform="translate(-85.066 -8.643)" fill="#fff"/>
            <path id="Trazado_228039" data-name="Trazado 228039" d="M249.6,39.867H195.433a.951.951,0,0,1,0-1.9H249.6a.951.951,0,1,1,0,1.9" transform="translate(-85.067 -16.606)" fill="#d2e6ff"/>
            <path id="Trazado_228040" data-name="Trazado 228040" d="M249.6,49.246H195.433a.951.951,0,0,1,0-1.9H249.6a.951.951,0,1,1,0,1.9" transform="translate(-85.067 -20.709)" fill="#d2e6ff"/>
            <path id="Trazado_228041" data-name="Trazado 228041" d="M237.783,59.246h-42.35a.951.951,0,0,1,0-1.9h42.35a.951.951,0,0,1,0,1.9" transform="translate(-85.066 -25.083)" fill="#d2e6ff"/>
            <path id="Trazado_228042" data-name="Trazado 228042" d="M278.916,22.863H264.035a1.552,1.552,0,0,1,0-3.1h14.881a1.552,1.552,0,1,1,0,3.1" transform="translate(-114.81 -8.643)" fill="#fff"/>
          </g>
        </g>
      </g>
    </g>
    <rect id="Rectángulo_57894" data-name="Rectángulo 57894" width="217.336" height="5.452" transform="translate(692.214 2573.291)" fill="#0b2d50"/>
    <g id="good-review" transform="translate(836 2423.055)">
      <path id="Trazado_228048" data-name="Trazado 228048" d="M139.909,55.565a23.806,23.806,0,0,0-11.978,3.2l.373,3.626,3.145,2.467a16.9,16.9,0,0,1,16.921,0l2.593-2.071.925-4.022A23.8,23.8,0,0,0,139.909,55.565Z" transform="translate(-115.966 0)" fill="#ffe07d"/>
      <path id="Trazado_228049" data-name="Trazado 228049" d="M7.011,93.585A23.784,23.784,0,0,0,0,110.157a.357.357,0,0,0,.358.361H6.665a.356.356,0,0,0,.357-.347,16.937,16.937,0,0,1,8.46-14.307l-3.518-6.093a24.084,24.084,0,0,0-4.954,3.814Z" transform="translate(0 -31.007)" fill="#da387d"/>
      <circle id="Elipse_6292" data-name="Elipse 6292" cx="13.547" cy="13.547" r="13.547" transform="translate(10.396 65.964)" fill="#b3e59f"/>
      <path id="Trazado_228050" data-name="Trazado 228050" d="M183.462,173.327a13.551,13.551,0,0,1-11.95,23.937,13.549,13.549,0,1,0,11.95-23.937Z" transform="translate(-155.471 -106.748)" fill="#95d6a4"/>
      <path id="Trazado_228051" data-name="Trazado 228051" d="M181.624,335.178a1.392,1.392,0,0,0-.987.409,8.5,8.5,0,0,1-12.025,0,1.4,1.4,0,0,0-1.975,1.975,11.3,11.3,0,0,0,15.975,0,1.4,1.4,0,0,0-.987-2.384Z" transform="translate(-150.681 -253.461)" fill="#6ec186"/>
      <path id="Trazado_228052" data-name="Trazado 228052" d="M342.421,354.477a1.387,1.387,0,0,0,.266-.522Q342.56,354.219,342.421,354.477Z" transform="translate(-310.395 -270.482)" fill="#63af7d"/>
      <path id="Trazado_228053" data-name="Trazado 228053" d="M160.537,250.3a1.4,1.4,0,0,1-1.4-1.4,1.015,1.015,0,1,0-2.031,0,1.4,1.4,0,0,1-2.793,0,3.808,3.808,0,0,1,7.616,0A1.4,1.4,0,0,1,160.537,250.3Z" transform="translate(-139.884 -171.801)" fill="#6ec186"/>
      <path id="Trazado_228054" data-name="Trazado 228054" d="M277.649,250.3a1.4,1.4,0,0,0,1.4-1.4,1.015,1.015,0,1,1,2.031,0,1.4,1.4,0,1,0,2.793,0,3.808,3.808,0,0,0-7.616,0A1.4,1.4,0,0,0,277.649,250.3Z" transform="translate(-250.416 -171.801)" fill="#6ec186"/>
      <path id="Trazado_228055" data-name="Trazado 228055" d="M361.94,110.156a23.854,23.854,0,0,0-2.161-9.616l-1.579-1.8-.676-2.1a24.3,24.3,0,0,0-7.55-6.877l-3.518,6.093a16.937,16.937,0,0,1,8.46,14.307.356.356,0,0,0,.357.347h6.307A.357.357,0,0,0,361.94,110.156Z" transform="translate(-314.053 -31.006)" fill="#b3e59f"/>
      <path id="Trazado_228056" data-name="Trazado 228056" d="M448.942,146.574l2.8,4.851a.339.339,0,0,1-.306.509l-5.277-.187a.339.339,0,0,1-.288-.5l2.477-4.664A.339.339,0,0,1,448.942,146.574Z" transform="translate(-404.133 -82.343)" fill="#8c5be1"/>
    </g>
  </g>
</svg>
