<svg xmlns="http://www.w3.org/2000/svg" xmlns:xlink="http://www.w3.org/1999/xlink" width="354.205" height="314.139" viewBox="0 0 354.205 314.139">
  <defs>
    <clipPath id="clip-path">
      <rect id="Rectángulo_58253" data-name="Rectángulo 58253" width="344.205" height="314.139" fill="none"/>
    </clipPath>
    <clipPath id="clip-path-2">
      <path id="Trazado_228990" data-name="Trazado 228990" d="M316.269,355.994c-7.4,0-12.807-.343-15.349-.553a1.053,1.053,0,0,0-.038.284,1.086,1.086,0,0,0,1.084,1.088h22.322a2.4,2.4,0,0,0,2.331-1.854c-1.248.494-4.04,1.035-10.351,1.035" transform="translate(-300.882 -354.959)" fill="none"/>
    </clipPath>
    <linearGradient id="linear-gradient" x1="-9.733" y1="4.025" x2="-9.7" y2="4.025" gradientUnits="objectBoundingBox">
      <stop offset="0" stop-color="#09005d"/>
      <stop offset="1" stop-color="#1a0f91"/>
    </linearGradient>
    <clipPath id="clip-path-4">
      <path id="Trazado_228993" data-name="Trazado 228993" d="M321.139,344.582l.585,4.512a9,9,0,0,0,6.379-.3l-1.532-5.209Z" transform="translate(-321.139 -343.581)" fill="none"/>
    </clipPath>
    <linearGradient id="linear-gradient-2" x1="-19.819" y1="1.719" x2="-19.756" y2="1.719" gradientUnits="objectBoundingBox">
      <stop offset="0" stop-color="#a22b25"/>
      <stop offset="1" stop-color="#c0423c"/>
    </linearGradient>
    <clipPath id="clip-path-5">
      <path id="Trazado_228995" data-name="Trazado 228995" d="M260.1,340.932a1.078,1.078,0,0,0,.173,1.516l17.4,13.982a2.4,2.4,0,0,0,2.975.022c-1.279-.4-3.8-1.722-8.715-5.68-5.769-4.634-9.766-8.291-11.619-10.043a1.05,1.05,0,0,0-.212.2" transform="translate(-259.867 -340.728)" fill="none"/>
    </clipPath>
    <linearGradient id="linear-gradient-3" x1="-7.695" y1="1.025" x2="-7.665" y2="1.025" xlink:href="#linear-gradient"/>
    <clipPath id="clip-path-7">
      <path id="Trazado_228999" data-name="Trazado 228999" d="M281.378,348.476c.77,2.4,4.557,3.218,4.557,3.218s3.4-6.862,3.753-7.183l-4.9-2.229Z" transform="translate(-281.378 -342.282)" fill="none"/>
    </clipPath>
    <linearGradient id="linear-gradient-4" x1="-24.006" y1="1.72" x2="-23.921" y2="1.72" xlink:href="#linear-gradient-2"/>
    <clipPath id="clip-path-9">
      <path id="Trazado_229002" data-name="Trazado 229002" d="M331.633,200.727c5.19,2.624,7.462,11.577,7.462,11.577l10.082-5.626c-4.879-4.1-9.662-12.556-9.662-12.556Z" transform="translate(-331.633 -194.123)" fill="#ffb980"/>
    </clipPath>
    <clipPath id="clip-path-11">
      <path id="Trazado_229006" data-name="Trazado 229006" d="M288.19,256.45l-6.5,4.089,17.949-.029,1.252-2.094-2.49-.664L290.847,256a3.55,3.55,0,0,0-.789-.09,3.5,3.5,0,0,0-1.867.539" transform="translate(-281.69 -255.911)" fill="#ffb980"/>
    </clipPath>
    <clipPath id="clip-path-12">
      <path id="Trazado_229008" data-name="Trazado 229008" d="M325.519,191.433c-.807,4.272-2.1,6.943,2.758,8.464a10.672,10.672,0,0,0,12.215-4.392s4.429-6.136,3.986-8.946-13.5-7.127-13.5-7.127-4.65,7.729-5.457,12" transform="translate(-324.736 -179.433)" fill="none"/>
    </clipPath>
    <clipPath id="clip-path-14">
      <path id="Trazado_229011" data-name="Trazado 229011" d="M340.846,194.182l.3,2.376c1.914.051,6.06-3.877,3.906-5.656a1.479,1.479,0,0,0-.953-.379c-1.768,0-3.252,3.659-3.252,3.659" transform="translate(-340.846 -190.523)" fill="#ffb980"/>
    </clipPath>
    <clipPath id="clip-path-15">
      <path id="Trazado_229012" data-name="Trazado 229012" d="M265.461,263.047a1.713,1.713,0,0,0,1.713,1.713l38.344.039h.088l0,0a1.713,1.713,0,0,0-.084-3.424l-38.344-.038a1.714,1.714,0,0,0-1.713,1.713" transform="translate(-265.461 -261.334)" fill="none"/>
    </clipPath>
    <linearGradient id="linear-gradient-5" x1="-5.482" y1="25.55" x2="-5.461" y2="25.55" gradientUnits="objectBoundingBox">
      <stop offset="0" stop-color="#fff"/>
      <stop offset="1" stop-color="#d3d3d3"/>
    </linearGradient>
  </defs>
  <g id="Grupo_178623" data-name="Grupo 178623" transform="translate(10)">
    <g id="Grupo_178592" data-name="Grupo 178592" transform="translate(-10)">
      <g id="Grupo_178591" data-name="Grupo 178591" clip-path="url(#clip-path)">
        <path id="Trazado_228849" data-name="Trazado 228849" d="M13.225,256.271C23.239,246.6,43.678,264.91,55.558,277.4c5.461,5.735,9.113,10.246,9.113,10.246,1.827,1.751,3.388,3.338,4.713,4.774.723.783,1.359,1.511,1.926,2.194l-16.751,6.632c-5.231-3.124-10.875-6.563-14.556-9.009C24.329,281.81,3.761,265.408,13.225,256.271" transform="translate(-1.48 -34.652)" fill="#bed0d8"/>
        <path id="Trazado_228850" data-name="Trazado 228850" d="M32.084,271.114a.8.8,0,0,1,1.129-.138c1.091.853,22.781,17.826,34.56,28.536l-1.673.662c-12.006-10.814-33.615-27.725-33.878-27.931a.8.8,0,0,1-.138-1.129" transform="translate(-4.361 -37.009)" fill="#8eaab3"/>
        <path id="Trazado_228851" data-name="Trazado 228851" d="M60.713,261.733c.938,2.349,1.7,4.439,2.315,6.3.471,1.43.838,2.7,1.114,3.823L50.892,277.1c-4.22-5.987-10.974-15.682-14.535-21.392-9.956-15.978-21.893-39.422-9.5-43.824,13.118-4.657,24.149,20.465,29.8,36.752,2.6,7.481,4.057,13.1,4.057,13.1" transform="translate(-2.947 -28.879)" fill="#d4dee2"/>
        <path id="Trazado_228852" data-name="Trazado 228852" d="M59.236,277.608c-5.468-13.756-20.913-43.413-21.084-43.741a.8.8,0,0,1,1.427-.744c.7,1.337,15.7,30.138,21.154,43.893Z" transform="translate(-5.202 -31.8)" fill="#bed0d8"/>
        <path id="Trazado_228853" data-name="Trazado 228853" d="M219.674,89.048s59.167-18.876,51.878-41.106c-8.038-24.516-41.146,12.528-51.878,41.106" transform="translate(-30.021 -5.459)" fill="#bed0d8"/>
        <path id="Trazado_228854" data-name="Trazado 228854" d="M212.848,98.153c13.339-15.316,35.12-33.422,35.392-33.648a.492.492,0,1,1,.629.758c-.274.225-22.2,18.456-35.443,33.718Z" transform="translate(-29.088 -8.8)" fill="#8eaab3"/>
        <path id="Trazado_228855" data-name="Trazado 228855" d="M226.1,66.13S224.387-6.364,253.551.451c22.29,5.209,2.2,46.1-27.447,65.678" transform="translate(-30.897 0)" fill="#d4dee2"/>
        <path id="Trazado_228856" data-name="Trazado 228856" d="M212.272,96.224c11.3-25.27,29.991-66.252,30.213-66.74a.492.492,0,0,1,.9.408c-.224.492-19.187,42.059-30.452,67.274Z" transform="translate(-29.01 -3.99)" fill="#bed0d8"/>
        <path id="Trazado_228857" data-name="Trazado 228857" d="M223.543,290.126a371.421,371.421,0,0,0,30.13-50.225c8.311-17.288,11.38-31.007,9.119-40.775a1.2,1.2,0,0,0-2.346.542c3.953,17.076-9.8,49.314-39.887,90.42Z" transform="translate(-30.142 -27.086)" fill="#bed0d8"/>
        <path id="Trazado_228858" data-name="Trazado 228858" d="M266.008,226.237s8.56,5.285,17.264-10.127c0,0-15.4-4.375-17.264,10.127" transform="translate(-36.353 -29.45)" fill="#d4dee2"/>
        <path id="Trazado_228859" data-name="Trazado 228859" d="M259.691,234.592s5.754-8.252-9.151-17.8c0,0-5.225,15.129,9.151,17.8" transform="translate(-34.113 -29.627)" fill="#d4dee2"/>
        <path id="Trazado_228860" data-name="Trazado 228860" d="M267.832,205.151s8.176-5.862-2.692-19.833c0,0-9.97,12.522,2.692,19.833" transform="translate(-35.725 -25.326)" fill="#d4dee2"/>
        <path id="Trazado_228861" data-name="Trazado 228861" d="M252.374,255.664s6.267,7.869,19.672-3.69c0,0-13.01-9.325-19.672,3.69" transform="translate(-34.49 -33.993)" fill="#d4dee2"/>
        <path id="Trazado_228862" data-name="Trazado 228862" d="M244.817,262.656s7.094-7.133-5.935-19.115c0,0-7.762,14,5.935,19.115" transform="translate(-32.347 -33.283)" fill="#d4dee2"/>
        <path id="Trazado_228863" data-name="Trazado 228863" d="M238.729,277.685s6.117,7.987,19.738-3.316c0,0-12.83-9.57-19.738,3.316" transform="translate(-32.625 -37.029)" fill="#d4dee2"/>
        <path id="Trazado_228864" data-name="Trazado 228864" d="M231.892,285.838s-9.934-1.592-6.453-18.947c0,0,14.514,6.749,6.453,18.947" transform="translate(-30.708 -36.474)" fill="#d4dee2"/>
        <path id="Trazado_228865" data-name="Trazado 228865" d="M236.728,348.9c0,6.278-44.473,11.368-99.333,11.368s-99.333-5.09-99.333-11.368,44.473-11.368,99.333-11.368,99.333,5.09,99.333,11.368" transform="translate(-5.202 -46.128)" fill="#bed0d8"/>
        <path id="Trazado_228866" data-name="Trazado 228866" d="M212.834,31.157V288.093a14.579,14.579,0,0,1-14.582,14.581H70.3a14.579,14.579,0,0,1-14.582-14.581V31.157A14.579,14.579,0,0,1,70.3,16.576H198.252a14.571,14.571,0,0,1,14.582,14.581" transform="translate(-7.615 -2.265)" fill="#1c1a12"/>
        <path id="Trazado_228867" data-name="Trazado 228867" d="M54.485,130.908H53.451A3.907,3.907,0,0,1,49.544,127V100.871a3.907,3.907,0,0,1,3.907-3.907h1.034a.393.393,0,0,1,.393.393v33.158a.393.393,0,0,1-.393.393" transform="translate(-6.771 -13.251)" fill="#595959"/>
        <path id="Trazado_228868" data-name="Trazado 228868" d="M237.966,130.908H239A3.907,3.907,0,0,0,242.907,127V100.871A3.907,3.907,0,0,0,239,96.964h-1.034a.393.393,0,0,0-.393.393v33.158a.393.393,0,0,0,.393.393" transform="translate(-32.467 -13.251)" fill="#595959"/>
        <path id="Trazado_228869" data-name="Trazado 228869" d="M54.485,175.561H53.451a3.907,3.907,0,0,1-3.907-3.907V145.524a3.907,3.907,0,0,1,3.907-3.907h1.034a.393.393,0,0,1,.393.393v33.158a.393.393,0,0,1-.393.393" transform="translate(-6.771 -19.354)" fill="#595959"/>
        <path id="Trazado_228870" data-name="Trazado 228870" d="M206.715,32.94V288.613a7.945,7.945,0,0,1-7.941,7.941H72.087a7.949,7.949,0,0,1-7.125-4.437c0-.008-.008-.016-.008-.023a7.8,7.8,0,0,1-.808-3.481V32.94A7.945,7.945,0,0,1,72.087,25H198.774a7.927,7.927,0,0,1,3.8.963c.008,0,.008.008.016.008a7.959,7.959,0,0,1,4.126,6.97" transform="translate(-8.766 -3.416)" fill="#d4dee2"/>
        <path id="Trazado_228871" data-name="Trazado 228871" d="M122.165,282.925h-4.222a.676.676,0,0,0-.653.5l-.616,2.257H77.866a.669.669,0,0,0-.662.762l.621,4.461a.682.682,0,0,0,.07.507l.786,5.644.186,1.338.74,5.315.186,1.338.655,4.7a.668.668,0,0,0,.662.578h28.714l-.936,3.361a3.661,3.661,0,0,1-3.516,2.671H84.932a.688.688,0,0,0-.694.6.669.669,0,0,0,.666.734h2.545a2.632,2.632,0,1,0,2.842,0h11.526a2.632,2.632,0,1,0,2.842,0h.716a5,5,0,0,0,4.8-3.649l1.148-4.124h0a.457.457,0,0,0,.029-.084l1.335-4.791.372-1.338,1.481-5.315.372-1.338,1.53-5.493.188-.673h0l1.213-4.358a.562.562,0,0,0,.014-.061l.6-2.19h3.705a.676.676,0,0,0,0-1.352M111.146,305.6v0a.71.71,0,0,0-.032.088l-.917,3.291H81.7l-.549-3.942H111.3Zm.53-1.9H80.959l-.74-5.315h32.936Zm1.853-6.653h-33.5l-.739-5.314h35.715Zm1.852-6.651H79.106l-.471-3.383h37.688Z" transform="translate(-10.55 -38.665)" fill="#8eaab3"/>
        <path id="Trazado_228872" data-name="Trazado 228872" d="M178.822,135.4H93.98a12.787,12.787,0,1,1,0-25.574h84.842a12.787,12.787,0,1,1,0,25.574M93.98,111.181a11.429,11.429,0,1,0,0,22.858h84.842a11.429,11.429,0,1,0,0-22.858Z" transform="translate(-11.096 -15.009)" fill="#8eaab3"/>
        <path id="Trazado_228873" data-name="Trazado 228873" d="M101.162,128.523l-4.95,2.6.945-5.512-4.005-3.9,5.535-.8,2.475-5.015,2.475,5.015,5.535.8-4.005,3.9.945,5.512Z" transform="translate(-12.73 -15.838)" fill="#fff"/>
        <path id="Trazado_228874" data-name="Trazado 228874" d="M130.418,128.523l-4.95,2.6.945-5.512-4.005-3.9,5.535-.8,2.475-5.015,2.475,5.015,5.535.8-4.005,3.9.945,5.512Z" transform="translate(-16.729 -15.838)" fill="#fff"/>
        <path id="Trazado_228875" data-name="Trazado 228875" d="M159.675,128.523l-4.95,2.6.945-5.512-4.005-3.9,5.535-.8,2.475-5.015,2.475,5.015,5.535.8-4.005,3.9.945,5.512Z" transform="translate(-20.727 -15.838)" fill="#fff"/>
        <path id="Trazado_228876" data-name="Trazado 228876" d="M188.931,128.523l-4.95,2.6.945-5.512-4.005-3.9,5.535-.8,2.475-5.015,2.475,5.015,5.535.8-4.005,3.9.945,5.512Z" transform="translate(-24.725 -15.838)" fill="#8eaab3"/>
        <path id="Trazado_228877" data-name="Trazado 228877" d="M197.136,201.393H79.618a4.028,4.028,0,0,1-4.028-4.027V160.223a4.028,4.028,0,0,1,4.028-4.027H197.136a4.027,4.027,0,0,1,4.027,4.027v37.142a4.027,4.027,0,0,1-4.027,4.027" transform="translate(-10.33 -21.346)" fill="#fff"/>
        <path id="Trazado_228878" data-name="Trazado 228878" d="M119.755,176.11v14.027s-1.807-.043-5.638-.043c-.5,0-1.375-.7-1.769-.689a32.045,32.045,0,0,0-4.909.689H83.133a6.171,6.171,0,0,1,.759-2.25c3.331-5.967,15.967-8.656,18.014-11.35.7-.926,1.461-1.795,2.174-2.562a13.88,13.88,0,0,1,1.882-1.9c1.11-.754,2.791,2.229,2.791,2.229,2.575,1.237,6.546.693,8.947.182a1.7,1.7,0,0,1,2.056,1.663" transform="translate(-11.361 -23.494)" fill="#4879f0"/>
        <path id="Trazado_228879" data-name="Trazado 228879" d="M119.755,190.365v2.293s-1.807-.042-5.638-.042c-.5,0-1.375-.7-1.769-.689a31.927,31.927,0,0,0-4.909.689H83.133a6.169,6.169,0,0,1,.759-2.251Z" transform="translate(-11.361 -26.016)" fill="#3339c9"/>
        <path id="Trazado_228880" data-name="Trazado 228880" d="M92.507,183.206s.974-.467,1.565-.76a1.932,1.932,0,0,1,1.708-.638,4.4,4.4,0,0,1,2.523,1.869.485.485,0,0,0,.815-.525,4.555,4.555,0,0,0-2.559-2.119,3.405,3.405,0,0,0-4.052,2.172" transform="translate(-12.642 -24.726)" fill="#3339c9"/>
        <path id="Trazado_228881" data-name="Trazado 228881" d="M94.812,182.115s.973-.439,1.565-.732a1.924,1.924,0,0,1,1.708-.666,4.4,4.4,0,0,1,2.523,1.869.485.485,0,0,0,.815-.525,4.555,4.555,0,0,0-2.559-2.119,3.4,3.4,0,0,0-4.052,2.172" transform="translate(-12.957 -24.577)" fill="#3339c9"/>
        <path id="Trazado_228882" data-name="Trazado 228882" d="M96.989,181.243s.974-.467,1.565-.76a1.931,1.931,0,0,1,1.708-.638,4.4,4.4,0,0,1,2.523,1.869.485.485,0,0,0,.815-.525,4.555,4.555,0,0,0-2.559-2.119,3.405,3.405,0,0,0-4.052,2.172" transform="translate(-13.255 -24.458)" fill="#3339c9"/>
        <path id="Trazado_228883" data-name="Trazado 228883" d="M99.216,180.169s.973-.439,1.565-.732a1.924,1.924,0,0,1,1.708-.666,4.4,4.4,0,0,1,2.523,1.869.485.485,0,0,0,.815-.525A4.555,4.555,0,0,0,103.268,178a3.4,3.4,0,0,0-4.052,2.172" transform="translate(-13.559 -24.311)" fill="#3339c9"/>
        <path id="Trazado_228884" data-name="Trazado 228884" d="M203.385,166.091h-70a.611.611,0,1,1,0-1.222h70a.611.611,0,0,1,0,1.222" transform="translate(-18.145 -22.532)" fill="#d4dee2"/>
        <path id="Trazado_228885" data-name="Trazado 228885" d="M203.385,174.563h-70a.611.611,0,1,1,0-1.222h70a.611.611,0,1,1,0,1.222" transform="translate(-18.145 -23.689)" fill="#d4dee2"/>
        <path id="Trazado_228886" data-name="Trazado 228886" d="M203.385,183.036h-70a.611.611,0,0,1,0-1.223h70a.611.611,0,0,1,0,1.223" transform="translate(-18.145 -24.847)" fill="#d4dee2"/>
        <path id="Trazado_228887" data-name="Trazado 228887" d="M203.385,191.506h-70a.611.611,0,0,1,0-1.223h70a.611.611,0,0,1,0,1.223" transform="translate(-18.145 -26.005)" fill="#d4dee2"/>
        <path id="Trazado_228888" data-name="Trazado 228888" d="M203.385,199.979h-70a.611.611,0,0,1,0-1.223h70a.611.611,0,0,1,0,1.223" transform="translate(-18.145 -27.163)" fill="#d4dee2"/>
        <path id="Trazado_228889" data-name="Trazado 228889" d="M197.136,265.205H79.618a4.028,4.028,0,0,1-4.028-4.028V224.035a4.028,4.028,0,0,1,4.028-4.027H197.136a4.027,4.027,0,0,1,4.027,4.027v37.142a4.028,4.028,0,0,1-4.027,4.028" transform="translate(-10.33 -30.067)" fill="#fff"/>
        <path id="Trazado_228890" data-name="Trazado 228890" d="M110.971,242.3c-.095.031-.182.052-.268.074.005.188.013.376.018.565v0c.173,5.695.249,12.145.275,16.519a50.921,50.921,0,0,1-20.232,0c-.01-4.4.018-10.891.143-16.588.008-.242.013-.481.018-.715,0-.082,0-.164.005-.246-.028,0-.061,0-.09-.005a5.34,5.34,0,0,1-1.85-.427,6.848,6.848,0,0,1-1.182-.642c-.105-.074-.209-.146-.3-.218a6.641,6.641,0,0,1-1.051-.953,24.322,24.322,0,0,1,1.374-2.894q.282-.513.576-1.01a46.847,46.847,0,0,1,3.359-4.934l0,0v0a12.2,12.2,0,0,1,2.947-2.161q.408-.247.832-.494a3.666,3.666,0,0,1,.615-.29,3.022,3.022,0,0,1,.354-.116,3.965,3.965,0,0,1,1.044-.139.351.351,0,0,1,.35.352v.013a3.175,3.175,0,0,0,3.292,3.174,3.225,3.225,0,0,0,3.058-3.245v0a.29.29,0,0,1,.287-.291,2.88,2.88,0,0,1,.4.026,3.107,3.107,0,0,1,1.182.406l.26.155a14.08,14.08,0,0,1,3.377,2.452,49.671,49.671,0,0,1,5.41,8.986,9.776,9.776,0,0,1-4.2,2.652" transform="translate(-11.815 -31.108)" fill="#fa5f2d"/>
        <path id="Trazado_228891" data-name="Trazado 228891" d="M93.916,240.465,91.6,244.575c.007-.239.012-.478.018-.714,0-.082,0-.163.007-.245v0c-.03,0-.062,0-.092,0l1.918-3.406a.266.266,0,1,1,.463.261" transform="translate(-12.509 -32.809)" fill="#ce101d"/>
        <path id="Trazado_228892" data-name="Trazado 228892" d="M114.167,244.078c.005.188.012.376.017.565l-2.353-4.177a.266.266,0,0,1,.464-.261l2.138,3.8c-.094.028-.182.051-.268.073" transform="translate(-15.279 -32.809)" fill="#ce101d"/>
        <path id="Trazado_228893" data-name="Trazado 228893" d="M97.533,228.242a.826.826,0,0,1-1.511.463q.408-.247.832-.494a3.6,3.6,0,0,1,.615-.29.833.833,0,0,1,.064.321" transform="translate(-13.123 -31.148)" fill="#ce101d"/>
        <path id="Trazado_228894" data-name="Trazado 228894" d="M109.276,228.216a.826.826,0,0,1-1.652-.01.812.812,0,0,1,.211-.55,3.1,3.1,0,0,1,1.182.406c.088.052.175.1.26.155" transform="translate(-14.708 -31.112)" fill="#ce101d"/>
        <path id="Trazado_228895" data-name="Trazado 228895" d="M93.59,233a.826.826,0,1,1-.826-.826.826.826,0,0,1,.826.826" transform="translate(-12.565 -31.73)" fill="#ce101d"/>
        <path id="Trazado_228896" data-name="Trazado 228896" d="M97.512,233a.826.826,0,1,1-.826-.826.826.826,0,0,1,.826.826" transform="translate(-13.101 -31.73)" fill="#ce101d"/>
        <path id="Trazado_228897" data-name="Trazado 228897" d="M101.433,233a.826.826,0,1,1-.826-.826.826.826,0,0,1,.826.826" transform="translate(-13.636 -31.73)" fill="#ce101d"/>
        <path id="Trazado_228898" data-name="Trazado 228898" d="M105.355,233a.826.826,0,1,1-.826-.826.826.826,0,0,1,.826.826" transform="translate(-14.172 -31.73)" fill="#ce101d"/>
        <path id="Trazado_228899" data-name="Trazado 228899" d="M109.277,233a.826.826,0,1,1-.826-.826.826.826,0,0,1,.826.826" transform="translate(-14.708 -31.73)" fill="#ce101d"/>
        <path id="Trazado_228900" data-name="Trazado 228900" d="M113.2,233a.826.826,0,1,1-.826-.826.826.826,0,0,1,.826.826" transform="translate(-15.244 -31.73)" fill="#ce101d"/>
        <path id="Trazado_228901" data-name="Trazado 228901" d="M89.671,237.845a.826.826,0,0,1-1.624.213q.281-.513.576-1.01a.8.8,0,0,1,.223-.03.826.826,0,0,1,.825.827" transform="translate(-12.033 -32.392)" fill="#ce101d"/>
        <path id="Trazado_228902" data-name="Trazado 228902" d="M93.59,237.845a.826.826,0,1,1-.826-.826.826.826,0,0,1,.826.826" transform="translate(-12.565 -32.392)" fill="#ce101d"/>
        <path id="Trazado_228903" data-name="Trazado 228903" d="M97.512,237.845a.826.826,0,1,1-.826-.826.826.826,0,0,1,.826.826" transform="translate(-13.101 -32.392)" fill="#ce101d"/>
        <path id="Trazado_228904" data-name="Trazado 228904" d="M101.433,237.845a.826.826,0,1,1-.826-.826.826.826,0,0,1,.826.826" transform="translate(-13.636 -32.392)" fill="#ce101d"/>
        <path id="Trazado_228905" data-name="Trazado 228905" d="M105.355,237.845a.826.826,0,1,1-.826-.826.826.826,0,0,1,.826.826" transform="translate(-14.172 -32.392)" fill="#ce101d"/>
        <path id="Trazado_228906" data-name="Trazado 228906" d="M109.277,237.845a.826.826,0,1,1-.826-.826.826.826,0,0,1,.826.826" transform="translate(-14.708 -32.392)" fill="#ce101d"/>
        <path id="Trazado_228907" data-name="Trazado 228907" d="M113.2,237.845a.826.826,0,1,1-.826-.826.826.826,0,0,1,.826.826" transform="translate(-15.244 -32.392)" fill="#ce101d"/>
        <path id="Trazado_228908" data-name="Trazado 228908" d="M117.12,237.845a.826.826,0,1,1-.826-.826.826.826,0,0,1,.826.826" transform="translate(-15.78 -32.392)" fill="#ce101d"/>
        <path id="Trazado_228909" data-name="Trazado 228909" d="M89.2,243.428a.826.826,0,1,0-1.19-.742.669.669,0,0,0,.008.1Z" transform="translate(-12.028 -33.053)" fill="#ce101d"/>
        <path id="Trazado_228910" data-name="Trazado 228910" d="M93.59,242.686a.826.826,0,1,1-.826-.826.826.826,0,0,1,.826.826" transform="translate(-12.565 -33.053)" fill="#ce101d"/>
        <path id="Trazado_228911" data-name="Trazado 228911" d="M97.512,242.686a.826.826,0,1,1-.826-.826.826.826,0,0,1,.826.826" transform="translate(-13.101 -33.053)" fill="#ce101d"/>
        <path id="Trazado_228912" data-name="Trazado 228912" d="M101.433,242.686a.826.826,0,1,1-.826-.826.826.826,0,0,1,.826.826" transform="translate(-13.636 -33.053)" fill="#ce101d"/>
        <path id="Trazado_228913" data-name="Trazado 228913" d="M105.355,242.686a.826.826,0,1,1-.826-.826.826.826,0,0,1,.826.826" transform="translate(-14.172 -33.053)" fill="#ce101d"/>
        <path id="Trazado_228914" data-name="Trazado 228914" d="M109.277,242.686a.826.826,0,1,1-.826-.826.826.826,0,0,1,.826.826" transform="translate(-14.708 -33.053)" fill="#ce101d"/>
        <path id="Trazado_228915" data-name="Trazado 228915" d="M113.2,242.686a.826.826,0,1,1-.826-.826.826.826,0,0,1,.826.826" transform="translate(-15.244 -33.053)" fill="#ce101d"/>
        <path id="Trazado_228916" data-name="Trazado 228916" d="M117.12,242.686a.826.826,0,1,1-.826-.826.826.826,0,0,1,.826.826" transform="translate(-15.78 -33.053)" fill="#ce101d"/>
        <path id="Trazado_228917" data-name="Trazado 228917" d="M93.59,247.527a.826.826,0,1,1-.826-.826.826.826,0,0,1,.826.826" transform="translate(-12.565 -33.715)" fill="#ce101d"/>
        <path id="Trazado_228918" data-name="Trazado 228918" d="M97.512,247.527a.826.826,0,1,1-.826-.826.826.826,0,0,1,.826.826" transform="translate(-13.101 -33.715)" fill="#ce101d"/>
        <path id="Trazado_228919" data-name="Trazado 228919" d="M101.433,247.527a.826.826,0,1,1-.826-.826.826.826,0,0,1,.826.826" transform="translate(-13.636 -33.715)" fill="#ce101d"/>
        <path id="Trazado_228920" data-name="Trazado 228920" d="M105.355,247.527a.826.826,0,1,1-.826-.826.826.826,0,0,1,.826.826" transform="translate(-14.172 -33.715)" fill="#ce101d"/>
        <path id="Trazado_228921" data-name="Trazado 228921" d="M109.277,247.527a.826.826,0,1,1-.826-.826.826.826,0,0,1,.826.826" transform="translate(-14.708 -33.715)" fill="#ce101d"/>
        <path id="Trazado_228922" data-name="Trazado 228922" d="M113.2,247.527a.826.826,0,1,1-.826-.826.826.826,0,0,1,.826.826" transform="translate(-15.244 -33.715)" fill="#ce101d"/>
        <path id="Trazado_228923" data-name="Trazado 228923" d="M93.59,252.368a.826.826,0,1,1-.826-.826.826.826,0,0,1,.826.826" transform="translate(-12.565 -34.377)" fill="#ce101d"/>
        <path id="Trazado_228924" data-name="Trazado 228924" d="M97.512,252.368a.826.826,0,1,1-.826-.826.826.826,0,0,1,.826.826" transform="translate(-13.101 -34.377)" fill="#ce101d"/>
        <path id="Trazado_228925" data-name="Trazado 228925" d="M101.433,252.368a.826.826,0,1,1-.826-.826.826.826,0,0,1,.826.826" transform="translate(-13.636 -34.377)" fill="#ce101d"/>
        <path id="Trazado_228926" data-name="Trazado 228926" d="M105.355,252.368a.826.826,0,1,1-.826-.826.826.826,0,0,1,.826.826" transform="translate(-14.172 -34.377)" fill="#ce101d"/>
        <path id="Trazado_228927" data-name="Trazado 228927" d="M109.277,252.368a.826.826,0,1,1-.826-.826.826.826,0,0,1,.826.826" transform="translate(-14.708 -34.377)" fill="#ce101d"/>
        <path id="Trazado_228928" data-name="Trazado 228928" d="M113.2,252.368a.826.826,0,1,1-.826-.826.826.826,0,0,1,.826.826" transform="translate(-15.244 -34.377)" fill="#ce101d"/>
        <path id="Trazado_228929" data-name="Trazado 228929" d="M93.59,257.209a.826.826,0,1,1-.826-.826.826.826,0,0,1,.826.826" transform="translate(-12.565 -35.038)" fill="#ce101d"/>
        <path id="Trazado_228930" data-name="Trazado 228930" d="M97.512,257.209a.826.826,0,1,1-.826-.826.826.826,0,0,1,.826.826" transform="translate(-13.101 -35.038)" fill="#ce101d"/>
        <path id="Trazado_228931" data-name="Trazado 228931" d="M101.433,257.209a.826.826,0,1,1-.826-.826.826.826,0,0,1,.826.826" transform="translate(-13.636 -35.038)" fill="#ce101d"/>
        <path id="Trazado_228932" data-name="Trazado 228932" d="M105.355,257.209a.826.826,0,1,1-.826-.826.826.826,0,0,1,.826.826" transform="translate(-14.172 -35.038)" fill="#ce101d"/>
        <path id="Trazado_228933" data-name="Trazado 228933" d="M109.277,257.209a.826.826,0,1,1-.826-.826.826.826,0,0,1,.826.826" transform="translate(-14.708 -35.038)" fill="#ce101d"/>
        <path id="Trazado_228934" data-name="Trazado 228934" d="M113.2,257.209a.826.826,0,1,1-.826-.826.826.826,0,0,1,.826.826" transform="translate(-15.244 -35.038)" fill="#ce101d"/>
        <path id="Trazado_228935" data-name="Trazado 228935" d="M93.59,262.049a.826.826,0,1,1-.826-.825.826.826,0,0,1,.826.825" transform="translate(-12.565 -35.7)" fill="#ce101d"/>
        <path id="Trazado_228936" data-name="Trazado 228936" d="M97.512,262.049a.826.826,0,1,1-.826-.825.826.826,0,0,1,.826.825" transform="translate(-13.101 -35.7)" fill="#ce101d"/>
        <path id="Trazado_228937" data-name="Trazado 228937" d="M101.433,262.049a.826.826,0,1,1-.826-.825.826.826,0,0,1,.826.825" transform="translate(-13.636 -35.7)" fill="#ce101d"/>
        <path id="Trazado_228938" data-name="Trazado 228938" d="M105.355,262.049a.826.826,0,1,1-.826-.825.826.826,0,0,1,.826.825" transform="translate(-14.172 -35.7)" fill="#ce101d"/>
        <path id="Trazado_228939" data-name="Trazado 228939" d="M109.277,262.049a.826.826,0,1,1-.826-.825.826.826,0,0,1,.826.825" transform="translate(-14.708 -35.7)" fill="#ce101d"/>
        <path id="Trazado_228940" data-name="Trazado 228940" d="M113.2,262.049a.826.826,0,1,1-.826-.825.826.826,0,0,1,.826.825" transform="translate(-15.244 -35.7)" fill="#ce101d"/>
        <path id="Trazado_228941" data-name="Trazado 228941" d="M203.385,229.516h-70a.611.611,0,1,1,0-1.222h70a.611.611,0,1,1,0,1.222" transform="translate(-18.145 -31.199)" fill="#d4dee2"/>
        <path id="Trazado_228942" data-name="Trazado 228942" d="M203.385,237.988h-70a.611.611,0,1,1,0-1.222h70a.611.611,0,1,1,0,1.222" transform="translate(-18.145 -32.357)" fill="#d4dee2"/>
        <path id="Trazado_228943" data-name="Trazado 228943" d="M203.385,246.459h-70a.611.611,0,0,1,0-1.222h70a.611.611,0,1,1,0,1.222" transform="translate(-18.145 -33.515)" fill="#d4dee2"/>
        <path id="Trazado_228944" data-name="Trazado 228944" d="M203.385,254.932h-70a.611.611,0,0,1,0-1.223h70a.611.611,0,0,1,0,1.223" transform="translate(-18.145 -34.673)" fill="#d4dee2"/>
        <path id="Trazado_228945" data-name="Trazado 228945" d="M203.385,263.4h-70a.611.611,0,0,1,0-1.223h70a.611.611,0,0,1,0,1.223" transform="translate(-18.145 -35.83)" fill="#d4dee2"/>
        <path id="Trazado_228946" data-name="Trazado 228946" d="M233.893,129.579l12.053,27.477a3.525,3.525,0,0,0,4.643,1.811l27.477-12.053a3.523,3.523,0,0,0,1.811-4.642L267.824,114.7a3.524,3.524,0,0,0-4.642-1.812l-27.477,12.053a3.524,3.524,0,0,0-1.812,4.642m18.324-5.3a1.815,1.815,0,1,1,.728-1.764,1.818,1.818,0,0,1-.728,1.764" transform="translate(-31.924 -15.386)" fill="#ffb64c"/>
        <path id="Trazado_228947" data-name="Trazado 228947" d="M246.01,138.312c-1.324-3.019-.134-5.6,2.448-6.736s5.287-.257,6.611,2.761c1.336,3.045.136,5.6-2.446,6.736s-5.278.283-6.613-2.761m12.562-10.882,4.116-1.806-4.162,22.152-4.116,1.805Zm-6.96,8.424c-.716-1.631-1.465-1.884-2-1.649s-.859.958-.143,2.589,1.467,1.884,2,1.648.857-.956.142-2.588m10.417,5.013c-1.324-3.02-.136-5.6,2.446-6.736s5.287-.257,6.611,2.763c1.336,3.043.136,5.6-2.445,6.736s-5.278.281-6.612-2.763m5.6-2.456c-.716-1.632-1.465-1.884-2-1.649s-.857.957-.141,2.588,1.464,1.884,2,1.649.857-.957.142-2.588" transform="translate(-33.546 -17.168)" fill="#fff"/>
        <path id="Trazado_228948" data-name="Trazado 228948" d="M250.306,101.628c-1.849-8.716-6.567-18.639-12.624-26.547-.123-.163-.251-.326-.381-.491v1.545c6.287,8.367,10.534,18.116,12.136,25.677a27.285,27.285,0,0,1,.673,7.989,7.888,7.888,0,0,1-1.216,3.85,3.451,3.451,0,0,1-.855.843,3.268,3.268,0,0,1-1.674.534,1.8,1.8,0,0,0,.087.9,4.151,4.151,0,0,0,2.083-.695,4.244,4.244,0,0,0,1.055-1.03,9.132,9.132,0,0,0,1.441-4.8,29,29,0,0,0-.727-7.769m-13,8.074c-9.228-11.419-22.219-45.019-24.433-50.851-.016-.045-.032-.085-.047-.126.2.041.388.081.581.126h3.279A30.773,30.773,0,0,0,212.2,57.7a.442.442,0,0,0-.493.591c.034.092.1.28.208.555,1.944,5.164,15.7,41.164,25.383,52.222a13.979,13.979,0,0,0,2.588,2.4q.381.258.75.486l1-.437q-.606-.348-1.25-.783A15.157,15.157,0,0,1,237.3,109.7" transform="translate(-28.929 -7.885)" fill="#4879f0"/>
        <path id="Trazado_228949" data-name="Trazado 228949" d="M222.353,65.642V84.276H42.851V65.642h0C64.49,61.711,71.394,25,71.394,25H193.811s6.9,36.713,28.543,40.641" transform="translate(-5.856 -3.417)" fill="#fff"/>
        <rect id="Rectángulo_58251" data-name="Rectángulo 58251" width="179.5" height="18.634" transform="translate(36.997 62.225)" fill="#bed0d8"/>
        <path id="Trazado_228950" data-name="Trazado 228950" d="M94.189,25s-6.9,36.714-28.543,40.641V84.277H42.853V65.642C64.492,61.715,71.393,25,71.393,25Z" transform="translate(-5.856 -3.417)" fill="#fa5f2d"/>
        <path id="Trazado_228951" data-name="Trazado 228951" d="M242.647,65.642V84.276h-22.8V65.642C198.213,61.714,191.309,25,191.309,25h22.8s6.9,36.713,28.543,40.641" transform="translate(-26.145 -3.417)" fill="#fa5f2d"/>
        <path id="Trazado_228952" data-name="Trazado 228952" d="M124.8,65.769V84.276H103.442L102.9,65.641C116.491,55.219,117.558,25,117.558,25h14.077c.66,21.845-6.834,40.769-6.834,40.769" transform="translate(-14.063 -3.417)" fill="#fa5f2d"/>
        <path id="Trazado_228953" data-name="Trazado 228953" d="M183.2,65.642l-.539,18.634H161.3V65.77S153.811,46.846,154.47,25h14.077S169.618,55.22,183.2,65.642" transform="translate(-21.105 -3.417)" fill="#fa5f2d"/>
        <rect id="Rectángulo_58252" data-name="Rectángulo 58252" width="22.793" height="18.634" transform="translate(36.998 62.225)" fill="#c11f09"/>
        <path id="Trazado_228954" data-name="Trazado 228954" d="M247.166,72.075V90.709h-22.8V72.075h22.8Z" transform="translate(-30.663 -9.85)" fill="#c11f09"/>
        <path id="Trazado_228955" data-name="Trazado 228955" d="M124.851,72.075c-.035.085-.051.129-.051.129V90.709H103.442l-.54-18.634Z" transform="translate(-14.063 -9.85)" fill="#c11f09"/>
        <path id="Trazado_228956" data-name="Trazado 228956" d="M184.284,72.075l-.54,18.634H162.385V72.2s-.016-.044-.05-.129Z" transform="translate(-22.185 -9.85)" fill="#c11f09"/>
        <path id="Trazado_228957" data-name="Trazado 228957" d="M177.867,37.544H101.6a5.979,5.979,0,0,1-5.961-5.961V28.715a5.979,5.979,0,0,1,5.961-5.961h76.269a5.979,5.979,0,0,1,5.961,5.961v2.867a5.979,5.979,0,0,1-5.961,5.961" transform="translate(-13.07 -3.11)" fill="#1c1a12"/>
        <path id="Trazado_228958" data-name="Trazado 228958" d="M163.249,31.726H113.325a1.47,1.47,0,0,1-1.465-1.466v-.705a1.471,1.471,0,0,1,1.465-1.466h49.924a1.471,1.471,0,0,1,1.466,1.466v.705a1.47,1.47,0,0,1-1.466,1.466" transform="translate(-15.287 -3.839)" fill="#595959"/>
        <path id="Trazado_228959" data-name="Trazado 228959" d="M187.305,29.711a2.182,2.182,0,1,1-2.182-2.182,2.183,2.183,0,0,1,2.182,2.182" transform="translate(-25.001 -3.762)" fill="#595959"/>
        <path id="Trazado_228960" data-name="Trazado 228960" d="M204.332,285.25H132.673a.632.632,0,0,1,0-1.264h71.659a.632.632,0,1,1,0,1.264" transform="translate(-18.045 -38.81)" fill="#8eaab3"/>
        <path id="Trazado_228961" data-name="Trazado 228961" d="M204.332,294.612H132.673a.632.632,0,0,1,0-1.264h71.659a.632.632,0,1,1,0,1.264" transform="translate(-18.045 -40.09)" fill="#8eaab3"/>
        <path id="Trazado_228962" data-name="Trazado 228962" d="M204.332,303.973H132.673a.632.632,0,0,1,0-1.264h71.659a.632.632,0,1,1,0,1.264" transform="translate(-18.045 -41.369)" fill="#8eaab3"/>
        <path id="Trazado_228963" data-name="Trazado 228963" d="M204.332,313.334H132.673a.632.632,0,1,1,0-1.264h71.659a.632.632,0,1,1,0,1.264" transform="translate(-18.045 -42.648)" fill="#8eaab3"/>
        <path id="Trazado_228964" data-name="Trazado 228964" d="M204.332,322.7H132.673a.632.632,0,0,1,0-1.264h71.659a.632.632,0,1,1,0,1.264" transform="translate(-18.045 -43.928)" fill="#8eaab3"/>
        <path id="Trazado_228965" data-name="Trazado 228965" d="M172.05,343.577h65.671l-9.045-73.084H181.1Z" transform="translate(-23.513 -36.966)" fill="#e27d00"/>
        <path id="Trazado_228966" data-name="Trazado 228966" d="M175.9,343.577h65.671l-9.045-73.084h-47.58Z" transform="translate(-24.039 -36.966)" fill="#ffb64c"/>
        <path id="Trazado_228967" data-name="Trazado 228967" d="M222.43,312.857c-1-2.134-3.186-3.223-5.442-3.922-2.585-.8-5.259-1.087-6.343-1.847a.979.979,0,0,1-.5-.843c.021-.764.7-1.387,2.713-1.406h0c.131,0,.264,0,.407.005a14.257,14.257,0,0,1,6.077,1.7c.158.081.318.164.477.251l.607-1.353,1.961-4.368a15.526,15.526,0,0,0-4.181-1.668,21.5,21.5,0,0,0-2.636-.49l.061-2.178.041-1.444-4.774-.137-.105,3.692c-5.575.621-8.443,3.76-8.55,7.585a6.08,6.08,0,0,0,3.307,5.843,23.539,23.539,0,0,0,6.153,2.037c1.946.471,3.407.906,3.377,1.9-.022.814-.849,1.265-3.118,1.2a14.635,14.635,0,0,1-2.919-.4,16.224,16.224,0,0,1-4.84-1.989l-2.739,5.752a13.266,13.266,0,0,0,2.614,1.285,23.259,23.259,0,0,0,6.021,1.332l-.058,2.061L210,326.98l4.774.136.106-3.758c5.273-.766,8-3.873,8.11-7.531a6.5,6.5,0,0,0-.558-2.97" transform="translate(-27.533 -40.336)" fill="#e27d00"/>
        <path id="Trazado_228968" data-name="Trazado 228968" d="M223.437,274.38a2.243,2.243,0,1,0,2.243-2.243,2.243,2.243,0,0,0-2.243,2.243" transform="translate(-30.536 -37.191)" fill="#e27d00"/>
        <path id="Trazado_228969" data-name="Trazado 228969" d="M196.855,274.38a2.243,2.243,0,1,0,2.243-2.243,2.243,2.243,0,0,0-2.243,2.243" transform="translate(-26.903 -37.191)" fill="#e27d00"/>
        <path id="Trazado_228970" data-name="Trazado 228970" d="M222.218,269.53h0a.935.935,0,0,0,.909-.981,98.733,98.733,0,0,0-1.753-14.233c-2.18-10.463-5.823-15.768-10.829-15.768s-8.566,5.31-10.554,15.785a98.033,98.033,0,0,0-1.489,14.233.936.936,0,1,0,1.871.052c.211-8.659,2.332-28.193,10.173-28.193s10.34,19.547,10.711,28.21a.935.935,0,0,0,.961.894" transform="translate(-27.128 -32.601)" fill="#1c1a12"/>
        <path id="Trazado_228971" data-name="Trazado 228971" d="M217.511,269.691h0a.9.9,0,0,0,.879-.948,95.356,95.356,0,0,0-1.695-13.765c-2.108-10.119-5.632-15.25-10.473-15.25s-8.284,5.136-10.207,15.266a94.857,94.857,0,0,0-1.439,13.764.9.9,0,1,0,1.809.05c.2-8.373,2.255-27.265,9.838-27.265s10,18.9,10.36,27.282a.9.9,0,0,0,.929.865" transform="translate(-26.591 -32.762)" fill="#1c1a12"/>
        <path id="Trazado_228972" data-name="Trazado 228972" d="M178.128,305.634h0c.4-.017.715-.541.679-1.146a50.17,50.17,0,0,0-1.852-10.861c-2.385-7.978-6.6-12.2-12.2-12.2s-9.751,4.225-11.989,12.219a49.774,49.774,0,0,0-1.647,10.862c-.025.608.3,1.121.7,1.121.372,0,.679-.435.7-.994a47.178,47.178,0,0,1,1.552-10.223c2.033-7.214,5.626-10.872,10.68-10.872,5.075,0,8.748,3.684,10.919,10.95a47.533,47.533,0,0,1,1.732,10.177c.034.557.347.978.718.963" transform="translate(-20.653 -38.461)" fill="#1c1a12"/>
        <path id="Trazado_228973" data-name="Trazado 228973" d="M128.586,347.652h67.421L189.8,300.139H134.793Z" transform="translate(-17.573 -41.018)" fill="#268275"/>
        <path id="Trazado_228974" data-name="Trazado 228974" d="M132.7,347.652h67.421l-6.207-47.513H138.908Z" transform="translate(-18.135 -41.018)" fill="#43a99b"/>
        <path id="Trazado_228975" data-name="Trazado 228975" d="M157.295,326.142a12.478,12.478,0,1,0,12.478-12.478,12.493,12.493,0,0,0-12.478,12.478m7,4.608a16.515,16.515,0,0,1-.667-4.372h5.641v4.372Zm2.941,6.585a11.431,11.431,0,0,1-7.471-5.581h3.8a13.887,13.887,0,0,0,2.169,3.977,12.662,12.662,0,0,0,1.5,1.6m2.033-5.581v5.852a10.449,10.449,0,0,1-2.77-2.527,12.828,12.828,0,0,1-1.863-3.325ZM164.912,320a15.577,15.577,0,0,1,3.913-5.292c.149-.012.3-.022.446-.028V320Zm-4.825,0a11.54,11.54,0,0,1,6.989-5.012,17.1,17.1,0,0,0-1.579,1.945A16.347,16.347,0,0,0,163.816,320Zm3.549,5.375A14.319,14.319,0,0,1,164.5,321h4.768v4.372Zm-5.312,0A11.351,11.351,0,0,1,159.516,321h3.922a15.372,15.372,0,0,0-.806,4.372Zm4.3,1a17.671,17.671,0,0,0,.624,4.372h-3.986a11.35,11.35,0,0,1-.963-4.372Zm14.176,0h4.441a11.335,11.335,0,0,1-.963,4.372h-4.1a17.713,17.713,0,0,0,.625-4.372M170.274,320v-5.32c.107,0,.212.01.318.017a14.822,14.822,0,0,1,2.532,2.833,15.334,15.334,0,0,1,1.4,2.47Zm4.653,1a14.392,14.392,0,0,1,.864,4.372h-5.518V321Zm.686-1a16.4,16.4,0,0,0-1.681-3.067,16.9,16.9,0,0,0-1.612-1.979A11.516,11.516,0,0,1,179.458,320Zm.186,6.378a16.455,16.455,0,0,1-.665,4.372h-4.86v-4.372Zm1-1a15.373,15.373,0,0,0-.805-4.372h4.038a11.339,11.339,0,0,1,1.192,4.372Zm2.982,6.379a11.582,11.582,0,0,1-7.625,5.613,12.63,12.63,0,0,0,1.538-1.637,13.908,13.908,0,0,0,2.169-3.977Zm-4.989,0a11.815,11.815,0,0,1-4.515,5.781v-5.781Z" transform="translate(-21.496 -42.866)" fill="#7fe1d3"/>
        <path id="Trazado_228976" data-name="Trazado 228976" d="M154.23,304.774a2.16,2.16,0,1,0,2.157-2.271,2.218,2.218,0,0,0-2.157,2.271" transform="translate(-21.078 -41.341)" fill="#3339c9"/>
        <path id="Trazado_228977" data-name="Trazado 228977" d="M184.4,304.774a2.16,2.16,0,1,0,2.158-2.271,2.218,2.218,0,0,0-2.158,2.271" transform="translate(-25.201 -41.341)" fill="#3339c9"/>
        <path id="Trazado_228978" data-name="Trazado 228978" d="M182.744,302.445a.708.708,0,0,1-.7-.634,45.315,45.315,0,0,0-1.54-7.931c-2.171-7.265-5.846-10.949-10.919-10.949-5.054,0-8.647,3.658-10.68,10.872a44.707,44.707,0,0,0-1.4,7.994.708.708,0,0,1-1.41-.122,47.762,47.762,0,0,1,1.5-8.639c2.239-7.994,6.384-12.219,11.989-12.219s9.815,4.217,12.2,12.2a48.257,48.257,0,0,1,1.669,8.649.707.707,0,0,1-.7.782" transform="translate(-21.331 -38.377)" fill="#1c1a12"/>
        <path id="Trazado_228979" data-name="Trazado 228979" d="M27.005,172.151h-.122a12.1,12.1,0,0,1-12.074-12.13v-.093a12.117,12.117,0,0,1,12.1-12.074h.119a12.116,12.116,0,0,1,12.075,12.13v.092a12.1,12.1,0,0,1-12.1,12.075m-.027-.827H27A11.275,11.275,0,0,0,38.28,160.075v-.092a11.287,11.287,0,0,0-11.249-11.3h-.117A11.288,11.288,0,0,0,15.637,159.93v.092a11.275,11.275,0,0,0,11.249,11.3Z" transform="translate(-2.024 -20.206)" fill="#8eaab3"/>
        <path id="Trazado_228980" data-name="Trazado 228980" d="M27.927,169.057h0a.411.411,0,0,1-.292-.122l-5.858-5.884a4.847,4.847,0,0,1,.015-6.834,3.531,3.531,0,0,1,2.865-1.081,4.935,4.935,0,0,1,3.3,2.079,4.934,4.934,0,0,1,3.306-2.063,3.538,3.538,0,0,1,2.861,1.094,4.845,4.845,0,0,1-.017,6.833l-5.884,5.858a.416.416,0,0,1-.293.12m-3.61-13.11a2.723,2.723,0,0,0-1.942.856,4.018,4.018,0,0,0-.011,5.664l5.565,5.591,5.59-5.565a4.019,4.019,0,0,0,.016-5.664,2.689,2.689,0,0,0-2.2-.854,4.43,4.43,0,0,0-3.042,2.177.416.416,0,0,1-.343.181h0a.413.413,0,0,1-.343-.183,4.433,4.433,0,0,0-3.033-2.19q-.131-.013-.259-.013" transform="translate(-2.785 -21.199)" fill="#8eaab3"/>
        <path id="Trazado_228981" data-name="Trazado 228981" d="M270.961,315.009h-3.642a.817.817,0,0,1-.816-.816v-3.932h-3.931a.817.817,0,0,1-.816-.816v-3.641a.817.817,0,0,1,.816-.816H266.5v-3.932a.817.817,0,0,1,.816-.816h3.642a.817.817,0,0,1,.816.816v3.932h3.932a.817.817,0,0,1,.816.816v3.641a.817.817,0,0,1-.816.816h-3.932v3.932a.817.817,0,0,1-.816.816m-8.388-9.283a.079.079,0,0,0-.079.079v3.641a.079.079,0,0,0,.079.079h4.667v4.668a.08.08,0,0,0,.079.079h3.642a.08.08,0,0,0,.079-.079v-4.668h4.668a.079.079,0,0,0,.079-.079v-3.641a.079.079,0,0,0-.079-.079H271.04v-4.669a.08.08,0,0,0-.079-.079h-3.642a.08.08,0,0,0-.079.079v4.669Z" transform="translate(-35.773 -41.032)" fill="#8eaab3"/>
        <path id="Trazado_228982" data-name="Trazado 228982" d="M28.759,63.9,23.7,58.409a19.253,19.253,0,0,1-7.278,1.412C7.367,59.822,0,53.751,0,46.29S7.367,32.758,16.422,32.758,32.859,38.829,32.859,46.29a12.481,12.481,0,0,1-4.943,9.664l1.552,7.579a.413.413,0,0,1-.709.363M.827,46.29c0,7.005,7,12.7,15.594,12.7a18.366,18.366,0,0,0,7.221-1.458.412.412,0,0,1,.468.1l4.249,4.608L27.054,55.87a.416.416,0,0,1,.152-.41,11.71,11.71,0,0,0,4.827-9.17c0-7.005-7-12.7-15.611-12.7S.827,39.285.827,46.29" transform="translate(0 -4.477)" fill="#8eaab3"/>
        <path id="Trazado_228983" data-name="Trazado 228983" d="M23.956,47.765a2.666,2.666,0,1,1,2.666,2.665,2.668,2.668,0,0,1-2.666-2.665m.827,0a1.838,1.838,0,1,0,1.839-1.838,1.841,1.841,0,0,0-1.839,1.838" transform="translate(-3.274 -6.164)" fill="#8eaab3"/>
        <path id="Trazado_228984" data-name="Trazado 228984" d="M15.784,47.765A2.666,2.666,0,1,1,18.45,50.43a2.668,2.668,0,0,1-2.666-2.665m.827,0a1.838,1.838,0,1,0,1.839-1.838,1.841,1.841,0,0,0-1.839,1.838" transform="translate(-2.157 -6.164)" fill="#8eaab3"/>
        <path id="Trazado_228985" data-name="Trazado 228985" d="M7.611,47.765a2.666,2.666,0,1,1,2.666,2.665,2.668,2.668,0,0,1-2.666-2.665m.827,0a1.838,1.838,0,1,0,1.839-1.838,1.841,1.841,0,0,0-1.839,1.838" transform="translate(-1.04 -6.164)" fill="#8eaab3"/>
        <path id="Trazado_228986" data-name="Trazado 228986" d="M390.569,299.706c1.057,1.56,5.255,36.955,5.912,50.027a1.55,1.55,0,0,1-3.079.312l-7.674-49.213Z" transform="translate(-52.715 -40.959)" fill="#00223d"/>
        <path id="Trazado_228987" data-name="Trazado 228987" d="M351.3,299.706c-1.057,1.56-5.255,36.955-5.912,50.027a1.55,1.55,0,0,0,3.079.312l7.674-49.213Z" transform="translate(-47.201 -40.959)" fill="#00223d"/>
        <path id="Trazado_228988" data-name="Trazado 228988" d="M391.341,295.71v.386a5.261,5.261,0,0,1-5.361,5.106l-35.5.6a5.306,5.306,0,0,1-5.556-4.816l-.018-.353a5.241,5.241,0,0,1,5.172-5.308h.178l35.511-.636a5.287,5.287,0,0,1,5.57,4.988l0,.034" transform="translate(-47.136 -39.725)" fill="#00223d"/>
      </g>
    </g>
    <g id="Grupo_178594" data-name="Grupo 178594" transform="translate(259.763 306.449)">
      <g id="Grupo_178593" data-name="Grupo 178593" clip-path="url(#clip-path-2)">
        <path id="Trazado_228989" data-name="Trazado 228989" d="M326.54,356.84l.46-1.886-26.183-.033-.46,1.886Z" transform="translate(-300.81 -354.954)" fill="url(#linear-gradient)"/>
      </g>
    </g>
    <g id="Grupo_178596" data-name="Grupo 178596">
      <g id="Grupo_178595" data-name="Grupo 178595" clip-path="url(#clip-path)">
        <path id="Trazado_228991" data-name="Trazado 228991" d="M300.926,354.59a1.024,1.024,0,0,1,.183-.379c1.7-2.171,5.115-5.58,9.763-5.517,6.807.1,9.179.84,14.469.042l1.248,4.136a2.374,2.374,0,0,1,.037,1.234c-1.248.495-4.04,1.035-10.349,1.035-7.4,0-12.808-.344-15.352-.552" transform="translate(-41.125 -47.653)" fill="#3c4973"/>
      </g>
    </g>
    <g id="Grupo_178598" data-name="Grupo 178598" transform="translate(277.251 296.626)">
      <g id="Grupo_178597" data-name="Grupo 178597" clip-path="url(#clip-path-4)">
        <path id="Trazado_228992" data-name="Trazado 228992" d="M322.95,352.148l8.037-4.911-5.779-6.92-8.038,4.911Z" transform="translate(-320.597 -343.135)" fill="url(#linear-gradient-2)"/>
      </g>
    </g>
    <g id="Grupo_178600" data-name="Grupo 178600" transform="translate(224.353 294.163)">
      <g id="Grupo_178599" data-name="Grupo 178599" clip-path="url(#clip-path-5)">
        <path id="Trazado_228994" data-name="Trazado 228994" d="M279.282,359.661l4.592-18.834-24.044-3.576-4.592,18.834Z" transform="translate(-259.235 -340.253)" fill="url(#linear-gradient-3)"/>
      </g>
    </g>
    <g id="Grupo_178602" data-name="Grupo 178602">
      <g id="Grupo_178601" data-name="Grupo 178601" clip-path="url(#clip-path)">
        <path id="Trazado_228996" data-name="Trazado 228996" d="M260.379,340.627a1.055,1.055,0,0,1,.379-.181c2.679-.618,7.468-1.124,11.048,1.836,5.246,4.339,6.636,6.4,11.254,9.1l-1.606,3.99a2.331,2.331,0,0,1-.74.98c-1.28-.4-3.794-1.727-8.714-5.68-5.769-4.631-9.766-8.289-11.622-10.041" transform="translate(-35.584 -46.462)" fill="#3c4973"/>
        <path id="Trazado_228997" data-name="Trazado 228997" d="M357.809,274.831s-37.775,3.085-45.527,6.732,6.325,54.78,6.325,54.78,2.109,1.015,6.8-.445c0,0-4.813-37.732-1.231-45.916l40.9-6.69Z" transform="translate(-42.359 -37.559)" fill="#167377"/>
      </g>
    </g>
    <g id="Grupo_178604" data-name="Grupo 178604" transform="translate(242.924 295.505)">
      <g id="Grupo_178603" data-name="Grupo 178603" clip-path="url(#clip-path-7)">
        <path id="Trazado_228998" data-name="Trazado 228998" d="M280.351,342.231l.982,10.307,9.1-1.112-.982-10.307Z" transform="translate(-281.238 -342.123)" fill="url(#linear-gradient-4)"/>
      </g>
    </g>
    <g id="Grupo_178606" data-name="Grupo 178606">
      <g id="Grupo_178605" data-name="Grupo 178605" clip-path="url(#clip-path)">
        <path id="Trazado_229000" data-name="Trazado 229000" d="M377.011,274.466a19.142,19.142,0,0,1,1.18,6.9,10.357,10.357,0,0,1-9.884,10.133l-44.659,2.039a2.142,2.142,0,0,0-1.978,1.61c-1.049,4.059-6.178,16.525-31.254,41.4a2.023,2.023,0,0,1-2.5.273l-3.568-2.254a.823.823,0,0,1-.27-1.111l26-44.4a10.062,10.062,0,0,1,6.116-4.534l38.064-9.731Z" transform="translate(-38.807 -37.509)" fill="#26aab7"/>
      </g>
    </g>
    <g id="Grupo_178608" data-name="Grupo 178608" transform="translate(286.311 167.594)">
      <g id="Grupo_178607" data-name="Grupo 178607" clip-path="url(#clip-path-9)">
        <path id="Trazado_229001" data-name="Trazado 229001" d="M324.508,195.724l8.67,21.946,21.177-8.986-8.67-21.946Z" transform="translate(-330.659 -193.114)" fill="#ffb980"/>
      </g>
    </g>
    <g id="Grupo_178610" data-name="Grupo 178610">
      <g id="Grupo_178609" data-name="Grupo 178609" clip-path="url(#clip-path)">
        <path id="Trazado_229003" data-name="Trazado 229003" d="M380.146,265.564s-12.056,2.938-23.565,0c0,0-16.1-21.646-22.332-27.538,0,0-9.936,15.681-32.055,17.9l-1.234-2.758s17.608-8.118,23.024-20.59,7.6-17.792,12.53-21.046c3.071-2.026,4.91-3.41,5.86-4.167a1.577,1.577,0,0,1,1.806-.12c5.239,3.2,29.865,20.063,35.965,58.315" transform="translate(-41.13 -28.292)" fill="#3c4973"/>
        <path id="Trazado_229004" data-name="Trazado 229004" d="M340.419,240.131l-.368-.24,5.958-10.563.4.187a48.422,48.422,0,0,1-5.989,10.616" transform="translate(-46.472 -31.341)" fill="#162248"/>
      </g>
    </g>
    <g id="Grupo_178612" data-name="Grupo 178612" transform="translate(243.193 220.937)">
      <g id="Grupo_178611" data-name="Grupo 178611" clip-path="url(#clip-path-11)">
        <path id="Trazado_229005" data-name="Trazado 229005" d="M281.6,255.686l-.839,4.813,19.972.2.839-4.813Z" transform="translate(-281.563 -255.88)" fill="#ffb980"/>
      </g>
    </g>
    <g id="Grupo_178614" data-name="Grupo 178614" transform="translate(280.356 154.911)">
      <g id="Grupo_178613" data-name="Grupo 178613" clip-path="url(#clip-path-12)">
        <path id="Trazado_229007" data-name="Trazado 229007" d="M324.65,170.984l-9.1,26.687,25.631,9.832,9.1-26.687Z" transform="translate(-323.48 -178.278)" fill="#ffb980"/>
      </g>
    </g>
    <g id="Grupo_178616" data-name="Grupo 178616">
      <g id="Grupo_178615" data-name="Grupo 178615" clip-path="url(#clip-path)">
        <path id="Trazado_229009" data-name="Trazado 229009" d="M339.528,190.751l-.629-.083s3.293-4.975,1.138-6.208-10.932-4.262-12.457-7.719a6,6,0,0,1,3.263-7.837l.116-.047a.339.339,0,0,1,.406.213l.155.42a.34.34,0,0,0,.632.017.34.34,0,0,1,.617-.012c.47,1.037,1.877,2.8,6.1,4.173,6,1.942,9.722,4.962,9.263,9.219a.341.341,0,0,0,.487.345c.49-.217,1.232-.25,2.094.693,1.5,1.639.325,5.225-3.769,7.764a.337.337,0,0,0-.121.463.344.344,0,0,0,.066.08c.611.524,1.474,1.693-1.3,2.735-2.834,1.066-4.381.705-4.952.48a.341.341,0,0,1-.21-.384l.728-3.729a.34.34,0,0,0-.268-.4l-.022,0Z" transform="translate(-44.706 -23.075)" fill="#3c4973"/>
      </g>
    </g>
    <g id="Grupo_178618" data-name="Grupo 178618" transform="translate(294.265 164.486)">
      <g id="Grupo_178617" data-name="Grupo 178617" clip-path="url(#clip-path-14)">
        <path id="Trazado_229010" data-name="Trazado 229010" d="M341.553,187.18l-2.74,8.03,7.129,3.829,2.74-8.03Z" transform="translate(-340.568 -190.066)" fill="#ffb980"/>
      </g>
    </g>
    <g id="Grupo_178620" data-name="Grupo 178620" transform="translate(229.182 225.619)">
      <g id="Grupo_178619" data-name="Grupo 178619" clip-path="url(#clip-path-15)">
        <rect id="Rectángulo_58259" data-name="Rectángulo 58259" width="41.806" height="3.465" transform="translate(0)" fill="url(#linear-gradient-5)"/>
      </g>
    </g>
    <g id="Grupo_178622" data-name="Grupo 178622">
      <g id="Grupo_178621" data-name="Grupo 178621" clip-path="url(#clip-path)">
        <path id="Trazado_229013" data-name="Trazado 229013" d="M291.734,267.578c.167.694,16.167,60.7,20.223,75.911A2.728,2.728,0,0,1,306.713,345c-.012-.041-.023-.082-.033-.124L288.92,272.864Z" transform="translate(-39.485 -36.568)" fill="#3c4973"/>
        <path id="Trazado_229014" data-name="Trazado 229014" d="M278.818,267.578c-.167.694-16.167,60.7-20.224,75.911A2.728,2.728,0,0,0,263.838,345c.012-.041.022-.082.033-.124l17.761-72.008Z" transform="translate(-35.326 -36.568)" fill="#3c4973"/>
        <path id="Trazado_229015" data-name="Trazado 229015" d="M281.264,265.3h9.965v8a2.07,2.07,0,0,1-2.058,2.083H287.8v17.974a1.559,1.559,0,1,1-3.118,0V275.391h-.692a2.747,2.747,0,0,1-2.731-2.758Z" transform="translate(-38.438 -36.257)" fill="#3c4973"/>
        <path id="Trazado_229016" data-name="Trazado 229016" d="M311.984,263.079H256.34a1.709,1.709,0,0,0-1.65,1.3l-.777,3.047a1.72,1.72,0,0,0,1.226,2.1,1.686,1.686,0,0,0,.435.057l57.091-.331a1.722,1.722,0,0,0,1.7-1.747,1.75,1.75,0,0,0-.053-.4l-.675-2.713a1.709,1.709,0,0,0-1.651-1.308" transform="translate(-34.693 -35.953)" fill="#3c4973"/>
      </g>
    </g>
  </g>
</svg>
