<svg xmlns="http://www.w3.org/2000/svg" xmlns:xlink="http://www.w3.org/1999/xlink" width="408" height="315.058" viewBox="0 0 408 315.058">
  <defs>
    <clipPath id="clip-path">
      <rect id="Rectángulo_58379" data-name="Rectángulo 58379" width="385.65" height="315.058" fill="none"/>
    </clipPath>
    <clipPath id="clip-path-3">
      <path id="Trazado_229196" data-name="Trazado 229196" d="M67.394,88.129V248.108c0,8.087,5.721,14.676,12.849,14.8l287.742,4.034c7.066.119,12.858-6.331,12.884-14.35l.482-158.549c.02-5.732-4.007-10.43-9.058-10.571L77.7,76.72c-.083,0-.167,0-.252,0-5.536,0-10.052,5.1-10.052,11.413" transform="translate(-67.394 -76.716)" fill="none"/>
    </clipPath>
    <linearGradient id="linear-gradient" x1="-0.192" y1="1.294" x2="-0.189" y2="1.294" gradientUnits="objectBoundingBox">
      <stop offset="0" stop-color="#fff"/>
      <stop offset="1" stop-color="#f1f7fa"/>
    </linearGradient>
    <clipPath id="clip-path-5">
      <rect id="Rectángulo_58328" data-name="Rectángulo 58328" width="296.766" height="174.67" fill="none"/>
    </clipPath>
    <clipPath id="clip-path-6">
      <rect id="Rectángulo_58336" data-name="Rectángulo 58336" width="92.346" height="147.734" fill="none"/>
    </clipPath>
    <clipPath id="clip-path-7">
      <rect id="Rectángulo_58344" data-name="Rectángulo 58344" width="39.438" height="39.439" fill="none"/>
    </clipPath>
    <clipPath id="clip-path-8">
      <path id="Trazado_229199" data-name="Trazado 229199" d="M88.2,112.168A11.235,11.235,0,1,1,99.435,123.4,11.235,11.235,0,0,1,88.2,112.168M99.435,92.447a19.72,19.72,0,1,0,19.719,19.721A19.719,19.719,0,0,0,99.435,92.447Z" transform="translate(-79.716 -92.447)" fill="none"/>
    </clipPath>
    <clipPath id="clip-path-10">
      <rect id="Rectángulo_58347" data-name="Rectángulo 58347" width="39.439" height="39.439" fill="none"/>
    </clipPath>
    <clipPath id="clip-path-11">
      <path id="Trazado_229201" data-name="Trazado 229201" d="M141.88,112.168A11.234,11.234,0,1,1,153.114,123.4a11.234,11.234,0,0,1-11.234-11.234m-8.486,0a19.72,19.72,0,1,0,19.72-19.72,19.72,19.72,0,0,0-19.72,19.72" transform="translate(-133.394 -92.447)" fill="none"/>
    </clipPath>
    <clipPath id="clip-path-14">
      <path id="Trazado_229203" data-name="Trazado 229203" d="M195.562,112.168A11.234,11.234,0,1,1,206.8,123.4a11.234,11.234,0,0,1-11.234-11.234M206.8,92.447a19.72,19.72,0,1,0,19.719,19.721A19.719,19.719,0,0,0,206.8,92.447Z" transform="translate(-187.077 -92.447)" fill="none"/>
    </clipPath>
    <clipPath id="clip-path-16">
      <rect id="Rectángulo_58353" data-name="Rectángulo 58353" width="38.818" height="19.304" fill="none"/>
    </clipPath>
    <clipPath id="clip-path-19">
      <rect id="Rectángulo_58356" data-name="Rectángulo 58356" width="32.73" height="32.73" fill="none"/>
    </clipPath>
    <clipPath id="clip-path-20">
      <rect id="Rectángulo_58357" data-name="Rectángulo 58357" width="32.73" height="6.062" fill="none"/>
    </clipPath>
    <clipPath id="clip-path-22">
      <rect id="Rectángulo_58359" data-name="Rectángulo 58359" width="32.753" height="6.062" fill="none"/>
    </clipPath>
    <clipPath id="clip-path-23">
      <rect id="Rectángulo_58360" data-name="Rectángulo 58360" width="32.729" height="32.73" fill="none"/>
    </clipPath>
    <clipPath id="clip-path-25">
      <rect id="Rectángulo_58362" data-name="Rectángulo 58362" width="10.112" height="20.778" fill="none"/>
    </clipPath>
    <clipPath id="clip-path-26">
      <rect id="Rectángulo_58363" data-name="Rectángulo 58363" width="4.923" height="20.315" fill="none"/>
    </clipPath>
    <clipPath id="clip-path-27">
      <rect id="Rectángulo_58364" data-name="Rectángulo 58364" width="9.872" height="11.564" fill="none"/>
    </clipPath>
    <clipPath id="clip-path-28">
      <path id="Trazado_229275" data-name="Trazado 229275" d="M132.569,313.133l2.166,22.4a3.1,3.1,0,0,0,3.219,2.552l38.814-1.377a3.444,3.444,0,0,0,2.378-.9,2.531,2.531,0,0,0,.844-2.112l-7.539-76.481c-10.973,15.3-30.595,42.69-39.883,55.913" transform="translate(-132.569 -257.22)" fill="none"/>
    </clipPath>
    <clipPath id="clip-path-29">
      <rect id="Rectángulo_58366" data-name="Rectángulo 58366" width="15.379" height="16.088" fill="none"/>
    </clipPath>
    <clipPath id="clip-path-31">
      <rect id="Rectángulo_58367" data-name="Rectángulo 58367" width="36.962" height="61.573" fill="none"/>
    </clipPath>
    <clipPath id="clip-path-32">
      <rect id="Rectángulo_58368" data-name="Rectángulo 58368" width="23.486" height="69.098" fill="none"/>
    </clipPath>
    <clipPath id="clip-path-33">
      <rect id="Rectángulo_58369" data-name="Rectángulo 58369" width="15.432" height="58.261" fill="none"/>
    </clipPath>
    <clipPath id="clip-path-34">
      <rect id="Rectángulo_58375" data-name="Rectángulo 58375" width="43.318" height="28.029" fill="none"/>
    </clipPath>
    <clipPath id="clip-path-35">
      <rect id="Rectángulo_58376" data-name="Rectángulo 58376" width="5.797" height="21.233" fill="none"/>
    </clipPath>
    <clipPath id="clip-path-36">
      <rect id="Rectángulo_58377" data-name="Rectángulo 58377" width="12.672" height="12.51" fill="none"/>
    </clipPath>
    <clipPath id="clip-path-37">
      <rect id="Rectángulo_58250" data-name="Rectángulo 58250" width="65.888" height="36.268" fill="none"/>
    </clipPath>
    <clipPath id="clip-path-38">
      <rect id="Rectángulo_58244" data-name="Rectángulo 58244" width="65.888" height="36.268" transform="translate(0 0)" fill="none"/>
    </clipPath>
    <clipPath id="clip-path-39">
      <rect id="Rectángulo_58235" data-name="Rectángulo 58235" width="28.262" height="2.704" transform="translate(32.247 5.217)" fill="none"/>
    </clipPath>
    <clipPath id="clip-path-40">
      <rect id="Rectángulo_58237" data-name="Rectángulo 58237" width="28.262" height="2.704" transform="translate(32.247 9.257)" fill="none"/>
    </clipPath>
    <clipPath id="clip-path-41">
      <rect id="Rectángulo_58239" data-name="Rectángulo 58239" width="28.262" height="2.704" transform="translate(32.247 13.297)" fill="none"/>
    </clipPath>
    <clipPath id="clip-path-42">
      <rect id="Rectángulo_58241" data-name="Rectángulo 58241" width="28.262" height="2.704" transform="translate(32.247 17.233)" fill="none"/>
    </clipPath>
    <clipPath id="clip-path-43">
      <rect id="Rectángulo_58243" data-name="Rectángulo 58243" width="19.709" height="2.704" transform="translate(32.247 21.942)" fill="none"/>
    </clipPath>
    <clipPath id="clip-path-44">
      <rect id="Rectángulo_58246" data-name="Rectángulo 58246" width="17.753" height="20.758" rx="3.385" transform="translate(12.274 5.217)" fill="none"/>
    </clipPath>
    <linearGradient id="linear-gradient-2" x1="-0.691" y1="1.496" x2="-0.635" y2="1.496" gradientUnits="objectBoundingBox">
      <stop offset="0" stop-color="#fff"/>
      <stop offset="1" stop-color="#d2e6ee"/>
    </linearGradient>
    <clipPath id="clip-path-46">
      <rect id="Rectángulo_58248" data-name="Rectángulo 58248" width="17.753" height="2.228" transform="translate(12.274 28.56)" fill="none"/>
    </clipPath>
    <clipPath id="clip-path-47">
      <rect id="Rectángulo_58160" data-name="Rectángulo 58160" width="34.303" height="34.309" fill="none"/>
    </clipPath>
  </defs>
  <g id="Grupo_178775" data-name="Grupo 178775" transform="translate(-3141 8369.258)">
    <g id="Grupo_178772" data-name="Grupo 178772" transform="translate(3141 -8369.258)">
      <g id="Grupo_178771" data-name="Grupo 178771" clip-path="url(#clip-path)">
        <g id="Grupo_178678" data-name="Grupo 178678">
          <g id="Grupo_178677" data-name="Grupo 178677" clip-path="url(#clip-path)">
            <path id="Trazado_229195" data-name="Trazado 229195" d="M56.994,88.186V256.572c0,13.852,9.729,25.18,21.934,25.536,54.206,1.587,243.793,5.432,295.393,4.574,8.87-.149,16.054-8.2,16.31-18.26.995-39.118,2.611-133.185-3.369-176.857-1.26-9.2-8.1-16.073-16.3-16.372-45.417-1.649-246.392-6.884-297.968-5.568-8.9.221-16,8.466-16,18.56" transform="translate(-5.955 -7.253)" fill="#00223d"/>
          </g>
        </g>
        <g id="Grupo_178680" data-name="Grupo 178680" transform="translate(60.352 68.7)">
          <g id="Grupo_178679" data-name="Grupo 178679" clip-path="url(#clip-path-3)">
            <rect id="Rectángulo_58327" data-name="Rectángulo 58327" width="313.975" height="190.344" transform="translate(0 -0.001)" fill="url(#linear-gradient)"/>
          </g>
        </g>
        <g id="Grupo_178691" data-name="Grupo 178691">
          <g id="Grupo_178690" data-name="Grupo 178690" clip-path="url(#clip-path)">
            <g id="Grupo_178683" data-name="Grupo 178683" transform="translate(66.901 76.068)" opacity="0.37" style="isolation: isolate">
              <g id="Grupo_178682" data-name="Grupo 178682">
                <g id="Grupo_178681" data-name="Grupo 178681" clip-path="url(#clip-path-5)">
                  <path id="Trazado_229197" data-name="Trazado 229197" d="M74.707,95.423v146.9c0,7.426,5.409,13.477,12.146,13.588l271.985,3.7c6.68.112,12.159-5.813,12.179-13.176l.456-145.583c.018-5.265-3.793-9.578-8.563-9.706l-278.462-6.2c-5.341-.145-9.74,4.592-9.74,10.476" transform="translate(-74.707 -84.944)" fill="#dbdada"/>
                </g>
              </g>
            </g>
            <g id="Grupo_178686" data-name="Grupo 178686" transform="translate(220.043 90.03)" opacity="0.53">
              <g id="Grupo_178685" data-name="Grupo 178685">
                <g id="Grupo_178684" data-name="Grupo 178684" clip-path="url(#clip-path-6)">
                  <rect id="Rectángulo_58329" data-name="Rectángulo 58329" width="8.376" height="147.734" fill="#fff"/>
                  <rect id="Rectángulo_58330" data-name="Rectángulo 58330" width="8.376" height="147.734" transform="translate(13.996)" fill="#fff"/>
                  <rect id="Rectángulo_58331" data-name="Rectángulo 58331" width="8.376" height="147.734" transform="translate(27.99)" fill="#fff"/>
                  <rect id="Rectángulo_58332" data-name="Rectángulo 58332" width="8.376" height="147.734" transform="translate(41.986)" fill="#fff"/>
                  <rect id="Rectángulo_58333" data-name="Rectángulo 58333" width="8.376" height="147.734" transform="translate(55.981)" fill="#fff"/>
                  <rect id="Rectángulo_58334" data-name="Rectángulo 58334" width="8.376" height="147.734" transform="translate(69.976)" fill="#fff"/>
                  <rect id="Rectángulo_58335" data-name="Rectángulo 58335" width="8.376" height="147.734" transform="translate(83.971)" fill="#fff"/>
                </g>
              </g>
            </g>
            <rect id="Rectángulo_58337" data-name="Rectángulo 58337" width="8.376" height="77.314" transform="translate(220.043 160.45)" fill="#8c5be1"/>
            <rect id="Rectángulo_58338" data-name="Rectángulo 58338" width="8.376" height="50.743" transform="translate(234.039 187.021)" fill="#0b67d1"/>
            <path id="Trazado_229306" data-name="Trazado 229306" d="M0,0H8.376V116.414H0Z" transform="translate(248.033 121.351)" fill="#43a99b"/>
            <rect id="Rectángulo_58340" data-name="Rectángulo 58340" width="8.376" height="27.967" transform="translate(262.029 209.798)" fill="#f5ca56"/>
            <rect id="Rectángulo_58341" data-name="Rectángulo 58341" width="8.376" height="100.85" transform="translate(276.024 136.914)" fill="#0b67d1"/>
            <rect id="Rectángulo_58342" data-name="Rectángulo 58342" width="8.376" height="83.389" transform="translate(290.019 154.376)" fill="#f5ca56"/>
            <rect id="Rectángulo_58343" data-name="Rectángulo 58343" width="8.376" height="64.408" transform="translate(304.014 173.355)" fill="#8c5be1"/>
            <g id="Grupo_178689" data-name="Grupo 178689" transform="translate(71.386 82.787)" opacity="0.57" style="isolation: isolate">
              <g id="Grupo_178688" data-name="Grupo 178688">
                <g id="Grupo_178687" data-name="Grupo 178687" clip-path="url(#clip-path-7)">
                  <path id="Trazado_229198" data-name="Trazado 229198" d="M99.435,92.447a19.72,19.72,0,1,0,19.719,19.72,19.719,19.719,0,0,0-19.719-19.72Zm0,30.955a11.235,11.235,0,1,1,11.234-11.235A11.236,11.236,0,0,1,99.435,123.4" transform="translate(-79.716 -92.447)" fill="#fff"/>
                </g>
              </g>
            </g>
          </g>
        </g>
        <g id="Grupo_178693" data-name="Grupo 178693" transform="translate(71.386 82.787)">
          <g id="Grupo_178692" data-name="Grupo 178692" clip-path="url(#clip-path-8)">
            <path id="Trazado_229304" data-name="Trazado 229304" d="M0,0H58.577V24.789H0Z" transform="translate(-7.82 15.383)" fill="#0b67d1"/>
          </g>
        </g>
        <g id="Grupo_178698" data-name="Grupo 178698">
          <g id="Grupo_178697" data-name="Grupo 178697" clip-path="url(#clip-path)">
            <g id="Grupo_178696" data-name="Grupo 178696" transform="translate(119.455 82.787)" opacity="0.57" style="isolation: isolate">
              <g id="Grupo_178695" data-name="Grupo 178695">
                <g id="Grupo_178694" data-name="Grupo 178694" clip-path="url(#clip-path-10)">
                  <path id="Trazado_229200" data-name="Trazado 229200" d="M153.114,92.447a19.72,19.72,0,1,0,19.719,19.72,19.719,19.719,0,0,0-19.719-19.72m0,30.955a11.235,11.235,0,1,1,11.235-11.235A11.234,11.234,0,0,1,153.114,123.4Z" transform="translate(-133.394 -92.447)" fill="#fff"/>
                </g>
              </g>
            </g>
          </g>
        </g>
        <g id="Grupo_178700" data-name="Grupo 178700" transform="translate(119.455 82.787)">
          <g id="Grupo_178699" data-name="Grupo 178699" clip-path="url(#clip-path-11)">
            <rect id="Rectángulo_58349" data-name="Rectángulo 58349" width="58.578" height="34.372" transform="translate(-7.819 5.801)" fill="#7d6eb2"/>
          </g>
        </g>
        <g id="Grupo_178705" data-name="Grupo 178705">
          <g id="Grupo_178704" data-name="Grupo 178704" clip-path="url(#clip-path)">
            <g id="Grupo_178703" data-name="Grupo 178703" transform="translate(167.529 82.787)" opacity="0.57" style="isolation: isolate">
              <g id="Grupo_178702" data-name="Grupo 178702">
                <g id="Grupo_178701" data-name="Grupo 178701" clip-path="url(#clip-path-7)">
                  <path id="Trazado_229202" data-name="Trazado 229202" d="M206.8,92.447a19.72,19.72,0,1,0,19.719,19.72A19.719,19.719,0,0,0,206.8,92.447Zm0,30.955a11.235,11.235,0,1,1,11.235-11.235A11.234,11.234,0,0,1,206.8,123.4Z" transform="translate(-187.077 -92.447)" fill="#fff"/>
                </g>
              </g>
            </g>
          </g>
        </g>
        <g id="Grupo_178707" data-name="Grupo 178707" transform="translate(167.529 82.787)">
          <g id="Grupo_178706" data-name="Grupo 178706" clip-path="url(#clip-path-14)">
            <path id="Trazado_229305" data-name="Trazado 229305" d="M0,0H58.577V12.395H0Z" transform="translate(-7.82 27.778)" fill="#eeac3a"/>
          </g>
        </g>
        <g id="Grupo_178745" data-name="Grupo 178745">
          <g id="Grupo_178744" data-name="Grupo 178744" clip-path="url(#clip-path)">
            <g id="Grupo_178710" data-name="Grupo 178710" transform="translate(75.229 135.363)" opacity="0.48">
              <g id="Grupo_178709" data-name="Grupo 178709">
                <g id="Grupo_178708" data-name="Grupo 178708" clip-path="url(#clip-path-16)">
                  <path id="Trazado_229204" data-name="Trazado 229204" d="M120.272,168.744H86.561c-1.41,0-2.553.8-2.553,1.778s1.143,1.778,2.553,1.778h33.711c1.41,0,2.553-.8,2.553-1.778s-1.143-1.778-2.553-1.778" transform="translate(-84.008 -152.996)" fill="#fff"/>
                  <path id="Trazado_229205" data-name="Trazado 229205" d="M120.272,159.951H86.561c-1.41,0-2.553.8-2.553,1.778s1.143,1.778,2.553,1.778h33.711c1.41,0,2.553-.8,2.553-1.778s-1.143-1.778-2.553-1.778" transform="translate(-84.008 -152.077)" fill="#fff"/>
                  <path id="Trazado_229206" data-name="Trazado 229206" d="M120.272,151.158H86.561c-1.41,0-2.553.8-2.553,1.778s1.143,1.778,2.553,1.778h33.711c1.41,0,2.553-.8,2.553-1.778s-1.143-1.778-2.553-1.778" transform="translate(-84.008 -151.158)" fill="#fff"/>
                </g>
              </g>
            </g>
            <g id="Grupo_178713" data-name="Grupo 178713" transform="translate(122.091 135.363)" opacity="0.48">
              <g id="Grupo_178712" data-name="Grupo 178712">
                <g id="Grupo_178711" data-name="Grupo 178711" clip-path="url(#clip-path-16)">
                  <path id="Trazado_229207" data-name="Trazado 229207" d="M172.6,168.744H138.89c-1.41,0-2.553.8-2.553,1.778s1.144,1.778,2.553,1.778H172.6c1.41,0,2.553-.8,2.553-1.778s-1.144-1.778-2.553-1.778" transform="translate(-136.337 -152.996)" fill="#fff"/>
                  <path id="Trazado_229208" data-name="Trazado 229208" d="M172.6,159.951H138.89c-1.41,0-2.553.8-2.553,1.778s1.144,1.778,2.553,1.778H172.6c1.41,0,2.553-.8,2.553-1.778s-1.144-1.778-2.553-1.778" transform="translate(-136.337 -152.077)" fill="#fff"/>
                  <path id="Trazado_229209" data-name="Trazado 229209" d="M172.6,151.158H138.89c-1.41,0-2.553.8-2.553,1.778s1.144,1.778,2.553,1.778H172.6c1.41,0,2.553-.8,2.553-1.778s-1.144-1.778-2.553-1.778" transform="translate(-136.337 -151.158)" fill="#fff"/>
                </g>
              </g>
            </g>
            <g id="Grupo_178716" data-name="Grupo 178716" transform="translate(168.952 135.363)" opacity="0.48">
              <g id="Grupo_178715" data-name="Grupo 178715">
                <g id="Grupo_178714" data-name="Grupo 178714" clip-path="url(#clip-path-16)">
                  <path id="Trazado_229210" data-name="Trazado 229210" d="M224.931,168.744H191.22c-1.41,0-2.553.8-2.553,1.778s1.144,1.778,2.553,1.778h33.711c1.41,0,2.553-.8,2.553-1.778s-1.143-1.778-2.553-1.778" transform="translate(-188.666 -152.996)" fill="#fff"/>
                  <path id="Trazado_229211" data-name="Trazado 229211" d="M224.931,159.951H191.22c-1.41,0-2.553.8-2.553,1.778s1.144,1.778,2.553,1.778h33.711c1.41,0,2.553-.8,2.553-1.778s-1.143-1.778-2.553-1.778" transform="translate(-188.666 -152.077)" fill="#fff"/>
                  <path id="Trazado_229212" data-name="Trazado 229212" d="M224.931,151.158H191.22c-1.41,0-2.553.8-2.553,1.778s1.144,1.778,2.553,1.778h33.711c1.41,0,2.553-.8,2.553-1.778s-1.143-1.778-2.553-1.778" transform="translate(-188.666 -151.158)" fill="#fff"/>
                </g>
              </g>
            </g>
            <g id="Grupo_178719" data-name="Grupo 178719" transform="translate(320.616 139.134)" opacity="0.91" style="isolation: isolate">
              <g id="Grupo_178718" data-name="Grupo 178718">
                <g id="Grupo_178717" data-name="Grupo 178717" clip-path="url(#clip-path-19)">
                  <path id="Trazado_229213" data-name="Trazado 229213" d="M362.821,160.162a16.365,16.365,0,1,1,0,23.143,16.364,16.364,0,0,1,0-23.143" transform="translate(-358.027 -155.369)" fill="#fff"/>
                </g>
              </g>
            </g>
            <path id="Trazado_229214" data-name="Trazado 229214" d="M384.492,168.709a10.512,10.512,0,1,1-9.724-6.518c.177,0,.354,0,.53.013v-2.665c-.176-.006-.353-.011-.53-.011a13.164,13.164,0,1,0,12.168,8.118Z" transform="translate(-37.786 -16.67)" fill="#12263f"/>
            <g id="Grupo_178722" data-name="Grupo 178722" transform="translate(320.744 178.793)" opacity="0.5" style="isolation: isolate">
              <g id="Grupo_178721" data-name="Grupo 178721">
                <g id="Grupo_178720" data-name="Grupo 178720" clip-path="url(#clip-path-20)">
                  <path id="Trazado_229215" data-name="Trazado 229215" d="M387.858,199.656H361.19a3.031,3.031,0,0,0,0,6.062h26.668a3.031,3.031,0,0,0,.023-6.062Z" transform="translate(-358.17 -199.656)" fill="#fff"/>
                </g>
              </g>
            </g>
            <g id="Grupo_178725" data-name="Grupo 178725" transform="translate(320.546 86.534)" opacity="0.91" style="isolation: isolate">
              <g id="Grupo_178724" data-name="Grupo 178724">
                <g id="Grupo_178723" data-name="Grupo 178723" clip-path="url(#clip-path-19)">
                  <path id="Trazado_229216" data-name="Trazado 229216" d="M374.315,96.632A16.365,16.365,0,1,1,357.95,113a16.364,16.364,0,0,1,16.365-16.364" transform="translate(-357.949 -96.631)" fill="#fff"/>
                </g>
              </g>
            </g>
            <path id="Trazado_229217" data-name="Trazado 229217" d="M380.245,122.86a10.51,10.51,0,1,1-5.6-19.41c.178,0,.355,0,.53.013V100.8c-.175-.007-.352-.012-.53-.012a13.175,13.175,0,1,0,6.922,24.386Z" transform="translate(-37.771 -10.532)" fill="#12263f"/>
            <g id="Grupo_178728" data-name="Grupo 178728" transform="translate(320.792 126.191)" opacity="0.5" style="isolation: isolate">
              <g id="Grupo_178727" data-name="Grupo 178727">
                <g id="Grupo_178726" data-name="Grupo 178726" clip-path="url(#clip-path-22)">
                  <path id="Trazado_229218" data-name="Trazado 229218" d="M387.934,140.916H361.266a3.031,3.031,0,0,0-.023,6.062h26.691a3.031,3.031,0,0,0,.023-6.062Z" transform="translate(-358.224 -140.916)" fill="#fff"/>
                </g>
              </g>
            </g>
            <g id="Grupo_178731" data-name="Grupo 178731" transform="translate(320.675 192)" opacity="0.91" style="isolation: isolate">
              <g id="Grupo_178730" data-name="Grupo 178730">
                <g id="Grupo_178729" data-name="Grupo 178729" clip-path="url(#clip-path-23)">
                  <path id="Trazado_229219" data-name="Trazado 229219" d="M374.457,214.4a16.365,16.365,0,1,1-16.365,16.364A16.364,16.364,0,0,1,374.457,214.4" transform="translate(-358.093 -214.404)" fill="#fff"/>
                </g>
              </g>
            </g>
            <g id="Grupo_178734" data-name="Grupo 178734" transform="translate(320.672 231.127)" opacity="0.5" style="isolation: isolate">
              <g id="Grupo_178733" data-name="Grupo 178733">
                <g id="Grupo_178732" data-name="Grupo 178732" clip-path="url(#clip-path-20)">
                  <path id="Trazado_229220" data-name="Trazado 229220" d="M361.121,264.159h26.668a3.031,3.031,0,0,0,0-6.062H361.121a3.031,3.031,0,1,0,0,6.062" transform="translate(-358.09 -258.097)" fill="#fff"/>
                </g>
              </g>
            </g>
            <path id="Trazado_229221" data-name="Trazado 229221" d="M379.194,230.7a17.351,17.351,0,0,0-1.858,5.173,5.869,5.869,0,0,0,1.533,5.086c2.232,2.06,6.072,1.138,8.111-1.113s2.746-5.37,3.378-8.341q1.487-7,2.976-13.99c.536-2.521,2.93-7.379-1-7.313-3.24.055-5.162,4.044-6.306,6.393q-3.432,7.044-6.833,14.1" transform="translate(-39.422 -21.965)" fill="#398f7c"/>
            <path id="Trazado_229222" data-name="Trazado 229222" d="M377.644,234.211c-.579-.265-1.153-.532-1.716-.819-2.681-1.373-5.122-3.14-7.757-4.589-1.683-.882-3.339-1.821-5.013-2.721-1.249-.672-2.76-2.059-4.142-2.339a3.491,3.491,0,0,0,.809,2.943c-2.485.338-4.968.818-7.5,1.086a2.976,2.976,0,0,0,.813,3.038,4.894,4.894,0,0,0,3.007,1.255c2.874.261,5.909-1.049,8.718-.059,1.88.663,3.406,2.748,4.855,4.093,2.1,1.949,4.185,3.852,6.409,5.649a3.413,3.413,0,0,0,2.606-3.009c.352-1.617.415-3.839-1.091-4.528" transform="translate(-36.801 -23.38)" fill="#a8652d"/>
            <path id="Trazado_229223" data-name="Trazado 229223" d="M405.364,335.234c.911,1.821,4.171,8.219,1.967,9.857a4,4,0,0,1-1.049.5l-2.428.872a52.092,52.092,0,0,1-14.41,2.86,2,2,0,0,1-1.435-.25c-1.775-1.431,1.812-1.792,2.379-2.068,1.591-.775,3.134-2.706,4.307-4a27.211,27.211,0,0,0,4.084-5.412c.7-1.3.243-1.264,1.414-2.074a46.948,46.948,0,0,1,4.638-1.321c.174.331.353.678.532,1.036" transform="translate(-40.493 -34.921)" fill="#3d535c"/>
            <path id="Trazado_229224" data-name="Trazado 229224" d="M384.846,267.616c.01-.475.015-.953.027-1.427l15.424-13.5c.361.559.7,1.135,1,1.722a18.093,18.093,0,0,1,2.049,7.842,26.409,26.409,0,0,1-.972,7.355c-.709,2.765-1.5,5.5-2.08,8.3-.625,3.033-1.149,6.126-2.046,9.1-.709,2.349-1.747,4.566-1.628,7.074a10.352,10.352,0,0,0,.529,3.155,11.149,11.149,0,0,0,1.694,2.676,33.424,33.424,0,0,1,4.043,6.459A22.718,22.718,0,0,1,404.682,314a57.642,57.642,0,0,0,.968,8.514c.225.947.7,1.8.944,2.733a6.215,6.215,0,0,1,.069,2.361l-6.7,1.563a9.412,9.412,0,0,1-.655-2.206c-.146-.936-.079-1.89-.2-2.83a18.062,18.062,0,0,0-2.084-5.968c-1.153-2.228-2.3-4.458-3.307-6.76a51.776,51.776,0,0,0-2.894-6.26A38.669,38.669,0,0,0,386.6,300.2a6.12,6.12,0,0,1-1.621-3.39,21.837,21.837,0,0,1,.059-3.335c.046-.943.031-1.891,0-2.834-.09-2.714-.185-5.428-.227-8.141-.091-5.18.707-10.955-.123-16-.792-4.806-1.674-8.923,2.138-12.928a12.014,12.014,0,0,1,13.96-2.243,2.1,2.1,0,0,1-.807,2.443" transform="translate(-40.125 -26.125)" fill="#59889c"/>
            <path id="Trazado_229225" data-name="Trazado 229225" d="M396.441,338.964c.489,1.976,2.27,8.934-.24,10.048a3.981,3.981,0,0,1-1.133.255l-2.559.32a119.563,119.563,0,0,1-13.665.772c-2.142.023-5.075-1.094-1.491-2.41a30.877,30.877,0,0,0,6.978-3.741,27.21,27.21,0,0,0,5.171-4.386c.969-1.118.513-1.179,1.833-1.713a46.867,46.867,0,0,1,4.815-.273c.1.362.2.739.292,1.127" transform="translate(-39.255 -35.301)" fill="#4a6570"/>
            <path id="Trazado_229226" data-name="Trazado 229226" d="M394.184,253.064c3.031-2.023,9.041-3.029,12.145-.47,3.211,2.648,1.117,6.726.312,10.754-2.169,10.843-7.355,19.2-11.07,29.206-1.969,5.308,1.295,9.328,2.406,14.309,1.529,6.855-.51,13.65-.262,20.474a6.223,6.223,0,0,1-.452,2.318l-6.881.051a9.359,9.359,0,0,1-.155-2.3c.063-.945.338-1.861.424-2.806a18.082,18.082,0,0,0-.721-6.279c-1.112-4.237-2.05-9.249-3.5-13.663-1.591-4.846-3.221-7.452-2.671-12.657.869-8.215,3.841-15.949,5.142-24.062.877-5.468.03-11.375,5.283-14.881" transform="translate(-40.089 -26.235)" fill="#729cad"/>
            <path id="Trazado_229227" data-name="Trazado 229227" d="M386.918,260.216a15.584,15.584,0,0,0,8.048,4.943,12.554,12.554,0,0,0,9.26-1.362,5.652,5.652,0,0,0,2.421-2.547,2.872,2.872,0,0,0-.657-3.269,4.508,4.508,0,0,0-2.625-.706l-18.714-1.067a7.291,7.291,0,0,0,5.915,6.45" transform="translate(-40.193 -26.772)" fill="#59889c"/>
            <path id="Trazado_229228" data-name="Trazado 229228" d="M389.963,201.8c2.581,1.458,5.75.3,8.64.061.527-.064-.068-2.747-.159-3.024a22.816,22.816,0,0,0-3.08-6.764,25.122,25.122,0,0,0-3.727-4.564c-.4-.338-5.46-3.056-5.479-2.7a48.83,48.83,0,0,0,.633,8.708c.294,2.361.124,5.489,1.967,7.356a5.49,5.49,0,0,0,1.205.93" transform="translate(-40.347 -19.308)" fill="#4d3426"/>
            <path id="Trazado_229229" data-name="Trazado 229229" d="M391.139,177.349a11.644,11.644,0,0,1,9.053-.291c4.806,2.242,5.271,6.877,5.984,11.5.337,2.183,2.679,9.012.985,10.778a3.32,3.32,0,0,1-1.652.762l-5.086,1.279a9.25,9.25,0,0,1-3.69.41c-2.909-.471-3.087-2.75-4.092-4.881-1.178-2.5-3.119-4.7-4.328-7.236-1.27-2.665-2.728-6.395-1-9.191a8.442,8.442,0,0,1,3.825-3.129" transform="translate(-40.389 -18.42)" fill="#4d3426"/>
            <path id="Trazado_229230" data-name="Trazado 229230" d="M406.208,241.7c0,.627.018,1.251.05,1.873.205,3.953,3.513,7.063-.493,10.557-1.955,1.706-4.663,2.266-7.255,2.378-7.517.325-19.158-1.951-15.874-11.313a39.773,39.773,0,0,0,1.818-15.051c-.2-2.457-.707-4.886-.8-7.349-.166-4.693,2.206-6.718,4.343-10.433,1.821-3.165,3.9-5.661,7.6-6.55a30.482,30.482,0,0,1,6.218-.45,5.509,5.509,0,0,1,4.7,2.069c1.9,2.215.907,4.528.655,7.336-.566,6.291-.592,12.613-.72,18.924-.053,2.643-.262,5.347-.251,8.01" transform="translate(-39.923 -21.459)" fill="#48b59d"/>
            <path id="Trazado_229231" data-name="Trazado 229231" d="M400.739,227.035a11.89,11.89,0,0,0,1.756,3.5l7.4,11.415a101.329,101.329,0,0,0-1.023-18,9.676,9.676,0,0,0-1.321-4.178c-3.983-5.746-7.646,3.921-6.817,7.264" transform="translate(-41.862 -22.778)" fill="#398f7c"/>
            <path id="Trazado_229232" data-name="Trazado 229232" d="M403.486,246.473c-.27.577-.543,1.148-.836,1.708a38.711,38.711,0,0,1-4.386,6.513c-3.055,3.728-6.3,7.372-8.164,11.756-.166.39,1.885-.339,1.993-.4.733-.443,1.281-1.642,1.761-2.314a41.5,41.5,0,0,1-2.506,8.041c-.259.716,4.56-1.184,5.126-1.9,1.51-1.907,2.371-4.834,3-7.145a10.527,10.527,0,0,1,.846-2.532c1.224-2.181,3.271-3.983,4.974-5.782,1.969-2.078,3.892-4.147,5.711-6.355a3.41,3.41,0,0,0-2.984-2.635c-1.614-.368-3.835-.452-4.538,1.047" transform="translate(-40.762 -25.622)" fill="#a8652d"/>
            <path id="Trazado_229233" data-name="Trazado 229233" d="M406.525,230.113c.279,1.236.637,2.449.977,3.668a9.894,9.894,0,0,1,.484,2.16,5.408,5.408,0,0,1-1,2.414c-.526.935-1.147,1.784-1.754,2.665-.253.364-1,1.273-.286,1.527a6.333,6.333,0,0,0,2.413-.073,5.7,5.7,0,0,1,3.7.512,4.532,4.532,0,0,1,.51.415c.218.2.606.75.952.753.274,0,.44-.316.569-.513.317-.5.606-1.006.917-1.5a11.638,11.638,0,0,0,1.966-4.266,24.9,24.9,0,0,0-.292-6.012c-.244-2.406-.466-4.819-.91-7.2a20.986,20.986,0,0,1-.489-3.206c-.033-1.1.064-2.208.018-3.308a13.576,13.576,0,0,0-5.172-9.695,10.065,10.065,0,0,0-2.3-1.133,2.728,2.728,0,0,0-1.44-.21c-.757.185-.741,1.222-.842,1.834-.247,1.514-1.15,2.613-1.522,4.027a10.632,10.632,0,0,0,.6,7.616c1.564,3.162,2.113,6.11,2.888,9.525" transform="translate(-42.069 -21.638)" fill="#48b59d"/>
            <path id="Trazado_229234" data-name="Trazado 229234" d="M387.86,196.536a3,3,0,0,0,1.122,1.918c1.649,1.2,4.385.149,5.158,2.592.166.533.5,1.265.664,1.987a2.122,2.122,0,0,1-.137,1.6c-.132.206-.378.417-.321.687s.378.417.606.5a3.569,3.569,0,0,0,1.5.115c2.942-.239,5.177-1.764,7.756-2.856-.752-1.107-2.271-1.633-3.031-2.823-1.258-1.972-1.333-4.876-1.061-7.13.219-1.824,1.761-3.37,1.107-5.179-.464-1.281-1.735-.938-2.347.012a13.706,13.706,0,0,0-.841,1.787c-.178.383-.39.87-.882.67-1.727-.688-.9-4.006-1.676-5.48A6.143,6.143,0,0,0,392,182.225c-.859-.327-2.347-.859-3.223-.3-.555.361-.744,1.151-.968,1.729-.252.664-.595,1.293-.79,1.975-.807,2.914.206,8.015.842,10.905" transform="translate(-40.41 -18.984)" fill="#a8652d"/>
            <path id="Trazado_229235" data-name="Trazado 229235" d="M395.808,176.892a10.251,10.251,0,0,1,6.089,6.83c.79,2.777.437,4.8-.174,7.556l-1.631-4.846c-.7.158-1.661.116-1.881.878-.181.628.116,1.28-.162,1.973-.986-.629-2.331-1.538-2.7-2.718a23.772,23.772,0,0,1-.537-3.535c.124.858-.416,1.864-.424,2.744a10.025,10.025,0,0,0-2,.09c-2.955.2-2.066-1.959-2.609-3.819-.037.285-.262,3.407-.317,3.409l-3.422.107a4.413,4.413,0,0,1,.092-3.672c.87-2.115,1.27-3.353,3.28-4.443a7.661,7.661,0,0,1,6.393-.554" transform="translate(-40.302 -18.436)" fill="#4d3426"/>
            <path id="Trazado_229236" data-name="Trazado 229236" d="M389.9,200.453l-.11,0a8.232,8.232,0,0,0,2.736.78,2.513,2.513,0,0,1,1.939,1.694c.205.656.459,1.36.69,1.978.556-.473.6-1.426.737-2.093a10.63,10.63,0,0,0,.209-1.9c.039-1.849-1.558-1.109-2.751-.908a25.137,25.137,0,0,1-3.449.441" transform="translate(-40.73 -20.867)" fill="#96431f"/>
            <path id="Trazado_229237" data-name="Trazado 229237" d="M388.3,192.016a32.064,32.064,0,0,1,6.555.478.167.167,0,0,1,.044-.182c.987-.9,2-1.774,3.039-2.619.256-.21.626.15.368.368q-1.517,1.283-3.1,2.488l.216.035a7.872,7.872,0,0,1,.057,5.307,6.741,6.741,0,0,0,4.332-5.184.172.172,0,0,1,.336.046c.083,2.286-2.511,5.257-4.778,5.494-.082.249-.141.4-.141.4a4.352,4.352,0,0,1-5.766.76c-3.257-2.185-2.746-6.271-2.746-6.271s-.455-.834,1.584-1.116" transform="translate(-40.405 -19.815)" fill="#fff"/>
            <path id="Trazado_229238" data-name="Trazado 229238" d="M359.519,230.918a6.207,6.207,0,0,0-1.057-1.387l-1.219-1.46c-.2-.235-.525.1-.334.334l.116.142a26.574,26.574,0,0,0-4.836.721.187.187,0,0,0,.049.365,25.219,25.219,0,0,0,5.078-.728l.8.973a6.038,6.038,0,0,0,1.161,1.282c.166.111.305-.1.244-.244" transform="translate(-36.788 -23.824)" fill="#96431f"/>
            <path id="Trazado_229239" data-name="Trazado 229239" d="M358.091,230.123a31.368,31.368,0,0,0-4.838.724c-.292.049-.166.484.122.441a31.057,31.057,0,0,0,4.763-.818.177.177,0,0,0-.047-.347" transform="translate(-36.895 -24.046)" fill="#96431f"/>
            <path id="Trazado_229240" data-name="Trazado 229240" d="M359.189,231.185a6.187,6.187,0,0,0-1.642.427l-1.812.586c-.281.09-.164.53.123.445l1.823-.544a6.218,6.218,0,0,0,1.6-.575.184.184,0,0,0-.092-.339" transform="translate(-37.155 -24.157)" fill="#96431f"/>
            <path id="Trazado_229241" data-name="Trazado 229241" d="M395.447,268.811c-.524.052-1.178,1.744-2.418,5.138-.073.2.238.324.339.143a25.951,25.951,0,0,0,2.4-5.146c.057-.2-.129-.155-.322-.136" transform="translate(-41.068 -28.087)" fill="#96431f"/>
            <path id="Trazado_229242" data-name="Trazado 229242" d="M397.055,269.262a9.928,9.928,0,0,1-2.1,4.357.216.216,0,0,0,.305.305,6.358,6.358,0,0,0,2.119-4.618.166.166,0,0,0-.324-.044" transform="translate(-41.264 -28.124)" fill="#96431f"/>
            <path id="Trazado_229243" data-name="Trazado 229243" d="M48.493,63.887c1.358-.641,2.558-1.219,3.612-1.733-.315-1.136-.63-2.265-.946-3.4-.337-1.125-.657-2.261-.974-3.4-1.179.131-2.494.272-3.993.44l-3.01.343a19.1,19.1,0,0,0-3.828-4.689l.99-2.925c.494-1.412.918-2.673,1.315-3.792-1.033-.57-2.064-1.141-3.091-1.7S36.481,41.9,35.45,41.334c-.732.939-1.549,1.973-2.472,3.168l-1.95,2.472a19.3,19.3,0,0,0-5.27-.62l-1.282-2.83c-.619-1.364-1.158-2.57-1.657-3.656-1.141.294-2.283.593-3.412.887l-3.412.886c.108,1.19.206,2.51.353,4l.272,3.091a19.852,19.852,0,0,0-4.314,3.129L9.529,50.7c-1.391-.587-2.608-1.1-3.722-1.553-.625,1-1.25,2-1.873,2.983l-1.874,3c.89.788,1.874,1.684,2.972,2.681l2.211,1.967a19.766,19.766,0,0,0-1.06,7.067L3.624,68.07C2.266,68.711,1.065,69.289,0,69.776c.316,1.136.636,2.272.975,3.4.315,1.136.63,2.265.946,3.4,1.184-.13,2.516-.277,4-.417l2.733-.294a19.6,19.6,0,0,0,4.021,5.1l-.869,2.462c-.494,1.407-.919,2.667-1.315,3.787,1.032.57,2.059,1.125,3.091,1.694S15.658,90.048,16.7,90.6c.731-.919,1.57-1.956,2.483-3.118l1.635-2.06a19.023,19.023,0,0,0,5.748.7l1.059,2.375c.6,1.375,1.152,2.575,1.631,3.646q1.71-.447,3.411-.886c1.136-.294,2.276-.592,3.412-.886-.1-1.169-.206-2.489-.326-3.982l-.228-2.662a20.141,20.141,0,0,0,4.631-3.456l2.472,1.016c1.39.57,2.6,1.069,3.71,1.511.63-.975,1.256-1.983,1.881-2.983s1.25-1.984,1.873-2.983c-.89-.788-1.873-1.684-2.994-2.673l-2.113-1.858a19.29,19.29,0,0,0,.907-7.135ZM29.187,78.042a12.464,12.464,0,1,1,8.932-15.2,12.465,12.465,0,0,1-8.932,15.2" transform="translate(0 -4.166)" fill="#48b59d"/>
            <path id="Trazado_229244" data-name="Trazado 229244" d="M25.1,82.329A15.28,15.28,0,1,1,42.448,69.452,15.28,15.28,0,0,1,25.1,82.329m4.108-27.7A12.726,12.726,0,1,0,39.925,69.079v0A12.742,12.742,0,0,0,29.2,54.625Z" transform="translate(-1.259 -5.426)" fill="#00223d"/>
            <path id="Trazado_229245" data-name="Trazado 229245" d="M48.071,12.3c.767-.647,1.434-1.219,2.033-1.739-.4-.674-.8-1.348-1.2-2.027S48.1,7.19,47.7,6.509c-.739.287-1.56.6-2.5.974l-1.874.732a12.865,12.865,0,0,0-3.266-2.364l.131-2.06c.075-.99.135-1.874.2-2.662-.76-.19-1.527-.38-2.283-.559S36.568.194,35.808,0c-.31.731-.656,1.538-1.05,2.461l-.831,1.924a12.742,12.742,0,0,0-3.493.505l-1.315-1.6c-.63-.771-1.185-1.456-1.7-2.071q-1.018.579-2.048,1.157L23.333,3.531c.272.744.56,1.575.908,2.51l.707,1.95A13.419,13.419,0,0,0,22.7,10.746l-1.984-.272c-.994-.141-1.863-.255-2.662-.365-.227.756-.457,1.505-.7,2.244s-.461,1.505-.69,2.255q1.058.529,2.369,1.218l1.766.887a13,13,0,0,0,.527,4.726l-1.44,1.219c-.767.647-1.44,1.218-2.037,1.727.4.673.793,1.348,1.206,2.016s.793,1.352,1.19,2.026c.739-.282,1.576-.609,2.506-.956l1.706-.652a13.108,13.108,0,0,0,3.46,2.592l-.136,1.733c-.076.995-.135,1.874-.2,2.663.76.19,1.515.365,2.282.565s1.522.38,2.293.554c.316-.723.674-1.531,1.065-2.437l.7-1.609a12.538,12.538,0,0,0,3.82-.537l1.1,1.348c.619.783,1.184,1.462,1.673,2.072L42.565,32.6l2.049-1.158c-.266-.731-.56-1.564-.9-2.5l-.6-1.674A13.609,13.609,0,0,0,45.5,24.247l1.766.228c.99.13,1.858.244,2.645.342.244-.739.467-1.494.7-2.244s.467-1.495.7-2.245c-.707-.353-1.494-.76-2.385-1.206l-1.679-.837a12.825,12.825,0,0,0-.636-4.752Zm-10,12.416A8.3,8.3,0,1,1,41.214,13.4a8.3,8.3,0,0,1-3.146,11.311h0" transform="translate(-1.742)" fill="#00223d"/>
            <path id="Trazado_229246" data-name="Trazado 229246" d="M35.974,28.428a10.182,10.182,0,1,1,8.97-11.264h0a10.2,10.2,0,0,1-8.97,11.263M33.87,9.886a8.481,8.481,0,1,0,9.382,7.471h0a8.5,8.5,0,0,0-9.382-7.47" transform="translate(-2.575 -0.849)" fill="#f6c343"/>
            <path id="Trazado_229247" data-name="Trazado 229247" d="M84.925,36.029q1.24-.93,2.2-1.662-.548-1.084-1.1-2.168c-.372-.723-.75-1.434-1.119-2.156-.777.25-1.646.521-2.635.842l-1.983.641a13.222,13.222,0,0,0-3.222-2.641l.266-2.114c.141-1.016.256-1.928.365-2.738-.777-.244-1.554-.487-2.315-.717s-1.564-.488-2.336-.732c-.365.732-.771,1.538-1.239,2.472l-.974,1.933a13.3,13.3,0,0,0-3.64.3l-1.255-1.733c-.6-.837-1.129-1.576-1.614-2.245l-2.183,1.066q-1.1.537-2.185,1.065c.234.788.488,1.668.783,2.652l.6,2.048a13.777,13.777,0,0,0-2.483,2.7l-2.032-.4c-1.016-.206-1.9-.38-2.716-.537-.288.76-.57,1.522-.864,2.272l-.853,2.282c.707.407,1.489.88,2.37,1.4l1.761,1.021a13.634,13.634,0,0,0,.25,4.912l-1.56,1.174c-.831.609-1.56,1.169-2.212,1.646q.549,1.084,1.119,2.163c.38.718.731,1.441,1.1,2.163.783-.25,1.662-.532,2.645-.831l1.8-.57a13.567,13.567,0,0,0,3.412,2.9l-.244,1.777c-.141,1.016-.256,1.923-.366,2.733.772.25,1.543.477,2.316.723s1.554.487,2.331.717c.365-.723.793-1.538,1.25-2.446l.82-1.613a13.116,13.116,0,0,0,3.977-.316L74.2,55.462c.593.843,1.13,1.584,1.6,2.239.732-.358,1.462-.712,2.185-1.065s1.456-.712,2.183-1.065c-.227-.778-.477-1.653-.767-2.646l-.517-1.761A13.965,13.965,0,0,0,81.536,48.2l1.81.347c1.01.2,1.9.365,2.711.517.288-.75.57-1.512.853-2.272s.577-1.511.853-2.271c-.707-.407-1.494-.879-2.384-1.4l-1.684-.962a13.121,13.121,0,0,0-.358-4.939ZM73.836,48.214a8.581,8.581,0,1,1,3.95-11.475,8.581,8.581,0,0,1-3.95,11.475h0Z" transform="translate(-5.474 -2.36)" fill="#00223d"/>
            <path id="Trazado_229248" data-name="Trazado 229248" d="M71.473,51.849a10.52,10.52,0,1,1,9.954-11.057,10.519,10.519,0,0,1-9.954,11.057M70.457,32.6a8.762,8.762,0,1,0,9.209,8.291v0a8.774,8.774,0,0,0-9.209-8.289Z" transform="translate(-6.312 -3.221)" fill="#f6c343"/>
            <path id="Trazado_229249" data-name="Trazado 229249" d="M151.728,332.677l-33.67,1.195c-2.9,0-5.317-1.915-5.558-4.4L99.554,195.7c-.27-2.8,2.3-5.2,5.558-5.2l33.67,1.195c2.9,0,5.317,1.915,5.557,4.4l12.946,131.383c.27,2.8-2.3,5.2-5.558,5.2" transform="translate(-10.401 -19.905)" fill="#516a7d"/>
            <path id="Trazado_229250" data-name="Trazado 229250" d="M156.978,332.677l-33.67,1.195c-2.9,0-5.317-1.915-5.558-4.4L104.8,195.7c-.27-2.8,2.3-5.2,5.558-5.2l33.67,1.195c2.9,0,5.317,1.915,5.558,4.4l12.946,131.383c.27,2.8-2.3,5.2-5.558,5.2" transform="translate(-10.949 -19.905)" fill="#8ba7ba"/>
            <path id="Trazado_229251" data-name="Trazado 229251" d="M158.012,332.677l-33.67,1.195c-2.9,0-5.318-1.915-5.558-4.4L105.838,195.7c-.271-2.8,2.294-5.2,5.558-5.2l33.669,1.195c2.9,0,5.317,1.915,5.558,4.4l12.945,131.383c.27,2.8-2.3,5.2-5.558,5.2" transform="translate(-11.057 -19.905)" fill="#2a3942"/>
            <path id="Trazado_229252" data-name="Trazado 229252" d="M160.4,329.786a2.983,2.983,0,0,1-2.063.781l-33.67,1.195a2.685,2.685,0,0,1-2.791-2.215l-1.88-19.435L108.929,195.775a2.179,2.179,0,0,1,.728-1.832,2.984,2.984,0,0,1,2.063-.78l33.67,1.195a2.687,2.687,0,0,1,2.792,2.215l6.408,65.038,6.539,66.344a2.194,2.194,0,0,1-.733,1.832" transform="translate(-11.381 -20.184)" fill="#e8d127"/>
            <path id="Trazado_229253" data-name="Trazado 229253" d="M154.771,260.25l-35.757,37.318-2.034-21.016,37-23.463Z" transform="translate(-12.224 -26.446)" fill="#fff74d"/>
            <path id="Trazado_229254" data-name="Trazado 229254" d="M161.689,337.773a2.983,2.983,0,0,1-2.063.781l-33.67,1.195a2.685,2.685,0,0,1-2.791-2.215l-1.88-19.435c8.057-11.471,25.079-35.232,34.6-48.5l6.539,66.344a2.194,2.194,0,0,1-.733,1.832" transform="translate(-12.673 -28.171)" fill="#fff74d"/>
            <path id="Trazado_229255" data-name="Trazado 229255" d="M121.936,193.163l1.744,2.693a1.866,1.866,0,0,0,1.351.6l14.142.177a1.868,1.868,0,0,0,1.477-.695l1.6-2.778Z" transform="translate(-12.741 -20.184)" fill="#2a3942"/>
            <path id="Trazado_229256" data-name="Trazado 229256" d="M134.761,321.607c.3,3.683-1.265,6.813-3.486,6.991s-4.26-2.663-4.555-6.346,1.265-6.813,3.485-6.991,4.261,2.662,4.556,6.346" transform="translate(-13.238 -32.942)" fill="#48b59d"/>
            <path id="Trazado_229257" data-name="Trazado 229257" d="M147.7,320.523c.3,3.683-1.265,6.813-3.486,6.991s-4.26-2.663-4.555-6.346,1.265-6.813,3.485-6.991,4.261,2.662,4.556,6.346" transform="translate(-14.589 -32.829)" fill="#48b59d"/>
            <path id="Trazado_229258" data-name="Trazado 229258" d="M160.284,319.3c.3,3.683-1.265,6.813-3.486,6.991s-4.26-2.663-4.555-6.346,1.265-6.813,3.485-6.991,4.261,2.662,4.556,6.346" transform="translate(-15.905 -32.7)" fill="#48b59d"/>
            <path id="Trazado_229259" data-name="Trazado 229259" d="M149.295,243.63c1.012,12.812-4.431,23.692-12.157,24.3s-14.808-9.282-15.819-22.094,4.431-23.693,12.156-24.3,14.808,9.282,15.82,22.094" transform="translate(-12.664 -23.146)" fill="#effffb"/>
            <path id="Trazado_229260" data-name="Trazado 229260" d="M128.18,250.108l6.726,7.754a2.067,2.067,0,0,0,3.482-.587l7.33-18.34a2.067,2.067,0,0,0-.014-1.568l-.012-.029a2.067,2.067,0,0,0-3.826.035L135.7,252.8l-4.359-5.353a2.067,2.067,0,1,0-3.165,2.66" transform="translate(-13.341 -24.668)" fill="#48b59d"/>
            <path id="Trazado_229261" data-name="Trazado 229261" d="M125.148,289.7a1,1,0,0,1-.055-1.99l28.676-1.593a1,1,0,1,1,.11,1.988L125.2,289.7c-.019,0-.038,0-.056,0" transform="translate(-12.973 -29.897)" fill="#effffb"/>
            <path id="Trazado_229262" data-name="Trazado 229262" d="M145.827,209.769H145.8l-28.675-.8a1,1,0,1,1,.056-1.991l28.675.8a1,1,0,0,1-.027,1.991" transform="translate(-12.137 -21.628)" fill="#effffb"/>
            <path id="Trazado_229263" data-name="Trazado 229263" d="M125.148,298.215a1,1,0,0,1-.068-1.989l28.676-1.992a1,1,0,0,1,.138,1.987l-28.676,1.991-.07,0" transform="translate(-12.973 -30.745)" fill="#effffb"/>
            <path id="Trazado_229264" data-name="Trazado 229264" d="M185.935,200.824s-2.163-7.438-2.288-8.641-.8-5.105,1.144-6.253.8-4.591,2.863-5.28c2.264-.755,5.086-.623,7.432-.544,2.906.1,6.661,1.428,7.894,4.389.912,2.189-.208,6.156-.7,8.423Z" transform="translate(-19.167 -18.813)" fill="#4d3426"/>
            <g id="Grupo_178737" data-name="Grupo 178737" transform="translate(164.266 161.232)" opacity="0.52" style="mix-blend-mode: overlay;isolation: isolate">
              <g id="Grupo_178736" data-name="Grupo 178736">
                <g id="Grupo_178735" data-name="Grupo 178735" clip-path="url(#clip-path-25)">
                  <path id="Trazado_229265" data-name="Trazado 229265" d="M185.563,192.184c-.125-1.2-.8-5.105,1.144-6.253s.8-4.591,2.864-5.28a14,14,0,0,1,3.974-.591,17.881,17.881,0,0,0-5.89.591c-2.067.689-.919,4.132-2.864,5.28s-1.269,5.051-1.144,6.253,2.288,8.641,2.288,8.641l1.681-.813c-.563-1.961-1.954-6.869-2.053-7.828" transform="translate(-183.433 -180.046)" fill="#fff200"/>
                </g>
              </g>
            </g>
            <path id="Trazado_229266" data-name="Trazado 229266" d="M201.176,201.244a3.244,3.244,0,0,1-1.214,2.075c-1.784,1.3-4.744.161-5.58,2.806-.18.576-.545,1.369-.719,2.149a2.3,2.3,0,0,0,.149,1.735c.142.223.409.452.347.743s-.409.452-.657.544a3.873,3.873,0,0,1-1.623.124c-2.31-.176-6.81-1.239-7.437-3.982a4.415,4.415,0,0,1,.266-2.215c.819-2.732,2.627-6.445,2.191-9.329a7.811,7.811,0,0,1-1.049-.69,2.051,2.051,0,0,1-.428-1.372,3.338,3.338,0,0,1,1.89-2.539c1.664-.782,2.313,1.432,2.858,2.611.193.415.422.941.955.724a1.508,1.508,0,0,0,1.084-1.393,3.849,3.849,0,0,1,.031-1.555c.458-1.189,1.907-1.746,2.681-2.695a3.077,3.077,0,0,0,.57-2.173c.018-.626.706-.861,1.207-1.053.93-.353,2.54-.93,3.487-.322.6.39.805,1.245,1.047,1.871.273.718.645,1.4.855,2.137.873,3.153-.223,8.671-.911,11.8" transform="translate(-19.267 -19.349)" fill="#ffb980"/>
            <g id="Grupo_178740" data-name="Grupo 178740" transform="translate(165.116 171.318)" opacity="0.52" style="mix-blend-mode: overlay;isolation: isolate">
              <g id="Grupo_178739" data-name="Grupo 178739">
                <g id="Grupo_178738" data-name="Grupo 178738" clip-path="url(#clip-path-26)">
                  <path id="Trazado_229267" data-name="Trazado 229267" d="M188.38,198.229c.181-2.408.382-4.322.427-4.836a2.364,2.364,0,0,0-.334-1.817c-1.092-1.218-3.012,2.05-3.05,2.9a2.051,2.051,0,0,0,.428,1.372,7.811,7.811,0,0,0,1.049.69c.434,2.884-1.372,6.6-2.191,9.329a4.415,4.415,0,0,0-.266,2.215c.434,1.9,2.728,2.994,4.864,3.544-1.63-.42-1.325-8.1-.927-13.394" transform="translate(-184.383 -191.308)" fill="#fff200"/>
                </g>
              </g>
            </g>
            <path id="Trazado_229268" data-name="Trazado 229268" d="M202.577,189.444c-.21-.737-.582-1.418-.854-2.137-.242-.626-.446-1.48-1.047-1.871-.89-.57-2.364-.1-3.31.255.122,4.093.689,8.18-2.235,11.1-.919,1.378-4.132-.458-4.591.919a21.384,21.384,0,0,0-.742,13.268,15.333,15.333,0,0,0,2.573.438,3.874,3.874,0,0,0,1.623-.124c.247-.092.595-.26.656-.544s-.2-.52-.347-.743a2.3,2.3,0,0,1-.149-1.735c.173-.78.538-1.573.718-2.149.836-2.644,3.8-1.505,5.581-2.806a3.247,3.247,0,0,0,1.213-2.075c.688-3.128,1.784-8.646.911-11.8" transform="translate(-19.757 -19.349)" fill="#ffb980"/>
            <path id="Trazado_229269" data-name="Trazado 229269" d="M200.28,205.48l.119,0a8.89,8.89,0,0,1-2.96.844,2.721,2.721,0,0,0-2.1,1.834c-.221.71-.5,1.471-.745,2.14-.6-.512-.65-1.542-.8-2.265a11.439,11.439,0,0,1-.226-2.052c-.042-2,1.685-1.2,2.976-.982a27.3,27.3,0,0,0,3.732.478" transform="translate(-20.227 -21.386)" fill="#ff7657"/>
            <path id="Trazado_229270" data-name="Trazado 229270" d="M200.945,196.337a34.611,34.611,0,0,0-7.092.518.181.181,0,0,0-.047-.2c-.606-.553-1.21-1.164-1.864-1.658-.68-.513-1.465-.927-2.184-1.383.332.788.814.994,1.432,1.5.752.612,1.512,1.214,2.284,1.8l-.234.038a6.381,6.381,0,0,0-.531,3.077,10.605,10.605,0,0,0,.178,1.465c.069.363.354.84.19,1.2a7.228,7.228,0,0,1-1.693-1.23,24.564,24.564,0,0,1-4.625-4.942,10.926,10.926,0,0,1,.511,1.233,7.543,7.543,0,0,0,.991,1.266c.543.628,1.133,1.2,1.688,1.805a7.456,7.456,0,0,0,1.254,1.163,9.1,9.1,0,0,0,1.077.647c.156.079.97.3,1.016.441.089.27.153.43.153.43a4.708,4.708,0,0,0,6.239.822c3.524-2.364,2.97-6.785,2.97-6.785s.493-.9-1.714-1.207" transform="translate(-19.515 -20.232)" fill="#48b59d"/>
            <g id="Grupo_178743" data-name="Grupo 178743" transform="translate(167.243 173.384)" opacity="0.52" style="mix-blend-mode: overlay;isolation: isolate">
              <g id="Grupo_178742" data-name="Grupo 178742">
                <g id="Grupo_178741" data-name="Grupo 178741" clip-path="url(#clip-path-27)">
                  <path id="Trazado_229271" data-name="Trazado 229271" d="M194.723,196.728c-.336.047-.635.09-.871.127a.18.18,0,0,0-.047-.2c-.606-.553-1.211-1.164-1.864-1.658-.679-.513-1.464-.928-2.184-1.383.332.787.815.993,1.433,1.5q1.127.919,2.284,1.8l-.234.039a6.369,6.369,0,0,0-.532,3.076,10.59,10.59,0,0,0,.179,1.465c.069.363.353.84.189,1.2a7.2,7.2,0,0,1-1.693-1.23,24.537,24.537,0,0,1-4.624-4.942,10.994,10.994,0,0,1,.511,1.233,7.453,7.453,0,0,0,.991,1.266c.543.628,1.133,1.2,1.688,1.806a7.531,7.531,0,0,0,1.254,1.163,9.034,9.034,0,0,0,1.076.646c.157.08.97.3,1.016.441.09.27.154.43.154.43a5.314,5.314,0,0,0,3.181,1.674,12.913,12.913,0,0,1-1.907-8.453" transform="translate(-186.758 -193.616)" fill="#fff200"/>
                </g>
              </g>
            </g>
            <path id="Trazado_229272" data-name="Trazado 229272" d="M195.623,212.353a2.459,2.459,0,0,1-2.527,1.168,4.406,4.406,0,0,1-1.131-.639c-.635-.427-1.269-.848-1.924-1.243a19.355,19.355,0,0,0-3.829-1.893c-.587-.2-1.195-.277-1.8-.421-.426-.1-.751-.256-.741-.747a7.512,7.512,0,0,1,.347-1.642,1.885,1.885,0,0,1,.56-1.088c.656-.485,1.744.07,2.357.357a46.136,46.136,0,0,1,3.989,2.341,16.632,16.632,0,0,0,3.492,1.53c.7.235,1.541.555,1.488,1.44a1.686,1.686,0,0,1-.283.837" transform="translate(-19.193 -21.49)" fill="#ef5b51"/>
          </g>
        </g>
        <g id="Grupo_178750" data-name="Grupo 178750" transform="translate(118.716 230.342)">
          <g id="Grupo_178749" data-name="Grupo 178749" clip-path="url(#clip-path-28)">
            <path id="Trazado_229273" data-name="Trazado 229273" d="M167.174,342.839c-1.7-1.122-1.534-3.449-2.275-5.1a11.72,11.72,0,0,0-4.62-5.011c-2.172-1.261-5.532-1.845-7.76-.365-1.777,1.18-3.969,4.338-1.984,6.2a42.477,42.477,0,0,0,15.46,9.3c1.171.359,3.432,1.525,4.264.067a3.445,3.445,0,0,0,.321-3.314c-.732-1.2-2.32-1.058-3.406-1.772" transform="translate(-134.364 -264.98)" fill="#3c464f"/>
            <g id="Grupo_178748" data-name="Grupo 178748" transform="translate(15.384 66.504)" opacity="0.52" style="mix-blend-mode: overlay;isolation: isolate">
              <g id="Grupo_178747" data-name="Grupo 178747">
                <g id="Grupo_178746" data-name="Grupo 178746" clip-path="url(#clip-path-29)">
                  <path id="Trazado_229274" data-name="Trazado 229274" d="M153.475,339.74c-1.984-1.861.208-5.018,1.984-6.2a6.645,6.645,0,0,1,5.051-.668c-.078-.048-.154-.1-.232-.148-2.172-1.261-5.532-1.845-7.76-.365-1.777,1.18-3.969,4.338-1.984,6.2a43.111,43.111,0,0,0,14.593,9.014,44.511,44.511,0,0,1-11.651-7.833" transform="translate(-149.748 -331.485)" fill="#fff200"/>
                </g>
              </g>
            </g>
          </g>
        </g>
        <g id="Grupo_178770" data-name="Grupo 178770">
          <g id="Grupo_178769" data-name="Grupo 178769" clip-path="url(#clip-path)">
            <path id="Trazado_229276" data-name="Trazado 229276" d="M190.97,293.849c-.661,2.755-.643,5.61-2.709,7.864a11.261,11.261,0,0,1-1.7,1.47c-.427.317-.863.62-1.281.937a32.189,32.189,0,0,0-2.842,2.4,40.548,40.548,0,0,0-4.665,5.441,76.705,76.705,0,0,1-5.179,6.68,31.269,31.269,0,0,1-2.875,2.635,8.7,8.7,0,0,0-1.781,1.8c-.367.57-.505,1.244-.849,1.822-.432.716-1.267,1.024-1.787,1.658a2.685,2.685,0,0,0-.633,2.107c.11.7.611,1.58-.166,2.057a8.019,8.019,0,0,1-2.42.662c-1.336.3-2.5.6-3.778-.028a8.407,8.407,0,0,1-3.186-3.264,6.176,6.176,0,0,0-1.341-1.29,2.149,2.149,0,0,1-.74-1.621,4.3,4.3,0,0,1,.923-2.81,18.686,18.686,0,0,1,2.681-2.571c.959-.84,1.915-1.7,2.828-2.593a41.1,41.1,0,0,0,5-5.992c1.52-2.2,2.9-4.495,4.431-6.689a30.062,30.062,0,0,1,5.082-5.684c1.778-1.52,4-2.952,5.078-5.105a22.792,22.792,0,0,0,1.051-3c1.267-3.7.257-7.911-.05-11.772-.258-3.2-.409-6.772,1.639-9.256.734.179,1.474.354,2.208.533a3.9,3.9,0,0,1,2.025.147,5.343,5.343,0,0,1,1.281.652c.772.188,1.538.372,2.31.561L189,272.606a17.825,17.825,0,0,1,4.105,7.383,16.867,16.867,0,0,1,.57,3.081c.358,3.939-1.8,7.006-2.7,10.78" transform="translate(-15.991 -28.182)" fill="#345480"/>
            <g id="Grupo_178753" data-name="Grupo 178753" transform="translate(137.042 241.517)" opacity="0.52" style="mix-blend-mode: overlay;isolation: isolate">
              <g id="Grupo_178752" data-name="Grupo 178752">
                <g id="Grupo_178751" data-name="Grupo 178751" clip-path="url(#clip-path-31)">
                  <path id="Trazado_229277" data-name="Trazado 229277" d="M157.874,330.842a6.175,6.175,0,0,0-1.341-1.29,2.143,2.143,0,0,1-.739-1.62,4.293,4.293,0,0,1,.922-2.81,18.731,18.731,0,0,1,2.681-2.571c.96-.841,1.915-1.7,2.828-2.594a41.1,41.1,0,0,0,5-5.992c1.52-2.2,2.9-4.495,4.43-6.689a30.094,30.094,0,0,1,5.083-5.684c1.777-1.52,4-2.952,5.078-5.105a22.746,22.746,0,0,0,1.051-3c1.267-3.7.257-7.911-.05-11.771-.257-3.205-.409-6.773,1.639-9.256.734.179,1.474.353,2.208.532a3.911,3.911,0,0,1,2.025.147,5.353,5.353,0,0,1,1.281.653l.019,0c-.317-.409-.647-.809-1-1.187l.533-1.015-2.31-.561a5.377,5.377,0,0,0-1.281-.652,3.9,3.9,0,0,0-2.025-.147c-.734-.179-1.474-.354-2.208-.533-2.048,2.484-1.9,6.052-1.639,9.256.307,3.861,1.317,8.077.05,11.772a22.792,22.792,0,0,1-1.051,3c-1.079,2.153-3.3,3.586-5.078,5.105a30.062,30.062,0,0,0-5.082,5.684c-1.529,2.195-2.911,4.49-4.431,6.689a41.1,41.1,0,0,1-5,5.992c-.913.895-1.869,1.753-2.828,2.593a18.645,18.645,0,0,0-2.681,2.572,4.3,4.3,0,0,0-.923,2.809,2.149,2.149,0,0,0,.74,1.621,6.176,6.176,0,0,1,1.341,1.29,8.659,8.659,0,0,0,3.047,3.186l-.29-.43" transform="translate(-153.033 -269.699)" fill="#fff200"/>
                </g>
              </g>
            </g>
            <path id="Trazado_229278" data-name="Trazado 229278" d="M194.467,294.367c-.661,2.755-.643,5.61-2.709,7.864a11.261,11.261,0,0,1-1.7,1.47c-.6-4.136,1.224-6.767,1.187-10.823-.038-4.117-3.631-5.987-4.1-9.543-.151-1.144-.289-2.286-.426-3.43-.336-2.86-.772-6.276,2.915-4.958a9.774,9.774,0,0,1,1.538.707,19.127,19.127,0,0,1,5.431,4.853,16.867,16.867,0,0,1,.57,3.081c.358,3.939-1.8,7.006-2.7,10.78" transform="translate(-19.488 -28.7)" fill="#294873"/>
            <path id="Trazado_229279" data-name="Trazado 229279" d="M184.649,270.476a9.781,9.781,0,0,0,1,3.716,10.778,10.778,0,0,0,1.962,2.49c1.029,1.019,2.17,1.915,3.178,2.954a16.114,16.114,0,0,1,2.394,3.37c1.547,2.736,2.981,5.551,4.789,8.132.81,1.152,1.85,2.112,2.671,3.253a23.1,23.1,0,0,1,.944,2.138c.475.811,1.211,1.376,1.461,2.32a3.532,3.532,0,0,1-.054,1.994c-.192.581-.485,1.125-.688,1.706a12.575,12.575,0,0,0-.507,1.92c-.224,1.184-.352,2.384-.475,3.578-.373,3.572-.751,7.145-1.109,10.723-.155,1.52-.288,3.045-.357,4.575a13.18,13.18,0,0,0,.128,3.493c.2.885.666,1.5.336,2.426a21.618,21.618,0,0,1-1.205,2.1,10.229,10.229,0,0,0-.682,3.146,3.868,3.868,0,0,0,.064,2.32c.416.666,1.525.458,2.16.357a21.794,21.794,0,0,0,4.068-1,16.756,16.756,0,0,0,3.317-1.669,7.883,7.883,0,0,0,2.736-2.357,6.251,6.251,0,0,0,.426-2.821,34.939,34.939,0,0,1,.667-3.775c.426-2.885-.054-5.84.341-8.735.208-1.52.613-3,.869-4.506a28.848,28.848,0,0,0,.229-4.3,8.793,8.793,0,0,1,.544-3.061,12.651,12.651,0,0,0,1.152-3.141,18.862,18.862,0,0,0-.24-3.913,21.61,21.61,0,0,0-.816-4.239c-.464-1.413-1.29-2.672-1.835-4.053-.623-1.573-1.1-3.205-1.632-4.815-.97-2.965-2.191-5.833-3.327-8.735-.544-1.392-1.014-2.815-1.59-4.2a5.552,5.552,0,0,0-1.258-2.027A4.4,4.4,0,0,1,203.2,268.2" transform="translate(-19.295 -28.025)" fill="#40628f"/>
            <g id="Grupo_178756" data-name="Grupo 178756" transform="translate(165.354 240.179)" opacity="0.52" style="mix-blend-mode: overlay;isolation: isolate">
              <g id="Grupo_178755" data-name="Grupo 178755">
                <g id="Grupo_178754" data-name="Grupo 178754" clip-path="url(#clip-path-32)">
                  <path id="Trazado_229280" data-name="Trazado 229280" d="M203.4,334.513a10.229,10.229,0,0,1,.682-3.146,21.721,21.721,0,0,0,1.205-2.1c.33-.929-.139-1.541-.336-2.427a13.173,13.173,0,0,1-.128-3.492c.069-1.53.2-3.055.357-4.575.357-3.578.736-7.151,1.109-10.724.123-1.195.251-2.395.475-3.578a12.561,12.561,0,0,1,.507-1.919c.2-.581.5-1.126.688-1.707a3.532,3.532,0,0,0,.054-1.994c-.251-.944-.987-1.509-1.461-2.319a22.984,22.984,0,0,0-.944-2.138c-.821-1.141-1.861-2.1-2.671-3.252-1.808-2.581-3.243-5.4-4.788-8.132a16.1,16.1,0,0,0-2.395-3.37c-1.007-1.041-2.149-1.936-3.178-2.954a10.8,10.8,0,0,1-1.962-2.49,9.785,9.785,0,0,1-1-3.717l13.868-1.7a5.022,5.022,0,0,1-.281-.573l-18.552,2.271a9.785,9.785,0,0,0,1,3.717,10.845,10.845,0,0,0,1.962,2.49c1.029,1.018,2.171,1.914,3.178,2.954a16.072,16.072,0,0,1,2.395,3.37c1.547,2.736,2.98,5.551,4.788,8.132.81,1.152,1.85,2.112,2.671,3.252a22.988,22.988,0,0,1,.944,2.138c.475.81,1.211,1.375,1.461,2.319a3.524,3.524,0,0,1-.054,1.994c-.192.581-.484,1.126-.688,1.707a12.558,12.558,0,0,0-.506,1.919c-.225,1.184-.352,2.384-.475,3.578-.373,3.573-.752,7.145-1.11,10.724-.155,1.52-.288,3.045-.357,4.575a13.211,13.211,0,0,0,.128,3.492c.2.886.666,1.5.336,2.427a21.727,21.727,0,0,1-1.205,2.1,10.229,10.229,0,0,0-.682,3.146,3.866,3.866,0,0,0,.064,2.319c.416.667,1.525.458,2.159.357a24.012,24.012,0,0,0,2.7-.577,4.791,4.791,0,0,1,.038-2.1" transform="translate(-184.649 -268.204)" fill="#fff200"/>
                </g>
              </g>
            </g>
            <path id="Trazado_229281" data-name="Trazado 229281" d="M183.022,209.051c-.507.512-1,1.029-1.477,1.568a16.2,16.2,0,0,0-3.856,8.009,24.43,24.43,0,0,0,.449,8.926c.623,3.173,1.322,6.335,1.93,9.513.57,2.991.987,6,1.29,9.038.311,3.119-.343,5.919-.323,9.034.013,2.159-.921,4.156-.777,6.3.1,1.509.3,3.749,1.748,4.56a6.853,6.853,0,0,0,2.561.658c4.748.582,7.281,1.282,11.866-.347,2.154-.758,4.645-.884,6.676-1.964.754-.4,1.225-.6,1.428-1.467.083-.355-.113-2.089-.684-2.075.86-.021,1.337-1.134,1.059-1.949-.409-1.194-1.326-1.59-1.657-2.841a32.628,32.628,0,0,1-.509-5.112l-.735-7.844c-.528-4.106-1.03-8.223-1.642-12.318A85.1,85.1,0,0,0,198,218.277a16.374,16.374,0,0,0-3.035-5.567Z" transform="translate(-18.542 -21.844)" fill="#ef5b51"/>
            <g id="Grupo_178759" data-name="Grupo 178759" transform="translate(158.905 187.206)" opacity="0.52" style="mix-blend-mode: overlay;isolation: isolate">
              <g id="Grupo_178758" data-name="Grupo 178758">
                <g id="Grupo_178757" data-name="Grupo 178757" clip-path="url(#clip-path-33)">
                  <path id="Trazado_229282" data-name="Trazado 229282" d="M188.649,266.654a6.853,6.853,0,0,1-2.561-.658c-1.444-.81-1.646-3.052-1.748-4.56-.143-2.14.792-4.138.777-6.3-.02-3.115.635-5.914.324-9.033-.3-3.035-.72-6.047-1.29-9.039-.608-3.178-1.307-6.34-1.931-9.513a24.428,24.428,0,0,1-.448-8.926,16.2,16.2,0,0,1,3.855-8.009c.18-.2.365-.4.551-.6l-3.156-.966c-.507.511-1,1.029-1.477,1.567a16.207,16.207,0,0,0-3.856,8.009,24.449,24.449,0,0,0,.449,8.926c.623,3.173,1.322,6.335,1.93,9.513.57,2.992.987,6,1.29,9.039.311,3.119-.343,5.918-.323,9.033.013,2.159-.921,4.157-.777,6.3.1,1.508.3,3.749,1.748,4.56a6.853,6.853,0,0,0,2.561.658c3.379.414,5.639.883,8.312.535-1.267-.129-2.62-.338-4.23-.535" transform="translate(-177.447 -209.05)" fill="#fff200"/>
                </g>
              </g>
            </g>
            <path id="Trazado_229283" data-name="Trazado 229283" d="M182.725,243.123c.522,2.436,1.118,5.014,2.869,6.785a13.21,13.21,0,0,0,4.82,2.688l11.955,4.608q-.176-3.882-.351-7.765a38.42,38.42,0,0,1-18.25-14.513c-.748-1.119-2.573-5.183-2.938-1.745-.327,3.068,1.252,6.941,1.895,9.942" transform="translate(-18.891 -24.224)" fill="#d64238"/>
            <path id="Trazado_229284" data-name="Trazado 229284" d="M195.388,229.327c.653,4.562-.66,9.305.461,13.775-.187-.745-1.63-1.907-2.1-2.587a23.459,23.459,0,0,1-1.755-2.961,24.651,24.651,0,0,1-2.189-6.638,24.329,24.329,0,0,1-.239-6.981c.154-1.37.836-5.821,2.651-3.207a21.373,21.373,0,0,1,3.176,8.6" transform="translate(-19.792 -22.98)" fill="#d64238"/>
            <path id="Trazado_229285" data-name="Trazado 229285" d="M200.652,344.682a8.73,8.73,0,0,0-.016,4.324c.373,1.285,1.718,1.274,2.832,1.323,4.021.181,8.063.1,12.088.069,2.192-.015,4.389.011,6.58-.107,1-.053,2.779.043,3.429-.949a4.007,4.007,0,0,0-.021-3.119,1.525,1.525,0,0,0-1.141-1.141,18.094,18.094,0,0,0-2.581-.31,8.355,8.355,0,0,1-4-1.3c-1.413-.986-2.5-2.325-4.037-3.141-.448-.235-.9-.453-1.354-.677" transform="translate(-20.937 -35.492)" fill="#3c464f"/>
            <path id="Trazado_229286" data-name="Trazado 229286" d="M237.457,228.164c.021.1-.01.247,0,.411.02.315.037.626.056.94l.6,9.912q.171,2.9.345,5.81.282,4.664.556,9.327c.043.71.083,1.427.126,2.138q-6.92.407-13.844.822c-.641.039-1.284.075-1.924.115l-8.1.484-9.6.573-.288.017c-.47.028-.945.059-1.417.083q-.285-4.845-.575-9.692-.461-7.728-.921-15.451c-.073-1.185-.141-2.368-.214-3.553a5.854,5.854,0,0,0,1.017-.057c.93-.057,1.858-.114,2.786-.164q4.48-.269,8.963-.534,5.314-.32,10.625-.633l8.626-.513c.822-.051,1.647-.1,2.469-.149a2.167,2.167,0,0,1,.581-.036.182.182,0,0,1,.138.149" transform="translate(-21.134 -23.825)" fill="#d49f55"/>
            <rect id="Rectángulo_58370" data-name="Rectángulo 58370" width="35.515" height="28.268" transform="matrix(0.999, -0.05, 0.05, 0.999, 181.447, 206.177)" fill="#d49f55"/>
            <rect id="Rectángulo_58371" data-name="Rectángulo 58371" width="5.035" height="17.47" transform="matrix(0.999, -0.05, 0.05, 0.999, 196.668, 205.419)" fill="#f0cd9c"/>
            <path id="Trazado_229287" data-name="Trazado 229287" d="M238.178,228.355c.021.1-.01.247,0,.411.02.315.037.626.056.94l.6,9.912q.171,2.9.345,5.81.282,4.664.556,9.327c.043.71.083,1.427.126,2.138q-6.92.407-13.844.822c-.641.039-1.284.074-1.924.115l-8.1.484-9.6.573-2.227-.066,31.225-4.978,2.074-25.6Z" transform="translate(-21.333 -23.85)" fill="#d1773b"/>
            <rect id="Rectángulo_58372" data-name="Rectángulo 58372" width="5.402" height="5.402" transform="translate(210.429 225.118) rotate(-2.851)" fill="#4a6570"/>
            <rect id="Rectángulo_58373" data-name="Rectángulo 58373" width="5.403" height="0.837" transform="translate(203.344 226.569) rotate(-2.851)" fill="#4a6570"/>
            <rect id="Rectángulo_58374" data-name="Rectángulo 58374" width="5.403" height="0.837" transform="translate(203.441 228.529) rotate(-2.851)" fill="#4a6570"/>
            <path id="Trazado_229288" data-name="Trazado 229288" d="M218.879,251.245c-.76.015-1.511.253-2.289.272-1.778.043-3.342-.941-4.885-1.688-5.277-2.556-10.872-4.976-15.782-8.2-1.23-.809-5.161-9.743-4.5-9.866l-8.88,1.642c1.229,4.139,1.663,11.961,6.337,13.909,3.671,1.528,7.295,3.254,11.017,4.64,3.941,1.468,8.156,2,12.11,3.422,3.093,1.116,5.473,4.38,8.908,4.416a13.366,13.366,0,0,0,2.016-.183l2.116-.3a2.9,2.9,0,0,0,1.062-.293.978.978,0,0,0,.53-.9c-.344.056-1.308-1.013-1.768-1.17-1.017-.347-1.875-.689-2.253-1.721.521,1.564,2.657,1.05,3.741.576-1.75-1.481-4.381-3.833-6.624-4.451a2.975,2.975,0,0,0-.858-.1" transform="translate(-19.075 -24.217)" fill="#ffb980"/>
            <g id="Grupo_178762" data-name="Grupo 178762" transform="translate(163.47 207.542)" opacity="0.52" style="mix-blend-mode: overlay;isolation: isolate">
              <g id="Grupo_178761" data-name="Grupo 178761">
                <g id="Grupo_178760" data-name="Grupo 178760" clip-path="url(#clip-path-34)">
                  <path id="Trazado_229289" data-name="Trazado 229289" d="M230.427,258.3a2.129,2.129,0,0,0,.36.487l.08-.026a1.36,1.36,0,0,1-.44-.461" transform="translate(-187.548 -234.532)" fill="#fff200"/>
                  <path id="Trazado_229290" data-name="Trazado 229290" d="M223.377,253.791a6.081,6.081,0,0,0,.777-.08c-.1-.032-.2-.066-.294-.093a2.975,2.975,0,0,0-.858-.1,6.9,6.9,0,0,0-.991.112,5.18,5.18,0,0,0,1.366.16" transform="translate(-186.669 -234.033)" fill="#fff200"/>
                  <path id="Trazado_229291" data-name="Trazado 229291" d="M214.672,255.372c-3.954-1.426-8.169-1.955-12.11-3.422-3.723-1.385-7.347-3.113-11.017-4.641-4.674-1.947-5.108-9.769-6.337-13.908l6.184-1.144c-.061-.3-.057-.482.032-.5l-8.88,1.642c1.229,4.139,1.663,11.961,6.337,13.908,3.671,1.528,7.295,3.255,11.017,4.641,3.941,1.467,8.156,2,12.11,3.422,3.093,1.115,5.473,4.38,8.908,4.416a11.157,11.157,0,0,0,1.59-.124c-2.882-.6-5.076-3.3-7.836-4.292" transform="translate(-182.545 -231.759)" fill="#fff200"/>
                </g>
              </g>
            </g>
            <path id="Trazado_229292" data-name="Trazado 229292" d="M191.954,219.88c.08.373.155.741.229,1.115.518,2.666-.027,5.369-.011,8.051.005.731.08,1.456.15,2.181a4.426,4.426,0,0,1,.032,1.06c-.139.9-1.227.608-1.856.5a11.732,11.732,0,0,0-7.033.688,6.5,6.5,0,0,1-1.429.662c-.442.09-.576-.24-.666-.619-.272-1.162-.373-2.352-.688-3.514-.39-1.456-.864-2.885-1.264-4.335a23.5,23.5,0,0,1-.662-3.99c-.329-3.335-.411-7.5,3.632-8.632,3.407-.956,8.861,3.542,9.566,6.831" transform="translate(-18.664 -22.249)" fill="#ef5b51"/>
            <g id="Grupo_178765" data-name="Grupo 178765" transform="translate(159.951 190.671)" opacity="0.52" style="mix-blend-mode: overlay;isolation: isolate">
              <g id="Grupo_178764" data-name="Grupo 178764">
                <g id="Grupo_178763" data-name="Grupo 178763" clip-path="url(#clip-path-35)">
                  <path id="Trazado_229293" data-name="Trazado 229293" d="M183.313,233.52c-.272-1.162-.373-2.352-.688-3.514-.39-1.456-.864-2.885-1.264-4.335a23.5,23.5,0,0,1-.662-3.99c-.329-3.335-.411-7.5,3.632-8.632.026-.007.054-.011.081-.018a4.307,4.307,0,0,0-2.025.018c-4.043,1.135-3.961,5.3-3.632,8.632a23.5,23.5,0,0,0,.662,3.99c.4,1.45.874,2.879,1.264,4.335.314,1.162.416,2.352.688,3.514.09.379.224.709.666.619a5.068,5.068,0,0,0,1.286-.587l-.008-.032" transform="translate(-178.615 -212.92)" fill="#fff200"/>
                </g>
              </g>
            </g>
            <path id="Trazado_229294" data-name="Trazado 229294" d="M183.869,190.127a19.656,19.656,0,0,1,4.769-1.069,7.683,7.683,0,0,0,2.694.365,12.7,12.7,0,0,0,2.3-1.065,16.062,16.062,0,0,1,3.7-.856,8.983,8.983,0,0,1,4.941.295,1.249,1.249,0,0,0,.766.137c.833-.227.583-2.483.4-3.054a10.857,10.857,0,0,0-2.35-3.413,9.6,9.6,0,0,0-6.991-3.438,11.521,11.521,0,0,0-8.02,2.824c-2.2,2.147-4.018,6.732-2.729,9.688-.052-.118.159-.262.521-.414" transform="translate(-19.114 -18.603)" fill="#ef5b51"/>
            <path id="Trazado_229295" data-name="Trazado 229295" d="M193.036,190.344a10.7,10.7,0,0,0-2.118.321,3.416,3.416,0,0,0,1.25.044,3.364,3.364,0,0,0,.938-.351l-.071-.014" transform="translate(-19.95 -19.889)" fill="#d64238"/>
            <g id="Grupo_178768" data-name="Grupo 178768" transform="translate(163.805 159.428)" opacity="0.52" style="mix-blend-mode: overlay;isolation: isolate">
              <g id="Grupo_178767" data-name="Grupo 178767">
                <g id="Grupo_178766" data-name="Grupo 178766" clip-path="url(#clip-path-36)">
                  <path id="Trazado_229296" data-name="Trazado 229296" d="M189.639,180.854a10.533,10.533,0,0,1,5.952-2.679,7.851,7.851,0,0,0-1.494-.144,11.523,11.523,0,0,0-8.021,2.824c-2.2,2.147-4.018,6.732-2.73,9.688-.051-.118.159-.262.521-.414a17.992,17.992,0,0,1,2.7-.758c-.488-2.887,1.146-6.636,3.071-8.515" transform="translate(-182.919 -178.031)" fill="#fff200"/>
                </g>
              </g>
            </g>
            <path id="Trazado_229297" data-name="Trazado 229297" d="M203.281,188.547a7.191,7.191,0,0,1,1.119.332,1.249,1.249,0,0,0,.766.137c.242-.065.39-.305.477-.622a12.247,12.247,0,0,0-2.362.153" transform="translate(-21.241 -19.685)" fill="#d64238"/>
            <path id="Trazado_229298" data-name="Trazado 229298" d="M198.038,180.4a4.166,4.166,0,0,1,4.257,2.316,12.2,12.2,0,0,1,1.114,5.036c-.03-.4-7.871.678-8.385.72-1-2.534-.144-7.374,3.013-8.072" transform="translate(-20.338 -18.844)" fill="#fff"/>
            <path id="Trazado_229299" data-name="Trazado 229299" d="M192.769,190.318a3.834,3.834,0,0,1-.543-.05,1.306,1.306,0,0,1-1.139-1.085c-.116-1.883,5.1-2.68,6.3-2.832a23.786,23.786,0,0,1,8.8.718,2.742,2.742,0,0,1,1.667.927c1.366,1.986-2.381,1.686-3.257,1.658-2.5-.081-5-.091-7.5.051-1.33.075-2.952.649-4.333.613" transform="translate(-19.967 -19.457)" fill="#ef5b51"/>
            <path id="Trazado_229300" data-name="Trazado 229300" d="M204.54,188.817c-2.5-.081-5-.091-7.5.051a29.669,29.669,0,0,0-6.511,1.538c2.242.012,4.307-.375,6.512-.476,2.5-.141,5-.133,7.5-.051.853.029,4.429.313,3.35-1.509-.656.624-2.728.467-3.35.447" transform="translate(-19.909 -19.683)" fill="#d64238"/>
            <path id="Trazado_229301" data-name="Trazado 229301" d="M186.191,270.222a24.605,24.605,0,0,0,15.182-.385,8.659,8.659,0,0,0,3.6-2.821,68.551,68.551,0,0,1-7.349,2.131c-3.1.612-8.334,2-11.437,1.075" transform="translate(-19.456 -27.901)" fill="#d64238"/>
            <path id="Trazado_229302" data-name="Trazado 229302" d="M229.791,261.6a28.159,28.159,0,0,0-3.069-.907c-.261-.057-.468.342-.193.458a28.8,28.8,0,0,0,3.093,1.06c.395.116.552-.48.168-.612" transform="translate(-23.657 -27.24)" fill="#ff7657"/>
            <path id="Trazado_229303" data-name="Trazado 229303" d="M227.218,262.662a17.717,17.717,0,0,0-2.973-.837.179.179,0,0,0-.095.345,17.4,17.4,0,0,0,2.885.927c.243.045.449-.322.183-.434" transform="translate(-23.409 -27.358)" fill="#ff7657"/>
          </g>
        </g>
      </g>
    </g>
    <g id="Grupo_178773" data-name="Grupo 178773" transform="translate(3483.112 -8300.025)">
      <g id="Grupo_178588" data-name="Grupo 178588" clip-path="url(#clip-path-37)">
        <g id="Grupo_178580" data-name="Grupo 178580">
          <g id="Grupo_178579" data-name="Grupo 178579" clip-path="url(#clip-path-38)">
            <path id="Trazado_228844" data-name="Trazado 228844" d="M61.842,36.268H0l7.406-5.479V4.041A4.041,4.041,0,0,1,11.447,0h50.4a4.041,4.041,0,0,1,4.041,4.041V32.227a4.041,4.041,0,0,1-4.041,4.041Z" fill="#26aab7"/>
            <g id="Grupo_178566" data-name="Grupo 178566" opacity="0.45" style="isolation: isolate">
              <g id="Grupo_178565" data-name="Grupo 178565">
                <g id="Grupo_178564" data-name="Grupo 178564" clip-path="url(#clip-path-39)">
                  <rect id="Rectángulo_58234" data-name="Rectángulo 58234" width="28.262" height="2.704" transform="translate(32.247 5.217)" fill="#fff"/>
                </g>
              </g>
            </g>
            <g id="Grupo_178569" data-name="Grupo 178569" opacity="0.45" style="isolation: isolate">
              <g id="Grupo_178568" data-name="Grupo 178568">
                <g id="Grupo_178567" data-name="Grupo 178567" clip-path="url(#clip-path-40)">
                  <rect id="Rectángulo_58236" data-name="Rectángulo 58236" width="28.262" height="2.704" transform="translate(32.247 9.257)" fill="#fff"/>
                </g>
              </g>
            </g>
            <g id="Grupo_178572" data-name="Grupo 178572" opacity="0.45" style="isolation: isolate">
              <g id="Grupo_178571" data-name="Grupo 178571">
                <g id="Grupo_178570" data-name="Grupo 178570" clip-path="url(#clip-path-41)">
                  <rect id="Rectángulo_58238" data-name="Rectángulo 58238" width="28.262" height="2.704" transform="translate(32.247 13.297)" fill="#fff"/>
                </g>
              </g>
            </g>
            <g id="Grupo_178575" data-name="Grupo 178575" opacity="0.45" style="isolation: isolate">
              <g id="Grupo_178574" data-name="Grupo 178574">
                <g id="Grupo_178573" data-name="Grupo 178573" clip-path="url(#clip-path-42)">
                  <rect id="Rectángulo_58240" data-name="Rectángulo 58240" width="28.262" height="2.704" transform="translate(32.247 17.233)" fill="#fff"/>
                </g>
              </g>
            </g>
            <g id="Grupo_178578" data-name="Grupo 178578" opacity="0.45" style="isolation: isolate">
              <g id="Grupo_178577" data-name="Grupo 178577">
                <g id="Grupo_178576" data-name="Grupo 178576" clip-path="url(#clip-path-43)">
                  <rect id="Rectángulo_58242" data-name="Rectángulo 58242" width="19.709" height="2.704" transform="translate(32.247 21.942)" fill="#fff"/>
                </g>
              </g>
            </g>
          </g>
        </g>
        <g id="Grupo_178582" data-name="Grupo 178582">
          <g id="Grupo_178581" data-name="Grupo 178581" clip-path="url(#clip-path-44)">
            <rect id="Rectángulo_58245" data-name="Rectángulo 58245" width="17.753" height="20.758" transform="translate(12.274 5.217)" fill="url(#linear-gradient-2)"/>
          </g>
        </g>
        <g id="Grupo_178587" data-name="Grupo 178587">
          <g id="Grupo_178586" data-name="Grupo 178586" clip-path="url(#clip-path-38)">
            <g id="Grupo_178585" data-name="Grupo 178585" opacity="0.45" style="isolation: isolate">
              <g id="Grupo_178584" data-name="Grupo 178584">
                <g id="Grupo_178583" data-name="Grupo 178583" clip-path="url(#clip-path-46)">
                  <rect id="Rectángulo_58247" data-name="Rectángulo 58247" width="17.753" height="2.228" transform="translate(12.274 28.56)" fill="#fff"/>
                </g>
              </g>
            </g>
            <path id="Trazado_228845" data-name="Trazado 228845" d="M22.9,18.688H16.459a.8.8,0,0,1-.776-.593l-1.239-4.577a.8.8,0,0,1,.776-1.013h8.921a.8.8,0,0,1,.776,1.013l-1.239,4.577a.8.8,0,0,1-.777.593" fill="#26aab7"/>
            <path id="Trazado_228846" data-name="Trazado 228846" d="M24.037,19.718H16.278a.161.161,0,0,1,0-.321h7.638l2.7-9.416a.159.159,0,0,1,.154-.116h1.688a.161.161,0,1,1,0,.321H26.892l-2.7,9.416a.16.16,0,0,1-.155.116" fill="#26aab7"/>
            <path id="Trazado_228847" data-name="Trazado 228847" d="M17.466,20.979a.939.939,0,1,1-.94-.938h0a.94.94,0,0,1,.939.938" fill="#26aab7"/>
            <path id="Trazado_228848" data-name="Trazado 228848" d="M23.349,20.041a.938.938,0,1,1-.938.938.938.938,0,0,1,.938-.938" fill="#26aab7"/>
          </g>
        </g>
      </g>
    </g>
    <g id="Grupo_178774" data-name="Grupo 178774" transform="translate(3356.825 -8352.871)" opacity="0.3">
      <g id="Grupo_178446" data-name="Grupo 178446">
        <g id="Grupo_178445" data-name="Grupo 178445" clip-path="url(#clip-path-47)">
          <path id="Trazado_228718" data-name="Trazado 228718" d="M347.454,143.045l-8.1,4.078,4.051-9.941" transform="translate(-338.316 -114.174)" fill="#00223d"/>
          <path id="Trazado_228719" data-name="Trazado 228719" d="M373.084,141.311a17.151,17.151,0,1,1-18.116-16.128c.331-.019.663-.029.994-.029a16.662,16.662,0,0,1,17.122,16.156" transform="translate(-338.811 -125.147)" fill="#00223d"/>
          <path id="Trazado_228720" data-name="Trazado 228720" d="M346.246,146.515c3.732.059,7.511.109,10.941-.115,1.086-.073,2.024-1.7.705-2.214a2.4,2.4,0,0,0,1.361-1.115,1.085,1.085,0,0,0-.573-1.422c-.029-.011-.057-.023-.088-.033,1.3.3,1.8-1.636.8-2.26a2.834,2.834,0,0,0,1.092-1.652,1.62,1.62,0,0,0-.79-1.707,2.968,2.968,0,0,0-1.338-.22l-4.655-.032a9.623,9.623,0,0,0-.686-6.8c-.373-.606-1.369-1.338-2.164-.866-.744.438-.537,1.529-.5,2.21a7.669,7.669,0,0,1-4.238,7.058s.178,6.072.138,9.169" transform="translate(-332.158 -122.612)" fill="#fefefe"/>
          <rect id="Rectángulo_58159" data-name="Rectángulo 58159" width="5.64" height="9.161" transform="translate(7.096 14.734)" fill="#fefefe"/>
        </g>
      </g>
    </g>
    <path id="Trazado_229307" data-name="Trazado 229307" d="M284.041,480.165l-1.525,2.817-4.8-1.953-2.737,3.844L271.142,484l-.442,1.941,5.127,1.169,2.594-3.643,5,2.031,2.295-4.239Z" transform="translate(3142.622 -8802.199)" fill="#016589"/>
  </g>
</svg>
