<svg xmlns="http://www.w3.org/2000/svg" xmlns:xlink="http://www.w3.org/1999/xlink" width="400" height="314.494" viewBox="0 0 400 314.494">
  <defs>
    <clipPath id="clip-path">
      <rect id="Rectángulo_58301" data-name="Rectángulo 58301" width="400" height="256.393" fill="none"/>
    </clipPath>
    <clipPath id="clip-path-2">
      <rect id="Rectángulo_58250" data-name="Rectángulo 58250" width="117.575" height="64.719" fill="none"/>
    </clipPath>
    <clipPath id="clip-path-4">
      <rect id="Rectángulo_58235" data-name="Rectángulo 58235" width="50.433" height="4.825" fill="none"/>
    </clipPath>
    <clipPath id="clip-path-8">
      <rect id="Rectángulo_58243" data-name="Rectángulo 58243" width="35.17" height="4.825" fill="none"/>
    </clipPath>
    <clipPath id="clip-path-9">
      <rect id="Rectángulo_58246" data-name="Rectángulo 58246" width="31.68" height="37.042" rx="3.385" fill="none"/>
    </clipPath>
    <linearGradient id="linear-gradient" x1="1.691" y1="1.496" x2="1.635" y2="1.496" gradientUnits="objectBoundingBox">
      <stop offset="0" stop-color="#fff"/>
      <stop offset="1" stop-color="#d2e6ee"/>
    </linearGradient>
    <clipPath id="clip-path-11">
      <rect id="Rectángulo_58248" data-name="Rectángulo 58248" width="31.68" height="3.976" fill="none"/>
    </clipPath>
  </defs>
  <g id="Grupo_178630" data-name="Grupo 178630" transform="translate(-3141 7233.258)">
    <g id="Grupo_178627" data-name="Grupo 178627" transform="translate(3141 -7175.157)">
      <path id="Trazado_229017" data-name="Trazado 229017" d="M284.041,480.165l-1.525,2.817-4.8-1.953-2.737,3.844L271.142,484l-.442,1.941,5.127,1.169,2.594-3.643,5,2.031,2.295-4.239Z" transform="translate(-156.378 -382.714)" fill="#016589"/>
      <rect id="Rectángulo_58261" data-name="Rectángulo 58261" width="44.803" height="141.796" transform="translate(345.819 112.983)" fill="#ffe1c8"/>
      <rect id="Rectángulo_58262" data-name="Rectángulo 58262" width="11.214" height="17.764" transform="translate(371.93 122.043)" fill="#ffbf91"/>
      <rect id="Rectángulo_58263" data-name="Rectángulo 58263" width="11.214" height="17.764" transform="translate(372.076 146.603)" fill="#ffbf91"/>
      <rect id="Rectángulo_58264" data-name="Rectángulo 58264" width="11.214" height="17.764" transform="translate(372.222 171.162)" fill="#ffbf91"/>
      <rect id="Rectángulo_58265" data-name="Rectángulo 58265" width="11.214" height="17.764" transform="translate(372.368 195.721)" fill="#ffbf91"/>
      <rect id="Rectángulo_58266" data-name="Rectángulo 58266" width="11.214" height="17.764" transform="translate(372.515 220.281)" fill="#ffbf91"/>
      <rect id="Rectángulo_58267" data-name="Rectángulo 58267" width="44.803" height="77.23" transform="translate(251.595 177.549)" fill="#ffe1c8"/>
      <rect id="Rectángulo_58268" data-name="Rectángulo 58268" width="73.932" height="208.002" transform="translate(280.357 46.776)" fill="#ffbf91"/>
      <rect id="Rectángulo_58269" data-name="Rectángulo 58269" width="17.04" height="7.522" transform="translate(290.364 58.928)" fill="#fff"/>
      <rect id="Rectángulo_58270" data-name="Rectángulo 58270" width="17.04" height="7.522" transform="translate(317.02 58.928)" fill="#fff"/>
      <rect id="Rectángulo_58271" data-name="Rectángulo 58271" width="47.309" height="50.268" transform="translate(52.264 204.614)" fill="#ffe1c8"/>
      <rect id="Rectángulo_58272" data-name="Rectángulo 58272" width="6.987" height="6.987" transform="translate(58.333 207.557)" fill="#fff"/>
      <rect id="Rectángulo_58273" data-name="Rectángulo 58273" width="6.987" height="6.987" transform="translate(68.383 207.557)" fill="#fff"/>
      <rect id="Rectángulo_58274" data-name="Rectángulo 58274" width="6.987" height="6.987" transform="translate(58.333 217.361)" fill="#fff"/>
      <rect id="Rectángulo_58275" data-name="Rectángulo 58275" width="6.987" height="6.987" transform="translate(68.383 217.361)" fill="#fff"/>
      <rect id="Rectángulo_58276" data-name="Rectángulo 58276" width="6.987" height="6.987" transform="translate(58.882 228.48)" fill="#fff"/>
      <rect id="Rectángulo_58277" data-name="Rectángulo 58277" width="6.987" height="6.987" transform="translate(68.931 228.48)" fill="#fff"/>
      <rect id="Rectángulo_58278" data-name="Rectángulo 58278" width="6.987" height="6.987" transform="translate(58.882 238.284)" fill="#fff"/>
      <rect id="Rectángulo_58279" data-name="Rectángulo 58279" width="6.987" height="6.987" transform="translate(68.931 238.284)" fill="#fff"/>
      <rect id="Rectángulo_58280" data-name="Rectángulo 58280" width="44.803" height="64.987" transform="translate(12.059 189.792)" fill="#ffbf91"/>
      <rect id="Rectángulo_58281" data-name="Rectángulo 58281" width="6.987" height="6.987" transform="translate(15.604 193.249)" fill="#fff"/>
      <rect id="Rectángulo_58282" data-name="Rectángulo 58282" width="6.987" height="6.987" transform="translate(25.654 193.249)" fill="#fff"/>
      <rect id="Rectángulo_58283" data-name="Rectángulo 58283" width="6.987" height="6.987" transform="translate(15.604 203.052)" fill="#fff"/>
      <rect id="Rectángulo_58284" data-name="Rectángulo 58284" width="6.987" height="6.987" transform="translate(25.654 203.052)" fill="#fff"/>
      <rect id="Rectángulo_58285" data-name="Rectángulo 58285" width="6.987" height="6.987" transform="translate(15.026 213.89)" fill="#fff"/>
      <rect id="Rectángulo_58286" data-name="Rectángulo 58286" width="6.987" height="6.987" transform="translate(25.075 213.89)" fill="#fff"/>
      <rect id="Rectángulo_58287" data-name="Rectángulo 58287" width="6.987" height="6.987" transform="translate(15.026 223.694)" fill="#fff"/>
      <rect id="Rectángulo_58288" data-name="Rectángulo 58288" width="6.987" height="6.987" transform="translate(25.075 223.694)" fill="#fff"/>
      <g id="Grupo_178626" data-name="Grupo 178626">
        <g id="Grupo_178625" data-name="Grupo 178625" clip-path="url(#clip-path)">
          <path id="Trazado_229022" data-name="Trazado 229022" d="M1077.25,68.4l-.919,2.4,2.022,1.191-1.237,2.673,2.8.564-1.256,3.043,2.416.823-.691,2.974-1.274.072.517-2.224-2.55-.869,1.208-2.925-2.848-.574,1.365-2.95-1.974-1.163.851-2.222-1.561-.476.7-1.077Z" transform="translate(-842.703 -53.083)" fill="#016589"/>
          <path id="Trazado_229023" data-name="Trazado 229023" d="M124.3,505.126a9.05,9.05,0,1,1-11.683-5.232,9.049,9.049,0,0,1,11.683,5.232" transform="translate(-83.786 -391.725)" fill="#ff7768"/>
          <path id="Trazado_229024" data-name="Trazado 229024" d="M130.2,542.982a4.839,4.839,0,1,0,9.042-3.448Z" transform="translate(-102.152 -423.293)" fill="#fff8f3"/>
          <path id="Trazado_229025" data-name="Trazado 229025" d="M362.738,187.462l-2.594-1.685,2.25-4.473-3.489-2.931,1.136-3.623-1.834-.575-1.52,4.845,3.306,2.778-2.34,4.653,3.9,2.535Z" transform="translate(-279.84 -136.65)" fill="#65b3c6"/>
          <path id="Trazado_229026" data-name="Trazado 229026" d="M1542.865,48.366l3.6,2.026s6.492-.778,7.338-1.9,1.609-4.111,2.493-4.022a2.68,2.68,0,0,1,2.5,2.845c0,1.556-3.052,5.459-2.8,5.987a21.442,21.442,0,0,0,3.7,2.425,3.057,3.057,0,0,1,1.51,2.811v0a1.683,1.683,0,0,1-1.38,1.572l-1.192.21.129,1.213a1.683,1.683,0,0,1-1.447,1.843l-.913.119.137.75a1.682,1.682,0,0,1-1.495,1.973l-.791.07-.009.206a1.681,1.681,0,0,1-1.563,1.609l-.782.049-9.587-5.4a7.442,7.442,0,0,1-2.3-2.02l-3.052-2.466a.862.862,0,0,1-.194-1.106l4.943-8.469a.859.859,0,0,1,1.161-.326" transform="translate(-1205.575 -34.884)" fill="#ffbf91"/>
          <path id="Trazado_229027" data-name="Trazado 229027" d="M782.44,125.124l-2.689-.217-.367,2.487-2.658-.1-.644,2.334-2,.253.128,1.013,2.677-.338.61-2.212,2.766.1.361-2.446,2.437.2Z" transform="translate(-607.307 -97.996)" fill="#ff7768"/>
          <path id="Trazado_229028" data-name="Trazado 229028" d="M490.414,212.57l-3.275,1.007-1.027,3.269a.334.334,0,0,1-.592.092l-1.969-2.8-3.426.033a.334.334,0,0,1-.27-.535l2.058-2.739-1.09-3.248a.334.334,0,0,1,.425-.422l3.241,1.111,2.752-2.04a.334.334,0,0,1,.533.274l-.055,3.426,2.791,1.987a.334.334,0,0,1-.1.591" transform="translate(-376.418 -161.795)" fill="#ffbf91"/>
          <path id="Trazado_229029" data-name="Trazado 229029" d="M176.254,680.991,172.979,682l-1.027,3.268a.334.334,0,0,1-.592.092l-1.969-2.8-3.426.033a.334.334,0,0,1-.27-.535l2.058-2.739-1.09-3.248a.334.334,0,0,1,.425-.422l3.241,1.11,2.752-2.04a.334.334,0,0,1,.533.274l-.055,3.426,2.791,1.987a.334.334,0,0,1-.1.591" transform="translate(-129.943 -529.296)" fill="#ffbf91"/>
          <path id="Trazado_229030" data-name="Trazado 229030" d="M463.726,582.942h46.26V532.991h-26.77a19.49,19.49,0,0,0-19.49,19.49Z" transform="translate(-363.817 -418.159)" fill="#ff5b51"/>
          <path id="Trazado_229031" data-name="Trazado 229031" d="M431.54,698.237H355.267l-1.08-54.749a7.939,7.939,0,0,1,.452-2.8l15.739-44.7a9.012,9.012,0,0,1,8.592-5.811H431.54Z" transform="translate(-277.877 -463.029)" fill="#ff7768"/>
          <path id="Trazado_229032" data-name="Trazado 229032" d="M354.185,1024.133h4.759a3.041,3.041,0,0,0,3.041-3.041v-12.478a3.041,3.041,0,0,0-3.041-3.041h-4.759Z" transform="translate(-277.877 -788.925)" fill="#65b3c6"/>
          <path id="Trazado_229033" data-name="Trazado 229033" d="M318.835,658.143h-2.416v-8.457a12.613,12.613,0,0,1,12.6-12.6h20.538V639.5H329.018a10.194,10.194,0,0,0-10.182,10.183Z" transform="translate(-248.247 -499.829)" fill="#05173e"/>
          <path id="Trazado_229034" data-name="Trazado 229034" d="M297.047,732.765h3.969a4.66,4.66,0,0,0,4.66-4.66V714.644a4.66,4.66,0,0,0-4.66-4.66h-3.969a4.66,4.66,0,0,0-4.66,4.66v13.462a4.66,4.66,0,0,0,4.66,4.66" transform="translate(-229.393 -557.02)" fill="#05173e"/>
          <path id="Rectángulo_58289" data-name="Rectángulo 58289" d="M4.474,0h0A4.475,4.475,0,0,1,8.949,4.475v9.493a4.474,4.474,0,0,1-4.474,4.474h0A4.474,4.474,0,0,1,0,13.967V4.474A4.474,4.474,0,0,1,4.474,0Z" transform="translate(65.164 155.134)" fill="#016589"/>
          <path id="Trazado_229035" data-name="Trazado 229035" d="M416.283,673.874h39.729a4.46,4.46,0,0,0,4.46-4.461V636.741a4.46,4.46,0,0,0-4.46-4.46H426.3a4.46,4.46,0,0,0-4.264,3.153l-10.018,32.672a4.461,4.461,0,0,0,4.265,5.768" transform="translate(-323.094 -496.058)" fill="#05173e"/>
          <path id="Trazado_229036" data-name="Trazado 229036" d="M417.5,715.592l-5.481,17.876a4.46,4.46,0,0,0,4.265,5.768h39.729a4.461,4.461,0,0,0,4.46-4.461V715.592Z" transform="translate(-323.095 -561.419)" fill="#016589"/>
          <path id="Trazado_229037" data-name="Trazado 229037" d="M408.691,1006.787a22.125,22.125,0,1,0,22.125-22.125,22.125,22.125,0,0,0-22.125,22.125" transform="translate(-320.64 -772.519)" fill="#05173e"/>
          <path id="Trazado_229038" data-name="Trazado 229038" d="M1340.428,1006.446c0,12.031,9.485,21.783,21.185,21.783s21.185-9.753,21.185-21.783-9.485-21.783-21.185-21.783-21.185,9.752-21.185,21.783" transform="translate(-1051.636 -772.52)" fill="#000a53"/>
          <path id="Trazado_229039" data-name="Trazado 229039" d="M684.678,437.692H903.719a6.237,6.237,0,0,0,6.237-6.237V302.98a6.237,6.237,0,0,0-6.237-6.237H684.678a6.237,6.237,0,0,0-6.237,6.237V431.455a6.237,6.237,0,0,0,6.237,6.237" transform="translate(-532.273 -232.81)" fill="#65b3c6"/>
          <path id="Trazado_229040" data-name="Trazado 229040" d="M1325.694,452.889a.484.484,0,0,0,.483-.483V323.929a.484.484,0,0,0-.483-.483H1216.3V452.889Z" transform="translate(-954.247 -253.76)" fill="#012968"/>
          <path id="Trazado_229041" data-name="Trazado 229041" d="M1325.694,357.612c.267,0,.483-.057.483-.128V323.375c0-.071-.217-.128-.483-.128H1216.3v34.365Z" transform="translate(-954.247 -253.604)" fill="#fff8f3"/>
          <path id="Trazado_229042" data-name="Trazado 229042" d="M684.678,296.743h103.89V437.692H684.678a6.237,6.237,0,0,1-6.237-6.237V302.98a6.237,6.237,0,0,1,6.237-6.237" transform="translate(-532.273 -232.81)" fill="#016589"/>
          <rect id="Rectángulo_58290" data-name="Rectángulo 58290" width="46.605" height="38.834" transform="translate(313.947 160.295)" fill="#ffbf91"/>
          <rect id="Rectángulo_58291" data-name="Rectángulo 58291" width="58.804" height="46.429" transform="translate(262.048 152.7)" fill="#ffe1c8"/>
          <rect id="Rectángulo_58292" data-name="Rectángulo 58292" width="50.173" height="44.188" transform="translate(262.048 108.511)" fill="#ffbf91"/>
          <path id="Trazado_229043" data-name="Trazado 229043" d="M695.453,981.284H903.7V950.957H695.453a5.8,5.8,0,0,0-5.795,5.795v18.737a5.8,5.8,0,0,0,5.795,5.795" transform="translate(-541.073 -746.076)" fill="#000a53"/>
          <rect id="Rectángulo_58293" data-name="Rectángulo 58293" width="101.15" height="22.608" transform="translate(259.402 208.971)" fill="#016589"/>
          <rect id="Rectángulo_58294" data-name="Rectángulo 58294" width="29.226" height="8.975" transform="translate(262.735 217.541)" fill="#ff7768"/>
          <rect id="Rectángulo_58295" data-name="Rectángulo 58295" width="17.635" height="8.975" transform="translate(262.735 217.541)" fill="#ff5b51"/>
          <rect id="Rectángulo_58296" data-name="Rectángulo 58296" width="29.226" height="8.975" transform="translate(324.8 217.541)" fill="#ff7768"/>
          <rect id="Rectángulo_58297" data-name="Rectángulo 58297" width="13.234" height="8.975" transform="translate(340.793 217.541)" fill="#ff5b51"/>
          <path id="Trazado_229044" data-name="Trazado 229044" d="M1019.069,1006.446c0,12.031,9.485,21.783,21.185,21.783s21.185-9.753,21.185-21.783-9.485-21.783-21.185-21.783-21.185,9.752-21.185,21.783" transform="translate(-799.513 -772.52)" fill="#05173e"/>
          <path id="Trazado_229045" data-name="Trazado 229045" d="M988.712,999c0,12.739,9.485,23.065,21.185,23.065s21.185-10.327,21.185-23.065-9.485-23.065-21.185-23.065S988.712,986.262,988.712,999" transform="translate(-775.696 -765.672)" fill="#05173e"/>
          <path id="Trazado_229046" data-name="Trazado 229046" d="M396.125,1003.341c0,12.449,9.485,22.541,21.185,22.541s21.185-10.092,21.185-22.541S429.01,980.8,417.31,980.8s-21.185,10.092-21.185,22.541" transform="translate(-310.781 -769.489)" fill="#05173e"/>
          <path id="Trazado_229047" data-name="Trazado 229047" d="M446.1,1041.693c0,6.264,4.664,11.341,10.417,11.341s10.417-5.078,10.417-11.341-4.664-11.342-10.417-11.342-10.417,5.078-10.417,11.342" transform="translate(-349.992 -808.364)" fill="#016589"/>
          <path id="Trazado_229048" data-name="Trazado 229048" d="M1038.691,1041.693c0,6.264,4.664,11.341,10.417,11.341s10.417-5.078,10.417-11.341-4.664-11.342-10.417-11.342-10.417,5.078-10.417,11.342" transform="translate(-814.908 -808.364)" fill="#016589"/>
          <path id="Trazado_229049" data-name="Trazado 229049" d="M1439.331,441.366h-19.679a5.063,5.063,0,0,0,5.063,5.063h9.553a5.063,5.063,0,0,0,5.063-5.063" transform="translate(-1113.792 -346.275)" fill="#ffe1c8"/>
          <path id="Trazado_229050" data-name="Trazado 229050" d="M903.506,1110.624s1.657,1.638,1.695,2.24.147,7.044-.53,7.645-2.663,1.028-2.024,1.7c.483.511,4.2.4,6.658.264.718-.04,1.619-5.85,1.9-6.7.413-1.24,1.9-3.94,1.526-4.8a11.472,11.472,0,0,0-2.777-2.189,11.382,11.382,0,0,1-2.54-2.742Z" transform="translate(-708.076 -867.744)" fill="#f7a491"/>
          <path id="Trazado_229051" data-name="Trazado 229051" d="M781.511,1145.677s1.483,4.246,1.484,4.256c.11.673.544,2.334.544,2.946,0,2.3-10.22-1.95-7.93-2.968a2.458,2.458,0,0,0,.926-1.61,5.424,5.424,0,0,0-.861-2.715Z" transform="translate(-608.244 -898.772)" fill="#f7a491"/>
          <path id="Trazado_229052" data-name="Trazado 229052" d="M720,771.877l-3.7,9.583s-2.414,22.869-1.009,36.56c.588,5.725,13.316,36.374,13.316,36.374l6.322-.9L726.466,817.2l3.116-13.879,4.409-27.435Z" transform="translate(-560.842 -605.578)" fill="#1d8ea8"/>
          <path id="Trazado_229053" data-name="Trazado 229053" d="M759.591,774.2l3.175,10.671,4.828,32.206L783.922,847.2s-2.455,3.769-5.092,4.362l-23.175-30.449L743.095,783l.441-8.469Z" transform="translate(-582.997 -607.398)" fill="#65b3c6"/>
          <path id="Trazado_229054" data-name="Trazado 229054" d="M636.413,694.9a5.254,5.254,0,0,1,2.646-.62,48.932,48.932,0,0,0,3.09-4.362s8.176-12.364,8.594-13.047l2.492-15.21,7.829-.828s-3.147,16.47-3.461,17.3-13.3,16.224-14.4,17.618c0,0-.7,2.156-1.186,3.5a11.941,11.941,0,0,1-1.729,2.741,12.511,12.511,0,0,1-2,2.366c-1.08,1.007-.516-.452-.516-.452s1.666-2.233,1.468-2.337c-.153-.08-.991,1.194-2.174,2.321-.3.29-.605.575-.884.834-.732.681-1.358.418-.706-.419a9.915,9.915,0,0,1,.955-1.08,8.242,8.242,0,0,0,.836-1.066,10.748,10.748,0,0,0,.854-1.1c-.049-.009-.036-.209-.369.088-.4.358-1.081,1.309-1.709,1.788-.356.272-1.066.886-1.066.886a9.365,9.365,0,0,1-1.327.808c-.363-.324.361-1.206.894-1.511a6.651,6.651,0,0,1,1-1s1.264-1.617,1.039-1.8c-.185-.153-3.957,3.123-4.3,2.772-.278-.286.812-1.323.812-1.323s.708-.576.928-.786c.259-.246.976-1.042.976-1.042s2.37-2.891,2.142-3.05a1.766,1.766,0,0,0-1.18-.2c-.209.127-.469.564-.677.691a.609.609,0,0,1-.767-.138c-.176-.249.6-1.256.6-1.256a3.969,3.969,0,0,1,1.3-1.079" transform="translate(-496.028 -518.455)" fill="#f8a492"/>
          <path id="Trazado_229055" data-name="Trazado 229055" d="M722.349,614.641l9.01.932s.413-7.487.413-11.059c0-4.333-.622-9.766-1.133-9.625a7.285,7.285,0,0,0-4.309,2.6c-4.02,5.6-3.982,17.155-3.982,17.155" transform="translate(-566.721 -466.72)" fill="#f7ede7"/>
          <path id="Trazado_229056" data-name="Trazado 229056" d="M907.479,1118.574s-3.49,10.686-4.985,11.213c-.4.14-2.63.705-2.989,1.559a.422.422,0,0,0-.023.076.889.889,0,0,0,.892,1.04h7.09s1.007-4.8,1.4-6.911c0,0,2.107-5.155,1.873-5.623s-3.263-1.354-3.263-1.354" transform="translate(-705.677 -877.58)" fill="#05173e"/>
          <path id="Trazado_229057" data-name="Trazado 229057" d="M755.282,1169.308l-1.141-3.748s-2.488,1.054-3.717.878a36.759,36.759,0,0,1-3.629-.878c-4.906,1.637-8.924,2.431-8.193,3.748Z" transform="translate(-579.405 -914.443)" fill="#05173e"/>
          <path id="Trazado_229058" data-name="Trazado 229058" d="M657.834,824.429a3.138,3.138,0,0,1-2.829.8,1.923,1.923,0,0,0,2.829-.8" transform="translate(-513.886 -646.808)" fill="#fe875e"/>
          <path id="Trazado_229059" data-name="Trazado 229059" d="M741.55,591.762s4.77.663,6.025,1.585a79.421,79.421,0,0,1,5.792,5.881s-9.113,26.1-8.76,30.747,1.352,11.523,1.352,11.523-17.7,1.117-24.4-1.528c0,0,2.117-10.524,2.117-13.287s1.188-30.382,2.035-31.829,2.551-2.27,5.784-2.975,10.053-.118,10.053-.118" transform="translate(-566.102 -464.088)" fill="#fff8f3"/>
          <path id="Trazado_229060" data-name="Trazado 229060" d="M784.248,556.34l1.181,7.73s-3.551,4.095-6.125,3.3c-2.16-.67-1.592-3.7-1.592-3.7s1.177-4.373.824-6.562,5.712-.76,5.712-.76" transform="translate(-610.103 -436.118)" fill="#f7a491"/>
          <path id="Trazado_229061" data-name="Trazado 229061" d="M781.234,557.1c-.353-2.188,5.711-.76,5.711-.76l.1.641a3.553,3.553,0,0,1-.658,1.077,8.009,8.009,0,0,1-5.3,2.384,11.854,11.854,0,0,0,.151-3.342" transform="translate(-612.801 -436.119)" fill="#fe875e"/>
          <path id="Trazado_229062" data-name="Trazado 229062" d="M775.2,498.459c.171-.062,1.374,8.8-.908,11.243s-6.728,3.237-8.323,1.316c-1.764-2.125-1.675-11.653,1.872-14.162s7.358,1.6,7.358,1.6" transform="translate(-600.062 -389.173)" fill="#f7a491"/>
          <path id="Trazado_229063" data-name="Trazado 229063" d="M773.808,477.6a9.866,9.866,0,0,1,5.171,2.93c1.245.146,2.938.83,4.685,3.7a7.158,7.158,0,0,1-1.94,9.371,5.585,5.585,0,0,0-2.468,4.135l-.394-1.142a6.378,6.378,0,0,1-.313-2.7,5.253,5.253,0,0,1,.4-1.626c.6-1.283-1.293-2.135-1.824-3.2-.409-.822-.429-2.7-1.073-4.061l-.769-1.037a4.913,4.913,0,0,0-3.512-.985c-1.737.387-1.487-6.1,2.032-5.382" transform="translate(-604.676 -374.658)" fill="#05173e"/>
          <path id="Trazado_229064" data-name="Trazado 229064" d="M800.989,531.277c-.018,1.082.477,1.967,1.106,1.978s1.153-.858,1.171-1.939-.477-1.967-1.105-1.978-1.153.858-1.171,1.939" transform="translate(-628.418 -415.293)" fill="#f7a491"/>
          <rect id="Rectángulo_58298" data-name="Rectángulo 58298" width="35.715" height="30.982" transform="translate(169.368 157.674)" fill="#ff5b51"/>
          <rect id="Rectángulo_58299" data-name="Rectángulo 58299" width="13.49" height="30.982" transform="translate(169.368 157.674)" fill="#ff7768"/>
          <path id="Trazado_229065" data-name="Trazado 229065" d="M863.136,689.959c-.4-1.456-1.1-3.749-1.1-3.749.088-1.9,1.764-23.392,1.528-24.3s-7.48-17.011-7.48-17.011L850,650.627l7.039,14.6c.059.853.61,16.669.61,16.669a44.2,44.2,0,0,1,.087,5.222,18.768,18.768,0,0,0-1.917,2.718,4.429,4.429,0,0,0-.441,1.753s-.044,1.356.254,1.456a.639.639,0,0,0,.727-.375c.1-.243.055-.783.154-1.026a1.856,1.856,0,0,1,1.113-.584c.174-.007.169,1.652.071,3.23a1.245,1.245,0,0,0,1.041,1.283c.269.052.411-.194.7.093a2.454,2.454,0,0,0,1.347-.054,2.629,2.629,0,0,0,1.59.009c.063-.012.125-.026.188-.041a1,1,0,0,0,.763-.919,10.633,10.633,0,0,0,.005-1.251,13.145,13.145,0,0,0-.192-3.453" transform="translate(-666.868 -505.954)" fill="#f8a492"/>
          <path id="Trazado_229066" data-name="Trazado 229066" d="M844.382,613.535l-7.976,6.223a28.724,28.724,0,0,1-5.291-7.114c-1.791-3.782-1.235-15.3.671-14.786,4.263,1.147,12.6,15.677,12.6,15.677" transform="translate(-651.199 -469.038)" fill="#f7ede7"/>
          <path id="Trazado_229067" data-name="Trazado 229067" d="M411.4,880.241H401.022v-4.592H416a4.592,4.592,0,0,1-4.592,4.592" transform="translate(-314.623 -686.992)" fill="#ff5b51"/>
          <path id="Trazado_229068" data-name="Trazado 229068" d="M398.123,1183.035H1.877c-1.036,0-1.877.338-1.877.756s.84.756,1.877.756H398.123c1.036,0,1.877-.338,1.877-.756s-.84-.756-1.877-.756" transform="translate(0 -928.153)" fill="#f5daa2"/>
          <path id="Trazado_229071" data-name="Trazado 229071" d="M278.074,293.954l-19.818,11.728,15.189,3.437Z" transform="translate(-202.615 -230.623)" fill="#65b3c6"/>
          <path id="Trazado_229072" data-name="Trazado 229072" d="M270.655,313.1l-17.761-4.018,7.273,12.29,22.8-13.5L275.9,295.922Z" transform="translate(-198.408 -232.167)" fill="#65b3c6"/>
          <path id="Trazado_229073" data-name="Trazado 229073" d="M1224.486,64.076a11.552,11.552,0,0,1-9.752,7.146c-4.555.486-8.265-1.306-11.306-4.667l-1.868,1.273-.752-9.495,8.6,4.1-1.908,1.322a9.114,9.114,0,0,0,8.345,4.959,10.674,10.674,0,0,0,8.643-4.635" transform="translate(-999.575 -15.86)" fill="#65b3c6"/>
          <path id="Trazado_229074" data-name="Trazado 229074" d="M1201.728,7.325c.935-3.527,5.348-6.838,9.755-7.26,4.547-.435,8.246,1.314,11.294,4.681l1.865-1.278c.254,3.184.5,6.31.756,9.486l-8.592-4.092c.552-.381,1.063-.76,1.6-1.094.313-.194.307-.35.127-.647-3.662-6.049-12.5-6.116-16.807.2" transform="translate(-1000.298 29.907)" fill="#65b3c6"/>
          <rect id="Rectángulo_58300" data-name="Rectángulo 58300" width="6.745" height="3.864" transform="translate(169.368 138.51)" fill="#f5daa2"/>
          <path id="Trazado_229075" data-name="Trazado 229075" d="M799.766,17.615l-4.85,4.093,4.85,4.867Z" transform="translate(-623.653 -13.82)" fill="#ffbf91"/>
          <path id="Trazado_229076" data-name="Trazado 229076" d="M1432.125,50.348,1418.9,54.7l5.011-10.237Z" transform="translate(-1113.2 -34.885)" fill="#ff7768"/>
        </g>
      </g>
    </g>
    <g id="Grupo_178628" data-name="Grupo 178628" transform="translate(3155.425 -7184.646)">
      <g id="Grupo_178588" data-name="Grupo 178588" clip-path="url(#clip-path-2)">
        <g id="Grupo_178580" data-name="Grupo 178580" transform="translate(0 0)">
          <g id="Grupo_178579" data-name="Grupo 178579" clip-path="url(#clip-path-2)">
            <path id="Trazado_228844" data-name="Trazado 228844" d="M7.22,64.719H117.575l-13.216-9.777V7.211A7.211,7.211,0,0,0,97.148,0H7.211A7.211,7.211,0,0,0,0,7.211v50.3a7.211,7.211,0,0,0,7.211,7.211Z" transform="translate(0 0)" fill="#8c5be1"/>
            <g id="Grupo_178566" data-name="Grupo 178566" transform="translate(9.599 9.31)" opacity="0.45" style="isolation: isolate">
              <g id="Grupo_178565" data-name="Grupo 178565">
                <g id="Grupo_178564" data-name="Grupo 178564" clip-path="url(#clip-path-4)">
                  <rect id="Rectángulo_58234" data-name="Rectángulo 58234" width="50.433" height="4.825" transform="translate(0)" fill="#fff"/>
                </g>
              </g>
            </g>
            <g id="Grupo_178569" data-name="Grupo 178569" transform="translate(9.599 16.519)" opacity="0.45" style="isolation: isolate">
              <g id="Grupo_178568" data-name="Grupo 178568">
                <g id="Grupo_178567" data-name="Grupo 178567" clip-path="url(#clip-path-4)">
                  <rect id="Rectángulo_58236" data-name="Rectángulo 58236" width="50.433" height="4.825" transform="translate(0)" fill="#fff"/>
                </g>
              </g>
            </g>
            <g id="Grupo_178572" data-name="Grupo 178572" transform="translate(9.599 23.728)" opacity="0.45" style="isolation: isolate">
              <g id="Grupo_178571" data-name="Grupo 178571">
                <g id="Grupo_178570" data-name="Grupo 178570" clip-path="url(#clip-path-4)">
                  <rect id="Rectángulo_58238" data-name="Rectángulo 58238" width="50.433" height="4.825" transform="translate(0)" fill="#fff"/>
                </g>
              </g>
            </g>
            <g id="Grupo_178575" data-name="Grupo 178575" transform="translate(9.599 30.752)" opacity="0.45" style="isolation: isolate">
              <g id="Grupo_178574" data-name="Grupo 178574">
                <g id="Grupo_178573" data-name="Grupo 178573" clip-path="url(#clip-path-4)">
                  <rect id="Rectángulo_58240" data-name="Rectángulo 58240" width="50.433" height="4.825" transform="translate(0)" fill="#fff"/>
                </g>
              </g>
            </g>
            <g id="Grupo_178578" data-name="Grupo 178578" transform="translate(24.861 39.155)" opacity="0.45" style="isolation: isolate">
              <g id="Grupo_178577" data-name="Grupo 178577">
                <g id="Grupo_178576" data-name="Grupo 178576" clip-path="url(#clip-path-8)">
                  <rect id="Rectángulo_58242" data-name="Rectángulo 58242" width="35.17" height="4.825" fill="#fff"/>
                </g>
              </g>
            </g>
          </g>
        </g>
        <g id="Grupo_178582" data-name="Grupo 178582" transform="translate(63.993 9.31)">
          <g id="Grupo_178581" data-name="Grupo 178581" clip-path="url(#clip-path-9)">
            <rect id="Rectángulo_58245" data-name="Rectángulo 58245" width="31.68" height="37.042" transform="translate(0 0)" fill="url(#linear-gradient)"/>
          </g>
        </g>
        <g id="Grupo_178587" data-name="Grupo 178587" transform="translate(0 0)">
          <g id="Grupo_178586" data-name="Grupo 178586" clip-path="url(#clip-path-2)">
            <g id="Grupo_178585" data-name="Grupo 178585" transform="translate(63.993 50.965)" opacity="0.45" style="isolation: isolate">
              <g id="Grupo_178584" data-name="Grupo 178584">
                <g id="Grupo_178583" data-name="Grupo 178583" clip-path="url(#clip-path-11)">
                  <rect id="Rectángulo_58247" data-name="Rectángulo 58247" width="31.68" height="3.976" transform="translate(0 0)" fill="#fff"/>
                </g>
              </g>
            </g>
            <path id="Trazado_228845" data-name="Trazado 228845" d="M18.064,23.538h11.5a1.429,1.429,0,0,0,1.385-1.058l2.211-8.168a1.428,1.428,0,0,0-1.385-1.808H15.851a1.427,1.427,0,0,0-1.385,1.808l2.211,8.168a1.427,1.427,0,0,0,1.387,1.058" transform="translate(58.645 9.81)" fill="#26aab7"/>
            <path id="Trazado_228846" data-name="Trazado 228846" d="M24.294,27.447H38.14a.286.286,0,0,0,0-.573H24.51l-4.818-16.8a.283.283,0,0,0-.275-.207H16.405a.286.286,0,1,0,0,.573H19.2l4.818,16.8a.285.285,0,0,0,.277.207" transform="translate(50.387 7.739)" fill="#26aab7"/>
            <path id="Trazado_228847" data-name="Trazado 228847" d="M15.588,21.715a1.676,1.676,0,1,0,1.677-1.674h0a1.677,1.677,0,0,0-1.676,1.674" transform="translate(70.819 15.722)" fill="#26aab7"/>
            <path id="Trazado_228848" data-name="Trazado 228848" d="M24.085,20.041a1.674,1.674,0,1,0,1.674,1.674,1.674,1.674,0,0,0-1.674-1.674" transform="translate(51.825 15.722)" fill="#26aab7"/>
          </g>
        </g>
      </g>
    </g>
    <g id="Grupo_178629" data-name="Grupo 178629">
      <path id="Trazado_229077" data-name="Trazado 229077" d="M623.559,103.876l-27.4,18.537a6.082,6.082,0,0,1-8.444-1.629l-18.537-27.4a6.081,6.081,0,0,1,1.629-8.444l27.4-18.537a6.081,6.081,0,0,1,8.444,1.629l18.538,27.4a6.081,6.081,0,0,1-1.629,8.444" transform="translate(2821.766 -7298.615)" fill="#ff7768"/>
      <path id="Trazado_229078" data-name="Trazado 229078" d="M628.313,101.535a15.5,15.5,0,1,1-21.529-4.154,15.5,15.5,0,0,1,21.529,4.154" transform="translate(2803.236 -7315.705)" fill="#fff"/>
      <path id="Trazado_229079" data-name="Trazado 229079" d="M624.851,116.576l6.36,6.935a1.248,1.248,0,0,1-1.839,1.687,1.307,1.307,0,0,1-.188-.269Z" transform="translate(2788.752 -7328.428)" fill="#ff7768"/>
      <path id="Trazado_229080" data-name="Trazado 229080" d="M635.668,125.818l9.594-5.371-8.369,7.131a1.077,1.077,0,0,1-1.4-1.64,1.152,1.152,0,0,1,.172-.12" transform="translate(2782.777 -7330.681)" fill="#ff7768"/>
    </g>
    <path id="Trazado_229081" data-name="Trazado 229081" d="M963.075,110.251c0,1.153-5.317,2.088-11.876,2.088s-11.876-.935-11.876-2.088,5.317-2.088,11.876-2.088,11.876.935,11.876,2.088" transform="translate(2338.214 -7282.918)" fill="#f5daa2"/>
    <path id="Trazado_229082" data-name="Trazado 229082" d="M953.568,33.4c-5.4,0-9.783,3.908-9.783,8.73s9.783,28.415,9.783,28.415,9.783-23.594,9.783-28.415-4.38-8.73-9.783-8.73m0,13.8a4.15,4.15,0,1,1,4.15-4.15,4.15,4.15,0,0,1-4.15,4.15" transform="translate(2335.844 -7243.21)" fill="#ff7768"/>
  </g>
</svg>
