<svg xmlns="http://www.w3.org/2000/svg" xmlns:xlink="http://www.w3.org/1999/xlink" width="190" height="182.751" viewBox="0 0 190 182.751">
  <defs>
    <clipPath id="clip-path">
      <rect id="Rect치ngulo_56418" data-name="Rect치ngulo 56418" width="184.759" height="156.844" fill="#8c5be1"/>
    </clipPath>
  </defs>
  <g id="Grupo_181111" data-name="Grupo 181111" transform="translate(-7825 9332)">
    <g id="Grupo_178846" data-name="Grupo 178846" transform="translate(7540 -11710.455)">
      <g id="Grupo_175893" data-name="Grupo 175893" transform="translate(285 2414.927)">
        <g id="Grupo_169306" data-name="Grupo 169306" transform="translate(41.176 146.279) rotate(-90)">
          <circle id="Elipse_5566" data-name="Elipse 5566" cx="31.702" cy="31.702" r="31.702" transform="translate(56.613 44.833) rotate(-45)" fill="#def2f4"/>
          <ellipse id="Elipse_5567" data-name="Elipse 5567" cx="50.91" cy="50.91" rx="50.91" ry="50.91" transform="translate(0 52.41) rotate(-22.5)" fill="#fff"/>
          <g id="Grupo_152550" data-name="Grupo 152550" transform="translate(4.172 6.432)">
            <ellipse id="Elipse_5568" data-name="Elipse 5568" cx="0.036" cy="0.036" rx="0.036" ry="0.036" transform="translate(32.569 103.086)" fill="#e8e8e8"/>
            <path id="Trazado_193815" data-name="Trazado 193815" d="M.3,0A.3.3,0,1,1,0,.3.3.3,0,0,1,.3,0Z" transform="translate(38.713 102.819)" fill="#e8e8e8"/>
            <path id="Trazado_193816" data-name="Trazado 193816" d="M.516,0A.516.516,0,1,1,0,.516.517.517,0,0,1,.516,0Z" transform="translate(44.91 102.605)" fill="#e8e8e8"/>
            <ellipse id="Elipse_5569" data-name="Elipse 5569" cx="0.551" cy="0.551" rx="0.551" ry="0.551" transform="translate(51.285 102.57)" fill="#e8e8e8"/>
            <path id="Trazado_193817" data-name="Trazado 193817" d="M.516,0A.516.516,0,1,1,0,.516.516.516,0,0,1,.516,0Z" transform="translate(57.731 102.605)" fill="#e8e8e8"/>
            <path id="Trazado_193818" data-name="Trazado 193818" d="M.284,0A.284.284,0,1,1,0,.284.284.284,0,0,1,.284,0Z" transform="translate(64.373 102.837)" fill="#e8e8e8"/>
            <ellipse id="Elipse_5570" data-name="Elipse 5570" cx="0.018" cy="0.018" rx="0.018" ry="0.018" transform="translate(71.05 103.103)" fill="#e8e8e8"/>
            <ellipse id="Elipse_5571" data-name="Elipse 5571" cx="0.018" cy="0.018" rx="0.018" ry="0.018" transform="translate(19.765 96.693)" fill="#e8e8e8"/>
            <path id="Trazado_193819" data-name="Trazado 193819" d="M.534,0A.533.533,0,1,1,0,.533.534.534,0,0,1,.534,0Z" transform="translate(25.66 96.177)" fill="#e8e8e8"/>
            <path id="Trazado_193820" data-name="Trazado 193820" d="M1.085,0A1.085,1.085,0,1,1,0,1.085,1.085,1.085,0,0,1,1.085,0Z" transform="translate(31.52 95.625)" fill="#e8e8e8"/>
            <ellipse id="Elipse_5572" data-name="Elipse 5572" cx="1.209" cy="1.209" rx="1.209" ry="1.209" transform="translate(37.806 95.502)" fill="#e8e8e8"/>
            <ellipse id="Elipse_5573" data-name="Elipse 5573" cx="1.209" cy="1.209" rx="1.209" ry="1.209" transform="translate(44.217 95.502)" fill="#e8e8e8"/>
            <path id="Trazado_193821" data-name="Trazado 193821" d="M1.209,0A1.209,1.209,0,1,1,0,1.209,1.21,1.21,0,0,1,1.209,0Z" transform="translate(50.627 95.501)" fill="#e8e8e8"/>
            <path id="Trazado_193822" data-name="Trazado 193822" d="M1.209,0A1.209,1.209,0,1,1,0,1.209,1.21,1.21,0,0,1,1.209,0Z" transform="translate(57.038 95.501)" fill="#e8e8e8"/>
            <path id="Trazado_193823" data-name="Trazado 193823" d="M1.209,0A1.209,1.209,0,1,1,0,1.209,1.21,1.21,0,0,1,1.209,0Z" transform="translate(63.448 95.501)" fill="#e8e8e8"/>
            <path id="Trazado_193824" data-name="Trazado 193824" d="M1.067,0A1.067,1.067,0,1,1,0,1.067,1.068,1.068,0,0,1,1.067,0Z" transform="translate(70.001 95.643)" fill="#e8e8e8"/>
            <path id="Trazado_193825" data-name="Trazado 193825" d="M.5,0A.5.5,0,1,1,0,.5.5.5,0,0,1,.5,0Z" transform="translate(76.981 96.213)" fill="#e8e8e8"/>
            <ellipse id="Elipse_5574" data-name="Elipse 5574" cx="0.018" cy="0.018" rx="0.018" ry="0.018" transform="translate(83.872 96.693)" fill="#e8e8e8"/>
            <path id="Trazado_193826" data-name="Trazado 193826" d="M.09,0A.088.088,0,0,1,.178.088.089.089,0,1,1,.09,0Z" transform="translate(13.283 90.212)" fill="#e8e8e8"/>
            <path id="Trazado_193827" data-name="Trazado 193827" d="M.871,0A.871.871,0,1,1,0,.871.871.871,0,0,1,.871,0Z" transform="translate(18.912 89.429)" fill="#e8e8e8"/>
            <ellipse id="Elipse_5575" data-name="Elipse 5575" cx="1.209" cy="1.209" rx="1.209" ry="1.209" transform="translate(24.985 89.091)" fill="#e8e8e8"/>
            <ellipse id="Elipse_5576" data-name="Elipse 5576" cx="1.209" cy="1.209" rx="1.209" ry="1.209" transform="translate(31.395 89.091)" fill="#e8e8e8"/>
            <ellipse id="Elipse_5577" data-name="Elipse 5577" cx="1.209" cy="1.209" rx="1.209" ry="1.209" transform="translate(37.806 89.091)" fill="#e8e8e8"/>
            <ellipse id="Elipse_5578" data-name="Elipse 5578" cx="1.209" cy="1.209" rx="1.209" ry="1.209" transform="translate(44.217 89.091)" fill="#e8e8e8"/>
            <path id="Trazado_193828" data-name="Trazado 193828" d="M1.209,0A1.209,1.209,0,1,1,0,1.209,1.21,1.21,0,0,1,1.209,0Z" transform="translate(50.627 89.091)" fill="#e8e8e8"/>
            <path id="Trazado_193829" data-name="Trazado 193829" d="M1.209,0A1.209,1.209,0,1,1,0,1.209,1.21,1.21,0,0,1,1.209,0Z" transform="translate(57.038 89.091)" fill="#e8e8e8"/>
            <path id="Trazado_193830" data-name="Trazado 193830" d="M1.209,0A1.209,1.209,0,1,1,0,1.209,1.21,1.21,0,0,1,1.209,0Z" transform="translate(63.448 89.091)" fill="#e8e8e8"/>
            <path id="Trazado_193831" data-name="Trazado 193831" d="M1.209,0A1.209,1.209,0,1,1,0,1.209,1.21,1.21,0,0,1,1.209,0Z" transform="translate(69.859 89.091)" fill="#e8e8e8"/>
            <path id="Trazado_193832" data-name="Trazado 193832" d="M1.209,0A1.209,1.209,0,1,1,0,1.209,1.21,1.21,0,0,1,1.209,0Z" transform="translate(76.269 89.091)" fill="#e8e8e8"/>
            <path id="Trazado_193833" data-name="Trazado 193833" d="M.853,0A.853.853,0,1,1,0,.853.853.853,0,0,1,.853,0Z" transform="translate(83.036 89.447)" fill="#e8e8e8"/>
            <path id="Trazado_193834" data-name="Trazado 193834" d="M.052,0a.054.054,0,1,1,0,.108A.054.054,0,0,1,.052,0Z" transform="translate(90.247 90.246)" fill="#e8e8e8"/>
            <ellipse id="Elipse_5579" data-name="Elipse 5579" cx="0.018" cy="0.018" rx="0.018" ry="0.018" transform="translate(6.944 83.871)" fill="#e8e8e8"/>
            <path id="Trazado_193835" data-name="Trazado 193835" d="M.871,0A.871.871,0,1,1,0,.871.87.87,0,0,1,.871,0Z" transform="translate(12.502 83.018)" fill="#e8e8e8"/>
            <ellipse id="Elipse_5580" data-name="Elipse 5580" cx="1.209" cy="1.209" rx="1.209" ry="1.209" transform="translate(18.574 82.681)" fill="#e8e8e8"/>
            <ellipse id="Elipse_5581" data-name="Elipse 5581" cx="1.209" cy="1.209" rx="1.209" ry="1.209" transform="translate(24.985 82.681)" fill="#e8e8e8"/>
            <ellipse id="Elipse_5582" data-name="Elipse 5582" cx="1.209" cy="1.209" rx="1.209" ry="1.209" transform="translate(31.395 82.681)" fill="#e8e8e8"/>
            <ellipse id="Elipse_5583" data-name="Elipse 5583" cx="1.209" cy="1.209" rx="1.209" ry="1.209" transform="translate(37.806 82.681)" fill="#e8e8e8"/>
            <ellipse id="Elipse_5584" data-name="Elipse 5584" cx="1.209" cy="1.209" rx="1.209" ry="1.209" transform="translate(44.217 82.681)" fill="#e8e8e8"/>
            <path id="Trazado_193836" data-name="Trazado 193836" d="M1.209,0A1.209,1.209,0,1,1,0,1.209,1.21,1.21,0,0,1,1.209,0Z" transform="translate(50.627 82.68)" fill="#e8e8e8"/>
            <path id="Trazado_193837" data-name="Trazado 193837" d="M1.209,0A1.209,1.209,0,1,1,0,1.209,1.21,1.21,0,0,1,1.209,0Z" transform="translate(57.038 82.68)" fill="#e8e8e8"/>
            <path id="Trazado_193838" data-name="Trazado 193838" d="M1.209,0A1.209,1.209,0,1,1,0,1.209,1.21,1.21,0,0,1,1.209,0Z" transform="translate(63.448 82.68)" fill="#e8e8e8"/>
            <path id="Trazado_193839" data-name="Trazado 193839" d="M1.209,0A1.209,1.209,0,1,1,0,1.209,1.21,1.21,0,0,1,1.209,0Z" transform="translate(69.859 82.68)" fill="#e8e8e8"/>
            <path id="Trazado_193840" data-name="Trazado 193840" d="M1.209,0A1.209,1.209,0,1,1,0,1.209,1.21,1.21,0,0,1,1.209,0Z" transform="translate(76.269 82.68)" fill="#e8e8e8"/>
            <path id="Trazado_193841" data-name="Trazado 193841" d="M1.209,0A1.209,1.209,0,1,1,0,1.209,1.21,1.21,0,0,1,1.209,0Z" transform="translate(82.68 82.68)" fill="#e8e8e8"/>
            <path id="Trazado_193842" data-name="Trazado 193842" d="M.853,0A.853.853,0,1,1,0,.853.853.853,0,0,1,.853,0Z" transform="translate(89.446 83.036)" fill="#e8e8e8"/>
            <ellipse id="Elipse_5585" data-name="Elipse 5585" cx="0.018" cy="0.018" rx="0.018" ry="0.018" transform="translate(96.693 83.871)" fill="#e8e8e8"/>
            <path id="Trazado_193843" data-name="Trazado 193843" d="M.534,0A.534.534,0,1,1,0,.534.533.533,0,0,1,.534,0Z" transform="translate(6.429 76.945)" fill="#e8e8e8"/>
            <ellipse id="Elipse_5586" data-name="Elipse 5586" cx="1.209" cy="1.209" rx="1.209" ry="1.209" transform="translate(12.164 76.27)" fill="#e8e8e8"/>
            <ellipse id="Elipse_5587" data-name="Elipse 5587" cx="1.209" cy="1.209" rx="1.209" ry="1.209" transform="translate(18.574 76.27)" fill="#e8e8e8"/>
            <ellipse id="Elipse_5588" data-name="Elipse 5588" cx="1.209" cy="1.209" rx="1.209" ry="1.209" transform="translate(24.985 76.27)" fill="#e8e8e8"/>
            <ellipse id="Elipse_5589" data-name="Elipse 5589" cx="1.209" cy="1.209" rx="1.209" ry="1.209" transform="translate(31.395 76.27)" fill="#e8e8e8"/>
            <ellipse id="Elipse_5590" data-name="Elipse 5590" cx="1.209" cy="1.209" rx="1.209" ry="1.209" transform="translate(37.806 76.27)" fill="#e8e8e8"/>
            <ellipse id="Elipse_5591" data-name="Elipse 5591" cx="1.209" cy="1.209" rx="1.209" ry="1.209" transform="translate(44.217 76.27)" fill="#e8e8e8"/>
            <path id="Trazado_193844" data-name="Trazado 193844" d="M1.209,0A1.209,1.209,0,1,1,0,1.209,1.21,1.21,0,0,1,1.209,0Z" transform="translate(50.627 76.27)" fill="#e8e8e8"/>
            <path id="Trazado_193845" data-name="Trazado 193845" d="M1.209,0A1.209,1.209,0,1,1,0,1.209,1.21,1.21,0,0,1,1.209,0Z" transform="translate(57.038 76.27)" fill="#e8e8e8"/>
            <path id="Trazado_193846" data-name="Trazado 193846" d="M1.209,0A1.209,1.209,0,1,1,0,1.209,1.21,1.21,0,0,1,1.209,0Z" transform="translate(63.448 76.27)" fill="#e8e8e8"/>
            <path id="Trazado_193847" data-name="Trazado 193847" d="M1.209,0A1.209,1.209,0,1,1,0,1.209,1.21,1.21,0,0,1,1.209,0Z" transform="translate(69.859 76.27)" fill="#e8e8e8"/>
            <path id="Trazado_193848" data-name="Trazado 193848" d="M1.209,0A1.209,1.209,0,1,1,0,1.209,1.21,1.21,0,0,1,1.209,0Z" transform="translate(76.269 76.27)" fill="#e8e8e8"/>
            <path id="Trazado_193849" data-name="Trazado 193849" d="M1.209,0A1.209,1.209,0,1,1,0,1.209,1.21,1.21,0,0,1,1.209,0Z" transform="translate(82.68 76.27)" fill="#e8e8e8"/>
            <path id="Trazado_193850" data-name="Trazado 193850" d="M1.209,0A1.209,1.209,0,1,1,0,1.209,1.21,1.21,0,0,1,1.209,0Z" transform="translate(89.09 76.27)" fill="#e8e8e8"/>
            <path id="Trazado_193851" data-name="Trazado 193851" d="M.5,0A.5.5,0,1,1,0,.5.5.5,0,0,1,.5,0Z" transform="translate(96.212 76.981)" fill="#e8e8e8"/>
            <ellipse id="Elipse_5592" data-name="Elipse 5592" cx="0.036" cy="0.036" rx="0.036" ry="0.036" transform="translate(0.515 71.032)" fill="#e8e8e8"/>
            <path id="Trazado_193852" data-name="Trazado 193852" d="M1.067,0A1.067,1.067,0,1,1,0,1.067,1.066,1.066,0,0,1,1.067,0Z" transform="translate(5.895 70.001)" fill="#e8e8e8"/>
            <ellipse id="Elipse_5593" data-name="Elipse 5593" cx="1.209" cy="1.209" rx="1.209" ry="1.209" transform="translate(12.164 69.859)" fill="#e8e8e8"/>
            <ellipse id="Elipse_5594" data-name="Elipse 5594" cx="1.209" cy="1.209" rx="1.209" ry="1.209" transform="translate(18.574 69.859)" fill="#e8e8e8"/>
            <ellipse id="Elipse_5595" data-name="Elipse 5595" cx="1.209" cy="1.209" rx="1.209" ry="1.209" transform="translate(24.985 69.859)" fill="#e8e8e8"/>
            <ellipse id="Elipse_5596" data-name="Elipse 5596" cx="1.209" cy="1.209" rx="1.209" ry="1.209" transform="translate(31.395 69.859)" fill="#e8e8e8"/>
            <ellipse id="Elipse_5597" data-name="Elipse 5597" cx="1.209" cy="1.209" rx="1.209" ry="1.209" transform="translate(37.806 69.859)" fill="#e8e8e8"/>
            <ellipse id="Elipse_5598" data-name="Elipse 5598" cx="1.209" cy="1.209" rx="1.209" ry="1.209" transform="translate(44.217 69.859)" fill="#e8e8e8"/>
            <path id="Trazado_193853" data-name="Trazado 193853" d="M1.209,0A1.209,1.209,0,1,1,0,1.209,1.21,1.21,0,0,1,1.209,0Z" transform="translate(50.627 69.859)" fill="#e8e8e8"/>
            <path id="Trazado_193854" data-name="Trazado 193854" d="M1.209,0A1.209,1.209,0,1,1,0,1.209,1.21,1.21,0,0,1,1.209,0Z" transform="translate(57.038 69.859)" fill="#e8e8e8"/>
            <path id="Trazado_193855" data-name="Trazado 193855" d="M1.209,0A1.209,1.209,0,1,1,0,1.209,1.21,1.21,0,0,1,1.209,0Z" transform="translate(63.448 69.859)" fill="#e8e8e8"/>
            <path id="Trazado_193856" data-name="Trazado 193856" d="M1.209,0A1.209,1.209,0,1,1,0,1.209,1.21,1.21,0,0,1,1.209,0Z" transform="translate(69.859 69.859)" fill="#e8e8e8"/>
            <path id="Trazado_193857" data-name="Trazado 193857" d="M1.209,0A1.209,1.209,0,1,1,0,1.209,1.21,1.21,0,0,1,1.209,0Z" transform="translate(76.269 69.859)" fill="#e8e8e8"/>
            <path id="Trazado_193858" data-name="Trazado 193858" d="M1.209,0A1.209,1.209,0,1,1,0,1.209,1.21,1.21,0,0,1,1.209,0Z" transform="translate(82.68 69.859)" fill="#e8e8e8"/>
            <path id="Trazado_193859" data-name="Trazado 193859" d="M1.209,0A1.209,1.209,0,1,1,0,1.209,1.21,1.21,0,0,1,1.209,0Z" transform="translate(89.09 69.859)" fill="#e8e8e8"/>
            <path id="Trazado_193860" data-name="Trazado 193860" d="M1.048,0A1.049,1.049,0,1,1,0,1.049,1.049,1.049,0,0,1,1.048,0Z" transform="translate(95.662 70.019)" fill="#e8e8e8"/>
            <ellipse id="Elipse_5599" data-name="Elipse 5599" cx="0.036" cy="0.036" rx="0.036" ry="0.036" transform="translate(103.086 71.032)" fill="#e8e8e8"/>
            <ellipse id="Elipse_5600" data-name="Elipse 5600" cx="0.302" cy="0.302" rx="0.302" ry="0.302" transform="translate(0.249 64.355)" fill="#e8e8e8"/>
            <ellipse id="Elipse_5601" data-name="Elipse 5601" cx="1.209" cy="1.209" rx="1.209" ry="1.209" transform="translate(5.753 63.449)" fill="#e8e8e8"/>
            <ellipse id="Elipse_5602" data-name="Elipse 5602" cx="1.209" cy="1.209" rx="1.209" ry="1.209" transform="translate(12.164 63.449)" fill="#e8e8e8"/>
            <ellipse id="Elipse_5603" data-name="Elipse 5603" cx="1.209" cy="1.209" rx="1.209" ry="1.209" transform="translate(18.574 63.449)" fill="#e8e8e8"/>
            <ellipse id="Elipse_5604" data-name="Elipse 5604" cx="1.209" cy="1.209" rx="1.209" ry="1.209" transform="translate(24.985 63.449)" fill="#e8e8e8"/>
            <ellipse id="Elipse_5605" data-name="Elipse 5605" cx="1.209" cy="1.209" rx="1.209" ry="1.209" transform="translate(31.395 63.449)" fill="#e8e8e8"/>
            <ellipse id="Elipse_5606" data-name="Elipse 5606" cx="1.209" cy="1.209" rx="1.209" ry="1.209" transform="translate(37.806 63.449)" fill="#e8e8e8"/>
            <ellipse id="Elipse_5607" data-name="Elipse 5607" cx="1.209" cy="1.209" rx="1.209" ry="1.209" transform="translate(44.217 63.449)" fill="#e8e8e8"/>
            <path id="Trazado_193861" data-name="Trazado 193861" d="M1.209,0A1.209,1.209,0,1,1,0,1.209,1.209,1.209,0,0,1,1.209,0Z" transform="translate(50.627 63.449)" fill="#e8e8e8"/>
            <path id="Trazado_193862" data-name="Trazado 193862" d="M1.209,0A1.209,1.209,0,1,1,0,1.209,1.209,1.209,0,0,1,1.209,0Z" transform="translate(57.038 63.449)" fill="#e8e8e8"/>
            <path id="Trazado_193863" data-name="Trazado 193863" d="M1.209,0A1.209,1.209,0,1,1,0,1.209,1.209,1.209,0,0,1,1.209,0Z" transform="translate(63.448 63.449)" fill="#e8e8e8"/>
            <path id="Trazado_193864" data-name="Trazado 193864" d="M1.209,0A1.209,1.209,0,1,1,0,1.209,1.209,1.209,0,0,1,1.209,0Z" transform="translate(69.859 63.449)" fill="#e8e8e8"/>
            <path id="Trazado_193865" data-name="Trazado 193865" d="M1.209,0A1.209,1.209,0,1,1,0,1.209,1.209,1.209,0,0,1,1.209,0Z" transform="translate(76.269 63.449)" fill="#e8e8e8"/>
            <path id="Trazado_193866" data-name="Trazado 193866" d="M1.209,0A1.209,1.209,0,1,1,0,1.209,1.209,1.209,0,0,1,1.209,0Z" transform="translate(82.68 63.449)" fill="#e8e8e8"/>
            <path id="Trazado_193867" data-name="Trazado 193867" d="M1.209,0A1.209,1.209,0,1,1,0,1.209,1.209,1.209,0,0,1,1.209,0Z" transform="translate(89.09 63.449)" fill="#e8e8e8"/>
            <path id="Trazado_193868" data-name="Trazado 193868" d="M1.208,0A1.209,1.209,0,1,1,0,1.209,1.208,1.208,0,0,1,1.208,0Z" transform="translate(95.502 63.449)" fill="#e8e8e8"/>
            <ellipse id="Elipse_5608" data-name="Elipse 5608" cx="0.267" cy="0.267" rx="0.267" ry="0.267" transform="translate(102.854 64.391)" fill="#e8e8e8"/>
            <path id="Trazado_193869" data-name="Trazado 193869" d="M.516,0A.516.516,0,1,1,0,.516.516.516,0,0,1,.516,0Z" transform="translate(0.036 57.732)" fill="#e8e8e8"/>
            <path id="Trazado_193870" data-name="Trazado 193870" d="M1.209,0A1.209,1.209,0,1,1,0,1.209,1.208,1.208,0,0,1,1.209,0Z" transform="translate(5.753 57.038)" fill="#e8e8e8"/>
            <path id="Trazado_193871" data-name="Trazado 193871" d="M1.209,0A1.209,1.209,0,1,1,0,1.209,1.208,1.208,0,0,1,1.209,0Z" transform="translate(12.164 57.038)" fill="#e8e8e8"/>
            <path id="Trazado_193872" data-name="Trazado 193872" d="M1.209,0A1.209,1.209,0,1,1,0,1.209,1.208,1.208,0,0,1,1.209,0Z" transform="translate(18.574 57.038)" fill="#e8e8e8"/>
            <path id="Trazado_193873" data-name="Trazado 193873" d="M1.209,0A1.209,1.209,0,1,1,0,1.209,1.208,1.208,0,0,1,1.209,0Z" transform="translate(24.985 57.038)" fill="#e8e8e8"/>
            <path id="Trazado_193874" data-name="Trazado 193874" d="M1.209,0A1.209,1.209,0,1,1,0,1.209,1.209,1.209,0,0,1,1.209,0Z" transform="translate(31.395 57.038)" fill="#e8e8e8"/>
            <path id="Trazado_193875" data-name="Trazado 193875" d="M1.209,0A1.209,1.209,0,1,1,0,1.209,1.209,1.209,0,0,1,1.209,0Z" transform="translate(37.806 57.038)" fill="#e8e8e8"/>
            <path id="Trazado_193876" data-name="Trazado 193876" d="M1.209,0A1.209,1.209,0,1,1,0,1.209,1.209,1.209,0,0,1,1.209,0Z" transform="translate(44.217 57.038)" fill="#e8e8e8"/>
            <path id="Trazado_193877" data-name="Trazado 193877" d="M1.209,0A1.209,1.209,0,1,1,0,1.209,1.209,1.209,0,0,1,1.209,0Z" transform="translate(50.627 57.038)" fill="#e8e8e8"/>
            <path id="Trazado_193878" data-name="Trazado 193878" d="M1.209,0A1.209,1.209,0,1,1,0,1.209,1.209,1.209,0,0,1,1.209,0Z" transform="translate(57.038 57.038)" fill="#e8e8e8"/>
            <path id="Trazado_193879" data-name="Trazado 193879" d="M1.209,0A1.209,1.209,0,1,1,0,1.209,1.209,1.209,0,0,1,1.209,0Z" transform="translate(63.448 57.038)" fill="#e8e8e8"/>
            <path id="Trazado_193880" data-name="Trazado 193880" d="M1.209,0A1.209,1.209,0,1,1,0,1.209,1.209,1.209,0,0,1,1.209,0Z" transform="translate(69.859 57.038)" fill="#e8e8e8"/>
            <path id="Trazado_193881" data-name="Trazado 193881" d="M1.209,0A1.209,1.209,0,1,1,0,1.209,1.209,1.209,0,0,1,1.209,0Z" transform="translate(76.269 57.038)" fill="#e8e8e8"/>
            <path id="Trazado_193882" data-name="Trazado 193882" d="M1.209,0A1.209,1.209,0,1,1,0,1.209,1.209,1.209,0,0,1,1.209,0Z" transform="translate(82.68 57.038)" fill="#e8e8e8"/>
            <path id="Trazado_193883" data-name="Trazado 193883" d="M1.209,0A1.209,1.209,0,1,1,0,1.209,1.209,1.209,0,0,1,1.209,0Z" transform="translate(89.09 57.038)" fill="#e8e8e8"/>
            <path id="Trazado_193884" data-name="Trazado 193884" d="M1.208,0A1.209,1.209,0,1,1,0,1.209,1.208,1.208,0,0,1,1.208,0Z" transform="translate(95.502 57.038)" fill="#e8e8e8"/>
            <path id="Trazado_193885" data-name="Trazado 193885" d="M.5,0A.5.5,0,1,1,0,.5.5.5,0,0,1,.5,0Z" transform="translate(102.623 57.749)" fill="#e8e8e8"/>
            <ellipse id="Elipse_5609" data-name="Elipse 5609" cx="0.551" cy="0.551" rx="0.551" ry="0.551" transform="translate(0 51.285)" fill="#e8e8e8"/>
            <path id="Trazado_193886" data-name="Trazado 193886" d="M1.209,0A1.209,1.209,0,1,1,0,1.209,1.208,1.208,0,0,1,1.209,0Z" transform="translate(5.753 50.627)" fill="#e8e8e8"/>
            <path id="Trazado_193887" data-name="Trazado 193887" d="M1.209,0A1.209,1.209,0,1,1,0,1.209,1.208,1.208,0,0,1,1.209,0Z" transform="translate(12.164 50.627)" fill="#e8e8e8"/>
            <path id="Trazado_193888" data-name="Trazado 193888" d="M1.209,0A1.209,1.209,0,1,1,0,1.209,1.208,1.208,0,0,1,1.209,0Z" transform="translate(18.574 50.627)" fill="#e8e8e8"/>
            <path id="Trazado_193889" data-name="Trazado 193889" d="M1.209,0A1.209,1.209,0,1,1,0,1.209,1.208,1.208,0,0,1,1.209,0Z" transform="translate(24.985 50.627)" fill="#e8e8e8"/>
            <path id="Trazado_193890" data-name="Trazado 193890" d="M1.209,0A1.209,1.209,0,1,1,0,1.209,1.209,1.209,0,0,1,1.209,0Z" transform="translate(31.395 50.627)" fill="#e8e8e8"/>
            <path id="Trazado_193891" data-name="Trazado 193891" d="M1.209,0A1.209,1.209,0,1,1,0,1.209,1.209,1.209,0,0,1,1.209,0Z" transform="translate(37.806 50.627)" fill="#e8e8e8"/>
            <path id="Trazado_193892" data-name="Trazado 193892" d="M1.209,0A1.209,1.209,0,1,1,0,1.209,1.209,1.209,0,0,1,1.209,0Z" transform="translate(44.217 50.627)" fill="#e8e8e8"/>
            <path id="Trazado_193893" data-name="Trazado 193893" d="M1.209,0A1.209,1.209,0,1,1,0,1.209,1.209,1.209,0,0,1,1.209,0Z" transform="translate(50.627 50.627)" fill="#e8e8e8"/>
            <path id="Trazado_193894" data-name="Trazado 193894" d="M1.209,0A1.209,1.209,0,1,1,0,1.209,1.209,1.209,0,0,1,1.209,0Z" transform="translate(57.038 50.627)" fill="#e8e8e8"/>
            <path id="Trazado_193895" data-name="Trazado 193895" d="M1.209,0A1.209,1.209,0,1,1,0,1.209,1.209,1.209,0,0,1,1.209,0Z" transform="translate(63.448 50.627)" fill="#e8e8e8"/>
            <path id="Trazado_193896" data-name="Trazado 193896" d="M1.209,0A1.209,1.209,0,1,1,0,1.209,1.209,1.209,0,0,1,1.209,0Z" transform="translate(69.859 50.627)" fill="#e8e8e8"/>
            <path id="Trazado_193897" data-name="Trazado 193897" d="M1.209,0A1.209,1.209,0,1,1,0,1.209,1.209,1.209,0,0,1,1.209,0Z" transform="translate(76.269 50.627)" fill="#e8e8e8"/>
            <path id="Trazado_193898" data-name="Trazado 193898" d="M1.209,0A1.209,1.209,0,1,1,0,1.209,1.209,1.209,0,0,1,1.209,0Z" transform="translate(82.68 50.627)" fill="#e8e8e8"/>
            <path id="Trazado_193899" data-name="Trazado 193899" d="M1.209,0A1.209,1.209,0,1,1,0,1.209,1.209,1.209,0,0,1,1.209,0Z" transform="translate(89.09 50.627)" fill="#e8e8e8"/>
            <path id="Trazado_193900" data-name="Trazado 193900" d="M1.208,0A1.209,1.209,0,1,1,0,1.209,1.208,1.208,0,0,1,1.208,0Z" transform="translate(95.502 50.627)" fill="#e8e8e8"/>
            <path id="Trazado_193901" data-name="Trazado 193901" d="M.55,0A.551.551,0,1,1,0,.551.551.551,0,0,1,.55,0Z" transform="translate(102.571 51.285)" fill="#e8e8e8"/>
            <path id="Trazado_193902" data-name="Trazado 193902" d="M.516,0A.516.516,0,1,1,0,.516.516.516,0,0,1,.516,0Z" transform="translate(0.036 44.91)" fill="#e8e8e8"/>
            <path id="Trazado_193903" data-name="Trazado 193903" d="M1.209,0A1.208,1.208,0,1,1,0,1.209,1.208,1.208,0,0,1,1.209,0Z" transform="translate(5.753 44.217)" fill="#e8e8e8"/>
            <path id="Trazado_193904" data-name="Trazado 193904" d="M1.209,0A1.208,1.208,0,1,1,0,1.209,1.208,1.208,0,0,1,1.209,0Z" transform="translate(12.164 44.217)" fill="#e8e8e8"/>
            <path id="Trazado_193905" data-name="Trazado 193905" d="M1.209,0A1.208,1.208,0,1,1,0,1.209,1.208,1.208,0,0,1,1.209,0Z" transform="translate(18.574 44.217)" fill="#e8e8e8"/>
            <path id="Trazado_193906" data-name="Trazado 193906" d="M1.209,0A1.208,1.208,0,1,1,0,1.209,1.208,1.208,0,0,1,1.209,0Z" transform="translate(24.985 44.217)" fill="#e8e8e8"/>
            <path id="Trazado_193907" data-name="Trazado 193907" d="M1.209,0A1.208,1.208,0,1,1,0,1.209,1.209,1.209,0,0,1,1.209,0Z" transform="translate(31.395 44.217)" fill="#e8e8e8"/>
            <path id="Trazado_193908" data-name="Trazado 193908" d="M1.209,0A1.208,1.208,0,1,1,0,1.209,1.209,1.209,0,0,1,1.209,0Z" transform="translate(37.806 44.217)" fill="#e8e8e8"/>
            <path id="Trazado_193909" data-name="Trazado 193909" d="M1.209,0A1.208,1.208,0,1,1,0,1.209,1.209,1.209,0,0,1,1.209,0Z" transform="translate(44.217 44.217)" fill="#e8e8e8"/>
            <path id="Trazado_193910" data-name="Trazado 193910" d="M1.209,0A1.208,1.208,0,1,1,0,1.209,1.209,1.209,0,0,1,1.209,0Z" transform="translate(50.627 44.217)" fill="#e8e8e8"/>
            <path id="Trazado_193911" data-name="Trazado 193911" d="M1.209,0A1.208,1.208,0,1,1,0,1.209,1.209,1.209,0,0,1,1.209,0Z" transform="translate(57.038 44.217)" fill="#e8e8e8"/>
            <path id="Trazado_193912" data-name="Trazado 193912" d="M1.209,0A1.208,1.208,0,1,1,0,1.209,1.209,1.209,0,0,1,1.209,0Z" transform="translate(63.448 44.217)" fill="#e8e8e8"/>
            <path id="Trazado_193913" data-name="Trazado 193913" d="M1.209,0A1.208,1.208,0,1,1,0,1.209,1.209,1.209,0,0,1,1.209,0Z" transform="translate(69.859 44.217)" fill="#e8e8e8"/>
            <path id="Trazado_193914" data-name="Trazado 193914" d="M1.209,0A1.208,1.208,0,1,1,0,1.209,1.209,1.209,0,0,1,1.209,0Z" transform="translate(76.269 44.217)" fill="#e8e8e8"/>
            <path id="Trazado_193915" data-name="Trazado 193915" d="M1.209,0A1.208,1.208,0,1,1,0,1.209,1.209,1.209,0,0,1,1.209,0Z" transform="translate(82.68 44.217)" fill="#e8e8e8"/>
            <path id="Trazado_193916" data-name="Trazado 193916" d="M1.209,0A1.208,1.208,0,1,1,0,1.209,1.209,1.209,0,0,1,1.209,0Z" transform="translate(89.09 44.217)" fill="#e8e8e8"/>
            <path id="Trazado_193917" data-name="Trazado 193917" d="M1.208,0A1.208,1.208,0,1,1,0,1.209,1.208,1.208,0,0,1,1.208,0Z" transform="translate(95.502 44.217)" fill="#e8e8e8"/>
            <path id="Trazado_193918" data-name="Trazado 193918" d="M.48,0A.48.48,0,1,1,0,.48.48.48,0,0,1,.48,0Z" transform="translate(102.641 44.946)" fill="#e8e8e8"/>
            <ellipse id="Elipse_5610" data-name="Elipse 5610" cx="0.284" cy="0.284" rx="0.284" ry="0.284" transform="translate(0.267 38.73)" fill="#e8e8e8"/>
            <path id="Trazado_193919" data-name="Trazado 193919" d="M1.209,0A1.208,1.208,0,1,1,0,1.209,1.208,1.208,0,0,1,1.209,0Z" transform="translate(5.753 37.806)" fill="#e8e8e8"/>
            <path id="Trazado_193920" data-name="Trazado 193920" d="M1.209,0A1.208,1.208,0,1,1,0,1.209,1.208,1.208,0,0,1,1.209,0Z" transform="translate(12.164 37.806)" fill="#e8e8e8"/>
            <path id="Trazado_193921" data-name="Trazado 193921" d="M1.209,0A1.208,1.208,0,1,1,0,1.209,1.208,1.208,0,0,1,1.209,0Z" transform="translate(18.574 37.806)" fill="#e8e8e8"/>
            <path id="Trazado_193922" data-name="Trazado 193922" d="M1.209,0A1.208,1.208,0,1,1,0,1.209,1.208,1.208,0,0,1,1.209,0Z" transform="translate(24.985 37.806)" fill="#e8e8e8"/>
            <path id="Trazado_193923" data-name="Trazado 193923" d="M1.209,0A1.208,1.208,0,1,1,0,1.209,1.209,1.209,0,0,1,1.209,0Z" transform="translate(31.395 37.806)" fill="#e8e8e8"/>
            <path id="Trazado_193924" data-name="Trazado 193924" d="M1.209,0A1.208,1.208,0,1,1,0,1.209,1.209,1.209,0,0,1,1.209,0Z" transform="translate(37.806 37.806)" fill="#e8e8e8"/>
            <path id="Trazado_193925" data-name="Trazado 193925" d="M1.209,0A1.208,1.208,0,1,1,0,1.209,1.209,1.209,0,0,1,1.209,0Z" transform="translate(44.217 37.806)" fill="#e8e8e8"/>
            <path id="Trazado_193926" data-name="Trazado 193926" d="M1.209,0A1.208,1.208,0,1,1,0,1.209,1.209,1.209,0,0,1,1.209,0Z" transform="translate(50.627 37.806)" fill="#e8e8e8"/>
            <path id="Trazado_193927" data-name="Trazado 193927" d="M1.209,0A1.208,1.208,0,1,1,0,1.209,1.209,1.209,0,0,1,1.209,0Z" transform="translate(57.038 37.806)" fill="#e8e8e8"/>
            <path id="Trazado_193928" data-name="Trazado 193928" d="M1.209,0A1.208,1.208,0,1,1,0,1.209,1.209,1.209,0,0,1,1.209,0Z" transform="translate(63.448 37.806)" fill="#e8e8e8"/>
            <path id="Trazado_193929" data-name="Trazado 193929" d="M1.209,0A1.208,1.208,0,1,1,0,1.209,1.209,1.209,0,0,1,1.209,0Z" transform="translate(69.859 37.806)" fill="#e8e8e8"/>
            <path id="Trazado_193930" data-name="Trazado 193930" d="M1.209,0A1.208,1.208,0,1,1,0,1.209,1.209,1.209,0,0,1,1.209,0Z" transform="translate(76.269 37.806)" fill="#e8e8e8"/>
            <path id="Trazado_193931" data-name="Trazado 193931" d="M1.209,0A1.208,1.208,0,1,1,0,1.209,1.209,1.209,0,0,1,1.209,0Z" transform="translate(82.68 37.806)" fill="#e8e8e8"/>
            <path id="Trazado_193932" data-name="Trazado 193932" d="M1.209,0A1.208,1.208,0,1,1,0,1.209,1.209,1.209,0,0,1,1.209,0Z" transform="translate(89.09 37.806)" fill="#e8e8e8"/>
            <path id="Trazado_193933" data-name="Trazado 193933" d="M1.208,0A1.208,1.208,0,1,1,0,1.209,1.208,1.208,0,0,1,1.208,0Z" transform="translate(95.502 37.806)" fill="#e8e8e8"/>
            <ellipse id="Elipse_5611" data-name="Elipse 5611" cx="0.267" cy="0.267" rx="0.267" ry="0.267" transform="translate(102.854 38.748)" fill="#e8e8e8"/>
            <ellipse id="Elipse_5612" data-name="Elipse 5612" cx="0.018" cy="0.018" rx="0.018" ry="0.018" transform="translate(0.533 32.586)" fill="#e8e8e8"/>
            <path id="Trazado_193934" data-name="Trazado 193934" d="M1.067,0A1.066,1.066,0,1,1,0,1.066,1.066,1.066,0,0,1,1.067,0Z" transform="translate(5.895 31.538)" fill="#e8e8e8"/>
            <path id="Trazado_193935" data-name="Trazado 193935" d="M1.209,0A1.208,1.208,0,1,1,0,1.208,1.207,1.207,0,0,1,1.209,0Z" transform="translate(12.164 31.396)" fill="#e8e8e8"/>
            <path id="Trazado_193936" data-name="Trazado 193936" d="M1.209,0A1.208,1.208,0,1,1,0,1.208,1.207,1.207,0,0,1,1.209,0" transform="translate(18.574 31.396)" fill="#e8e8e8"/>
            <path id="Trazado_193937" data-name="Trazado 193937" d="M1.209,0A1.208,1.208,0,1,1,0,1.208,1.207,1.207,0,0,1,1.209,0Z" transform="translate(24.985 31.396)" fill="#e8e8e8"/>
            <path id="Trazado_193938" data-name="Trazado 193938" d="M1.209,0A1.208,1.208,0,1,1,0,1.208,1.208,1.208,0,0,1,1.209,0Z" transform="translate(31.395 31.396)" fill="#e8e8e8"/>
            <path id="Trazado_193939" data-name="Trazado 193939" d="M1.209,0A1.208,1.208,0,1,1,0,1.208,1.208,1.208,0,0,1,1.209,0Z" transform="translate(37.806 31.396)" fill="#e8e8e8"/>
            <path id="Trazado_193940" data-name="Trazado 193940" d="M1.209,0A1.208,1.208,0,1,1,0,1.208,1.208,1.208,0,0,1,1.209,0Z" transform="translate(44.217 31.396)" fill="#e8e8e8"/>
            <path id="Trazado_193941" data-name="Trazado 193941" d="M1.209,0A1.208,1.208,0,1,1,0,1.208,1.208,1.208,0,0,1,1.209,0Z" transform="translate(50.627 31.396)" fill="#e8e8e8"/>
            <path id="Trazado_193942" data-name="Trazado 193942" d="M1.209,0A1.208,1.208,0,1,1,0,1.208,1.208,1.208,0,0,1,1.209,0Z" transform="translate(57.038 31.396)" fill="#e8e8e8"/>
            <path id="Trazado_193943" data-name="Trazado 193943" d="M1.209,0A1.208,1.208,0,1,1,0,1.208,1.208,1.208,0,0,1,1.209,0Z" transform="translate(63.448 31.396)" fill="#e8e8e8"/>
            <path id="Trazado_193944" data-name="Trazado 193944" d="M1.209,0A1.208,1.208,0,1,1,0,1.208,1.208,1.208,0,0,1,1.209,0Z" transform="translate(69.859 31.396)" fill="#e8e8e8"/>
            <path id="Trazado_193945" data-name="Trazado 193945" d="M1.209,0A1.208,1.208,0,1,1,0,1.208,1.208,1.208,0,0,1,1.209,0Z" transform="translate(76.269 31.396)" fill="#e8e8e8"/>
            <path id="Trazado_193946" data-name="Trazado 193946" d="M1.209,0A1.208,1.208,0,1,1,0,1.208,1.208,1.208,0,0,1,1.209,0Z" transform="translate(82.68 31.396)" fill="#e8e8e8"/>
            <path id="Trazado_193947" data-name="Trazado 193947" d="M1.209,0A1.208,1.208,0,1,1,0,1.208,1.208,1.208,0,0,1,1.209,0Z" transform="translate(89.09 31.396)" fill="#e8e8e8"/>
            <path id="Trazado_193948" data-name="Trazado 193948" d="M1.048,0A1.048,1.048,0,1,1,0,1.048,1.048,1.048,0,0,1,1.048,0Z" transform="translate(95.662 31.556)" fill="#e8e8e8"/>
            <ellipse id="Elipse_5613" data-name="Elipse 5613" cx="0.036" cy="0.036" rx="0.036" ry="0.036" transform="translate(103.086 32.569)" fill="#e8e8e8"/>
            <path id="Trazado_193949" data-name="Trazado 193949" d="M.5,0A.5.5,0,1,1,0,.5.5.5,0,0,1,.5,0Z" transform="translate(6.463 25.695)" fill="#e8e8e8"/>
            <path id="Trazado_193950" data-name="Trazado 193950" d="M1.209,0A1.208,1.208,0,1,1,0,1.208,1.207,1.207,0,0,1,1.209,0Z" transform="translate(12.164 24.985)" fill="#e8e8e8"/>
            <path id="Trazado_193951" data-name="Trazado 193951" d="M1.209,0A1.208,1.208,0,1,1,0,1.208,1.207,1.207,0,0,1,1.209,0Z" transform="translate(18.574 24.985)" fill="#e8e8e8"/>
            <path id="Trazado_193952" data-name="Trazado 193952" d="M1.209,0A1.208,1.208,0,1,1,0,1.208,1.207,1.207,0,0,1,1.209,0Z" transform="translate(24.985 24.985)" fill="#e8e8e8"/>
            <path id="Trazado_193953" data-name="Trazado 193953" d="M1.209,0A1.208,1.208,0,1,1,0,1.208,1.209,1.209,0,0,1,1.209,0Z" transform="translate(31.395 24.985)" fill="#e8e8e8"/>
            <path id="Trazado_193954" data-name="Trazado 193954" d="M1.209,0A1.208,1.208,0,1,1,0,1.208,1.209,1.209,0,0,1,1.209,0Z" transform="translate(37.806 24.985)" fill="#e8e8e8"/>
            <path id="Trazado_193955" data-name="Trazado 193955" d="M1.209,0A1.208,1.208,0,1,1,0,1.208,1.209,1.209,0,0,1,1.209,0Z" transform="translate(44.217 24.985)" fill="#e8e8e8"/>
            <path id="Trazado_193956" data-name="Trazado 193956" d="M1.209,0A1.208,1.208,0,1,1,0,1.208,1.209,1.209,0,0,1,1.209,0Z" transform="translate(50.627 24.985)" fill="#e8e8e8"/>
            <path id="Trazado_193957" data-name="Trazado 193957" d="M1.209,0A1.208,1.208,0,1,1,0,1.208,1.209,1.209,0,0,1,1.209,0Z" transform="translate(57.038 24.985)" fill="#e8e8e8"/>
            <path id="Trazado_193958" data-name="Trazado 193958" d="M1.209,0A1.208,1.208,0,1,1,0,1.208,1.209,1.209,0,0,1,1.209,0Z" transform="translate(63.448 24.985)" fill="#e8e8e8"/>
            <path id="Trazado_193959" data-name="Trazado 193959" d="M1.209,0A1.208,1.208,0,1,1,0,1.208,1.209,1.209,0,0,1,1.209,0Z" transform="translate(69.859 24.985)" fill="#e8e8e8"/>
            <path id="Trazado_193960" data-name="Trazado 193960" d="M1.209,0A1.208,1.208,0,1,1,0,1.208,1.209,1.209,0,0,1,1.209,0Z" transform="translate(76.269 24.985)" fill="#e8e8e8"/>
            <path id="Trazado_193961" data-name="Trazado 193961" d="M1.209,0A1.208,1.208,0,1,1,0,1.208,1.209,1.209,0,0,1,1.209,0Z" transform="translate(82.68 24.985)" fill="#e8e8e8"/>
            <path id="Trazado_193962" data-name="Trazado 193962" d="M1.209,0A1.208,1.208,0,1,1,0,1.208,1.209,1.209,0,0,1,1.209,0Z" transform="translate(89.09 24.985)" fill="#e8e8e8"/>
            <path id="Trazado_193963" data-name="Trazado 193963" d="M.48,0A.48.48,0,1,1,0,.48.48.48,0,0,1,.48,0Z" transform="translate(96.23 25.713)" fill="#e8e8e8"/>
            <ellipse id="Elipse_5614" data-name="Elipse 5614" cx="0.018" cy="0.018" rx="0.018" ry="0.018" transform="translate(6.944 19.765)" fill="#e8e8e8"/>
            <path id="Trazado_193964" data-name="Trazado 193964" d="M.853,0A.853.853,0,1,1,0,.853.855.855,0,0,1,.853,0Z" transform="translate(12.519 18.929)" fill="#e8e8e8"/>
            <ellipse id="Elipse_5615" data-name="Elipse 5615" cx="1.209" cy="1.209" rx="1.209" ry="1.209" transform="translate(18.574 18.574)" fill="#e8e8e8"/>
            <ellipse id="Elipse_5616" data-name="Elipse 5616" cx="1.209" cy="1.209" rx="1.209" ry="1.209" transform="translate(24.985 18.574)" fill="#e8e8e8"/>
            <ellipse id="Elipse_5617" data-name="Elipse 5617" cx="1.209" cy="1.209" rx="1.209" ry="1.209" transform="translate(31.395 18.574)" fill="#e8e8e8"/>
            <ellipse id="Elipse_5618" data-name="Elipse 5618" cx="1.209" cy="1.209" rx="1.209" ry="1.209" transform="translate(37.806 18.574)" fill="#e8e8e8"/>
            <ellipse id="Elipse_5619" data-name="Elipse 5619" cx="1.209" cy="1.209" rx="1.209" ry="1.209" transform="translate(44.217 18.574)" fill="#e8e8e8"/>
            <path id="Trazado_193965" data-name="Trazado 193965" d="M1.209,0A1.208,1.208,0,1,1,0,1.208,1.208,1.208,0,0,1,1.209,0Z" transform="translate(50.627 18.575)" fill="#e8e8e8"/>
            <path id="Trazado_193966" data-name="Trazado 193966" d="M1.209,0A1.208,1.208,0,1,1,0,1.208,1.208,1.208,0,0,1,1.209,0Z" transform="translate(57.038 18.575)" fill="#e8e8e8"/>
            <path id="Trazado_193967" data-name="Trazado 193967" d="M1.209,0A1.208,1.208,0,1,1,0,1.208,1.208,1.208,0,0,1,1.209,0Z" transform="translate(63.448 18.575)" fill="#e8e8e8"/>
            <path id="Trazado_193968" data-name="Trazado 193968" d="M1.209,0A1.208,1.208,0,1,1,0,1.208,1.208,1.208,0,0,1,1.209,0Z" transform="translate(69.859 18.575)" fill="#e8e8e8"/>
            <path id="Trazado_193969" data-name="Trazado 193969" d="M1.209,0A1.208,1.208,0,1,1,0,1.208,1.208,1.208,0,0,1,1.209,0Z" transform="translate(76.269 18.575)" fill="#e8e8e8"/>
            <path id="Trazado_193970" data-name="Trazado 193970" d="M1.209,0A1.208,1.208,0,1,1,0,1.208,1.208,1.208,0,0,1,1.209,0Z" transform="translate(82.68 18.575)" fill="#e8e8e8"/>
            <path id="Trazado_193971" data-name="Trazado 193971" d="M.835,0A.836.836,0,1,1,0,.835.836.836,0,0,1,.835,0Z" transform="translate(89.464 18.947)" fill="#e8e8e8"/>
            <ellipse id="Elipse_5620" data-name="Elipse 5620" cx="0.018" cy="0.018" rx="0.018" ry="0.018" transform="translate(96.693 19.765)" fill="#e8e8e8"/>
            <ellipse id="Elipse_5621" data-name="Elipse 5621" cx="0.053" cy="0.053" rx="0.053" ry="0.053" transform="translate(13.319 13.319)" fill="#e8e8e8"/>
            <path id="Trazado_193972" data-name="Trazado 193972" d="M.853,0A.853.853,0,1,1,0,.853.855.855,0,0,1,.853,0Z" transform="translate(18.93 12.519)" fill="#e8e8e8"/>
            <ellipse id="Elipse_5622" data-name="Elipse 5622" cx="1.209" cy="1.209" rx="1.209" ry="1.209" transform="translate(24.985 12.164)" fill="#e8e8e8"/>
            <ellipse id="Elipse_5623" data-name="Elipse 5623" cx="1.209" cy="1.209" rx="1.209" ry="1.209" transform="translate(31.395 12.164)" fill="#e8e8e8"/>
            <ellipse id="Elipse_5624" data-name="Elipse 5624" cx="1.209" cy="1.209" rx="1.209" ry="1.209" transform="translate(37.806 12.164)" fill="#e8e8e8"/>
            <ellipse id="Elipse_5625" data-name="Elipse 5625" cx="1.209" cy="1.209" rx="1.209" ry="1.209" transform="translate(44.217 12.164)" fill="#e8e8e8"/>
            <path id="Trazado_193973" data-name="Trazado 193973" d="M1.209,0A1.208,1.208,0,1,1,0,1.208,1.209,1.209,0,0,1,1.209,0Z" transform="translate(50.627 12.164)" fill="#e8e8e8"/>
            <path id="Trazado_193974" data-name="Trazado 193974" d="M1.209,0A1.208,1.208,0,1,1,0,1.208,1.209,1.209,0,0,1,1.209,0Z" transform="translate(57.038 12.164)" fill="#e8e8e8"/>
            <path id="Trazado_193975" data-name="Trazado 193975" d="M1.209,0A1.208,1.208,0,1,1,0,1.208,1.209,1.209,0,0,1,1.209,0Z" transform="translate(63.448 12.164)" fill="#e8e8e8"/>
            <path id="Trazado_193976" data-name="Trazado 193976" d="M1.209,0A1.208,1.208,0,1,1,0,1.208,1.209,1.209,0,0,1,1.209,0Z" transform="translate(69.859 12.164)" fill="#e8e8e8"/>
            <path id="Trazado_193977" data-name="Trazado 193977" d="M1.209,0A1.208,1.208,0,1,1,0,1.208,1.209,1.209,0,0,1,1.209,0Z" transform="translate(76.269 12.164)" fill="#e8e8e8"/>
            <path id="Trazado_193978" data-name="Trazado 193978" d="M.835,0A.835.835,0,1,1,0,.835.836.836,0,0,1,.835,0Z" transform="translate(83.053 12.536)" fill="#e8e8e8"/>
            <path id="Trazado_193979" data-name="Trazado 193979" d="M.07,0A.071.071,0,1,1,0,.07.071.071,0,0,1,.07,0Z" transform="translate(90.229 13.302)" fill="#e8e8e8"/>
            <ellipse id="Elipse_5626" data-name="Elipse 5626" cx="0.018" cy="0.018" rx="0.018" ry="0.018" transform="translate(19.765 6.944)" fill="#e8e8e8"/>
            <path id="Trazado_193980" data-name="Trazado 193980" d="M.5,0A.5.5,0,1,1,0,.5.5.5,0,0,1,.5,0Z" transform="translate(25.696 6.464)" fill="#e8e8e8"/>
            <path id="Trazado_193981" data-name="Trazado 193981" d="M1.049,0A1.048,1.048,0,1,1,0,1.048,1.048,1.048,0,0,1,1.049,0Z" transform="translate(31.555 5.914)" fill="#e8e8e8"/>
            <ellipse id="Elipse_5627" data-name="Elipse 5627" cx="1.209" cy="1.209" rx="1.209" ry="1.209" transform="translate(37.806 5.753)" fill="#e8e8e8"/>
            <ellipse id="Elipse_5628" data-name="Elipse 5628" cx="1.209" cy="1.209" rx="1.209" ry="1.209" transform="translate(44.217 5.753)" fill="#e8e8e8"/>
            <path id="Trazado_193982" data-name="Trazado 193982" d="M1.209,0A1.208,1.208,0,1,1,0,1.208,1.208,1.208,0,0,1,1.209,0Z" transform="translate(50.627 5.754)" fill="#e8e8e8"/>
            <path id="Trazado_193983" data-name="Trazado 193983" d="M1.209,0A1.208,1.208,0,1,1,0,1.208,1.208,1.208,0,0,1,1.209,0Z" transform="translate(57.038 5.754)" fill="#e8e8e8"/>
            <path id="Trazado_193984" data-name="Trazado 193984" d="M1.209,0A1.208,1.208,0,1,1,0,1.208,1.209,1.209,0,0,1,1.209,0Z" transform="translate(63.448 5.754)" fill="#e8e8e8"/>
            <path id="Trazado_193985" data-name="Trazado 193985" d="M1.049,0A1.048,1.048,0,1,1,0,1.048,1.048,1.048,0,0,1,1.049,0Z" transform="translate(70.019 5.914)" fill="#e8e8e8"/>
            <path id="Trazado_193986" data-name="Trazado 193986" d="M.48,0A.48.48,0,1,1,0,.48.48.48,0,0,1,.48,0Z" transform="translate(76.999 6.482)" fill="#e8e8e8"/>
            <ellipse id="Elipse_5629" data-name="Elipse 5629" cx="0.018" cy="0.018" rx="0.018" ry="0.018" transform="translate(83.872 6.944)" fill="#e8e8e8"/>
            <ellipse id="Elipse_5630" data-name="Elipse 5630" cx="0.036" cy="0.036" rx="0.036" ry="0.036" transform="translate(32.569 0.515)" fill="#e8e8e8"/>
            <path id="Trazado_193987" data-name="Trazado 193987" d="M.266,0A.267.267,0,1,1,0,.266.265.265,0,0,1,.266,0Z" transform="translate(38.749 0.285)" fill="#e8e8e8"/>
            <path id="Trazado_193988" data-name="Trazado 193988" d="M.5,0A.5.5,0,1,1,0,.5.5.5,0,0,1,.5,0Z" transform="translate(44.928 0.053)" fill="#e8e8e8"/>
            <ellipse id="Elipse_5631" data-name="Elipse 5631" cx="0.551" cy="0.551" rx="0.551" ry="0.551" transform="translate(51.285)" fill="#e8e8e8"/>
            <path id="Trazado_193989" data-name="Trazado 193989" d="M.5,0A.5.5,0,1,1,0,.5.5.5,0,0,1,.5,0Z" transform="translate(57.749 0.053)" fill="#e8e8e8"/>
            <path id="Trazado_193990" data-name="Trazado 193990" d="M.266,0A.267.267,0,1,1,0,.266.265.265,0,0,1,.266,0Z" transform="translate(64.391 0.285)" fill="#e8e8e8"/>
            <ellipse id="Elipse_5632" data-name="Elipse 5632" cx="0.036" cy="0.036" rx="0.036" ry="0.036" transform="translate(71.032 0.515)" fill="#e8e8e8"/>
          </g>
        </g>
        <g id="Grupo_169387" data-name="Grupo 169387" transform="translate(0 89.367)">
          <path id="Trazado_211593" data-name="Trazado 211593" d="M3.6,288.537c.146.238.3.469.455.7l24.425-14.972c-.13-.242-.268-.484-.413-.722-.215-.35-.443-.687-.683-1.013L3,287.469c.181.361.379.718.593,1.068" transform="translate(-1.571 -266.857)" fill="#43a99b"/>
          <path id="Trazado_211594" data-name="Trazado 211594" d="M21.2,305.773l16.561-10.151a14.381,14.381,0,0,0,.5-2.711l-19.7,12.075a14.438,14.438,0,0,0,2.641.787" transform="translate(-9.701 -277.512)" fill="#43a99b"/>
          <path id="Trazado_211595" data-name="Trazado 211595" d="M10.75,297.56l22.461-13.768a14.2,14.2,0,0,0-.468-2.119L9.074,296.181a14.248,14.248,0,0,0,1.676,1.379" transform="translate(-4.743 -271.638)" fill="#43a99b"/>
          <path id="Trazado_211596" data-name="Trazado 211596" d="M40.171,312.1A14.307,14.307,0,0,0,44.1,308.55l-8.876,5.441a14.314,14.314,0,0,0,4.947-1.891" transform="translate(-18.411 -285.687)" fill="#43a99b"/>
          <path id="Trazado_211597" data-name="Trazado 211597" d="M.41,281l23.484-14.4a14.179,14.179,0,0,0-1.734-1.344L0,278.845A14.2,14.2,0,0,0,.41,281" transform="translate(0 -263.059)" fill="#43a99b"/>
          <path id="Trazado_211598" data-name="Trazado 211598" d="M10.707,262.95a14.336,14.336,0,0,0-3.161,2.624l6.933-4.249a14.327,14.327,0,0,0-3.772,1.625" transform="translate(-3.944 -261.002)" fill="#43a99b"/>
          <path id="Trazado_211599" data-name="Trazado 211599" d="M.029,273.126l19.193-11.765a14.441,14.441,0,0,0-2.764-.713L.649,270.34a14.4,14.4,0,0,0-.62,2.787" transform="translate(-0.015 -260.649)" fill="#43a99b"/>
        </g>
      </g>
      <g id="Grupo_175904" data-name="Grupo 175904" transform="translate(290.241 2378.455)" clip-path="url(#clip-path)">
        <path id="Trazado_218610" data-name="Trazado 218610" d="M137.041,132.582s97.366-73.024,31.5-92.354S34.664-27.069,16.766,20.182s30.785,67.3,7.875,93.07,28.637,72.308,112.4,19.33" transform="translate(-6.65 0)" fill="#8c5be1"/>
      </g>
    </g>
    <rect id="Rect치ngulo_58418" data-name="Rect치ngulo 58418" width="111" height="92" rx="7" transform="translate(7869 -9297)" fill="#fff"/>
    <g id="layer1" transform="translate(7857.75 -9479.035)">
      <path id="path1152" d="M19.642,180.1a10.727,10.727,0,0,0-10.65,10.65v74.975a10.727,10.727,0,0,0,10.65,10.65h84.772c2.84,0,2.84-4.4,0-4.4H19.642a6.125,6.125,0,0,1-6.248-6.248V203.244H82.973c2.84,0,2.84-4.4,0-4.4H13.394v-8.094a6.125,6.125,0,0,1,6.248-6.248H113.36a6.125,6.125,0,0,1,6.248,6.248v8.094H91.351a2.2,2.2,0,1,0,0,4.4h28.257v62.479a6.125,6.125,0,0,1-6.248,6.248,2.2,2.2,0,1,0,0,4.4,10.727,10.727,0,0,0,10.65-10.65V190.748a10.727,10.727,0,0,0-10.65-10.65Zm4.828,6.39a4.91,4.91,0,0,0-4.828,4.97,4.788,4.788,0,0,0,4.828,4.828,4.91,4.91,0,0,0,4.97-4.828A5.031,5.031,0,0,0,24.47,186.488Zm11.786,0a4.91,4.91,0,0,0-4.828,4.97,4.828,4.828,0,1,0,9.656,0A4.91,4.91,0,0,0,36.256,186.488Zm74.549,0a5.031,5.031,0,0,0-4.97,4.97,4.9,4.9,0,0,0,9.8,0A5.005,5.005,0,0,0,110.8,186.488Zm-60.491,3.55c-2.84.142-2.556,4.4.284,4.4H95.61a2.2,2.2,0,0,0,0-4.4h-45.3Zm-25.843.852a.568.568,0,1,1-.568.568.611.611,0,0,1,.568-.568Zm11.786,0a.568.568,0,1,1-.568.568A.611.611,0,0,1,36.256,190.89Zm74.549,0c.284,0,.426.284.426.568s-.142.568-.426.568a.568.568,0,1,1,0-1.136Zm-3.976,26.269a3.151,3.151,0,0,0-1.562.71A8.713,8.713,0,0,0,102,219.431l-20.59,21.016L73.6,233.2a7.239,7.239,0,0,0-5.538-2.13,6.854,6.854,0,0,0-4.544,2.414,7.554,7.554,0,0,0-2.13,4.828,6.93,6.93,0,0,0,2.556,5.254l12.922,12.07a7.257,7.257,0,0,0,9.94-.284l6.39-6.532c2.13-2.13-1.136-5.254-3.124-2.982l-6.39,6.39a2.7,2.7,0,0,1-3.834.142l-12.922-12.07h-.142a2.115,2.115,0,0,1-.852-1.988,3.341,3.341,0,0,1,.71-1.846,3.957,3.957,0,0,1,1.846-.994,2.677,2.677,0,0,1,1.988.852h.142l9.372,8.8a2.227,2.227,0,0,0,3.124,0l22.01-22.578a2.5,2.5,0,0,1,1.846-.852,2.457,2.457,0,0,1,2.7,1.562,2.675,2.675,0,0,1-.568,2.982h-.142L97.6,238.033c-2.13,2.13,1.136,5.254,3.124,2.982l11.36-11.644a7.029,7.029,0,0,0,1.562-7.952,7.284,7.284,0,0,0-6.816-4.26Zm-58.645,6.674a2.184,2.184,0,0,0-2.13,2.13v27.69c0,2.84,4.4,2.84,4.4,0v-27.69A2.128,2.128,0,0,0,48.184,223.833Zm-10.366,4.26a2.184,2.184,0,0,0-2.13,2.13v23.43a2.2,2.2,0,0,0,4.4,0v-23.43a2.216,2.216,0,0,0-2.272-2.13ZM27.594,234.2a2.091,2.091,0,0,0-2.13,2.13v17.324c0,2.982,4.4,2.982,4.26,0V236.329A1.942,1.942,0,0,0,27.594,234.2Z" fill="#6335b1"/>
    </g>
  </g>
</svg>
