<svg xmlns="http://www.w3.org/2000/svg" xmlns:xlink="http://www.w3.org/1999/xlink" width="13.444" height="13.447" viewBox="0 0 13.444 13.447">
  <defs>
    <clipPath id="clip-path">
      <rect id="Rectángulo_57485" data-name="Rectángulo 57485" width="13.444" height="13.447" fill="#8c5be1"/>
    </clipPath>
  </defs>
  <g id="Grupo_177542" data-name="Grupo 177542" transform="translate(-556 -6964)">
    <g id="Grupo_177540" data-name="Grupo 177540" transform="translate(556 6964)">
      <g id="Grupo_177539" data-name="Grupo 177539" clip-path="url(#clip-path)">
        <path id="Trazado_226589" data-name="Trazado 226589" d="M8.9.374c-.327.332-.648.618-.921.944a.99.99,0,0,1-.951.35,4.988,4.988,0,0,0-5.244,3.9A4.911,4.911,0,0,0,3.119,10.3a4.874,4.874,0,0,0,4.306,1.434A4.843,4.843,0,0,0,11,9.47a4.84,4.84,0,0,0,.769-3.263.606.606,0,0,1,.216-.587c.366-.33.708-.687,1.068-1.042a6.626,6.626,0,0,1-2.195,7.44A6.717,6.717,0,1,1,8.9.374" transform="translate(0 0)" fill="#8c5be1"/>
        <path id="Trazado_226590" data-name="Trazado 226590" d="M60.545,56.257a3.764,3.764,0,1,1-3.053-3.705.318.318,0,0,1,.311.313.784.784,0,0,1-.249.841,1.478,1.478,0,0,1-1.009.455,2.033,2.033,0,0,0-1.891,2.01,2.121,2.121,0,1,0,4.24.056.8.8,0,0,1,.156-.389c.076-.115.216-.188.288-.3.236-.379.583-.344.935-.261a.307.307,0,0,1,.179.206c.048.256.065.518.094.778" transform="translate(-50.043 -49.553)" fill="#8c5be1"/>
        <path id="Trazado_226591" data-name="Trazado 226591" d="M114.052,10.376c-.517-.083-.914-.143-1.31-.213a.454.454,0,0,0-.444.153c-.719.72-1.45,1.428-2.183,2.135-.367.354-.62.367-.917.071-.25-.249-.233-.59.086-.917.718-.736,1.448-1.461,2.18-2.184a.373.373,0,0,0,.132-.39c-.077-.355-.122-.718-.181-1.077a.8.8,0,0,1,.225-.746c.451-.448.9-.9,1.351-1.347a.369.369,0,0,1,.636.138c.185.408.336.832.524,1.239a.66.66,0,0,0,.29.305c.389.18.793.328,1.193.486.431.17.505.489.182.822-.391.4-.775.812-1.189,1.189a2.8,2.8,0,0,1-.573.337" transform="translate(-102.9 -5.408)" fill="#8c5be1"/>
      </g>
    </g>
  </g>
</svg>
